<svg viewBox="0 0 56 56" xmlns="http://www.w3.org/2000/svg" xmlns:xlink="http://www.w3.org/1999/xlink" width="56.000000" height="56.000000" fill="none">
	<rect id="Icon/Luminaires/300_default 1" width="56.000000" height="56.000000" x="0.000000" y="0.000000" />
	<path id="Icon" d="M39.7134 25.7886C40.557 24.0629 41.0326 22.1239 41.0328 20.0737C41.0324 12.8761 35.1976 7.04102 28 7.04102C20.8025 7.04102 14.9676 12.8761 14.9673 20.0737C14.9674 21.8389 15.3208 23.5218 15.9568 25.0571L15.9551 25.0571L15.9555 25.0584L15.9551 25.0584L15.9572 25.0631C15.9583 25.0659 15.9599 25.0697 15.9619 25.0742C16.0311 25.2406 16.1048 25.4053 16.1807 25.5681C16.3191 25.8755 16.5089 26.3053 16.7275 26.8037L16.7346 26.8037C17.283 28.0587 17.9996 29.7568 18.4656 31.0845L18.8484 32.2449C19.233 33.4681 19.6105 34.8227 19.8704 35.7913L19.9694 36.0698C20.0829 36.3187 20.2506 36.5349 20.4559 36.7043C20.1357 37.1819 19.949 37.7566 19.949 38.3748C19.949 39.1588 20.2519 39.8702 20.7437 40.4051C20.2528 40.8909 19.9491 41.5655 19.949 42.3108C19.949 42.9622 20.1812 43.5603 20.5676 44.0249C20.1842 44.4473 19.949 45.0072 19.949 45.6226C19.949 46.9366 21.014 48.0013 22.3279 48.0015L22.5057 48.0015L23.6215 50.4627C24.1891 51.7132 25.4356 52.5167 26.8088 52.5167L29.1928 52.5167C30.566 52.5164 31.8129 51.713 32.3801 50.4627L33.4961 48.0015L33.6739 48.0015C34.9878 48.0013 36.0526 46.9366 36.0528 45.6226C36.0528 45.0065 35.8164 44.4473 35.4324 44.0249C35.8192 43.5603 36.0528 42.9626 36.0528 42.3108C36.0525 41.5651 35.7478 40.8909 35.2564 40.4051C35.7487 39.8702 36.0528 39.1592 36.0528 38.3748C36.0528 37.7566 35.866 37.1819 35.5458 36.7041C35.8238 36.4738 36.0328 36.1583 36.1313 35.7913C36.3914 34.8227 36.7689 33.4681 37.1534 32.2449L37.5361 31.0845C38.0012 29.7573 38.7153 28.059 39.2617 26.8037L39.2656 26.8037C39.4354 26.4149 39.5887 26.068 39.7134 25.7886ZM28 8.79102C34.0361 8.79102 38.9646 13.5315 39.2674 19.4927L39.2828 20.0737C39.2826 21.8502 38.8706 23.5267 38.1411 25.0195L38.1241 25.0537L17.8675 25.0537C17.835 24.9811 17.8054 24.9119 17.7769 24.8486L17.7665 24.8298L17.6094 24.4744L17.5735 24.3872C17.0232 23.0591 16.7174 21.6035 16.7173 20.0737L16.7327 19.4927C17.0354 13.5315 21.9639 8.79102 28 8.79102ZM34.4291 35.3555L34.4241 35.3589L21.5777 35.3589L21.5724 35.3555C21.5672 35.3512 21.5628 35.3465 21.5605 35.3382C21.2133 34.0449 20.6447 32.0086 20.1164 30.5034C19.7123 29.3527 19.1356 27.9635 18.6399 26.8086L37.3585 26.8086C36.8641 27.9641 36.2869 29.3542 35.8835 30.5052C35.3561 32.0101 34.7886 34.0451 34.4412 35.3382C34.4389 35.3465 34.4346 35.3512 34.4291 35.3555ZM31.9965 47.0981C30.9531 47.3583 29.8439 47.5185 28.7663 47.6281C27.618 47.7445 26.4604 47.8071 25.3946 47.859C25.0462 47.8761 24.7093 47.8919 24.3855 47.908L25.2161 49.7398L25.3374 49.9634C25.6562 50.4593 26.2084 50.7667 26.8088 50.7667L29.1928 50.7667C29.8793 50.7664 30.5022 50.3642 30.7857 49.7398L31.9017 47.2786C31.93 47.2162 31.9617 47.156 31.9965 47.0981ZM22.6587 46.2581C22.6082 46.2539 22.5572 46.2515 22.5057 46.2515L22.3279 46.2515C21.9798 46.2513 21.699 45.9695 21.699 45.6226C21.699 45.4624 21.7579 45.3163 21.8631 45.2005C22.0968 44.9431 22.2406 44.6327 22.2939 44.3101C23.9494 44.1672 26.111 43.9728 28.1699 43.7039C29.5743 43.5201 30.9537 43.3001 32.1078 43.0312C32.9155 42.843 33.6959 42.6142 34.3028 42.3172C34.3013 42.5409 34.2219 42.744 34.0874 42.9053C33.6921 43.3804 33.5872 44.0106 33.768 44.5673C32.5184 45.2958 30.6607 45.6762 28.5899 45.8864C27.4909 45.9982 26.3727 46.0584 25.3092 46.1103C24.3665 46.1562 23.4529 46.1956 22.6587 46.2581ZM33.5392 40.7428C33.4356 40.2143 33.5771 39.6461 33.9679 39.2208C34.1798 38.9903 34.3028 38.6957 34.3028 38.3748C34.3028 37.6823 33.7411 37.1204 33.0484 37.1204L22.9534 37.1204C22.3474 37.1204 21.8416 37.5504 21.7247 38.1219L21.699 38.3748C21.699 38.5833 21.7502 38.7798 21.8432 38.9546C23.5899 38.8031 26.3473 38.6092 28.9519 38.3107C29.4319 38.2558 29.8662 38.6008 29.9212 39.0808C29.9761 39.5609 29.631 39.9954 29.151 40.0505C26.7568 40.3248 24.1998 40.5149 22.4752 40.6582C22.4221 41.022 22.2547 41.3717 21.9741 41.6492C21.846 41.7761 21.7552 41.9383 21.7179 42.1211L21.699 42.3108C21.699 42.4123 21.7148 42.5095 21.7441 42.6001C23.4425 42.4546 25.75 42.2555 27.9442 41.9688C29.3242 41.7885 30.6376 41.576 31.71 41.326C32.5542 41.1293 33.1636 40.927 33.5392 40.7428Z" fill="rgb(0,0,0)" fill-rule="evenodd" />
</svg>
