<svg width="32" height="32" viewBox="0 0 32 32" fill="none" xmlns="http://www.w3.org/2000/svg">
<rect width="32" height="32" fill="white"/>
<path d="M22.4385 11.1387C22.2655 7.73234 19.4492 5.02344 16 5.02344C12.5508 5.02344 9.73449 7.73234 9.56152 11.1387L9.55273 11.4707C9.5528 12.3448 9.72758 13.1766 10.042 13.9355L10.0625 13.9854L10.1523 14.1885L10.1582 14.1992C10.1745 14.2354 10.1914 14.2749 10.21 14.3164H21.7852L21.7949 14.2969C22.2118 13.4439 22.4472 12.4859 22.4473 11.4707L22.4385 11.1387ZM23.4473 11.4707C23.4472 12.6422 23.1754 13.7502 22.6934 14.7363C22.6221 14.896 22.5345 15.0942 22.4375 15.3164H9.55859C9.43369 15.0316 9.3252 14.786 9.24609 14.6104C9.20276 14.5173 9.16065 14.4232 9.12109 14.3281C9.1184 14.3222 9.11719 14.3184 9.11719 14.3184H9.11816C8.75471 13.441 8.5528 12.4794 8.55273 11.4707C8.5529 7.35783 11.8871 4.02344 16 4.02344C20.1129 4.02344 23.4471 7.35783 23.4473 11.4707Z" fill="black"/>
<path d="M22.8789 14.3191C22.8789 14.3191 21.9307 16.3886 21.4492 17.7626L21.2305 18.4257C21.0108 19.1247 20.7951 19.8987 20.6465 20.4521C20.5426 20.8391 20.2238 21.126 19.8389 21.1914L19.6709 21.2051V20.2051C19.6711 20.205 19.6723 20.2043 19.6738 20.2031C19.6769 20.2007 19.6794 20.198 19.6807 20.1933C19.8792 19.4543 20.2035 18.2915 20.5049 17.4315C20.7354 16.7738 21.0652 15.9795 21.3477 15.3192H10.6514C10.9346 15.9791 11.2642 16.7729 11.4951 17.4306C11.797 18.2907 12.1219 19.4542 12.3203 20.1933C12.3216 20.198 12.3241 20.2007 12.3271 20.2031L12.3301 20.2051V21.2051C11.9294 21.205 11.5732 20.9672 11.4111 20.6113L11.3545 20.4521C11.206 19.8987 10.9903 19.1247 10.7705 18.4257L10.5518 17.7626C10.0693 16.3882 9.11719 14.3191 9.11719 14.3191H22.8789ZM19.6709 20.2051V21.2051H12.3301V20.2051H19.6709Z" fill="black"/>
<path d="M12.8604 26.4295C13.2528 26.4295 13.6094 26.659 13.7715 27.0164L14.4092 28.4227L14.4785 28.5506C14.6607 28.8339 14.9762 29.0096 15.3193 29.0096V30.0096C14.5346 30.0096 13.8223 29.5504 13.498 28.8358L12.8604 27.4295H12.7588V26.4295H12.8604ZM16.6816 29.0096V30.0096H15.3193V29.0096H16.6816ZM19.2422 26.4295V27.4295H19.1406L18.5029 28.8358C18.1788 29.5503 17.4663 30.0094 16.6816 30.0096V29.0096C17.0739 29.0094 17.4298 28.7796 17.5918 28.4227L18.2295 27.0164C18.3916 26.659 18.7482 26.4295 19.1406 26.4295H19.2422ZM19.6016 26.0701C19.6016 25.9799 19.5679 25.8972 19.5068 25.8299C19.1714 25.4608 19.1595 24.9007 19.4785 24.5174C19.5561 24.4243 19.6016 24.3069 19.6016 24.1776C19.6014 24.0297 19.542 23.8971 19.4434 23.7996C19.0608 23.4213 19.0461 22.8081 19.4102 22.4119C19.5313 22.2802 19.6016 22.1119 19.6016 21.9285C19.6016 21.5327 19.2806 21.2117 18.8848 21.2117H13.1162C12.7699 21.2117 12.4809 21.4574 12.4141 21.784L12.3994 21.9285C12.3994 22.1129 12.4695 22.2811 12.5898 22.4119C12.9539 22.808 12.9391 23.4213 12.5566 23.7996C12.4834 23.8721 12.4315 23.9647 12.4102 24.0692L12.3994 24.1776C12.3994 24.3081 12.445 24.4254 12.5215 24.5174C12.8402 24.9006 12.8281 25.4599 12.4932 25.8289C12.4331 25.8951 12.3994 25.9785 12.3994 26.0701C12.3994 26.2683 12.5599 26.4293 12.7588 26.4295V27.4295C12.008 27.4293 11.3994 26.821 11.3994 26.0701C11.3994 25.7184 11.5338 25.3985 11.7529 25.1571C11.5321 24.8916 11.3994 24.5498 11.3994 24.1776C11.3995 23.7518 11.573 23.3662 11.8535 23.0887C11.5725 22.783 11.3994 22.3765 11.3994 21.9285C11.3994 20.9804 12.1681 20.2117 13.1162 20.2117H18.8848C19.8329 20.2117 20.6016 20.9804 20.6016 21.9285C20.6016 22.3768 20.4278 22.783 20.1465 23.0887C20.4273 23.3663 20.6014 23.7515 20.6016 24.1776C20.6016 24.5501 20.4681 24.8916 20.2471 25.1571C20.4665 25.3985 20.6016 25.7181 20.6016 26.0701C20.6015 26.821 19.993 27.4293 19.2422 27.4295V26.4295C19.4162 26.4294 19.5613 26.3061 19.5947 26.1424L19.6016 26.0701Z" fill="black"/>
<path d="M19.6376 23.5794L19.9412 23.9766C19.5822 24.2511 18.9794 24.4419 18.3473 24.5892C17.6878 24.7429 16.8996 24.8687 16.0971 24.9736C14.4929 25.1832 12.7797 25.3135 11.839 25.398L11.7493 24.4015C12.7095 24.3152 14.3901 24.1884 15.9681 23.9822C16.7567 23.8791 17.5072 23.7577 18.12 23.6149C18.7602 23.4657 19.1642 23.3109 19.333 23.182L19.6376 23.5794Z" fill="black"/>
<path d="M16.5439 21.8918C16.8182 21.8604 17.0664 22.0576 17.0978 22.3319C17.1292 22.6062 16.932 22.8544 16.6577 22.8859C15.081 23.0666 13.3808 23.1833 12.4274 23.269C12.1524 23.2937 11.909 23.0907 11.8843 22.8157C11.8597 22.5407 12.0627 22.2973 12.3377 22.2725C13.3235 22.184 14.9818 22.0708 16.5439 21.8918Z" fill="black"/>
<path d="M19.7468 25.7728L20.0304 26.1848C19.0935 26.8274 17.7261 27.0851 16.4379 27.216C15.7817 27.2826 15.1202 27.3183 14.5112 27.348C13.8961 27.378 13.3434 27.4014 12.8812 27.4429L12.7915 26.4464C13.2798 26.4026 13.8607 26.378 14.4624 26.3487C15.0701 26.3191 15.7091 26.2846 16.3371 26.2208C17.6172 26.0908 18.7548 25.8471 19.4641 25.3608L19.7468 25.7728Z" fill="black"/>
</svg>
