<svg width="32" height="32" viewBox="0 0 32 32" fill="none" xmlns="http://www.w3.org/2000/svg">
<rect width="32" height="32" fill="white"/>
<path d="M4.95117 10.4784C5.0814 10.4147 5.23414 10.4104 5.36914 10.4687L30.1953 21.2118C30.3782 21.291 30.497 21.4715 30.4971 21.6708V24.3417C30.4971 24.5249 30.3963 24.6937 30.2354 24.7812L27.0537 26.5116C26.9213 26.5837 26.7634 26.5916 26.624 26.5341L1.82031 16.2802C1.63353 16.2028 1.51175 16.0205 1.51172 15.8183V12.998L1.51562 12.9355C1.53375 12.7913 1.61411 12.6609 1.7373 12.58L4.89746 10.5097L4.95117 10.4784ZM3.05469 15.7079L26.7852 25.5185L28.8535 24.3935L5.22656 14.2197L3.05469 15.7079ZM5.6709 13.3222L29.4971 23.582V21.999L5.6709 11.6884V13.3222ZM2.51172 13.2675V14.8691L4.6709 13.3876V11.8525L2.51172 13.2675Z" fill="black"/>
<path d="M9.37939 1.98348V12.5333H8.37939V1.98348H9.37939Z" fill="black"/>
<path d="M26.1572 10.225L26.1572 19.8217L25.1572 19.8217L25.1572 10.225L26.1572 10.225Z" fill="black"/>
</svg>
