<svg width="32" height="32" viewBox="0 0 32 32" fill="none" xmlns="http://www.w3.org/2000/svg">
<rect width="32" height="32" fill="white"/>
<path fill-rule="evenodd" clip-rule="evenodd" d="M9.37988 12.2041L25.1572 19.0312V10.2246H26.1572V19.4639L30.1953 21.2119C30.3782 21.2911 30.497 21.4716 30.4971 21.6709V24.3418C30.497 24.525 30.3963 24.6937 30.2354 24.7812L27.0537 26.5117C26.9213 26.5837 26.7634 26.5917 26.624 26.5342L1.82031 16.2803C1.63355 16.2029 1.51178 16.0205 1.51172 15.8184V12.998L1.51562 12.9355C1.53375 12.7914 1.61413 12.661 1.7373 12.5801L4.89746 10.5098L4.95117 10.4785C5.0814 10.4148 5.23414 10.4105 5.36914 10.4688L8.37988 11.7715V1.9834H9.37988V12.2041ZM3.05469 15.708L26.7852 25.5186L28.8535 24.3936L5.22656 14.2197L3.05469 15.708ZM5.6709 13.3223L29.4971 23.582V21.999L5.6709 11.6885V13.3223ZM2.51172 13.2676V14.8691L4.6709 13.3877V11.8525L2.51172 13.2676Z" fill="black"/>
</svg>
