<svg width="32" height="32" viewBox="0 0 32 32" fill="none" xmlns="http://www.w3.org/2000/svg">
<rect width="32" height="32" fill="white"/>
<path d="M29.9585 19.5647C29.9585 19.2155 29.718 18.7805 29.0347 18.3001C28.3651 17.8293 27.364 17.3845 26.0815 17.0032C23.5231 16.2424 19.9587 15.7649 16.0005 15.7649C12.0422 15.7649 8.477 16.2424 5.91846 17.0032C4.6361 17.3845 3.63488 17.8293 2.96533 18.3001C2.28205 18.7805 2.0415 19.2155 2.0415 19.5647V22.6223H1.0415V19.5647C1.0415 18.7266 1.61019 18.03 2.39014 17.4817C3.18383 16.9237 4.30029 16.4419 5.63428 16.0452C8.30869 15.25 11.9737 14.7649 16.0005 14.7649C20.0273 14.7649 23.6923 15.2499 26.3667 16.0452C27.7004 16.4418 28.8162 16.9238 29.6099 17.4817C30.3898 18.03 30.9585 18.7266 30.9585 19.5647V22.6223H29.9585V19.5647Z" fill="black"/>
<path d="M29.9448 22.5495C29.9441 20.3742 23.7485 18.8249 16.0474 18.8249C8.3464 18.8249 2.05595 20.3742 2.05518 22.5495C2.05518 24.657 7.91453 26.3786 15.2827 26.484L16.0005 26.4889C23.7019 26.4889 29.9448 24.725 29.9448 22.5495ZM30.9448 22.5495C30.9448 23.6062 30.1961 24.3862 29.4048 24.9147C28.5762 25.4681 27.4427 25.9274 26.1323 26.2975C23.4978 27.0417 19.916 27.4889 16.0005 27.4889C12.0847 27.4889 8.5023 27.0417 5.86768 26.2975C4.55729 25.9274 3.42377 25.4681 2.59521 24.9147C1.80396 24.3862 1.05518 23.6061 1.05518 22.5495C1.05537 21.4797 1.82404 20.7131 2.62256 20.2057C3.45814 19.6749 4.59835 19.2455 5.91162 18.904C8.55364 18.2169 12.1415 17.8249 16.0474 17.8249C19.9531 17.8249 23.5186 18.2164 26.1382 18.904C27.4405 19.2458 28.5705 19.6762 29.3979 20.2087C30.1917 20.7194 30.9446 21.4865 30.9448 22.5495Z" fill="black"/>
<path d="M16.4531 1.02502V15.2653H15.4531V1.02502H16.4531Z" fill="black"/>
<path d="M10.0698 1.18225L4.729 17.358L4.25439 17.2008L3.77979 17.0446L9.12061 0.867798L10.0698 1.18225Z" fill="black"/>
<path d="M21.9302 1.18225L27.271 17.358L27.7456 17.2008L28.2202 17.0446L22.8794 0.867798L21.9302 1.18225Z" fill="black"/>
</svg>
