<svg width="32" height="32" viewBox="0 0 32 32" fill="none" xmlns="http://www.w3.org/2000/svg">
<rect width="32" height="32" fill="white"/>
<path fill-rule="evenodd" clip-rule="evenodd" d="M16.499 7.83105C23.0644 7.96393 26.7382 10.9896 28.7197 14.3662C30.7001 17.7414 30.9443 21.3747 30.9443 22.5498C30.9442 23.6063 30.1955 24.3866 29.4043 24.915C28.5757 25.4684 27.4422 25.9277 26.1318 26.2979C23.6621 26.9955 20.3597 27.4315 16.7305 27.4834C16.4884 27.4869 16.2448 27.4893 16 27.4893C15.7552 27.4893 15.5116 27.4869 15.2695 27.4834C11.64 27.4315 8.33706 26.9955 5.86719 26.2979C4.55688 25.9277 3.42327 25.4683 2.59473 24.915C1.80355 24.3866 1.05484 23.6062 1.05469 22.5498C1.05475 21.3671 1.32545 17.7344 3.33008 14.3613C5.32508 11.0048 8.99348 7.99228 15.499 7.83203L15.5 1.02539H16.5L16.499 7.83105ZM16.0469 18.8252C8.34592 18.8252 2.05546 20.3745 2.05469 22.5498C2.0553 24.6572 7.91442 26.3789 15.2822 26.4844L16 26.4893C16.2407 26.4893 16.48 26.4868 16.7178 26.4834C24.0852 26.3778 29.9437 24.6571 29.9443 22.5498C29.9436 20.3745 23.748 18.8252 16.0469 18.8252ZM16.0469 8.8252C5.5105 8.82536 2.85813 16.4558 2.23438 20.4805C2.36112 20.3825 2.49039 20.2897 2.62207 20.2061C3.45763 19.6752 4.5979 19.2458 5.91113 18.9043C8.55315 18.2173 12.141 17.8252 16.0469 17.8252C19.9526 17.8252 23.5181 18.2167 26.1377 18.9043C27.44 19.2462 28.57 19.6766 29.3975 20.209C29.5251 20.2911 29.6499 20.382 29.7725 20.4775C29.1714 16.452 26.5809 8.8252 16.0469 8.8252Z" fill="black"/>
</svg>
