<svg width="32" height="32" viewBox="0 0 32 32" fill="none" xmlns="http://www.w3.org/2000/svg">
<rect width="32" height="32" fill="white"/>
<path d="M29.9443 22.5495C29.9436 20.3742 23.748 18.8249 16.0469 18.8249C8.34592 18.8249 2.05546 20.3742 2.05469 22.5495C2.05469 24.657 7.91404 26.3786 15.2822 26.484L16 26.4889C23.7014 26.4889 29.9443 24.725 29.9443 22.5495ZM30.9443 22.5495C30.9443 23.6062 30.1956 24.3862 29.4043 24.9147C28.5757 25.4681 27.4422 25.9274 26.1318 26.2975C23.4973 27.0417 19.9155 27.4889 16 27.4889C12.0842 27.4889 8.50181 27.0417 5.86719 26.2975C4.5568 25.9274 3.42328 25.4681 2.59473 24.9147C1.80347 24.3862 1.05469 23.6061 1.05469 22.5495C1.05488 21.4797 1.82355 20.7131 2.62207 20.2057C3.45765 19.6749 4.59786 19.2455 5.91113 18.904C8.55315 18.2169 12.141 17.8249 16.0469 17.8249C19.9526 17.8249 23.5181 18.2164 26.1377 18.904C27.44 19.2458 28.57 19.6762 29.3975 20.2087C30.1913 20.7194 30.9441 21.4865 30.9443 22.5495Z" fill="black"/>
<path d="M29.9443 22.5495C29.9442 20.3729 29.0088 8.82487 16.0469 8.82487C3.08523 8.82508 2.05481 20.373 2.05469 22.5495C2.05469 24.657 7.91404 26.3786 15.2822 26.4841L16 26.4889C23.7014 26.4889 29.9443 24.725 29.9443 22.5495ZM30.9443 22.5495C30.9443 23.6062 30.1956 24.3862 29.4043 24.9147C28.5757 25.4681 27.4422 25.9274 26.1318 26.2975C23.4973 27.0417 19.9155 27.4889 16 27.4889C12.0842 27.4889 8.50181 27.0418 5.86719 26.2975C4.5568 25.9274 3.42328 25.4681 2.59473 24.9147C1.80347 24.3862 1.05469 23.6061 1.05469 22.5495C1.05475 21.3668 1.32532 17.7342 3.33008 14.361C5.38041 10.9114 9.19824 7.82498 16.0469 7.82487C22.8966 7.82487 26.6932 10.9125 28.7197 14.3659C30.7003 17.7411 30.9443 21.3743 30.9443 22.5495Z" fill="black"/>
<path d="M16.4995 1.02502L16.4995 8.42542L15.4995 8.42542L15.4995 1.02502L16.4995 1.02502Z" fill="black"/>
</svg>
