<svg width="32" height="32" viewBox="0 0 32 32" fill="none" xmlns="http://www.w3.org/2000/svg">
<rect width="32" height="32" fill="white"/>
<path d="M15.5 12.422L15.5 4.62801C15.5 4.35186 15.7239 4.12801 16 4.12801C16.2761 4.12801 16.5 4.35186 16.5 4.62801L16.5 12.422C16.4998 12.6979 16.276 12.922 16 12.922C15.724 12.922 15.5002 12.6979 15.5 12.422Z" fill="black"/>
<path d="M15.5 27.9871L15.5 14.9364C15.5 14.6602 15.7239 14.4364 16 14.4364C16.2761 14.4364 16.5 14.6602 16.5 14.9364L16.5 27.9871C16.4999 28.2632 16.2761 28.4871 16 28.4871C15.7239 28.4871 15.5001 28.2632 15.5 27.9871Z" fill="black"/>
<path d="M14.1799 14.6108C14.4557 14.6194 14.6725 14.8502 14.6642 15.1261L14.664 15.128L14.6633 15.1674C14.6625 15.1946 14.6609 15.2346 14.6594 15.2862C14.6562 15.3895 14.6515 15.5391 14.6458 15.7241C14.6343 16.0944 14.6186 16.6069 14.6003 17.1754C14.5637 18.312 14.5178 19.6754 14.4814 20.5761C14.4443 21.4915 14.3465 22.5176 14.2584 23.3101C14.2143 23.7072 14.1725 24.0481 14.1416 24.2897C14.1262 24.4105 14.1133 24.5073 14.1044 24.5734L14.09 24.6759C14.0519 24.9494 13.7992 25.1402 13.5257 25.1021C13.2864 25.0686 13.1106 24.8711 13.0961 24.6389L13.0995 24.5378L13.1133 24.4402C13.1219 24.3759 13.1344 24.2817 13.1495 24.1632C13.1799 23.9259 13.2206 23.5908 13.2641 23.2C13.3512 22.416 13.4464 21.4164 13.4821 20.5354C13.5184 19.6394 13.5642 18.2802 13.6008 17.1436C13.619 16.5755 13.6347 16.0632 13.6461 15.6932C13.6518 15.5083 13.6566 15.3585 13.6597 15.2553C13.6613 15.2039 13.6629 15.1636 13.6637 15.1365C13.6641 15.1232 13.6638 15.1128 13.664 15.106C13.6641 15.1026 13.6641 15.0998 13.6642 15.0981L13.6646 15.0952C13.6731 14.8194 13.904 14.6025 14.1799 14.6108Z" fill="black"/>
<path d="M17.8436 14.6108C17.5678 14.6194 17.3509 14.8502 17.3592 15.1261L17.3595 15.128L17.3601 15.1674C17.3609 15.1946 17.3625 15.2346 17.3641 15.2862C17.3672 15.3895 17.372 15.5391 17.3777 15.7241C17.3891 16.0944 17.4049 16.6069 17.4231 17.1754C17.4597 18.312 17.5056 19.6754 17.5421 20.5761C17.5792 21.4915 17.6769 22.5176 17.765 23.3101C17.8091 23.7072 17.851 24.0481 17.8818 24.2897C17.8973 24.4105 17.9101 24.5073 17.919 24.5734L17.9335 24.6759C17.9716 24.9494 18.2242 25.1402 18.4977 25.1021C18.737 25.0686 18.9128 24.8711 18.9274 24.6389L18.9239 24.5378L18.9101 24.4402C18.9015 24.3759 18.889 24.2817 18.8739 24.1632C18.8436 23.9259 18.8028 23.5908 18.7594 23.2C18.6722 22.416 18.577 21.4164 18.5413 20.5354C18.5051 19.6394 18.4592 18.2802 18.4227 17.1436C18.4044 16.5755 18.3888 16.0632 18.3773 15.6932C18.3716 15.5083 18.3669 15.3585 18.3637 15.2553C18.3622 15.2039 18.3606 15.1636 18.3598 15.1365C18.3594 15.1232 18.3596 15.1128 18.3594 15.106C18.3593 15.1026 18.3593 15.0998 18.3593 15.0981L18.3589 15.0952C18.3503 14.8194 18.1195 14.6025 17.8436 14.6108Z" fill="black"/>
<path d="M19.9951 1.02765C20.2713 1.02765 20.4951 1.25151 20.4951 1.52765C20.495 1.98133 20.3619 2.42114 20.1172 2.81964C19.8733 3.2166 19.5249 3.56352 19.1045 3.84698C18.684 4.13051 18.193 4.34938 17.6631 4.49738C17.1328 4.64545 16.5681 4.72101 16 4.72101C15.4319 4.72101 14.8672 4.64545 14.3369 4.49738C13.807 4.34938 13.316 4.13051 12.8955 3.84698C12.4751 3.56352 12.1267 3.2166 11.8828 2.81964C11.6381 2.42114 11.505 1.98133 11.5049 1.52765C11.5049 1.25151 11.7287 1.02765 12.0049 1.02765H19.9951ZM12.6045 2.02765C12.6393 2.11714 12.6809 2.20754 12.7354 2.2962C12.893 2.55287 13.1326 2.80108 13.4541 3.01788C13.7754 3.23456 14.1661 3.41175 14.6055 3.53448C15.0446 3.65712 15.5189 3.72101 16 3.72101C16.4811 3.72101 16.9554 3.65712 17.3945 3.53448C17.8339 3.41175 18.2246 3.23456 18.5459 3.01788C18.8674 2.80108 19.107 2.55287 19.2646 2.2962C19.3191 2.20754 19.3607 2.11714 19.3955 2.02765H12.6045Z" fill="black"/>
<path d="M18.3882 13.9163C18.3879 13.6996 18.2124 13.5239 17.9956 13.5237H14.0044C13.7877 13.524 13.6121 13.6996 13.6118 13.9163C13.6118 14.1332 13.7875 14.3096 14.0044 14.3098H17.9956C18.2125 14.3096 18.3882 14.1332 18.3882 13.9163ZM19.3882 13.9163C19.3882 14.6855 18.7648 15.3096 17.9956 15.3098H14.0044C13.2353 15.3096 12.6118 14.6855 12.6118 13.9163C12.6121 13.1473 13.2354 12.524 14.0044 12.5237H17.9956C18.7646 12.5239 19.3879 13.1473 19.3882 13.9163Z" fill="black"/>
<path d="M6.67139 24.5391C6.67121 24.4188 6.57392 24.3214 6.45361 24.3214H5.45166C5.33147 24.3215 5.23407 24.4189 5.23389 24.5391C5.23389 24.6595 5.33136 24.7577 5.45166 24.7579H6.45361C6.57404 24.7578 6.67139 24.6596 6.67139 24.5391ZM7.67139 24.5391C7.67139 25.2118 7.12632 25.7578 6.45361 25.7579H5.45166C4.77907 25.7577 4.23389 25.2118 4.23389 24.5391C4.23407 23.8666 4.77918 23.3215 5.45166 23.3214H6.45361C7.12621 23.3214 7.67121 23.8666 7.67139 24.5391Z" fill="black"/>
<path d="M25.3521 24.5391C25.3522 24.4188 25.4495 24.3214 25.5698 24.3214H26.5718C26.692 24.3215 26.7894 24.4189 26.7896 24.5391C26.7896 24.6595 26.6921 24.7577 26.5718 24.7579H25.5698C25.4494 24.7578 25.3521 24.6596 25.3521 24.5391ZM24.3521 24.5391C24.3521 25.2118 24.8971 25.7578 25.5698 25.7579H26.5718C27.2444 25.7577 27.7896 25.2118 27.7896 24.5391C27.7894 23.8666 27.2443 23.3215 26.5718 23.3214H25.5698C24.8972 23.3214 24.3522 23.8666 24.3521 24.5391Z" fill="black"/>
<path d="M10.395 18.8787C10.6711 18.8787 10.895 19.1026 10.895 19.3787C10.895 20.0278 10.7674 20.6707 10.519 21.2703C10.2707 21.87 9.90669 22.4149 9.44775 22.8739C8.98882 23.3328 8.44387 23.6968 7.84424 23.9451C7.24459 24.1935 6.60169 24.3211 5.95264 24.3211C5.30362 24.3211 4.66065 24.1935 4.06104 23.9451C3.46148 23.6968 2.91641 23.3327 2.45752 22.8739C1.99862 22.4149 1.63459 21.8699 1.38623 21.2703C1.13785 20.6707 1.01025 20.0278 1.01025 19.3787C1.01032 19.1026 1.23415 18.8787 1.51025 18.8787H10.395ZM2.04346 19.8787C2.08768 20.2246 2.17608 20.564 2.31006 20.8875C2.50817 21.3658 2.79851 21.8008 3.16455 22.1668C3.53061 22.5329 3.96557 22.8232 4.44385 23.0213C4.92214 23.2194 5.43494 23.3211 5.95264 23.3211C6.47035 23.3211 6.98312 23.2194 7.46143 23.0213C7.93975 22.8232 8.37463 22.5329 8.74072 22.1668C9.10682 21.8007 9.39709 21.3659 9.59521 20.8875C9.72921 20.564 9.81759 20.2246 9.86182 19.8787H2.04346Z" fill="black"/>
<path d="M21.6284 18.8787C21.3523 18.8787 21.1285 19.1026 21.1284 19.3787C21.1284 20.0278 21.256 20.6707 21.5044 21.2703C21.7528 21.87 22.1167 22.4149 22.5757 22.8739C23.0346 23.3328 23.5796 23.6968 24.1792 23.9451C24.7789 24.1935 25.4217 24.3211 26.0708 24.3211C26.7198 24.3211 27.3628 24.1935 27.9624 23.9451C28.562 23.6968 29.107 23.3327 29.5659 22.8739C30.0248 22.4149 30.3888 21.8699 30.6372 21.2703C30.8856 20.6707 31.0132 20.0278 31.0132 19.3787C31.0131 19.1026 30.7893 18.8787 30.5132 18.8787H21.6284ZM29.98 19.8787C29.9358 20.2246 29.8474 20.564 29.7134 20.8875C29.5153 21.3658 29.2249 21.8008 28.8589 22.1668C28.4928 22.5329 28.0579 22.8232 27.5796 23.0213C27.1013 23.2194 26.5885 23.3211 26.0708 23.3211C25.5531 23.3211 25.0403 23.2194 24.562 23.0213C24.0837 22.8232 23.6488 22.5329 23.2827 22.1668C22.9166 21.8007 22.6264 21.3659 22.4282 20.8875C22.2942 20.564 22.2058 20.2246 22.1616 19.8787H29.98Z" fill="black"/>
<path d="M14.0904 24.6772C14.0086 25.2558 13.8134 25.8127 13.5164 26.3161C13.2194 26.8194 12.8259 27.2597 12.3588 27.6111C11.8918 27.9624 11.3596 28.2183 10.7936 28.3642C10.2275 28.51 9.63771 28.5429 9.05888 28.4611C8.48019 28.3792 7.92331 28.1841 7.41998 27.8871C6.91659 27.5899 6.47636 27.1966 6.12498 26.7295C5.77365 26.2624 5.51774 25.7303 5.37188 25.1643L5.8559 25.0404L6.34007 24.9156C6.45317 25.3543 6.65173 25.7664 6.92404 26.1284C7.19651 26.4907 7.53803 26.7956 7.92838 27.0259C8.31862 27.2563 8.75024 27.4074 9.1989 27.4709C9.64771 27.5344 10.105 27.5089 10.544 27.3958C10.9828 27.2827 11.3956 27.0844 11.7578 26.812C12.1198 26.5396 12.4249 26.1987 12.6552 25.8086C12.8856 25.4183 13.0368 24.9859 13.1003 24.5371L14.0904 24.6772Z" fill="black"/>
<path d="M17.933 24.6772C18.0148 25.2558 18.21 25.8127 18.507 26.3161C18.8041 26.8194 19.1976 27.2597 19.6646 27.6111C20.1317 27.9624 20.6638 28.2183 21.2298 28.3642C21.7959 28.51 22.3857 28.5429 22.9646 28.4611C23.5432 28.3792 24.1001 28.1841 24.6035 27.8871C25.1069 27.5899 25.5471 27.1966 25.8985 26.7295C26.2498 26.2624 26.5057 25.7303 26.6516 25.1643L26.1675 25.0404L25.6834 24.9156C25.5703 25.3543 25.3717 25.7664 25.0994 26.1284C24.8269 26.4907 24.4854 26.7956 24.0951 27.0259C23.7048 27.2563 23.2732 27.4074 22.8245 27.4709C22.3757 27.5344 21.9184 27.5089 21.4795 27.3958C21.0406 27.2827 20.6278 27.0844 20.2657 26.812C19.9037 26.5396 19.5986 26.1987 19.3683 25.8086C19.1379 25.4183 18.9866 24.9859 18.9232 24.5371L17.933 24.6772Z" fill="black"/>
</svg>
