<svg width="32" height="32" viewBox="0 0 32 32" fill="none" xmlns="http://www.w3.org/2000/svg">
<rect width="32" height="32" fill="white"/>
<path d="M17.6216 2.00574L17.6216 15.452L16.6216 15.452L16.6216 2.00574L17.6216 2.00574Z" fill="black"/>
<path d="M4.02539 5.91518L4.02539 18.0324L3.02539 18.0324L3.02539 5.91518L4.02539 5.91518Z" fill="black"/>
<path d="M29.0005 5.91518L29.0005 18.5382L28.0005 18.5382L28.0005 5.91518L29.0005 5.91518Z" fill="black"/>
<path d="M14.9935 18.2566C16.8378 17.8614 18.7555 17.9704 20.5433 18.572L30.1985 21.822C31.6589 22.3135 31.518 24.4228 30.0052 24.7156L17.763 27.0847C15.7959 27.4653 13.7654 27.3675 11.844 26.7996L2.06572 23.9089C0.574906 23.4682 0.656138 21.3296 2.17607 21.0037L14.9935 18.2566ZM20.2239 19.5203C18.6065 18.9759 16.8721 18.8766 15.2034 19.2341L2.38603 21.9812C1.87931 22.0898 1.85195 22.803 2.34892 22.95L12.1282 25.8406C13.8957 26.363 15.763 26.4534 17.5726 26.1033L29.8157 23.7341C30.3194 23.6362 30.3664 22.9333 29.8802 22.7693L20.2239 19.5203Z" fill="black"/>
<path d="M0.992188 19.3206C0.992339 18.6221 1.47466 18.0166 2.15527 17.8596L14.7354 14.9612C16.6956 14.5096 18.7442 14.6307 20.6377 15.3098L30.2217 18.7473C30.8177 18.9611 31.2158 19.5263 31.2158 20.1595V23.2571H30.2158V20.1595C30.2158 19.9485 30.0832 19.7601 29.8848 19.6887L20.2998 16.2503C18.5868 15.6359 16.7334 15.5273 14.96 15.9358L2.37988 18.8333C2.15304 18.8855 1.99234 19.0878 1.99219 19.3206V22.5061H0.992188V19.3206Z" fill="black"/>
</svg>
