<svg width="32" height="32" viewBox="0 0 32 32" fill="none" xmlns="http://www.w3.org/2000/svg">
<rect width="32" height="32" fill="white"/>
<path d="M12.4839 2.0524V3.8815H11.4839V2.0524H12.4839ZM20.5151 2.0524V3.8815H19.5151V2.0524H20.5151Z" fill="black"/>
<path d="M12.0068 19.0669V29.0093H11.0068V19.0669H12.0068ZM20.9932 19.0669L20.9941 29.0093H19.9941V19.0669H20.9932Z" fill="black"/>
<path d="M15 17.209L15 16.5596C15 16.0073 15.4477 15.5596 16 15.5596C16.5523 15.5596 17 16.0073 17 16.5596L17 17.209C16.9998 17.7611 16.5522 18.209 16 18.209C15.4478 18.209 15.0002 17.7611 15 17.209Z" fill="black"/>
<path d="M15.5 17.2091L15.5 4.2892C15.5 4.01306 15.7239 3.7892 16 3.7892C16.2761 3.7892 16.5 4.01306 16.5 4.2892L16.5 17.2091C16.4997 17.485 16.276 17.7091 16 17.7091C15.724 17.7091 15.5003 17.485 15.5 17.2091Z" fill="black"/>
<path d="M16 17.3253C17.2759 17.3253 18.4511 17.4821 19.3232 17.7472C19.7561 17.8787 20.1431 18.045 20.4326 18.253C20.7103 18.4526 20.9941 18.7635 20.9941 19.1915H19.9941C19.9943 19.2415 20.0251 19.1923 19.8486 19.0655C19.6835 18.9469 19.4124 18.8188 19.0322 18.7032C18.2781 18.474 17.2057 18.3253 16 18.3253C14.7947 18.3253 13.7228 18.4741 12.9688 18.7032C12.5886 18.8188 12.3165 18.9469 12.1514 19.0655C11.9752 19.1922 12.0066 19.2415 12.0068 19.1915H11.0068C11.0068 18.7635 11.2907 18.4526 11.5684 18.253C11.8579 18.045 12.2449 17.8787 12.6777 17.7472C13.5498 17.4821 14.7242 17.3253 16 17.3253Z" fill="black"/>
<path d="M16 27.3019C17.2754 27.3019 18.4497 27.4567 19.3213 27.7189C19.7539 27.8491 20.1411 28.0139 20.4307 28.2199C20.7073 28.4167 20.9939 28.7253 20.9941 29.1534C20.9941 29.5818 20.7075 29.8911 20.4307 30.088C20.1411 30.294 19.7539 30.4588 19.3213 30.589C18.4497 30.8512 17.2754 31.006 16 31.006C14.7245 31.006 13.5503 30.8512 12.6787 30.589C12.2462 30.4589 11.8598 30.2939 11.5703 30.088C11.2935 29.8911 11.0068 29.5818 11.0068 29.1534C11.007 28.7253 11.2936 28.4167 11.5703 28.2199C11.8598 28.014 12.2462 27.849 12.6787 27.7189C13.5503 27.4566 14.7245 27.3019 16 27.3019ZM16 28.3019C14.794 28.3019 13.7214 28.4498 12.9668 28.6769C12.5864 28.7913 12.3146 28.9178 12.1494 29.0353C12.0725 29.0901 12.0358 29.1303 12.0186 29.1534C12.0356 29.1765 12.0718 29.2173 12.1494 29.2726C12.3146 29.3901 12.5864 29.5165 12.9668 29.631C13.7214 29.858 14.794 30.006 16 30.006C17.2059 30.006 18.2786 29.858 19.0332 29.631C19.4137 29.5165 19.6854 29.3901 19.8506 29.2726C19.9282 29.2174 19.9643 29.1766 19.9814 29.1534C19.9641 29.1302 19.9275 29.09 19.8506 29.0353C19.6854 28.9177 19.4137 28.7914 19.0332 28.6769C18.2786 28.4499 17.206 28.3019 16 28.3019Z" fill="black"/>
<path d="M16 2.5992C17.1312 2.5992 18.1693 2.68969 18.9365 2.84138C19.3158 2.91639 19.6547 3.01161 19.9111 3.13142C20.038 3.19074 20.1722 3.26824 20.2812 3.37361C20.3909 3.47953 20.5156 3.65438 20.5156 3.89314C20.5156 4.1319 20.3909 4.30675 20.2812 4.41267C20.1722 4.51804 20.038 4.59554 19.9111 4.65486C19.6547 4.77468 19.3158 4.8699 18.9365 4.9449C18.1693 5.0966 17.1312 5.18708 16 5.18709C14.8688 5.18709 13.8307 5.0966 13.0635 4.9449C12.684 4.86987 12.3444 4.77475 12.0879 4.65486C11.9611 4.59558 11.8277 4.5179 11.7188 4.41267C11.6091 4.30676 11.4844 4.13193 11.4844 3.89314C11.4844 3.65436 11.6091 3.47952 11.7188 3.37361C11.8277 3.26839 11.9611 3.1907 12.0879 3.13142C12.3444 3.01153 12.684 2.91642 13.0635 2.84138C13.8307 2.68968 14.8688 2.5992 16 2.5992ZM16 3.5992C14.9137 3.5992 13.9439 3.68624 13.2578 3.82185C13.1429 3.84457 13.0386 3.86928 12.9453 3.89314C13.0386 3.91701 13.1429 3.94171 13.2578 3.96443C13.9439 4.10004 14.9137 4.18709 16 4.18709C17.0863 4.18708 18.0561 4.10007 18.7422 3.96443C18.8568 3.94177 18.9606 3.91695 19.0537 3.89314C18.9606 3.86934 18.8568 3.84452 18.7422 3.82185C18.0561 3.68622 17.0863 3.5992 16 3.5992Z" fill="black"/>
<path d="M16 1.01129C17.1253 1.0113 18.1546 1.07808 18.9121 1.19C19.2871 1.24542 19.618 1.31553 19.8652 1.40192C19.9856 1.44399 20.1163 1.50006 20.2266 1.57965C20.322 1.64854 20.5156 1.81914 20.5156 2.10504H19.5156C19.5157 2.20506 19.5517 2.28207 19.583 2.3277C19.6106 2.36766 19.6362 2.38697 19.6406 2.3902C19.6357 2.38739 19.6059 2.37001 19.5352 2.34528C19.3761 2.28969 19.1181 2.23123 18.7666 2.17926C18.0709 2.07644 17.0922 2.0113 16 2.01129C14.9078 2.01129 13.9292 2.07643 13.2334 2.17926C12.8818 2.23122 12.624 2.28969 12.4648 2.34528C12.3827 2.37398 12.3554 2.39236 12.3584 2.3902C12.3613 2.3881 12.3883 2.36926 12.417 2.3277C12.4483 2.28207 12.4843 2.20506 12.4844 2.10504H11.4844C11.4844 1.81914 11.678 1.64854 11.7734 1.57965C11.8837 1.50007 12.0144 1.44398 12.1348 1.40192C12.3819 1.31556 12.7121 1.24541 13.0869 1.19C13.8445 1.07804 14.8745 1.01129 16 1.01129Z" fill="black"/>
</svg>
