<svg viewBox="0 0 56 56" xmlns="http://www.w3.org/2000/svg" xmlns:xlink="http://www.w3.org/1999/xlink" width="56.000000" height="56.000000" fill="none">
	<rect id="Icon/Luminaires/307_pot_vstr_lin 1" width="56.000000" height="56.000000" x="0.000000" y="0.000000" />
	<path id="Icon" d="M34.0925 1.76111C33.8055 1.70514 33.512 1.79614 33.3081 1.99866L33.2278 2.09094L15.7056 25.2767L1.75684 25.2767L1.75684 27.0267L20.3968 27.0267L1.74316 49.2965L1.74316 52.0258L31.5513 16.4327L51.6609 21.2264L18.5561 53.6818L18.0178 54.2338L20.4941 54.2338L48.2463 27.0267L54.2518 27.0267L54.2518 25.2767L50.0306 25.2767L54.0194 21.3666C54.2456 21.144 54.3346 20.8148 54.25 20.5087C54.1649 20.2023 53.9184 19.9658 53.6091 19.8917L49.7879 18.9808L49.7879 5.54993C49.7879 5.13187 49.4921 4.77106 49.0821 4.69031L34.0925 1.76111ZM48.0378 18.5621L34.8 15.4073L34.8 3.6803L48.0378 6.26941L48.0378 18.5621ZM21.8631 25.2767L17.8981 25.2767L33.05 5.22864L33.05 14.9904L31.4316 14.6058C31.15 14.5388 30.8555 14.6161 30.6438 14.8058L30.5584 14.8947L21.8631 25.2767ZM32.739 18.557L47.0416 21.8483C47.3515 21.9196 47.5997 22.1544 47.6875 22.4601C47.7747 22.7658 47.6886 23.0952 47.4637 23.3197L16.49 54.2335L13.9692 54.2335L32.7749 35.4894L21.629 33.466L3.80762 54.2335L1.74316 54.2335L1.74316 53.9501L31.8794 18.8405L31.963 18.7535C32.1727 18.5685 32.4618 18.4931 32.739 18.557ZM22.95 31.9262L23.5361 32.0338C23.5734 31.942 23.6248 31.8538 23.695 31.7758L24.0181 31.4188C24.3421 31.0604 24.8952 31.0332 25.2537 31.3571C25.5479 31.623 25.6163 32.0405 25.4536 32.3808L27.8462 32.8148L38.324 21.6364L35.5486 20.9991C35.5343 21.185 35.4646 21.3694 35.3299 21.5185L35.0068 21.8759C34.6827 22.2332 34.1294 22.2621 33.7714 21.9389C33.4133 21.6152 33.3853 21.0619 33.708 20.7033L33.8037 20.5973L32.8603 20.3805L22.95 31.9262ZM29.897 33.1857L34.2857 33.9838L45.1069 23.1984L40.2978 22.091L29.897 33.1857ZM33.0057 22.7833C32.6472 22.4599 32.094 22.4883 31.77 22.8466L31.1241 23.5609C30.8011 23.9194 30.8292 24.4729 31.1873 24.7965C31.5453 25.1199 32.0987 25.0924 32.4228 24.735L33.0689 24.0206C33.393 23.6622 33.3641 23.1074 33.0057 22.7833ZM29.186 25.704C29.5099 25.3457 30.0633 25.3173 30.4217 25.6407C30.7801 25.9648 30.8089 26.5196 30.4849 26.8778L29.8389 27.5924C29.5148 27.9498 28.9615 27.9774 28.6032 27.6539C28.2452 27.3301 28.217 26.7768 28.5401 26.4183L29.186 25.704ZM26.6021 28.5614C26.9262 28.2027 27.4792 28.1756 27.8376 28.4997C28.196 28.8237 28.2251 29.3768 27.901 29.7355L27.2549 30.4498C26.9308 30.8072 26.3774 30.835 26.0193 30.5111C25.6612 30.1875 25.633 29.634 25.956 29.2758L26.6021 28.5614Z" fill="rgb(0,0,0)" fill-rule="evenodd" />
</svg>
