<svg width="32" height="32" viewBox="0 0 32 32" fill="none" xmlns="http://www.w3.org/2000/svg">
<rect width="32" height="32" fill="white"/>
<path d="M4.94318 3.55469C5.07479 3.48738 5.23117 3.48168 5.36896 3.54102L30.1942 14.2305C30.3699 14.3062 30.4871 14.4759 30.4959 14.667C30.5047 14.8582 30.4033 15.0374 30.2352 15.1289L27.0535 16.8604C26.9211 16.9324 26.7632 16.9403 26.6238 16.8828L1.82013 6.62891C1.65072 6.55878 1.53363 6.40111 1.51447 6.21875C1.49533 6.03635 1.57714 5.85769 1.72833 5.75391L4.88849 3.58789L4.94318 3.55469ZM3.05548 6.05664L26.785 15.8672L28.8533 14.7422L5.22638 4.56738L3.05548 6.05664Z" fill="black"/>
</svg>
