<svg width="32" height="32" viewBox="0 0 32 32" fill="none" xmlns="http://www.w3.org/2000/svg">
<path d="M16.0527 7.44043C20.3323 7.44047 24.2244 8.26614 27.0654 9.69629C29.889 11.1178 31.793 13.209 31.793 15.7754C31.7927 18.3333 29.8867 20.5381 27.0527 22.0732C24.1988 23.6191 20.2896 24.5596 16 24.5596C11.7106 24.5595 7.80208 23.619 4.94824 22.0732C2.1142 20.5381 0.207303 18.3333 0.207031 15.7754C0.207031 13.2054 2.14233 11.115 4.98926 9.69531C7.8556 8.26597 11.773 7.44043 16.0527 7.44043ZM16.0527 8.44141C11.8864 8.44141 8.13033 9.24609 5.43555 10.5898C2.7216 11.9432 1.20703 13.7702 1.20703 15.7754C1.20731 17.7923 2.72424 19.7305 5.4248 21.1934C8.10585 22.6456 11.8438 23.5595 16 23.5596C20.1564 23.5596 23.8951 22.6456 26.5762 21.1934C29.2766 19.7305 30.7927 17.7922 30.793 15.7754C30.793 13.7668 29.3001 11.9405 26.6152 10.5889C23.9475 9.24604 20.2189 8.44145 16.0527 8.44141ZM16.0439 10.5049C19.593 10.5049 22.8238 11.0511 25.1855 12.001C26.3652 12.4755 27.3536 13.0617 28.0547 13.7529C28.7599 14.4483 29.1952 15.273 29.1953 16.2002C29.1953 17.1223 28.7624 17.9857 28.0645 18.7402C27.3666 19.4946 26.3779 20.1698 25.1914 20.7344C22.8169 21.864 19.5679 22.5897 16.001 22.5898C12.4339 22.5898 9.18422 21.8641 6.80957 20.7344C5.62314 20.1699 4.63543 19.4945 3.9375 18.7402C3.23936 17.9856 2.80664 17.1225 2.80664 16.2002C2.80678 15.2703 3.24869 14.4444 3.96191 13.75C4.67129 13.0595 5.67122 12.4742 6.86133 12C9.24387 11.0508 12.495 10.5049 16.0439 10.5049ZM28.1016 15.6172C27.9166 16.0311 27.6451 16.4243 27.3076 16.7891C26.6513 17.4985 25.7234 18.132 24.6113 18.6611C22.3854 19.7201 19.3412 20.3993 16.001 20.3994C12.6608 20.3994 9.61663 19.7201 7.39062 18.6611C6.27865 18.1321 5.35072 17.4983 4.69434 16.7891C4.3576 16.4251 4.08532 16.033 3.90039 15.6201C3.83915 15.8129 3.80668 16.0058 3.80664 16.2002C3.80664 16.7951 4.08432 17.4275 4.6709 18.0615C5.25758 18.6956 6.12898 19.3028 7.23926 19.8311C9.45892 20.887 12.5577 21.5898 16.001 21.5898C19.4441 21.5897 22.5422 20.887 24.7617 19.8311C25.8718 19.3028 26.7434 18.6955 27.3301 18.0615C27.9164 17.4276 28.1953 16.795 28.1953 16.2002C28.1953 16.0047 28.1622 15.8108 28.1016 15.6172ZM16.0439 11.5049C12.5827 11.5049 9.46477 12.0399 7.23145 12.9297C6.11412 13.3749 5.24358 13.899 4.66016 14.4668C4.651 14.4757 4.64182 14.4852 4.63281 14.4941C4.6629 15.0101 4.91691 15.5582 5.42773 16.1104C5.9729 16.6994 6.78446 17.266 7.82031 17.7588C9.89132 18.7439 12.7847 19.3994 16.001 19.3994C19.2174 19.3993 22.1107 18.7441 24.1816 17.7588C25.2175 17.2659 26.0281 16.6994 26.5732 16.1104C27.0886 15.5533 27.3417 15.0004 27.3682 14.4805C27.3631 14.4754 27.3586 14.4699 27.3535 14.4648C26.7782 13.8976 25.9177 13.3737 24.8115 12.9287C22.6008 12.0396 19.5051 11.5049 16.0439 11.5049Z" fill="black"/>
</svg>
