<svg width="32" height="32" viewBox="0 0 32 32" fill="none" xmlns="http://www.w3.org/2000/svg">
<rect width="32" height="32" fill="white"/>
<path d="M29.9448 7.72461C29.9441 5.5493 23.7485 4 16.0474 4C8.3464 4.00005 2.05595 5.54933 2.05518 7.72461C2.05518 9.83217 7.91453 11.5537 15.2827 11.6592L16.0005 11.6641C23.7019 11.664 29.9448 9.9001 29.9448 7.72461ZM30.9448 7.72461C30.9448 8.7813 30.1961 9.56132 29.4048 10.0898C28.5762 10.6432 27.4427 11.1025 26.1323 11.4727C23.4978 12.2168 19.916 12.664 16.0005 12.6641C12.0847 12.6641 8.5023 12.2169 5.86768 11.4727C4.55729 11.1025 3.42377 10.6432 2.59521 10.0898C1.80396 9.56133 1.05518 8.78121 1.05518 7.72461C1.05537 6.65484 1.82404 5.88823 2.62256 5.38086C3.45814 4.85004 4.59835 4.42061 5.91162 4.0791C8.55364 3.39208 12.1415 3.00002 16.0474 3C19.9531 3 23.5186 3.39149 26.1382 4.0791C27.4405 4.42097 28.5705 4.85135 29.3979 5.38379C30.1917 5.89457 30.9446 6.66165 30.9448 7.72461Z" fill="black"/>
</svg>
