<svg width="32" height="32" viewBox="0 0 32 32" fill="none" xmlns="http://www.w3.org/2000/svg">
<rect width="32" height="32" fill="white"/>
<path d="M15.3057 4.31836C15.8473 4.31838 16.5263 4.37049 17.0596 4.4209C17.3281 4.44629 17.5645 4.47215 17.7334 4.49121C17.8175 4.5007 17.8858 4.50808 17.9326 4.51367C17.9559 4.51645 17.9748 4.51898 17.9873 4.52051C17.993 4.52121 17.9978 4.52205 18.001 4.52246H18.0068L18.4062 4.57324L18.5898 6.60156C20.3606 6.77835 21.9807 7.14148 23.3369 7.70996C24.8033 8.32466 25.9944 9.19876 26.71 10.3604C26.7476 10.269 26.8129 10.1882 26.9023 10.1309C27.1349 9.98239 27.444 10.0499 27.5928 10.2822L30.9365 15.5146C30.9877 15.595 31.0156 15.6889 31.0156 15.7842V17.0068C31.0155 17.2229 30.8763 17.4152 30.6709 17.4824C30.4656 17.5495 30.2401 17.4768 30.1123 17.3027L29.1143 15.9385C28.9132 16.4351 28.5938 16.9002 28.1836 17.3252C27.4612 18.0736 26.4399 18.7247 25.2168 19.2607C22.7688 20.3335 19.4214 20.9843 15.751 20.9844C12.0806 20.9844 8.73318 20.3334 6.28516 19.2607C5.06215 18.7248 4.04073 18.0735 3.31836 17.3252C3.14857 17.1493 2.99537 16.9652 2.8584 16.7764L2.41797 17.5508C2.33009 17.7043 2.16712 17.8004 1.99023 17.8027C1.8133 17.8049 1.64844 17.7128 1.55664 17.5615L1.06348 16.75C0.971487 16.5983 0.967438 16.408 1.05176 16.252L2.21875 14.0947C2.35217 13.4842 2.67152 12.9249 3.12402 12.4229L4.11426 10.5947C4.2458 10.3521 4.54926 10.2622 4.79199 10.3936C4.86167 10.4313 4.91709 10.4843 4.95996 10.5449C5.69493 9.24204 7.0181 8.28953 8.65234 7.64062C9.62053 7.25626 10.7146 6.97162 11.8945 6.7793L12.1719 4.94434L12.2275 4.57031L12.6035 4.52246H12.6094C12.6125 4.52207 12.6173 4.52122 12.623 4.52051C12.6354 4.51899 12.6544 4.51646 12.6777 4.51367C12.7246 4.50808 12.7927 4.50072 12.877 4.49121C13.0458 4.47215 13.2821 4.44631 13.5508 4.4209C14.0841 4.37048 14.7639 4.31838 15.3057 4.31836ZM15.7959 9.81348C12.2223 9.81348 9.00231 10.3721 6.69531 11.3027C5.54095 11.7684 4.64059 12.3173 4.03613 12.9131C3.4358 13.5049 3.14844 14.1197 3.14844 14.7432C3.14859 15.3706 3.43698 16.0081 4.03809 16.6309C4.64162 17.256 5.53917 17.8419 6.68652 18.3447C8.98063 19.35 12.1854 19.9844 15.751 19.9844C19.3167 19.9843 22.5214 19.35 24.8154 18.3447C25.9629 17.8419 26.8603 17.2561 27.4639 16.6309C28.065 16.0081 28.3534 15.3706 28.3535 14.7432C28.3535 14.1172 28.0691 13.5018 27.4775 12.9111C26.8814 12.3161 25.9922 11.7671 24.8496 11.3018C22.5659 10.3718 19.3693 9.81352 15.7959 9.81348ZM15.7881 10.9365C18.8258 10.9366 21.591 11.3144 23.6143 11.9727C24.6233 12.301 25.478 12.7083 26.0898 13.1963C26.7005 13.6833 27.1266 14.301 27.127 15.0371C27.127 15.7711 26.7004 16.4006 26.0908 16.9053C25.478 17.4125 24.6209 17.8469 23.6064 18.2021C21.5725 18.9143 18.795 19.3457 15.751 19.3457C12.707 19.3457 9.92949 18.9143 7.89551 18.2021C6.88101 17.8469 6.02399 17.4125 5.41113 16.9053C4.80147 16.4006 4.375 15.7712 4.375 15.0371C4.37532 14.2979 4.80916 13.68 5.42578 13.1943C6.0444 12.7072 6.90805 12.3007 7.92578 11.9727C9.96686 11.3148 12.7503 10.9365 15.7881 10.9365ZM15.7881 11.9365C12.8198 11.9365 10.1461 12.3071 8.23242 12.9238C7.27318 13.233 6.53392 13.5955 6.04492 13.9805C5.55456 14.3667 5.37532 14.7253 5.375 15.0371C5.375 15.3545 5.55794 15.7284 6.04883 16.1348C6.5366 16.5385 7.27244 16.9241 8.22559 17.2578C10.1278 17.9238 12.7886 18.3457 15.751 18.3457C18.713 18.3457 21.3733 17.9238 23.2754 17.2578C24.2287 16.924 24.9654 16.5385 25.4531 16.1348C25.9438 15.7284 26.127 15.3544 26.127 15.0371C26.1266 14.7223 25.9482 14.3633 25.4658 13.9785C24.984 13.5942 24.2543 13.2328 23.3047 12.9238C21.4104 12.3075 18.7564 11.9366 15.7881 11.9365ZM15.9248 7.47363C13.2732 7.47366 10.8675 7.83699 9.02051 8.57031C7.83839 9.03976 6.91376 9.64933 6.28613 10.3896C6.29788 10.3849 6.30951 10.3798 6.32129 10.375C8.7788 9.38365 12.1333 8.81348 15.7959 8.81348C19.4583 8.81352 22.7907 9.38405 25.2266 10.376C25.3625 10.4313 25.4961 10.4877 25.627 10.5459C25.0334 9.7667 24.1282 9.12662 22.9502 8.63281C21.102 7.85807 18.6525 7.47365 15.9248 7.47363ZM15.3057 5.31836C14.8133 5.31838 14.1721 5.36614 13.6445 5.41602C13.4388 5.43547 13.2525 5.45524 13.1025 5.47168L12.9268 6.63672C13.8865 6.52746 14.8923 6.47364 15.9248 6.47363C16.4853 6.47364 17.0374 6.48967 17.5781 6.52148L17.4824 5.46973C17.337 5.45389 17.1601 5.43438 16.9658 5.41602C16.4384 5.36615 15.798 5.31838 15.3057 5.31836Z" fill="black"/>
</svg>
