<svg width="32" height="32" viewBox="0 0 32 32" fill="none" xmlns="http://www.w3.org/2000/svg">
<rect width="32" height="32" fill="white"/>
<path fill-rule="evenodd" clip-rule="evenodd" d="M21.7035 9.36761C22.4196 9.21519 23.1412 9.60177 23.4105 10.2826L26.8773 19.0473C27.2227 19.9207 26.69 20.8933 25.7679 21.0717L12.6722 23.603L12.5121 23.6274C11.7638 23.7102 11.0303 23.3641 10.6185 22.7338L10.5355 22.5942L6.20934 14.6362C5.76078 13.8103 6.17583 12.7977 7.03746 12.5024L7.2152 12.4535L21.7035 9.36761ZM21.9115 10.3451L7.42321 13.4311C7.09666 13.5009 6.92896 13.8651 7.08824 14.1586L11.4144 22.1166C11.6226 22.4994 12.0549 22.7042 12.4828 22.6215L25.5775 20.0903C25.8848 20.0309 26.0625 19.7066 25.9476 19.4155L22.4808 10.6508C22.391 10.4238 22.1502 10.2943 21.9115 10.3451Z" fill="black"/>
<path fill-rule="evenodd" clip-rule="evenodd" d="M24.7923 5.46722C25.0366 5.41232 25.2844 5.54598 25.3714 5.7807L28.0541 13.016C28.0616 13.0128 28.0688 13.0082 28.0765 13.0053C28.3347 12.9078 28.6233 13.0383 28.7211 13.2963L29.6185 15.6713C29.7159 15.9294 29.5865 16.2181 29.3285 16.3159C29.3136 16.3215 29.2976 16.3234 29.2826 16.3276L31.3588 21.9272C31.4098 22.065 31.3977 22.219 31.3256 22.3471C31.2533 22.475 31.128 22.5646 30.9838 22.5922L9.92223 26.6147C9.71348 26.6545 9.50239 26.5573 9.39586 26.3735L6.15563 20.7709C6.12272 20.8103 6.08519 20.8467 6.03942 20.8754C5.80536 21.0218 5.49642 20.9503 5.34996 20.7162L4.30309 19.0434C4.15683 18.8094 4.2275 18.5005 4.46129 18.3539C4.54038 18.3045 4.62818 18.2816 4.7152 18.2797L0.815784 11.5375C0.736168 11.3999 0.726656 11.2321 0.790394 11.0864C0.854155 10.941 0.983227 10.8343 1.13805 10.7993L24.7923 5.46722ZM2.02086 11.6244L10.0834 25.5649L30.2152 21.7201L24.5853 6.53753L2.02086 11.6244Z" fill="black"/>
</svg>
