<svg width="32" height="32" viewBox="0 0 32 32" fill="none" xmlns="http://www.w3.org/2000/svg">
<path d="M1.12109 0.588631L31.2041 7.55152C31.4492 7.60825 31.6139 7.83837 31.5889 8.08863L29.3672 30.1267C29.3523 30.2723 29.2737 30.4048 29.1533 30.488C29.0329 30.5711 28.8816 30.5961 28.7402 30.5584L2.3623 23.5173C2.15553 23.4621 2.0066 23.2807 1.99219 23.0671L0.509766 1.10914C0.499219 0.951268 0.564094 0.796686 0.68457 0.694099C0.80497 0.591716 0.967088 0.55316 1.12109 0.588631ZM2.96582 22.6423L28.4307 29.4412L30.5508 8.42652L1.55371 1.71363L2.96582 22.6423ZM4.78223 7.12672C4.74127 6.12973 5.66734 5.37073 6.63672 5.60719L25.8379 10.2957C26.5528 10.4703 27.0357 11.1382 26.9775 11.8718L25.9502 24.8347C25.876 25.767 24.9755 26.4047 24.0713 26.1658L6.78906 21.5935L6.63184 21.5457C5.86713 21.275 5.33557 20.5633 5.30176 19.742L4.78223 7.12672ZM6.39941 6.57887C6.07631 6.50009 5.76759 6.75339 5.78125 7.0857L6.30078 19.7019C6.31897 20.1398 6.6203 20.5145 7.04395 20.6267L24.3271 25.199C24.6285 25.2784 24.9285 25.0654 24.9531 24.7546L24.9756 24.4636C24.9269 24.4656 24.8767 24.464 24.8271 24.4509L7.85156 19.9597C7.42787 19.8474 7.12643 19.4719 7.1084 19.0339L6.80273 11.613V11.6111L6.6123 6.63062L6.39941 6.57887ZM7.80176 11.5711L8.10742 18.9939L25.0537 23.4753L25.9805 11.7927C25.9998 11.5484 25.8395 11.3258 25.6016 11.2673L7.62305 6.87769L7.80176 11.5711Z" fill="black"/>
</svg>
