<svg width="32" height="32" viewBox="0 0 32 32" fill="none" xmlns="http://www.w3.org/2000/svg">
<rect width="32" height="32" fill="white"/>
<path d="M24.792 5.46722C25.0362 5.41232 25.2841 5.54598 25.3711 5.7807L28.0537 13.016C28.0612 13.0128 28.0684 13.0082 28.0762 13.0053C28.3343 12.9078 28.623 13.0383 28.7207 13.2963L29.6182 15.6713C29.7156 15.9294 29.5861 16.2181 29.3281 16.3159C29.3132 16.3215 29.2973 16.3234 29.2822 16.3276L31.3584 21.9272C31.4095 22.065 31.3974 22.219 31.3252 22.3471C31.253 22.475 31.1276 22.5646 30.9834 22.5922L9.92188 26.6147C9.71312 26.6545 9.50204 26.5573 9.39551 26.3735L6.15527 20.7709C6.12236 20.8103 6.08483 20.8467 6.03906 20.8754C5.805 21.0218 5.49606 20.9503 5.34961 20.7162L4.30273 19.0434C4.15648 18.8094 4.22715 18.5005 4.46094 18.3539C4.54002 18.3045 4.62782 18.2816 4.71484 18.2797L0.81543 11.5375C0.735813 11.3999 0.726302 11.2321 0.790039 11.0864C0.8538 10.941 0.982873 10.8343 1.1377 10.7993L24.792 5.46722ZM2.02051 11.6244L10.083 25.5649L30.2148 21.7201L24.585 6.53753L2.02051 11.6244ZM21.7031 9.36761C22.4193 9.21519 23.1408 9.60177 23.4102 10.2826L26.877 19.0473C27.2223 19.9207 26.6897 20.8933 25.7676 21.0717L12.6719 23.603L12.5117 23.6274C11.7634 23.7102 11.03 23.3641 10.6182 22.7338L10.5352 22.5942L6.20898 14.6362C5.76042 13.8103 6.17547 12.7977 7.03711 12.5024L7.21484 12.4535L21.7031 9.36761ZM21.9111 10.3451L7.42285 13.4311C7.09631 13.5009 6.92861 13.8651 7.08789 14.1586L11.4141 22.1166C11.6223 22.4994 12.0546 22.7042 12.4824 22.6215L25.5771 20.0903C25.8845 20.0309 26.0621 19.7066 25.9473 19.4155L22.4805 10.6508C22.3907 10.4238 22.1499 10.2943 21.9111 10.3451Z" fill="black"/>
</svg>
