<svg width="32" height="32" viewBox="0 0 32 32" fill="none" xmlns="http://www.w3.org/2000/svg">
<rect width="32" height="32" fill="white"/>
<path d="M14.9935 4.08594C16.8378 3.69073 18.7555 3.79975 20.5433 4.40137L30.1985 7.65137C31.6589 8.14284 31.518 10.2522 30.0052 10.5449L17.763 12.9141C15.7959 13.2947 13.7654 13.1969 11.844 12.6289L2.06572 9.73828C0.574906 9.29757 0.656138 7.15892 2.17607 6.83301L14.9935 4.08594ZM20.2239 5.34961C18.6065 4.80529 16.8721 4.70592 15.2034 5.06348L2.38603 7.81055C1.87931 7.91912 1.85195 8.63238 2.34892 8.7793L12.1282 11.6699C13.8957 12.1924 15.763 12.2827 17.5726 11.9326L29.8157 9.56348C30.3194 9.4656 30.3664 8.76265 29.8802 8.59863L20.2239 5.34961Z" fill="black"/>
</svg>
