<svg width="32" height="32" viewBox="0 0 32 32" fill="none" xmlns="http://www.w3.org/2000/svg">
<path fill-rule="evenodd" clip-rule="evenodd" d="M15.8468 11.8184C18.0424 11.7622 20.0682 12.345 21.5675 13.3594C23.0657 14.373 24.0716 15.8459 24.1154 17.5518C24.159 19.2576 23.2296 20.7802 21.7853 21.8691C20.3398 22.9588 18.347 23.6459 16.1515 23.7021C13.9563 23.7583 11.931 23.1743 10.4318 22.1602C8.93358 21.1465 7.92661 19.6727 7.88296 17.9668C7.83958 16.2611 8.77061 14.7392 10.215 13.6504C11.6603 12.561 13.6518 11.8746 15.8468 11.8184ZM23.0851 18.1152C22.6989 18.794 22.1446 19.4019 21.4718 19.9092C20.1025 20.9414 18.2159 21.5924 16.1388 21.6455C14.0618 21.6986 12.145 21.1454 10.7248 20.1846C9.96364 19.6696 9.33664 19.0283 8.91128 18.2949C9.06197 19.4584 9.80311 20.5275 10.9923 21.332C12.3001 22.2166 14.1152 22.7536 16.1261 22.7021C18.1371 22.6506 19.923 22.0217 21.1837 21.0713C22.2699 20.2524 22.9401 19.2165 23.0851 18.1152ZM15.8732 12.8174C13.8624 12.8689 12.0773 13.4981 10.8166 14.4482C10.1448 14.9546 9.63169 15.5445 9.30288 16.1807H9.30679C9.33792 17.3954 10.0557 18.5245 11.2853 19.3564C12.5141 20.1877 14.2208 20.6939 16.1134 20.6455C18.006 20.5971 19.6846 20.0043 20.8693 19.1113C22.0106 18.2509 22.6615 17.1393 22.6808 15.9736C22.3225 15.3025 21.7534 14.6925 21.007 14.1875C19.6993 13.3029 17.884 12.766 15.8732 12.8174Z" fill="black"/>
<path fill-rule="evenodd" clip-rule="evenodd" d="M15.7785 8.21777C19.0048 8.13522 21.9711 8.99301 24.1583 10.4727C26.3446 11.9517 27.7863 14.0819 27.8488 16.5244C27.9109 18.9666 26.5803 21.1661 24.4728 22.7549C22.3641 24.3445 19.4453 25.353 16.2189 25.4355C12.9929 25.518 10.0271 24.6601 7.83999 23.1807C5.6541 21.7018 4.21239 19.5729 4.14956 17.1309C4.08706 14.6883 5.41872 12.4874 7.52651 10.8984C9.63511 9.30914 12.5525 8.30039 15.7785 8.21777ZM15.8039 9.21777C12.7621 9.29571 10.052 10.2479 8.12808 11.6982C6.20332 13.1493 5.09663 15.0687 5.14858 17.1045C5.20084 19.1403 6.40399 21.0019 8.40054 22.3525C10.3962 23.7025 13.1518 24.5143 16.1935 24.4365C19.2355 24.3587 21.9472 23.4074 23.8712 21.957C25.796 20.5061 26.9006 18.5856 26.8488 16.5498C26.7967 14.514 25.595 12.6525 23.5988 11.3018C21.6031 9.95163 18.8459 9.13994 15.8039 9.21777Z" fill="black"/>
<path fill-rule="evenodd" clip-rule="evenodd" d="M31.3214 3.72363C31.4581 3.72382 31.5895 3.77983 31.6837 3.87891C31.7779 3.97812 31.8273 4.11239 31.8205 4.24902L30.6378 27.8018C30.6244 28.0677 30.4041 28.2763 30.1378 28.2764H1.86147C1.59529 28.2762 1.37589 28.0676 1.36245 27.8018L0.179833 4.24902C0.172963 4.11223 0.222166 3.97815 0.316552 3.87891C0.41093 3.77973 0.541943 3.72363 0.678857 3.72363H31.3214ZM2.33804 27.2764H29.6623L30.7951 4.72363H1.20425L2.33804 27.2764Z" fill="black"/>
</svg>
