<svg width="32" height="32" viewBox="0 0 32 32" fill="none" xmlns="http://www.w3.org/2000/svg">
<rect width="32" height="32" fill="white"/>
<path d="M27.7472 14.699C27.6905 12.4861 26.3834 10.4677 24.2215 9.00514C22.0605 7.54319 19.0787 6.6653 15.789 6.74939C12.4991 6.83357 9.56539 7.86283 7.48187 9.43346C5.39763 11.0047 4.1955 13.0873 4.25198 15.3002C4.3086 17.5133 5.61565 19.5324 7.7777 20.9951C9.93881 22.4571 12.9214 23.335 16.2112 23.2508C19.5009 23.1666 22.4339 22.1373 24.5173 20.5668C26.6018 18.9955 27.8038 16.9122 27.7472 14.699ZM28.7469 14.6735C28.8139 17.2931 27.3863 19.656 25.119 21.3651C22.8509 23.0748 19.7108 24.1615 16.2368 24.2505C12.7626 24.3394 9.57029 23.4147 7.21765 21.8232C4.86597 20.2322 3.31933 17.9454 3.2523 15.3258C3.18542 12.7063 4.61309 10.3442 6.8802 8.63511C9.14838 6.92528 12.2892 5.83861 15.7634 5.74972C19.2375 5.66091 22.429 6.58554 24.7816 8.17706C27.1331 9.76793 28.6797 12.054 28.7469 14.6735Z" fill="black"/>
<path d="M23.7187 15.8091C23.6823 14.3909 22.845 13.0799 21.4253 12.1195C20.0065 11.1597 18.0395 10.5787 15.8621 10.6344C13.6849 10.6901 11.7508 11.3711 10.383 12.402C9.01433 13.4338 8.24418 14.7859 8.28039 16.2041C8.31668 17.6225 9.15497 18.9332 10.5747 19.8937C11.9935 20.8534 13.9597 21.4346 16.137 21.3789C18.3145 21.3232 20.2492 20.6423 21.617 19.6112C22.9857 18.5794 23.755 17.2274 23.7187 15.8091ZM24.7184 15.7835C24.7651 17.6084 23.7702 19.2399 22.2187 20.4095C20.6662 21.5799 18.5244 22.3181 16.1626 22.3786C13.8008 22.439 11.624 21.8112 10.0137 20.7218C8.40449 19.6331 7.32741 18.0545 7.28072 16.2297C7.23411 14.405 8.22892 12.7733 9.78039 11.6037C11.3329 10.4334 13.4747 9.69516 15.8365 9.63469C18.1983 9.57426 20.3751 10.2021 21.9854 11.2914C23.5947 12.3801 24.6716 13.9588 24.7184 15.7835Z" fill="black"/>
</svg>
