<svg width="32" height="32" viewBox="0 0 32 32" fill="none" xmlns="http://www.w3.org/2000/svg">
<rect width="32" height="32" fill="white"/>
<path fill-rule="evenodd" clip-rule="evenodd" d="M15.8503 20.2822C17.8923 20.2494 19.7805 20.5814 21.1862 21.1651C21.8882 21.4566 22.4934 21.8209 22.9352 22.2539C23.3794 22.6892 23.6811 23.2184 23.7057 23.8194C23.7302 24.4204 23.4722 24.9592 23.0641 25.4082C22.6581 25.8548 22.0832 26.238 21.4059 26.5518C20.0497 27.1798 18.191 27.5726 16.1491 27.6055C14.1074 27.6383 12.2196 27.3062 10.8141 26.7227C10.1122 26.4312 9.50696 26.0667 9.0651 25.6338C8.62077 25.1984 8.31908 24.6676 8.29459 24.0664C8.27039 23.4656 8.52813 22.9275 8.93619 22.4785C9.34223 22.0319 9.91705 21.6487 10.5944 21.335C11.9505 20.707 13.8085 20.3151 15.8503 20.2822ZM15.8913 21.2813C13.9542 21.3125 12.2378 21.6861 11.0329 22.2442C10.4302 22.5234 9.97748 22.8388 9.68522 23.1602C9.3953 23.4791 9.28365 23.779 9.29459 24.0508C9.30567 24.3227 9.44179 24.6194 9.75748 24.9287C10.0756 25.2403 10.5536 25.5413 11.1784 25.8008C12.4271 26.3193 14.1712 26.6366 16.1081 26.6055C18.045 26.5743 19.7615 26.2015 20.9665 25.6436C21.5692 25.3644 22.0228 25.0489 22.3151 24.7276C22.6052 24.4084 22.7168 24.1069 22.7057 23.835C22.6944 23.5633 22.5583 23.2671 22.2428 22.958C21.9248 22.6464 21.4466 22.3464 20.8219 22.0869C19.5731 21.5683 17.8285 21.2502 15.8913 21.2813Z" fill="black"/>
<path fill-rule="evenodd" clip-rule="evenodd" d="M15.7946 18.0342C18.6863 17.9826 21.3502 18.5183 23.3239 19.4492C25.2666 20.3656 26.691 21.7469 26.7536 23.4492C26.8158 25.1514 25.4946 26.5811 23.6217 27.5654C21.7189 28.5655 19.0974 29.1964 16.2057 29.2481C13.314 29.2996 10.6492 28.763 8.67545 27.832C6.73316 26.9157 5.30946 25.535 5.24674 23.833C5.18433 22.1308 6.50485 20.7003 8.3776 19.7158C10.2805 18.7157 12.9027 18.0858 15.7946 18.0342ZM15.8307 19.0332C13.0603 19.0827 10.5971 19.6871 8.85709 20.6016C7.08716 21.5318 6.2057 22.6971 6.24674 23.8154C6.28812 24.9335 7.25401 26.0649 9.08951 26.9307C10.8944 27.7819 13.399 28.2975 16.1696 28.2481C18.94 28.1986 21.4032 27.5942 23.1432 26.6797C24.9127 25.7496 25.7943 24.5849 25.7536 23.4668C25.7123 22.3488 24.7471 21.2164 22.9118 20.3506C21.1069 19.4993 18.6014 18.9838 15.8307 19.0332Z" fill="black"/>
<path fill-rule="evenodd" clip-rule="evenodd" d="M15.8473 4.91017C17.9249 4.87353 19.8466 5.25385 21.277 5.92092C22.6746 6.57285 23.7593 7.58243 23.8073 8.87111C23.855 10.16 22.8463 11.2069 21.4987 11.9072C20.1196 12.6238 18.2295 13.0718 16.152 13.1084C14.0746 13.1451 12.1537 12.7647 10.7233 12.0977C9.32544 11.4457 8.23996 10.4354 8.19205 9.1465C8.14437 7.85771 9.15309 6.81072 10.5006 6.11037C11.8796 5.39377 13.7699 4.94688 15.8473 4.91017ZM15.8844 5.9092C13.9265 5.94379 12.1925 6.36743 10.9753 7.00002C9.72727 7.64881 9.16627 8.43023 9.19205 9.12892C9.2181 9.82773 9.83658 10.5894 11.1315 11.1934C12.3941 11.7822 14.157 12.1439 16.1149 12.1094C18.073 12.0749 19.8068 11.6512 21.0241 11.0186C22.2726 10.3697 22.8331 9.58753 22.8073 8.88869C22.7812 8.18996 22.1635 7.42918 20.8688 6.82521C19.6061 6.23632 17.8426 5.87466 15.8844 5.9092Z" fill="black"/>
<path fill-rule="evenodd" clip-rule="evenodd" d="M15.7887 2.02638C18.7929 1.96757 21.56 2.5785 23.6081 3.63869C25.6371 4.68907 27.0728 6.24873 27.1354 8.12209C27.198 9.9954 25.8679 11.6089 23.9118 12.7373C21.9373 13.8762 19.2146 14.5955 16.2106 14.6543C13.2068 14.713 10.4402 14.1011 8.39225 13.041C6.36335 11.9907 4.92757 10.4309 4.8649 8.55763C4.80244 6.68436 6.1324 5.07074 8.08854 3.9424C10.063 2.80358 12.7849 2.08524 15.7887 2.02638ZM15.8219 3.02541C12.9528 3.08165 10.4014 3.76902 8.59732 4.80959C6.775 5.86074 5.82034 7.20061 5.8649 8.5381C5.90965 9.87562 6.95229 11.1768 8.84244 12.1553C10.7137 13.124 13.3082 13.7104 16.1774 13.6543C19.0468 13.5981 21.5998 12.9108 23.404 11.8701C25.226 10.819 26.1801 9.47902 26.1354 8.14162C26.0907 6.80409 25.048 5.50296 23.1579 4.52443C21.2865 3.55573 18.6913 2.96923 15.8219 3.02541Z" fill="black"/>
</svg>
