<svg width="32" height="32" viewBox="0 0 32 32" fill="none" xmlns="http://www.w3.org/2000/svg">
<rect width="32" height="32" fill="white"/>
<path d="M26.1358 8.14154C26.091 6.80402 25.0482 5.50321 23.158 4.52469C21.2866 3.55596 18.6917 2.9694 15.8223 3.02558C12.953 3.0818 10.4015 3.76911 8.59734 4.80977C6.77488 5.861 5.82051 7.20082 5.86524 8.53842C5.90999 9.876 6.95265 11.1767 8.84297 12.1553C10.7143 13.124 13.3085 13.7105 16.1777 13.6544C19.0471 13.5982 21.5995 12.9109 23.4037 11.8702C25.2259 10.819 26.1805 9.47907 26.1358 8.14154ZM27.1356 8.12197C27.1982 9.99533 25.8685 11.6089 23.9124 12.7373C21.9378 13.8762 19.2153 14.595 16.2111 14.6538C13.2072 14.7126 10.4409 14.1012 8.39288 13.0411C6.36377 11.9907 4.9281 10.4314 4.86543 8.55799C4.80278 6.68456 6.13237 5.0711 8.08864 3.94269C10.0631 2.80381 12.7849 2.08499 15.7889 2.02614C18.793 1.96732 21.56 2.57864 23.6081 3.63884C25.6371 4.68922 27.0729 6.2486 27.1356 8.12197Z" fill="black"/>
<path d="M25.7538 23.4673C25.7128 22.349 24.7472 21.217 22.9115 20.3511C21.1066 19.4997 18.602 18.9837 15.8314 19.0331C13.0606 19.0825 10.5972 19.6872 8.85712 20.6018C7.08718 21.532 6.2061 22.697 6.24714 23.8153C6.28844 24.9334 7.25379 26.0647 9.08938 26.9305C10.8943 27.7819 13.3988 28.298 16.1696 28.2485C18.9402 28.1991 21.4037 27.5944 23.1438 26.6798C24.9133 25.7497 25.7946 24.5854 25.7538 23.4673ZM26.7536 23.4494C26.8159 25.1517 25.4948 26.5814 23.6218 27.5658C21.719 28.5659 19.0979 29.1962 16.2062 29.2479C13.3144 29.2994 10.6497 28.7634 8.67597 27.8324C6.73346 26.9161 5.31002 25.5352 5.2473 23.8331C5.18482 22.1308 6.50517 20.7003 8.37809 19.7158C10.281 18.7157 12.9028 18.0853 15.7947 18.0337C18.6864 17.9822 21.3502 18.5183 23.324 19.4492C25.2668 20.3656 26.6912 21.747 26.7536 23.4494Z" fill="black"/>
<path d="M22.8076 8.88855C22.7815 8.18978 22.1635 7.42915 20.8687 6.82517C19.6061 6.23627 17.8431 5.87467 15.885 5.90921C13.9269 5.94375 12.193 6.36705 10.9757 6.99968C9.72748 7.64851 9.16672 8.42996 9.1925 9.12872C9.21843 9.82758 9.83633 10.589 11.1314 11.1931C12.394 11.782 14.157 12.1436 16.1151 12.109C18.0732 12.0745 19.807 11.6512 21.0244 11.0186C22.273 10.3696 22.8335 9.58743 22.8076 8.88855ZM23.8074 8.87091C23.8553 10.1599 22.8467 11.2072 21.499 11.9076C20.1199 12.6242 18.2296 13.0717 16.1522 13.1084C14.0747 13.145 12.1538 12.7647 10.7233 12.0977C9.32542 11.4457 8.24049 10.4353 8.19265 9.14636C8.14497 7.85752 9.15349 6.81097 10.5011 6.11062C11.8802 5.39397 13.7703 4.94655 15.8479 4.90989C17.9254 4.87325 19.8463 5.25347 21.2768 5.92054C22.6746 6.57246 23.7594 7.58209 23.8074 8.87091Z" fill="black"/>
<path d="M22.7059 23.8353C22.6947 23.5635 22.5587 23.2673 22.2431 22.9581C21.9251 22.6464 21.447 22.3461 20.8222 22.0866C19.5733 21.5679 17.8285 21.2501 15.8913 21.2812C13.9542 21.3124 12.2383 21.6858 11.0334 22.2439C10.4305 22.5231 9.97752 22.8385 9.6852 23.1599C9.39525 23.4789 9.28356 23.779 9.2945 24.0508C9.30558 24.3227 9.44156 24.6196 9.75726 24.929C10.0754 25.2406 10.5535 25.541 11.1782 25.8005C12.427 26.3191 14.1711 26.637 16.1082 26.6059C18.0454 26.5747 19.7621 26.2013 20.967 25.6432C21.5699 25.3639 22.0229 25.0486 22.3152 24.7271C22.6053 24.408 22.7169 24.1072 22.7059 23.8353ZM23.7057 23.8192C23.7302 24.4203 23.4723 24.9592 23.064 25.4083C22.658 25.855 22.0831 26.2382 21.4056 26.552C20.0493 27.1801 18.1909 27.5722 16.1489 27.6051C14.107 27.6378 12.2197 27.3058 10.8142 26.7222C10.1121 26.4306 9.50677 26.0664 9.06486 25.6333C8.62053 25.1979 8.31912 24.6681 8.29463 24.0669C8.27029 23.4659 8.5282 22.9278 8.93637 22.4787C9.34244 22.032 9.91733 21.6488 10.5948 21.3351C11.951 20.7071 13.8087 20.3149 15.8506 20.282C17.8926 20.2492 19.7805 20.5811 21.1862 21.1648C21.8883 21.4564 22.4936 21.8207 22.9355 22.2537C23.3797 22.689 23.6811 23.2182 23.7057 23.8192Z" fill="black"/>
</svg>
