<svg width="32" height="32" viewBox="0 0 32 32" fill="none" xmlns="http://www.w3.org/2000/svg">
<rect width="32" height="32" fill="white"/>
<path d="M25.7371 5.33079C25.7205 4.98483 25.5194 4.60003 25.0435 4.19627C24.5677 3.79259 23.8601 3.41002 22.9507 3.08275C21.1356 2.42953 18.6187 2.03387 15.8366 2.07174C13.0545 2.10962 10.579 2.57322 8.82898 3.27497C7.95227 3.62655 7.2824 4.02787 6.84598 4.44397C6.40955 4.86014 6.24571 5.24992 6.26235 5.59587C6.27899 5.94182 6.48008 6.32664 6.95595 6.73039C7.4318 7.13407 8.13937 7.51664 9.04874 7.84391C10.8639 8.49714 13.3808 8.89278 16.1629 8.85492C18.9449 8.81705 21.4205 8.35344 23.1705 7.65169C24.0472 7.30011 24.7171 6.89879 25.1535 6.48269C25.5899 6.06651 25.7537 5.67675 25.7371 5.33079ZM26.737 5.31718C26.772 6.04549 26.4126 6.68706 25.8581 7.21589C25.3032 7.74493 24.5128 8.20257 23.5708 8.58034C21.6834 9.33719 19.0825 9.81468 16.2109 9.85376C13.3393 9.89285 10.6959 9.48676 8.7382 8.78224C7.7611 8.43059 6.92777 7.99505 6.32277 7.4818C5.71816 6.96876 5.29747 6.33778 5.26244 5.60948C5.22742 4.88119 5.58689 4.23959 6.14139 3.71077C6.69626 3.18174 7.48663 2.72409 8.42864 2.34632C10.3161 1.58947 12.9169 1.11199 15.7886 1.0729C18.6602 1.03381 21.3035 1.43992 23.2613 2.14442C24.2384 2.49607 25.0717 2.93161 25.6767 3.44486C26.2813 3.95791 26.702 4.58887 26.737 5.31718Z" fill="black"/>
<path d="M25.1789 15.6284C25.1649 15.3534 24.9937 15.0264 24.5455 14.6684C24.0997 14.3123 23.4338 13.972 22.5741 13.6807C20.8588 13.0995 18.4791 12.7475 15.8485 12.7812C13.2178 12.8149 10.8773 13.2273 9.2236 13.8518C8.39463 14.1648 7.76445 14.5216 7.35555 14.8887C6.94456 15.2577 6.80699 15.5887 6.82103 15.8637C6.83516 16.1386 7.00638 16.4658 7.45439 16.8237C7.90023 17.1798 8.56612 17.5191 9.42582 17.8105C11.1411 18.3917 13.5206 18.7446 16.1514 18.7109C18.7821 18.6772 21.1226 18.2638 22.7763 17.6394C23.605 17.3264 24.2355 16.9703 24.6444 16.6034C25.0553 16.2345 25.1929 15.9033 25.1789 15.6284ZM26.1788 15.6156C26.2135 16.2971 25.8559 16.8844 25.3297 17.3568C24.8014 17.831 24.0525 18.239 23.1622 18.5752C21.3768 19.2494 18.9172 19.6748 16.2024 19.7096C13.4878 19.7444 10.9878 19.3825 9.13598 18.755C8.21249 18.442 7.42283 18.0538 6.84687 17.5937C6.27313 17.1354 5.85601 16.558 5.82112 15.8765C5.7863 15.195 6.14406 14.6077 6.67021 14.1353C7.19848 13.661 7.9473 13.2522 8.83771 12.9159C10.623 12.2418 13.0828 11.8173 15.7975 11.7825C18.5122 11.7477 21.0121 12.1086 22.8639 12.7361C23.7876 13.0492 24.577 13.4383 25.1531 13.8984C25.7269 14.3568 26.144 14.934 26.1788 15.6156Z" fill="black"/>
<path d="M24.4473 24.8674C24.4361 24.6585 24.2983 24.3859 23.8868 24.0722C23.4798 23.7619 22.8678 23.4632 22.0738 23.2064C20.4909 22.6945 18.2927 22.3842 15.8618 22.4139C13.4312 22.4437 11.2697 22.8074 9.7437 23.3572C8.97827 23.633 8.39904 23.9464 8.02571 24.2662C7.64829 24.5895 7.53989 24.8652 7.55108 25.0741C7.5623 25.283 7.70008 25.5557 8.11152 25.8694C8.51858 26.1796 9.1306 26.4775 9.92446 26.7342C11.5073 27.246 13.7048 27.5574 16.1355 27.5277C18.5665 27.4979 20.7285 27.1333 22.2546 26.5834C23.02 26.3076 23.5993 25.9952 23.9726 25.6754C24.35 25.3521 24.4584 25.0763 24.4473 24.8674ZM25.4472 24.8552C25.4811 25.4901 25.132 26.025 24.643 26.4439C24.15 26.8663 23.4534 27.2274 22.6294 27.5244C20.9762 28.1201 18.6998 28.4955 16.189 28.5262C13.6784 28.5569 11.3655 28.2376 9.65085 27.6831C8.79609 27.4067 8.06182 27.0631 7.52421 26.6533C6.99106 26.2469 6.58518 25.7213 6.55115 25.0863C6.51717 24.4514 6.86635 23.9166 7.3553 23.4977C7.84841 23.0752 8.54477 22.7132 9.36893 22.4162C11.022 21.8205 13.2977 21.4461 15.8084 21.4153C18.3192 21.3846 20.6327 21.7029 22.3475 22.2575C23.2023 22.5339 23.9365 22.8784 24.4741 23.2883C25.0072 23.6947 25.4132 24.2203 25.4472 24.8552Z" fill="black"/>
<path d="M22.9044 5.64863C22.9008 5.58162 22.8447 5.41865 22.5067 5.19098C22.1819 4.97223 21.6851 4.75692 21.0304 4.5709C19.7268 4.20052 17.9108 3.97683 15.8984 4.00151C13.886 4.02619 12.0963 4.2941 10.8339 4.69595C10.1999 4.89777 9.72675 5.12498 9.42568 5.3514C9.11245 5.58706 9.07376 5.75119 9.07733 5.81821C9.08098 5.88531 9.13725 6.04738 9.47498 6.27489C9.79977 6.49369 10.2965 6.70889 10.9513 6.89497C12.2549 7.26534 14.071 7.49001 16.0833 7.46533C18.0957 7.44065 19.8854 7.17177 21.1478 6.76992C21.7819 6.56804 22.255 6.34094 22.556 6.11447C22.869 5.87897 22.9079 5.71574 22.9044 5.64863ZM23.9043 5.63637C23.9336 6.18517 23.5888 6.6133 23.1805 6.92064C22.7598 7.23715 22.1727 7.50475 21.4869 7.72303C20.1093 8.16155 18.2186 8.43838 16.1366 8.46391C14.0547 8.48944 12.1369 8.25932 10.7143 7.85514C10.0063 7.65398 9.39226 7.40104 8.93836 7.0953C8.49757 6.79836 8.10678 6.37948 8.07741 5.83047C8.0481 5.28139 8.39366 4.8526 8.80222 4.54522C9.22289 4.22885 9.80934 3.96201 10.4948 3.74381C11.8725 3.30528 13.7631 3.02847 15.8451 3.00293C17.9271 2.9774 19.8448 3.20751 21.2674 3.6117C21.9756 3.81288 22.5904 4.06477 23.0443 4.37056C23.4851 4.66752 23.875 5.08737 23.9043 5.63637Z" fill="black"/>
<path d="M22.5003 15.9108C22.4991 15.891 22.4722 15.7603 22.1499 15.5559C21.8456 15.363 21.3777 15.1717 20.7586 15.0061C19.5264 14.6764 17.8095 14.4772 15.9067 14.4991C14.0038 14.5211 12.3118 14.7597 11.1186 15.1174C10.5187 15.2972 10.0724 15.4988 9.79039 15.6986C9.49178 15.9101 9.48063 16.0413 9.48166 16.0612C9.48275 16.0805 9.50818 16.2113 9.83108 16.4162C10.1354 16.6092 10.6039 16.8002 11.2234 16.966C12.4555 17.2956 14.1724 17.4949 16.0753 17.4729C17.9781 17.4509 19.6702 17.2123 20.8634 16.8546C21.463 16.6749 21.9086 16.4731 22.1906 16.2734C22.4901 16.0613 22.5014 15.9302 22.5003 15.9108ZM23.5003 15.8993C23.5303 16.4284 23.1781 16.8245 22.7952 17.0958C22.3948 17.3794 21.8384 17.6176 21.1903 17.8119C19.8874 18.2024 18.1 18.4485 16.1319 18.4713C14.1639 18.494 12.3508 18.2894 11.0054 17.9295C10.3362 17.7504 9.75347 17.5254 9.32146 17.2513C8.90826 16.9892 8.51172 16.6019 8.48172 16.0727C8.4518 15.5436 8.80388 15.1475 9.1868 14.8763C9.58719 14.5927 10.1437 14.3544 10.7917 14.1601C12.0946 13.7697 13.8821 13.5235 15.8501 13.5007C17.8181 13.478 19.6312 13.6826 20.9766 14.0425C21.6458 14.2216 22.2285 14.4466 22.6605 14.7207C23.0737 14.9827 23.4702 15.3702 23.5003 15.8993Z" fill="black"/>
<path d="M21.9709 25.1172C21.9643 25.0999 21.9214 25.0061 21.677 24.8581C21.3998 24.6903 20.9698 24.5227 20.3977 24.3766C19.2607 24.0864 17.6754 23.9101 15.9173 23.9295C14.159 23.9489 12.5959 24.1598 11.4949 24.4747C10.9412 24.6331 10.5322 24.8101 10.2754 24.9837C9.99805 25.1712 10.0128 25.2712 10.0117 25.249C10.0102 25.225 10.0052 25.3249 10.3065 25.5072C10.5836 25.6749 11.0131 25.8427 11.5848 25.9887C12.7218 26.2789 14.3079 26.4552 16.0662 26.4358C17.8243 26.4164 19.3866 26.2055 20.4876 25.8906C21.0416 25.7321 21.4512 25.5553 21.7081 25.3816C21.9872 25.1929 21.9695 25.0932 21.9709 25.1172ZM22.9708 25.1062C23.0008 25.6138 22.6486 25.9783 22.2971 26.2159C21.9231 26.4687 21.4062 26.6803 20.8066 26.8518C19.6001 27.1969 17.9458 27.414 16.1255 27.434C14.3052 27.4541 12.6273 27.2737 11.3814 26.9557C10.7621 26.7976 10.2199 26.5977 9.81637 26.3535C9.43715 26.1238 9.04209 25.7675 9.01171 25.2601C8.98155 24.7523 9.33385 24.3871 9.68543 24.1494C10.0594 23.8965 10.5772 23.685 11.1769 23.5135C12.3834 23.1684 14.0377 22.9513 15.858 22.9312C17.6783 22.9112 19.3562 23.0916 20.6021 23.4096C21.2213 23.5677 21.7626 23.7676 22.1661 24.0118C22.5456 24.2415 22.9407 24.5984 22.9708 25.1062Z" fill="black"/>
</svg>
