<svg width="32" height="32" viewBox="0 0 32 32" fill="none" xmlns="http://www.w3.org/2000/svg">
<rect width="32" height="32" fill="white"/>
<path d="M27.9751 14.7218C27.9609 14.1709 27.6827 13.6086 27.0993 13.0581C26.5138 12.5057 25.6486 11.9933 24.5446 11.5624C22.3384 10.7013 19.2733 10.2007 15.8783 10.2876C12.4832 10.3744 9.44775 11.0311 7.2885 12.0039C6.20786 12.4908 5.37006 13.0466 4.81361 13.6283C4.25911 14.208 4.01001 14.7838 4.02399 15.3346C4.04788 16.2682 4.84916 17.2468 6.50703 18.0757L6.28304 18.523L6.06004 18.9703C4.32032 18.1004 3.06311 16.8762 3.02432 15.3602C3.00151 14.4641 3.41482 13.6431 4.09061 12.9366C4.76465 12.232 5.72564 11.6116 6.87833 11.0923C9.18571 10.0528 12.358 9.37732 15.8527 9.28789C19.3477 9.19846 22.551 9.71073 24.9086 10.6309C26.0861 11.0905 27.0768 11.6612 27.786 12.3303C28.497 13.0013 28.9518 13.8001 28.9748 14.6962C28.9977 15.5923 28.5843 16.4133 27.9085 17.1198C27.2346 17.8243 26.2743 18.4448 25.1218 18.9641C22.8143 20.0037 19.6414 20.6801 16.1465 20.7695L16.1209 19.7698C19.516 19.6829 22.5514 19.0253 24.7106 18.0525C25.7911 17.5657 26.6291 17.0106 27.1855 16.4291C27.7402 15.8493 27.9892 15.2728 27.9751 14.7218Z" fill="black"/>
<path d="M14.5548 10.8116C16.058 10.2998 17.3178 9.93958 18.6563 9.7473L19.2361 9.67471L19.262 9.67207L19.2889 9.67221C20.4779 9.67229 22.05 9.97264 23.4583 10.3922C24.1664 10.6032 24.8456 10.8479 25.4267 11.1074C25.9993 11.3632 26.5088 11.6474 26.8536 11.9472L26.934 12.0168L26.9788 12.1119C27.3296 12.8597 27.221 13.6578 26.841 14.4068C26.4653 15.1469 25.8081 15.8789 24.9747 16.57C23.3039 17.9556 20.8149 19.2666 18.0363 20.2126C15.249 21.1616 12.4917 21.5628 10.3093 21.4241C9.21972 21.3547 8.24694 21.1492 7.48016 20.7894C6.71255 20.429 6.10877 19.8915 5.85477 19.1454C5.60461 18.4103 5.72776 17.62 6.08529 16.8593C6.44232 16.0998 7.0478 15.3341 7.83265 14.6045C9.40409 13.1437 11.763 11.7622 14.5548 10.8116ZM6.8014 18.8231C6.93957 19.2289 7.29062 19.5957 7.90546 19.8843C8.52114 20.1732 9.35908 20.362 10.373 20.4265C12.3984 20.5552 15.0231 20.1822 17.714 19.266C20.4138 18.3468 22.7846 17.0868 24.3361 15.8002C25.1137 15.1553 25.6591 14.5259 25.9493 13.9542C26.2113 13.4378 26.2475 13.0052 26.1113 12.6363C25.8706 12.4496 25.5003 12.2354 25.0184 12.0201C24.485 11.782 23.8483 11.5511 23.1726 11.3498C21.824 10.9481 20.3685 10.6766 19.3157 10.672C17.8705 10.8265 16.5568 11.1864 14.8771 11.7582C12.1909 12.6729 9.96272 13.9894 8.51398 15.336C7.78902 16.0099 7.27645 16.6761 6.9904 17.2846C6.70501 17.8918 6.65969 18.4065 6.8014 18.8231Z" fill="black"/>
</svg>
