<svg viewBox="0 0 56 56" xmlns="http://www.w3.org/2000/svg" xmlns:xlink="http://www.w3.org/1999/xlink" width="56.000000" height="56.000000" fill="none">
	<rect id="Icon/Luminaires/313_pot_vstr_toch_pov 1" width="56.000000" height="56.000000" x="0.000000" y="0.000000" />
	<path id="Icon" d="M47.5831 23.0064C48.4956 23.9202 48.933 24.8506 48.9565 25.7632C48.9811 26.7275 48.5455 27.7362 47.5746 28.7509C46.6009 29.7686 45.1345 30.7399 43.2436 31.5919C41.0743 32.5692 38.3997 33.3647 35.3907 33.8939C38.6841 32.4622 41.5751 30.7645 43.7058 28.9976C45.1642 27.7881 46.3144 26.5072 46.9718 25.212C47.3366 24.4932 47.5584 23.7483 47.5831 23.0064ZM28.402 17.9911C27.4678 18.259 26.5021 18.5694 25.4709 18.9204C20.5853 20.5839 16.4572 23.0017 13.7071 25.5579C12.3336 26.8347 11.2741 28.1748 10.6493 29.5039C10.4261 29.9786 10.2551 30.4601 10.1473 30.9414C8.08457 29.6537 7.07733 28.2164 7.04198 26.8356C7.01752 25.8717 7.45352 24.864 8.4238 23.8495C9.3976 22.8316 10.8638 21.859 12.7549 21.0068C16.5336 19.3045 21.8456 18.1552 27.787 18.0033C27.9928 17.998 28.1977 17.9939 28.402 17.9911ZM10.0947 32.9326C7.31745 31.4306 5.3566 29.3826 5.29262 26.8804C5.25267 25.3122 5.976 23.8754 7.15862 22.6391C8.33814 21.4059 10.0199 20.3203 12.0371 19.4115C16.075 17.5923 21.6266 16.4103 27.7423 16.2537C33.8585 16.0974 39.4643 16.9937 43.5901 18.604C45.6507 19.4083 47.3845 20.407 48.6256 21.5781C49.8698 22.7524 50.6658 24.1501 50.7059 25.7183C50.7461 27.2865 50.0225 28.7233 48.8399 29.9596C47.6606 31.1926 45.98 32.2785 43.9632 33.1872C39.9343 35.0024 34.3979 36.1848 28.2985 36.3456C24.5708 37.3005 21.0034 37.6806 18.0413 37.4924C16.1345 37.3708 14.4322 37.0113 13.0903 36.3815C11.747 35.7509 10.6903 34.8103 10.2459 33.5047C10.1816 33.3158 10.1315 33.125 10.0947 32.9326ZM13.8346 34.7977C12.7586 34.2925 12.1443 33.6508 11.9024 32.9405C11.6545 32.2114 11.7338 31.3107 12.2332 30.2482C12.7339 29.1833 13.6308 28.0175 14.8995 26.8381C17.4347 24.4816 21.3341 22.1777 26.035 20.577C28.9745 19.5762 31.2734 18.9464 33.8026 18.676C35.645 18.6841 38.1921 19.1592 40.5521 19.8622C41.7346 20.2145 42.8488 20.6187 43.7823 21.0353C44.6256 21.4121 45.2736 21.787 45.6949 22.1136C45.9332 22.7592 45.8698 23.5163 45.4114 24.4199C44.9035 25.4205 43.949 26.522 42.5882 27.6505C39.8731 29.9019 35.7242 32.1069 30.9995 33.7155C26.2905 35.319 21.6973 35.9718 18.1527 35.7464C16.3784 35.6336 14.9121 35.3031 13.8346 34.7977Z" fill="rgb(0,0,0)" fill-rule="evenodd" />
</svg>
