<svg width="32" height="32" viewBox="0 0 32 32" fill="none" xmlns="http://www.w3.org/2000/svg">
<path fill-rule="evenodd" clip-rule="evenodd" d="M15.7794 8.19629C19.0057 8.1138 21.9721 8.97151 24.1593 10.4512C26.3453 11.9302 27.7862 14.0596 27.8488 16.502C27.9111 18.9443 26.5805 21.1446 24.4728 22.7334C22.3641 24.3228 19.446 25.3315 16.2199 25.4141C12.9937 25.4966 10.0282 24.6377 7.84097 23.1582C5.6549 21.6792 4.21222 19.5507 4.14956 17.1084C4.08711 14.666 5.41891 12.4658 7.52651 10.877C9.63517 9.28753 12.5533 8.27887 15.7794 8.19629ZM15.8048 9.19531C12.7629 9.27318 10.0521 10.2254 8.12808 11.6758C6.20324 13.1269 5.09747 15.0471 5.14956 17.083C5.20185 19.1188 6.40406 20.9804 8.40054 22.3311C9.11969 22.8175 9.93879 23.2313 10.8332 23.5615C10.1218 23.1955 9.59923 22.5872 9.40933 21.7031C9.37851 21.5596 9.35867 21.4127 9.34585 21.2637C8.27507 20.3577 7.58936 19.1726 7.56753 17.8203C7.54044 16.1421 8.53785 14.6426 10.046 13.5654C11.5579 12.4857 13.6312 11.7886 15.9064 11.6963C18.1815 11.6041 20.2738 12.1322 21.8185 13.0879C23.3596 14.0414 24.4047 15.4584 24.4318 17.1367C24.4587 18.8149 23.4605 20.3145 21.9523 21.3916C20.4543 22.4612 18.4058 23.1544 16.1554 23.2568C14.7462 23.8402 13.3932 24.0772 12.2687 23.9639C12.1635 23.9533 12.0601 23.9379 11.9582 23.9209C13.2627 24.2733 14.6938 24.4524 16.1945 24.4141C19.2363 24.3362 21.9473 23.3849 23.8712 21.9346C25.796 20.4836 26.9017 18.5632 26.8498 16.5273C26.7975 14.4916 25.595 12.631 23.5988 11.2803C21.6031 9.93016 18.8468 9.1175 15.8048 9.19531ZM18.0187 13.1279C17.1415 13.2799 16.3363 13.6282 15.2873 14.1943C13.6193 15.0947 12.2409 16.3881 11.3478 17.7041C10.447 19.0317 10.0906 20.2968 10.2902 21.2275C10.4865 22.1413 11.271 22.7525 12.5353 22.8799C13.7851 23.0057 15.4126 22.641 17.0871 21.7373C18.7737 20.827 20.2456 19.5854 21.2013 18.3291C22.1393 17.0961 22.4989 15.9712 22.2804 15.1035C21.9464 14.6829 21.2429 14.1935 20.4113 13.8008C19.5602 13.3989 18.6574 13.135 18.0187 13.1279ZM23.1925 16.0371C23.0265 17.022 22.508 18.0368 21.8058 18.96C21.0135 20.0014 19.9445 20.9953 18.7326 21.833C19.7486 21.5371 20.651 21.1058 21.3859 20.5811C22.7175 19.6299 23.4518 18.4158 23.4318 17.1768C23.4255 16.7858 23.3436 16.4038 23.1925 16.0371ZM15.923 12.6953C13.8172 12.7807 11.9417 13.4274 10.6134 14.376C9.28176 15.3271 8.54655 16.5412 8.56655 17.7803C8.57914 18.5522 8.8834 19.2876 9.4396 19.9375C9.63525 19.0075 10.0838 18.0401 10.6974 17.1357C11.7245 15.6223 13.2625 14.1965 15.0773 13.2168C15.4424 13.0197 15.788 12.8441 16.1232 12.6904C16.0567 12.692 15.9899 12.6926 15.923 12.6953Z" fill="black"/>
<path fill-rule="evenodd" clip-rule="evenodd" d="M31.3214 3.72363C31.4581 3.72382 31.5895 3.77983 31.6837 3.87891C31.7779 3.97812 31.8273 4.11239 31.8205 4.24902L30.6378 27.8018C30.6244 28.0677 30.4041 28.2763 30.1378 28.2764H1.86147C1.59529 28.2762 1.37589 28.0676 1.36245 27.8018L0.179833 4.24902C0.172963 4.11223 0.222166 3.97815 0.316552 3.87891C0.41093 3.77973 0.541943 3.72363 0.678857 3.72363H31.3214ZM2.33804 27.2764H29.6623L30.7951 4.72363H1.20425L2.33804 27.2764Z" fill="black"/>
</svg>
