<svg width="32" height="32" viewBox="0 0 32 32" fill="none" xmlns="http://www.w3.org/2000/svg">
<g clip-path="url(#clip0_424_707)">
<path fill-rule="evenodd" clip-rule="evenodd" d="M15.768 18.6211C18.976 18.5697 21.929 19.1059 24.1137 20.0352C26.25 20.944 27.8499 22.3245 27.9213 24.0605C27.9922 25.797 26.5065 27.2278 24.4467 28.2041C22.3407 29.2021 19.4359 29.8324 16.2279 29.8838C13.0199 29.9352 10.0678 29.399 7.88318 28.4697C5.74645 27.5607 4.14558 26.1797 4.07459 24.4434C4.00398 22.7072 5.48969 21.277 7.5492 20.3008C9.65513 19.3027 12.56 18.6726 15.768 18.6211ZM15.809 19.6201C12.7087 19.6698 9.94897 20.2798 7.99647 21.2051C5.99825 22.1522 5.03032 23.3292 5.07459 24.4268C5.11942 25.5246 6.18273 26.6706 8.25623 27.5527C8.91878 27.8345 9.6654 28.0775 10.4779 28.2783C10.0388 28.0545 9.67061 27.7275 9.5033 27.2666C9.49072 27.2319 9.48203 27.196 9.47205 27.1611C8.51239 26.6552 7.76246 25.9374 7.7367 25.001C7.72019 24.3939 8.01983 23.8601 8.46326 23.4248C8.90592 22.9903 9.52649 22.6169 10.2553 22.3086C11.716 21.6907 13.7125 21.2929 15.9027 21.2402C18.0932 21.1876 20.1093 21.4891 21.6019 22.0361C22.3465 22.3091 22.9868 22.6518 23.4525 23.0645C23.9191 23.4779 24.2475 23.9964 24.264 24.6035C24.2806 25.2105 23.9808 25.7445 23.5375 26.1797C23.0948 26.6141 22.4742 26.9886 21.7455 27.2969C20.2884 27.9132 18.2975 28.309 16.1137 28.3633C15.0879 28.6067 14.0949 28.7344 13.2055 28.751C14.1547 28.8525 15.1544 28.9013 16.1869 28.8848C19.2873 28.8351 22.0478 28.2252 24.0004 27.2998C25.9989 26.3525 26.9659 25.1749 26.9213 24.0771C26.8762 22.9795 25.8147 21.8341 23.7416 20.9521C21.7161 20.0905 18.9094 19.5704 15.809 19.6201ZM18.0863 22.459C17.2088 22.548 16.4064 22.7535 15.3695 23.085C13.7151 23.6139 12.351 24.3736 11.4711 25.1416C11.0304 25.5263 10.7285 25.8967 10.5648 26.2236C10.4013 26.5505 10.3938 26.792 10.4555 26.9619C10.5131 27.1205 10.6712 27.2993 11.0248 27.4551C11.378 27.6107 11.8744 27.718 12.4926 27.7549C13.7255 27.8285 15.3368 27.6152 16.9955 27.085C18.6625 26.552 20.1181 25.8235 21.0629 25.0879C21.5372 24.7185 21.8543 24.368 22.018 24.0654C22.1446 23.8311 22.1626 23.658 22.1293 23.5244C21.9983 23.4388 21.8048 23.3372 21.5502 23.2305C21.2278 23.0953 20.8395 22.9636 20.4252 22.8477C19.5997 22.6168 18.7175 22.4632 18.0863 22.459ZM23.0853 24.1367C23.0439 24.2775 22.9877 24.4159 22.9164 24.5479C22.6656 25.0115 22.2351 25.4572 21.7074 25.8682C21.3335 26.1593 20.8952 26.4419 20.4096 26.7129C20.7479 26.6092 21.0639 26.4973 21.3529 26.375C22.0137 26.0955 22.5123 25.7819 22.8353 25.4648C23.1574 25.1487 23.2704 24.8663 23.264 24.6279C23.2599 24.4782 23.2074 24.3132 23.0853 24.1367ZM14.4877 22.3291C12.9821 22.4804 11.6543 22.8023 10.6469 23.2285C9.98618 23.508 9.48742 23.8217 9.16443 24.1387C8.84225 24.4549 8.72926 24.7381 8.73572 24.9766C8.74423 25.2878 8.97312 25.6658 9.5365 26.042C9.57026 25.9495 9.60896 25.8579 9.65369 25.7686C9.89019 25.2961 10.2848 24.8299 10.7836 24.3945C11.6788 23.6132 12.9679 22.8774 14.4877 22.3291Z" fill="black"/>
<path fill-rule="evenodd" clip-rule="evenodd" d="M15.7611 3.4375C19.1194 3.37827 22.21 4.00095 24.4955 5.0791C26.7499 6.14267 28.3708 7.73146 28.4428 9.66602C28.5144 11.6006 27.0129 13.2441 24.8402 14.3857C22.6376 15.543 19.5979 16.2738 16.2396 16.333C12.8813 16.3922 9.7908 15.7696 7.50525 14.6914C5.25101 13.6279 3.63009 12.0399 3.55799 10.1055C3.48619 8.17084 4.98699 6.52648 7.15955 5.38477C9.36213 4.2274 12.4028 3.49676 15.7611 3.4375ZM15.7982 4.43652C12.561 4.49364 9.67888 5.19963 7.63904 6.27148C5.56954 7.35899 4.50787 8.73734 4.55799 10.0879C4.60846 11.4383 5.77109 12.7771 7.91834 13.79C8.7377 14.1765 9.67945 14.5023 10.7133 14.7549C10.5697 14.7064 10.4329 14.6522 10.3041 14.5908C9.77176 14.3371 9.33262 13.9496 9.14686 13.3955C9.12813 13.3396 9.114 13.283 9.10096 13.2266C8.06769 12.6428 7.29785 11.8315 7.27186 10.8096C7.25537 10.1551 7.55365 9.56531 8.0199 9.07031C8.48414 8.57748 9.13858 8.15052 9.9115 7.79688C11.4593 7.08881 13.5761 6.63266 15.8988 6.57227C18.2214 6.51195 20.3585 6.8567 21.9398 7.4834C22.7296 7.79645 23.4045 8.19011 23.893 8.6582C24.3834 9.12826 24.7113 9.70113 24.7279 10.3555C24.7443 11.0099 24.4451 11.5998 23.9789 12.0947C23.5147 12.5873 22.8609 13.0147 22.0883 13.3682C20.5489 14.0724 18.4469 14.5255 16.139 14.5898C14.7233 14.957 13.365 15.1054 12.2308 15.0322C12.1097 15.0244 11.9905 15.0121 11.8734 14.999C13.2124 15.2388 14.6731 15.361 16.2025 15.334C19.4396 15.2769 22.3219 14.5717 24.3617 13.5C26.431 12.4126 27.4927 11.034 27.4428 9.68359C27.3925 8.3331 26.2298 6.9945 24.0824 5.98145C21.9658 4.98296 19.0354 4.37943 15.7982 4.43652ZM18.1879 7.83203C17.2584 7.93422 16.4087 8.16927 15.3109 8.54883C13.5576 9.15506 12.1104 10.0253 11.1762 10.9072C10.7084 11.3488 10.3871 11.7782 10.2103 12.1602C10.0343 12.5406 10.0158 12.8401 10.0922 13.0684C10.1651 13.2859 10.3571 13.5027 10.7367 13.6836C11.1174 13.865 11.6467 13.9899 12.3021 14.0322C13.6108 14.1167 15.3188 13.8714 17.0765 13.2637C18.8432 12.6528 20.3865 11.8179 21.389 10.9736C21.892 10.55 22.2325 10.1452 22.4096 9.79102C22.556 9.49771 22.5773 9.26862 22.5228 9.08105C22.3784 8.97481 22.1603 8.84886 21.8734 8.71875C21.5296 8.56287 21.1163 8.4105 20.6762 8.27734C19.7978 8.01164 18.8588 7.83618 18.1879 7.83203ZM23.4896 9.71777C23.4469 9.89405 23.3841 10.0683 23.3002 10.2363C23.0381 10.7608 22.5852 11.269 22.0258 11.7402C21.4957 12.1866 20.8438 12.6172 20.1107 13.0176C20.6866 12.857 21.2117 12.6692 21.6732 12.458C22.3729 12.1379 22.9051 11.7777 23.2523 11.4092C23.5973 11.0428 23.7357 10.6965 23.7279 10.3818C23.7226 10.1694 23.6481 9.94741 23.4896 9.71777ZM14.9252 7.62402C13.1128 7.7675 11.5122 8.16416 10.3275 8.70605C9.62751 9.02632 9.09475 9.38716 8.74744 9.75586C8.40233 10.1223 8.26397 10.4685 8.27186 10.7832C8.2823 11.1933 8.55558 11.6504 9.17127 12.0889C9.20878 11.9722 9.25335 11.856 9.30604 11.7422C9.5534 11.2078 9.96928 10.6773 10.4974 10.1787C11.5423 9.19245 13.0948 8.26627 14.9252 7.62402Z" fill="black"/>
<path fill-rule="evenodd" clip-rule="evenodd" d="M31.307 0.269531C31.4429 0.269531 31.5731 0.325023 31.6674 0.422852C31.7616 0.520833 31.8123 0.653244 31.807 0.789062L30.6254 31.251C30.6146 31.519 30.3937 31.7314 30.1254 31.7314H1.87244C1.60435 31.7311 1.38418 31.5188 1.37342 31.251L0.190801 0.789062C0.185536 0.653363 0.236412 0.520807 0.33045 0.422852C0.424652 0.324934 0.554933 0.269601 0.690801 0.269531H31.307ZM2.35389 30.7314H29.6449L30.7875 1.26953H1.21131L2.35389 30.7314Z" fill="black"/>
</g>
<defs>
<clipPath id="clip0_424_707">
<rect width="32" height="32" fill="white"/>
</clipPath>
</defs>
</svg>
