<svg width="32" height="32" viewBox="0 0 32 32" fill="none" xmlns="http://www.w3.org/2000/svg">
<g clip-path="url(#clip0_315_780)">
<rect width="32" height="32" fill="white"/>
<path d="M27.7275 7.38061C27.7137 6.84429 27.4425 6.29568 26.8722 5.75743C26.2997 5.21713 25.4525 4.71566 24.3711 4.29358C22.2104 3.45025 19.2076 2.9594 15.8813 3.04451C12.5552 3.12965 9.58209 3.77348 7.46744 4.7261C6.40904 5.20292 5.58861 5.74707 5.04442 6.31594C4.50229 6.88272 4.25965 7.44434 4.27327 7.98074C4.29654 8.88988 5.07704 9.84679 6.70097 10.6588L6.47796 11.106L6.25397 11.5533C4.54814 10.7004 3.31177 9.49794 3.2736 8.00632C3.25115 7.1247 3.65797 6.31783 4.32141 5.62425C4.98319 4.93245 5.92586 4.32372 7.05629 3.81444C9.31913 2.79499 12.4295 2.13254 15.8557 2.04484C19.282 1.95717 22.423 2.45967 24.7351 3.36209C25.8898 3.81284 26.8617 4.37276 27.5579 5.02969C28.2561 5.68847 28.7045 6.47336 28.7272 7.35503C28.7497 8.23684 28.342 9.0444 27.6784 9.73811C27.0167 10.4297 26.0747 11.0387 24.9445 11.5479C22.6816 12.5674 19.5704 13.2298 16.1441 13.3175L16.1186 12.3178C19.4449 12.2327 22.4186 11.5889 24.5334 10.6362C25.5918 10.1594 26.4122 9.61526 26.9564 9.04639C27.4986 8.47951 27.7412 7.91709 27.7275 7.38061Z" fill="black"/>
<path d="M27.7275 23.3655C27.7137 22.8292 27.4425 22.2806 26.8722 21.7423C26.2997 21.202 25.4525 20.7005 24.3711 20.2785C22.2104 19.4351 19.2076 18.9443 15.8813 19.0294C12.5552 19.1145 9.58209 19.7584 7.46744 20.711C6.40904 21.1878 5.58861 21.7319 5.04442 22.3008C4.50229 22.8676 4.25965 23.4292 4.27327 23.9656C4.29654 24.8748 5.07704 25.8317 6.70097 26.6436L6.47796 27.0909L6.25397 27.5382C4.54814 26.6853 3.31177 25.4828 3.2736 23.9912C3.25115 23.1096 3.65797 22.3027 4.32141 21.6091C4.98319 20.9173 5.92586 20.3086 7.05629 19.7993C9.31913 18.7799 12.4295 18.1174 15.8557 18.0297C19.282 17.942 22.423 18.4445 24.7351 19.347C25.8898 19.7977 26.8617 20.3576 27.5579 21.0146C28.2561 21.6733 28.7045 22.4582 28.7272 23.3399C28.7497 24.2217 28.342 25.0293 27.6784 25.723C27.0167 26.4146 26.0747 27.0236 24.9445 27.5328C22.6816 28.5522 19.5704 29.2147 16.1441 29.3024L16.1186 28.3027C19.4449 28.2176 22.4186 27.5738 24.5334 26.6211C25.5918 26.1443 26.4122 25.6001 26.9564 25.0313C27.4986 24.4644 27.7412 23.902 27.7275 23.3655Z" fill="black"/>
<path d="M14.5811 3.53881C16.2651 2.96542 17.6382 2.58595 19.171 2.42475L19.1976 2.42087L19.2235 2.42132C20.3902 2.42132 21.932 2.71591 23.3129 3.12728C24.0073 3.33416 24.6734 3.574 25.2435 3.82857C25.805 4.07936 26.3057 4.35863 26.6447 4.6534L26.7242 4.7233L26.7689 4.81844C27.1144 5.55488 27.0075 6.34026 26.634 7.07618C26.2649 7.80332 25.62 8.52185 24.8027 9.19967C23.164 10.5586 20.724 11.8439 18 12.7713C15.2674 13.7017 12.5643 14.0952 10.4239 13.9592C9.35504 13.8913 8.4001 13.6891 7.64698 13.3356C6.89315 12.9818 6.29879 12.4541 6.04864 11.7196C5.80222 10.9959 5.92331 10.2184 6.27447 9.4712C6.62507 8.72526 7.21982 7.97397 7.98966 7.25828C9.53099 5.82548 11.8438 4.47079 14.5811 3.53881ZM6.99527 11.3973C7.12958 11.7916 7.47131 12.1485 8.07229 12.4305C8.6741 12.7129 9.49362 12.8979 10.4864 12.961C12.4699 13.0871 15.0414 12.7223 17.6777 11.8247C20.3229 10.9241 22.6446 9.68983 24.164 8.42986C24.9256 7.7983 25.4587 7.18227 25.7423 6.62361C25.9976 6.12047 26.0336 5.70027 25.9023 5.34251C25.6674 5.1607 25.3061 4.95239 24.8355 4.74222C24.3132 4.50897 23.6895 4.28308 23.0275 4.08585C21.7059 3.69213 20.28 3.42582 19.2494 3.42143C17.8348 3.57284 16.5485 3.9253 14.9034 4.48544C12.2717 5.38147 10.0896 6.67123 8.67099 7.98983C7.961 8.64983 7.45919 9.3016 7.17958 9.8965C6.90051 10.4903 6.85731 10.9921 6.99527 11.3973Z" fill="black"/>
<path d="M14.5806 19.5237C16.2646 18.9503 17.6377 18.5708 19.1706 18.4096L19.1971 18.4057L19.223 18.4062C20.3897 18.4062 21.9315 18.7008 23.3124 19.1121C24.0068 19.319 24.6729 19.5589 25.243 19.8134C25.8045 20.0642 26.3052 20.3435 26.6442 20.6383L26.7237 20.7082L26.7684 20.8033C27.1139 21.5397 27.007 22.3251 26.6335 23.061C26.2644 23.7882 25.6196 24.5067 24.8022 25.1845C23.1635 26.5435 20.7235 27.8287 17.9995 28.7562C15.267 29.6866 12.5638 30.0801 10.4234 29.9441C9.35456 29.8761 8.39962 29.6739 7.6465 29.3205C6.89266 28.9667 6.2983 28.439 6.04815 27.7045C5.80173 26.9808 5.92283 26.2032 6.27398 25.4561C6.62458 24.7101 7.21933 23.9588 7.98918 23.2431C9.53051 21.8103 11.8433 20.4557 14.5806 19.5237ZM6.99479 27.3822C7.12909 27.7764 7.47082 28.1333 8.0718 28.4154C8.67361 28.6978 9.49313 28.8827 10.4859 28.9459C12.4694 29.072 15.0409 28.7072 17.6772 27.8096C20.3224 26.9089 22.6442 25.6747 24.1636 24.4147C24.9251 23.7832 25.4582 23.1671 25.7418 22.6085C25.9971 22.1053 26.0331 21.6851 25.9019 21.3274C25.6669 21.1456 25.3057 20.9373 24.835 20.7271C24.3127 20.4938 23.689 20.2679 23.027 20.0707C21.7054 19.677 20.2796 19.4107 19.2489 19.4063C17.8344 19.5577 16.5481 19.9102 14.9029 20.4703C12.2713 21.3663 10.0891 22.6561 8.6705 23.9747C7.96051 24.6347 7.4587 25.2865 7.17909 25.8814C6.90002 26.4751 6.85682 26.977 6.99479 27.3822Z" fill="black"/>
</g>
<defs>
<clipPath id="clip0_315_780">
<rect width="32" height="32" fill="white"/>
</clipPath>
</defs>
</svg>
