<svg width="32" height="32" viewBox="0 0 32 32" fill="none" xmlns="http://www.w3.org/2000/svg">
<rect width="32" height="32" fill="white"/>
<path fill-rule="evenodd" clip-rule="evenodd" d="M15.8943 22.0523C18.3709 21.9905 20.647 22.3455 22.3298 22.9869C23.1697 23.307 23.8865 23.7074 24.405 24.1851C24.9252 24.6644 25.277 25.2523 25.2947 25.9273C25.3123 26.6022 24.992 27.2069 24.4978 27.7115C24.005 28.2144 23.3101 28.6506 22.488 29.0123C20.8468 29.7343 18.6019 30.2007 16.1355 30.2652C14.6318 30.6389 13.1902 30.7891 11.987 30.7144C11.2085 30.6661 10.5035 30.5223 9.94016 30.2642C9.37648 30.0059 8.90834 29.6099 8.70969 29.0406C8.69024 28.9848 8.67555 28.9279 8.66184 28.8716C7.56214 28.2762 6.7366 27.4465 6.70872 26.3921C6.69104 25.7173 7.01051 25.1125 7.50462 24.608C7.99745 24.1049 8.69312 23.6689 9.51536 23.3072C11.1624 22.5826 13.4175 22.1142 15.8943 22.0523ZM18.3474 23.316C17.3482 23.4214 16.435 23.6644 15.2595 24.0552C13.3809 24.6799 11.8293 25.578 10.8259 26.4888C10.3239 26.9446 9.97667 27.3877 9.78587 27.7837C9.59548 28.1793 9.57719 28.4908 9.65891 28.7252C9.73691 28.9483 9.94206 29.1738 10.3523 29.3619C10.7632 29.5502 11.3341 29.6775 12.0378 29.7212C13.443 29.8085 15.2747 29.5554 17.1579 28.9293C19.0497 28.3003 20.7044 27.4406 21.781 26.5689C22.3211 26.1315 22.689 25.7128 22.8806 25.3443C23.0397 25.0382 23.0617 24.7999 23.0036 24.607C22.8479 24.4963 22.6131 24.3651 22.3034 24.23C21.9349 24.0693 21.4925 23.9131 21.0212 23.7759C20.0798 23.5021 19.0702 23.3198 18.3474 23.316ZM23.9929 25.2066C23.9489 25.4115 23.8757 25.6135 23.7751 25.8072C23.4974 26.3416 23.0168 26.8613 22.4216 27.3433C21.8312 27.8214 21.0994 28.2837 20.2732 28.7095C20.9434 28.5365 21.5525 28.3309 22.0837 28.0972C22.8352 27.7666 23.4085 27.3933 23.7829 27.0113C24.1555 26.6309 24.3029 26.2736 24.2947 25.9527C24.2885 25.717 24.1963 25.4665 23.9929 25.2066ZM14.9714 23.0972C12.9793 23.237 11.2172 23.651 9.91868 24.2222C9.16706 24.5529 8.59381 24.926 8.21946 25.3082C7.84685 25.6887 7.70031 26.0458 7.70872 26.3668C7.72001 26.796 8.02506 27.2802 8.71946 27.7437C8.76176 27.6099 8.81508 27.4773 8.87766 27.3472C9.14011 26.802 9.58077 26.2604 10.1423 25.7505C11.2673 24.7293 12.9483 23.77 14.9304 23.1109C14.944 23.1064 14.9579 23.1017 14.9714 23.0972Z" fill="black"/>
<path fill-rule="evenodd" clip-rule="evenodd" d="M15.8913 11.6402C18.4452 11.5765 20.7922 11.9422 22.5261 12.6031C23.3917 12.9331 24.1298 13.3463 24.6628 13.8375C25.1972 14.3301 25.5558 14.9329 25.574 15.6236C25.5919 16.3142 25.2654 16.9341 24.7575 17.4527C24.2509 17.9698 23.5354 18.4188 22.6882 18.7916C20.9971 19.5355 18.6827 20.015 16.1394 20.0816C14.5877 20.4677 13.1007 20.6244 11.8601 20.5474C11.058 20.4976 10.3324 20.3488 9.75364 20.0836C9.17436 19.8181 8.69586 19.4117 8.4929 18.8296C8.47252 18.7712 8.45731 18.7119 8.44309 18.6529C7.30599 18.039 6.45704 17.184 6.42844 16.1021C6.41034 15.4112 6.73766 14.7908 7.24583 14.272C7.7525 13.7549 8.46786 13.3059 9.31516 12.9332C11.0123 12.1866 13.3373 11.704 15.8913 11.6402ZM18.4226 12.9117C17.3891 13.0205 16.4454 13.2726 15.2312 13.6763C13.2912 14.3214 11.6884 15.2484 10.6511 16.19C10.1317 16.6615 9.77099 17.1205 9.57298 17.5318C9.37542 17.9423 9.35602 18.2672 9.44212 18.5142C9.52441 18.7502 9.74054 18.9859 10.1667 19.1812C10.5933 19.3766 11.1844 19.5081 11.9118 19.5533C13.3641 19.6434 15.2555 19.3823 17.1999 18.7359C19.1534 18.0864 20.8626 17.1976 21.9753 16.2964C22.5337 15.8443 22.915 15.4109 23.114 15.0279C23.2809 14.7066 23.3035 14.4554 23.24 14.2505C23.0779 14.1346 22.8331 13.9977 22.5105 13.857C22.1293 13.6908 21.6713 13.5289 21.1843 13.3873C20.2126 13.1046 19.1703 12.9157 18.4226 12.9117ZM24.2419 14.8443C24.1981 15.0656 24.1172 15.2835 24.0085 15.4927C23.7233 16.0413 23.2299 16.5744 22.6169 17.0709C21.9774 17.5888 21.1763 18.089 20.2702 18.5464C21.0193 18.3608 21.6974 18.1346 22.2839 17.8765C23.0607 17.5348 23.6545 17.1488 24.0427 16.7525C24.429 16.3581 24.5825 15.9856 24.574 15.649C24.5673 15.3942 24.4666 15.1233 24.2419 14.8443ZM15.07 12.6783C12.9588 12.8132 11.0891 13.2453 9.71848 13.8482C8.94184 14.1899 8.34886 14.576 7.96067 14.9722C7.57405 15.3669 7.41972 15.7399 7.42844 16.0767C7.44051 16.5305 7.76485 17.039 8.49583 17.522C8.54022 17.3778 8.59829 17.2354 8.66575 17.0953C8.93547 16.5349 9.3888 15.977 9.96751 15.4517C11.1265 14.3997 12.8586 13.4115 14.9021 12.732C14.9583 12.7133 15.0147 12.6964 15.07 12.6783Z" fill="black"/>
<path fill-rule="evenodd" clip-rule="evenodd" d="M15.8894 1.01519C18.4749 0.950632 20.8503 1.321 22.6052 1.9898C23.4815 2.32379 24.2273 2.74211 24.7663 3.23883C25.307 3.737 25.6709 4.34516 25.6892 5.04254C25.7073 5.73972 25.3757 6.36482 24.862 6.88922C24.3497 7.41215 23.6268 7.86741 22.7693 8.24469C21.0564 8.99815 18.7115 9.48551 16.1345 9.5523C14.5657 9.94221 13.0624 10.0999 11.8083 10.022C10.9964 9.97159 10.2617 9.82148 9.67649 9.55328C9.091 9.28487 8.60877 8.87383 8.40403 8.28668C8.38308 8.22657 8.36676 8.16577 8.35227 8.10504C7.20053 7.48371 6.34192 6.61874 6.31321 5.52594C6.29507 4.82892 6.62591 4.20359 7.13938 3.67926C7.65163 3.15635 8.37472 2.70107 9.23216 2.32379C10.9498 1.56812 13.3037 1.07983 15.8894 1.01519ZM18.4529 2.28961C17.4055 2.39987 16.4494 2.65509 15.2195 3.06402C13.2541 3.71756 11.6301 4.6576 10.5788 5.61187C10.0527 6.08956 9.68699 6.5549 9.48606 6.97223C9.28576 7.38852 9.26455 7.71919 9.35227 7.97125C9.43632 8.21231 9.65728 8.45175 10.0896 8.64996C10.5225 8.84838 11.1227 8.98211 11.8601 9.02789C13.3319 9.11921 15.2486 8.85373 17.2185 8.19879C19.1966 7.54102 20.928 6.64291 22.0554 5.73004C22.6212 5.27181 23.0076 4.83084 23.2097 4.44195C23.3796 4.11493 23.403 3.85858 23.3376 3.64898C23.173 3.53083 22.9246 3.39079 22.5964 3.24762C22.21 3.0791 21.7452 2.91562 21.2517 2.77203C20.2672 2.48566 19.211 2.29365 18.4529 2.28961ZM24.3415 4.23785C24.2979 4.46602 24.2163 4.69106 24.1042 4.9068C23.8159 5.46137 23.3166 6.00093 22.696 6.50348C22.0379 7.03636 21.2112 7.5511 20.2751 8.02008C21.0542 7.82959 21.7584 7.59592 22.3659 7.32867C23.1529 6.98241 23.7543 6.59105 24.1482 6.18902C24.5403 5.78865 24.6981 5.41023 24.6892 5.06695C24.6822 4.80383 24.5765 4.52501 24.3415 4.23785ZM15.1013 2.05035C12.9448 2.18394 11.0347 2.62466 9.63645 3.2398C8.84944 3.58607 8.24806 3.97742 7.85423 4.37945C7.46216 4.77984 7.30421 5.15824 7.31321 5.50152C7.32552 5.96564 7.65831 6.48388 8.40501 6.97516C8.45027 6.82643 8.50925 6.67929 8.57883 6.53473C8.85152 5.9684 9.31073 5.40509 9.89622 4.87359C11.0691 3.80901 12.8216 2.80755 14.8904 2.11969C14.9613 2.09609 15.0317 2.07306 15.1013 2.05035Z" fill="black"/>
</svg>
