<svg width="32" height="32" viewBox="0 0 32 32" fill="none" xmlns="http://www.w3.org/2000/svg">
<path fill-rule="evenodd" clip-rule="evenodd" d="M15.7942 23.376C18.4803 23.3459 20.9532 23.6612 22.7835 24.207C23.6953 24.479 24.4774 24.817 25.0491 25.2188C25.6111 25.6139 26.0581 26.1367 26.096 26.7842C26.1337 27.4316 25.7478 27.963 25.2327 28.3701C24.7086 28.7842 23.9681 29.1406 23.0891 29.4326C21.325 30.0187 18.8916 30.3879 16.2053 30.418C14.7608 30.4341 13.3784 30.3491 12.1243 30.1836C12.1197 30.1829 12.1152 30.1823 12.1106 30.1816C11.0384 30.0396 10.0602 29.839 9.21804 29.5879C8.3061 29.3159 7.52428 28.977 6.95242 28.5752C6.39031 28.1801 5.94264 27.6573 5.90457 27.0098C5.86687 26.3622 6.25264 25.83 6.76785 25.4229C7.29196 25.0088 8.03344 24.6543 8.91238 24.3623C10.6764 23.7763 13.1083 23.4061 15.7942 23.376ZM17.93 26.4131C17.1522 26.4679 16.4416 26.5946 15.5266 26.7979C14.0631 27.123 12.8561 27.5898 12.0784 28.0615C11.6872 28.2988 11.4261 28.5247 11.2884 28.7158C11.2206 28.81 11.1918 28.8839 11.1829 28.9346C11.1747 28.9819 11.1858 29.001 11.1858 29.001C11.1902 29.0061 11.2063 29.0218 11.2454 29.0459C12.011 29.1821 12.8487 29.2814 13.7376 29.3447C14.4446 29.3172 15.2344 29.2307 16.054 29.083V29.0693C16.0853 29.0688 16.1165 29.067 16.1477 29.0664C16.3622 29.0266 16.5789 28.9848 16.7962 28.9365C18.2692 28.6092 19.5561 28.1613 20.3919 27.709C20.8139 27.4806 21.0899 27.2671 21.2278 27.0898C21.2589 27.0498 21.2783 27.0146 21.2923 26.9863C21.2066 26.9553 21.1018 26.9202 20.9768 26.8838C20.6969 26.8022 20.3574 26.7212 19.9934 26.6504C19.268 26.5094 18.489 26.4153 17.93 26.4131ZM15.8518 24.374C13.239 24.4033 10.9125 24.7642 9.26785 25.3105C8.44306 25.5846 7.81695 25.8962 7.41238 26.2158C6.999 26.5424 6.89365 26.8124 6.90457 26.999C6.91568 27.1856 7.05255 27.4519 7.5032 27.7686C7.84151 28.0063 8.30939 28.2359 8.8948 28.4453C8.76311 28.2671 8.67096 28.0585 8.6614 27.8164C8.6411 27.2947 9.00579 26.9114 9.38113 26.6553C9.77788 26.3846 10.3258 26.1565 10.9612 25.9697C12.239 25.5941 13.9867 25.3514 15.9065 25.3193C17.8264 25.2873 19.5911 25.4712 20.8968 25.8037C21.5458 25.969 22.1102 26.1786 22.5276 26.4355C22.9227 26.6788 23.3185 27.0494 23.3391 27.5713C23.3517 27.8933 23.2166 28.1625 23.0237 28.3818C23.7058 28.1333 24.2326 27.8579 24.5882 27.5771C25.0008 27.251 25.1067 26.9814 25.096 26.7949C25.0849 26.6084 24.947 26.3411 24.4964 26.0244C24.055 25.7145 23.3937 25.4172 22.5384 25.1621C20.8318 24.6532 18.465 24.3448 15.8518 24.374ZM12.7971 26.5869C12.2259 26.681 11.7091 26.7966 11.263 26.9277C10.6742 27.1008 10.236 27.2949 9.95828 27.4844C9.82049 27.5784 9.73983 27.6593 9.69754 27.7197C9.67738 27.7486 9.66826 27.7703 9.66433 27.7822C9.66111 27.7923 9.66037 27.7977 9.66043 27.7998C9.66056 27.8024 9.66302 27.8193 9.68679 27.8545C9.71476 27.8958 9.76876 27.9551 9.86551 28.0264C9.96531 28.0999 10.0957 28.1755 10.2571 28.251C10.2811 28.2103 10.3081 28.1714 10.3352 28.1338C10.55 27.8358 10.902 27.5488 11.3382 27.2842C11.7403 27.0402 12.2336 26.8047 12.7971 26.5869ZM22.2874 27.502C22.2519 27.5695 22.2122 27.6337 22.1673 27.6914C22.0736 27.8119 21.9522 27.9282 21.8108 28.042C21.8969 27.996 21.9739 27.9502 22.0413 27.9043C22.1794 27.8101 22.2598 27.7275 22.302 27.667C22.3219 27.6384 22.3313 27.6183 22.3352 27.6064C22.3388 27.5957 22.3392 27.5899 22.3391 27.5879C22.339 27.5858 22.3384 27.5804 22.3343 27.5703C22.3294 27.5585 22.3176 27.538 22.2952 27.5098C22.293 27.507 22.2898 27.5048 22.2874 27.502Z" fill="black"/>
<path fill-rule="evenodd" clip-rule="evenodd" d="M15.7932 13.6152C18.59 13.5752 21.1665 13.9944 23.0755 14.7227C24.0285 15.0863 24.8405 15.5366 25.43 16.0664C26.0206 16.5974 26.4217 17.2419 26.4553 17.9756C26.4889 18.7094 26.1471 19.3648 25.6057 19.9121C25.0655 20.4581 24.2957 20.9309 23.3772 21.3213C21.5374 22.1032 19.0029 22.5957 16.2063 22.6357C13.4099 22.6757 10.8339 22.2564 8.92508 21.5283C7.97195 21.1647 7.15907 20.7145 6.56961 20.1846C5.97904 19.6536 5.57788 19.009 5.54422 18.2754C5.51073 17.5417 5.85256 16.8861 6.39383 16.3389C6.93408 15.7929 7.70478 15.3201 8.62332 14.9297C10.4631 14.1479 12.9969 13.6553 15.7932 13.6152ZM15.8391 14.6143C13.1382 14.653 10.7361 15.1296 9.03933 15.8506C8.18961 16.2117 7.53988 16.6248 7.11648 17.0527C6.69469 17.4793 6.5272 17.8873 6.54422 18.2607C6.5613 18.6342 6.76567 19.0372 7.22586 19.4512C7.68778 19.8664 8.37463 20.2594 9.25613 20.5957C9.53845 20.7034 9.83892 20.8031 10.1546 20.8965C10.0538 20.7897 9.96861 20.6701 9.90652 20.5342C9.49856 20.3555 9.14134 20.1499 8.86551 19.9092C8.52924 19.6155 8.26868 19.2321 8.2532 18.7676C8.2352 18.2187 8.56291 17.773 8.9739 17.4404C9.39226 17.1022 9.974 16.8149 10.6507 16.5791C12.0095 16.1056 13.8668 15.8001 15.9055 15.7598C17.9444 15.7194 19.8199 15.951 21.2083 16.3701C21.8995 16.5788 22.4986 16.8428 22.9387 17.1641C23.3713 17.4799 23.729 17.9119 23.7473 18.4609C23.7654 19.0102 23.436 19.4564 23.0247 19.7891C22.6064 20.1271 22.0262 20.4147 21.3499 20.6504C19.991 21.1239 18.1329 21.4284 16.094 21.4688L16.093 21.46C15.7417 21.5274 15.3945 21.5821 15.055 21.626C15.4177 21.6372 15.7867 21.6421 16.1604 21.6367C18.8617 21.598 21.2644 21.1206 22.9612 20.3994C23.8106 20.0384 24.4597 19.6271 24.8831 19.1992C25.3052 18.7725 25.4723 18.3638 25.4553 17.9902C25.4382 17.6166 25.2333 17.2139 24.7727 16.7998C24.3108 16.3846 23.6257 15.9906 22.7444 15.6543C20.9839 14.9827 18.5404 14.5756 15.8391 14.6143ZM17.9964 16.9072C17.1749 16.9759 16.4239 17.1346 15.4553 17.3896C13.9074 17.7973 12.6313 18.3833 11.8089 18.9746C11.3961 19.2714 11.1176 19.5543 10.969 19.7988C10.8176 20.048 10.835 20.1953 10.8655 20.2646C10.8907 20.3216 10.985 20.4407 11.3147 20.5605C11.6368 20.6775 12.0979 20.7615 12.677 20.79C13.8297 20.8467 15.3366 20.682 16.888 20.2734C18.4467 19.8629 19.808 19.3012 20.6917 18.7344C21.1368 18.4488 21.4308 18.1805 21.5794 17.9541C21.6601 17.8309 21.6823 17.7441 21.6839 17.6846C21.573 17.6307 21.4206 17.5663 21.2259 17.499C20.9276 17.396 20.5668 17.295 20.1809 17.2061C19.4114 17.0287 18.5868 16.9101 17.9964 16.9072ZM22.6409 18.2363C22.6017 18.3326 22.5539 18.4255 22.4973 18.5117C22.2592 18.8746 21.8549 19.2186 21.3645 19.5332C21.3094 19.5686 21.2507 19.6007 21.1927 19.6357C21.721 19.4372 22.1238 19.2239 22.3899 19.0088C22.6925 18.7641 22.7504 18.5825 22.7473 18.4814C22.7454 18.4237 22.7207 18.3408 22.6409 18.2363ZM13.5862 16.9385C12.5884 17.0734 11.7038 17.2749 10.9905 17.5234C10.3701 17.7397 9.90598 17.9811 9.60965 18.2207C9.30685 18.4657 9.24991 18.6472 9.2532 18.748C9.25614 18.8337 9.30432 18.9737 9.51785 19.1602C9.62676 19.2552 9.76771 19.3515 9.9407 19.4473C9.96985 19.3852 10.0019 19.3241 10.0374 19.2656C10.2623 18.8956 10.6348 18.5358 11.0989 18.2021C11.7367 17.7436 12.5887 17.3075 13.5862 16.9385Z" fill="black"/>
<path fill-rule="evenodd" clip-rule="evenodd" d="M15.7913 2.59766C18.6714 2.5518 21.3248 3.03956 23.2913 3.88574C25.2117 4.71217 26.6696 5.97535 26.7356 7.5752C26.8013 9.17517 25.449 10.4835 23.5989 11.3701C21.7045 12.2778 19.0943 12.8496 16.2141 12.8955C13.3341 12.9414 10.6806 12.4536 8.71414 11.6074C6.79354 10.7809 5.33555 9.51707 5.2698 7.91699C5.20441 6.31722 6.5566 5.00954 8.40652 4.12305C10.301 3.21538 12.9112 2.64355 15.7913 2.59766ZM15.8323 3.59766C13.0611 3.64181 10.5967 4.19259 8.85672 5.02637C7.07318 5.88116 6.23035 6.93417 6.2698 7.90137C6.30968 8.86866 7.23843 9.89347 9.09012 10.6904C9.45044 10.8455 9.83867 10.9881 10.2512 11.1172C10.0458 10.9448 9.87944 10.7342 9.78152 10.4775C9.77348 10.4564 9.76797 10.4342 9.76101 10.4131C9.33759 10.1998 8.96989 9.95352 8.68875 9.66992C8.3468 9.3249 8.10897 8.9009 8.095 8.41309C8.07877 7.83565 8.37911 7.33733 8.80398 6.94043C9.22941 6.54318 9.8232 6.20356 10.5178 5.92383C11.9119 5.36259 13.8169 5.00188 15.9055 4.9541C17.9941 4.90636 19.9168 5.18001 21.3411 5.67676C22.0512 5.92448 22.6649 6.23577 23.1126 6.61328C23.5596 6.99026 23.8868 7.47433 23.9036 8.05176C23.9201 8.62949 23.6206 9.12832 23.1956 9.52539C22.77 9.92298 22.175 10.2631 21.4798 10.543C20.0868 11.1037 18.1846 11.4635 16.0979 11.5117C15.386 11.6713 14.6908 11.7747 14.0384 11.8252C14.7261 11.8818 15.4403 11.9072 16.1731 11.8955C18.9442 11.8513 21.4078 11.3005 23.1477 10.4668C24.9319 9.61182 25.7754 8.55823 25.7356 7.59082C25.6955 6.62357 24.766 5.5996 22.9143 4.80273C21.1082 4.02558 18.6032 3.55353 15.8323 3.59766ZM18.0042 6.14746C17.1685 6.22819 16.4036 6.41413 15.4153 6.71484C13.838 7.19481 12.5381 7.88428 11.7005 8.58008C11.2807 8.9288 10.9959 9.26327 10.8421 9.55566C10.6878 9.84904 10.6879 10.0535 10.7386 10.1865C10.7851 10.3077 10.9187 10.4616 11.2522 10.6016C11.5845 10.7409 12.055 10.8386 12.6438 10.8721C13.8179 10.9387 15.3535 10.7448 16.9348 10.2637C18.5242 9.78006 19.9111 9.11981 20.8108 8.45312C21.2629 8.1181 21.5634 7.80245 21.7171 7.53223C21.8272 7.33837 21.846 7.19962 21.8264 7.09766C21.7057 7.02477 21.53 6.93848 21.3001 6.84668C20.9941 6.72456 20.6243 6.60504 20.2298 6.5C19.444 6.29082 18.6045 6.15126 18.0042 6.14746ZM22.7698 7.70312C22.7306 7.81743 22.6807 7.92888 22.6204 8.03516C22.3788 8.46054 21.9658 8.86703 21.4622 9.24023C21.2047 9.43103 20.9147 9.61668 20.5999 9.79883C20.775 9.74022 20.9428 9.67925 21.1018 9.61523C21.7319 9.36155 22.2054 9.07753 22.51 8.79297C22.8151 8.50801 22.9089 8.2649 22.9036 8.0752C22.9004 7.96594 22.862 7.84144 22.7698 7.70312ZM14.1927 6.0752C12.9078 6.22466 11.7745 6.49727 10.8968 6.85059C10.2666 7.1043 9.79323 7.38923 9.48855 7.67383C9.18384 7.9586 9.08972 8.201 9.095 8.39062C9.09963 8.55223 9.17709 8.746 9.39676 8.96777C9.50784 9.07984 9.65003 9.19248 9.82254 9.30371C9.85305 9.22717 9.88736 9.15171 9.92605 9.07812C10.1538 8.64523 10.5322 8.22061 11.0081 7.8252C11.7932 7.17301 12.8954 6.55724 14.1927 6.0752Z" fill="black"/>
<path fill-rule="evenodd" clip-rule="evenodd" d="M29.1936 0.0761719C29.3287 0.0764214 29.4581 0.131514 29.552 0.228516C29.6461 0.325849 29.6971 0.4575 29.6927 0.592773L28.6741 31.4404C28.6652 31.7098 28.4436 31.9236 28.1741 31.9238H3.82547C3.55583 31.9238 3.33442 31.7099 3.32547 31.4404L2.30691 0.592773C2.30244 0.457388 2.35335 0.325873 2.44754 0.228516C2.54172 0.131262 2.67152 0.0761719 2.80691 0.0761719H29.1936ZM4.30984 30.9238H27.6907L28.677 1.07617H3.32351L4.30984 30.9238Z" fill="black"/>
</svg>
