<svg width="32" height="32" viewBox="0 0 32 32" fill="none" xmlns="http://www.w3.org/2000/svg">
<g clip-path="url(#clip0_315_792)">
<rect width="32" height="32" fill="white"/>
<path d="M24.6891 5.06717C24.6801 4.72388 24.5025 4.35368 24.09 3.9734C23.6756 3.59158 23.0544 3.23079 22.2503 2.92429C20.6443 2.31217 18.4033 1.9527 15.9148 2.01488C13.4264 2.07709 11.2079 2.54797 9.6361 3.23948C8.84899 3.58576 8.24769 3.97701 7.85382 4.37908C7.4616 4.77955 7.30372 5.15799 7.31272 5.50134C7.32809 6.08483 7.8494 6.75485 9.06383 7.34782L8.62629 8.24673C7.33872 7.61806 6.34398 6.70442 6.31303 5.52632C6.29476 4.82907 6.62528 4.2034 7.13895 3.67894C7.65128 3.15595 8.37446 2.70082 9.23209 2.3235C10.9498 1.56783 13.3029 1.07986 15.8886 1.01522C18.4742 0.950618 20.8498 1.32053 22.6049 1.98937C23.4812 2.32336 24.2272 2.74176 24.7663 3.2385C25.3069 3.73668 25.6705 4.34481 25.6888 5.04219C25.707 5.73952 25.3757 6.3651 24.8619 6.88959C24.3496 7.41255 23.6264 7.86774 22.7688 8.24503C21.0511 9.00061 18.6979 9.4887 16.1123 9.55331L16.0861 8.55365C18.5746 8.49147 20.7939 8.02056 22.3657 7.32903C23.1527 6.98277 23.7542 6.59146 24.148 6.18943C24.5401 5.78904 24.6981 5.41046 24.6891 5.06717Z" fill="black"/>
<path d="M24.5737 15.6486C24.5649 15.3117 24.3916 14.9471 23.9848 14.5722C23.5763 14.1958 22.9637 13.8396 22.1699 13.5371C20.585 12.933 18.3734 12.5789 15.9168 12.6403C13.46 12.7017 11.2691 13.1657 9.71776 13.8482C8.9411 14.1899 8.34866 14.5763 7.96048 14.9726C7.57374 15.3673 7.41887 15.7401 7.4277 16.077C7.44292 16.6495 7.95494 17.3096 9.15364 17.8948L8.71512 18.7938C7.44337 18.1728 6.4588 17.2689 6.42801 16.102C6.40991 15.4111 6.73743 14.7912 7.24561 14.2724C7.75229 13.7552 8.4674 13.306 9.31475 12.9332C11.0119 12.1866 13.3366 11.7044 15.8906 11.6406C18.4446 11.5768 20.7915 11.9422 22.5255 12.6031C23.3912 12.9331 24.129 13.3461 24.662 13.8372C25.1966 14.3299 25.5553 14.9329 25.5734 15.6236C25.5914 16.3142 25.2647 16.9336 24.7568 17.4522C24.2501 17.9694 23.5349 18.4187 22.6876 18.7914C20.9905 19.5381 18.6658 20.0202 16.1118 20.084L16.0856 19.0844C18.5423 19.0229 20.7324 18.5589 22.2836 17.8764C23.0605 17.5347 23.6537 17.1484 24.0419 16.7521C24.4283 16.3576 24.5824 15.9853 24.5737 15.6486Z" fill="black"/>
<path d="M24.2945 25.9523C24.2861 25.6312 24.1196 25.2818 23.7272 24.9202C23.3333 24.5574 22.7418 24.2134 21.9739 23.9208C20.4401 23.3362 18.2991 22.9927 15.9198 23.0522C13.5403 23.1116 11.4193 23.5615 9.91809 24.222C9.16647 24.5527 8.59374 24.9256 8.21939 25.3077C7.84648 25.6884 7.69948 26.0457 7.70789 26.3667C7.72221 26.9124 8.21069 27.549 9.37146 28.1158L8.93389 29.0137C7.70005 28.4112 6.7381 27.532 6.7082 26.3917C6.69051 25.7167 7.01019 25.1122 7.50451 24.6076C7.9974 24.1044 8.69274 23.6687 9.51508 23.307C11.1621 22.5824 13.4168 22.1144 15.8936 22.0525C18.3703 21.9906 20.6466 22.3454 22.3294 22.9868C23.1694 23.3069 23.886 23.7076 24.4045 24.1853C24.9247 24.6646 25.2765 25.2523 25.2942 25.9273C25.3119 26.6023 24.9913 27.2068 24.4969 27.7115C24.0041 28.2144 23.3094 28.6504 22.4873 29.0121C20.8403 29.7366 18.5855 30.2046 16.1088 30.2665L16.0826 29.2668C18.4619 29.2074 20.5822 28.7574 22.0833 28.0971C22.8349 27.7664 23.4076 27.3934 23.782 27.0113C24.1549 26.6307 24.3029 26.2733 24.2945 25.9523Z" fill="black"/>
<path d="M14.8901 2.11989C16.159 1.69799 17.2006 1.41642 18.3652 1.29683L18.3909 1.29343L18.4169 1.29403C19.3097 1.29403 20.4809 1.51297 21.5247 1.81663C22.0505 1.96962 22.5562 2.14814 22.9907 2.33763C23.3634 2.50015 23.709 2.68184 23.9703 2.87835L24.0774 2.96313L24.1596 3.03255L24.2057 3.12936C24.4899 3.72079 24.3961 4.34355 24.1035 4.90649C23.8152 5.46112 23.3162 6.00087 22.6955 6.50347C21.45 7.51204 19.6026 8.45997 17.5468 9.14352C15.4822 9.82999 13.4348 10.1227 11.8076 10.0217C10.9957 9.97125 10.2615 9.82132 9.67633 9.55312C9.09074 9.2847 8.60809 8.87395 8.40334 8.28672C8.20257 7.71055 8.3054 7.10195 8.5784 6.53475C8.8511 5.96839 9.31012 5.4048 9.89566 4.87328C11.0685 3.80869 12.8213 2.80776 14.8901 2.11989ZM9.35227 7.97122C9.43634 8.21235 9.65695 8.45191 10.0895 8.65015C10.5225 8.84858 11.1219 8.98219 11.8593 9.02798C13.3311 9.11936 15.2476 8.85426 17.2176 8.19927C19.1959 7.54148 20.927 6.64272 22.0545 5.72977C22.6204 5.27151 23.0074 4.83118 23.2095 4.44227C23.3796 4.11502 23.4027 3.85833 23.3372 3.64865C23.1725 3.53047 22.9239 3.39116 22.5956 3.24796C22.2092 3.07944 21.7453 2.91534 21.2517 2.77176C20.2671 2.48533 19.211 2.29357 18.4528 2.28952C17.4053 2.39976 16.4493 2.65516 15.2193 3.06414C13.2538 3.71768 11.6294 4.65728 10.5781 5.61159C10.0519 6.08928 9.68667 6.55459 9.48573 6.97191C9.28526 7.38841 9.26447 7.71908 9.35227 7.97122Z" fill="black"/>
<path d="M14.9018 12.7319C16.155 12.3152 17.1841 12.0368 18.3348 11.9187L18.3605 11.9153L18.3866 11.9159C19.269 11.9159 20.426 12.1324 21.457 12.4324C21.9766 12.5835 22.4768 12.7593 22.9062 12.9466C23.2744 13.1072 23.616 13.2873 23.8746 13.4818L23.9805 13.566L24.0626 13.6354L24.1088 13.7322C24.3905 14.3185 24.2975 14.9354 24.0079 15.4924C23.7228 16.0411 23.2292 16.5741 22.6162 17.0706C21.3854 18.0673 19.5599 19.0047 17.5291 19.6799C15.4897 20.3579 13.4673 20.6471 11.8595 20.5472C11.0573 20.4974 10.3316 20.3492 9.7528 20.0839C9.17352 19.8184 8.69534 19.4119 8.49238 18.8298C8.29328 18.2587 8.39508 17.6562 8.66517 17.095C8.93489 16.5347 9.38844 15.9773 9.96714 15.452C11.1261 14.4 12.8581 13.4114 14.9018 12.7319ZM9.4413 18.5143C9.52357 18.7502 9.73976 18.9856 10.166 19.1809C10.5926 19.3764 11.1836 19.5084 11.9112 19.5535C13.3636 19.6437 15.2552 19.3822 17.1999 18.7356C19.1533 18.0861 20.8624 17.198 21.9751 16.2969C22.5335 15.8447 22.9149 15.4112 23.1139 15.0282C23.2809 14.7068 23.3034 14.4554 23.2399 14.2506C23.0778 14.1346 22.833 13.998 22.5102 13.8572C22.1289 13.691 21.6712 13.5292 21.1841 13.3875C20.2123 13.1048 19.1703 12.9154 18.4224 12.9114C17.3888 13.0202 16.4454 13.2724 15.231 13.6761C13.2908 14.3212 11.6879 15.2484 10.6505 16.19C10.131 16.6616 9.77048 17.1209 9.5725 17.5322C9.37494 17.9427 9.35521 18.2673 9.4413 18.5143Z" fill="black"/>
<path d="M14.9303 23.111C15.9936 22.7574 16.8912 22.5057 17.8472 22.3716L18.261 22.3215L18.287 22.319L18.3128 22.3187C19.17 22.3188 20.2926 22.5302 21.2924 22.8211C21.7965 22.9677 22.282 23.1379 22.699 23.3197C23.0049 23.4532 23.2928 23.6007 23.5275 23.7594L23.7435 23.9222L23.8257 23.9916L23.8718 24.0884C24.1475 24.6622 24.0561 25.2648 23.7742 25.8074C23.4965 26.3418 23.0165 26.8609 22.4213 27.3429C21.2267 28.3102 19.456 29.2189 17.4868 29.8736C15.5089 30.5312 13.5474 30.8113 11.9869 30.7144C11.2082 30.6661 10.5029 30.5224 9.93954 30.2643C9.37576 30.0059 8.90785 29.6097 8.70926 29.0403C8.51455 28.4818 8.61414 27.8935 8.87699 27.3473C9.13947 26.802 9.58057 26.2604 10.1423 25.7504C11.2674 24.7292 12.9481 23.7701 14.9303 23.111ZM9.65818 28.7247C9.73607 28.948 9.9413 29.1734 10.3518 29.3616C10.7628 29.55 11.3337 29.6773 12.0376 29.721C13.4428 29.8083 15.2743 29.5555 17.1576 28.9294C19.0493 28.3004 20.7037 27.4409 21.7803 26.5692C22.3206 26.1316 22.6889 25.7128 22.8805 25.3441C23.0397 25.0379 23.0611 24.7997 23.0029 24.6068C22.8472 24.4961 22.6126 24.3654 22.3029 24.2304C21.9343 24.0696 21.4918 23.9131 21.0204 23.7759C20.079 23.5021 19.0699 23.3196 18.3471 23.3157C17.3479 23.4212 16.4351 23.6644 15.2595 24.0552C13.3808 24.6799 11.8292 25.5775 10.8257 26.4885C10.3233 26.9445 9.97604 27.3879 9.78524 27.7842C9.59486 28.1797 9.57646 28.4904 9.65818 28.7247Z" fill="black"/>
</g>
<defs>
<clipPath id="clip0_315_792">
<rect width="32" height="32" fill="white"/>
</clipPath>
</defs>
</svg>
