<svg width="32" height="32" viewBox="0 0 32 32" fill="none" xmlns="http://www.w3.org/2000/svg">
<rect width="32" height="32" fill="white"/>
<path d="M29.958 6.81797C29.958 6.46878 29.7175 6.03375 29.0342 5.55333C28.3646 5.0826 27.3635 4.6378 26.0811 4.25645C23.5226 3.49566 19.9582 3.0182 16 3.01817C12.0417 3.01817 8.47652 3.49563 5.91797 4.25645C4.63561 4.6378 3.63439 5.0826 2.96484 5.55333C2.28156 6.03373 2.04102 6.4688 2.04102 6.81797V9.87559H1.04102V6.81797C1.04102 5.9799 1.6097 5.2833 2.38965 4.73497C3.18334 4.17697 4.29981 3.69512 5.63379 3.29844C8.3082 2.50323 11.9732 2.01817 16 2.01817C20.0268 2.0182 23.6919 2.50319 26.3662 3.29844C27.7 3.69508 28.8158 4.17706 29.6094 4.73497C30.3893 5.2833 30.958 5.9799 30.958 6.81797V9.87559H29.958V6.81797Z" fill="black"/>
<path d="M29.9443 9.80275C29.9436 7.62743 23.748 6.07814 16.0469 6.07814C8.34592 6.07818 2.05546 7.62747 2.05469 9.80275C2.05469 11.9103 7.91404 13.6318 15.2822 13.7373L16 13.7422C23.7014 13.7421 29.9443 11.9782 29.9443 9.80275ZM30.9443 9.80275C30.9443 10.8594 30.1956 11.6395 29.4043 12.168C28.5757 12.7213 27.4422 13.1806 26.1318 13.5508C23.4973 14.295 19.9155 14.7422 16 14.7422C12.0842 14.7422 8.50181 14.295 5.86719 13.5508C4.5568 13.1806 3.42328 12.7213 2.59473 12.168C1.80347 11.6395 1.05469 10.8593 1.05469 9.80275C1.05488 8.73297 1.82355 7.96636 2.62207 7.459C3.45765 6.92817 4.59786 6.49875 5.91113 6.15724C8.55315 5.47021 12.141 5.07816 16.0469 5.07814C19.9526 5.07814 23.5181 5.46962 26.1377 6.15724C27.44 6.4991 28.57 6.92948 29.3975 7.46193C30.1913 7.97271 30.9441 8.73979 30.9443 9.80275Z" fill="black"/>
</svg>
