<svg width="32" height="32" viewBox="0 0 32 32" fill="none" xmlns="http://www.w3.org/2000/svg">
<rect width="32" height="32" fill="white"/>
<path fill-rule="evenodd" clip-rule="evenodd" d="M16 2.01855C20.0268 2.01858 23.6919 2.50357 26.3662 3.29883C27.6999 3.69545 28.8158 4.17746 29.6094 4.73535C30.3892 5.28367 30.958 5.98035 30.958 6.81836V9.87598H30.9414C30.9078 10.8955 30.1772 11.6517 29.4043 12.168C28.5757 12.7213 27.4422 13.1806 26.1318 13.5508C23.4973 14.2949 19.9156 14.7422 16 14.7422C12.0842 14.7422 8.50181 14.295 5.86719 13.5508C4.5568 13.1806 3.42328 12.7213 2.59473 12.168C1.82188 11.6517 1.09127 10.8954 1.05762 9.87598H1.04102V6.81836C1.04102 5.98035 1.60979 5.28367 2.38965 4.73535C3.18332 4.17737 4.29985 3.6955 5.63379 3.29883C8.3082 2.50361 11.9732 2.01855 16 2.01855ZM16.0469 6.07812C8.34593 6.07817 2.05549 7.62746 2.05469 9.80273C2.05469 11.9103 7.91404 13.6318 15.2822 13.7373L16 13.7422C23.7014 13.7421 29.9443 11.9782 29.9443 9.80273C29.9435 7.62743 23.748 6.07812 16.0469 6.07812ZM16 3.01855C12.0417 3.01855 8.47652 3.49602 5.91797 4.25684C4.63566 4.63818 3.63438 5.083 2.96484 5.55371C2.2817 6.03406 2.04102 6.46921 2.04102 6.81836V7.8877C2.2251 7.7281 2.42278 7.58561 2.62207 7.45898C3.45765 6.92816 4.59787 6.49873 5.91113 6.15723C8.55315 5.4702 12.141 5.07815 16.0469 5.07812C19.9526 5.07812 23.5181 5.46961 26.1377 6.15723C27.44 6.49909 28.57 6.92947 29.3975 7.46191C29.5903 7.58602 29.7802 7.72593 29.958 7.88086V6.81836C29.958 6.4692 29.7174 6.03408 29.0342 5.55371C28.3646 5.08299 27.3634 4.63818 26.0811 4.25684C23.5226 3.49604 19.9582 3.01858 16 3.01855Z" fill="black"/>
</svg>
