<svg viewBox="0 0 32 32" xmlns="http://www.w3.org/2000/svg" xmlns:xlink="http://www.w3.org/1999/xlink" width="32.000000" height="32.000000" fill="none">
	<rect id="317_pot_nakl_krugl" width="32.000000" height="32.000000" x="0.000000" y="0.000000" />
	<path id="Icon" d="M0.22168 17.8672L0.22168 18.0876L0.239258 18.0876C0.271484 18.4453 0.321289 18.7998 0.387695 19.151L0.387695 19.1511C0.59082 20.2171 0.950195 21.2532 1.46777 22.2594C1.53223 22.3841 1.59766 22.5076 1.66602 22.63L1.66699 22.6319C2.46289 24.0592 3.53906 25.3304 4.89551 26.4455C4.99121 26.5249 5.08887 26.603 5.1875 26.68C6.5752 27.7664 8.14941 28.6156 9.9082 29.2276C10.3271 29.3733 10.75 29.5033 11.1777 29.6175L11.1777 29.6175C12.7295 30.0326 14.3369 30.2402 16.001 30.2402C17.6641 30.2402 19.2715 30.0326 20.8232 29.6176C21.251 29.5033 21.6738 29.3733 22.0928 29.2276C23.8516 28.6156 25.4258 27.7664 26.8135 26.68L26.8135 26.6799L26.8174 26.6773C26.9141 26.6012 27.0107 26.5239 27.1064 26.4455C28.4619 25.3304 29.5381 24.0592 30.334 22.6319L30.334 22.6318C30.4023 22.5088 30.4688 22.3847 30.5332 22.2594C31.0508 21.2532 31.4111 20.217 31.6133 19.151C31.6797 18.7998 31.7295 18.4453 31.7617 18.0876L31.7793 18.0876L31.7793 17.8712C31.7979 17.6032 31.8076 17.3333 31.8076 17.0617C31.8076 16.7898 31.7979 16.5204 31.7793 16.2534L31.7793 12.9306C31.7793 12.5615 31.752 12.1964 31.6982 11.8354L31.6982 11.8353L31.6982 11.8351C31.5371 10.7612 31.1387 9.72284 30.5 8.72023C29.6885 7.44503 28.5488 6.31763 27.082 5.33804C25.627 4.36686 23.9609 3.61542 22.084 3.08372C20.1445 2.53448 18.1172 2.25986 16 2.25986C13.8838 2.25986 11.8555 2.53448 9.91699 3.08372C8.04004 3.61542 6.37402 4.36686 4.91895 5.33804C3.45117 6.31763 2.3125 7.44502 1.50098 8.72023C0.862305 9.72281 0.462891 10.7611 0.302734 11.835L0.302734 11.8351L0.302734 11.8351L0.302734 11.8352C0.249023 12.1963 0.22168 12.5614 0.22168 12.9306L0.22168 16.2628C0.203125 16.5266 0.193359 16.793 0.193359 17.0617C0.193359 17.332 0.203125 17.6005 0.22168 17.8672ZM1.22168 17.8211L1.22168 16.3079C1.7002 9.98064 8.18262 5.54527 16.0508 5.54527C23.916 5.54527 30.3018 9.97624 30.7793 16.2985L30.7793 17.8249C30.2998 24.1953 23.8662 29.2402 16.001 29.2402C8.13281 29.2402 1.69824 24.1933 1.22168 17.8211ZM30.7568 12.3935C30.6855 12.246 30.6123 12.0995 30.5342 11.9539C30.4805 11.854 30.4258 11.7549 30.3701 11.6567C29.5732 10.2659 28.4844 9.04256 27.1035 7.98674C25.6611 6.88485 23.9961 6.03751 22.1064 5.44472C20.1943 4.84509 18.1758 4.54527 16.0508 4.54527C13.9258 4.54527 11.9023 4.84494 9.98145 5.44426C8.08203 6.03703 6.40527 6.8836 4.95215 7.98399C3.52148 9.06737 2.40039 10.3261 1.58984 11.7601L1.58984 11.7601C1.55469 11.8228 1.51953 11.8858 1.48535 11.9492C1.39941 12.1074 1.31836 12.2667 1.24121 12.4271C1.25 12.3205 1.26074 12.2142 1.27441 12.1083C1.40137 11.1282 1.75879 10.1778 2.34375 9.25711C3.08008 8.10046 4.12402 7.07134 5.47461 6.16976C6.8418 5.2569 8.41406 4.54893 10.1895 4.04586C12.0391 3.52186 13.9766 3.25986 16 3.25986C18.0244 3.25986 19.9619 3.52186 21.8115 4.04586C23.5869 4.54893 25.1592 5.2569 26.5264 6.16976C27.877 7.07134 28.9209 8.10046 29.6562 9.25711C30.2422 10.1778 30.5986 11.1283 30.7266 12.1085C30.7383 12.2032 30.749 12.2982 30.7568 12.3935ZM16 27.7869C14.5234 27.7869 13.1016 27.5945 11.7334 27.2095C11.5273 27.1514 11.3223 27.089 11.1182 27.0221C9.60352 26.5257 8.25977 25.8225 7.08496 24.9123C5.8916 23.9874 4.96484 22.9195 4.30371 21.7086C3.85645 20.8892 3.55273 20.0434 3.39258 19.1713C3.30371 18.685 3.25879 18.1905 3.25879 17.6878C3.25879 17.038 3.33398 16.4067 3.48535 15.7941C3.66113 15.0793 3.93945 14.3899 4.32031 13.7256C4.98633 12.5641 5.92578 11.5512 7.13672 10.6869C7.37793 10.515 7.62402 10.3517 7.875 10.1968L7.875 10.1968C10.1631 8.78774 12.8848 8.08322 16.04 8.08322C19.2051 8.08322 21.9268 8.79449 24.2031 10.217L24.2031 10.2171C24.4424 10.3667 24.6768 10.5242 24.9062 10.6895C26.1064 11.5537 27.0361 12.5673 27.6943 13.7304C28.0596 14.3744 28.3291 15.0424 28.5029 15.7343L28.5029 15.7344C28.6611 16.3656 28.7412 17.0167 28.7412 17.6878C28.7412 18.1903 28.6963 18.6847 28.6074 19.1709L28.6074 19.171L28.6074 19.1712C28.4473 20.0434 28.1436 20.8892 27.6963 21.7086C27.0352 22.9195 26.1084 23.9874 24.915 24.9123C23.7402 25.8225 22.3955 26.5258 20.8818 27.0221C20.6777 27.0888 20.4736 27.1511 20.2676 27.209L20.2656 27.2095C18.8984 27.5945 17.4756 27.7869 16 27.7869ZM27.7412 17.6878C27.7412 22.7131 22.4844 26.7869 16 26.7869C9.51562 26.7869 4.25879 22.7131 4.25879 17.6878C4.25879 12.6624 9.55566 9.08322 16.04 9.08322C22.5244 9.08322 27.7412 12.6624 27.7412 17.6878Z" fill="rgb(0,0,0)" fill-rule="evenodd" />
</svg>
