<svg width="32" height="32" viewBox="0 0 32 32" fill="none" xmlns="http://www.w3.org/2000/svg">
<rect width="32" height="32" fill="white"/>
<path d="M14.993 5.54084C16.8373 5.14563 18.755 5.25465 20.5428 5.85627L30.198 9.10627C31.6584 9.59774 31.5175 11.7071 30.0047 11.9998L17.7625 14.369C15.7954 14.7496 13.7649 14.6518 11.8435 14.0838L2.06523 11.1932C0.574418 10.7525 0.65565 8.61382 2.17558 8.28791L14.993 5.54084ZM20.2234 6.80451C18.606 6.2602 16.8716 6.16082 15.2029 6.51838L2.38554 9.26545C1.87882 9.37403 1.85147 10.0873 2.34843 10.2342L12.1277 13.1248C13.8952 13.6473 15.7625 13.7376 17.5721 13.3875L29.8152 11.0184C30.3189 10.9205 30.3659 10.2176 29.8797 10.0535L20.2234 6.80451Z" fill="black"/>
<path d="M0.992188 6.60483C0.992339 5.90637 1.47466 5.30082 2.15527 5.1439L14.7354 2.24546C16.6956 1.79385 18.7442 1.9149 20.6377 2.59409L30.2217 6.03159C30.8177 6.24537 31.2158 6.81054 31.2158 7.4437V10.5414H30.2158V7.4437C30.2158 7.23276 30.0832 7.04434 29.8848 6.973L20.2998 3.53452C18.5868 2.92015 16.7334 2.81152 14.96 3.22007L2.37988 6.11753C2.15304 6.16979 1.99234 6.37208 1.99219 6.60483V9.79038H0.992188V6.60483Z" fill="black"/>
</svg>
