<svg viewBox="0 0 56 56" xmlns="http://www.w3.org/2000/svg" xmlns:xlink="http://www.w3.org/1999/xlink" width="56.000000" height="56.000000" fill="none">
	<rect id="Icon/Luminaires/319_pot_nakl_toch 1" width="56.000000" height="56.000000" x="0.000000" y="0.000000" />
	<path id="Icon" d="M28 3.62598C30.2328 3.62598 32.2893 3.90048 33.8156 4.36426C34.5732 4.59454 35.2504 4.8855 35.757 5.24951C36.1945 5.56396 36.6406 6.03629 36.7253 6.67374L36.738 6.67374L36.738 6.81921C36.7391 6.84314 36.7396 6.86749 36.7396 6.89185L36.738 6.89185L36.7396 29.2904L36.7146 29.2904C36.7309 29.3817 36.7395 29.4765 36.7396 29.575C36.7396 30.3248 36.238 30.8661 35.7536 31.2107C35.2468 31.5711 34.5693 31.8595 33.8122 32.0874C32.2869 32.5463 30.2319 32.8171 28 32.8171C25.7678 32.8171 23.713 32.5463 22.1876 32.0874C21.4308 31.8597 20.7546 31.5709 20.2479 31.2107C19.7635 30.8661 19.2618 30.3248 19.2618 29.575C19.2618 29.4765 19.2706 29.3817 19.2868 29.2904L19.2618 29.2904L19.2618 6.67374L19.2762 6.67374C19.3609 6.03629 19.8071 5.56396 20.2446 5.24951C20.7512 4.8855 21.4285 4.59454 22.1859 4.36426C23.7121 3.90048 25.7673 3.62598 28 3.62598ZM21.0118 27.5045C21.3684 27.3377 21.7655 27.1918 22.1876 27.0647C23.713 26.6056 25.7678 26.335 28 26.335C30.2319 26.335 32.2869 26.6058 33.8122 27.0647C34.2347 27.1918 34.6324 27.3379 34.9896 27.5048L34.9896 6.91705C34.9764 6.89099 34.9227 6.80618 34.735 6.67139C34.4461 6.46375 33.9716 6.23965 33.3063 6.03735C31.9866 5.63617 30.1099 5.37598 28 5.37598C25.8907 5.37598 24.0148 5.63638 22.6953 6.03735C22.03 6.23965 21.5538 6.46375 21.2649 6.67139C21.0793 6.80469 21.0253 6.88907 21.0118 6.9162L21.0118 27.5045ZM22.6919 28.7412C24.0124 28.3439 25.8894 28.085 28 28.085C30.1105 28.085 31.9875 28.3439 33.3081 28.7412C33.974 28.9416 34.4494 29.1627 34.7385 29.3684C34.8731 29.4641 34.9371 29.5344 34.9674 29.575C34.9375 29.6158 34.8743 29.6871 34.7385 29.7837C34.4494 29.9894 33.974 30.2105 33.3081 30.4109C31.9875 30.8082 30.1103 31.0671 28 31.0671C25.8894 31.0671 24.0124 30.8082 22.6919 30.4109C22.0261 30.2105 21.5505 29.9894 21.2614 29.7837C21.1256 29.6869 21.0623 29.6156 21.0325 29.575C21.0626 29.5346 21.1268 29.4643 21.2614 29.3684C21.5505 29.1627 22.0261 28.9416 22.6919 28.7412Z" fill="rgb(0,0,0)" fill-rule="evenodd" />
</svg>
