<svg width="32" height="32" viewBox="0 0 32 32" fill="none" xmlns="http://www.w3.org/2000/svg">
<rect width="32" height="32" fill="white"/>
<path d="M12.0068 3.81362V16.7374H11.0068V3.81362H12.0068ZM20.9932 3.81362L20.9941 16.7374H19.9941V3.81362H20.9932Z" fill="black"/>
<path d="M16 2.072C17.2759 2.072 18.4511 2.2288 19.3232 2.49387C19.7561 2.62545 20.1431 2.79167 20.4326 2.99973C20.7103 3.19929 20.9941 3.51024 20.9941 3.93821H19.9941C19.9943 3.98825 20.0251 3.93905 19.8486 3.81223C19.6835 3.69357 19.4124 3.56547 19.0322 3.44993C18.2781 3.22072 17.2057 3.072 16 3.072C14.7947 3.07202 13.7228 3.22081 12.9688 3.44993C12.5886 3.56549 12.3165 3.69356 12.1514 3.81223C11.9752 3.93891 12.0066 3.98823 12.0068 3.93821H11.0068C11.0068 3.51022 11.2907 3.19929 11.5684 2.99973C11.8579 2.79171 12.2449 2.62542 12.6777 2.49387C13.5498 2.22884 14.7242 2.07202 16 2.072Z" fill="black"/>
<path d="M16 15.0486C17.2754 15.0486 18.4497 15.2034 19.3213 15.4656C19.7539 15.5958 20.1411 15.7606 20.4307 15.9666C20.7073 16.1634 20.9939 16.472 20.9941 16.9001C20.9941 17.3285 20.7075 17.6378 20.4307 17.8347C20.1411 18.0407 19.7539 18.2055 19.3213 18.3357C18.4497 18.5979 17.2754 18.7527 16 18.7527C14.7245 18.7527 13.5503 18.5979 12.6787 18.3357C12.2462 18.2056 11.8598 18.0406 11.5703 17.8347C11.2935 17.6378 11.0068 17.3285 11.0068 16.9001C11.007 16.472 11.2936 16.1634 11.5703 15.9666C11.8598 15.7607 12.2462 15.5957 12.6787 15.4656C13.5503 15.2033 14.7245 15.0486 16 15.0486ZM16 16.0486C14.794 16.0486 13.7214 16.1965 12.9668 16.4236C12.5864 16.5381 12.3146 16.6645 12.1494 16.782C12.0725 16.8368 12.0358 16.877 12.0186 16.9001C12.0356 16.9232 12.0718 16.964 12.1494 17.0193C12.3146 17.1368 12.5864 17.2632 12.9668 17.3777C13.7214 17.6047 14.794 17.7527 16 17.7527C17.2059 17.7527 18.2786 17.6047 19.0332 17.3777C19.4137 17.2632 19.6854 17.1368 19.8506 17.0193C19.9282 16.9641 19.9643 16.9233 19.9814 16.9001C19.9641 16.8769 19.9275 16.8367 19.8506 16.782C19.6854 16.6644 19.4137 16.5381 19.0332 16.4236C18.2786 16.1966 17.206 16.0486 16 16.0486Z" fill="black"/>
</svg>
