<svg width="32" height="32" viewBox="0 0 32 32" fill="none" xmlns="http://www.w3.org/2000/svg">
<rect width="32" height="32" fill="white"/>
<path d="M6.00684 3.84006V6.23849H5.00684V3.84006H6.00684ZM14.9932 3.84006L14.9941 6.23849H13.9941V3.84006H14.9932Z" fill="black"/>
<path d="M10 1.97433C11.2759 1.97433 12.4511 2.13113 13.3232 2.39621C13.7561 2.52778 14.1431 2.69401 14.4326 2.90207C14.7103 3.10162 14.9941 3.41258 14.9941 3.84055H13.9941C13.9943 3.89059 14.0251 3.84139 13.8486 3.71457C13.6835 3.59591 13.4124 3.46781 13.0322 3.35226C12.2781 3.12306 11.2057 2.97433 10 2.97433C8.79468 2.97435 7.72283 3.12315 6.96875 3.35226C6.58855 3.46782 6.31651 3.5959 6.15137 3.71457C5.97519 3.84125 6.00663 3.89056 6.00684 3.84055H5.00684C5.00684 3.41256 5.29066 3.10162 5.56836 2.90207C5.85794 2.69405 6.24493 2.52776 6.67773 2.39621C7.5498 2.13117 8.72421 1.97435 10 1.97433Z" fill="black"/>
<path d="M10 5.8288C10.3079 5.82881 10.6025 5.85623 10.833 5.9079C10.9442 5.93283 11.0683 5.96957 11.1768 6.02704C11.2305 6.05553 11.3046 6.10181 11.3711 6.1745C11.4402 6.25019 11.5225 6.38089 11.5225 6.55829H10.5225C10.5225 6.70393 10.591 6.80349 10.6328 6.8493C10.6709 6.89098 10.7042 6.90881 10.708 6.91083C10.7026 6.90874 10.6747 6.89704 10.6143 6.88348C10.4746 6.85218 10.257 6.82881 10 6.8288C9.74307 6.8288 9.52546 6.8522 9.38574 6.88348C9.3233 6.89748 9.29517 6.90924 9.29102 6.91083C9.29306 6.90974 9.32704 6.8921 9.36621 6.8493C9.40804 6.80349 9.47651 6.70393 9.47656 6.55829H8.47656C8.47656 6.38089 8.55882 6.25019 8.62793 6.1745C8.69448 6.10163 8.76942 6.05555 8.82324 6.02704C8.93174 5.9696 9.05583 5.93281 9.16699 5.9079C9.39759 5.85623 9.69202 5.8288 10 5.8288Z" fill="black"/>
<path d="M7.25647 14.7007L15.6399 24.5455L14.8785 25.1938L6.49512 15.349L7.25647 14.7007ZM14.0983 8.87452L22.4824 18.7187L21.7211 19.367L13.3376 9.52223L14.0983 8.87452Z" fill="black"/>
<path d="M9.08672 10.6911C10.0582 9.86385 11.0545 9.22133 11.8904 8.85771C12.3052 8.67728 12.7077 8.55292 13.063 8.5236C13.4038 8.4955 13.8215 8.54823 14.099 8.87406L13.3376 9.5224C13.3702 9.56036 13.3617 9.50296 13.1452 9.52082C12.9425 9.53755 12.653 9.61578 12.2887 9.77429C11.5659 10.0887 10.653 10.6708 9.73506 11.4524C8.8174 12.2339 8.09781 13.0421 7.67223 13.7055C7.45768 14.0399 7.3336 14.3138 7.28481 14.5112C7.2328 14.7219 7.28872 14.7391 7.25644 14.7009L6.49509 15.3492C6.21761 15.0233 6.23211 14.6026 6.31416 14.2706C6.39977 13.9245 6.58659 13.547 6.83082 13.1662C7.32294 12.3991 8.11541 11.5183 9.08672 10.6911Z" fill="black"/>
<path d="M17.4998 20.5711C18.4708 19.7442 19.4652 19.1008 20.2988 18.7353C20.7126 18.5539 21.1143 18.4284 21.4683 18.3975C21.8065 18.3679 22.2248 18.4171 22.5026 18.7429C22.7803 19.0691 22.7625 19.4904 22.6795 19.8198C22.5926 20.1643 22.4046 20.5409 22.1596 20.9205C21.666 21.6852 20.8723 22.5644 19.9013 23.3913C18.9302 24.2182 17.9359 24.8617 17.1023 25.2271C16.6887 25.4084 16.2875 25.5333 15.9336 25.5643C15.5952 25.5938 15.1764 25.5442 14.8987 25.2181C14.6212 24.892 14.6394 24.4712 14.7224 24.142C14.8093 23.7975 14.9966 23.4214 15.2415 23.0419C15.735 22.2772 16.5287 21.3981 17.4998 20.5711ZM18.1481 21.3325C17.23 22.1144 16.5092 22.9224 16.0819 23.5845C15.8665 23.9183 15.7416 24.1908 15.692 24.3873C15.6689 24.4789 15.6671 24.5333 15.669 24.5621C15.6969 24.5686 15.7509 24.5763 15.8458 24.568C16.0478 24.5504 16.3367 24.4704 16.7005 24.3109C17.4222 23.9946 18.3348 23.4118 19.253 22.6299C20.1711 21.848 20.8918 21.04 21.3192 20.3779C21.5347 20.044 21.6596 19.7717 21.7091 19.5751C21.7324 19.4827 21.7335 19.4283 21.7315 19.3995C21.7033 19.3931 21.6493 19.3862 21.5553 19.3944C21.3533 19.412 21.0645 19.4919 20.7006 19.6515C19.9789 19.9679 19.0663 20.5506 18.1481 21.3325Z" fill="black"/>
<path d="M9.47656 6.55811V11.5532H8.47656V6.55811H9.47656ZM11.5225 6.55811V9.7749H10.5225V6.55811H11.5225Z" fill="black"/>
<path d="M10 4.41025C11.2754 4.41025 12.4497 4.56504 13.3213 4.82724C13.7539 4.95742 14.1411 5.12225 14.4307 5.32822C14.7073 5.52505 14.9939 5.83366 14.9941 6.26181H13.9941C13.9941 6.31686 14.0285 6.27023 13.8506 6.14365C13.6854 6.02611 13.4137 5.89973 13.0332 5.78525C12.2786 5.55822 11.206 5.41025 10 5.41025C8.79403 5.41027 7.72139 5.5582 6.9668 5.78525C6.58643 5.89971 6.31461 6.02613 6.14941 6.14365C6.07365 6.19758 6.03714 6.23753 6.01953 6.26083C6.0255 6.26864 6.03158 6.28021 6.04297 6.29208C6.10174 6.35335 6.21302 6.43483 6.39551 6.52353C6.75797 6.69967 7.30714 6.85822 7.99707 6.96689L8.74512 7.04599L8.63965 8.04013L7.87207 7.95908L7.84668 7.95517C7.1024 7.8383 6.44424 7.65928 5.95801 7.42294C5.71572 7.30517 5.49131 7.1617 5.32129 6.98447C5.14908 6.80495 5.00684 6.56046 5.00684 6.26181C5.00704 5.83364 5.29362 5.52505 5.57031 5.32822C5.85979 5.12236 6.24623 4.95737 6.67871 4.82724C7.55031 4.56499 8.72452 4.41027 10 4.41025Z" fill="black"/>
<path d="M10.001 4.41025C8.72559 4.41025 7.5513 4.56504 6.67969 4.82724C6.24703 4.95742 5.85984 5.12225 5.57031 5.32822C5.29363 5.52505 5.00704 5.83366 5.00684 6.26181H6.00684C6.00684 6.31686 5.97246 6.27023 6.15039 6.14365C6.31562 6.02611 6.58728 5.89973 6.96777 5.78525C7.7224 5.55822 8.79502 5.41025 10.001 5.41025C11.2069 5.41027 12.2796 5.5582 13.0342 5.78525C13.4145 5.89971 13.6864 6.02613 13.8516 6.14365C13.9273 6.19758 13.9638 6.23753 13.9814 6.26083C13.9755 6.26864 13.9694 6.28021 13.958 6.29208C13.8992 6.35335 13.788 6.43483 13.6055 6.52353C13.243 6.69967 12.6938 6.85822 12.0039 6.96689L11.2559 7.04599L11.3613 8.04013L12.1289 7.95908L12.1543 7.95517C12.8986 7.8383 13.5567 7.65928 14.043 7.42294C14.2853 7.30517 14.5097 7.1617 14.6797 6.98447C14.8519 6.80495 14.9941 6.56046 14.9941 6.26181C14.9939 5.83364 14.7074 5.52505 14.4307 5.32822C14.1412 5.12236 13.7547 4.95737 13.3223 4.82724C12.4507 4.56499 11.2765 4.41027 10.001 4.41025Z" fill="black"/>
</svg>
