<svg width="32" height="32" viewBox="0 0 32 32" fill="none" xmlns="http://www.w3.org/2000/svg">
<rect width="32" height="32" fill="white"/>
<path d="M11.0234 15.4591V20.7013H10.0234V15.4591H11.0234ZM14.1025 15.4591V20.7013H13.1025V15.4591H14.1025Z" fill="black"/>
<path d="M15.8369 20.1589V21.1589H8.29004C8.05498 21.1589 7.86426 21.3204 7.86426 21.5193V21.5251C7.8646 21.7237 8.05519 21.8845 8.29004 21.8845H9.40039L9.40234 21.9236C9.43277 22.2307 9.68542 22.4705 9.99121 22.4705H11.3975C11.3974 22.474 11.3965 22.4776 11.3965 22.4812V22.8181C11.3965 23.1022 11.4695 23.3333 11.5596 23.3337H12.5654C12.6556 23.3337 12.7285 23.1024 12.7285 22.8181V22.4812C12.7285 22.4776 12.7276 22.474 12.7275 22.4705H14.1377C14.4561 22.4703 14.7143 22.2099 14.7266 21.8845H15.8369C16.0718 21.8845 16.2624 21.7237 16.2627 21.5251V21.5193C16.2627 21.3204 16.072 21.1589 15.8369 21.1589V20.1589C16.4615 20.1589 17.2627 20.6184 17.2627 21.5193V21.5271C17.261 22.4279 16.4594 22.8845 15.8369 22.8845H15.3633C15.0773 23.2374 14.6438 23.47 14.1387 23.4705H13.6387C13.6373 23.4749 13.6362 23.4797 13.6348 23.4841C13.6026 23.5858 13.5425 23.7403 13.4297 23.8913C13.3301 24.0246 13.0491 24.3337 12.5654 24.3337H11.5547C11.0728 24.3314 10.7931 24.0228 10.6943 23.8904C10.5822 23.74 10.5234 23.5858 10.4912 23.4841C10.4898 23.4798 10.4886 23.4748 10.4873 23.4705H9.99121C9.48826 23.4705 9.05353 23.2378 8.76562 22.8845H8.29004C7.66756 22.8845 6.86594 22.4279 6.86426 21.5271V21.5193C6.86426 20.6184 7.66542 20.1589 8.29004 20.1589H15.8369Z" fill="black"/>
<path d="M7.24414 3.18933L4.26562 15.3202L3.29492 15.0819L6.27246 2.95105L7.24414 3.18933ZM20.8311 15.0819L19.8604 15.3202L16.8818 3.18933L17.8535 2.95105L20.8311 15.0819Z" fill="black"/>
<path d="M12.0703 1.6131C13.5681 1.61313 14.9391 1.74145 15.9482 1.95587C16.4485 2.06219 16.8865 2.19577 17.2119 2.35919C17.3738 2.44052 17.5339 2.54159 17.6592 2.67169C17.7863 2.80375 17.9071 2.99798 17.9072 3.24689H16.9072C16.9072 3.31259 16.9303 3.35303 16.9385 3.36505C16.9213 3.34734 16.871 3.3067 16.7637 3.25275C16.549 3.14489 16.2055 3.03326 15.7402 2.93439C14.8178 2.73838 13.5199 2.61313 12.0703 2.6131C10.6205 2.6131 9.32197 2.73836 8.39941 2.93439C7.93415 3.03326 7.59067 3.14489 7.37598 3.25275C7.26865 3.3067 7.21835 3.34734 7.20117 3.36505C7.20937 3.35303 7.23242 3.31259 7.23242 3.24689H6.23242C6.23253 2.99798 6.35331 2.80375 6.48047 2.67169C6.60576 2.54159 6.76584 2.44052 6.92773 2.35919C7.2531 2.19577 7.69111 2.06219 8.19141 1.95587C9.20061 1.74143 10.5723 1.6131 12.0703 1.6131Z" fill="black"/>
<path d="M12.9658 14.1216C17.3857 14.1698 20.8349 14.5707 20.8359 15.0582C20.8359 15.5782 16.9115 15.9995 12.0703 15.9996L11.1738 15.9947C6.75333 15.9465 3.30371 15.5457 3.30371 15.0582C3.30482 14.5382 7.22961 14.1167 12.0703 14.1167L12.9658 14.1216Z" fill="black"/>
<path d="M19.9051 23.0107C21.1662 22.9882 21.904 23.9767 22.1023 24.3076L21.6726 24.5644L21.2439 24.8212C21.0923 24.5685 20.6226 23.9984 19.9236 24.0107C19.2616 24.0225 18.6499 24.6006 18.3836 25.5693C18.2021 26.2292 17.8239 27.2166 17.2674 28.0517C16.7285 28.8602 15.9178 29.6777 14.8377 29.6777C14.2539 29.6777 13.7221 29.5483 13.2615 29.2734C12.8009 28.9984 12.44 28.5942 12.1707 28.0888C11.6408 27.0942 11.4531 25.6822 11.5398 23.9384L12.0388 23.9628L12.5388 23.9882C12.4554 25.6672 12.6493 26.8622 13.0525 27.6191C13.2498 27.9893 13.4929 28.2471 13.7742 28.415C14.0557 28.583 14.4041 28.6777 14.8377 28.6777C15.3854 28.6777 15.9352 28.2474 16.4353 27.497C16.9176 26.7734 17.2573 25.8908 17.4187 25.3037C17.7419 24.1282 18.6067 23.0341 19.9051 23.0107Z" fill="black"/>
<path d="M22.3525 24.3478C22.3525 24.7229 22.0485 25.027 21.6733 25.027C21.2982 25.027 20.9941 24.7229 20.9941 24.3478C20.9941 23.9727 21.2982 23.6686 21.6733 23.6686C22.0485 23.6686 22.3525 23.9727 22.3525 24.3478Z" fill="black"/>
<path d="M24.999 24.4792C24.999 22.3385 23.5785 20.918 22.1816 20.9177C20.7846 20.9177 19.3633 22.3383 19.3633 24.4792C19.3634 26.62 20.7847 28.0407 22.1816 28.0407V29.0407L21.9844 29.0348C20.0323 28.9164 18.467 27.0458 18.3682 24.7136L18.3633 24.4792C18.3633 21.96 20.0731 19.9177 22.1816 19.9177L22.3779 19.9235C24.395 20.0459 25.999 22.0389 25.999 24.4792L25.9941 24.7136C25.892 27.1235 24.2241 29.0404 22.1816 29.0407V28.0407C23.5784 28.0404 24.9989 26.6197 24.999 24.4792Z" fill="black"/>
<path d="M26.9502 24.4792C26.9502 21.682 25.0292 19.6803 22.9639 19.6803C20.8986 19.6803 18.9775 21.682 18.9775 24.4792C18.9776 27.2762 20.8986 29.278 22.9639 29.278V30.278L22.707 30.2702C20.1574 30.1198 18.1135 27.7421 17.9844 24.777L17.9775 24.4792C17.9775 21.2767 20.21 18.6803 22.9639 18.6803C25.7177 18.6803 27.9502 21.2767 27.9502 24.4792L27.9434 24.777C27.81 27.841 25.6318 30.278 22.9639 30.278V29.278C25.0291 29.278 26.9501 27.2762 26.9502 24.4792Z" fill="black"/>
</svg>
