<svg viewBox="0 0 56 56" xmlns="http://www.w3.org/2000/svg" xmlns:xlink="http://www.w3.org/1999/xlink" width="56.000000" height="56.000000" fill="none">
	<rect id="Icon/Luminaires/322_nas_nakl_lin 1" width="56.000000" height="56.000000" x="0.000000" y="0.000000" />
	<path id="Icon" d="M29.7313 31.8657L31.4214 32.0794L31.5326 32.0794L31.5326 1.7312L33.2826 1.7312L33.2826 32.2947C36.5964 33.103 39.0569 36.0911 39.0572 39.6536C39.0567 43.2157 36.596 46.2021 33.2826 47.0108L33.2826 54.2551L31.5326 54.2551L31.5326 47.2278C31.5154 47.228 31.4983 47.2295 31.4813 47.2295C30.9066 47.2295 30.3478 47.1611 29.8099 47.0398L29.7313 47.0295L29.7313 54.2551L27.9813 54.2551L27.9813 46.809L23.208 46.2058C19.4486 45.7308 16.6291 42.5336 16.6284 38.7443C16.6284 34.216 20.6003 30.7137 25.0931 31.2812L27.9813 31.6453L27.9813 1.7312L29.7313 1.7312L29.7313 31.8657ZM31.4813 33.8294C28.2648 33.8296 25.6573 36.4371 25.6569 39.6536C25.6575 42.8699 28.2648 45.4792 31.4813 45.4795C34.698 45.4795 37.3067 42.8701 37.3072 39.6536C37.3069 36.4369 34.698 33.8294 31.4813 33.8294ZM24.8743 33.0176C21.4268 32.582 18.3785 35.2695 18.3785 38.7443C18.379 41.6517 20.5422 44.1067 23.4267 44.4712L25.91 44.7839C24.6668 43.4345 23.9073 41.6327 23.9069 39.6536C23.9073 37.0085 25.2635 34.6797 27.3182 33.3252L24.8743 33.0176Z" fill="rgb(0,0,0)" fill-rule="nonzero" />
</svg>
