<svg width="32" height="32" viewBox="0 0 32 32" fill="none" xmlns="http://www.w3.org/2000/svg">
<rect width="32" height="32" fill="white"/>
<path d="M27.0457 16.0005C27.0457 12.8619 26.1708 10.0638 24.8084 8.07857C23.4428 6.08874 21.6575 4.99655 19.8075 4.99651C17.9575 4.99651 16.1722 6.0887 14.8066 8.07857C13.4442 10.0638 12.5693 12.8618 12.5693 16.0005C12.5694 19.1392 13.4441 21.9372 14.8066 23.9224C16.1722 25.9122 17.9576 27.0035 19.8075 27.0035V28.0035L19.5946 27.9996C15.2845 27.8404 11.7971 22.8577 11.5801 16.6177L11.5693 16.0005C11.5693 9.3711 15.2578 3.99651 19.8075 3.99651L20.0204 4.00041C24.4717 4.16502 28.0457 9.47486 28.0457 16.0005L28.0349 16.6177C27.8143 22.96 24.2151 28.0034 19.8075 28.0035V27.0035C21.6574 27.0035 23.4428 25.9122 24.8084 23.9224C26.1709 21.9372 27.0456 19.1392 27.0457 16.0005Z" fill="black"/>
<path d="M8.56152 16.0041C8.56152 12.7544 9.35513 9.78778 10.665 7.61737C11.9692 5.45658 13.8402 4.00915 15.999 4.00897H19.3916V5.00897H15.999C14.3265 5.00915 12.7282 6.13473 11.5215 8.13397C10.3204 10.1239 9.56152 12.9054 9.56152 16.0041C9.56155 19.1025 10.3206 21.8834 11.5215 23.8732C12.7282 25.8725 14.3265 26.999 15.999 26.9992H19.3916V27.9992H15.999C13.8402 27.999 11.9692 26.5516 10.665 24.3908C9.35508 22.2204 8.56155 19.2538 8.56152 16.0041Z" fill="black"/>
<path d="M3.4541 16.0041C3.4541 12.7593 4.20153 9.79655 5.43555 7.62811C6.66129 5.47436 8.43187 4.00897 10.4961 4.00897H15.8057V5.00897H10.4961C8.9476 5.00897 7.44652 6.11679 6.30469 8.12323C5.17116 10.1151 4.4541 12.9005 4.4541 16.0041C4.45413 19.1077 5.17115 21.8931 6.30469 23.8849C7.44651 25.8913 8.94764 26.9992 10.4961 26.9992H15.8057V27.9992H10.4961C8.43179 27.9992 6.66129 26.533 5.43555 24.3791C4.20161 22.2107 3.45413 19.2487 3.4541 16.0041Z" fill="black"/>
<path d="M6.96582 16C6.96582 16.347 6.73409 16.6282 6.44824 16.6282C6.16239 16.6282 5.93066 16.347 5.93066 16C5.93066 15.653 6.16239 15.3718 6.44824 15.3718C6.73409 15.3718 6.96582 15.653 6.96582 16Z" fill="black"/>
</svg>
