<svg viewBox="0 0 56 56" xmlns="http://www.w3.org/2000/svg" xmlns:xlink="http://www.w3.org/1999/xlink" width="56.000000" height="56.000000" fill="none">
	<rect id="Icon/Luminaires/325_nas_nakl_toch_pov 1" width="56.000000" height="56.000000" x="0.000000" y="0.000000" />
	<path id="Icon" d="M35.9241 14.3478C34.8233 13.1934 33.1675 11.9433 31.2233 10.8452C29.2792 9.74744 27.3548 8.97583 25.7978 8.62912C25.0251 8.45715 24.2923 8.37747 23.672 8.4454C23.0771 8.51056 22.377 8.73999 22.0088 9.39218L22.0094 9.3924L10.8827 29.0951L10.883 29.0953C10.8734 29.1111 10.864 29.1269 10.8548 29.1434C10.4862 29.7962 10.6569 30.514 10.9093 31.0523C11.1732 31.6152 11.6201 32.199 12.1671 32.7696C13.2696 33.9191 14.9257 35.1654 16.8693 36.2632C18.8126 37.3606 20.7353 38.1354 22.289 38.4857C23.0604 38.6598 23.7923 38.7417 24.4107 38.6771C25.0019 38.6152 25.7048 38.3907 26.0735 37.7378C26.0827 37.7216 26.0916 37.7052 26.1001 37.6887L26.1014 37.6896L32.9628 25.5376L40.1721 25.5383L40.2705 26.4703L40.2773 26.5147C40.4819 27.8172 40.7952 28.9688 41.2088 29.8199C41.4149 30.2439 41.666 30.6366 41.9761 30.9342C42.2902 31.2356 42.7181 31.4845 43.2408 31.4845C43.2545 31.4845 43.2682 31.4842 43.2817 31.4838L43.2817 31.4845L47.4791 31.4827L47.4791 31.4845C48.2279 31.4845 48.7722 30.9878 49.1212 30.5018C49.4855 29.9951 49.7763 29.3179 50.0066 28.5604C50.4705 27.034 50.7449 24.9775 50.7449 22.7447C50.7449 20.5121 50.4704 18.4569 50.0066 16.9307C49.7763 16.1732 49.4855 15.496 49.1212 14.9893C48.7722 14.5033 48.2279 14.0067 47.4791 14.0067L43.2817 14.0067L43.2817 14.0071L43.2724 14.0069C43.2619 14.0069 43.2514 14.0067 43.2408 14.0067C42.7181 14.0067 42.2902 14.2555 41.9761 14.557C41.666 14.8545 41.4149 15.2472 41.2088 15.6712C40.7952 16.5221 40.4819 17.6739 40.2773 18.9764L40.2705 19.0208L40.1452 20.2081L35.9718 20.2084L37.2265 17.9862L37.2273 17.9867C37.5957 17.3345 37.4309 16.6165 37.1794 16.0735C36.9173 15.5071 36.4705 14.921 35.9241 14.3478ZM35.7042 17.1264L35.7037 17.1262C35.7007 17.1313 35.6984 17.136 35.6966 17.1399L35.7042 17.1264ZM35.6912 17.1495C35.6928 17.1224 35.6891 17.0224 35.5902 16.809C35.4408 16.486 35.1379 16.0574 34.658 15.5544C33.7062 14.5561 32.1999 13.4066 30.3628 12.369C28.526 11.3319 26.7648 10.6363 25.4186 10.3364C24.7397 10.1854 24.2149 10.1465 23.8612 10.1852C23.638 10.2097 23.5487 10.2554 23.5219 10.273L13.3974 28.2009C13.7898 28.231 14.2071 28.2991 14.637 28.3961C16.1908 28.7464 18.1132 29.521 20.0567 30.6186C22.0003 31.7162 23.6565 32.9627 24.7589 34.1122C25.0645 34.431 25.3392 34.7537 25.5682 35.0748L35.6912 17.1495ZM34.9837 21.9586L33.9509 23.7876L41.8093 23.7885C41.8462 23.5513 41.8702 23.2362 41.868 22.8774C41.8657 22.514 41.837 22.1957 41.7964 21.9581L34.9837 21.9586ZM41.9044 20.2081L42.33 20.2081L42.33 20.2084C42.6379 20.2081 42.8656 20.3498 42.9979 20.4692C43.1262 20.5848 43.2076 20.7153 43.2582 20.8093C43.3599 20.9985 43.4257 21.2154 43.4705 21.4096C43.5634 21.8124 43.6147 22.3275 43.618 22.8665C43.6213 23.4052 43.5765 23.9209 43.4886 24.3251C43.4463 24.5199 43.3833 24.7374 43.2839 24.9277C43.2347 25.0224 43.1544 25.1524 43.0281 25.2695C42.8963 25.3913 42.6684 25.5368 42.358 25.5387L42.353 24.7408L42.3533 25.5385L41.9314 25.5385L42.0068 26.2515C42.1971 27.4589 42.4745 28.42 42.7828 29.0543C42.938 29.3736 43.0805 29.5683 43.1877 29.6712C43.2086 29.6911 43.2289 29.7018 43.2425 29.7122C43.2581 29.7003 43.278 29.6838 43.3018 29.6603C43.3402 29.6219 43.389 29.5655 43.4475 29.4832C43.6532 29.1942 43.8744 28.7187 44.0747 28.0528C44.4719 26.7326 44.7307 24.8562 44.731 22.7464L44.731 22.7447C44.7307 20.635 44.4719 18.7585 44.0747 17.4383C43.8744 16.7724 43.6532 16.2971 43.4475 16.0079C43.3877 15.9237 43.338 15.8667 43.2995 15.8284C43.2766 15.8062 43.2576 15.7902 43.2425 15.7789C43.2289 15.7893 43.2086 15.8 43.1877 15.8199C43.0805 15.9226 42.938 16.1175 42.7828 16.4368C42.4745 17.0711 42.1971 18.0322 42.0068 19.2396L41.9044 20.2081ZM47.4548 15.7567L45.3114 15.7567C45.4782 16.1132 45.6242 16.5103 45.7513 16.9324C46.2102 18.4577 46.481 20.5126 46.481 22.7447L46.481 22.7464C46.481 24.9786 46.2102 27.0334 45.7513 28.5587C45.6242 28.9808 45.4782 29.3779 45.3115 29.7345L47.4538 29.7345C47.4799 29.7212 47.5646 29.6674 47.6994 29.4798C47.9071 29.1908 48.1313 28.7163 48.3334 28.0511C48.7345 26.7313 48.9949 24.8547 48.9949 22.7447C48.9949 20.6354 48.7345 18.7596 48.3334 17.44C48.1313 16.7746 47.9071 16.2986 47.6994 16.0096C47.5662 15.8242 47.4819 15.7701 47.4548 15.7567ZM42.3356 21.9584L42.3106 21.9581L42.331 21.9581L42.3306 21.1466L42.3356 21.9584ZM14.2515 30.1038C15.5968 30.4072 17.3586 31.1048 19.1963 32.1426C21.0339 33.1804 22.541 34.3288 23.4957 35.3241C23.9768 35.8259 24.2821 36.2525 24.4326 36.5738C24.5028 36.7231 24.5239 36.8161 24.5304 36.8665C24.4844 36.8868 24.3943 36.918 24.2285 36.9353C23.8756 36.9722 23.3528 36.931 22.6745 36.778C21.3293 36.4745 19.5674 35.777 17.7298 34.7392C15.8922 33.7014 14.3849 32.553 13.4305 31.5575C12.9494 31.0559 12.644 30.6293 12.4934 30.308C12.4226 30.157 12.4026 30.0639 12.3965 30.0139C12.4427 29.9936 12.5332 29.9639 12.6976 29.9466C13.0504 29.9096 13.5735 29.9509 14.2515 30.1038Z" fill="rgb(0,0,0)" fill-rule="evenodd" />
</svg>
