<svg width="32" height="32" viewBox="0 0 32 32" fill="none" xmlns="http://www.w3.org/2000/svg">
<rect width="32" height="32" fill="white"/>
<path d="M27.1309 9.00374L24.7324 9.00374L24.7324 8.00374L27.1309 8.00374L27.1309 9.00374ZM27.1309 17.9901L24.7324 17.991L24.7324 16.991L27.1309 16.991L27.1309 17.9901Z" fill="black"/>
<path d="M28.9971 12.9969C28.9971 14.2728 28.8403 15.448 28.5752 16.3201C28.4436 16.753 28.2774 17.14 28.0693 17.4295C27.8698 17.7072 27.5588 17.991 27.1309 17.991L27.1309 16.991C27.0808 16.9912 27.13 17.022 27.2568 16.8455C27.3755 16.6804 27.5036 16.4093 27.6191 16.0291C27.8483 15.275 27.9971 14.2026 27.9971 12.9969C27.9971 11.7916 27.8483 10.7197 27.6191 9.96565C27.5036 9.58545 27.3755 9.31341 27.2568 9.14827C27.1302 8.97209 27.0808 9.00353 27.1309 9.00374L27.1309 8.00374C27.5588 8.00374 27.8698 8.28756 28.0693 8.56526C28.2774 8.85485 28.4436 9.24183 28.5752 9.67464C28.8402 10.5467 28.9971 11.7211 28.9971 12.9969Z" fill="black"/>
<path d="M26.5605 12.9969C26.5605 14.2723 26.4058 15.4466 26.1436 16.3182C26.0134 16.7508 25.8485 17.138 25.6426 17.4276C25.4457 17.7043 25.1371 17.9908 24.709 17.991L24.709 16.991C24.6539 16.991 24.7006 17.0254 24.8271 16.8475C24.9447 16.6823 25.0711 16.4106 25.1855 16.0301C25.4126 15.2755 25.5605 14.2029 25.5605 12.9969C25.5605 11.7909 25.4126 10.7183 25.1855 9.9637C25.0711 9.58333 24.9447 9.31151 24.8271 9.14632C24.7732 9.07055 24.7333 9.03404 24.71 9.01643C24.7022 9.0224 24.6906 9.02849 24.6787 9.03987C24.6174 9.09864 24.536 9.20992 24.4473 9.39241C24.2711 9.75487 24.1126 10.304 24.0039 10.994L23.9248 11.742L22.9307 11.6366L23.0117 10.869L23.0156 10.8436C23.1325 10.0993 23.3115 9.44114 23.5479 8.95491C23.6656 8.71262 23.8091 8.48821 23.9863 8.31819C24.1658 8.14598 24.4103 8.00374 24.709 8.00374C25.1372 8.00394 25.4457 8.29052 25.6426 8.56721C25.8484 8.8567 26.0134 9.24314 26.1436 9.67561C26.4058 10.5472 26.5605 11.7214 26.5605 12.9969Z" fill="black"/>
<path d="M26.5605 12.9979C26.5605 11.7225 26.4058 10.5482 26.1436 9.67659C26.0134 9.24393 25.8485 8.85675 25.6426 8.56721C25.4457 8.29053 25.1371 8.00394 24.709 8.00374L24.709 9.00374C24.6539 9.00374 24.7006 8.96936 24.8271 9.14729C24.9447 9.31252 25.0711 9.58419 25.1855 9.96468C25.4126 10.7193 25.5605 11.7919 25.5605 12.9979C25.5605 14.2038 25.4126 15.2765 25.1855 16.0311C25.0711 16.4114 24.9447 16.6833 24.8271 16.8485C24.7732 16.9242 24.7333 16.9607 24.71 16.9783C24.7022 16.9724 24.6906 16.9663 24.6787 16.9549C24.6174 16.8961 24.536 16.7849 24.4473 16.6024C24.2711 16.2399 24.1126 15.6907 24.0039 15.0008L23.9248 14.2528L22.9307 14.3582L23.0117 15.1258L23.0156 15.1512C23.1325 15.8955 23.3115 16.5536 23.5479 17.0399C23.6656 17.2822 23.8091 17.5066 23.9863 17.6766C24.1658 17.8488 24.4103 17.991 24.709 17.991C25.1372 17.9908 25.4457 17.7043 25.6426 17.4276C25.8484 17.1381 26.0134 16.7516 26.1436 16.3192C26.4058 15.4476 26.5605 14.2734 26.5605 12.9979Z" fill="black"/>
<path d="M24.9246 13.0665C24.9265 13.3744 24.9009 13.6691 24.8507 13.9C24.8265 14.0113 24.7905 14.1356 24.7337 14.2444C24.7056 14.2984 24.6597 14.3728 24.5875 14.4397C24.5122 14.5093 24.382 14.5924 24.2046 14.5935L24.1984 13.5935C24.0527 13.5945 23.9536 13.6635 23.9081 13.7057C23.8666 13.744 23.849 13.7774 23.847 13.7812C23.8491 13.7758 23.8606 13.7479 23.8738 13.6873C23.9042 13.5475 23.9262 13.3297 23.9246 13.0727C23.923 12.8158 23.8982 12.5983 23.8661 12.4588C23.8517 12.3965 23.8397 12.3684 23.8381 12.3643C23.8392 12.3663 23.8571 12.4002 23.9001 12.4391C23.9462 12.4806 24.0462 12.5485 24.1918 12.5476L24.1856 11.5476C24.363 11.5465 24.4942 11.628 24.5703 11.6966C24.6436 11.7627 24.6901 11.8373 24.719 11.891C24.7771 11.9991 24.8147 12.123 24.8403 12.234C24.8934 12.4642 24.9227 12.7585 24.9246 13.0665Z" fill="black"/>
<path d="M24.2019 14.5934L18.8297 14.5929L18.8295 14.0929L18.8303 13.5928L24.2015 13.5934L24.2019 14.5934ZM24.1891 12.5475L19.8003 12.5477L19.7999 11.5477L24.1886 11.5475L24.1891 12.5475Z" fill="black"/>
<path d="M13.4479 5.85814L7.08941 17.1174L6.21867 16.6257L12.5771 5.36641L13.4479 5.85814ZM21.2727 10.277L14.9151 21.5368L14.0443 21.0451L20.4028 9.78579L21.2727 10.277Z" fill="black"/>
<path d="M17.8419 6.19732C18.9529 6.82475 19.8991 7.53915 20.5281 8.19882C20.8403 8.52622 21.0956 8.86127 21.2454 9.18481C21.3891 9.49513 21.4833 9.90546 21.2728 10.2781L20.4021 9.78637C20.3777 9.83005 20.4287 9.80234 20.3373 9.60513C20.2519 9.4206 20.0788 9.17575 19.8046 8.8882C19.2607 8.31777 18.4 7.66092 17.3502 7.06806C16.3006 6.47538 15.2942 6.07787 14.5249 5.90656C14.137 5.82022 13.8371 5.79797 13.635 5.8201C13.4193 5.84377 13.4224 5.90218 13.4472 5.85872L12.5765 5.36698C12.7869 4.99432 13.1869 4.86314 13.5269 4.82593C13.8813 4.7872 14.3001 4.8327 14.7416 4.93098C15.6313 5.12903 16.731 5.56998 17.8419 6.19732Z" fill="black"/>
<path d="M11.461 17.4964C12.5716 18.1236 13.518 18.8358 14.148 19.4927C14.4607 19.8188 14.7168 20.1527 14.8676 20.4745C15.0118 20.7819 15.1095 21.1916 14.8992 21.5645C14.6885 21.9375 14.2868 22.0658 13.949 22.1012C13.5956 22.1381 13.1774 22.0913 12.7366 21.9919C11.8488 21.7916 10.7501 21.3489 9.63961 20.7218C8.529 20.0945 7.58264 19.3824 6.95266 18.7255C6.64008 18.3995 6.38472 18.0658 6.23388 17.7442C6.08969 17.4366 5.99214 17.0264 6.2028 16.6533C6.41352 16.2806 6.81481 16.1528 7.15253 16.1175C7.50582 16.0806 7.92344 16.127 8.36401 16.2263C9.2519 16.4266 10.3504 16.8692 11.461 17.4964ZM10.9693 18.3672C9.91921 17.7742 8.91247 17.3755 8.14377 17.2022C7.75628 17.1148 7.45742 17.0912 7.2558 17.1123C7.16184 17.1222 7.11016 17.1392 7.08375 17.1508C7.08727 17.1793 7.09868 17.2326 7.13911 17.3189C7.22516 17.5025 7.39968 17.7462 7.6746 18.0329C8.22001 18.6017 9.08126 19.258 10.1313 19.851C11.1814 20.444 12.1882 20.8426 12.9569 21.016C13.3445 21.1034 13.6432 21.127 13.8449 21.1059C13.9396 21.096 13.9911 21.0782 14.0174 21.0665C14.0137 21.0377 14.0016 20.9847 13.9615 20.8993C13.8755 20.7157 13.7011 20.472 13.4261 20.1852C12.8806 19.6165 12.0194 18.9602 10.9693 18.3672Z" fill="black"/>
</svg>
