<svg viewBox="0 0 56 56" xmlns="http://www.w3.org/2000/svg" xmlns:xlink="http://www.w3.org/1999/xlink" width="56.000000" height="56.000000" fill="none">
	<rect id="Icon/Luminaires/326_trek_lin 1" width="56.000000" height="56.000000" x="0.000000" y="0.000000" />
	<path id="Icon" d="M54.2773 35L54.2773 33.1064L1.74316 10.3838L1.74316 12.2295L54.2773 35ZM6.77815 20.1538L9.46777 18.3919L9.56177 18.3372C9.7897 18.2257 10.0569 18.2182 10.2932 18.3201L53.739 37.1206C54.0591 37.2592 54.267 37.575 54.2672 37.9238L54.2672 42.5979C54.2672 42.9185 54.0907 43.2137 53.809 43.3669L48.2412 46.3952C48.0093 46.5213 47.7332 46.5351 47.4893 46.4345L4.08276 28.4902C3.75592 28.3548 3.54272 28.0359 3.54272 27.6819L3.54272 22.7463L3.54956 22.637C3.58128 22.3847 3.72195 22.1565 3.9375 22.0149L5.00337 21.3166L1.75235 19.9791L1.75235 18.1287L6.77815 20.1538ZM52.5172 41.2683L10.8213 23.3137L10.8213 20.4546L52.5172 38.498L52.5172 41.2683ZM5.29272 26.0208L5.29272 23.218L9.07129 20.7417L9.07129 23.4282L5.29272 26.0208ZM47.7713 44.6572L6.24292 27.4888L10.0437 24.8843L51.3909 42.6884L47.7713 44.6572Z" fill="rgb(0,0,0)" fill-rule="evenodd" />
</svg>
