<svg width="32" height="32" viewBox="0 0 32 32" fill="none" xmlns="http://www.w3.org/2000/svg">
<rect width="32" height="32" fill="white"/>
<path d="M5.46387 10.4784C5.5941 10.4147 5.74684 10.4104 5.88184 10.4687L30.708 21.2118C30.8909 21.291 31.0097 21.4715 31.0098 21.6708V24.3417C31.0098 24.5249 30.909 24.6936 30.748 24.7812L27.5664 26.5116C27.4339 26.5837 27.2761 26.5916 27.1367 26.5341L2.33301 16.2802C2.14623 16.2028 2.02444 16.0205 2.02441 15.8183V12.998L2.02832 12.9355C2.04645 12.7913 2.1268 12.6609 2.25 12.58L5.41016 10.5097L5.46387 10.4784ZM3.56738 15.7079L27.2979 25.5185L29.3662 24.3935L5.73926 14.2197L3.56738 15.7079ZM6.18359 13.3222L30.0098 23.582V21.9989L6.18359 11.6884V13.3222ZM3.02441 13.2675V14.8691L5.18359 13.3876V11.8525L3.02441 13.2675Z" fill="black"/>
<path d="M31.0156 18.918V20L0.996094 6.98828V5.93359L31.0156 18.918ZM3.89648 11.5259L3.70605 11.9878L3.51465 12.4507L1.00132 11.4166L1.00132 10.3593L3.89648 11.5259Z" fill="black"/>
</svg>
