<svg width="32" height="32" viewBox="0 0 32 32" fill="none" xmlns="http://www.w3.org/2000/svg">
<rect width="32" height="32" fill="white"/>
<path d="M12.9805 6.1171L12.9805 8.51553L11.9805 8.51553L11.9805 6.1171L12.9805 6.1171ZM18.001 6.1171L18.001 8.51553L17.001 8.51553L17.001 6.1171L18.001 6.1171Z" fill="black"/>
<path d="M14.9902 4.25089C15.7504 4.25089 16.4641 4.41757 17.0049 4.71182C17.5264 4.99566 18.001 5.47072 18.001 6.1171L17.001 6.1171C17.001 6.00936 16.9132 5.80024 16.5264 5.58975C16.1587 5.38979 15.6162 5.25089 14.9902 5.25089C14.3645 5.25094 13.8227 5.38989 13.4551 5.58975C13.0682 5.80024 12.9805 6.00936 12.9805 6.1171L11.9805 6.1171C11.9805 5.47064 12.455 4.99564 12.9766 4.71182C13.5173 4.41762 14.2302 4.25094 14.9902 4.25089Z" fill="black"/>
<path d="M11.9805 8.53897C11.9807 7.89392 12.4586 7.42354 12.9785 7.14346C13.5188 6.85243 14.231 6.68746 14.9902 6.68741C15.7496 6.68741 16.4625 6.85238 17.0029 7.14346C17.5228 7.42355 18.0008 7.894 18.001 8.53897L17.001 8.53897C17.0007 8.43746 16.9161 8.23224 16.5283 8.02335C16.1603 7.82515 15.6171 7.68741 14.9902 7.68741C14.3637 7.68746 13.8211 7.82524 13.4531 8.02335C13.0653 8.23224 12.9807 8.43746 12.9805 8.53897C12.9805 8.61107 13.0164 8.72827 13.1826 8.87296C13.3473 9.01626 13.6082 9.15425 13.9531 9.25284L14.3535 9.32901L14.166 10.3114L13.7373 10.2304L13.7168 10.2265L13.6953 10.2206C13.2444 10.0938 12.8341 9.89462 12.5264 9.62686C12.2182 9.35866 11.9805 8.98809 11.9805 8.53897Z" fill="black"/>
<path d="M18.001 8.53897C18.0008 7.89392 17.5228 7.42354 17.0029 7.14346C16.4626 6.85243 15.7504 6.68746 14.9912 6.68741C14.2319 6.68741 13.5189 6.85238 12.9785 7.14346C12.4587 7.42355 11.9807 7.894 11.9805 8.53897L12.9805 8.53897C12.9807 8.43746 13.0653 8.23224 13.4531 8.02335C13.8212 7.82515 14.3644 7.68741 14.9912 7.68741C15.6178 7.68746 16.1603 7.82524 16.5283 8.02335C16.9161 8.23224 17.0007 8.43746 17.001 8.53897C17.001 8.61107 16.9651 8.72827 16.7988 8.87296C16.6341 9.01626 16.3732 9.15425 16.0283 9.25284L15.6279 9.32901L15.8154 10.3114L16.2441 10.2304L16.2646 10.2265L16.2861 10.2206C16.7371 10.0938 17.1473 9.89462 17.4551 9.62686C17.7632 9.35866 18.001 8.98809 18.001 8.53897Z" fill="black"/>
<path d="M15.0517 8.15563C15.3597 8.15372 15.6543 8.17929 15.8852 8.22951C15.9965 8.25375 16.1209 8.28971 16.2297 8.3465C16.2836 8.37465 16.3581 8.42047 16.425 8.49274C16.4945 8.56799 16.5776 8.69818 16.5787 8.87557L15.5787 8.88184C15.5797 9.02747 15.6488 9.12661 15.6909 9.17216C15.7293 9.2136 15.7626 9.23121 15.7665 9.23321C15.7611 9.23115 15.7331 9.21963 15.6726 9.20645C15.5327 9.17603 15.3149 9.15402 15.058 9.15561C14.8011 9.15722 14.5836 9.18199 14.4441 9.21415C14.3817 9.22853 14.3537 9.24047 14.3495 9.24208C14.3516 9.24098 14.3854 9.22313 14.4243 9.18009C14.4659 9.13402 14.5337 9.03402 14.5329 8.88839L13.5329 8.89465C13.5318 8.71725 13.6132 8.58604 13.6818 8.50992C13.7479 8.43663 13.8226 8.39009 13.8762 8.36124C13.9844 8.30312 14.1082 8.26556 14.2192 8.23995C14.4495 8.18684 14.7438 8.15756 15.0517 8.15563Z" fill="black"/>
<path d="M16.5781 8.8785L16.5776 14.2507L16.0776 14.2509L15.5775 14.2501L15.5781 8.8789L16.5781 8.8785ZM14.5322 8.89131L14.5324 13.2801L13.5324 13.2805L13.5322 8.89171L14.5322 8.89131Z" fill="black"/>
<path d="M7.8433 19.6335L19.1026 25.992L18.6109 26.8628L7.35156 20.5043L7.8433 19.6335ZM12.2622 11.8087L23.522 18.1664L23.0302 19.0371L11.771 12.6786L12.2622 11.8087Z" fill="black"/>
<path d="M8.18188 15.2388C8.80931 14.1278 9.52372 13.1816 10.1834 12.5526C10.5108 12.2404 10.8458 11.9851 11.1694 11.8353C11.4797 11.6917 11.89 11.5974 12.2627 11.8079L11.7709 12.6786C11.8146 12.703 11.7869 12.652 11.5897 12.7434C11.4052 12.8288 11.1603 13.0019 10.8728 13.2761C10.3023 13.82 9.64549 14.6807 9.05263 15.7305C8.45995 16.7801 8.06244 17.7865 7.89113 18.5558C7.80479 18.9437 7.78254 19.2436 7.80467 19.4457C7.82834 19.6614 7.88674 19.6583 7.84329 19.6335L7.35155 20.5042C6.97889 20.2938 6.84771 19.8938 6.8105 19.5538C6.77177 19.1994 6.81727 18.7806 6.91555 18.3391C7.1136 17.4494 7.55455 16.3497 8.18188 15.2388Z" fill="black"/>
<path d="M19.4807 21.6202C20.1079 20.5096 20.8201 19.5633 21.477 18.9332C21.8031 18.6205 22.137 18.3644 22.4587 18.2136C22.7662 18.0695 23.1758 17.9717 23.5488 18.182C23.9218 18.3927 24.0501 18.7944 24.0854 19.1323C24.1224 19.4856 24.0755 19.9038 23.9761 20.3446C23.7758 21.2325 23.3332 22.3311 22.706 23.4416C22.0788 24.5522 21.3667 25.4986 20.7097 26.1286C20.3838 26.4411 20.0501 26.6965 19.7285 26.8474C19.4209 26.9915 19.0107 27.0891 18.6376 26.8784C18.2649 26.6677 18.1371 26.2664 18.1018 25.9287C18.0649 25.5754 18.1113 25.1578 18.2106 24.7172C18.4108 23.8293 18.8535 22.7308 19.4807 21.6202ZM20.3515 22.1119C19.7585 23.162 19.3598 24.1688 19.1864 24.9375C19.0991 25.325 19.0755 25.6238 19.0966 25.8254C19.1064 25.9194 19.1235 25.9711 19.1351 25.9975C19.1636 25.994 19.2169 25.9826 19.3032 25.9421C19.4868 25.8561 19.7305 25.6816 20.0172 25.4066C20.586 24.8612 21.2423 24 21.8353 22.9499C22.4283 21.8998 22.8269 20.8931 23.0003 20.1243C23.0877 19.7367 23.1113 19.438 23.0902 19.2364C23.0803 19.1417 23.0625 19.0902 23.0508 19.0638C23.022 19.0675 22.969 19.0796 22.8835 19.1197C22.6999 19.2058 22.4563 19.3802 22.1695 19.6552C21.6008 20.2006 20.9445 21.0618 20.3515 22.1119Z" fill="black"/>
<path d="M31 1.99948L31 2.99948L1 2.99948L1 1.99948L31 1.99948Z" fill="black"/>
<path d="M11.0059 7.0202L11.0059 8.0202L1 8.0202L1 7.0202L11.0059 7.0202Z" fill="black"/>
<path d="M31 7.0202L31 8.0202L18.9795 8.0202L18.9795 7.0202L31 7.0202Z" fill="black"/>
</svg>
