<svg width="32" height="32" viewBox="0 0 32 32" fill="none" xmlns="http://www.w3.org/2000/svg">
<rect width="32" height="32" fill="white"/>
<path fill-rule="evenodd" clip-rule="evenodd" d="M14.9902 4.25098C15.7504 4.25098 16.4641 4.41766 17.0049 4.71191C17.5264 4.99575 18.001 5.47083 18.001 6.11719V8.51562C18.0011 8.52339 18.001 8.53125 18.001 8.53906C18.0009 8.98814 17.7632 9.35877 17.4551 9.62695C17.2154 9.83552 16.913 10.0015 16.5781 10.125V14.2451L23.5215 18.166L23.5195 18.168C23.529 18.1729 23.5394 18.1763 23.5488 18.1816C23.9217 18.3922 24.0505 18.7941 24.0859 19.1318C24.1229 19.4852 24.076 19.904 23.9766 20.3447C23.7763 21.2326 23.3332 22.3309 22.7061 23.4414C22.0788 24.552 21.3669 25.4989 20.71 26.1289C20.384 26.4414 20.0501 26.6968 19.7285 26.8477C19.421 26.9918 19.0106 27.0894 18.6377 26.8789C18.6281 26.8735 18.6196 26.866 18.6104 26.8604V26.8623L7.35059 20.5039C6.97886 20.2933 6.84771 19.8933 6.81055 19.5537C6.77183 19.1993 6.81677 18.7804 6.91504 18.3389C7.11308 17.4493 7.55446 16.35 8.18164 15.2393C8.80907 14.1282 9.52392 13.1818 10.1836 12.5527C10.5109 12.2406 10.8455 11.9848 11.1689 11.835C11.4793 11.6913 11.8901 11.5972 12.2627 11.8076L12.2617 11.8086L13.5322 12.5254V10.1709C13.1458 10.0441 12.7966 9.86203 12.5264 9.62695C12.2183 9.35877 11.9805 8.98814 11.9805 8.53906C11.9805 8.53125 11.9813 8.52339 11.9814 8.51562L11.9805 6.11719C11.9805 5.47074 12.455 4.99574 12.9766 4.71191C13.5173 4.41771 14.2302 4.25103 14.9902 4.25098ZM23.0508 19.0635C23.022 19.0672 22.9691 19.0801 22.8838 19.1201C22.7002 19.2062 22.4566 19.3804 22.1699 19.6553C21.6012 20.2007 20.9446 21.0622 20.3516 22.1123C19.7587 23.1623 19.3599 24.1689 19.1865 24.9375C19.0992 25.3248 19.0756 25.6236 19.0967 25.8252C19.1065 25.9189 19.1241 25.9706 19.1357 25.9971C19.1643 25.9935 19.2179 25.9826 19.3037 25.9424C19.4873 25.8563 19.7309 25.6811 20.0176 25.4062C20.5863 24.8608 21.243 24.0001 21.8359 22.9502C22.4289 21.9001 22.8276 20.8927 23.001 20.124C23.0883 19.7366 23.1119 19.4379 23.0908 19.2363C23.0809 19.1416 23.0625 19.0898 23.0508 19.0635ZM11.7832 12.6855C11.7663 12.6848 11.7091 12.688 11.5898 12.7432C11.4053 12.8286 11.1606 13.0022 10.873 13.2764C10.3026 13.8203 9.64558 14.6807 9.05273 15.7305C8.46007 16.78 8.06194 17.7864 7.89062 18.5557C7.80434 18.9433 7.78263 19.2432 7.80469 19.4453C7.81902 19.576 7.846 19.6267 7.85547 19.6406L18.1016 25.4268C18.1187 25.2023 18.1555 24.9628 18.2109 24.7168C18.4112 23.829 18.8534 22.7305 19.4805 21.6201C20.1076 20.5096 20.8206 19.5636 21.4775 18.9336C21.6597 18.7589 21.8448 18.6026 22.0283 18.4717L11.7832 12.6855ZM15.0576 9.15527C14.8499 9.15657 14.668 9.17305 14.5322 9.19629V13.0898L15.5781 13.6807V9.18945C15.4427 9.16839 15.2626 9.154 15.0576 9.15527ZM14.9902 7.6875C14.4423 7.68763 13.9585 7.79318 13.5996 7.95215C13.5482 7.97492 13.4992 7.99862 13.4531 8.02344C13.0653 8.23232 12.9807 8.43756 12.9805 8.53906C12.9805 8.61116 13.0165 8.72842 13.1826 8.87305C13.2715 8.9504 13.3892 9.02485 13.5322 9.09375V8.8916C13.5321 8.71575 13.6134 8.58545 13.6816 8.50977C13.7477 8.43657 13.8224 8.39016 13.876 8.36133C13.984 8.30325 14.1078 8.26584 14.2188 8.24023C14.449 8.18712 14.7438 8.1572 15.0518 8.15527C15.3595 8.15338 15.654 8.1793 15.8848 8.22949C15.9961 8.25373 16.1207 8.28989 16.2295 8.34668C16.2834 8.37484 16.358 8.42098 16.4248 8.49316C16.4943 8.56847 16.577 8.69884 16.5781 8.87598L16.0781 8.87891H16.5781V9.02344C16.6636 8.97409 16.7386 8.92549 16.7988 8.87305C16.965 8.72842 17.0009 8.61116 17.001 8.53906C17.0007 8.43756 16.9161 8.23232 16.5283 8.02344C16.4822 7.99861 16.4333 7.97492 16.3818 7.95215C16.2792 7.9067 16.1665 7.86556 16.0449 7.83008C15.7409 7.74137 15.3819 7.6875 14.9902 7.6875ZM14.0322 8.8916H14.5322V8.88867L14.0322 8.8916ZM14.9902 5.25098C14.3645 5.25103 13.8227 5.38998 13.4551 5.58984C13.0683 5.80032 12.9805 6.00945 12.9805 6.11719V7.14258C13.0473 7.10663 13.1166 7.07206 13.1885 7.04004C13.6245 6.84578 14.1487 6.72582 14.708 6.69531L14.9902 6.6875C15.7486 6.68755 16.4609 6.85217 17.001 7.14258V6.11719C17.001 6.00945 16.9132 5.80032 16.5264 5.58984C16.1587 5.38988 15.6162 5.25098 14.9902 5.25098Z" fill="black"/>
<path d="M11.0059 8.02051H1V7.02051H11.0059V8.02051Z" fill="black"/>
<path d="M31 8.02051H18.9795V7.02051H31V8.02051Z" fill="black"/>
<path d="M31 2.99902H1V1.99902H31V2.99902Z" fill="black"/>
</svg>
