<svg width="32" height="32" viewBox="0 0 32 32" fill="none" xmlns="http://www.w3.org/2000/svg">
<rect width="32" height="32" fill="white"/>
<path d="M18.507 16.7831C18.6404 16.7831 18.7685 16.8367 18.8624 16.9315C18.9562 17.0262 19.0082 17.1546 19.007 17.2879L18.962 22.1209C18.9595 22.3916 18.7424 22.611 18.4718 22.6161L7.76965 22.8114C7.70748 22.8125 7.64536 22.8017 7.58703 22.7801L6.81067 22.493C6.61059 22.4191 6.47888 22.2268 6.48352 22.0135L6.58801 17.2723L6.59973 17.1727C6.65002 16.9491 6.85021 16.7831 7.08801 16.7831H18.507ZM8.37414 17.9237L8.27356 21.8016L17.9659 21.6248L18.0021 17.7899L8.37414 17.9237Z" fill="black"/>
<path d="M30.2676 9.49854C30.6818 9.49854 31.0176 9.83432 31.0176 10.2485C31.0176 10.6627 30.6818 10.9985 30.2676 10.9985H1.77246C1.35825 10.9985 1.02246 10.6627 1.02246 10.2485C1.02246 9.83432 1.35825 9.49854 1.77246 9.49854H30.2676Z" fill="black"/>
<path d="M16.5 9.81982C16.7366 9.67786 17.0433 9.75438 17.1855 9.99072C17.3278 10.2274 17.2513 10.535 17.0146 10.6772C15.6086 11.5222 14.8593 13.1307 14.4736 14.9683C14.0901 16.796 14.0889 18.7392 14.0869 20.1284C14.0863 20.4044 13.862 20.6278 13.5859 20.6274C13.31 20.6269 13.0865 20.4025 13.0869 20.1265C13.0889 18.7506 13.0871 16.7062 13.4951 14.7622C13.9011 12.8281 14.736 10.8798 16.5 9.81982Z" fill="black"/>
<path d="M15.3003 19.1956C15.7145 19.1897 16.0551 19.5206 16.061 19.9348C16.067 20.3489 15.736 20.6895 15.3219 20.6955L11.6269 20.7485C11.2128 20.7545 10.8722 20.4236 10.8662 20.0094C10.8603 19.5952 11.1912 19.2547 11.6054 19.2487L15.3003 19.1956Z" fill="black"/>
</svg>
