<svg viewBox="0 0 56 56" xmlns="http://www.w3.org/2000/svg" xmlns:xlink="http://www.w3.org/1999/xlink" width="56.000000" height="56.000000" fill="none">
	<rect id="Icon/Luminaires/328_podsv 1" width="56.000000" height="56.000000" x="0.000000" y="0.000000" />
	<path id="Icon" d="M54.2808 17.9349C54.2808 17.2101 53.6932 16.6224 52.9683 16.6224L3.10181 16.6224C2.37698 16.6224 1.78931 17.2101 1.78931 17.9349C1.78931 18.6598 2.37698 19.2474 3.10181 19.2474L26.4989 19.2474C24.9739 21.097 24.1124 23.4714 23.6165 25.8339C23.3696 27.0103 23.2084 28.2077 23.1031 29.3704L12.404 29.3704C11.9879 29.3704 11.6375 29.661 11.5495 30.0523L11.529 30.2266L11.3462 38.5236C11.338 38.897 11.5685 39.2334 11.9187 39.3627L13.2773 39.8651C13.3794 39.9029 13.4881 39.922 13.5969 39.92L32.3257 39.5782C32.7991 39.5693 33.1791 39.1854 33.1835 38.7116L33.2623 30.2538C33.2643 30.0205 33.1733 29.7958 33.0092 29.6302C32.8449 29.4642 32.6207 29.3704 32.3873 29.3704L24.8603 29.3704C24.9601 28.3177 25.1084 27.2453 25.3289 26.1947C25.9261 23.3488 27.0217 20.8172 28.971 19.2474L52.9683 19.2474C53.6932 19.2474 54.2808 18.6598 54.2808 17.9349ZM22.9748 31.251C22.9345 32.0961 22.9171 32.9034 22.9091 33.648L20.3095 33.6854C19.5846 33.6959 19.0056 34.2917 19.0159 35.0165C19.0264 35.7413 19.6225 36.3205 20.3472 36.31L26.8133 36.2173C27.538 36.2068 28.1173 35.6106 28.1068 34.886C28.0965 34.1612 27.5004 33.582 26.7756 33.5925L24.6598 33.6228C24.6682 32.8698 24.6865 32.0634 24.7281 31.2264L31.5036 31.1324L31.4403 37.8434L14.4787 38.1529L14.6548 31.3665L22.9748 31.251Z" fill="rgb(0,0,0)" fill-rule="evenodd" />
</svg>
