<svg width="32" height="32" viewBox="0 0 32 32" fill="none" xmlns="http://www.w3.org/2000/svg">
<rect width="32" height="32" fill="white"/>
<path d="M9.54102 26.457H8.54102V25.457H9.54102V26.457Z" fill="black"/>
<path fill-rule="evenodd" clip-rule="evenodd" d="M8.05078 23.9404H8.54102V23.4404H9.54102V23.9404H10.0312V23.4404H11.0312V28.4736H10.0312V27.9736H9.54102V28.4736H8.54102V27.9736H8.05078V28.4736H7.05078L7.0498 23.9404L7.05078 23.4404H8.05078V23.9404ZM8.0498 26.9736H10.0312V24.9404H8.0498V26.9736Z" fill="black"/>
<path d="M18.501 26.457H17.501V25.457H18.501V26.457Z" fill="black"/>
<path fill-rule="evenodd" clip-rule="evenodd" d="M17.0107 23.9404H17.501V23.4404H18.501V23.9404H18.9912V23.4404H19.9912V28.4736H18.9912V27.9736H18.501V28.4736H17.501V27.9736H17.0107V28.4736H16.0107L16.0098 23.9404L16.0107 23.4404H17.0107V23.9404ZM17.0098 26.9736H18.9912V24.9404H17.0098V26.9736Z" fill="black"/>
<path d="M27.5283 26.457H26.5283V25.457H27.5283V26.457Z" fill="black"/>
<path fill-rule="evenodd" clip-rule="evenodd" d="M26.0381 23.9404H26.5283V23.4404H27.5283V23.9404H28.0186V23.4404H29.0186V28.4736H28.0186V27.9736H27.5283V28.4736H26.5283V27.9736H26.0381V28.4736H25.0381L25.0371 23.9404L25.0381 23.4404H26.0381V23.9404ZM26.0371 26.9736H28.0186V24.9404H26.0371V26.9736Z" fill="black"/>
<path d="M5.06934 26.9688H4.06934V24.9453H5.06934V26.9688Z" fill="black"/>
<path d="M14.0117 26.9688H13.0117V24.9453H14.0117V26.9688Z" fill="black"/>
<path d="M23.0391 26.9688H22.0391V24.9453H23.0391V26.9688Z" fill="black"/>
<path d="M5.49219 6.51953H4.49219V5.51953H5.49219V6.51953Z" fill="black"/>
<path fill-rule="evenodd" clip-rule="evenodd" d="M4.00195 4.00293H4.49219V3.50293H5.49219V4.00293H5.98242V3.50293H6.98242L6.9834 8.03613L6.98242 8.53613H5.98242V8.03613H5.49219V8.53613H4.49219V8.03613H4.00195V8.53613H3.00195V3.50293H4.00195V4.00293ZM4.00195 7.03613H5.9834V5.00293H4.00195V7.03613Z" fill="black"/>
<path d="M14.5195 6.51953H13.5195V5.51953H14.5195V6.51953Z" fill="black"/>
<path fill-rule="evenodd" clip-rule="evenodd" d="M13.0293 4.00293H13.5195V3.50293H14.5195V4.00293H15.0098V3.50293H16.0098L16.0107 8.03613L16.0098 8.53613H15.0098V8.03613H14.5195V8.53613H13.5195V8.03613H13.0293V8.53613H12.0293V3.50293H13.0293V4.00293ZM13.0293 7.03613H15.0107V5.00293H13.0293V7.03613Z" fill="black"/>
<path d="M23.4795 6.51953H22.4795V5.51953H23.4795V6.51953Z" fill="black"/>
<path fill-rule="evenodd" clip-rule="evenodd" d="M21.9893 4.00293H22.4795V3.50293H23.4795V4.00293H23.9697V3.50293H24.9697L24.9707 8.03613L24.9697 8.53613H23.9697V8.03613H23.4795V8.53613H22.4795V8.03613H21.9893V8.53613H20.9893V3.50293H21.9893V4.00293ZM21.9893 7.03613H23.9707V5.00293H21.9893V7.03613Z" fill="black"/>
<path d="M9.98145 7.03125H8.98145V5.00781H9.98145V7.03125Z" fill="black"/>
<path d="M19.0088 7.03125H18.0088V5.00781H19.0088V7.03125Z" fill="black"/>
<path d="M27.9512 7.03125H26.9512V5.00781H27.9512V7.03125Z" fill="black"/>
<path fill-rule="evenodd" clip-rule="evenodd" d="M27.5156 1.99219C29.4486 1.99219 31.0155 3.55928 31.0156 5.49219V6.44922C31.0156 8.53663 29.8338 10.4444 27.9648 11.374L27.1689 11.7695C24.3703 13.4994 20.3645 16.1447 16.9834 18.4111C15.1989 19.6073 13.5903 20.6966 12.4277 21.4863C12.1904 21.6475 11.9722 21.7969 11.7744 21.9316H31.0059V29.9863H5.29199C3.55939 29.9863 1.88165 28.9791 1.41504 27.2109C1.07541 25.9233 0.817072 24.2603 1.21973 22.8594C1.22718 22.8179 1.2361 22.7722 1.24805 22.7227C1.30382 22.4915 1.4147 22.1737 1.63281 21.7705C2.06861 20.9651 2.93397 19.8133 4.64941 18.3145C6.36955 16.8116 9.89332 14.5023 12.9521 12.5869C14.4883 11.625 15.9185 10.7551 16.9648 10.126C17.0097 10.099 17.0542 10.0729 17.0977 10.0469H1.00488V1.99219H27.5156ZM3.125 21.3564C2.76559 21.8392 2.38504 22.4717 2.2002 23.0674C2.19869 23.0784 2.19593 23.0871 2.19531 23.0938C2.1944 23.1037 2.19434 23.1094 2.19434 23.1094L2.19531 23.0938L2.19238 23.0908C1.8495 24.226 2.04782 25.6885 2.38184 26.9551C2.70886 28.1949 3.91354 28.9863 5.29199 28.9863H30.0059V22.9316H8.73438C8.73244 22.9316 8.72918 22.9307 8.72559 22.9307C8.71806 22.9305 8.70663 22.931 8.69238 22.9307C8.66353 22.9299 8.62103 22.9284 8.56738 22.9268C8.45981 22.9235 8.30528 22.918 8.11816 22.9102C7.74437 22.8945 7.2367 22.8684 6.7041 22.8262C6.17338 22.7841 5.60887 22.7255 5.12402 22.6436C4.88178 22.6026 4.65083 22.5543 4.4502 22.4971C4.25883 22.4424 4.05703 22.3692 3.89746 22.2627C3.49443 21.9934 3.25808 21.6722 3.125 21.3564ZM23.4316 10.04C23.3855 10.0417 23.3493 10.0438 23.3252 10.0449C23.3132 10.0455 23.3038 10.0456 23.2979 10.0459H23.29L23.2764 10.0469H19.0498C18.9723 10.0926 18.8617 10.1577 18.7227 10.2402C18.4275 10.4153 18.0017 10.669 17.4805 10.9824C16.4376 11.6094 15.0123 12.4766 13.4824 13.4346C10.4085 15.3594 6.95684 17.6265 5.30762 19.0674C4.79288 19.5171 4.36475 19.9314 4.00586 20.3066C4.00338 20.3495 3.99873 20.3849 3.99316 20.4092C3.94481 20.6198 3.93056 21.083 4.45215 21.4316C4.48077 21.4508 4.5632 21.49 4.72461 21.5361C4.87693 21.5796 5.06846 21.6198 5.29004 21.6572C5.7331 21.7321 6.26501 21.788 6.7832 21.8291C7.29962 21.8701 7.79422 21.8958 8.16016 21.9111C8.34289 21.9188 8.4934 21.9246 8.59766 21.9277C8.64961 21.9293 8.69042 21.93 8.71777 21.9307C8.73105 21.931 8.7412 21.9315 8.74805 21.9316H9.99902C10.004 21.9283 10.0102 21.924 10.0176 21.9189C10.0395 21.904 10.0726 21.8807 10.1152 21.8516C10.2007 21.7931 10.3272 21.7073 10.4893 21.5967C10.8141 21.375 11.2845 21.0544 11.8662 20.6592C13.0299 19.8686 14.6403 18.7786 16.4268 17.5811C19.7492 15.354 23.6899 12.75 26.499 11.0078L26.4971 11.0049L26.5029 10.998C26.5125 10.9888 26.5282 10.973 26.5469 10.9521C26.5855 10.9089 26.6329 10.8497 26.6709 10.7812C26.7461 10.6457 26.7614 10.5316 26.7051 10.416C26.6983 10.4091 26.6754 10.3882 26.6211 10.3584C26.5363 10.312 26.4105 10.2641 26.2412 10.2207C25.9025 10.1339 25.466 10.082 25.0186 10.0547C24.5756 10.0277 24.1423 10.0256 23.8184 10.0303C23.6571 10.0326 23.524 10.0366 23.4316 10.04ZM2.00488 9.04688H23.248C23.2553 9.04651 23.2661 9.04651 23.2793 9.0459C23.3062 9.04465 23.3453 9.04284 23.3945 9.04102C23.4933 9.03736 23.6339 9.03272 23.8037 9.03027C24.1429 9.02538 24.603 9.02761 25.0791 9.05664C25.5507 9.0854 26.0602 9.14195 26.4893 9.25195C26.7035 9.30688 26.9167 9.38024 27.1016 9.48145C27.2594 9.56788 27.4301 9.6928 27.5479 9.87598L27.5947 9.95801L27.6396 10.0557C27.6837 10.1618 27.7098 10.2663 27.7246 10.3672C29.1339 9.57286 30.0156 8.07898 30.0156 6.44922V5.49219C30.0155 4.11156 28.8963 2.99219 27.5156 2.99219H2.00488V9.04688Z" fill="black"/>
</svg>
