<svg width="32" height="32" viewBox="0 0 32 32" fill="none" xmlns="http://www.w3.org/2000/svg">
<rect width="32" height="32" fill="white"/>
<path d="M30.0156 5.49237C30.0156 4.11166 28.8963 2.99237 27.5156 2.99237H2.00488V9.04706H23.248C23.2553 9.04669 23.2661 9.04669 23.2793 9.04608C23.3062 9.04484 23.3453 9.04302 23.3945 9.0412C23.4933 9.03754 23.6339 9.03291 23.8037 9.03046C24.1429 9.02557 24.603 9.02779 25.0791 9.05682C25.5507 9.08559 26.0602 9.14212 26.4893 9.25214C26.7035 9.30707 26.9167 9.3804 27.1016 9.48163C27.2594 9.56809 27.4301 9.69292 27.5479 9.87616L27.5947 9.95819L27.6396 10.0558C27.6838 10.162 27.7098 10.2664 27.7246 10.3674C29.134 9.57305 30.0156 8.07919 30.0156 6.4494V5.49237ZM31.0156 6.4494C31.0156 8.53684 29.8339 10.4446 27.9648 11.3742L27.0459 11.8312L26.4971 11.0051H26.4961L26.5029 10.9982C26.5125 10.989 26.5281 10.9733 26.5469 10.9523C26.5856 10.9091 26.6329 10.8499 26.6709 10.7814C26.7461 10.6458 26.7614 10.5319 26.7051 10.4162C26.6984 10.4094 26.6757 10.3885 26.6211 10.3586C26.5363 10.3122 26.4105 10.2643 26.2412 10.2209C25.9025 10.134 25.466 10.0822 25.0186 10.0549C24.5756 10.0279 24.1423 10.0258 23.8184 10.0305C23.6571 10.0328 23.524 10.0368 23.4316 10.0402C23.3855 10.0419 23.3493 10.044 23.3252 10.0451C23.3132 10.0457 23.3038 10.0458 23.2979 10.0461H23.29L23.2764 10.0471H1.00488V1.99237H27.5156C29.4486 1.99237 31.0156 3.55937 31.0156 5.49237V6.4494Z" fill="black"/>
<path d="M3.49414 19.7511C3.40011 19.7504 3.32647 19.7752 3.28809 19.7902C3.15771 19.8409 3.04366 19.9411 2.98242 19.9972C2.82357 20.1427 2.61918 20.3721 2.4082 20.6456C1.98768 21.1908 1.48085 21.9915 1.23633 22.799C0.808507 24.2123 1.07053 25.9049 1.41504 27.2111C1.88165 28.9793 3.55939 29.9865 5.29199 29.9865H31.0059V21.9318H8.74805C8.7412 21.9316 8.73105 21.9311 8.71777 21.9308C8.69042 21.9301 8.64961 21.9294 8.59766 21.9279C8.49341 21.9247 8.3429 21.9189 8.16016 21.9113C7.79422 21.8959 7.29962 21.8702 6.7832 21.8292C6.265 21.7881 5.7331 21.7322 5.29004 21.6574C5.06845 21.6199 4.87694 21.5797 4.72461 21.5363C4.56318 21.4902 4.48077 21.4509 4.45215 21.4318C3.9305 21.0831 3.94481 20.6199 3.99316 20.4093C4.00151 20.373 4.01289 20.3116 4.00781 20.2374C4.00285 20.165 3.97852 20.0319 3.86816 19.9142C3.74853 19.7867 3.59879 19.752 3.49414 19.7511ZM3.125 21.3566C3.25809 21.6723 3.4944 21.9935 3.89746 22.2628C4.05704 22.3694 4.25882 22.4426 4.4502 22.4972C4.65083 22.5545 4.88177 22.6028 5.12402 22.6437C5.60888 22.7256 6.17337 22.7842 6.7041 22.8263C7.2367 22.8686 7.74437 22.8946 8.11816 22.9103C8.30528 22.9181 8.45981 22.9236 8.56738 22.9269C8.62104 22.9285 8.66353 22.9301 8.69238 22.9308C8.70663 22.9312 8.71806 22.9306 8.72559 22.9308C8.72919 22.9309 8.73244 22.9317 8.73438 22.9318H30.0059V28.9865H5.29199C3.91354 28.9865 2.70886 28.1951 2.38184 26.9552C2.04761 25.6879 1.84965 24.2245 2.19336 23.089C2.3756 22.4871 2.76122 21.8451 3.125 21.3566Z" fill="black"/>
<path d="M16.0107 4.00304V8.03624H12.0293V4.00304H16.0107ZM13.0293 7.03624H15.0107V5.00304H13.0293V7.03624Z" fill="black"/>
<path d="M16.0098 23.9405V27.9737H19.9912V23.9405H16.0098ZM18.9912 26.9737H17.0098V24.9405H18.9912V26.9737Z" fill="black"/>
<path d="M24.9707 4.00304V8.03624H20.9893V4.00304H24.9707ZM21.9893 7.03624H23.9707V5.00304H21.9893V7.03624Z" fill="black"/>
<path d="M7.0498 23.9405V27.9737H11.0312V23.9405H7.0498ZM10.0312 26.9737H8.0498V24.9405H10.0312V26.9737Z" fill="black"/>
<path d="M6.9834 4.00304V8.03624H3.00195V4.00304H6.9834ZM4.00195 7.03624H5.9834V5.00304H4.00195V7.03624Z" fill="black"/>
<path d="M25.0371 23.9405V27.9737H29.0186V23.9405H25.0371ZM28.0186 26.9737H26.0371V24.9405H28.0186V26.9737Z" fill="black"/>
<path d="M13.5195 5.51974H14.5195V6.51974H13.5195V5.51974Z" fill="black"/>
<path d="M18.501 25.4572H17.501V26.4572H18.501V25.4572Z" fill="black"/>
<path d="M22.4795 5.51974H23.4795V6.51974H22.4795V5.51974Z" fill="black"/>
<path d="M9.54102 25.4572H8.54102V26.4572H9.54102V25.4572Z" fill="black"/>
<path d="M4.49219 5.51974H5.49219V6.51974H4.49219V5.51974Z" fill="black"/>
<path d="M27.5283 25.4572H26.5283V26.4572H27.5283V25.4572Z" fill="black"/>
<path d="M8.98145 5.00792H9.98145V7.03157H8.98145V5.00792Z" fill="black"/>
<path d="M23.0391 24.9454H22.0391V26.969H23.0391V24.9454Z" fill="black"/>
<path d="M18.0088 5.00792H19.0088V7.03157H18.0088V5.00792Z" fill="black"/>
<path d="M14.0117 24.9454H13.0117V26.969H14.0117V24.9454Z" fill="black"/>
<path d="M26.9512 5.00792H27.9512V7.03157H26.9512V5.00792Z" fill="black"/>
<path d="M5.06934 24.9454H4.06934V26.969H5.06934V24.9454Z" fill="black"/>
<path d="M12.0293 3.50305H13.0293V4.50305H12.0293V3.50305Z" fill="black"/>
<path d="M19.9912 23.4405H18.9912V24.4405H19.9912V23.4405Z" fill="black"/>
<path d="M20.9893 3.50305H21.9893V4.50305H20.9893V3.50305Z" fill="black"/>
<path d="M11.0312 23.4405H10.0312V24.4405H11.0312V23.4405Z" fill="black"/>
<path d="M3.00195 3.50305H4.00195V4.50305H3.00195V3.50305Z" fill="black"/>
<path d="M29.0186 23.4405H28.0186V24.4405H29.0186V23.4405Z" fill="black"/>
<path d="M12.0293 7.53645H13.0293V8.53645H12.0293V7.53645Z" fill="black"/>
<path d="M19.9912 27.4739H18.9912V28.4739H19.9912V27.4739Z" fill="black"/>
<path d="M20.9893 7.53645H21.9893V8.53645H20.9893V7.53645Z" fill="black"/>
<path d="M11.0312 27.4739H10.0312V28.4739H11.0312V27.4739Z" fill="black"/>
<path d="M3.00195 7.53645H4.00195V8.53645H3.00195V7.53645Z" fill="black"/>
<path d="M29.0186 27.4739H28.0186V28.4739H29.0186V27.4739Z" fill="black"/>
<path d="M13.5195 3.50305H14.5195V4.50305H13.5195V3.50305Z" fill="black"/>
<path d="M18.501 23.4405H17.501V24.4405H18.501V23.4405Z" fill="black"/>
<path d="M22.4795 3.50305H23.4795V4.50305H22.4795V3.50305Z" fill="black"/>
<path d="M9.54102 23.4405H8.54102V24.4405H9.54102V23.4405Z" fill="black"/>
<path d="M4.49219 3.50305H5.49219V4.50305H4.49219V3.50305Z" fill="black"/>
<path d="M27.5283 23.4405H26.5283V24.4405H27.5283V23.4405Z" fill="black"/>
<path d="M13.5195 7.53645H14.5195V8.53645H13.5195V7.53645Z" fill="black"/>
<path d="M18.501 27.4739H17.501V28.4739H18.501V27.4739Z" fill="black"/>
<path d="M22.4795 7.53645H23.4795V8.53645H22.4795V7.53645Z" fill="black"/>
<path d="M9.54102 27.4739H8.54102V28.4739H9.54102V27.4739Z" fill="black"/>
<path d="M4.49219 7.53645H5.49219V8.53645H4.49219V7.53645Z" fill="black"/>
<path d="M27.5283 27.4739H26.5283V28.4739H27.5283V27.4739Z" fill="black"/>
<path d="M15.0098 3.50305H16.0098V4.50305H15.0098V3.50305Z" fill="black"/>
<path d="M17.0107 23.4405H16.0107V24.4405H17.0107V23.4405Z" fill="black"/>
<path d="M23.9697 3.50305H24.9697V4.50305H23.9697V3.50305Z" fill="black"/>
<path d="M8.05078 23.4405H7.05078V24.4405H8.05078V23.4405Z" fill="black"/>
<path d="M5.98242 3.50305H6.98242V4.50305H5.98242V3.50305Z" fill="black"/>
<path d="M26.0381 23.4405H25.0381V24.4405H26.0381V23.4405Z" fill="black"/>
<path d="M15.0098 7.53645H16.0098V8.53645H15.0098V7.53645Z" fill="black"/>
<path d="M17.0107 27.4739H16.0107V28.4739H17.0107V27.4739Z" fill="black"/>
<path d="M23.9697 7.53645H24.9697V8.53645H23.9697V7.53645Z" fill="black"/>
<path d="M8.05078 27.4739H7.05078V28.4739H8.05078V27.4739Z" fill="black"/>
<path d="M5.98242 7.53645H6.98242V8.53645H5.98242V7.53645Z" fill="black"/>
<path d="M26.0381 27.4739H25.0381V28.4739H26.0381V27.4739Z" fill="black"/>
<path d="M19.1818 9.96964L19.1798 9.97062C19.1787 9.97131 19.177 9.97232 19.1749 9.97355C19.17 9.97648 19.1624 9.9814 19.1525 9.98722C19.1326 9.99894 19.1025 10.0161 19.0636 10.039C18.9857 10.085 18.8703 10.1527 18.7228 10.2402C18.4277 10.4152 18.0019 10.6689 17.4806 10.9823C16.4378 11.6093 15.0125 12.4764 13.4826 13.4345C10.4086 15.3594 6.95701 17.6264 5.30776 19.0673C3.65407 20.5121 2.8766 21.5737 2.51284 22.246C2.33163 22.5809 2.25342 22.818 2.21987 22.9569C2.20322 23.026 2.19748 23.0719 2.19546 23.0937C2.19454 23.1037 2.19448 23.1093 2.19448 23.1093V23.0937L2.19351 23.0917V23.0907L1.19546 23.1454V23.1366C1.19531 23.1328 1.19457 23.1285 1.19448 23.1239C1.1943 23.1148 1.19428 23.1037 1.19448 23.0917C1.1949 23.0678 1.19614 23.0381 1.19936 23.0028C1.20587 22.9319 1.22035 22.8381 1.24819 22.7226C1.30397 22.4914 1.41481 22.1737 1.63296 21.7704C2.06877 20.965 2.93403 19.8132 4.64956 18.3144C6.36972 16.8115 9.89344 14.5023 12.9523 12.5868C14.4885 11.6249 15.9187 10.755 16.965 10.1259C17.4883 9.81128 17.9164 9.55674 18.213 9.38078C18.3613 9.29283 18.4772 9.22403 18.5558 9.17765C18.5948 9.15467 18.6245 9.13681 18.6447 9.12492C18.6548 9.11895 18.6629 9.11429 18.6681 9.11124C18.6706 9.1098 18.6727 9.10908 18.674 9.10831L18.6759 9.10636L19.1818 9.96964ZM27.63 11.4843C24.8235 13.1981 20.5554 16.0168 16.9835 18.411C15.199 19.6072 13.5904 20.6965 12.4279 21.4862C11.8467 21.8811 11.3772 22.2014 11.0529 22.4228C10.8908 22.5334 10.7651 22.6194 10.6798 22.6777L10.5578 22.7607C10.5552 22.7624 10.5533 22.7636 10.5519 22.7646L10.55 22.7655V22.7665C10.5499 22.7666 10.5493 22.7659 10.2667 22.3534C10.0026 21.9678 9.98554 21.943 9.98452 21.9413L9.98647 21.9394C9.98788 21.9384 9.9906 21.9373 9.99331 21.9355C9.99884 21.9317 10.007 21.9262 10.0177 21.9189C10.0397 21.9039 10.0726 21.8807 10.1154 21.8515C10.2009 21.793 10.3273 21.7072 10.4894 21.5966C10.8143 21.3749 11.2846 21.0543 11.8664 20.6591C13.0301 19.8685 14.6404 18.7785 16.4269 17.581C19.9977 15.1874 24.2816 12.3571 27.1085 10.6308L27.63 11.4843Z" fill="black"/>
</svg>
