<svg width="32" height="32" viewBox="0 0 32 32" fill="none" xmlns="http://www.w3.org/2000/svg">
<path fill-rule="evenodd" clip-rule="evenodd" d="M16 0.265625C17.1727 0.26563 18.0009 0.30009 18.543 0.359375C18.8097 0.38855 19.0318 0.427003 19.1982 0.478516C19.2782 0.503267 19.3789 0.541043 19.4697 0.604492C19.5396 0.653295 19.6723 0.768841 19.7129 0.960938L22.5303 10.5938C22.5421 10.6361 22.5508 10.683 22.5508 10.7344C22.5506 10.8978 22.4766 11.0167 22.418 11.083C22.362 11.1461 22.3018 11.1847 22.2656 11.2051C22.1929 11.246 22.1168 11.2702 22.0635 11.2852C21.9489 11.3172 21.8019 11.3427 21.6426 11.3643C21.3172 11.4083 20.8592 11.4469 20.3076 11.4785C20.0253 11.4947 19.7159 11.5078 19.3838 11.5205V13.7197C19.3834 13.9955 19.1597 14.2197 18.8838 14.2197C18.6079 14.2197 18.3842 13.9955 18.3838 13.7197V11.5518C17.7955 11.566 17.1605 11.5741 16.4961 11.5771V28.2422C17.5773 28.275 18.5616 28.414 19.3174 28.6299C19.749 28.7532 20.1346 28.9101 20.4238 29.1055C20.6955 29.2891 20.998 29.5885 20.998 30.0195C20.9979 30.4506 20.6955 30.751 20.4238 30.9346C20.1347 31.1298 19.7488 31.2859 19.3174 31.4092C18.4474 31.6577 17.2747 31.8047 16 31.8047C14.7251 31.8047 13.5517 31.6578 12.6816 31.4092C12.2502 31.2859 11.8643 31.1299 11.5752 30.9346C11.3035 30.751 11.0021 30.4506 11.002 30.0195C11.002 29.5887 11.3036 29.2891 11.5752 29.1055C11.8643 28.9101 12.2502 28.7532 12.6816 28.6299C13.4357 28.4144 14.4177 28.2754 15.4961 28.2422V11.5771C14.0192 11.5703 12.6885 11.5355 11.6934 11.4785C11.1416 11.4469 10.6828 11.4083 10.3574 11.3643C10.1982 11.3427 10.052 11.3172 9.9375 11.2852C9.88421 11.2702 9.80815 11.246 9.73535 11.2051C9.69915 11.1847 9.63897 11.1461 9.58301 11.083C9.53905 11.0333 9.48574 10.9541 9.46191 10.8486L9.44922 10.7344L9.46191 10.6201C9.46819 10.5921 9.47567 10.5653 9.48535 10.541L12.2852 0.960938C12.3257 0.768686 12.4594 0.653295 12.5293 0.604492C12.6201 0.541074 12.7208 0.502284 12.8008 0.477539C12.9672 0.426052 13.1902 0.388546 13.457 0.359375C13.9994 0.300124 14.8276 0.265625 16 0.265625ZM16.4961 29.5371C16.4959 29.8131 16.2721 30.0371 15.9961 30.0371C15.7201 30.0371 15.4963 29.8131 15.4961 29.5371V29.2422C14.4933 29.2753 13.6078 29.4059 12.957 29.5918C12.575 29.701 12.3018 29.8215 12.1357 29.9336C12.0827 29.9694 12.0491 29.9987 12.0283 30.0195C12.0492 30.0403 12.0827 30.0696 12.1357 30.1055C12.3018 30.2175 12.575 30.3381 12.957 30.4473C13.7149 30.6638 14.791 30.8047 16 30.8047C17.209 30.8047 18.2852 30.6638 19.043 30.4473C19.4251 30.3381 19.6983 30.2176 19.8643 30.1055C19.917 30.0698 19.9498 30.0403 19.9707 30.0195C19.9499 29.9987 19.9171 29.9693 19.8643 29.9336C19.6983 29.8215 19.4252 29.701 19.043 29.5918C18.3905 29.4054 17.5021 29.2748 16.4961 29.2422V29.5371ZM16 1.26562C14.8388 1.26562 14.0534 1.30019 13.5654 1.35352C13.3988 1.37173 13.2782 1.39351 13.1943 1.41113L10.6641 10.0703C10.9494 10.0413 11.2973 10.0129 11.6934 9.99023C12.8005 9.92686 14.323 9.8877 16 9.8877C17.6773 9.8877 19.2004 9.92685 20.3076 9.99023C20.7035 10.0129 21.0509 10.0413 21.3359 10.0703L18.8037 1.41113C18.72 1.39359 18.6002 1.37164 18.4346 1.35352C18.0688 1.31352 17.5354 1.28379 16.8018 1.27148L16 1.26562Z" fill="black"/>
</svg>
