<svg width="32" height="32" viewBox="0 0 32 32" fill="none" xmlns="http://www.w3.org/2000/svg">
<rect width="32" height="32" fill="white"/>
<path d="M10.1963 28.9969C10.4724 28.9969 10.6963 29.2208 10.6963 29.4969C10.6963 29.7731 10.4724 29.9969 10.1963 29.9969L3.51074 29.9969C3.2346 29.9969 3.01074 29.7731 3.01074 29.4969C3.01074 29.2208 3.2346 28.9969 3.51074 28.9969L10.1963 28.9969Z" fill="black"/>
<path d="M14.8984 17.2389C15.1745 17.239 15.3984 17.4628 15.3984 17.7389C15.3984 18.015 15.1745 18.2388 14.8984 18.2389H6.49512C6.21897 18.2389 5.99512 18.015 5.99512 17.7389C5.99512 17.4627 6.21897 17.2389 6.49512 17.2389H14.8984Z" fill="black"/>
<path d="M7.4873 22.1466C7.76345 22.1466 7.9873 22.3705 7.9873 22.6466C7.9873 22.9228 7.76345 23.1466 7.4873 23.1466L5.55762 23.1466C5.28147 23.1466 5.05762 22.9228 5.05762 22.6466C5.05762 22.3705 5.28147 22.1466 5.55762 22.1466L7.4873 22.1466Z" fill="black"/>
<path d="M11.0596 19.5174C11.0595 19.7935 10.8357 20.0174 10.5596 20.0174C10.2835 20.0174 10.0596 19.7935 10.0596 19.5174L10.0596 18.0399C10.0596 17.7637 10.2834 17.5399 10.5596 17.5399C10.8357 17.5399 11.0596 17.7637 11.0596 18.0399L11.0596 19.5174Z" fill="black"/>
<path d="M4.55859 13.2064L5.55859 13.2064L5.55859 29.5833L4.55859 29.5833L4.55859 13.2064Z" fill="black"/>
<path d="M15.5449 2.2193C16.9878 2.2193 18.4169 2.50308 19.75 3.05524C21.083 3.60737 22.2942 4.41689 23.3145 5.43707L22.6074 6.1441C21.6801 5.21682 20.5788 4.48192 19.3672 3.98004C18.1554 3.47812 16.8565 3.2193 15.5449 3.2193C14.2334 3.21933 12.9343 3.47815 11.7227 3.98004C10.5111 4.48196 9.40971 5.21681 8.48242 6.1441C7.55513 7.07139 6.82027 8.17281 6.31836 9.38434C5.81647 10.596 5.55765 11.8951 5.55762 13.2066H4.55762C4.55765 11.764 4.84155 10.3354 5.39355 9.0025C5.94573 7.66944 6.7551 6.45736 7.77539 5.43707C8.79568 4.41679 10.0078 3.60741 11.3408 3.05524C12.6737 2.50323 14.1023 2.21933 15.5449 2.2193Z" fill="black"/>
<path d="M21.5898 5.89122C21.5898 5.5453 21.8703 5.26488 22.2162 5.26488H22.9635C23.3094 5.26488 23.5898 5.5453 23.5898 5.89122V5.89122C23.5898 6.23714 23.3094 6.51756 22.9635 6.51756H22.2162C21.8703 6.51756 21.5898 6.23714 21.5898 5.89122V5.89122Z" fill="black"/>
<path d="M25.793 10.3664C25.7929 8.59745 24.3588 7.16327 22.5898 7.16327C20.821 7.16337 19.3868 8.59754 19.3867 10.3664C19.3867 10.5183 19.398 10.6679 19.4189 10.8146H25.7607C25.7814 10.6682 25.793 10.5186 25.793 10.3664ZM26.793 10.3664C26.793 10.7382 26.744 11.0991 26.6533 11.4426C26.5953 11.6619 26.3968 11.8146 26.1699 11.8146H19.0107C18.7839 11.8146 18.5854 11.6619 18.5273 11.4426C18.4369 11.1001 18.3867 10.7392 18.3867 10.3664C18.3868 8.04527 20.2687 6.16338 22.5898 6.16327C24.9111 6.16327 26.7929 8.04523 26.793 10.3664Z" fill="black"/>
<path d="M10.4424 19.4628C10.0295 19.4629 9.62071 19.5441 9.23926 19.7021C8.85774 19.8601 8.51075 20.0917 8.21875 20.3837C7.92676 20.6757 7.69513 21.0227 7.53711 21.4043C7.37915 21.7857 7.29785 22.1945 7.29785 22.6074C7.29785 22.8835 7.07399 23.1074 6.79785 23.1074C6.52171 23.1074 6.29785 22.8835 6.29785 22.6074C6.29785 22.0631 6.40503 21.5242 6.61328 21.0214C6.82156 20.5186 7.12687 20.0616 7.51172 19.6767C7.89658 19.2918 8.3536 18.9866 8.85645 18.7783C9.35926 18.57 9.89815 18.4629 10.4424 18.4628C10.7185 18.4628 10.9424 18.6867 10.9424 18.9628C10.9423 19.239 10.7185 19.4628 10.4424 19.4628Z" fill="black"/>
</svg>
