<svg viewBox="0 0 56 56" xmlns="http://www.w3.org/2000/svg" xmlns:xlink="http://www.w3.org/1999/xlink" width="56.000000" height="56.000000" fill="none">
	<rect id="Icon/Luminaires/330_torsher 1" width="56.000000" height="56.000000" x="0.000000" y="0.000000" />
	<path id="Icon" d="M27.2036 3.88391C29.7286 3.88391 32.2296 4.38058 34.5625 5.3468C36.7915 6.27008 38.826 7.60458 40.5603 9.27917C40.9814 9.43213 41.2822 9.83566 41.2822 10.3097C41.2822 10.5481 41.2061 10.7686 41.077 10.9484C44.3975 11.6581 46.8876 14.6091 46.8877 18.1413C46.8877 18.792 46.802 19.4235 46.6433 20.0246C46.5417 20.4085 46.1944 20.6758 45.7973 20.6758L33.2687 20.6758C32.8718 20.6758 32.5244 20.4085 32.4227 20.0246C32.2646 19.4254 32.1767 18.7937 32.1767 18.1413C32.1769 14.6093 34.6671 11.6583 37.9875 10.9484C37.8583 10.7686 37.7822 10.5481 37.7822 10.3097C37.7822 9.98242 37.9256 9.68869 38.153 9.48788C36.8623 8.45117 35.4281 7.60117 33.8926 6.96521C31.7719 6.08679 29.4989 5.63391 27.2036 5.63391C24.9084 5.63391 22.635 6.08679 20.5147 6.96521C18.3944 7.84363 16.467 9.12964 14.8442 10.7523C13.2215 12.375 11.9355 14.3025 11.0571 16.4227C10.1789 18.5429 9.72594 20.8163 9.72583 23.1113L9.72754 23.1113L9.72754 38.7566L11.0662 38.7566C11.1418 38.0809 11.3121 37.418 11.5732 36.7874C11.9377 35.9075 12.472 35.1077 13.1455 34.4341C13.819 33.7606 14.6188 33.2265 15.4988 32.8621C16.1717 32.5833 16.8816 32.4079 17.6043 32.3409L17.6043 31.9181L11.3665 31.9181C10.8832 31.9181 10.4915 31.5263 10.4915 31.0431C10.4915 30.5597 10.8832 30.1681 11.3665 30.1681L26.0722 30.1681C26.5554 30.1683 26.9472 30.5599 26.9472 31.0431C26.9472 31.5263 26.5554 31.9179 26.0722 31.9181L19.3543 31.9181L19.3543 34.1556C19.3541 34.6386 18.9625 35.0306 18.4793 35.0306C17.9961 35.0306 17.6043 34.6386 17.6043 34.1556L17.6043 34.1009C17.1119 34.1613 16.629 34.288 16.1687 34.4786C15.501 34.7552 14.8938 35.1605 14.3828 35.6714C13.8718 36.1824 13.4665 36.7898 13.1899 37.4576C13.017 37.8752 12.8966 38.3114 12.8306 38.7566L13.1028 38.7566C13.5861 38.7566 13.9778 39.1484 13.9778 39.6316C13.9778 40.115 13.5861 40.5066 13.1028 40.5066L9.72754 40.5066L9.72754 50.7447L17.8435 50.7447C18.3267 50.7447 18.7185 51.1365 18.7185 51.6197C18.7185 52.1031 18.3267 52.4947 17.8435 52.4947L6.1438 52.4947C5.66053 52.4947 5.2688 52.1031 5.2688 51.6197C5.2688 51.1365 5.66053 50.7447 6.1438 50.7447L7.97754 50.7447L7.97754 23.1117L7.97583 23.1117C7.97588 20.5871 8.47272 18.0871 9.43872 15.7545C10.405 13.4218 11.8214 11.3005 13.6069 9.51501C15.3924 7.72955 17.5136 6.31302 19.8464 5.3468C22.179 4.3808 24.679 3.88391 27.2036 3.88391ZM45.1377 18.1413C45.1375 15.0457 42.6279 12.5359 39.5321 12.5359C36.4367 12.5361 33.9269 15.0459 33.9267 18.1413C33.9267 18.4071 33.9465 18.669 33.983 18.9258L45.0812 18.9258C45.1175 18.6694 45.1377 18.4077 45.1377 18.1413Z" fill="rgb(0,0,0)" fill-rule="evenodd" />
</svg>
