<svg width="32" height="32" viewBox="0 0 32 32" fill="none" xmlns="http://www.w3.org/2000/svg">
<rect width="32" height="32" fill="white"/>
<path d="M15.4678 1.04358L18.5791 2.07678L20.3125 1.8385L20.4277 1.82288L23.9004 2.9801V29.6041L10.8955 30.9752L10.7988 30.985L10.7061 30.9586L7.76465 30.1188L7.78809 29.2828L6.58008 28.8151L6.17383 28.6569L7.51953 22.9957L7.51367 9.02014L5.99121 2.34827L15.2393 1.02307L15.3564 1.00647L15.4678 1.04358ZM8.86328 28.6276L10.9883 29.4528L9.9209 29.694L10.8867 29.9694L20.6582 28.9401L20.3145 28.8483H18.4824L18.415 28.8297L15.3232 27.944L8.86328 28.6276ZM20.8809 27.9645L22.9004 28.5026V3.70081L20.8809 3.02698V27.9645ZM19.0312 3.02405V14.5602L9.48535 15.6608L9.04004 15.7115L8.51562 13.4127L8.51758 18.8024L8.79395 17.6451L8.875 17.3033L9.22363 17.2643L18.7871 16.1783L19.1445 27.8483H19.8809V2.90686L19.0312 3.02405ZM9.68457 18.2174L7.41016 27.776L14.9766 26.9752L17.626 17.316L9.68457 18.2174ZM15.9805 27.0924L18.1396 27.7096L17.9062 20.0748L15.9805 27.0924ZM7.20703 3.1842L9.81445 14.6149L17.9043 13.6832L14.9365 2.07678L7.20703 3.1842ZM18.0312 10.1373V2.94885L16.0215 2.28088L18.0312 10.1373Z" fill="black"/>
</svg>
