<svg width="32" height="32" viewBox="0 0 32 32" fill="none" xmlns="http://www.w3.org/2000/svg">
<rect width="32" height="32" fill="white"/>
<path d="M16.4082 0.998047C16.6793 0.998073 16.9478 1.05157 17.1982 1.15527C17.4486 1.25898 17.6765 1.41099 17.8682 1.60254C18.0598 1.79416 18.2126 2.02213 18.3164 2.27246C18.3914 2.45345 18.4387 2.64469 18.46 2.83887L27.9668 5.84863C28.1745 5.91443 28.3153 6.10732 28.3154 6.3252V8.07227C28.3154 8.31199 28.1455 8.51823 27.9102 8.56348L24.0654 9.29883L18.7568 21.1582C18.7979 21.1663 18.8357 21.1728 18.8691 21.1797C18.9223 21.1906 18.9653 21.1996 18.9951 21.2061L19.0391 21.2158C19.0402 21.2161 19.0423 21.2157 19.043 21.2158V21.2168C19.2706 21.2685 19.4325 21.4707 19.4326 21.7041V30.4883C19.4325 30.7643 19.2087 30.9883 18.9326 30.9883H15.6836C15.6757 30.9883 15.668 30.9857 15.6602 30.9854C15.6547 30.9851 15.6491 30.9868 15.6436 30.9863L13.6611 30.8262C13.4016 30.8052 13.2014 30.5885 13.2012 30.3281V30.2354H9.30273C8.47431 30.2354 7.80273 29.5638 7.80273 28.7354V22.5732C7.80285 21.7449 8.47438 21.0732 9.30273 21.0732H13.3906C13.452 21.0733 13.5101 21.0862 13.5645 21.1064C13.5808 21.1018 13.5972 21.0968 13.6143 21.0938H13.6152L13.6172 21.0928C13.6186 21.0925 13.6206 21.0922 13.623 21.0918C13.6281 21.0909 13.6355 21.0894 13.6445 21.0879C13.6527 21.0865 13.6626 21.0848 13.6738 21.083L8.39258 9.30664L5.20215 8.97461C4.9475 8.9481 4.75401 8.73355 4.75391 8.47754V6.73047C4.75391 6.52287 4.88214 6.33646 5.07617 6.2627L14.3711 2.7334C14.3966 2.57574 14.4387 2.42052 14.5 2.27246C14.6038 2.02219 14.7557 1.79413 14.9473 1.60254C15.1389 1.41096 15.3669 1.25902 15.6172 1.15527C15.8677 1.05152 16.137 0.998047 16.4082 0.998047ZM17.3086 21.9805C17.0331 21.9805 16.6609 22.0299 16.3398 22.085C16.2851 22.0943 16.2328 22.1052 16.1836 22.1143V29.9883H18.4326V22.1143C18.3834 22.1052 18.3311 22.0943 18.2764 22.085C17.9555 22.03 17.5841 21.9805 17.3086 21.9805ZM14.6924 21.9805C14.5546 21.9805 14.373 21.9985 14.2012 22.0195V29.8662L15.1836 29.9453V22.0693C14.9963 22.0175 14.8115 21.9805 14.6924 21.9805ZM10.1836 29.2354H12.8906V27.8154H11.9463C11.6703 27.8154 11.4466 27.5913 11.4463 27.3154V23.9941C11.4463 23.718 11.6701 23.4941 11.9463 23.4941H12.8906V22.0732H10.1836V29.2354ZM9.18359 22.0879C8.96508 22.1413 8.80283 22.3383 8.80273 22.5732V28.7354C8.80273 28.9703 8.96516 29.1662 9.18359 29.2197V22.0879ZM12.4463 26.8154H12.8906V24.4941H12.4463V26.8154ZM14.2822 10.5244L16.1172 21.1094C16.1348 21.1063 16.1527 21.1027 16.1709 21.0996C16.1752 21.0989 16.1793 21.0974 16.1836 21.0967L17.457 10.3867L14.2822 10.5244ZM14.7246 20.9824C14.8434 20.9849 14.9679 20.9997 15.0869 21.0215L13.2568 10.458L11.1436 10.1387C10.6309 10.061 10.1792 9.81319 9.84277 9.45703L9.54199 9.42578L14.7246 20.9824ZM22.8545 9.55664C22.4682 9.9422 21.9443 10.1912 21.3584 10.2168L18.4678 10.3418L17.2031 20.9844C17.2389 20.9833 17.2741 20.9805 17.3086 20.9805C17.4424 20.9805 17.5863 20.9905 17.7314 21.0039L22.8545 9.55664ZM14.1094 9.53027L21.3145 9.21777C21.8189 9.1958 22.2428 8.879 22.4248 8.43848L13.873 8.16797L14.1094 9.53027ZM10.3604 8.47363C10.5389 8.8282 10.881 9.08791 11.293 9.15039L13.0762 9.41895L12.875 8.25391L10.3604 8.47363ZM5.75391 7.1748V7.92188L12.7529 7.1875V6.35449L5.75391 7.1748ZM13.7529 7.15234L27.3154 7.55762V6.80664L13.7529 6.31055V7.15234ZM9.21094 5.7627L13.0146 5.31641L14.498 3.75586L9.21094 5.7627ZM16.0615 3.56348L14.3789 5.33301L24.1582 5.69141L17.4365 3.56348H16.0615ZM16.4082 1.99805C16.2684 1.99805 16.1292 2.0256 16 2.0791C15.871 2.1326 15.7531 2.21082 15.6543 2.30957C15.6088 2.35508 15.5694 2.4061 15.5332 2.45898H17.1836L17.2598 2.46484C17.2703 2.46648 17.2806 2.46933 17.291 2.47168C17.2525 2.41412 17.2102 2.35867 17.1611 2.30957C17.0623 2.21088 16.9445 2.13255 16.8154 2.0791C16.6863 2.02568 16.5479 1.99807 16.4082 1.99805Z" fill="black"/>
</svg>
