<svg width="32" height="32" viewBox="0 0 32 32" fill="none" xmlns="http://www.w3.org/2000/svg">
<rect width="32" height="32" fill="white"/>
<path d="M29.4411 2.7863C29.5988 2.78159 29.7492 2.85217 29.8473 2.97575C29.9454 3.09937 29.9795 3.26168 29.9391 3.41423L25.0016 22.0509C24.9393 22.2859 24.7165 22.4423 24.4743 22.4211L2.39714 20.4777C2.24305 20.4641 2.10378 20.3794 2.02019 20.2492C1.93676 20.1191 1.91864 19.9574 1.97038 19.8117L7.67253 3.75603C7.7415 3.56187 7.92266 3.43028 8.12859 3.424L29.4411 2.7863ZM8.49968 4.41228L3.12761 19.5373L24.1423 21.3879L28.8014 3.80583L8.49968 4.41228Z" fill="black"/>
<path d="M23.6134 5.76438C24.6144 5.75023 25.3485 6.70231 25.0802 7.66672L22.2716 17.7644C22.0816 18.4476 21.4384 18.9041 20.7306 18.8591L7.7189 18.031C6.73265 17.9682 6.07589 16.9859 6.39468 16.0505L9.49429 6.96067C9.69895 6.36057 10.2588 5.95402 10.8927 5.94504L23.6134 5.76438ZM10.9064 6.94407C10.6953 6.94725 10.5088 7.08309 10.4406 7.28294L7.34097 16.3728C7.23463 16.6846 7.45359 17.012 7.78238 17.0329L20.7941 17.8611C21.0299 17.8761 21.2443 17.7243 21.3078 17.4968L24.1164 7.39817C24.2055 7.07688 23.9615 6.7598 23.6281 6.76438L10.9064 6.94407Z" fill="black"/>
<path d="M20.33 8.87244C20.7922 8.8659 21.1338 9.30107 21.0175 9.74842L19.5311 15.4613C19.4482 15.7799 19.154 15.998 18.8251 15.9847L11.2587 15.6762C10.7841 15.6566 10.4663 15.1794 10.6307 14.7338L12.5878 9.43006L12.6327 9.3324C12.753 9.11589 12.9812 8.97671 13.2343 8.97303L20.33 8.87244ZM13.454 9.9701L11.7118 14.6928L18.6239 14.975L19.9501 9.87732L13.454 9.9701Z" fill="black"/>
<path d="M23.8564 6.60337L24.1797 6.98423L20.7412 9.90416L20.418 9.52232L20.0947 9.14146L23.5322 6.22252L23.8564 6.60337Z" fill="black"/>
<path d="M21.4326 17.8291L20.6572 18.46L18.3936 15.6768L19.1689 15.0459L21.4326 17.8291Z" fill="black"/>
<path d="M11.25 15.034L11.4717 15.4822L7.3252 17.5291L6.88184 16.6316L11.0293 14.5857L11.25 15.034Z" fill="black"/>
<path d="M13.457 9.01215L12.7559 9.72504L10.1367 7.15082L10.8379 6.43793L13.457 9.01215Z" fill="black"/>
<path d="M27.3525 13.4045C27.9727 13.4045 28.4745 13.9094 28.4707 14.5295L28.3887 27.0315C28.386 27.4424 28.3155 27.91 28.1201 28.3117C27.9199 28.7234 27.5681 29.0988 27.0156 29.2072C26.8658 29.2366 26.7037 29.2494 26.5332 29.2356L26.5137 29.2336L14.8926 27.8205C10.9892 27.3458 7.58072 26.931 6.03809 26.7434C5.28366 26.6516 4.72168 26.0109 4.72168 25.2541V20.592H5.72168V25.2541C5.72168 25.5085 5.9098 25.7199 6.15918 25.7502C6.30206 25.7676 6.46097 25.7867 6.63477 25.8078C6.3523 25.5338 6.17871 25.1504 6.17871 24.7307V20.592H7.17871V24.7307C7.17871 24.9835 7.3673 25.1972 7.61816 25.2278L25.5264 27.3967C25.8217 27.4325 26.0832 27.2039 26.0869 26.9065L26.2344 14.509C26.2418 13.8969 26.7403 13.4045 27.3525 13.4045ZM27.3525 14.4045C27.288 14.4045 27.2354 14.4563 27.2344 14.5207L27.0869 26.9182C27.0803 27.4742 26.7735 27.9495 26.3291 28.2033L26.6172 28.2385C26.6863 28.2438 26.7551 28.2392 26.8232 28.2258C26.9849 28.194 27.1161 28.0894 27.2207 27.8742C27.3301 27.6491 27.3866 27.3424 27.3887 27.0256L27.4707 14.5237C27.4711 14.4582 27.418 14.4045 27.3525 14.4045Z" fill="black"/>
<path d="M28.0527 14.3726C28.2185 14.3728 28.3739 14.455 28.4668 14.5923L28.6318 14.8365C28.6878 14.9191 28.7177 15.0169 28.7178 15.1168V15.606C28.7177 15.7058 28.6878 15.8036 28.6318 15.8863L28.4668 16.1304C28.3739 16.2677 28.2185 16.35 28.0527 16.3502C27.8869 16.3502 27.7317 16.2677 27.6387 16.1304L27.4727 15.8863C27.4167 15.8036 27.3868 15.7058 27.3867 15.606V15.1168C27.3868 15.0169 27.4167 14.9191 27.4727 14.8365L27.6387 14.5923L27.6758 14.5435C27.7701 14.4356 27.9075 14.3726 28.0527 14.3726Z" fill="black"/>
<path d="M16.2085 22.0633C16.2516 21.9032 16.3712 21.7745 16.5279 21.7202L16.8065 21.624C16.9008 21.5914 17.003 21.5877 17.0994 21.6135L17.572 21.7402C17.6684 21.766 17.7551 21.8203 17.8205 21.8957L18.0136 22.1183C18.1222 22.2436 18.1614 22.415 18.1187 22.5751C18.0757 22.7353 17.9559 22.8639 17.7993 22.9182L17.5205 23.0154C17.4262 23.048 17.3239 23.0516 17.2275 23.0259L16.7549 22.8992C16.6585 22.8734 16.5718 22.8191 16.5064 22.7437L16.3136 22.5201L16.276 22.4717C16.1962 22.3527 16.1709 22.2036 16.2085 22.0633Z" fill="black"/>
<path d="M16.0669 21.4414C16.1194 21.2463 16.2842 21.1015 16.4845 21.0751L16.9131 21.0191C16.9781 21.0105 17.0444 21.0148 17.1078 21.0318L17.8785 21.2383C17.9418 21.2553 18.0014 21.2847 18.0535 21.3246L18.3966 21.5874C18.5569 21.7105 18.6272 21.9183 18.5751 22.1135C18.5228 22.3087 18.3579 22.4533 18.1575 22.4798L17.7287 22.5368C17.6637 22.5453 17.5973 22.541 17.534 22.524L16.7633 22.3175C16.6999 22.3005 16.6403 22.2711 16.5883 22.2312L16.2454 21.9674L16.1899 21.9182C16.0694 21.7933 16.0211 21.6125 16.0669 21.4414Z" fill="black"/>
<path d="M27.6123 14.1972C27.8018 14.1974 27.9751 14.3049 28.0596 14.4746L28.2246 14.8066C28.2591 14.8758 28.2773 14.952 28.2773 15.0293V15.6933C28.2773 15.7706 28.259 15.8468 28.2246 15.916L28.0596 16.248C27.9751 16.4177 27.8018 16.5252 27.6123 16.5254C27.4226 16.5254 27.2486 16.4178 27.1641 16.248L26.999 15.916C26.9646 15.8468 26.9463 15.7706 26.9463 15.6933V15.0293C26.9463 14.952 26.9646 14.8758 26.999 14.8066L27.1641 14.4746L27.2002 14.414C27.2926 14.2797 27.4463 14.1972 27.6123 14.1972Z" fill="black"/>
<path d="M21.0521 21.9642C20.9042 22.766 20.6001 23.997 20.1312 25.0335C19.8976 25.5499 19.6095 26.0481 19.2572 26.4212C18.9039 26.7954 18.4388 27.0902 17.8685 27.0706C17.3053 27.0512 16.9055 26.7609 16.6664 26.345C16.446 25.9617 16.3663 25.485 16.3451 25.0394C16.3023 24.1404 16.4899 23.1222 16.601 22.5667L17.5824 22.762C17.4709 23.3197 17.3078 24.2296 17.3441 24.9925C17.3625 25.3776 17.4302 25.666 17.5336 25.846C17.6183 25.9933 17.7199 26.0653 17.9037 26.0716C18.0807 26.0775 18.2875 25.9922 18.5306 25.7347C18.7748 25.476 19.008 25.0901 19.2201 24.6214C19.6428 23.6869 19.9285 22.5429 20.0687 21.7825L21.0521 21.9642Z" fill="black"/>
<path d="M17.6602 13.9865C17.6356 14.0788 17.5526 14.1411 17.46 14.1377L17.0106 14.1211C16.8791 14.1163 16.7881 13.988 16.8268 13.8623L16.934 13.5147C16.9599 13.4309 17.0374 13.3737 17.1252 13.3737H17.5631C17.6944 13.3737 17.7901 13.4982 17.7563 13.6251L17.6602 13.9865Z" fill="black"/>
<path d="M15.757 13.9279C15.7304 14.0142 15.6492 14.072 15.5589 14.0689L15.1653 14.0551C15.0337 14.0505 14.9424 13.9222 14.9812 13.7964L15.0679 13.5148C15.0937 13.4309 15.1712 13.3737 15.259 13.3737H15.6568C15.7914 13.3737 15.8876 13.5039 15.848 13.6325L15.757 13.9279Z" fill="black"/>
<path d="M13.9113 13.8622C13.8847 13.9486 13.8034 14.0065 13.713 14.0032L13.2744 13.9875C13.1417 13.9828 13.0501 13.8478 13.0908 13.7174L13.1544 13.514C13.1805 13.4305 13.2578 13.3737 13.3453 13.3737H13.7908C13.9253 13.3737 14.0215 13.5039 13.9819 13.6325L13.9113 13.8622Z" fill="black"/>
<path d="M14.3276 12.5107C14.3018 12.5947 14.2243 12.6519 14.1365 12.6519H13.6959C13.5609 12.6519 13.4647 12.5211 13.505 12.3923L13.5665 12.1955C13.5926 12.112 13.6699 12.0552 13.7574 12.0552H14.197C14.3315 12.0552 14.4277 12.1854 14.3881 12.314L14.3276 12.5107Z" fill="black"/>
<path d="M16.1938 12.5107C16.168 12.5947 16.0905 12.6519 16.0027 12.6519H15.6048C15.4702 12.6519 15.374 12.5217 15.4136 12.3931L15.4741 12.1964C15.5 12.1125 15.5775 12.0552 15.6653 12.0552H16.0632C16.1978 12.0552 16.2939 12.1854 16.2544 12.314L16.1938 12.5107Z" fill="black"/>
<path d="M18.0542 12.5035C18.0309 12.591 17.9516 12.6519 17.861 12.6519H17.471C17.3364 12.6519 17.2402 12.5217 17.2798 12.3931L17.3403 12.1964C17.3662 12.1125 17.4437 12.0552 17.5315 12.0552H17.9135C18.0449 12.0552 18.1406 12.1798 18.1067 12.3067L18.0542 12.5035Z" fill="black"/>
<path d="M14.7339 11.1923C14.7081 11.2762 14.6305 11.3335 14.5428 11.3335H14.1079C13.973 11.3335 13.8768 11.2026 13.917 11.0738L13.9893 10.8426C14.0159 10.7573 14.0929 10.6994 14.1797 10.6994H14.6149C14.7494 10.6994 14.8456 10.8297 14.806 10.9583L14.7339 11.1923Z" fill="black"/>
<path d="M16.6001 11.1923C16.5743 11.2762 16.4967 11.3335 16.409 11.3335H16.0111C15.8765 11.3335 15.7804 11.2032 15.82 11.0746L15.8921 10.8405C15.9179 10.7567 15.9954 10.6994 16.0832 10.6994H16.4811C16.6157 10.6994 16.7118 10.8297 16.6722 10.9583L16.6001 11.1923Z" fill="black"/>
<path d="M18.2725 10.6994C18.4043 10.6996 18.4998 10.8292 18.4648 10.9605L18.4049 11.1851C18.3815 11.2726 18.3022 11.3335 18.2116 11.3335H17.8773C17.7427 11.3335 17.6466 11.2032 17.6862 11.0746L17.7583 10.8405C17.7841 10.7567 17.8616 10.6994 17.9494 10.6994H18.2725Z" fill="black"/>
<path d="M17.5639 13.1232C17.8592 13.1235 18.0744 13.4042 17.9984 13.6897L17.9018 14.051C17.8481 14.2522 17.6642 14.3954 17.4516 14.3879L17.0014 14.3713C16.7058 14.3601 16.5011 14.071 16.5883 13.7883L16.6957 13.4406L16.723 13.3732C16.7981 13.2224 16.9528 13.1233 17.1254 13.1232H17.5639ZM15.6576 13.1232C15.9602 13.1235 16.1764 13.417 16.0873 13.7063L15.9965 14.0012C15.9366 14.1955 15.7534 14.3257 15.5502 14.3186L15.1566 14.3049C14.8608 14.2943 14.6555 14.0059 14.7426 13.7229L14.8295 13.4416L14.8568 13.3732C14.9319 13.2224 15.0866 13.1233 15.2592 13.1232H15.6576ZM13.7914 13.1232C14.094 13.1234 14.3101 13.417 14.2211 13.7063L14.1508 13.9357C14.0909 14.1302 13.9079 14.2604 13.7045 14.2531L13.266 14.2375C12.9581 14.2264 12.7662 13.9204 12.8529 13.6428L12.9164 13.4397L12.9438 13.3723C13.0191 13.2219 13.1738 13.1232 13.3461 13.1232H13.7914ZM17.0844 13.8732L17.4281 13.8859L17.4984 13.6232H17.1625L17.0844 13.8732ZM15.2387 13.8068L15.5297 13.8166L15.5902 13.6232H15.2963L15.2387 13.8068ZM13.3451 13.7395L13.683 13.7512L13.723 13.6232H13.3822L13.3451 13.7395ZM14.1977 11.8049C14.5003 11.8051 14.7163 12.0986 14.6273 12.3879L14.5668 12.5842C14.5087 12.7729 14.3346 12.9015 14.1371 12.9016H13.6967C13.3931 12.9016 13.1764 12.6074 13.267 12.3176L13.3285 12.1213L13.3559 12.0539C13.4311 11.9035 13.5859 11.8049 13.7582 11.8049H14.1977ZM16.0639 11.8049C16.3665 11.8051 16.5826 12.0986 16.4936 12.3879L16.433 12.5842C16.3749 12.7729 16.2008 12.9015 16.0033 12.9016H15.6049C15.3023 12.9014 15.0862 12.6088 15.1752 12.3195L15.2357 12.1232L15.2631 12.0549C15.3381 11.904 15.4928 11.805 15.6654 11.8049H16.0639ZM17.9135 11.8049C18.2092 11.8049 18.4252 12.0856 18.349 12.3713L18.2963 12.5676C18.2438 12.7644 18.0654 12.9014 17.8617 12.9016H17.4711C17.1685 12.9014 16.9524 12.6088 17.0414 12.3195L17.102 12.1232L17.1293 12.0549C17.2043 11.904 17.359 11.805 17.5316 11.8049H17.9135ZM17.5395 12.4016H17.8227L17.849 12.3049H17.5688L17.5395 12.4016ZM15.6732 12.4016H15.9662L15.9965 12.3049H15.7025L15.6732 12.4016ZM13.7641 12.4016H14.1L14.1303 12.3049H13.7943L13.7641 12.4016ZM14.6156 10.4494C14.9181 10.4497 15.1341 10.7423 15.0453 11.0314L14.973 11.2658C14.9149 11.4545 14.7408 11.5831 14.5434 11.5832H14.1088C13.8052 11.5832 13.5886 11.289 13.6791 10.9992L13.7514 10.7678L13.7777 10.7014C13.8519 10.5515 14.0045 10.4494 14.1801 10.4494H14.6156ZM16.4818 10.4494C16.7843 10.4497 17.0003 10.7423 16.9115 11.0314L16.8393 11.2658C16.7811 11.4545 16.607 11.5831 16.4096 11.5832H16.0111C15.7086 11.583 15.4925 11.2904 15.5814 11.0012L15.6537 10.7668L15.6811 10.6994C15.756 10.5483 15.9106 10.4495 16.0834 10.4494H16.4818ZM18.2729 10.4494L18.3832 10.4631C18.6259 10.5239 18.7714 10.7803 18.7064 11.0246L18.6469 11.2492C18.5943 11.446 18.416 11.5831 18.2123 11.5832H17.8773C17.5748 11.583 17.3587 11.2904 17.4477 11.0012L17.5199 10.7668L17.5473 10.6994C17.6223 10.5483 17.7769 10.4495 17.9496 10.4494H18.2729ZM17.9457 11.0832H18.1732L18.2094 10.9494H17.9867L17.9457 11.0832ZM16.0795 11.0832H16.3725L16.4145 10.9494H16.1205L16.0795 11.0832ZM14.1762 11.0832H14.5063L14.5482 10.9494H14.2182L14.1762 11.0832Z" fill="black"/>
</svg>
