<svg width="32" height="32" viewBox="0 0 32 32" fill="none" xmlns="http://www.w3.org/2000/svg">
<rect width="32" height="32" fill="white"/>
<path d="M16.5 2.21812L16.5 30.4632L15.5 30.4632L15.5 2.21812L16.5 2.21812Z" fill="black"/>
<path d="M24.2812 3.48508L7.72754 3.48508C7.4514 3.48508 7.22754 3.26122 7.22754 2.98508C7.22754 2.70893 7.4514 2.48508 7.72754 2.48508L24.2812 2.48508C24.5574 2.48508 24.7812 2.70893 24.7812 2.98508C24.7812 3.26122 24.5574 3.48508 24.2812 3.48508Z" fill="black"/>
<path d="M20.7539 5.69786H23.1826V6.69786H20.7539V5.69786Z" fill="black"/>
<path d="M8.56934 5.69786H10.998V6.69786H8.56934V5.69786Z" fill="black"/>
<path d="M21.542 5.48647L21.542 3.37904L22.542 3.37904L22.542 5.48647L21.542 5.48647Z" fill="black"/>
<path d="M10.458 5.48647L10.458 3.37904L9.45801 3.37904L9.45801 5.48647L10.458 5.48647Z" fill="black"/>
<path d="M12.9844 30.0011H19.0166V31.0011H12.9844V30.0011Z" fill="black"/>
<path d="M14.9004 30.2795L14.9004 21.4778L17.0996 21.4778L17.0996 30.2795L14.9004 30.2795Z" fill="black"/>
<path d="M16.7484 1.73851C16.7484 2.15175 16.4134 2.48674 16.0002 2.48674C15.5869 2.48674 15.252 2.15175 15.252 1.73851C15.252 1.32527 15.5869 0.99028 16.0002 0.99028C16.4134 0.99028 16.7484 1.32527 16.7484 1.73851Z" fill="black"/>
<path d="M16.4668 9.48758C16.4668 8.6934 16.6229 7.90687 16.9268 7.17313C17.2307 6.43925 17.6766 5.77192 18.2383 5.21024C18.8 4.64857 19.4673 4.20366 20.2012 3.89969C20.935 3.59575 21.7213 3.43875 22.5156 3.43875L22.5156 4.43875C21.8526 4.43875 21.1956 4.56979 20.583 4.82352C19.9707 5.07723 19.414 5.4486 18.9453 5.91727C18.4765 6.38609 18.1053 6.94339 17.8516 7.55594C17.5979 8.16842 17.4668 8.82464 17.4668 9.48758L16.4668 9.48758Z" fill="black"/>
<path d="M15.5332 9.48758C15.5332 8.6934 15.3771 7.90687 15.0732 7.17313C14.7693 6.43925 14.3234 5.77192 13.7617 5.21024C13.2 4.64857 12.5327 4.20366 11.7988 3.89969C11.065 3.59575 10.2787 3.43875 9.48438 3.43875L9.48438 4.43875C10.1474 4.43875 10.8044 4.56979 11.417 4.82352C12.0293 5.07723 12.586 5.4486 13.0547 5.91727C13.5235 6.38609 13.8947 6.94339 14.1484 7.55594C14.4021 8.16842 14.5332 8.82464 14.5332 9.48758L15.5332 9.48758Z" fill="black"/>
<path d="M23.2812 7.43552C23.281 6.75106 22.7255 6.19628 22.041 6.19628C21.3567 6.19652 20.802 6.75121 20.8017 7.43552C20.8017 8.12003 21.3565 8.67549 22.041 8.67573V9.67572L21.8125 9.664C20.6831 9.54931 19.8018 8.59516 19.8018 7.43552C19.802 6.19894 20.8044 5.19654 22.041 5.19629C23.2778 5.19629 24.2809 6.19878 24.2812 7.43552L24.2695 7.66501C24.1548 8.79436 23.2006 9.67572 22.041 9.67572V8.67573C22.7257 8.67573 23.2812 8.12018 23.2812 7.43552Z" fill="black"/>
<path d="M8.7188 7.43552C8.71904 6.75106 9.2745 6.19628 9.95901 6.19628C10.6433 6.19652 11.198 6.75121 11.1983 7.43552C11.1983 8.12003 10.6435 8.67549 9.95901 8.67573V9.67572L10.1875 9.664C11.3169 9.54931 12.1982 8.59516 12.1982 7.43552C12.198 6.19894 11.1956 5.19654 9.95901 5.19629C8.72222 5.19629 7.71906 6.19878 7.71881 7.43552L7.73053 7.66501C7.84525 8.79436 8.7994 9.67572 9.95901 9.67572V8.67573C9.27435 8.67573 8.7188 8.12018 8.7188 7.43552Z" fill="black"/>
</svg>
