<svg viewBox="0 0 56 56" xmlns="http://www.w3.org/2000/svg" xmlns:xlink="http://www.w3.org/1999/xlink" width="56.000000" height="56.000000" fill="none">
	<rect id="Icon/Luminaires/333_stolb_fonar 1" width="56.000000" height="56.000000" x="0.000000" y="0.000000" />
	<path id="Icon" d="M27.125 4.01611L27.125 4.34894L13.5232 4.34894C13.04 4.34894 12.6482 4.74072 12.6482 5.22394C12.6482 5.70715 13.04 6.09894 13.5232 6.09894L16.5515 6.09894L16.5515 9.19199C14.809 9.58997 13.5083 11.1492 13.5079 13.0122L13.5284 13.4138C13.7292 15.39 15.3989 16.9324 17.4282 16.9324L17.8281 16.9119C19.8046 16.7113 21.3468 15.0416 21.3468 13.0122C21.3465 11.1483 20.0452 9.58847 18.3015 9.19135L18.3015 7.93396C18.875 8.04675 19.4373 8.21637 19.9797 8.4411C21.0513 8.88501 22.0255 9.53506 22.8457 10.3552C23.6661 11.1757 24.3158 12.1509 24.7597 13.2228C25.2037 14.2946 25.4331 15.443 25.4331 16.6032L27.125 16.6032L27.125 37.5861L26.0757 37.5861L26.0757 52.5019L22.7227 52.5019L22.7227 54.2519L33.2791 54.2519L33.2791 52.5019L29.9243 52.5019L29.9243 37.5861L28.875 37.5861L28.875 16.6032L30.5669 16.6032C30.5669 15.443 30.7963 14.2946 31.2403 13.2228C31.6842 12.1509 32.3339 11.1757 33.1543 10.3552C33.9745 9.53506 34.9487 8.88501 36.0203 8.4411C36.5627 8.21637 37.125 8.04675 37.6985 7.93396L37.6985 9.19135C35.9548 9.58847 34.6535 11.1483 34.6532 13.0122C34.6532 15.0416 36.1954 16.7113 38.1719 16.9119L38.5718 16.9324C40.6011 16.9324 42.271 15.39 42.4717 13.4138L42.4922 13.0122C42.4917 11.1492 41.191 9.58997 39.4485 9.19199L39.4485 6.09894L42.4921 6.09894C42.9754 6.09894 43.3671 5.70715 43.3671 5.22394C43.3671 4.74072 42.9754 4.34894 42.4921 4.34894L28.875 4.34894L28.875 4.01675C29.1418 3.77707 29.3097 3.42929 29.3097 3.04242C29.3097 2.31909 28.7234 1.73291 28.0004 1.73291C27.2771 1.73291 26.691 2.31909 26.691 3.04242C26.691 3.42886 26.8585 3.77643 27.125 4.01611ZM37.6985 6.09894L28.875 6.09894L28.875 15.4947C28.9812 14.4851 29.232 13.4944 29.6219 12.5529C30.1537 11.2686 30.934 10.1007 31.917 9.11786C32.9 8.13498 34.0677 7.35632 35.3521 6.8244C36.1077 6.51144 36.8952 6.28757 37.6985 6.15619L37.6985 6.09894ZM18.3015 6.09894L27.125 6.09894L27.125 15.4949C27.0188 14.4854 26.768 13.4944 26.3781 12.5529C25.8463 11.2686 25.0659 10.1007 24.083 9.11786C23.1 8.13498 21.9323 7.35632 20.6478 6.8244C19.8923 6.51144 19.1048 6.28757 18.3015 6.15619L18.3015 6.09894ZM15.6845 11.7213L19.1706 11.7213C19.4384 12.0819 19.5968 12.5286 19.597 13.0122C19.597 14.21 18.6261 15.1822 17.4282 15.1826C16.2301 15.1826 15.2579 14.2104 15.2579 13.0122C15.258 12.5286 15.4166 12.0819 15.6845 11.7213ZM36.8294 11.7213L40.3156 11.7213C40.5835 12.0819 40.742 12.5286 40.7422 13.0122C40.7422 14.2104 39.77 15.1826 38.5718 15.1826C37.3739 15.1822 36.403 14.21 36.403 13.0122C36.4032 12.5286 36.5617 12.0819 36.8294 11.7213Z" fill="rgb(0,0,0)" fill-rule="evenodd" />
</svg>
