<svg width="32" height="32" viewBox="0 0 32 32" fill="none" xmlns="http://www.w3.org/2000/svg">
<g clip-path="url(#clip0_424_524)">
<path fill-rule="evenodd" clip-rule="evenodd" d="M16 0.170898C16.5212 0.170898 16.9443 0.593988 16.9443 1.11523C16.9443 1.45262 16.7663 1.74722 16.5 1.91406V2.1875H28.2627C28.5387 2.18759 28.7626 2.41145 28.7627 2.6875C28.7627 2.96359 28.5388 3.18741 28.2627 3.1875H25.4834V5.59668C26.8784 5.83526 27.9411 7.04693 27.9414 8.50977L27.9375 8.66211C27.8584 10.2259 26.5649 11.4697 24.9814 11.4697L24.8291 11.4658C23.2657 11.3864 22.0225 10.0929 22.0225 8.50977C22.0228 7.04567 23.0868 5.83281 24.4834 5.5957V3.1875H24.4766V3.81738C23.4291 3.81738 22.3916 4.02394 21.4238 4.4248C20.4562 4.82566 19.5765 5.41273 18.8359 6.15332C18.0954 6.8939 17.5082 7.77364 17.1074 8.74121C16.7567 9.58791 16.5548 10.4879 16.5098 11.4014L16.5 11.7939V22.542H17.0996V31.0342H32V32.0342H0.000976562V31.0342H14.9004V22.542H15.5V11.7939L15.4902 11.4014C15.4452 10.4879 15.2433 9.58791 14.8926 8.74121C14.4918 7.77364 13.9046 6.8939 13.1641 6.15332C12.4235 5.41273 11.5438 4.82566 10.5762 4.4248C9.60841 4.02394 8.57093 3.81738 7.52344 3.81738V3.1875H7.5166V5.5957C8.91325 5.83281 9.97723 7.04567 9.97754 8.50977C9.97754 10.0929 8.73433 11.3864 7.1709 11.4658L7.01855 11.4697C5.43513 11.4697 4.1416 10.2259 4.0625 8.66211L4.05859 8.50977C4.0589 7.04693 5.12162 5.83526 6.5166 5.59668V3.1875H3.74902C3.47288 3.1875 3.24902 2.96364 3.24902 2.6875C3.24907 2.4114 3.47291 2.1875 3.74902 2.1875H15.5V1.91406C15.2341 1.74714 15.0567 1.45235 15.0566 1.11523C15.0566 0.594135 15.479 0.171136 16 0.170898ZM5.42383 7.37402C5.19485 7.69453 5.05873 8.08595 5.05859 8.50977C5.05859 9.59188 5.93644 10.4697 7.01855 10.4697C8.10051 10.4695 8.97754 9.59176 8.97754 8.50977C8.97741 8.0859 8.84121 7.69455 8.6123 7.37402H5.42383ZM23.3877 7.37402C23.1588 7.69455 23.0226 8.0859 23.0225 8.50977C23.0225 9.59176 23.8995 10.4695 24.9814 10.4697C26.0636 10.4697 26.9414 9.59188 26.9414 8.50977C26.9413 8.08595 26.8051 7.69453 26.5762 7.37402H23.3877ZM10.0723 3.1875C10.3725 3.27642 10.6686 3.38071 10.959 3.50098C12.0479 3.95209 13.0377 4.61288 13.8711 5.44629C14.5279 6.10309 15.0758 6.85769 15.5 7.68066V3.1875H10.0723ZM16.5 7.68066C16.9242 6.85769 17.4721 6.10309 18.1289 5.44629C18.9623 4.61288 19.9521 3.95209 21.041 3.50098C21.3314 3.38071 21.6275 3.27642 21.9277 3.1875H16.5V7.68066Z" fill="black"/>
</g>
<defs>
<clipPath id="clip0_424_524">
<rect width="32" height="32" fill="white"/>
</clipPath>
</defs>
</svg>
