<svg width="32" height="32" viewBox="0 0 32 32" fill="none" xmlns="http://www.w3.org/2000/svg">
<rect width="32" height="32" fill="white"/>
<path d="M7.7666 25.6777L7.27148 25.747L6.77637 25.8173L5.77637 18.7334L6.7666 18.5927L7.7666 25.6777ZM26.2236 18.7334L25.2236 25.8173L24.7285 25.747L24.2334 25.6777L25.2334 18.5927L26.2236 18.7334Z" fill="black"/>
<path d="M7.76953 25.5719C7.76953 26.6822 8.56686 27.7869 10.0732 28.6422C11.565 29.4892 13.6595 30.029 16 30.029C18.3405 30.029 20.435 29.4892 21.9268 28.6422C23.4331 27.7869 24.2305 26.6822 24.2305 25.5719H25.2305C25.2305 27.1992 24.0732 28.5727 22.4199 29.5114C20.7518 30.4584 18.4812 31.029 16 31.029C13.5188 31.029 11.2482 30.4584 9.58008 29.5114C7.92675 28.5727 6.76953 27.1992 6.76953 25.5719H7.76953Z" fill="black"/>
<path d="M7.55664 23.7824C7.55664 24.8865 8.37062 25.9916 9.91895 26.8498C11.4501 27.6983 13.5989 28.2394 16 28.2394C18.4011 28.2394 20.5499 27.6983 22.0811 26.8498C23.6294 25.9916 24.4434 24.8865 24.4434 23.7824H25.4434C25.4434 25.4158 24.2549 26.7889 22.5664 27.7248C20.8607 28.6702 18.5381 29.2394 16 29.2394C13.4619 29.2394 11.1393 28.6702 9.43359 27.7248C7.7451 26.7889 6.55664 25.4158 6.55664 23.7824H7.55664Z" fill="black"/>
<path d="M7.1543 21.304C7.1543 22.3968 7.99814 23.5041 9.62598 24.3674C11.2317 25.219 13.4844 25.761 16 25.761C18.5156 25.761 20.7683 25.219 22.374 24.3674C24.0019 23.5041 24.8457 22.3968 24.8457 21.304H25.8457C25.8457 22.9487 24.5973 24.3196 22.8428 25.2503C21.066 26.1926 18.6458 26.761 16 26.761C13.3542 26.761 10.934 26.1926 9.15723 25.2503C7.40271 24.3196 6.1543 22.9487 6.1543 21.304H7.1543Z" fill="black"/>
<path d="M7.1543 21.304C7.1543 22.3968 7.99814 23.5041 9.62598 24.3674C11.2317 25.219 13.4844 25.761 16 25.761C18.5156 25.761 20.7683 25.219 22.374 24.3674C24.0019 23.5041 24.8457 22.3968 24.8457 21.304H25.8457C25.8457 22.9487 24.5973 24.3196 22.8428 25.2503C21.066 26.1926 18.6458 26.761 16 26.761C13.3542 26.761 10.934 26.1926 9.15723 25.2503C7.40271 24.3196 6.1543 22.9487 6.1543 21.304H7.1543Z" fill="black"/>
<path d="M6.81055 18.8255C6.81055 19.9088 7.68006 21.0174 9.37598 21.8851C11.0454 22.7391 13.3867 23.2826 16 23.2826C18.6133 23.2826 20.9546 22.7391 22.624 21.8851C24.3199 21.0174 25.1895 19.9088 25.1895 18.8255H26.1895C26.1895 20.4797 24.8898 21.8494 23.0791 22.7757C21.2416 23.7157 18.738 24.2826 16 24.2826C13.262 24.2826 10.7584 23.7157 8.9209 22.7757C7.11015 21.8494 5.81055 20.4797 5.81055 18.8255H6.81055Z" fill="black"/>
<path d="M29.5244 11.5569C29.5244 9.02876 28.1213 6.65362 25.6807 4.87338C23.2409 3.09382 19.8217 1.96227 16 1.96227C12.1783 1.96227 8.75908 3.09382 6.31934 4.87338C3.87875 6.65362 2.47559 9.02876 2.47559 11.5569C2.47562 14.0851 3.87877 16.4602 6.31934 18.2405C8.75907 20.02 12.1784 21.1516 16 21.1516V22.1516L15.2529 22.1379C7.70231 21.8588 1.67305 17.3735 1.48047 11.8304L1.47559 11.5569C1.47559 5.70571 7.97839 0.96228 16 0.96228C24.0216 0.96228 30.5244 5.70571 30.5244 11.5569L30.5195 11.8304C30.3206 17.5552 23.8962 22.1516 16 22.1516V21.1516C19.8216 21.1516 23.2409 20.02 25.6807 18.2405C28.1212 16.4602 29.5244 14.0851 29.5244 11.5569Z" fill="black"/>
<path d="M25.1699 10.5253C25.1699 8.92417 24.2643 7.38063 22.6104 6.19815C20.9581 5.01701 18.6239 4.25484 16 4.25479C13.376 4.25479 11.042 5.01697 9.38965 6.19815C7.7355 7.38066 6.8291 8.92405 6.8291 10.5253C6.8291 12.1265 7.7355 13.6699 9.38965 14.8524C11.042 16.0336 13.376 16.7958 16 16.7958V17.7958L15.4766 17.786C10.1026 17.5914 5.8291 14.4153 5.8291 10.5253C5.8291 6.50991 10.3829 3.25479 16 3.25479L16.5234 3.26456C21.8971 3.45941 26.1699 6.63547 26.1699 10.5253C26.1699 14.5406 21.617 17.7957 16 17.7958V16.7958C18.6239 16.7958 20.9581 16.0336 22.6104 14.8524C24.2643 13.67 25.1699 12.1264 25.1699 10.5253Z" fill="black"/>
<path d="M15.999 5.01396C21.2097 5.01396 25.6669 8.2913 25.667 12.5862H24.667C24.6669 9.06933 20.9141 6.01396 15.999 6.01396C11.084 6.01407 7.3321 9.06939 7.33203 12.5862H6.33203C6.3321 8.29138 10.7885 5.01408 15.999 5.01396Z" fill="black"/>
<path d="M14.6328 8.4958C14.6327 8.41104 14.5891 8.25869 14.3691 8.09346C14.1485 7.92777 13.7978 7.79562 13.3682 7.79561C12.9385 7.79561 12.5879 7.92776 12.3672 8.09346C12.1472 8.25871 12.1036 8.41103 12.1035 8.4958C12.1035 8.58055 12.1469 8.73368 12.3672 8.89912C12.5879 9.06478 12.9386 9.19698 13.3682 9.19698V10.197L13.1367 10.1882C11.9947 10.1012 11.1035 9.37629 11.1035 8.4958C11.1037 7.55679 12.1176 6.79561 13.3682 6.79561L13.5996 6.8044C14.7414 6.89146 15.6326 7.61548 15.6328 8.4958L15.6211 8.66963C15.5053 9.52721 14.5408 10.197 13.3682 10.197V9.19698C13.7977 9.19696 14.1485 9.0648 14.3691 8.89912C14.5895 8.73368 14.6328 8.58055 14.6328 8.4958Z" fill="black"/>
<path d="M13.4185 14.3775C14.1397 14.5175 14.7767 14.8454 15.2185 15.2878C15.6579 15.7279 15.941 16.3274 15.8164 16.9696L14.8347 16.7791C14.877 16.5608 14.796 16.2799 14.5105 15.994C14.2276 15.7108 13.7796 15.4663 13.2281 15.3592C12.6763 15.2522 12.1687 15.3112 11.8003 15.4682C11.4287 15.6265 11.2484 15.8567 11.2061 16.0751L10.2244 15.8846C10.349 15.2423 10.8366 14.7924 11.4087 14.5486C11.984 14.3036 12.6973 14.2376 13.4185 14.3775Z" fill="black"/>
<path d="M18.9115 14.3775C18.1904 14.5175 17.5534 14.8454 17.1115 15.2878C16.6722 15.7279 16.3891 16.3274 16.5137 16.9696L17.4954 16.7791C17.453 16.5608 17.5341 16.2799 17.8196 15.994C18.1025 15.7108 18.5505 15.4663 19.102 15.3592C19.6537 15.2522 20.1614 15.3112 20.5298 15.4682C20.9014 15.6265 21.0816 15.8567 21.124 16.0751L22.1057 15.8846C21.9811 15.2423 21.4935 14.7924 20.9213 14.5486C20.3461 14.3036 19.6327 14.2376 18.9115 14.3775Z" fill="black"/>
<path d="M11.9092 12.1429C11.9091 11.8294 11.4855 11.1965 10.4375 11.1965C9.38985 11.1967 8.96689 11.8295 8.96679 12.1429C8.96679 12.4563 9.38973 13.089 10.4375 13.0892V14.0893C9.07292 14.0891 7.9668 13.2178 7.9668 12.1429C7.96687 11.068 9.07296 10.1967 10.4375 10.1965C11.8022 10.1965 12.9091 11.0679 12.9091 12.1429L12.8965 12.3421C12.7699 13.3236 11.7169 14.0893 10.4375 14.0893V13.0892C11.4856 13.0892 11.9092 12.4563 11.9092 12.1429Z" fill="black"/>
<path d="M20.0371 8.4958C20.037 8.41104 19.9934 8.25869 19.7734 8.09346C19.5528 7.92777 19.2021 7.79562 18.7725 7.79561C18.3428 7.79561 17.9922 7.92776 17.7715 8.09346C17.5515 8.25871 17.5079 8.41103 17.5078 8.4958C17.5078 8.58055 17.5512 8.73368 17.7715 8.89912C17.9922 9.06478 18.3429 9.19698 18.7725 9.19698V10.197L18.541 10.1882C17.399 10.1012 16.5078 9.37629 16.5078 8.4958C16.508 7.55679 17.5219 6.79561 18.7725 6.79561L19.0039 6.8044C20.1457 6.89146 21.0369 7.61548 21.0371 8.4958L21.0254 8.66963C20.9096 9.52721 19.9451 10.197 18.7725 10.197V9.19698C19.202 9.19696 19.5528 9.0648 19.7734 8.89912C19.9938 8.73368 20.0371 8.58055 20.0371 8.4958Z" fill="black"/>
<path d="M17.3105 12.2325C17.3102 11.8323 16.8407 11.1964 15.8389 11.1964C14.8373 11.1966 14.3685 11.8324 14.3682 12.2325C14.3682 12.6326 14.837 13.2694 15.8389 13.2696V14.2695L15.5869 14.2588C14.3407 14.1546 13.3682 13.287 13.3682 12.2325C13.3684 11.1081 14.4744 10.1967 15.8389 10.1965C17.2035 10.1965 18.3103 11.108 18.3105 12.2325L18.2978 12.4415C18.1711 13.4682 17.1182 14.2695 15.8389 14.2695V13.2696C16.841 13.2696 17.3105 12.6327 17.3105 12.2325Z" fill="black"/>
<path d="M22.7148 12.1429C22.7147 11.8294 22.2911 11.1965 21.2431 11.1965C20.1955 11.1967 19.7726 11.8295 19.7725 12.1429C19.7725 12.4563 20.1954 13.089 21.2431 13.0892V14.0893C19.8786 14.0891 18.7725 13.2178 18.7725 12.1429C18.7725 11.068 19.8786 10.1967 21.2431 10.1965C22.6079 10.1965 23.7147 11.0679 23.7148 12.1429L23.7021 12.3421C23.5755 13.3236 22.5226 14.0893 21.2431 14.0893V13.0892C22.2912 13.0892 22.7148 12.4563 22.7148 12.1429Z" fill="black"/>
</svg>
