<svg width="32" height="32" viewBox="0 0 32 32" fill="none" xmlns="http://www.w3.org/2000/svg">
<rect width="32" height="32" fill="white"/>
<path d="M15.9961 1.08789C19.3619 1.08832 22.0898 3.81781 22.0898 7.18359C22.0896 8.51012 21.6631 9.73634 20.9434 10.7363C20.9149 10.782 20.8832 10.8247 20.8486 10.8643C20.8152 10.9082 20.7817 10.9521 20.7471 10.9951V12.8906L20.7324 13.0439C20.6662 13.3863 20.388 13.613 20.1729 13.7441C19.9339 13.8897 19.6262 14.0068 19.2832 14.1045C19.1449 14.9906 18.5436 15.721 17.7324 16.041V28.9951H19.0586C18.7501 26.4935 19.4553 23.8746 21.3066 22.3164C21.4149 22.2235 21.5232 22.1375 21.6377 22.0518C21.5344 22.1502 21.4383 22.2484 21.3428 22.3525C19.6832 24.1386 19.3925 26.7504 19.9766 28.9951H20.7002C20.8646 26.8779 21.4676 24.9708 22.0898 23.0518C22.1272 22.9408 22.166 22.8277 22.2051 22.7139C22.1824 22.8325 22.1607 22.9508 22.1396 23.0664C21.7952 25.0311 21.4864 27.0662 21.6055 28.9951H22.6191C22.8448 26.7408 23.8144 24.6592 25.3447 23.1582C25.4334 23.0717 25.5227 22.9879 25.6152 22.9053C25.5346 22.9998 25.4586 23.0951 25.3828 23.1924C24.0905 24.8576 23.4718 26.9775 23.5342 28.9951H24.7461C24.8218 27.2216 25.2879 25.4225 26.4727 24.1211C26.544 24.0453 26.618 23.9724 26.6943 23.9023C26.6302 23.9836 26.5694 24.0664 26.5117 24.1514C25.5607 25.6081 25.4329 27.3837 25.6377 28.9951H26.9131C27.4415 27.0386 27.9258 24.9173 27.3516 23.0186C27.3045 22.9114 27.2467 22.8086 27.1768 22.7168C27.2598 22.7971 27.3331 22.8922 27.3965 22.9932C28.2449 24.8113 28.0739 26.9323 27.8076 28.9951H29.3926C29.3872 27.4056 29.3083 25.8027 29.0127 24.2266C28.9932 24.1276 28.9706 24.0232 28.9482 23.9248C28.9864 24.0182 29.025 24.1181 29.0605 24.2129C29.6184 25.7544 29.962 27.3677 30.2314 28.9951H30.999V29.9951H30.3809C30.381 29.9963 30.3817 29.9979 30.3818 29.999C30.0485 30.0002 29.7151 30.0007 29.3818 30.002C29.3821 30 29.3816 29.9973 29.3818 29.9951H17.7324V30.9961H16.7324V16.2168H15.252V30.9961H14.252V29.9951H1.00098V28.9951H2.15918C2.01588 27.2585 2.47444 25.2858 3.28418 23.7373C3.32892 23.6443 3.37505 23.549 3.42285 23.4521C3.39043 23.5553 3.35926 23.6569 3.33008 23.7559C2.77644 25.5171 2.62841 27.1817 3.07324 28.9951H4.14258C4.31652 28.2293 4.57909 27.5589 4.64746 26.8447C4.74978 25.9487 4.58644 25.0002 4.30664 24.083C4.27674 23.9838 4.24365 23.8822 4.20898 23.7783C4.25849 23.8759 4.30647 23.9717 4.35156 24.0654C4.76581 24.9325 5.09066 25.8756 5.13379 26.8809C5.17281 27.6185 5.04241 28.3303 4.98145 28.9951H6.44629C6.69083 27.066 6.87096 25.001 6.01367 23.2031C5.95339 23.0999 5.88657 23.0015 5.81152 22.9102C5.89872 22.9901 5.98029 23.079 6.05566 23.1748C7.17788 24.8747 7.30126 26.9811 7.33008 28.9951H8.36328C8.64212 27.4947 8.5794 25.8319 7.79492 24.4551C7.74823 24.3753 7.69949 24.2976 7.64746 24.2207C7.71231 24.2865 7.77422 24.3545 7.83496 24.4248C8.85956 25.6394 9.26676 27.3123 9.26074 28.9951H10.1494C10.3651 26.6818 10.3952 24.1259 8.9375 22.1777C8.84932 22.0712 8.75419 21.9674 8.65332 21.8711C8.76487 21.9546 8.8721 22.0462 8.97363 22.1426C10.6866 23.9366 10.9946 26.566 11.0596 28.9951H12.0771C12.0871 28.9554 12.0984 28.9155 12.1074 28.8779C12.4886 26.9579 12.8197 24.5982 11.2832 23.0166C11.1946 22.9361 11.1028 22.8629 11.0029 22.7939C11.111 22.8487 11.2129 22.9084 11.3135 22.9775C13.1113 24.379 13.1647 26.9071 13.0518 28.9951H14.252V16.04C13.4418 15.7196 12.8403 14.9898 12.7021 14.1045C12.3595 14.0068 12.0523 13.8896 11.8135 13.7441C11.5677 13.5944 11.2395 13.3202 11.2393 12.8906H11.2402V10.9912C11.2098 10.9533 11.179 10.9156 11.1494 10.877C11.1061 10.829 11.0672 10.7761 11.0332 10.7188C10.3214 9.72207 9.90067 8.50209 9.90039 7.18359C9.90039 3.81747 12.63 1.08789 15.9961 1.08789ZM18.1816 14.335C17.5291 14.4315 16.7819 14.4873 15.9932 14.4873C15.204 14.4873 14.4565 14.4316 13.8037 14.335C14.0394 14.8546 14.5623 15.2166 15.1699 15.2168H16.8164C17.4241 15.2168 17.9459 14.8545 18.1816 14.335ZM19.7471 11.4629C19.6188 11.5024 19.4845 11.5407 19.3447 11.5742C18.4687 11.7842 17.2837 11.9092 15.9932 11.9092C14.7029 11.9092 13.5185 11.7841 12.6426 11.5742C12.5028 11.5407 12.3685 11.5024 12.2402 11.4629V12.8232C12.2576 12.8385 12.2866 12.8617 12.334 12.8906C12.4893 12.9852 12.7478 13.0882 13.1104 13.1816C13.8287 13.3667 14.8483 13.4873 15.9932 13.4873C17.1381 13.4873 18.1576 13.3668 18.876 13.1816C19.2387 13.0881 19.497 12.9852 19.6523 12.8906C19.7007 12.8612 19.7298 12.8375 19.7471 12.8223V11.4629ZM15.9961 2.08789C13.1823 2.08789 10.9004 4.36975 10.9004 7.18359C10.9007 8.32943 11.2806 9.3852 11.9199 10.2363C11.94 10.2525 11.9733 10.2752 12.0254 10.3047C12.1984 10.4026 12.4819 10.5073 12.875 10.6016C13.6545 10.7884 14.7574 10.9092 15.9932 10.9092C17.229 10.9092 18.3318 10.7884 19.1113 10.6016C19.5049 10.5072 19.7889 10.4027 19.9619 10.3047C20.0239 10.2696 20.058 10.2426 20.0762 10.2266C20.7114 9.37702 21.0896 8.32542 21.0898 7.18359C21.0898 4.36994 18.8095 2.08832 15.9961 2.08789Z" fill="black"/>
</svg>
