<svg width="32" height="32" viewBox="0 0 32 32" fill="none" xmlns="http://www.w3.org/2000/svg">
<rect width="32" height="32" fill="white"/>
<path d="M17.5889 13.2801V20.9922H14.4102V13.2801H17.5889ZM15.4102 19.9922H16.5889V14.2801H15.4102V19.9922Z" fill="black"/>
<path d="M15.5273 13.2727L16.4727 13.2727C17.2885 13.2727 17.9502 12.611 17.9502 11.7951L18.9502 11.7951C18.9502 13.1633 17.8408 14.2727 16.4727 14.2727L15.5273 14.2727C14.1592 14.2727 13.0498 13.1633 13.0498 11.7951L14.0498 11.7951C14.0498 12.611 14.7115 13.2727 15.5273 13.2727Z" fill="black"/>
<path d="M12.8076 11.3193L11.8076 11.3193L11.8076 9.35055L12.8076 9.35055L12.8076 11.3193ZM20.1914 11.3193L19.1914 11.3193L19.1914 9.35055L20.1914 9.35055L20.1914 11.3193Z" fill="black"/>
<path d="M17.0049 27.4982L17.5889 21.0128V19.9942H14.4102V21.0128L15.0068 27.4982L16 31.004L17.0049 27.4982ZM15.9941 27.3126L15.4131 20.9942H16.5859L16.0166 27.3165L16.0059 27.3546L15.9941 27.3126Z" fill="black"/>
<path d="M20.3574 6.36593C20.3574 4.03531 18.5271 2.13202 16.2256 2.01534L16.002 2.00948C13.5962 2.00948 11.6455 3.96021 11.6455 6.36593L11.6504 6.5798C11.7021 7.6457 12.1381 8.60977 12.8223 9.34054L12.0918 10.0241C11.2521 9.12723 10.7162 7.94043 10.6523 6.6296L10.6455 6.36593C10.6455 3.40792 13.0439 1.00948 16.002 1.00948L16.2773 1.01632C19.1072 1.15992 21.3574 3.50052 21.3574 6.36593C21.3573 7.78096 20.8068 9.06744 19.9111 10.0241L19.1807 9.34054C19.9103 8.5612 20.3573 7.51654 20.3574 6.36593Z" fill="black"/>
<path d="M19.4111 9.01808C19.5934 8.91483 19.4697 8.91758 19.4697 9.08253H20.4697C20.4697 9.51025 20.1239 9.76377 19.9043 9.8882C19.6451 10.0351 19.3031 10.1508 18.9238 10.2417C18.1572 10.4254 17.1235 10.5337 16 10.5337C14.8763 10.5337 13.8419 10.4255 13.0752 10.2417C12.696 10.1508 12.354 10.0351 12.0947 9.8882C11.8751 9.76377 11.5293 9.51025 11.5293 9.08253H12.5293C12.5293 8.91758 12.4057 8.91483 12.5879 9.01808C12.7304 9.09878 12.9697 9.18783 13.3086 9.26906C13.9788 9.42969 14.931 9.53371 16 9.53371C17.0688 9.53367 18.0203 9.42966 18.6904 9.26906C19.0293 9.18783 19.2687 9.09878 19.4111 9.01808Z" fill="black"/>
<path d="M19.1406 11.2627C19.2968 11.1676 19.1914 11.1723 19.1914 11.3194H20.1914C20.1914 11.7292 19.8786 11.9837 19.6611 12.1162C19.4144 12.2666 19.0912 12.3849 18.7354 12.4766C18.016 12.662 17.0488 12.7705 16 12.7705C14.951 12.7705 13.9832 12.662 13.2637 12.4766C12.9079 12.3849 12.5846 12.2666 12.3379 12.1162C12.1204 11.9837 11.8076 11.7292 11.8076 11.3194H12.8076C12.8076 11.1723 12.7022 11.1676 12.8584 11.2627C12.9853 11.34 13.2019 11.4275 13.5137 11.5078C14.1304 11.6668 15.01 11.7705 16 11.7705C16.9898 11.7705 17.8687 11.6668 18.4854 11.5078C18.7971 11.4275 19.0137 11.34 19.1406 11.2627Z" fill="black"/>
</svg>
