<svg width="32" height="32" viewBox="0 0 32 32" fill="none" xmlns="http://www.w3.org/2000/svg">
<g clip-path="url(#clip0_424_549)">
<path fill-rule="evenodd" clip-rule="evenodd" d="M15.9961 0.0917969C19.5711 0.0922679 22.4687 2.99144 22.4688 6.56641C22.4685 7.9767 22.0148 9.28017 21.249 10.3428C21.219 10.391 21.1852 10.4358 21.1484 10.4775C21.1111 10.5267 21.0729 10.575 21.0342 10.623V12.6602L21.0303 12.7402C20.9925 13.1348 20.6818 13.3941 20.4375 13.543C20.1853 13.6965 19.8594 13.8201 19.4941 13.9238C19.3974 14.9127 18.7243 15.7301 17.8154 16.041V29.9238H19.3037C18.9438 27.2408 19.68 24.411 21.667 22.7256C21.7821 22.6261 21.8978 22.5343 22.0195 22.4424C21.9089 22.547 21.8055 22.6519 21.7031 22.7627C19.9081 24.6796 19.5937 27.5029 20.2314 29.9238H21.0469C21.2048 27.6423 21.8423 25.5812 22.5039 23.5098C22.5433 23.3912 22.5839 23.2711 22.625 23.1494C22.6002 23.2758 22.5767 23.4012 22.5537 23.5244C22.1723 25.644 21.8307 27.8374 21.96 29.9238H23.0928C23.3107 27.4988 24.3371 25.2477 25.9785 23.624C26.0729 23.5312 26.1681 23.4422 26.2666 23.3535C26.1801 23.454 26.0979 23.5546 26.0166 23.6582C24.6141 25.4495 23.9434 27.7411 24.0166 29.9238H25.3643C25.4265 28.0138 25.9105 26.0638 27.1826 24.6523C27.2583 24.5712 27.336 24.4921 27.417 24.417C27.3481 24.5033 27.2837 24.5922 27.2217 24.6826C26.1848 26.2533 26.0462 28.1794 26.2676 29.9238H27.665C28.2274 27.8121 28.7515 25.5192 28.1221 23.4727C28.0712 23.3584 28.0088 23.249 27.9336 23.1514C28.0218 23.2375 28.0988 23.3392 28.166 23.4473C29.0724 25.4115 28.8665 27.7032 28.5684 29.9238H30.3291C30.3164 28.2027 30.2243 26.4672 29.8955 24.7627C29.8742 24.6571 29.8496 24.5463 29.8252 24.4414C29.8655 24.5413 29.9059 24.6476 29.9434 24.749C30.5379 26.418 30.8984 28.164 31.1787 29.9238H32.0146V30.9238H31.3223V30.9268C30.989 30.928 30.6556 30.9294 30.3223 30.9307C30.3225 30.9286 30.3221 30.9261 30.3223 30.9238H17.8154V31.9912H16.8154V16.1777H15.167V31.9912H14.167V30.9238H-0.0146484V29.9238H1.25977C1.07867 28.0508 1.55841 25.924 2.4248 24.2432C2.47209 24.1435 2.52073 24.0412 2.57129 23.9375C2.53617 24.0474 2.50237 24.1554 2.4707 24.2607C1.86372 26.1561 1.6992 27.9643 2.18457 29.9238H3.35352C3.5344 29.0818 3.82259 28.3448 3.89355 27.5596C3.99776 26.5992 3.81796 25.5869 3.51465 24.6094C3.48224 24.5038 3.44666 24.3957 3.40918 24.2852C3.46148 24.3894 3.51199 24.4916 3.55957 24.5918C3.99735 25.5193 4.33869 26.526 4.37988 27.5957C4.41953 28.4083 4.26573 29.1914 4.2002 29.9238H5.82129C6.07733 27.8417 6.27439 25.6073 5.33984 23.6699C5.27498 23.56 5.20259 23.4556 5.12207 23.3584C5.21474 23.4441 5.30091 23.54 5.38086 23.6426C6.58257 25.48 6.695 27.7558 6.71484 29.9238H7.86523C8.16824 28.2976 8.09896 26.492 7.24121 25.0068C7.19089 24.922 7.138 24.8395 7.08203 24.7578C7.15091 24.8285 7.21778 24.9011 7.28223 24.9766C8.3818 26.2954 8.79959 28.1104 8.77246 29.9238H9.77832C10.0049 27.4317 10.0409 24.6684 8.46094 22.5742C8.36637 22.4609 8.26426 22.3514 8.15625 22.249C8.27508 22.3387 8.39002 22.4367 8.49805 22.54C10.3342 24.4777 10.6404 27.3154 10.6963 29.9238H11.8281C11.844 29.8614 11.862 29.7964 11.876 29.7363C12.274 27.6801 12.615 25.1538 10.9648 23.4707C10.8699 23.3852 10.7719 23.3075 10.665 23.2344C10.7801 23.2933 10.8882 23.3575 10.9951 23.4316C12.9235 24.9477 12.9503 27.6767 12.8164 29.9121C12.8161 29.9159 12.8158 29.9201 12.8154 29.9238H14.167V16.04C13.2595 15.7283 12.5868 14.9117 12.4902 13.9238C12.1253 13.8201 11.7998 13.6964 11.5479 13.543C11.2874 13.3843 10.9513 13.1001 10.9512 12.6602V10.6172C10.9194 10.5777 10.8873 10.5383 10.8564 10.498C10.8069 10.4445 10.7616 10.386 10.7236 10.3213C9.96766 9.2628 9.52169 7.96672 9.52148 6.56641C9.5215 2.99107 12.4208 0.0917969 15.9961 0.0917969ZM18.4287 14.1514C17.71 14.2644 16.8765 14.331 15.9932 14.3311C15.1093 14.3311 14.275 14.2645 13.5557 14.1514C13.7541 14.7475 14.3157 15.1777 14.9785 15.1777H17.0068C17.6695 15.1777 18.2302 14.7474 18.4287 14.1514ZM20.0342 11.0889C19.8849 11.1359 19.7276 11.1821 19.5625 11.2217C18.6304 11.4451 17.3682 11.5791 15.9922 11.5791C14.6164 11.5791 13.3548 11.445 12.4229 11.2217C12.2578 11.1821 12.1004 11.1359 11.9512 11.0889V12.6006C11.9688 12.6179 12.0028 12.6485 12.0684 12.6885C12.2382 12.792 12.5173 12.9037 12.9062 13.0039C13.6767 13.2025 14.7686 13.3311 15.9932 13.3311C17.2177 13.331 18.3096 13.2025 19.0801 13.0039C19.4688 12.9037 19.7482 12.7919 19.918 12.6885C19.9825 12.6491 20.0165 12.6189 20.0342 12.6016V11.0889ZM15.9961 1.0918C12.973 1.0918 10.5215 3.54336 10.5215 6.56641C10.5217 7.79792 10.9299 8.93302 11.6172 9.84766C11.6396 9.86635 11.6771 9.89399 11.7383 9.92871C11.927 10.0356 12.2336 10.1489 12.6553 10.25C13.4908 10.4502 14.671 10.5791 15.9922 10.5791C17.3133 10.5791 18.4935 10.4502 19.3291 10.25C19.7507 10.149 20.0574 10.0356 20.2461 9.92871C20.3258 9.88355 20.3645 9.84954 20.3828 9.83203C21.0635 8.91996 21.4685 7.7914 21.4688 6.56641L21.4619 6.28418C21.3153 3.39227 18.9242 1.09225 15.9961 1.0918Z" fill="black"/>
</g>
<defs>
<clipPath id="clip0_424_549">
<rect width="32" height="32" fill="white"/>
</clipPath>
</defs>
</svg>
