<svg viewBox="0 0 56 56" xmlns="http://www.w3.org/2000/svg" xmlns:xlink="http://www.w3.org/1999/xlink" width="56.000000" height="56.000000" fill="none">
	<rect id="Icon/Luminaires/301_pot_podv_lin 1" width="56.000000" height="56.000000" x="0.000000" y="0.000000" />
	<path id="Icon" d="M14.6639 20.5997L9.396 18.3201C9.15973 18.2182 8.89249 18.2257 8.66455 18.3372L8.57056 18.3919L3.04028 22.0149C2.82474 22.1566 2.68407 22.3847 2.65234 22.637L2.64551 22.7464L2.64551 27.6819C2.64551 28.0359 2.8587 28.3548 3.18555 28.4903L46.592 46.4346C46.836 46.5352 47.1123 46.5213 47.344 46.3953L52.912 43.3669C53.1935 43.2138 53.3699 42.9185 53.3699 42.5979L53.3699 37.9238C53.3698 37.575 53.1618 37.2593 52.8418 37.1206L45.7751 34.0626L45.7751 17.8937L44.0251 17.8937L44.0251 33.3053L16.4139 21.357L16.4139 3.47119L14.6639 3.47119L14.6639 20.5997ZM51.6199 41.2683L9.92407 23.3137L9.92407 20.4546L51.6199 38.4983L51.6199 41.2683ZM4.39551 26.0208L4.39551 23.218L8.17407 20.7417L8.17407 23.4282L4.39551 26.0208ZM46.8741 44.6572L5.3457 27.4888L9.14648 24.8843L50.4937 42.6885L46.8741 44.6572Z" fill="rgb(0,0,0)" fill-rule="evenodd" />
</svg>
