<svg viewBox="0 0 56 56" xmlns="http://www.w3.org/2000/svg" xmlns:xlink="http://www.w3.org/1999/xlink" width="56.000000" height="56.000000" fill="none">
	<rect id="Icon/Luminaires/304_pot_podv_lustra 1" width="56.000000" height="56.000000" x="0.000000" y="0.000000" />
	<path id="Icon" d="M35.8663 2.67346C35.8663 2.19025 35.4748 1.79846 34.9913 1.79846L21.0085 1.79846C20.5252 1.79846 20.1335 2.19025 20.1335 2.67346C20.1338 3.4675 20.3666 4.23697 20.7949 4.93445C21.2217 5.62916 21.8314 6.23627 22.5671 6.73231C23.303 7.22856 24.1623 7.61158 25.0895 7.87049C25.7444 8.05336 26.4292 8.17298 27.125 8.22767L27.125 21.7385C27.125 21.7996 27.1313 21.859 27.1433 21.9164L24.5077 21.9164C23.162 21.9169 22.0712 23.0078 22.0707 24.3535C22.0707 25.4912 22.85 26.4474 23.9038 26.7166C23.8984 26.8962 23.8902 27.1511 23.8806 27.4632C23.8606 28.1107 23.8332 29.0072 23.8013 30.0014C23.7373 31.9905 23.6572 34.369 23.5936 35.937C23.5311 37.4787 23.3646 39.2281 23.2122 40.6002C23.136 41.284 23.0648 41.8704 23.0116 42.2856C22.9852 42.4931 22.9633 42.658 22.9482 42.7704L22.9241 42.9413L22.9237 42.953C22.8115 43.7338 22.5476 44.486 22.1466 45.1651C21.7436 45.8478 21.2097 46.4443 20.5762 46.9211C19.9424 47.3977 19.2199 47.7448 18.452 47.9426C17.6837 48.1406 16.8835 48.1853 16.0981 48.0742C15.3129 47.9631 14.5576 47.6987 13.8747 47.2953C13.1915 46.8924 12.5939 46.3588 12.1171 45.7248C11.9534 45.5073 11.805 45.2794 11.6726 45.0427C12.669 44.8637 13.4249 43.9914 13.4249 42.9434C13.4248 42.6388 13.3608 42.3489 13.2456 42.0868C13.4078 42.0308 13.5685 41.9697 13.7274 41.9039C14.7767 41.4694 15.7305 40.8324 16.5336 40.0294C17.3367 39.2261 17.9737 38.2725 18.4082 37.223C18.8429 36.1737 19.0663 35.0485 19.0663 33.9127C19.0663 33.4295 18.6744 33.0377 18.1913 33.0377L2.64294 33.0377C2.15973 33.0377 1.76805 33.4295 1.76794 33.9127C1.76794 35.0485 1.99129 36.1737 2.4259 37.223C2.86052 38.2723 3.49754 39.2261 4.30066 40.0294C5.10378 40.8322 6.0576 41.4694 7.10681 41.9039C7.26575 41.9697 7.4265 42.0308 7.58864 42.0868C7.47339 42.3489 7.40941 42.6388 7.4093 42.9434C7.4093 44.1207 8.36334 45.076 9.54041 45.0764L9.74794 45.0764C9.9982 45.6803 10.3241 46.252 10.7188 46.7767C11.3337 47.5942 12.1041 48.2825 12.985 48.8024C13.8658 49.3222 14.8404 49.6636 15.8531 49.8069C16.866 49.9502 17.8981 49.8926 18.8888 49.6375C19.8793 49.382 20.8106 48.9342 21.6279 48.3194C22.4454 47.7046 23.134 46.9341 23.6537 46.0533C24.1735 45.1723 24.5151 44.1978 24.6582 43.1852L24.6571 43.185L24.6574 43.1829L24.6826 43.0036C24.6982 42.8879 24.7208 42.7184 24.7477 42.507C24.8018 42.0842 24.875 41.4878 24.9521 40.7929C25.1064 39.4058 25.2775 37.6103 25.3424 36.0083C25.4061 34.432 25.4864 32.046 25.5505 30.057C25.5825 29.0621 25.61 28.1654 25.6301 27.5172C25.6394 27.2173 25.647 26.9706 25.6526 26.7922L27.125 26.7922L27.125 48.9774C27.1252 49.4606 27.5168 49.8524 28 49.8524C28.4832 49.8524 28.8748 49.4606 28.875 48.9774L28.875 26.7922L30.3884 26.7922C30.3939 26.9706 30.4017 27.2173 30.4109 27.5172C30.4309 28.1654 30.4586 29.0621 30.4904 30.057C30.5544 32.046 30.6347 34.432 30.6986 36.0083C30.7635 37.6103 30.9345 39.4058 31.0887 40.7929C31.1659 41.4878 31.2392 42.0842 31.2931 42.507C31.3202 42.7184 31.3427 42.8879 31.3583 43.0036L31.3836 43.1829L31.3839 43.185L31.3827 43.1852C31.5258 44.1978 31.8674 45.1723 32.3872 46.0533C32.9071 46.9341 33.5957 47.7046 34.4131 48.3194C35.2305 48.9342 36.1616 49.382 37.1521 49.6375C38.1428 49.8926 39.1749 49.9502 40.188 49.8069C41.2006 49.6636 42.1752 49.3222 43.056 48.8024C43.937 48.2825 44.7074 47.5942 45.3224 46.7767C45.7169 46.252 46.0428 45.6803 46.2931 45.0764L46.5007 45.0764C47.6777 45.076 48.6318 44.1207 48.6318 42.9434C48.6317 42.6388 48.5677 42.3489 48.4525 42.0868C48.6146 42.0308 48.7753 41.9697 48.9342 41.9039C49.9835 41.4694 50.9372 40.8322 51.7404 40.0294C52.5435 39.2261 53.1804 38.2723 53.6151 37.223C54.0498 36.1737 54.2732 35.0485 54.2732 33.9127C54.273 33.4295 53.8813 33.0377 53.3982 33.0377L37.8497 33.0377C37.3665 33.0377 36.9749 33.4295 36.9747 33.9127C36.9747 35.0485 37.1981 36.1737 37.6327 37.223C38.0674 38.2725 38.7042 39.2261 39.5076 40.0294C40.3106 40.8324 41.2643 41.4694 42.3136 41.9039C42.4725 41.9697 42.6333 42.0308 42.7954 42.0868C42.6802 42.3489 42.6162 42.6388 42.6162 42.9434C42.6162 43.9914 43.372 44.8637 44.3684 45.0427C44.236 45.2794 44.0875 45.5073 43.9239 45.7248C43.4471 46.3588 42.8494 46.8924 42.1664 47.2953C41.4834 47.6987 40.7281 47.9631 39.9428 48.0742C39.1574 48.1853 38.3572 48.1406 37.5891 47.9426C36.821 47.7448 36.0987 47.3977 35.465 46.9211C34.8315 46.4443 34.2975 45.8478 33.8945 45.1651C33.4932 44.4853 33.229 43.7323 33.1171 42.9509L33.1168 42.9413L33.0927 42.7704C33.0776 42.658 33.0557 42.4931 33.0293 42.2856C32.9762 41.8704 32.9049 41.284 32.8289 40.6002C32.6763 39.2281 32.5097 37.4787 32.4472 35.937C32.3839 34.369 32.3035 31.9905 32.2397 30.0014C32.2076 29.0072 32.1804 28.1107 32.1602 27.4632C32.1504 27.1449 32.1423 26.886 32.1367 26.7059C33.17 26.4228 33.9294 25.4765 33.9294 24.3535C33.9289 23.0078 32.8381 21.9169 31.4923 21.9164L28.8567 21.9164C28.8687 21.859 28.875 21.7996 28.875 21.7385L28.875 8.22767C29.5708 8.17298 30.2555 8.05336 30.9104 7.87049C31.8377 7.61158 32.6969 7.22856 33.4329 6.73231C34.1686 6.23627 34.7783 5.62916 35.2051 4.93445C35.6333 4.23697 35.8662 3.4675 35.8663 2.67346ZM22.287 4.01844C22.1916 3.86335 22.1187 3.70505 22.0579 3.54846L33.9421 3.54846C33.8811 3.70505 33.8084 3.86335 33.713 4.01844C33.4372 4.46769 33.0179 4.90198 32.4553 5.28138C31.8931 5.66056 31.2093 5.97074 30.4403 6.18543C29.6719 6.40012 28.8419 6.51185 28 6.51185C27.158 6.51185 26.328 6.40012 25.5596 6.18543C24.7906 5.97074 24.1069 5.66056 23.5447 5.28138C22.982 4.90198 22.5628 4.46769 22.287 4.01844ZM32.1794 24.3535C32.1789 23.9743 31.8717 23.6669 31.4923 23.6664L24.5077 23.6664C24.1285 23.6669 23.8212 23.9743 23.8207 24.3535C23.8207 24.7331 24.1282 25.0418 24.5077 25.0422L31.4923 25.0422C31.8719 25.0418 32.1794 24.7331 32.1794 24.3535ZM4.0426 36.5531C3.80815 35.987 3.65349 35.3931 3.57605 34.7877L17.2582 34.7877C17.1807 35.3931 17.0261 35.987 16.7916 36.5531C16.4449 37.3903 15.9369 38.1512 15.2963 38.7918C14.6556 39.4325 13.8946 39.9405 13.0575 40.2872C12.2205 40.6339 11.3231 40.8119 10.4171 40.8119C9.51114 40.8119 8.61371 40.6339 7.77673 40.2872C6.93976 39.9405 6.17862 39.4325 5.53796 38.7918C4.89742 38.1514 4.38931 37.39 4.0426 36.5531ZM51.9985 36.5531C52.233 35.987 52.3876 35.3931 52.4651 34.7877L38.7828 34.7877C38.8602 35.3931 39.0148 35.987 39.2494 36.5531C39.5962 37.3903 40.1041 38.1512 40.7448 38.7918C41.3854 39.4325 42.1465 39.9405 42.9835 40.2872C43.8206 40.6339 44.7179 40.8119 45.6239 40.8119C46.5299 40.8119 47.4273 40.6339 48.2643 40.2872C49.1014 39.9405 49.8624 39.4325 50.5031 38.7918C51.1436 38.1514 51.6518 37.39 51.9985 36.5531ZM11.6749 42.9434C11.6746 42.733 11.5043 42.5625 11.2938 42.5625L9.54041 42.5625C9.33009 42.5627 9.15962 42.7332 9.1593 42.9434C9.1593 43.1542 9.32988 43.326 9.54041 43.3264L11.2938 43.3264C11.5046 43.3262 11.6749 43.1545 11.6749 42.9434ZM44.3662 42.9434C44.3664 42.733 44.5367 42.5625 44.7472 42.5625L46.5007 42.5625C46.711 42.5627 46.8815 42.7332 46.8818 42.9434C46.8818 43.1542 46.7112 43.326 46.5007 43.3264L44.7472 43.3264C44.5365 43.3262 44.3662 43.1545 44.3662 42.9434Z" fill="rgb(0,0,0)" fill-rule="evenodd" />
</svg>
