<svg viewBox="0 0 56 56" xmlns="http://www.w3.org/2000/svg" xmlns:xlink="http://www.w3.org/1999/xlink" width="56.000000" height="56.000000" fill="none">
	<rect id="Icon/Luminaires/305_pot_podv_kvadr 1" width="56.000000" height="56.000000" x="0.000000" y="0.000000" />
	<path id="Icon" d="M30.8378 3.51001L30.8378 25.7364C32.6304 25.8269 34.4091 26.1801 36.116 26.7921L49.0009 31.4136L49.0009 10.3515L50.7509 10.3515L50.7509 32.0412L52.8879 32.8077C53.931 33.182 54.6277 34.171 54.6277 35.2791L54.6277 40.4575C54.7207 41.6824 53.9911 42.9652 52.5091 43.2521L31.0853 47.3981C27.6428 48.0642 24.0894 47.8929 20.727 46.8991L3.61504 41.8405C2.3051 41.4532 1.68869 40.317 1.73633 39.2091L1.73633 33.8111C1.73654 32.5885 2.58067 31.529 3.77173 31.2542L5.29443 30.9035L5.29443 10.3515L7.04443 10.3515L7.04443 30.5002L25.787 26.182C26.8761 25.9312 27.981 25.7812 29.0878 25.7315L29.0878 3.51001L30.8378 3.51001ZM3.48569 39.3856L3.48633 39.3856L3.48633 39.2555C3.51303 38.8996 3.74577 38.5591 4.17558 38.467L26.6059 33.6596C29.5261 33.0339 32.5614 33.2076 35.3918 34.1604L52.2903 39.8461C52.6449 39.9658 52.8375 40.2492 52.8777 40.5515L52.8777 40.6998L52.8852 40.6998C52.8738 41.0766 52.6318 41.4462 52.1774 41.5346L30.752 45.6806C27.5853 46.2933 24.3175 46.1352 21.2243 45.2209L4.11064 40.1623C3.71362 40.045 3.5078 39.7212 3.48569 39.3856ZM52.8777 38.1987C52.8676 38.1953 52.8575 38.1918 52.8474 38.1884L35.9507 32.5009C32.8221 31.448 29.4661 31.2572 26.2387 31.9489L3.80815 36.7563C3.69643 36.7802 3.58919 36.8099 3.48633 36.8445L3.48633 33.8111C3.48654 33.4035 3.76778 33.0495 4.16479 32.9583L26.18 27.8875C29.2834 27.1728 32.5269 27.3629 35.5247 28.4381L52.2985 34.4552C52.6456 34.5801 52.8777 34.9097 52.8777 35.2791L52.8777 38.1987Z" fill="rgb(0,0,0)" fill-rule="evenodd" />
</svg>
