<svg viewBox="0 0 32 32" xmlns="http://www.w3.org/2000/svg" xmlns:xlink="http://www.w3.org/1999/xlink" width="32.000000" height="32.000000" fill="none">
	<rect id="306_pot_podv_toch" width="32.000000" height="32.000000" x="0.000000" y="0.000000" />
	<path id="Icon" d="M10.5215 1.35911C10.5158 1.38252 10.5115 1.40625 10.5085 1.4303L10.5029 1.4303L10.5029 4.37331L10.5036 4.37331C10.5035 4.37957 10.5034 4.38585 10.5034 4.39214C10.5034 4.46214 10.5112 4.53017 10.5273 4.59627C10.6519 5.10767 11.2568 5.50222 12.3428 5.7799C13.2381 6.00876 14.2903 6.13683 15.5 6.16412L15.5 13.2385C15.1991 13.4092 15 13.7316 15 14.1084L15 14.9159C15 15.017 15.0143 15.1141 15.0411 15.2054Q13.2566 15.2905 11.9009 15.7026C10.7324 16.0577 10.0781 16.5338 9.9375 17.1308C9.93001 17.1629 9.92396 17.1954 9.91937 17.2282L9.90918 17.2282L9.90918 17.3493C9.90885 17.3603 9.90869 17.3714 9.90869 17.3826L9.90918 17.3826L9.90918 29.5996L9.92319 29.5996C9.91347 29.6583 9.90869 29.7182 9.90869 29.7792C9.90869 29.8643 9.91797 29.9471 9.93701 30.0277C10.0767 30.6221 10.7319 31.0954 11.9023 31.4475C13.041 31.7902 14.4067 31.9615 15.9995 31.9615C17.5928 31.9615 18.9585 31.7902 20.0972 31.4475C21.2676 31.0954 21.9224 30.6221 22.0625 30.0277C22.0815 29.9471 22.0908 29.8643 22.0908 29.7792C22.0908 29.7182 22.086 29.6583 22.0763 29.5995L22.0913 29.5995L22.0913 17.2282L22.0801 17.2282C22.0755 17.1954 22.0695 17.1629 22.062 17.1308C21.9214 16.5338 21.2671 16.0577 20.0986 15.7026C19.195 15.4279 18.1485 15.2622 16.9589 15.2054C16.9857 15.1141 17 15.017 17 14.9159L17 14.1084C17 13.7316 16.8009 13.4092 16.5 13.2385L16.5 6.16412C17.7094 6.13682 18.7618 6.00875 19.6567 5.7799C20.7427 5.50222 21.3477 5.10767 21.4722 4.59626C21.4883 4.53017 21.4961 4.46214 21.4961 4.39214C21.4961 4.38585 21.496 4.37957 21.4959 4.37331L21.4966 4.37331L21.4966 1.4303L21.491 1.4303C21.488 1.40625 21.4837 1.38252 21.478 1.35911C21.3672 0.899849 20.75 0.562897 19.6265 0.348228C18.6201 0.155853 17.4111 0.0596619 16 0.0596619C14.5884 0.0596619 13.3794 0.155853 12.373 0.348228C11.2495 0.562897 10.6328 0.899849 10.5215 1.35911ZM11.5029 1.51454L11.5034 1.51454C11.5034 1.52191 11.5033 1.52909 11.5029 1.53608L11.5029 1.51454ZM11.5029 1.64815C11.5291 1.63306 11.5622 1.61651 11.6021 1.5985C11.8188 1.5005 12.1382 1.41116 12.5605 1.33045Q13.9778 1.05966 16 1.05966C17.3481 1.05966 18.4941 1.14993 19.439 1.33045C19.8613 1.41116 20.1807 1.5005 20.3975 1.5985C20.4373 1.61647 20.4703 1.63298 20.4966 1.64804L20.4966 3.28252C20.259 3.17952 19.9791 3.0868 19.6567 3.00439C18.6406 2.74454 17.4214 2.61462 16 2.61462C14.5781 2.61462 13.3594 2.74454 12.3428 3.00439C12.0205 3.0868 11.7405 3.17952 11.5029 3.28252L11.5029 1.64815ZM20.4966 1.53608C20.4963 1.52909 20.4961 1.52191 20.4961 1.51454L20.4966 1.51454L20.4966 1.53608ZM12.5908 3.97321C13.5259 3.73415 14.6621 3.61462 16 3.61462C17.3374 3.61462 18.4741 3.73415 19.4092 3.97321C19.8223 4.07889 20.1343 4.1954 20.3447 4.32277C20.3857 4.34737 20.4194 4.37049 20.4468 4.39214C20.4194 4.41379 20.3857 4.43692 20.3447 4.46152C20.1343 4.58887 19.8223 4.70539 19.4092 4.81107C18.5929 5.01975 17.623 5.13736 16.5 5.16387L16.5 5.02881C16.5 4.74881 16.2798 4.52881 16 4.52881C15.7202 4.52881 15.5 4.74881 15.5 5.02881L15.5 5.16388C14.3767 5.13737 13.4071 5.01976 12.5908 4.81107Q11.9705 4.65255 11.6548 4.46152C11.6143 4.43692 11.5801 4.41379 11.5527 4.39214C11.5801 4.37049 11.6143 4.34737 11.6548 4.32277C11.8652 4.1954 12.1772 4.07889 12.5908 3.97321ZM10.9092 17.3742C10.9159 17.3152 10.9929 17.2328 11.1396 17.1272C11.3779 16.956 11.7285 16.8001 12.1919 16.6594C13.2358 16.3419 14.5054 16.1832 15.9995 16.1832C17.4941 16.1832 18.7637 16.3419 19.8076 16.6594C20.271 16.8001 20.6216 16.956 20.8599 17.1272C21.0137 17.2379 21.0908 17.323 21.0908 17.3826L21.0913 17.3826L21.0913 28.501C20.8166 28.3577 20.4852 28.2276 20.0972 28.1108C18.9585 27.7682 17.5928 27.5969 15.9995 27.5969Q13.6104 27.5969 11.9023 28.1108C11.5148 28.2274 11.1837 28.3573 10.9092 28.5005L10.9092 17.3742ZM12.1904 29.0684C13.2349 28.7541 14.5049 28.5969 15.9995 28.5969C17.4946 28.5969 18.7646 28.7541 19.8091 29.0684C20.2725 29.2079 20.6235 29.3623 20.8618 29.5318C21.0142 29.6405 21.0908 29.723 21.0908 29.7792C21.0908 29.8354 21.0142 29.9179 20.8618 30.0266C20.6235 30.1961 20.2725 30.3505 19.8091 30.4899C18.7646 30.8043 17.4946 30.9615 15.9995 30.9615C14.5049 30.9615 13.2349 30.8043 12.1904 30.4899C11.7271 30.3505 11.376 30.1961 11.1377 30.0266C10.9849 29.9179 10.9087 29.8354 10.9087 29.7792C10.9087 29.723 10.9849 29.6405 11.1377 29.5318C11.376 29.3623 11.7271 29.2079 12.1904 29.0684Z" fill="rgb(0,0,0)" fill-rule="evenodd" />
</svg>
