<svg width="32" height="32" viewBox="0 0 32 32" fill="none" xmlns="http://www.w3.org/2000/svg">
<rect width="32" height="32" fill="white"/>
<path d="M15.2012 16.3208C15.3864 16.1159 15.7024 16.1004 15.9072 16.2856C16.112 16.4708 16.1286 16.7868 15.9434 16.9917L15.5742 17.3999C15.389 17.6042 15.0728 17.62 14.8682 17.435C14.6635 17.25 14.6474 16.9338 14.832 16.729L15.2012 16.3208Z" fill="black"/>
<path d="M16.6777 14.688C16.8628 14.4833 17.179 14.467 17.3838 14.6518C17.5886 14.837 17.6051 15.154 17.4199 15.3588L17.0508 15.7671C16.8656 15.9713 16.5494 15.9871 16.3447 15.8022C16.1401 15.6172 16.124 15.301 16.3086 15.0962L16.6777 14.688Z" fill="black"/>
<path d="M18.1543 13.0551C18.3394 12.8504 18.6555 12.8342 18.8604 13.019C19.0652 13.2042 19.0817 13.5212 18.8965 13.726L18.5273 14.1342C18.3421 14.3384 18.0259 14.3542 17.8213 14.1694C17.6167 13.9844 17.6006 13.6682 17.7852 13.4633L18.1543 13.0551Z" fill="black"/>
<path fill-rule="evenodd" clip-rule="evenodd" d="M18.708 10.604L26.8809 12.4848C27.058 12.5256 27.1998 12.6597 27.25 12.8344C27.2998 13.0091 27.2506 13.1973 27.1221 13.3256L9.42285 30.9907H7.98242L18.7285 20.2797L12.3594 19.1235L2.17578 30.9907H0.996094V30.8286L18.2168 10.7661L18.2646 10.7163C18.3844 10.6106 18.5496 10.5675 18.708 10.604ZM17.084 18.9633L19.5918 19.4194L25.7754 13.2563L23.0273 12.6235L17.084 18.9633ZM13.1143 18.2436L13.4492 18.3051C13.4705 18.2526 13.4999 18.2022 13.54 18.1577L13.7246 17.9536C13.9098 17.7488 14.2258 17.7333 14.4307 17.9184C14.5988 18.0704 14.6379 18.3089 14.5449 18.5034L15.9121 18.7514L21.8994 12.3637L20.3135 11.9995C20.3053 12.1058 20.2655 12.2111 20.1885 12.2963L20.0039 12.5005C19.8187 12.7047 19.5025 12.7213 19.2979 12.5366C19.0933 12.3516 19.0773 12.0354 19.2617 11.8305L19.3164 11.77L18.7773 11.646L13.1143 18.2436Z" fill="black"/>
<path fill-rule="evenodd" clip-rule="evenodd" d="M19.0332 1.14205C19.1497 1.02633 19.3174 0.974301 19.4814 1.00631L28.0469 2.68014C28.2812 2.72629 28.4502 2.93245 28.4502 3.17135V10.8462L30.6338 11.3667C30.8105 11.409 30.9514 11.5441 31 11.7192C31.0483 11.8941 30.9975 12.0822 30.8682 12.2094L28.5889 14.4438H31.001V15.4438H27.5693L11.7109 30.9907H10.2959L10.6035 30.6753L29.5205 12.1294L18.0293 9.3901L0.996094 29.729V28.1694L11.6553 15.4438H1.00391V14.4438H8.97461L18.9873 1.19479L19.0332 1.14205ZM10.2275 14.4438H12.4932L17.4619 8.51119L17.5107 8.46041C17.6317 8.35194 17.8 8.3078 17.9609 8.34615L18.8857 8.56588V2.98776L10.2275 14.4438ZM19.8857 8.80416L27.4502 10.6069V3.58248L19.8857 2.10299V8.80416Z" fill="black"/>
</svg>
