<svg viewBox="0 0 56 56" xmlns="http://www.w3.org/2000/svg" xmlns:xlink="http://www.w3.org/1999/xlink" width="56.000000" height="56.000000" fill="none">
	<rect id="Icon/Luminaires/309_pot_vstr_kvadr 1" width="56.000000" height="56.000000" x="0.000000" y="0.000000" />
	<path id="Icon" d="M43.386 9.56762C43.8134 9.47155 44.2472 9.70545 44.3994 10.1162L49.094 22.778C49.1071 22.7724 49.1197 22.7643 49.1334 22.7593C49.585 22.5886 50.0903 22.817 50.2612 23.2685L51.8319 27.4248C52.0023 27.8764 51.7757 28.3817 51.3242 28.5528C51.2981 28.5626 51.2703 28.5659 51.2439 28.5733L54.8772 38.3726C54.9666 38.6137 54.9455 38.8832 54.8191 39.1074C54.6928 39.3312 54.4733 39.488 54.221 39.5363L17.3633 46.5757C16.998 46.6454 16.6286 46.4753 16.4422 46.1536L10.7717 36.3491C10.7141 36.418 10.6485 36.4817 10.5684 36.5319C10.1588 36.7881 9.61812 36.663 9.36183 36.2533L7.52979 33.3259C7.27385 32.9164 7.39752 32.3759 7.80665 32.1193C7.94504 32.0329 8.09869 31.9928 8.25098 31.9895L1.42701 20.1906C1.28768 19.9498 1.27104 19.6562 1.38258 19.4012C1.49416 19.1467 1.72004 18.96 1.99098 18.8988L43.386 9.56762ZM3.5359 20.3427L17.6453 44.7386L52.8759 38.0102L43.0238 11.4407L3.5359 20.3427ZM37.9804 16.3933C39.2338 16.1266 40.4964 16.8031 40.9679 17.9945L47.0348 33.3328C47.639 34.8612 46.707 36.5633 45.0933 36.8755L22.1758 41.3052L21.8955 41.3479C20.586 41.4928 19.3025 40.8872 18.5819 39.7841L18.4366 39.5398L10.8657 25.6133C10.0807 24.168 10.8071 22.396 12.315 21.8792L12.626 21.7936L37.9804 16.3933ZM38.3444 18.1039L12.99 23.5044C12.4186 23.6266 12.1251 24.2639 12.4038 24.7775L19.9747 38.704C20.339 39.3739 21.0956 39.7323 21.8442 39.5876L44.7599 35.158C45.2979 35.0541 45.6087 34.4865 45.4078 33.9771L39.3409 18.6389C39.1837 18.2416 38.7623 18.015 38.3444 18.1039Z" fill="rgb(0,0,0)" fill-rule="nonzero" />
</svg>
