<svg viewBox="0 0 56 56" xmlns="http://www.w3.org/2000/svg" xmlns:xlink="http://www.w3.org/1999/xlink" width="56.000000" height="56.000000" fill="none">
	<rect id="Icon/Luminaires/311_pot_vstr_toch_dvoynoy 1" width="56.000000" height="56.000000" x="0.000000" y="0.000000" />
	<path id="Icon" d="M47.4873 14.2134C47.5969 17.4916 45.2699 20.3155 41.8467 22.2903C38.3911 24.2834 33.6268 25.5412 28.3694 25.6441C23.1125 25.7469 18.2715 24.6771 14.6876 22.8217C11.1366 20.9837 8.62418 18.2549 8.51448 14.9764C8.40479 11.698 10.7316 8.87428 14.1551 6.89954C17.6103 4.90665 22.3735 3.64862 27.6306 3.54565C32.8877 3.44269 37.73 4.51251 41.3142 6.36783C44.8649 8.20606 47.3776 10.9349 47.4873 14.2134ZM45.7377 14.2475C45.6593 11.9069 43.8343 9.6305 40.5265 7.9181C37.2515 6.22278 32.7104 5.19632 27.689 5.29459C22.6678 5.39307 18.2026 6.59577 15.0453 8.41691C11.856 10.2566 10.1859 12.6014 10.2642 14.942C10.3425 17.2829 12.1671 19.5591 15.4752 21.2717C18.75 22.967 23.2898 23.9933 28.311 23.8952C33.3324 23.7967 37.7991 22.594 40.9565 20.7727C44.1454 18.9332 45.8159 16.5882 45.7377 14.2475ZM41.6631 15.5242C41.7468 17.7798 39.9818 19.6125 37.6233 20.8383C35.2099 22.0924 31.9019 22.8754 28.2664 22.9397C24.6308 23.0038 21.2692 22.3381 18.7658 21.1709C16.3195 20.0299 14.4208 18.2617 14.3372 16.0061C14.2537 13.7507 16.0186 11.9193 18.3769 10.6935C20.7903 9.43931 24.0981 8.65638 27.7338 8.59229C31.3695 8.52821 34.7311 9.19343 37.2344 10.3609C39.6806 11.5018 41.579 13.2687 41.6631 15.5242ZM39.9134 15.5549C39.8677 14.3321 38.7862 13.0011 36.5203 11.944C34.3108 10.9135 31.2255 10.2806 27.7988 10.341C24.3722 10.4015 21.3378 11.1423 19.2075 12.2493C17.0231 13.3849 16.0418 14.7523 16.0869 15.9753C16.1323 17.1983 17.2136 18.5307 19.48 19.5879C21.6895 20.6184 24.7747 21.2512 28.2015 21.1907C31.6282 21.1303 34.6623 20.3896 36.7928 19.2824C38.9778 18.1468 39.9587 16.7779 39.9134 15.5549ZM46.8188 41.0363C46.9279 44.0153 44.616 46.5175 41.3382 48.2402C38.0083 49.9904 33.4214 51.0933 28.3608 51.1839C23.3002 51.2738 18.637 50.336 15.1829 48.7067C11.7836 47.103 9.2925 44.6865 9.1828 41.708C9.07343 38.7288 11.3841 36.2255 14.6617 34.5027C17.9918 32.7525 22.58 31.6493 27.6407 31.5589C32.7012 31.4688 37.3629 32.407 40.817 34.0361C44.2169 35.6398 46.7097 38.0572 46.8188 41.0363ZM45.0692 41.0677C44.9975 39.1107 43.3076 37.1296 40.0952 35.6144C36.9366 34.1243 32.5535 33.2214 27.705 33.3079C22.8561 33.3944 18.5452 34.4525 15.5 36.0532C12.4025 37.681 10.8607 39.7198 10.9325 41.6768C11.0048 43.6334 12.6941 45.6132 15.9064 47.1282C19.065 48.6183 23.4479 49.5215 28.2969 49.4349C33.1454 49.3484 37.4565 48.2901 40.5017 46.6897C43.5984 45.0619 45.1406 43.0243 45.0692 41.0677ZM41.485 41.6836C41.5278 42.7355 41.0765 43.6787 40.362 44.4646C39.6515 45.2462 38.6454 45.9168 37.4598 46.466C35.0863 47.5651 31.834 48.2515 28.2605 48.3089C24.6873 48.3662 21.3844 47.7851 18.9249 46.7638C17.6961 46.2537 16.6369 45.6162 15.8634 44.8583C15.086 44.0963 14.5584 43.1692 14.5156 42.1171C14.473 41.0654 14.9244 40.1237 15.6386 39.3378C16.3492 38.556 17.3553 37.8854 18.5409 37.3364C20.9142 36.2375 24.1653 35.5511 27.7385 35.4935C31.312 35.4362 34.6159 36.0168 37.0758 37.0384C38.3046 37.5487 39.3638 38.1862 40.1371 38.9439C40.9145 39.7057 41.442 40.632 41.485 41.6836ZM39.7353 41.7118C39.7158 41.2361 39.4778 40.7178 38.9255 40.1767C38.369 39.6311 37.5322 39.1056 36.4389 38.6515C34.2533 37.7438 31.1999 37.1877 27.8098 37.2422C24.4198 37.2967 21.417 37.9501 19.3084 38.9268C18.2534 39.4154 17.4606 39.9674 16.9491 40.5298C16.4417 41.088 16.2463 41.6133 16.2654 42.0889C16.2847 42.5648 16.5227 43.0844 17.0752 43.6257C17.6319 44.1711 18.4686 44.6968 19.5618 45.1509C21.7473 46.0584 24.7994 46.6147 28.1894 46.5604C31.5795 46.5057 34.5837 45.8523 36.6922 44.8756C37.7473 44.3868 38.5401 43.835 39.0516 43.2723C39.5593 42.7139 39.7545 42.1876 39.7353 41.7118Z" fill="rgb(0,0,0)" fill-rule="evenodd" />
</svg>
