<svg viewBox="0 0 56 56" xmlns="http://www.w3.org/2000/svg" xmlns:xlink="http://www.w3.org/1999/xlink" width="56.000000" height="56.000000" fill="none">
	<rect id="Icon/Luminaires/314_pot_vstr_toch_pov_dvoynoy 1" width="56.000000" height="56.000000" x="0.000000" y="0.000000" />
	<path id="Icon" d="M47.2089 10.2539C47.1783 10.9708 46.9616 11.6896 46.6096 12.3833C45.9637 13.6558 44.835 14.9132 43.4048 16.0994C41.3442 17.8082 38.5595 19.4505 35.3868 20.8417C38.2752 20.3236 40.8439 19.5548 42.9334 18.6134C44.7856 17.7789 46.2213 16.8268 47.1736 15.8311C48.1225 14.8391 48.5471 13.8549 48.5231 12.916C48.5005 12.0368 48.0824 11.1385 47.2089 10.2539ZM28.2977 23.3045C34.2757 23.1462 39.7028 21.9884 43.6528 20.2089C45.6307 19.3177 47.2792 18.2519 48.4372 17.0417C49.5985 15.8277 50.312 14.4146 50.2726 12.8714C50.2328 11.3284 49.4482 9.9548 48.2263 8.80209C47.008 7.65237 45.3071 6.67248 43.2864 5.88379C39.2402 4.30447 33.7435 3.42499 27.7475 3.57858C21.7516 3.73196 16.3084 4.89129 12.3485 6.67526C10.3702 7.56649 8.72052 8.63183 7.56247 9.84243C6.40143 11.0562 5.68953 12.4683 5.72873 14.0111C5.79175 16.4714 7.71724 18.482 10.4377 19.9547C10.4739 20.1412 10.5229 20.3262 10.5851 20.5093C11.0229 21.7946 12.0631 22.7181 13.3823 23.3372C14.7003 23.9558 16.3713 24.3098 18.2419 24.4286C21.1467 24.6132 24.6437 24.2404 28.2977 23.3045ZM10.4927 17.9637C10.5988 17.4985 10.7648 17.0332 10.9803 16.5745C11.594 15.2693 12.6347 13.9545 13.9819 12.702C16.6793 10.1947 20.7267 7.82391 25.517 6.1929C26.4818 5.86435 27.3883 5.57232 28.2653 5.31811C28.1081 5.32068 27.9503 5.32388 27.7923 5.32794C21.9716 5.47683 16.7687 6.60369 13.068 8.27081C11.2159 9.10522 9.78009 10.0573 8.82776 11.053C7.87895 12.0449 7.45438 13.0275 7.4782 13.9664C7.51248 15.3067 8.48724 16.7063 10.4927 17.9637ZM12.2418 19.9453C12.4768 20.6353 13.0748 21.2599 14.1266 21.7534C15.1797 22.2475 16.6139 22.5714 18.3513 22.6818C21.8223 22.9025 26.3225 22.264 30.936 20.6932C35.5651 19.1171 39.6281 16.9571 42.287 14.7523C43.6198 13.6471 44.5528 12.5689 45.049 11.5914C45.4958 10.7108 45.5589 9.97552 45.3291 9.34939C44.918 9.0313 44.2858 8.66665 43.4621 8.29879C42.5482 7.89077 41.4567 7.49536 40.2982 7.15036C37.9854 6.46121 35.4901 5.9953 33.6865 5.98761C31.211 6.2525 28.9599 6.86923 26.081 7.84954C21.4755 9.41753 17.6568 11.6747 15.1743 13.9822C13.9317 15.1373 13.0537 16.2778 12.5643 17.3188C12.0759 18.3581 12.0004 19.2363 12.2418 19.9453ZM47.208 38.2265C47.1776 38.9438 46.9609 39.6629 46.6087 40.3567C45.9627 41.6293 44.8344 42.8867 43.4039 44.0729C41.3431 45.7819 38.5582 47.4242 35.3851 48.8156C38.2742 48.2975 40.8434 47.5285 42.9334 46.5868C44.7856 45.7526 46.2213 44.8001 47.1736 43.8048C48.1225 42.8128 48.5471 41.8286 48.5231 40.8897C48.5005 40.01 48.0822 39.1115 47.208 38.2265ZM28.2969 51.278C34.2753 51.1199 39.7026 49.9619 43.6528 48.1824C45.6307 47.2914 47.2792 46.2256 48.4372 45.0152C49.5985 43.8012 50.312 42.3881 50.2726 40.8449C50.2328 39.3019 49.4482 37.9283 48.2263 36.7756C47.008 35.6258 45.3071 34.646 43.2864 33.8573C39.2402 32.2779 33.7435 31.3985 27.7475 31.5521C21.7516 31.7054 16.3084 32.8648 12.3485 34.6487C10.3702 35.54 8.72052 36.6053 7.56247 37.8159C6.40143 39.0297 5.68953 40.4418 5.72873 41.9845C5.79175 44.4444 7.71681 46.455 10.4368 47.9277C10.473 48.1144 10.5219 48.2997 10.5843 48.4829C11.0221 49.7683 12.0622 50.6918 13.3815 51.3109C14.6994 51.9293 16.3706 52.2833 18.241 52.4023C21.1458 52.5868 24.6429 52.2141 28.2969 51.278ZM10.492 45.9368C10.5981 45.4715 10.764 45.0067 10.9795 44.5482C11.5931 43.2428 12.6339 41.9279 13.9811 40.6755C16.6784 38.168 20.7258 35.7976 25.5161 34.1666C26.4809 33.838 27.3874 33.5458 28.2645 33.2916C28.1075 33.2942 27.9501 33.2974 27.7923 33.3014C21.9716 33.4503 16.7687 34.5772 13.068 36.2443C11.2159 37.0787 9.78009 38.0308 8.82776 39.0265C7.87895 40.0184 7.45438 41.001 7.4782 41.9399C7.51248 43.2799 8.48703 44.6796 10.492 45.9368ZM12.2409 47.9188C12.4759 48.6088 13.0739 49.2332 14.1257 49.7269C15.1789 50.2212 16.613 50.5448 18.3503 50.6553C21.8215 50.8759 26.3216 50.2376 30.9352 48.6669C35.5643 47.0906 39.6274 44.9308 42.2864 42.7258C43.6189 41.6205 44.5519 40.5424 45.0482 39.5648C45.495 38.6843 45.558 37.949 45.3284 37.3231C44.9171 37.0048 44.285 36.6403 43.4613 36.2725C42.5473 35.8642 41.4558 35.4688 40.2973 35.1238C37.9845 34.4347 35.4893 33.9688 33.6856 33.9611C31.2102 34.226 28.9592 34.8429 26.0802 35.823C21.4748 37.391 17.6559 39.6481 15.1734 41.9557C13.9309 43.1108 13.0528 44.2515 12.5635 45.2925C12.075 46.3316 11.9995 47.2098 12.2409 47.9188Z" fill="rgb(0,0,0)" fill-rule="evenodd" />
</svg>
