<svg width="32" height="32" viewBox="0 0 32 32" fill="none" xmlns="http://www.w3.org/2000/svg">
<rect width="32" height="32" fill="white"/>
<path fill-rule="evenodd" clip-rule="evenodd" d="M15.8554 18.0302C19.2817 17.9425 22.4232 18.4442 24.7353 19.3466C25.8899 19.7973 26.8614 20.3577 27.5575 21.0146C28.2556 21.6733 28.7047 22.4581 28.7274 23.3398C28.75 24.2214 28.342 25.029 27.6786 25.7226C27.0169 26.4142 26.0744 27.0239 24.9442 27.5331C22.6853 28.5508 19.5811 29.2122 16.162 29.3017C14.0765 29.8352 12.0808 30.0496 10.4228 29.9443C9.35408 29.8763 8.3994 29.6736 7.64639 29.3202C6.89257 28.9664 6.2979 28.4385 6.04776 27.704C6.01212 27.5993 5.98444 27.4934 5.96377 27.3866C4.40961 26.5451 3.30931 25.3967 3.27334 23.9911C3.25091 23.1096 3.65783 22.3028 4.3212 21.6093C4.98298 20.9175 5.92612 20.309 7.05655 19.7997C9.31934 18.7803 12.4294 18.1179 15.8554 18.0302ZM19.2489 19.4062C17.8344 19.5576 16.5474 19.9105 14.9023 20.4706C12.2708 21.3666 10.0884 22.656 8.66983 23.9745C7.95993 24.6345 7.45821 25.2869 7.17862 25.8818C6.89979 26.4752 6.8572 26.9767 6.99502 27.3818C7.12929 27.7759 7.47054 28.133 8.0712 28.415C8.67292 28.6973 9.4927 28.883 10.4853 28.9462C12.4687 29.0723 15.0404 28.707 17.6767 27.8095C20.3216 26.9089 22.6436 25.6748 24.163 24.415C24.9245 23.7834 25.4576 23.167 25.7411 22.6083C25.9965 22.1052 26.0325 21.6848 25.9013 21.3271C25.6664 21.1454 25.3051 20.9375 24.8349 20.7275C24.3126 20.4942 23.6892 20.2675 23.0273 20.0702C21.7058 19.6765 20.2796 19.4106 19.2489 19.4062ZM26.9745 21.8456C26.9568 22.2548 26.8346 22.6655 26.6337 23.0614C26.2646 23.7885 25.619 24.5067 24.8017 25.1845C23.6231 26.1618 22.0297 27.1 20.2148 27.8954C21.8677 27.5994 23.3377 27.1596 24.5331 26.621C25.5915 26.1442 26.4118 25.6 26.956 25.0312C27.4982 24.4643 27.7412 23.9016 27.7274 23.3652C27.7144 22.8627 27.4737 22.351 26.9745 21.8456ZM15.8808 19.0292C12.555 19.1144 9.58225 19.7584 7.46768 20.7109C6.40929 21.1877 5.58804 21.7318 5.04385 22.3007C4.50181 22.8674 4.25972 23.4294 4.27334 23.9657C4.29301 24.7317 4.85071 25.5304 5.99698 26.2489C6.05761 25.9835 6.15039 25.7176 6.27334 25.456C6.62395 24.71 7.21932 23.9588 7.98917 23.2431C9.53045 21.8104 11.8429 20.4553 14.58 19.5234C15.1316 19.3355 15.6508 19.1707 16.1523 19.0253C16.0621 19.0268 15.9714 19.0269 15.8808 19.0292Z" fill="black"/>
<path fill-rule="evenodd" clip-rule="evenodd" d="M15.8554 2.04484C19.2817 1.95718 22.4232 2.4598 24.7353 3.36223C25.8897 3.81288 26.8614 4.37251 27.5575 5.02922C28.2557 5.688 28.7048 6.47371 28.7274 7.35539C28.7499 8.237 28.3421 9.04462 27.6786 9.7382C27.0169 10.4298 26.0744 11.0386 24.9442 11.5478C22.6864 12.565 19.5841 13.2263 16.1669 13.3163C14.0799 13.8507 12.0829 14.0643 10.4237 13.9589C9.35488 13.8909 8.39951 13.6893 7.64639 13.3359C6.8927 12.982 6.29887 12.454 6.04874 11.7196C6.01308 11.6149 5.98543 11.509 5.96475 11.4023C4.41024 10.5608 3.30953 9.41246 3.27334 8.00676C3.25089 7.12514 3.65776 6.31753 4.3212 5.62395C4.98297 4.93221 5.92619 4.32362 7.05655 3.81438C9.31933 2.79504 12.4295 2.13255 15.8554 2.04484ZM19.2489 3.4218C17.8345 3.57323 16.5482 3.92519 14.9032 4.48527C12.2716 5.3813 10.0894 6.67155 8.67081 7.99016C7.96096 8.65005 7.4592 9.30159 7.17959 9.89641C6.90052 10.4902 6.85706 10.9922 6.99502 11.3974C7.12933 11.7916 7.47121 12.1485 8.07217 12.4306C8.67397 12.713 9.49353 12.8977 10.4862 12.9609C12.4697 13.087 15.0413 12.7227 17.6776 11.8251C20.3228 10.9245 22.6446 9.68958 24.164 8.42961C24.9253 7.7982 25.4585 7.18249 25.7421 6.62395C25.9974 6.12089 26.0334 5.70041 25.9023 5.3427C25.6673 5.16088 25.3055 4.95228 24.8349 4.74211C24.3127 4.50893 23.6891 4.28304 23.0273 4.08586C21.7057 3.69215 20.2796 3.42619 19.2489 3.4218ZM26.9745 5.86125C26.9567 6.27029 26.8345 6.68036 26.6337 7.07609C26.2646 7.80323 25.62 8.5223 24.8026 9.20012C23.6242 10.1774 22.0305 11.1147 20.2157 11.9101C21.8682 11.6141 23.3379 11.175 24.5331 10.6366C25.5913 10.1599 26.4118 9.61555 26.956 9.0468C27.4981 8.47997 27.7411 7.91721 27.7274 7.38078C27.7145 6.87828 27.4736 6.36669 26.9745 5.86125ZM15.8808 3.04484C12.5549 3.13001 9.58226 3.77395 7.46768 4.72649C6.40929 5.20331 5.58804 5.74746 5.04385 6.31633C4.5021 6.88286 4.25984 7.44422 4.27334 7.98039C4.29294 8.74637 4.85078 9.54505 5.99698 10.2636C6.0576 9.99833 6.15147 9.73304 6.27432 9.4716C6.62487 8.72578 7.2195 7.97429 7.98917 7.25871C9.5305 5.82591 11.8437 4.47097 14.581 3.53899C15.1318 3.35144 15.6495 3.18517 16.1503 3.03996C16.0608 3.04143 15.9707 3.04254 15.8808 3.04484Z" fill="black"/>
</svg>
