<svg viewBox="0 0 56 56" xmlns="http://www.w3.org/2000/svg" xmlns:xlink="http://www.w3.org/1999/xlink" width="56.000000" height="56.000000" fill="none">
	<rect id="Icon/Luminaires/316_pot_nakl_lin 1" width="56.000000" height="56.000000" x="0.000000" y="0.000000" />
	<path id="Icon" d="M8.66455 7.10574C8.89245 6.99416 9.15974 6.98668 9.39599 7.08864L52.8418 25.8891C53.1618 26.0277 53.3697 26.3436 53.3699 26.6924L53.3699 31.3665C53.3699 31.6871 53.1935 31.9823 52.9119 32.1356L47.344 35.1638C47.1123 35.29 46.8359 35.3038 46.592 35.2032L3.18554 17.2588C2.85868 17.1234 2.64556 16.8043 2.64551 16.4505L2.64551 11.5149L2.65233 11.4055C2.68406 11.1532 2.82469 10.925 3.04027 10.7835L8.57055 7.16042L8.66455 7.10574ZM5.34571 16.2573L46.8741 33.4259L50.4936 31.4571L9.14648 13.6529L5.34571 16.2573ZM9.92407 12.0823L51.6199 30.0368L51.6199 27.2666L9.92407 9.22317L9.92407 12.0823ZM4.39551 11.9866L4.39551 14.7893L8.17407 12.1968L8.17407 9.51027L4.39551 11.9866Z" fill="rgb(0,0,0)" fill-rule="nonzero" />
</svg>
