<svg width="32" height="32" viewBox="0 0 32 32" fill="none" xmlns="http://www.w3.org/2000/svg">
<rect width="32" height="32" fill="white"/>
<path fill-rule="evenodd" clip-rule="evenodd" d="M16 2.07227C17.2759 2.07227 18.4511 2.22906 19.3232 2.49414C19.756 2.62571 20.1431 2.79195 20.4326 3C20.6825 3.17959 20.9359 3.44941 20.9844 3.81348H20.9932V3.92578C20.9932 3.92992 20.9941 3.93432 20.9941 3.93848V16.7373H20.9795C20.9888 16.7895 20.9941 16.844 20.9941 16.9004C20.994 17.3287 20.7074 17.6381 20.4307 17.835C20.1411 18.0409 19.7539 18.2058 19.3213 18.3359C18.4497 18.5981 17.2753 18.7529 16 18.7529C14.7246 18.7529 13.5503 18.5982 12.6787 18.3359C12.2463 18.2058 11.8598 18.0408 11.5703 17.835C11.2936 17.6381 11.0069 17.3287 11.0068 16.9004C11.0069 16.844 11.0122 16.7895 11.0215 16.7373H11.0068V3.81348H11.0166C11.0651 3.44939 11.3185 3.17959 11.5684 3C11.8579 2.79199 12.245 2.62568 12.6777 2.49414C13.5498 2.2291 14.7242 2.07229 16 2.07227ZM16 16.0488C14.794 16.0488 13.7214 16.1968 12.9668 16.4238C12.5865 16.5383 12.3146 16.6647 12.1494 16.7822C12.0725 16.837 12.0358 16.8772 12.0186 16.9004C12.0357 16.9235 12.072 16.9644 12.1494 17.0195C12.3146 17.137 12.5865 17.2635 12.9668 17.3779C13.7214 17.605 14.7941 17.7529 16 17.7529C17.2059 17.7529 18.2786 17.6049 19.0332 17.3779C19.4136 17.2635 19.6853 17.137 19.8506 17.0195C19.928 16.9645 19.9642 16.9236 19.9814 16.9004C19.9641 16.8772 19.9274 16.8369 19.8506 16.7822C19.6854 16.6647 19.4137 16.5383 19.0332 16.4238C18.2786 16.1968 17.206 16.0488 16 16.0488ZM16 3.07227C14.7947 3.07229 13.7228 3.22108 12.9688 3.4502C12.5886 3.56575 12.3165 3.69384 12.1514 3.8125C12.0435 3.89009 12.0138 3.93867 12.0068 3.95312V15.7188C12.2107 15.6233 12.4372 15.5385 12.6787 15.4658C13.5503 15.2036 14.7245 15.0488 16 15.0488C17.2754 15.0488 18.4497 15.2036 19.3213 15.4658C19.563 15.5385 19.7899 15.6233 19.9941 15.7188V3.95312C19.987 3.93877 19.9568 3.89027 19.8486 3.8125C19.6835 3.69385 19.4123 3.56574 19.0322 3.4502C18.2781 3.22099 17.2057 3.07227 16 3.07227Z" fill="black"/>
</svg>
