<svg width="32" height="32" viewBox="0 0 32 32" fill="none" xmlns="http://www.w3.org/2000/svg">
<rect width="32" height="32" fill="white"/>
<path fill-rule="evenodd" clip-rule="evenodd" d="M12.0703 1.61328C13.5681 1.61331 14.9391 1.74164 15.9482 1.95605C16.4485 2.06237 16.8866 2.19595 17.2119 2.35938C17.3738 2.4407 17.5339 2.54179 17.6592 2.67188C17.7306 2.74607 17.7996 2.84004 17.8467 2.95215L17.8535 2.95117L17.8662 3.00293C17.8792 3.04104 17.8885 3.08117 17.8955 3.12305L20.8066 14.9834C20.8252 15.0084 20.8359 15.0331 20.8359 15.0586C20.8359 15.066 20.8317 15.0727 20.8301 15.0801L20.8311 15.082C20.7275 15.516 17.8924 15.876 14.1025 15.9727V20.1592H15.8369C16.4615 20.1592 17.2627 20.6186 17.2627 21.5195V21.5273C17.2609 22.428 16.4593 22.8848 15.8369 22.8848H15.3633C15.0773 23.2375 14.6438 23.4703 14.1387 23.4707H13.6387C13.6373 23.4751 13.6361 23.48 13.6348 23.4844C13.6026 23.5861 13.5424 23.7407 13.4297 23.8916C13.33 24.0249 13.0489 24.334 12.5654 24.334H12.5283C12.4865 25.8325 12.6777 26.9153 13.0527 27.6191C13.25 27.9893 13.4932 28.2471 13.7744 28.415C14.0559 28.583 14.4043 28.6777 14.8379 28.6777C15.3856 28.6777 15.9354 28.2474 16.4355 27.4971C16.9178 26.7735 17.2575 25.8908 17.4189 25.3037C17.5378 24.8715 17.7294 24.4499 17.9893 24.0889C18.1619 21.0684 20.3228 18.6807 22.9639 18.6807C25.7177 18.6807 27.9502 21.277 27.9502 24.4795L27.9434 24.7773C27.8098 27.8412 25.6317 30.2783 22.9639 30.2783L22.707 30.2705C20.5708 30.1445 18.7898 28.4546 18.1924 26.166C17.9833 26.7512 17.6737 27.4423 17.2676 28.0518C16.7287 28.8603 15.918 29.6777 14.8379 29.6777C14.2542 29.6777 13.7223 29.5483 13.2617 29.2734C12.8011 28.9984 12.4402 28.5943 12.1709 28.0889C11.6814 27.17 11.4862 25.8949 11.5273 24.3311C11.0625 24.3175 10.7913 24.0207 10.6943 23.8906C10.5823 23.7403 10.5234 23.586 10.4912 23.4844C10.4899 23.4801 10.4886 23.475 10.4873 23.4707H9.99121C9.48833 23.4707 9.05353 23.238 8.76562 22.8848H8.29004C7.66762 22.8848 6.86609 22.428 6.86426 21.5273V21.5195C6.86426 20.6186 7.66542 20.1592 8.29004 20.1592H10.0234V15.9727C6.24864 15.8757 3.42455 15.5172 3.30957 15.085L3.29492 15.082L6.27246 2.95117L6.29102 2.95508C6.33816 2.84156 6.40836 2.74678 6.48047 2.67188C6.60574 2.54179 6.76587 2.4407 6.92773 2.35938C7.25309 2.19595 7.69113 2.06237 8.19141 1.95605C9.20061 1.74161 10.5723 1.61328 12.0703 1.61328ZM22.9639 19.6807C22.5029 19.6807 22.0489 19.7798 21.6221 19.9658C21.8047 19.9338 21.9916 19.918 22.1816 19.918L22.3779 19.9238C24.395 20.0462 25.999 22.0392 25.999 24.4795L25.9941 24.7139C25.8918 27.1237 24.224 29.0407 22.1816 29.041L21.9844 29.0352C21.8626 29.0278 21.7425 29.0129 21.624 28.9922C22.0504 29.1778 22.5034 29.2783 22.9639 29.2783C25.029 29.2783 26.95 27.2764 26.9502 24.4795C26.9502 21.6823 25.0292 19.6807 22.9639 19.6807ZM22.1816 20.918C21.1289 20.918 20.0623 21.7244 19.6006 23.0381C19.6994 23.0229 19.8008 23.0126 19.9053 23.0107C20.6443 22.9976 21.2027 23.3324 21.5791 23.6777C21.61 23.6734 21.6417 23.6689 21.6738 23.6689C22.0487 23.6692 22.3524 23.9728 22.3525 24.3477C22.3525 24.7226 22.0487 25.0271 21.6738 25.0273C21.3632 25.0273 21.1034 24.8178 21.0225 24.5332C20.7883 24.2798 20.4128 24.0021 19.9238 24.0107C19.7342 24.0141 19.5494 24.0651 19.375 24.1572C19.3678 24.2626 19.3633 24.3703 19.3633 24.4795C19.3635 26.6201 20.7848 28.041 22.1816 28.041C23.5784 28.0407 24.9988 26.6199 24.999 24.4795C24.999 22.3388 23.5785 20.9183 22.1816 20.918ZM8.29004 21.1592C8.05498 21.1592 7.86426 21.3207 7.86426 21.5195V21.5254C7.86476 21.7239 8.05529 21.8848 8.29004 21.8848H9.40039L9.40234 21.9238C9.43289 22.2308 9.6855 22.4707 9.99121 22.4707H11.3975C11.3974 22.4742 11.3965 22.4779 11.3965 22.4814V22.8184C11.3965 23.1023 11.4695 23.3336 11.5596 23.334H12.5654C12.6556 23.334 12.7285 23.1026 12.7285 22.8184V22.4814C12.7285 22.4779 12.7276 22.4742 12.7275 22.4707H14.1377C14.456 22.4705 14.7142 22.21 14.7266 21.8848H15.8369C16.0717 21.8848 16.2622 21.7239 16.2627 21.5254V21.5195C16.2627 21.3207 16.072 21.1592 15.8369 21.1592H8.29004ZM13.1025 15.9922C12.764 15.9965 12.4195 16 12.0703 16L11.1738 15.9951C11.1236 15.9946 11.0734 15.9928 11.0234 15.9922V20.1592H13.1025V15.9922ZM12.0703 2.61328C10.6205 2.61328 9.32197 2.73854 8.39941 2.93457C7.93417 3.03344 7.59066 3.14508 7.37598 3.25293C7.2687 3.30686 7.21834 3.34753 7.20117 3.36523C7.20936 3.35322 7.23238 3.31266 7.23242 3.24707H7.23047L4.44336 14.5947C5.95074 14.3098 8.80163 14.1172 12.0703 14.1172L12.9658 14.1221C15.8444 14.1535 18.3109 14.3357 19.6816 14.5928L16.9209 3.35156C16.8952 3.33025 16.8473 3.295 16.7637 3.25293C16.549 3.14508 16.2055 3.03344 15.7402 2.93457C14.8178 2.73856 13.5199 2.61331 12.0703 2.61328Z" fill="black"/>
</svg>
