<svg viewBox="0 0 56 56" xmlns="http://www.w3.org/2000/svg" xmlns:xlink="http://www.w3.org/1999/xlink" width="56.000000" height="56.000000" fill="none">
	<rect id="Icon/Luminaires/321_nas_bra 1" width="56.000000" height="56.000000" x="0.000000" y="0.000000" />
	<path id="Icon" d="M27.9093 3.42285C26.1434 3.04752 23.7442 2.823 21.123 2.823C18.5016 2.823 16.1011 3.04752 14.335 3.42285C13.4594 3.60892 12.6929 3.84262 12.1235 4.12866C11.8403 4.27094 11.5601 4.44781 11.3408 4.67554C11.2145 4.8067 11.0916 4.97311 11.0091 5.17221L10.9768 5.16431L5.78886 26.3008C5.78748 26.3055 5.7863 26.3104 5.78534 26.3151L5.76611 26.3933L5.78758 26.3987C5.9838 27.1553 10.9315 27.7844 17.5409 27.954L17.5409 35.2781L14.5076 35.2781C13.4145 35.2781 12.0125 36.0822 12.0125 37.6587L12.0125 37.6724C12.0154 39.2489 13.4182 40.0479 14.5076 40.0479L15.3398 40.0479C15.8437 40.6661 16.6045 41.0735 17.4846 41.0735L18.3528 41.0735C18.355 41.081 18.3572 41.0897 18.3596 41.0972C18.4159 41.2751 18.5189 41.545 18.715 41.8081C18.8843 42.035 19.3571 42.5575 20.1684 42.5832C20.0968 45.3182 20.4424 47.5482 21.2988 49.1555C21.77 50.0399 22.4016 50.7472 23.2077 51.2285C24.0137 51.7096 24.9443 51.936 25.966 51.936C27.8562 51.936 29.2749 50.5054 30.2179 49.0905C30.9278 48.0254 31.4718 46.8187 31.8376 45.7954C32.8844 49.7981 36.0004 52.7525 39.7372 52.9727L40.1868 52.9864C44.8556 52.9864 48.6675 48.7216 48.9009 43.3597L48.9128 42.8387C48.9128 37.2343 45.0059 32.6905 40.1868 32.6905C35.5639 32.6905 31.7806 36.8713 31.4798 42.1587C31.026 42.7899 30.6905 43.5261 30.4827 44.2815C30.2003 45.309 29.6058 46.8535 28.7618 48.1198C27.8867 49.433 26.9245 50.186 25.966 50.186C25.2072 50.186 24.5975 50.0202 24.1049 49.7263C23.6126 49.4326 23.1872 48.9814 22.8419 48.3335C22.1857 47.1017 21.8463 45.2067 21.9193 42.584L21.9894 42.584C22.8359 42.584 23.3276 42.0431 23.502 41.8098C23.6993 41.5456 23.8046 41.2751 23.8609 41.0972C23.8633 41.0895 23.8652 41.0812 23.8677 41.0735L24.7427 41.0735C25.6266 41.0726 26.3852 40.6655 26.8857 40.0479L27.7146 40.0479C28.804 40.0479 30.2067 39.2489 30.2097 37.6724L30.2097 37.6587C30.2097 36.0822 28.8076 35.2781 27.7146 35.2781L24.6793 35.2781L24.6793 27.9547C31.4366 27.7825 36.4628 27.1303 36.4628 26.3519C36.4627 26.3059 36.4452 26.2604 36.4108 26.2154L31.3235 5.48987C31.3111 5.40506 31.2908 5.32474 31.2644 5.24869L31.2437 5.16431L31.2331 5.16687C31.1505 4.97012 31.0289 4.80563 30.9036 4.67554C30.6843 4.44781 30.4041 4.27094 30.1208 4.12866C29.5513 3.84262 28.7849 3.60892 27.9093 3.42285ZM29.6119 5.86136C29.5665 5.82397 29.481 5.76501 29.3364 5.69238C28.9608 5.50354 28.3596 5.30829 27.5453 5.13525C25.9312 4.79218 23.6598 4.573 21.123 4.573C18.5858 4.573 16.3134 4.79218 14.699 5.13525C13.8848 5.30829 13.2837 5.50354 12.908 5.69238C12.7202 5.7868 12.6321 5.85794 12.6021 5.88892C12.6164 5.86798 12.6567 5.79706 12.6567 5.68213L12.6525 5.68213L7.77705 25.5388C10.4153 25.0404 15.4039 24.7042 21.123 24.7042L22.6902 24.7127C27.727 24.7676 32.0435 25.0844 34.4423 25.5341L29.6119 5.86136ZM22.9293 27.988C22.3369 27.9955 21.7341 27.9993 21.123 27.9993L19.5542 27.9908C19.4662 27.9897 19.3784 27.9886 19.2909 27.9876L19.2909 35.2781L22.9293 35.2781L22.9293 27.988ZM33.905 42.273C33.8923 42.4582 33.8857 42.6468 33.8857 42.8387C33.886 46.585 36.3732 49.0713 38.8178 49.0713C41.2621 49.0707 43.7481 46.5845 43.7482 42.8387C43.7482 39.0923 41.2624 36.6064 38.8178 36.606C36.9762 36.606 35.1107 38.0165 34.3021 40.3138C34.4744 40.2874 34.6518 40.272 34.8339 40.2688C36.125 40.2457 37.1028 40.8282 37.7613 41.4315C37.8159 41.424 37.8716 41.42 37.9282 41.42C38.5848 41.42 39.1168 41.9521 39.1168 42.6086C39.1168 43.265 38.5848 43.7972 37.9282 43.7972C37.3794 43.7972 36.9175 43.4253 36.7808 42.9196C36.3703 42.4793 35.7148 42.0038 34.8664 42.0188C34.5346 42.0247 34.2101 42.1119 33.905 42.273ZM40.1868 34.4405C43.8011 34.4405 47.1628 37.9435 47.1628 42.8387C47.1626 47.7334 43.8008 51.2364 40.1868 51.2364C39.3801 51.2364 38.586 51.0619 37.8391 50.7365C38.0473 50.7728 38.2586 50.798 38.4727 50.8109L38.8178 50.8213C42.3921 50.8207 45.3109 47.4662 45.4896 43.2488L45.4982 42.8387C45.4982 38.5681 42.6912 35.0803 39.1613 34.8662L38.8178 34.856C38.4846 34.856 38.1571 34.885 37.8371 34.9414C38.5846 34.6152 39.3794 34.4405 40.1868 34.4405ZM27.7146 37.0281L14.5076 37.0281C14.0962 37.0281 13.7625 37.3107 13.7625 37.6587L13.7625 37.669C13.7631 38.0165 14.0966 38.2979 14.5076 38.2979L16.4507 38.2979L16.4541 38.3662C16.5073 38.9037 16.9495 39.3235 17.4846 39.3235L19.9457 39.3235C19.9454 39.3295 19.9438 39.3359 19.9438 39.3421L19.9438 39.9317C19.9438 40.429 20.0716 40.8334 20.2292 40.834L21.9894 40.834C22.1473 40.834 22.2749 40.4292 22.2749 39.9317L22.2749 39.3421C22.2749 39.3359 22.2733 39.3295 22.2731 39.3235L24.741 39.3235C25.2982 39.3231 25.75 38.8674 25.7716 38.2979L27.7146 38.2979C28.1256 38.2979 28.4592 38.0165 28.4597 37.669L28.4597 37.6587C28.4597 37.3107 28.126 37.0281 27.7146 37.0281Z" fill="rgb(0,0,0)" fill-rule="evenodd" />
</svg>
