<svg viewBox="0 0 56 56" xmlns="http://www.w3.org/2000/svg" xmlns:xlink="http://www.w3.org/1999/xlink" width="56.000000" height="56.000000" fill="none">
	<rect id="Icon/Luminaires/323_nas_nakl_kvadr 1" width="56.000000" height="56.000000" x="0.000000" y="0.000000" />
	<path id="Icon" d="M47.5388 7.01161L47.7062 7.03553C48.0825 7.12882 48.3606 7.46503 48.3693 7.8661L49.0889 40.4855C49.0954 40.7769 48.9563 41.0525 48.7181 41.2203L39.7271 47.5401C39.5799 47.6434 39.4044 47.699 39.2247 47.6992L37.1688 47.6992C36.686 47.6987 36.294 47.3068 36.2938 46.8242L36.2938 40.9349L15.4492 40.1591L10.0881 44.9219L10.1992 44.9219L10.1992 46.6719L7.78613 46.6719C7.30313 46.6719 6.91154 46.2799 6.91113 45.7969L6.91113 14.2543C6.91124 14.0355 6.99401 13.8243 7.14184 13.663L14.4871 5.64955L14.6323 5.52308C14.7899 5.41344 14.9805 5.35772 15.1758 5.36757L47.5388 7.01161ZM38.0438 45.9492L38.9461 45.9492L45.5872 41.2819L38.0438 40.9998L38.0438 45.9492ZM8.66113 14.5927L8.66113 43.8488L14.2563 38.8773L14.2563 8.48989L8.66113 14.5927ZM16.0063 38.4279L47.3184 39.5951L46.6365 8.71546L16.0063 7.16029L16.0063 38.4279Z" fill="rgb(0,0,0)" fill-rule="nonzero" />
</svg>
