<svg viewBox="0 0 56 56" xmlns="http://www.w3.org/2000/svg" xmlns:xlink="http://www.w3.org/1999/xlink" width="56.000000" height="56.000000" fill="none">
	<rect id="Icon/Luminaires/324_nas_nakl_krugl 1" width="56.000000" height="56.000000" x="0.000000" y="0.000000" />
	<path id="Icon" d="M34.6631 49.006L34.2906 48.9991C34.1718 48.9948 34.0534 48.9882 33.9353 48.9797L33.9353 48.9985L27.9982 48.9985C27.885 48.9985 27.7723 48.9961 27.66 48.9916L27.66 48.9985L18.3682 48.9985C14.7556 48.9985 11.6572 46.4326 9.51221 42.6633C7.3528 38.8687 6.04473 33.6851 6.04468 28.007C6.04468 22.3287 7.35269 17.1439 9.51221 13.3491C11.6572 9.5799 14.7558 7.01556 18.3682 7.01556L27.66 7.01556L27.66 7.0224C27.7723 7.01791 27.885 7.01556 27.9982 7.01556L33.9353 7.01556L33.9353 7.02005C34.1764 7.00253 34.4191 6.99377 34.6631 6.99377L35.0357 7.00061C42.8255 7.28857 49.08 16.581 49.08 28.0008L49.0611 29.0809C48.675 40.1799 42.3765 49.0057 34.6631 49.006ZM28.8593 8.76556L27.9982 8.76556C25.0714 8.76578 22.2744 10.7356 20.1627 14.2343C18.0607 17.7168 16.7327 22.5844 16.7327 28.007C16.7327 33.4292 18.0611 38.2957 20.1627 41.778C22.2744 45.2767 25.0714 47.248 27.9982 47.2485L28.881 47.2485C24.0117 44.1388 20.5482 37.2212 20.2652 29.0809L20.2463 28.0008C20.2463 19.4078 23.7875 12.0197 28.8593 8.76556ZM22.7552 8.76556L18.3682 8.76556C15.6583 8.76556 13.0314 10.7042 11.0332 14.2155C9.04955 17.7012 7.79468 22.5757 7.79468 28.007C7.79473 33.4384 9.0495 38.3128 11.0332 41.7985C13.0314 45.3096 15.6584 47.2485 18.3682 47.2485L22.7552 47.2485C21.1853 46.143 19.8013 44.5686 18.6638 42.6838C16.3714 38.8856 14.9827 33.6941 14.9827 28.007C14.9827 22.3202 16.3715 17.1285 18.6638 13.3303C19.8013 11.4457 21.1853 9.87106 22.7552 8.76556ZM47.33 28.0008C47.33 22.5081 45.7989 17.6115 43.4147 14.1373C41.0249 10.6553 37.9006 8.74377 34.6631 8.74377C31.4257 8.74377 28.3014 10.6551 25.9116 14.1373C23.5274 17.6115 21.9963 22.5079 21.9963 28.0008C21.9964 33.4935 23.5272 38.39 25.9116 41.8641C28.3014 45.3462 31.4258 47.256 34.6631 47.256C37.9005 47.256 41.0249 45.3462 43.4147 41.8641C45.7991 38.39 47.3298 33.4935 47.33 28.0008ZM12.1902 28C12.1902 28.6073 11.7847 29.0993 11.2844 29.0993C10.7842 29.0993 10.3787 28.6073 10.3787 28C10.3787 27.3929 10.7842 26.9007 11.2844 26.9007C11.7847 26.9007 12.1902 27.3929 12.1902 28Z" fill="rgb(0,0,0)" fill-rule="evenodd" />
</svg>
