<svg width="32" height="32" viewBox="0 0 32 32" fill="none" xmlns="http://www.w3.org/2000/svg">
<rect width="32" height="32" fill="white"/>
<path fill-rule="evenodd" clip-rule="evenodd" d="M20.0205 4C24.4718 4.1646 28.0459 9.47534 28.0459 16.001L28.0352 16.6182C27.8144 22.9603 24.2151 28.0038 19.8076 28.0039L19.5947 28C19.5267 27.9975 19.4592 27.9893 19.3916 27.9844V27.999H15.999C15.9344 27.999 15.8697 27.9977 15.8057 27.9951V27.999H10.4961C8.43179 27.999 6.66129 26.5328 5.43555 24.3789C4.20166 22.2105 3.45413 19.2485 3.4541 16.0039C3.45413 12.7592 4.20155 9.79633 5.43555 7.62793C6.66129 5.47425 8.43192 4.00879 10.4961 4.00879H15.8057V4.0127C15.8697 4.01012 15.9344 4.00879 15.999 4.00879H19.3916V4.01074C19.5294 4.00075 19.6681 3.9961 19.8076 3.99609L20.0205 4ZM19.8076 4.99609C17.9577 4.99613 16.1722 6.08844 14.8066 8.07812C13.4443 10.0634 12.5693 12.8623 12.5693 16.001C12.5695 19.1395 13.4443 21.9377 14.8066 23.9229C16.1722 25.9124 17.9578 27.0039 19.8076 27.0039C21.6574 27.0039 23.443 25.9124 24.8086 23.9229C26.171 21.9377 27.0457 19.1395 27.0459 16.001C27.0459 12.8623 26.1709 10.0634 24.8086 8.07812C23.443 6.0885 21.6575 4.99613 19.8076 4.99609ZM10.4961 5.00879C8.94763 5.00879 7.44651 6.11669 6.30469 8.12305C5.17119 10.1149 4.45413 12.9004 4.4541 16.0039C4.45413 19.1074 5.1712 21.8929 6.30469 23.8848C7.44651 25.8911 8.94764 26.999 10.4961 26.999H13.0029C12.1058 26.3673 11.3151 25.4676 10.665 24.3906C9.35508 22.2202 8.56155 19.2536 8.56152 16.0039C8.56155 12.7543 9.35515 9.78755 10.665 7.61719C11.3151 6.54023 12.1058 5.64042 13.0029 5.00879H10.4961ZM15.999 5.00879C14.3266 5.00897 12.7281 6.13474 11.5215 8.13379C10.3205 10.1237 9.56155 12.9053 9.56152 16.0039C9.56155 19.1023 10.3206 21.8832 11.5215 23.873C12.7282 25.8723 14.3265 26.9988 15.999 26.999H16.5068C13.7233 25.2228 11.742 21.2708 11.5801 16.6182L11.5693 16.001C11.5693 11.0887 13.596 6.86707 16.4961 5.00879H15.999Z" fill="black"/>
<path d="M6.96582 16C6.96582 16.347 6.73409 16.6282 6.44824 16.6282C6.16239 16.6282 5.93066 16.347 5.93066 16C5.93066 15.653 6.16239 15.3718 6.44824 15.3718C6.73409 15.3718 6.96582 15.653 6.96582 16Z" fill="black"/>
</svg>
