<svg width="32" height="32" viewBox="0 0 32 32" fill="none" xmlns="http://www.w3.org/2000/svg">
<g clip-path="url(#clip0_424_449)">
<path d="M-4.65723 26.9961L-5.89941 27.6279L-6.53125 26.3857L-5.28906 25.7539L-4.65723 26.9961Z" fill="black"/>
<path fill-rule="evenodd" clip-rule="evenodd" d="M-1.84473 27.9385L-6.79199 30.4541L-9.33984 25.4424L-4.39258 22.9268L-1.84473 27.9385ZM-7.46484 26.0537L-6.18066 28.5801L-3.71875 27.3281L-4.0459 26.6846L-4.04785 26.6865L-4.67969 25.4443L-4.67773 25.4424L-5.00293 24.8018L-7.46484 26.0537Z" fill="black"/>
<path d="M1.24219 24.7969L0 25.4287L-1.27832 22.9141L-0.0361328 22.2822L1.24219 24.7969Z" fill="black"/>
<path d="M6.55664 21.2939L5.31445 21.9258L4.68262 20.6836L5.9248 20.0518L6.55664 21.2939Z" fill="black"/>
<path fill-rule="evenodd" clip-rule="evenodd" d="M9.36816 22.2363L4.4209 24.752L1.87305 19.7402L6.82031 17.2256L9.36816 22.2363ZM3.74805 20.3516L5.03223 22.8779L7.49414 21.626L7.16699 20.9834L7.16602 20.9844L6.53418 19.7422L6.53516 19.7412L6.20996 19.0996L3.74805 20.3516Z" fill="black"/>
<path d="M12.457 19.0947L11.2148 19.7266L9.93652 17.2129L11.1787 16.5811L12.457 19.0947Z" fill="black"/>
<path d="M17.6875 15.6348L16.4453 16.2666L15.8135 15.0244L17.0557 14.3926L17.6875 15.6348Z" fill="black"/>
<path fill-rule="evenodd" clip-rule="evenodd" d="M20.499 16.5771L15.5518 19.0928L13.0039 14.0811L17.9512 11.5664L20.499 16.5771ZM14.8789 14.6924L16.1631 17.2188L18.625 15.9668L18.2979 15.3232L18.2959 15.3252L17.6641 14.083L17.666 14.0811L17.3408 13.4404L14.8789 14.6924Z" fill="black"/>
<path d="M23.5645 13.4463L22.3223 14.0781L21.0439 11.5645L22.2861 10.9326L23.5645 13.4463Z" fill="black"/>
<path d="M28.7949 9.9873L27.5527 10.6182L26.9209 9.37598L28.1631 8.74414L28.7949 9.9873Z" fill="black"/>
<path fill-rule="evenodd" clip-rule="evenodd" d="M31.6064 10.9297L26.6592 13.4443L24.1113 8.43359L29.0586 5.91797L31.6064 10.9297ZM25.9863 9.04395L27.2705 11.5703L29.7324 10.3184L29.4053 9.67676L29.4043 9.67773L28.7725 8.43457L28.7734 8.43359L28.4482 7.79297L25.9863 9.04395Z" fill="black"/>
<path d="M34.6953 7.78711L33.4531 8.41895L32.1748 5.90527L33.417 5.27344L34.6953 7.78711Z" fill="black"/>
<path d="M39.9258 4.32812L38.6836 4.95898L38.0518 3.7168L39.2939 3.08496L39.9258 4.32812Z" fill="black"/>
<path fill-rule="evenodd" clip-rule="evenodd" d="M42.7373 5.27051L37.79 7.78516L35.2422 2.77441L40.1895 0.258789L42.7373 5.27051ZM37.1172 3.38477L38.4014 5.91113L40.8633 4.65918L40.5361 4.0166L40.5342 4.01855L39.9023 2.77539L39.9043 2.77344L39.5791 2.13379L37.1172 3.38477Z" fill="black"/>
<path fill-rule="evenodd" clip-rule="evenodd" d="M46.541 6.66699L-8.32715 34.5654L-13.5674 24.2598L41.3008 -3.63867L46.541 6.66699ZM-11.6934 24.8701L-7.7168 32.6924L44.667 6.05664L40.6904 -1.76465L-11.6934 24.8701Z" fill="black"/>
</g>
<defs>
<clipPath id="clip0_424_449">
<rect width="32" height="32" fill="white"/>
</clipPath>
</defs>
</svg>
