<svg viewBox="0 0 32 32" xmlns="http://www.w3.org/2000/svg" xmlns:xlink="http://www.w3.org/1999/xlink" width="32.000000" height="32.000000" fill="none">
	<rect id="330_torsher" width="32.000000" height="32.000000" x="0.000000" y="0.000000" />
	<path id="Icon" d="M0.620117 17.0112C1.29297 16.5186 2.02344 15.9323 2.81055 15.2525C4.67676 13.641 6.00098 12.1868 6.7832 10.8901C7.56836 9.5872 8.33789 7.56461 9.0918 4.82231C9.46777 3.45432 9.76465 2.21808 9.9834 1.11357C9.98926 1.0518 10.0039 0.993767 10.0273 0.939461C10.1123 0.740479 10.3145 0.591621 10.6338 0.492889C10.877 0.417488 11.2295 0.354645 11.6895 0.304359C12.6582 0.198418 14.0957 0.145447 16.002 0.145447C17.9072 0.145454 19.3438 0.198433 20.3125 0.304375C20.7725 0.35466 21.124 0.417511 21.3682 0.49292C21.6865 0.591652 21.8887 0.740479 21.9746 0.939392C21.998 0.993698 22.0117 1.05175 22.0176 1.11353C22.2363 2.21807 22.5342 3.45431 22.9102 4.82224C23.6641 7.56454 24.4346 9.58712 25.2197 10.89C26.002 12.1868 27.3271 13.6409 29.1934 15.2524C29.9814 15.9328 30.7129 16.5194 31.3857 17.0122C31.5293 17.0902 31.6475 17.1746 31.7393 17.2654C31.75 17.273 31.7607 17.2805 31.7715 17.2881L31.7666 17.2942C31.8672 17.4011 31.9326 17.5165 31.9629 17.6405C31.9766 17.6954 31.9834 17.7519 31.9834 17.8101C31.9834 17.8622 31.9785 17.9132 31.9668 17.9629C31.874 18.3864 31.3848 18.7229 30.499 18.9722C29.7588 19.1806 28.7109 19.3626 27.3535 19.5182C25.9688 19.6769 24.3975 19.7988 22.6387 19.8837L22.6387 22.7665C22.9404 22.9372 23.1396 23.2604 23.1396 23.6379L23.1387 24.7517C23.1377 25.3117 22.6973 25.7513 22.1377 25.7508C21.5781 25.7503 21.1377 25.3099 21.1387 24.7499L21.1396 23.636C21.1396 23.26 21.3389 22.9383 21.6387 22.7676L21.6387 19.9272C20.334 19.9781 18.9326 20.0102 17.4365 20.0234L17.4365 32.5L16.4365 32.5L16.4365 16.8597C16.293 16.8594 16.1475 16.8593 16.002 16.8593C15.8555 16.8593 15.709 16.8594 15.5635 16.8597L15.5635 32.5L14.5635 32.5L14.5635 20.0234C10.6143 19.9888 7.32422 19.8221 4.69531 19.5233C3.32422 19.3675 2.26562 19.1851 1.51758 18.9759C0.624023 18.7257 0.129883 18.3879 0.0371094 17.9623C0.0263672 17.9127 0.0205078 17.862 0.0205078 17.8101C0.0205078 17.7519 0.0273438 17.6954 0.0410156 17.6405C0.0712891 17.5164 0.136719 17.4008 0.237305 17.2939L0.233398 17.2881C0.243164 17.281 0.253906 17.2738 0.263672 17.2667C0.356445 17.1751 0.474609 17.0899 0.620117 17.0112ZM2.99023 16.4132C3.57129 16.3325 4.24512 16.2602 5.01367 16.1964C7.52441 15.9879 10.8604 15.8761 15.0205 15.8611C15.0352 15.8599 15.0488 15.8593 15.0635 15.8593C15.0771 15.8593 15.0898 15.8598 15.1025 15.8608C15.3984 15.8598 15.6982 15.8593 16.002 15.8593C16.3047 15.8593 16.6035 15.8598 16.8975 15.8608C16.9102 15.8598 16.9238 15.8593 16.9365 15.8593C16.9512 15.8593 16.9648 15.8599 16.9795 15.8611C21.1416 15.876 24.4785 15.9878 26.9902 16.1964C27.7588 16.2602 28.4326 16.3325 29.0137 16.4132C28.8584 16.2823 28.7002 16.1477 28.54 16.0094C26.5928 14.3285 25.2012 12.7942 24.3643 11.4064C23.5303 10.0248 22.7246 7.91846 21.9463 5.08745C21.5791 3.75259 21.2852 2.53873 21.0645 1.44587C20.8818 1.39033 20.5947 1.34119 20.2041 1.29845C19.2715 1.19646 17.8711 1.14545 16.002 1.14545C14.1318 1.14545 12.7305 1.19644 11.7979 1.29844C11.4062 1.3412 11.1191 1.39037 10.9365 1.44593C10.7168 2.53873 10.4229 3.75255 10.0557 5.08738C9.27734 7.91839 8.47266 10.0247 7.63965 11.4064C6.80273 12.7941 5.41113 14.3284 3.46387 16.0094C3.30371 16.1477 3.14551 16.2823 2.99023 16.4132ZM10.9746 1.25334C10.9727 1.2668 10.9707 1.27984 10.9668 1.29244L10.9707 1.274L10.9746 1.25334ZM21.0303 1.27407L21.0342 1.29241C21.0312 1.27985 21.0283 1.26685 21.0264 1.25343L21.0303 1.27407ZM17.4365 19.0233L17.4365 16.8631C18.9512 16.8713 20.3525 16.8927 21.6396 16.9274L21.6396 18.9265C20.3359 18.9778 18.9346 19.01 17.4365 19.0233ZM4.80859 18.5297C7.40137 18.8244 10.6523 18.9889 14.5635 19.0233L14.5635 16.8631C10.6445 16.8844 7.48828 16.9943 5.09668 17.193C3.66992 17.3115 2.58887 17.4576 1.85156 17.6313C1.59082 17.6928 1.38184 17.7555 1.22363 17.8193C1.36719 17.8835 1.55566 17.948 1.78711 18.0129C2.4834 18.2077 3.49023 18.38 4.80859 18.5297ZM22.6396 18.8826L22.6396 16.9578C24.2617 17.013 25.6846 17.0914 26.9082 17.193C28.334 17.3115 29.415 17.4576 30.1523 17.6313C30.4131 17.6928 30.6221 17.7554 30.7803 17.8193C30.6387 17.8824 30.4551 17.9458 30.2285 18.0096C29.54 18.2035 28.543 18.3752 27.2393 18.5247C25.8887 18.6795 24.3555 18.7988 22.6396 18.8826Z" fill="rgb(0,0,0)" fill-rule="evenodd" />
</svg>
