<svg width="32" height="32" viewBox="0 0 32 32" fill="none" xmlns="http://www.w3.org/2000/svg">
<rect width="32" height="32" fill="white"/>
<path fill-rule="evenodd" clip-rule="evenodd" d="M16 0.990234C16.4132 0.990234 16.7479 1.32515 16.748 1.73828C16.748 1.95836 16.6512 2.15411 16.5 2.29102V2.48535H24.2812C24.5574 2.48535 24.7812 2.70921 24.7812 2.98535C24.7811 3.26137 24.5573 3.48535 24.2812 3.48535H22.542V5.25391C23.5376 5.48151 24.281 6.37114 24.2812 7.43555L24.2695 7.66504C24.1548 8.79437 23.2006 9.67577 22.041 9.67578L21.8125 9.66406C20.6831 9.54938 19.8018 8.59517 19.8018 7.43555C19.802 6.37062 20.5458 5.48098 21.542 5.25391V4.5332C21.2143 4.59768 20.8929 4.69487 20.583 4.82324C19.9708 5.07693 19.414 5.44839 18.9453 5.91699C18.4765 6.38576 18.1053 6.94321 17.8516 7.55566C17.5979 8.16806 17.4668 8.82446 17.4668 9.4873H16.5V21.4775H17.0996V30.001H19.0166V31.001H12.9844V30.001H14.9004V21.4775H15.5V9.4873H14.5332C14.5332 8.82446 14.4021 8.16806 14.1484 7.55566C13.8947 6.94321 13.5235 6.38576 13.0547 5.91699C12.586 5.44839 12.0292 5.07693 11.417 4.82324C11.1071 4.69487 10.7857 4.59768 10.458 4.5332V5.25391C11.4542 5.48098 12.198 6.37062 12.1982 7.43555C12.1982 8.59517 11.3169 9.54938 10.1875 9.66406L9.95898 9.67578C8.79939 9.67577 7.8452 8.79437 7.73047 7.66504L7.71875 7.43555C7.71896 6.37114 8.46244 5.48151 9.45801 5.25391V3.48535H7.72754C7.45149 3.48535 7.22769 3.26137 7.22754 2.98535C7.22754 2.70921 7.4514 2.48535 7.72754 2.48535H15.5V2.29102C15.3489 2.15411 15.252 1.95826 15.252 1.73828C15.2521 1.32521 15.5869 0.990333 16 0.990234ZM10.458 3.51953C10.9169 3.59457 11.3672 3.72063 11.7988 3.89941C12.5326 4.20337 13.2001 4.64836 13.7617 5.20996C14.3233 5.77158 14.7693 6.43907 15.0732 7.17285C15.297 7.71326 15.4398 8.28266 15.5 8.8623V3.48535H10.458V3.51953ZM16.5 8.8623C16.5602 8.28266 16.703 7.71326 16.9268 7.17285C17.2307 6.43907 17.6767 5.77158 18.2383 5.20996C18.7999 4.64836 19.4674 4.20337 20.2012 3.89941C20.6328 3.72063 21.0831 3.59457 21.542 3.51953V3.48535H16.5V8.8623ZM8.96387 6.69824C8.81063 6.9044 8.71885 7.15903 8.71875 7.43555C8.71877 8.12019 9.27434 8.67576 9.95898 8.67578C10.6434 8.67553 11.1982 8.12005 11.1982 7.43555C11.1981 7.15898 11.1063 6.90442 10.9531 6.69824H8.96387ZM21.0469 6.69824C20.8937 6.90442 20.8019 7.15898 20.8018 7.43555C20.8018 8.12005 21.3566 8.67553 22.041 8.67578C22.7257 8.67576 23.2812 8.12019 23.2812 7.43555C23.2812 7.15903 23.1894 6.9044 23.0361 6.69824H21.0469Z" fill="black"/>
</svg>
