<svg width="32" height="32" viewBox="0 0 32 32" fill="none" xmlns="http://www.w3.org/2000/svg">
<g clip-path="url(#clip0_397_52)">
<path d="M5.87598 19.913C6.03772 19.8889 6.20313 19.9452 6.31641 20.0673L8.15332 22.0468L9.99707 23.0869C10.2371 23.2227 10.3221 23.5272 10.1865 23.7675C10.0509 24.0077 9.74621 24.0922 9.50586 23.957L7.59277 22.8779C7.54807 22.8526 7.50665 22.8207 7.47168 22.7831L6.24902 21.4648L5.68555 24.2997L7.48926 25.9492L7.55566 26.0234C7.61444 26.1042 7.64842 26.2022 7.65137 26.3036L7.77441 30.5214C7.78205 30.7921 7.57224 31.0182 7.30371 31.0341H32V32.0341H0.000976562V31.0341H7.26367C6.99897 31.0288 6.78242 30.8182 6.77441 30.5507L6.6582 26.5429L5.37598 25.372L3.6543 30.6904C3.56917 30.9527 3.28688 31.0963 3.02441 31.0117C2.76187 30.9266 2.61836 30.6453 2.70312 30.3828L4.65625 24.3505L5.29785 21.124L3.08984 21.7841V23.5224C3.08937 23.798 2.86547 24.0221 2.58984 24.0224C2.31399 24.0224 2.09031 23.7981 2.08984 23.5224V21.413C2.08984 21.1921 2.23471 20.9969 2.44629 20.9335L5.80664 19.9277L5.87598 19.913Z" fill="black"/>
<path fill-rule="evenodd" clip-rule="evenodd" d="M6.89551 15.9579C7.91945 15.9582 8.75 16.7884 8.75 17.8124C8.74978 18.8363 7.91931 19.6666 6.89551 19.6669C5.87146 19.6669 5.04124 18.8364 5.04102 17.8124C5.04102 16.7883 5.87132 15.9579 6.89551 15.9579ZM6.89551 16.9579C6.42361 16.9579 6.04102 17.3405 6.04102 17.8124C6.04124 18.2842 6.42374 18.6669 6.89551 18.6669C7.36703 18.6666 7.74978 18.284 7.75 17.8124C7.75 17.3407 7.36716 16.9582 6.89551 16.9579Z" fill="black"/>
<path fill-rule="evenodd" clip-rule="evenodd" d="M20.4404 0.0741573C20.5854 0.0380721 20.7401 0.0690046 20.8613 0.160095L31.7598 8.35443C31.8851 8.4489 31.959 8.5969 31.959 8.75385V12.7812C31.9589 12.9864 31.8334 13.1706 31.6426 13.246L24.2275 16.1708L24.2188 16.1738L23.5693 16.414C22.4258 18.1325 20.3815 19.2635 18.0762 19.2636C15.6654 19.2635 13.5399 18.027 12.4316 16.1747L4.43555 11.4033C4.28452 11.3131 4.1916 11.1504 4.19141 10.9745V6.78119C4.19141 6.5755 4.3173 6.39046 4.50879 6.31537L20.3789 0.0936885L20.4404 0.0741573ZM18.0752 10.6933C15.7077 10.6934 13.7189 11.7455 12.7822 13.1913C12.6722 13.3614 12.6239 13.5694 12.6475 13.7783C12.7144 14.3714 12.897 14.9363 13.1729 15.4531L13.1807 15.4579L13.1777 15.4619C14.0613 17.1092 15.9061 18.2634 18.0762 18.2636L18.3418 18.2578C21.071 18.1383 23.2312 16.1904 23.5039 13.7792C23.5275 13.5703 23.4792 13.3624 23.3691 13.1923C22.4326 11.7461 20.4434 10.6933 18.0752 10.6933ZM5.84863 11.082L11.7891 14.6269C11.729 14.3869 11.6826 14.1413 11.6543 13.8906C11.6057 13.4592 11.7032 13.0181 11.9434 12.6474C13.0997 10.8625 15.4393 9.69344 18.0752 9.6933C20.7116 9.69331 23.0517 10.8629 24.208 12.6484C24.448 13.0191 24.5458 13.4603 24.4971 13.8915C24.4499 14.3084 24.3556 14.711 24.2227 15.0966L30.4092 12.6572L20.4883 5.72748L5.84863 11.082ZM21.0615 4.90717L30.959 11.8212V9.00287L21.0615 1.56049V4.90717ZM5.19141 7.12201V10.2587L20.0615 4.8183V1.29291L5.19141 7.12201Z" fill="black"/>
</g>
<defs>
<clipPath id="clip0_397_52">
<rect width="32" height="32" fill="white"/>
</clipPath>
</defs>
</svg>
