<svg width="32" height="32" viewBox="0 0 32 32" fill="none" xmlns="http://www.w3.org/2000/svg">
<g clip-path="url(#clip0_397_61)">
<g clip-path="url(#clip1_397_61)">
<path d="M8.5 31C8.63261 31 8.75975 31.0527 8.85352 31.1465C8.94728 31.2403 9 31.3674 9 31.5C9 31.6326 8.94728 31.7597 8.85352 31.8535C8.75975 31.9473 8.63261 32 8.5 32H0.5C0.367392 32 0.240253 31.9473 0.146484 31.8535C0.0527163 31.7597 0 31.6326 0 31.5C0 31.3674 0.0527163 31.2403 0.146484 31.1465C0.240253 31.0527 0.367392 31 0.5 31H8.5Z" fill="black"/>
<path d="M13.3105 30.6035L12.6035 31.3105L11.1895 29.8965L11.8965 29.1895L13.3105 30.6035Z" fill="black"/>
<path d="M8 22C9.06087 22 10.078 22.4217 10.8281 23.1719C11.5783 23.922 12 24.9391 12 26C12 27.0609 11.5783 28.078 10.8281 28.8281C10.078 29.5783 9.06087 30 8 30H2.5C2.36739 30 2.24025 29.9473 2.14648 29.8535C2.05272 29.7597 2 29.6326 2 29.5C2 29.3674 2.05272 29.2403 2.14648 29.1465C2.24025 29.0527 2.36739 29 2.5 29H8C8.59334 29 9.17364 28.8238 9.66699 28.4941C10.1601 28.1646 10.5444 27.6963 10.7715 27.1484C10.9985 26.6004 11.0581 25.9969 10.9424 25.415C10.8266 24.8331 10.5407 24.2985 10.1211 23.8789C9.70154 23.4593 9.1669 23.1734 8.58496 23.0576C8.00311 22.9419 7.39965 23.0015 6.85156 23.2285C6.30367 23.4556 5.83542 23.8399 5.50586 24.333C5.17622 24.8264 5 25.4067 5 26H4C4.00132 24.9395 4.42299 23.9227 5.17285 23.1729C5.92271 22.423 6.93954 22.0013 8 22Z" fill="black"/>
<path d="M6.5 27C6.63261 27 6.75975 27.0527 6.85352 27.1465C6.94728 27.2403 7 27.3674 7 27.5C7 27.6326 6.94728 27.7597 6.85352 27.8535C6.75975 27.9473 6.63261 28 6.5 28H0.5C0.367392 28 0.240253 27.9473 0.146484 27.8535C0.0527163 27.7597 0 27.6326 0 27.5C0 27.3674 0.0527163 27.2403 0.146484 27.1465C0.240253 27.0527 0.367392 27 0.5 27H6.5Z" fill="black"/>
<path d="M15 26.5H13V25.5H15V26.5Z" fill="black"/>
<path d="M4.81055 22.1035L4.10352 22.8105L2.69043 21.3965L3.39746 20.6895L4.81055 22.1035Z" fill="black"/>
<path d="M13.3105 21.3965L11.8965 22.8105L11.1895 22.1035L12.6035 20.6895L13.3105 21.3965Z" fill="black"/>
<path d="M8.5 21H7.5V19H8.5V21Z" fill="black"/>
</g>
<path fill-rule="evenodd" clip-rule="evenodd" d="M20.4238 0.0363696C20.5688 0.000292943 20.7235 0.0312368 20.8447 0.122307L31.7432 8.31664C31.8685 8.4111 31.9424 8.55911 31.9424 8.71606V12.7434C31.9424 12.9486 31.8168 13.1328 31.626 13.2082L24.2109 16.133L24.2021 16.136L23.5527 16.3762C22.4092 18.0948 20.365 19.2257 18.0596 19.2258C15.6482 19.2257 13.5221 17.989 12.4141 16.136L4.41895 11.3655C4.2679 11.2753 4.17496 11.1126 4.1748 10.9368V6.7434C4.17483 6.53772 4.3007 6.35266 4.49219 6.27758L20.3623 0.0559009L20.4238 0.0363696ZM18.0586 10.6555C15.6911 10.6556 13.7023 11.7078 12.7656 13.1536C12.6556 13.3236 12.6074 13.5316 12.6309 13.7405C12.6978 14.3336 12.8805 14.8985 13.1562 15.4153L13.1641 15.4202L13.1611 15.4241C14.0447 17.0714 15.8895 18.2257 18.0596 18.2258L18.3252 18.22C21.0544 18.1005 23.2146 16.1526 23.4873 13.7414C23.5108 13.5326 23.4625 13.3246 23.3525 13.1545C22.416 11.7084 20.4267 10.6555 18.0586 10.6555ZM5.83203 11.0442L11.7725 14.5891C11.7124 14.3492 11.666 14.1034 11.6377 13.8528C11.5891 13.4215 11.6866 12.9803 11.9268 12.6096C13.0831 10.8247 15.4227 9.65565 18.0586 9.65551C20.6949 9.65552 23.0351 10.8252 24.1914 12.6106C24.4314 12.9813 24.5291 13.4226 24.4805 13.8538C24.4333 14.2705 24.339 14.6733 24.2061 15.0588L30.3926 12.6194L20.4717 5.68969L5.83203 11.0442ZM21.0449 4.86938L30.9424 11.7834V8.96508L21.0449 1.5227V4.86938ZM5.1748 7.08422V10.2209L20.0449 4.78051V1.25512L5.1748 7.08422Z" fill="black"/>
</g>
<defs>
<clipPath id="clip0_397_61">
<rect width="32" height="32" fill="white"/>
</clipPath>
<clipPath id="clip1_397_61">
<rect width="15" height="14" fill="white" transform="translate(0 18)"/>
</clipPath>
</defs>
</svg>
