<svg viewBox="0 0 90.0005 90.3256" xmlns="http://www.w3.org/2000/svg" xmlns:xlink="http://www.w3.org/1999/xlink" width="90.000488" height="90.325562" fill="none" customFrame="#000000">
	<rect id="Logo Synaps" width="90.000000" height="90.000015" x="0.000488" y="0.325562" fill="rgb(255,255,255)" fill-opacity="0" />
	<path id="Vector" d="M77.8186 39.6691C73.1691 39.6691 69.1449 42.2592 67.0785 46.0761C66.725 46.7305 65.9908 47.1394 65.2295 46.9758L64.9576 46.9213C64.3866 46.785 63.9788 46.267 63.9788 45.6672C63.9788 39.5328 61.1238 34.08 56.6918 30.5629C55.577 29.6632 55.006 28.191 55.4954 26.8278L55.7401 26.1189C56.0664 25.1647 57.018 24.6194 58.0241 24.6194C64.7673 24.6194 70.2325 19.1393 70.2325 12.3778C70.2325 5.61638 64.7673 0.163584 58.0513 0.163584C51.3081 0.163584 45.8428 5.64364 45.8428 12.4051C45.5788 16.057 47.5558 19.5755 50.2477 21.8112C51.1721 22.5746 51.6616 23.8287 51.2537 24.9738C50.7915 26.2552 49.4319 26.9095 48.0996 26.6914C47.012 26.5006 45.8972 26.3915 44.7552 26.3915C41.9002 26.3915 39.1812 27.0186 36.7341 28.1364C34.7764 29.0361 32.4108 28.8726 30.8882 27.3458L25.151 21.484C23.7099 20.0118 23.574 17.7489 24.1722 15.7858C24.4985 14.668 24.6888 13.4684 24.6888 12.2415C24.6888 5.48006 19.2235 0 12.4803 0C5.73715 0 0.271903 5.48006 0.271903 12.2415C0.271903 19.003 5.73715 24.4831 12.4803 24.4831C13.7583 24.4831 15.009 24.2922 16.1782 23.9105C18.1903 23.2562 20.5559 23.3925 22.0513 24.9193L27.3262 30.3175C28.9033 31.9261 28.9305 34.4617 27.8701 36.4519C26.3746 39.1783 25.5317 42.341 25.5317 45.6672C25.5317 48.9934 26.0483 50.7655 26.9728 53.0285C27.87 55.2096 27.5166 57.8269 25.6404 59.2446L23.0574 61.1804C21.426 62.4345 19.142 62.2709 17.2658 61.3985C15.716 60.6896 14.003 60.3079 12.2084 60.3079C5.46525 60.3079 0 65.788 0 72.5495C0 79.3109 5.46525 84.791 12.2084 84.791C18.9516 84.791 24.4169 79.3109 24.4169 72.5495C24.3721 71.5647 24.3625 71.1317 24.2266 70.4501C23.8731 68.3508 24.3081 66.0606 25.9939 64.7792L29.2568 62.2982C30.9154 61.0441 33.1722 61.1804 34.9395 62.2437C37.8217 63.9613 41.1661 64.9428 44.728 64.9428C48.29 64.9428 48.0724 64.7247 49.6223 64.3157C51.1449 63.9068 52.8036 64.5339 53.4561 65.9516C54.0271 67.2057 53.6193 68.678 52.6676 69.6867C50.6011 71.8679 49.3504 74.8396 49.3504 78.0841C49.3504 84.8455 54.8156 90.3256 61.5588 90.3256C68.302 90.3256 73.7673 84.8455 73.7673 78.0841C73.7673 71.3226 68.302 65.8425 61.5588 65.8425C54.8156 65.8425 61.5044 65.8425 61.4773 65.8425C59.8186 65.8425 58.16 65.1064 57.4531 63.5796C56.7733 62.1073 57.2356 60.3625 58.3776 59.2174C60.2537 57.3362 61.722 55.046 62.7008 52.5104C62.9727 51.8016 63.7069 51.3653 64.441 51.5289L65.5014 51.7743C65.5558 51.7743 65.583 51.8288 65.583 51.8834C65.583 58.6448 71.0482 64.1249 77.7914 64.1249C84.5346 64.1249 89.9999 58.6448 89.9999 51.8834C89.9999 45.1219 84.5346 39.6418 77.7914 39.6418L77.8186 39.6691ZM12.5075 19.8482C8.32023 19.8482 4.92144 16.4402 4.92144 12.2415C4.92144 8.04288 8.32023 4.63488 12.5075 4.63488C16.6948 4.63488 20.0936 8.04288 20.0936 12.2415C20.0936 16.4402 16.6948 19.8482 12.5075 19.8482ZM12.2356 80.1561C8.04833 80.1561 4.64954 76.7481 4.64954 72.5495C4.64954 68.3508 8.04833 64.9428 12.2356 64.9428C16.4229 64.9428 19.8217 68.3508 19.8217 72.5495C19.8217 76.7481 16.4229 80.1561 12.2356 80.1561ZM50.4652 12.3778C50.4652 8.1792 53.864 4.7712 58.0513 4.7712C62.2386 4.7712 65.6374 8.1792 65.6374 12.3778C65.6374 16.5765 62.2386 19.9845 58.0513 19.9845C53.864 19.9845 50.4652 16.5765 50.4652 12.3778ZM61.586 70.5047C65.7733 70.5047 69.1721 73.9127 69.1721 78.1113C69.1721 82.31 65.7733 85.718 61.586 85.718C57.3987 85.718 53.9999 82.31 53.9999 78.1113C53.9999 73.9127 57.3987 70.5047 61.586 70.5047ZM44.7552 60.3352C36.6797 60.3352 30.154 53.7646 30.154 45.6944C30.154 37.6243 36.7069 31.0537 44.7552 31.0537C52.8307 31.0537 59.3564 37.6243 59.3564 45.6944C59.3564 53.7646 52.8036 60.3352 44.7552 60.3352ZM77.8186 59.5173C73.6313 59.5173 70.2325 56.1093 70.2325 51.9106C70.2325 47.712 73.6313 44.304 77.8186 44.304C82.0059 44.304 85.4047 47.712 85.4047 51.9106C85.4047 56.1093 82.0059 59.5173 77.8186 59.5173Z" fill="rgb(0,7,9)" fill-rule="nonzero" />
</svg>
