<svg viewBox="0 0 32 32" xmlns="http://www.w3.org/2000/svg" xmlns:xlink="http://www.w3.org/1999/xlink" width="32.000000" height="32.000000" fill="none">
	<rect id="Name=microphone-filled, Type on-off=On" width="32.000000" height="32.000000" x="0.000000" y="0.000000" fill="rgb(255,255,255)" fill-opacity="0" />
	<path id="Vector" d="M19.5355 20.5355C18.5979 21.4732 17.3261 22 16 22C14.6739 22 13.4021 21.4732 12.4645 20.5355C11.5268 19.5979 11 18.3261 11 17L11 7C11 5.67392 11.5268 4.40215 12.4645 3.46447C13.4021 2.52678 14.6739 2 16 2C17.3261 2 18.5979 2.52678 19.5355 3.46447C20.4732 4.40215 21 5.67392 21 7L21 17C21 18.3261 20.4732 19.5979 19.5355 20.5355ZM23 14L23 17C23 18.8565 22.2625 20.637 20.9497 21.9497C19.637 23.2625 17.8565 24 16 24C14.1435 24 12.363 23.2625 11.0503 21.9497C9.7375 20.637 9 18.8565 9 17L9 14L7 14L7 17C7.00105 19.2131 7.81745 21.3482 9.29322 22.9973C10.769 24.6465 12.8006 25.6941 15 25.94L15 28L11 28L11 30L21 30L21 28L17 28L17 25.94C19.1994 25.6941 21.231 24.6465 22.7068 22.9973C24.1825 21.3482 24.9989 19.2131 25 17L25 14L23 14Z" fill="rgb(0,0,0)" fill-rule="evenodd" />
</svg>
