<svg viewBox="0 0 32 32" xmlns="http://www.w3.org/2000/svg" xmlns:xlink="http://www.w3.org/1999/xlink" width="32.000000" height="32.000000" fill="none" customFrame="#000000">
	<rect id="Name=Drop Zone, Type on-off=On" width="32.000000" height="32.000000" x="0.000000" y="0.000000" fill="rgb(255,255,255)" fill-opacity="0" />
	<path id="Union" d="M16.2498 30C16.5259 30 16.7498 29.6082 16.7498 29.125L16.7498 22.25C16.7498 18.9363 19.436 16.25 22.7498 16.25L29.2041 16.25C29.6874 16.25 30.0791 16.0261 30.0791 15.75C30.0791 15.4739 29.6874 15.25 29.2041 15.25L22.7498 15.25C19.436 15.25 16.7498 12.5637 16.7498 9.25L16.7498 2.875C16.7498 2.39175 16.5259 2 16.2498 2C15.9736 2 15.7498 2.39175 15.7498 2.875L15.7498 9.25C15.7498 12.5637 13.0635 15.25 9.74976 15.25L2.9541 15.25C2.47085 15.25 2.0791 15.4739 2.0791 15.75C2.0791 16.0261 2.47085 16.25 2.9541 16.25L9.74976 16.25C13.0635 16.25 15.7498 18.9363 15.7498 22.25L15.7498 29.125C15.7498 29.6082 15.9736 30 16.2498 30Z" fill="rgb(0,0,0)" fill-rule="evenodd" />
</svg>
