<svg viewBox="0 0 32 32" xmlns="http://www.w3.org/2000/svg" xmlns:xlink="http://www.w3.org/1999/xlink" width="32.000000" height="32.000000" fill="none">
	<defs>
		<clipPath id="clipPath_0">
			<rect width="23.000000" height="23.000000" x="4.500000" y="4.500000" fill="rgb(255,255,255)" />
		</clipPath>
	</defs>
	<rect id="Name=dot 4, Type on-off=On" width="32.000000" height="32.000000" x="0.000000" y="0.000000" />
	<g id="Frame 20" customFrame="url(#clipPath_0)">
		<rect id="Frame 20" width="23.000000" height="23.000000" x="4.500000" y="4.500000" />
		<circle id="Ellipse 1" cx="6.25" cy="6.25" r="1.75" fill="rgb(0,0,0)" />
		<circle id="Ellipse 4" cx="12.75" cy="6.25" r="1.75" fill="rgb(0,0,0)" />
		<circle id="Ellipse 7" cx="19.25" cy="6.25" r="1.75" fill="rgb(0,0,0)" />
		<circle id="Ellipse 10" cx="25.75" cy="6.25" r="1.75" fill="rgb(0,0,0)" />
		<circle id="Ellipse 2" cx="6.25" cy="12.75" r="1.75" fill="rgb(0,0,0)" />
		<circle id="Ellipse 5" cx="12.75" cy="12.75" r="1.75" fill="rgb(0,0,0)" />
		<circle id="Ellipse 8" cx="19.25" cy="12.75" r="1.75" fill="rgb(0,0,0)" />
		<circle id="Ellipse 11" cx="25.75" cy="12.75" r="1.75" fill="rgb(0,0,0)" />
		<circle id="Ellipse 3" cx="6.25" cy="19.25" r="1.75" fill="rgb(0,0,0)" />
		<circle id="Ellipse 6" cx="12.75" cy="19.25" r="1.75" fill="rgb(0,0,0)" />
		<circle id="Ellipse 9" cx="19.25" cy="19.25" r="1.75" fill="rgb(0,0,0)" />
		<circle id="Ellipse 12" cx="25.75" cy="19.25" r="1.75" fill="rgb(0,0,0)" />
		<circle id="Ellipse 13" cx="6.25" cy="25.75" r="1.75" fill="rgb(0,0,0)" />
		<circle id="Ellipse 14" cx="12.75" cy="25.75" r="1.75" fill="rgb(0,0,0)" />
		<circle id="Ellipse 15" cx="19.25" cy="25.75" r="1.75" fill="rgb(0,0,0)" />
		<circle id="Ellipse 16" cx="25.75" cy="25.75" r="1.75" fill="rgb(0,0,0)" />
	</g>
</svg>
