<svg viewBox="0 0 32.0005 32" xmlns="http://www.w3.org/2000/svg" xmlns:xlink="http://www.w3.org/1999/xlink" width="32.000488" height="32.000000" fill="none">
	<rect id="Name=sun, Type on-off=On" width="32.000000" height="32.000000" x="0.000000" y="0.000000" fill="rgb(255,255,255)" fill-opacity="0" />
	<g id="Group 11">
		<path id="Vector" d="M16 21C13.2386 21 11 18.7614 11 16C11 13.2386 13.2386 11 16 11C18.7614 11 21 13.2386 21 16C21 18.7614 18.7614 21 16 21Z" stroke="rgb(0,0,0)" stroke-linecap="round" stroke-linejoin="round" stroke-width="2" />
		<path id="Vector" d="M0 0L2 0" stroke="rgb(0,0,0)" stroke-linecap="round" stroke-linejoin="round" stroke-width="2" transform="matrix(0,1,-1,0,16.0005,5)" />
		<path id="Vector" d="M0 0L2 0" stroke="rgb(0,0,0)" stroke-linecap="round" stroke-linejoin="round" stroke-width="2" transform="matrix(0,1,-1,0,16.0005,25)" />
		<path id="Vector" d="M8.22021 8.22021L9.64021 9.64021" stroke="rgb(0,0,0)" stroke-linecap="round" stroke-linejoin="round" stroke-width="2" />
		<path id="Vector" d="M22.3599 22.3601L23.7799 23.7801" stroke="rgb(0,0,0)" stroke-linecap="round" stroke-linejoin="round" stroke-width="2" />
		<path id="Vector" d="M5 16L7 16" stroke="rgb(0,0,0)" stroke-linecap="round" stroke-linejoin="round" stroke-width="2" />
		<path id="Vector" d="M25.0005 16L27.0005 16" stroke="rgb(0,0,0)" stroke-linecap="round" stroke-linejoin="round" stroke-width="2" />
		<path id="Vector" d="M8.22021 23.7801L9.64021 22.3601" stroke="rgb(0,0,0)" stroke-linecap="round" stroke-linejoin="round" stroke-width="2" />
		<path id="Vector" d="M22.3599 9.64021L23.7799 8.22021" stroke="rgb(0,0,0)" stroke-linecap="round" stroke-linejoin="round" stroke-width="2" />
	</g>
</svg>
