<svg viewBox="0 0 32 32" xmlns="http://www.w3.org/2000/svg" xmlns:xlink="http://www.w3.org/1999/xlink" width="32.000000" height="32.000000" fill="none">
	<rect id="Name=AI, Type on-off=Off" width="32.000000" height="32.000000" x="0.000000" y="0.000000" fill="rgb(255,255,255)" fill-opacity="0" />
	<line id="Line 50" x1="0" x2="31.1544781" y1="0" y2="0" stroke="rgb(0,0,0)" stroke-width="2" transform="matrix(0.707107,-0.707107,0.707107,0.707107,6.25342,28.2854)" />
	<path id="Subtract" d="M22.3224 8L16.9482 8L16.9482 10L19.9482 10L19.9482 10.3733L22.3224 8ZM13.6289 16.6902L10.916 8.00098L8.97559 8.00098L3.9834 24L6.0459 24L7.3861 20.0039L10.314 20.0039L13.6289 16.6902ZM12.6669 20.4798L14.3018 18.8455L15.9111 24L13.8486 24L12.6669 20.4798ZM19.9482 13.2012L21.9482 11.2019L21.9482 22L24.9482 22L24.9482 24L16.9482 24L16.9482 22L19.9482 22L19.9482 13.2012ZM23.1506 10L24.9482 10L24.9482 8.20308L23.1506 10ZM11.8357 18.0039L8.05685 18.0039L9.94531 12.373L11.8357 18.0039Z" fill="rgb(0,0,0)" fill-rule="evenodd" />
</svg>
