<svg viewBox="0 0 32 32" xmlns="http://www.w3.org/2000/svg" xmlns:xlink="http://www.w3.org/1999/xlink" width="32.000000" height="32.000000" fill="none">
	<rect id="100_default" width="32.000000" height="32.000000" x="0.000000" y="0.000000" />
	<rect id="Icon/Controller/100_default" width="32.000000" height="32.000000" x="0.000000" y="0.000000" />
	<path id="Icon" d="M25.0005 3.48975L19.5102 3.48975L19.5102 1.00049C19.5102 0.71876 19.2822 0.489935 19.0005 0.489746L1.00049 0.489746C0.718646 0.489746 0.489746 0.718646 0.489746 1.00049L0.489746 31.0005C0.489935 31.2822 0.71876 31.5102 1.00049 31.5102L31.0005 31.5102C31.2821 31.5101 31.5101 31.2821 31.5102 31.0005L31.5102 8.00051C31.5102 7.71874 31.2822 7.48994 31.0005 7.48977L25.5102 7.48977L25.5102 4.00049C25.5102 3.71876 25.2822 3.48994 25.0005 3.48975ZM18.4898 30.4898L12.5102 30.4898L12.5102 23.0005C12.5102 22.7187 12.2822 22.4899 12.0005 22.4898L8.00051 22.4898C7.71863 22.4898 7.48977 22.7186 7.48977 23.0005L7.48977 30.4898L1.51025 30.4898L1.51025 1.51025L18.4898 1.51025L18.4898 30.4898ZM24.4887 7.48977L19.5102 7.48977L19.5102 4.51025L24.4887 4.51025L24.4887 7.48977ZM4.00049 7.14989C4.28199 7.14971 4.51025 6.92166 4.51025 6.64011L4.51025 5.35986C4.51011 5.07844 4.2819 4.85029 4.00049 4.8501C3.71891 4.8501 3.48989 5.07833 3.48975 5.35986L3.48975 6.64011C3.48975 6.92183 3.71882 7.14989 4.00049 7.14989ZM8.00051 7.14989C8.282 7.14971 8.51023 6.92166 8.51023 6.64011L8.51023 5.35986C8.51011 5.07844 8.28189 4.85029 8.00051 4.8501C7.71891 4.8501 7.48989 5.07833 7.48977 5.35986L7.48977 6.64011C7.48977 6.92183 7.7188 7.14989 8.00051 7.14989ZM12.0005 7.14989C12.282 7.14971 12.5102 6.92166 12.5102 6.64011L12.5102 5.35986C12.5101 5.07844 12.2819 4.85029 12.0005 4.8501C11.7189 4.8501 11.4899 5.07833 11.4898 5.35986L11.4898 6.64011C11.4898 6.92183 11.7188 7.14989 12.0005 7.14989ZM16.0005 7.14989C16.282 7.14971 16.5102 6.92166 16.5102 6.64011L16.5102 5.35986C16.5101 5.07844 16.2819 4.85029 16.0005 4.8501C15.7189 4.8501 15.4899 5.07833 15.4898 5.35986L15.4898 6.64011C15.4898 6.92183 15.7188 7.14989 16.0005 7.14989ZM30.4898 30.4898L19.5102 30.4898L19.5102 8.51023L30.4898 8.51023L30.4898 30.4898ZM4.00049 13.1499C4.28199 13.1497 4.51025 12.9217 4.51025 12.6401L4.51025 11.3599C4.51011 11.0785 4.2819 10.8503 4.00049 10.8501C3.71891 10.8501 3.48989 11.0783 3.48975 11.3599L3.48975 12.6401C3.48975 12.9218 3.71882 13.1499 4.00049 13.1499ZM8.00051 13.1499C8.282 13.1497 8.51023 12.9217 8.51023 12.6401L8.51023 11.3599C8.51011 11.0785 8.28189 10.8503 8.00051 10.8501C7.71891 10.8501 7.48989 11.0783 7.48977 11.3599L7.48977 12.6401C7.48977 12.9218 7.7188 13.1499 8.00051 13.1499ZM12.0005 13.1499C12.282 13.1497 12.5102 12.9217 12.5102 12.6401L12.5102 11.3599C12.5101 11.0785 12.2819 10.8503 12.0005 10.8501C11.7189 10.8501 11.4899 11.0783 11.4898 11.3599L11.4898 12.6401C11.4898 12.9218 11.7188 13.1499 12.0005 13.1499ZM16.0005 13.1499C16.282 13.1497 16.5102 12.9217 16.5102 12.6401L16.5102 11.3599C16.5101 11.0785 16.2819 10.8503 16.0005 10.8501C15.7189 10.8501 15.4899 11.0783 15.4898 11.3599L15.4898 12.6401C15.4898 12.9218 15.7188 13.1499 16.0005 13.1499ZM23.0005 13.1499C23.282 13.1498 23.5101 12.9217 23.5102 12.6401L23.5113 11.3609C23.5114 11.0789 23.2825 10.8501 23.0005 10.8501C22.7186 10.8501 22.4898 11.079 22.4898 11.3609L22.4898 12.6401C22.4898 12.9218 22.7188 13.1499 23.0005 13.1499ZM27.0005 13.1499C27.282 13.1498 27.5101 12.9217 27.5102 12.6401L27.5113 11.3609C27.5114 11.0789 27.2825 10.8501 27.0005 10.8501C26.7186 10.8501 26.4898 11.079 26.4898 11.3609L26.4898 12.6401C26.4898 12.9218 26.7188 13.1499 27.0005 13.1499ZM4.00049 19.1499C4.28199 19.1497 4.51025 18.9217 4.51025 18.6401L4.51025 17.3599C4.51011 17.0785 4.2819 16.8503 4.00049 16.8501C3.71891 16.8501 3.48989 17.0783 3.48975 17.3599L3.48975 18.6401C3.48975 18.9218 3.71882 19.1499 4.00049 19.1499ZM8.00051 19.1499C8.282 19.1497 8.51023 18.9217 8.51023 18.6401L8.51023 17.3599C8.51011 17.0785 8.28189 16.8503 8.00051 16.8501C7.71891 16.8501 7.48989 17.0783 7.48977 17.3599L7.48977 18.6401C7.48977 18.9218 7.7188 19.1499 8.00051 19.1499ZM12.0005 19.1499C12.282 19.1497 12.5102 18.9217 12.5102 18.6401L12.5102 17.3599C12.5101 17.0785 12.2819 16.8503 12.0005 16.8501C11.7189 16.8501 11.4899 17.0783 11.4898 17.3599L11.4898 18.6401C11.4898 18.9218 11.7188 19.1499 12.0005 19.1499ZM16.0005 19.1499C16.282 19.1497 16.5102 18.9217 16.5102 18.6401L16.5102 17.3599C16.5101 17.0785 16.2819 16.8503 16.0005 16.8501C15.7189 16.8501 15.4899 17.0783 15.4898 17.3599L15.4898 18.6401C15.4898 18.9218 15.7188 19.1499 16.0005 19.1499ZM23.0005 19.1499C23.282 19.1498 23.5101 18.9217 23.5102 18.6401L23.5113 17.3609C23.5114 17.0789 23.2825 16.8501 23.0005 16.8501C22.7186 16.8501 22.4898 17.079 22.4898 17.3609L22.4898 18.6401C22.4898 18.9218 22.7188 19.1499 23.0005 19.1499ZM27.0005 19.1499C27.282 19.1498 27.5101 18.9217 27.5102 18.6401L27.5113 17.3609C27.5114 17.0789 27.2825 16.8501 27.0005 16.8501C26.7186 16.8501 26.4898 17.079 26.4898 17.3609L26.4898 18.6401C26.4898 18.9218 26.7188 19.1499 27.0005 19.1499ZM4.00049 25.1499C4.28199 25.1497 4.51025 24.9217 4.51025 24.6401L4.51025 23.3599C4.51011 23.0785 4.2819 22.8503 4.00049 22.8501C3.71891 22.8501 3.48989 23.0783 3.48975 23.3599L3.48975 24.6401C3.48975 24.9218 3.71882 25.1499 4.00049 25.1499ZM16.0005 25.1499C16.282 25.1497 16.5102 24.9217 16.5102 24.6401L16.5102 23.3599C16.5101 23.0785 16.2819 22.8503 16.0005 22.8501C15.7189 22.8501 15.4899 23.0783 15.4898 23.3599L15.4898 24.6401C15.4898 24.9218 15.7188 25.1499 16.0005 25.1499ZM23.0005 25.1499C23.282 25.1498 23.5101 24.9217 23.5102 24.6401L23.5113 23.3609C23.5114 23.0789 23.2825 22.8501 23.0005 22.8501C22.7186 22.8501 22.4898 23.079 22.4898 23.3609L22.4898 24.6401C22.4898 24.9218 22.7188 25.1499 23.0005 25.1499ZM27.0005 25.1499C27.282 25.1498 27.5101 24.9217 27.5102 24.6401L27.5113 23.3609C27.5114 23.0789 27.2825 22.8501 27.0005 22.8501C26.7186 22.8501 26.4898 23.079 26.4898 23.3609L26.4898 24.6401C26.4898 24.9218 26.7188 25.1499 27.0005 25.1499ZM11.4898 30.4898L8.51023 30.4898L8.51023 23.5102L11.4898 23.5102L11.4898 30.4898Z" fill="rgb(0,0,0)" fill-rule="evenodd" />
</svg>
