<svg viewBox="0 0 56 56" xmlns="http://www.w3.org/2000/svg" xmlns:xlink="http://www.w3.org/1999/xlink" width="56.000000" height="56.000000" fill="none">
	<rect id="Icon/Controller/100_default" width="56.000000" height="56.000000" x="0.000000" y="0.000000" />
	<path id="Icon" d="M43.7509 6.10706L34.1429 6.10706L34.1429 1.75085C34.1429 1.25783 33.7438 0.857387 33.2509 0.857056L1.75085 0.857056C1.25763 0.857056 0.857056 1.25763 0.857056 1.75085L0.857056 54.2509C0.857387 54.7438 1.25783 55.1429 1.75085 55.1429L54.2509 55.1429C54.7436 55.1426 55.1426 54.7436 55.1429 54.2509L55.1429 14.0009C55.1429 13.5078 54.7438 13.1074 54.2509 13.1071L44.6429 13.1071L44.6429 7.00085C44.6429 6.50783 44.2438 6.10739 43.7509 6.10706ZM32.3571 53.3571L21.8929 53.3571L21.8929 40.2509C21.8929 39.7578 21.4938 39.3574 21.0009 39.3571L14.0009 39.3571C13.5076 39.3571 13.1071 39.7576 13.1071 40.2509L13.1071 53.3571L2.64294 53.3571L2.64294 2.64294L32.3571 2.64294L32.3571 53.3571ZM42.8553 13.1071L34.1429 13.1071L34.1429 7.89294L42.8553 7.89294L42.8553 13.1071ZM7.00085 12.5123C7.49349 12.512 7.89294 12.1129 7.89294 11.6202L7.89294 9.37976C7.89269 8.88727 7.49333 8.488 7.00085 8.48767C6.5081 8.48767 6.10731 8.88707 6.10706 9.37976L6.10706 11.6202C6.10706 12.1132 6.50794 12.5123 7.00085 12.5123ZM14.0009 12.5123C14.4935 12.512 14.8929 12.1129 14.8929 11.6202L14.8929 9.37976C14.8927 8.88727 14.4933 8.488 14.0009 8.48767C13.5081 8.48767 13.1073 8.88707 13.1071 9.37976L13.1071 11.6202C13.1071 12.1132 13.5079 12.5123 14.0009 12.5123ZM21.0009 12.5123C21.4935 12.512 21.8929 12.1129 21.8929 11.6202L21.8929 9.37976C21.8927 8.88727 21.4933 8.488 21.0009 8.48767C20.5081 8.48767 20.1073 8.88707 20.1071 9.37976L20.1071 11.6202C20.1071 12.1132 20.5079 12.5123 21.0009 12.5123ZM28.0009 12.5123C28.4935 12.512 28.8929 12.1129 28.8929 11.6202L28.8929 9.37976C28.8927 8.88727 28.4933 8.488 28.0009 8.48767C27.5081 8.48767 27.1073 8.88707 27.1071 9.37976L27.1071 11.6202C27.1071 12.1132 27.5079 12.5123 28.0009 12.5123ZM53.3571 53.3571L34.1429 53.3571L34.1429 14.8929L53.3571 14.8929L53.3571 53.3571ZM7.00085 23.0123C7.49349 23.012 7.89294 22.6129 7.89294 22.1202L7.89294 19.8798C7.89269 19.3873 7.49333 18.988 7.00085 18.9877C6.5081 18.9877 6.10731 19.3871 6.10706 19.8798L6.10706 22.1202C6.10706 22.6132 6.50794 23.0123 7.00085 23.0123ZM14.0009 23.0123C14.4935 23.012 14.8929 22.6129 14.8929 22.1202L14.8929 19.8798C14.8927 19.3873 14.4933 18.988 14.0009 18.9877C13.5081 18.9877 13.1073 19.3871 13.1071 19.8798L13.1071 22.1202C13.1071 22.6132 13.5079 23.0123 14.0009 23.0123ZM21.0009 23.0123C21.4935 23.012 21.8929 22.6129 21.8929 22.1202L21.8929 19.8798C21.8927 19.3873 21.4933 18.988 21.0009 18.9877C20.5081 18.9877 20.1073 19.3871 20.1071 19.8798L20.1071 22.1202C20.1071 22.6132 20.5079 23.0123 21.0009 23.0123ZM28.0009 23.0123C28.4935 23.012 28.8929 22.6129 28.8929 22.1202L28.8929 19.8798C28.8927 19.3873 28.4933 18.988 28.0009 18.9877C27.5081 18.9877 27.1073 19.3871 27.1071 19.8798L27.1071 22.1202C27.1071 22.6132 27.5079 23.0123 28.0009 23.0123ZM40.2509 23.0123C40.7435 23.0121 41.1427 22.6129 41.1429 22.1202L41.1447 19.8815C41.1449 19.388 40.7443 18.9877 40.2509 18.9877C39.7576 18.9877 39.3571 19.3882 39.3571 19.8815L39.3571 22.1202C39.3571 22.6132 39.7579 23.0123 40.2509 23.0123ZM47.2509 23.0123C47.7435 23.0121 48.1427 22.6129 48.1429 22.1202L48.1447 19.8815C48.1449 19.388 47.7443 18.9877 47.2509 18.9877C46.7576 18.9877 46.3571 19.3882 46.3571 19.8815L46.3571 22.1202C46.3571 22.6132 46.7579 23.0123 47.2509 23.0123ZM7.00085 33.5123C7.49349 33.512 7.89294 33.1129 7.89294 32.6202L7.89294 30.3798C7.89269 29.8873 7.49333 29.488 7.00085 29.4877C6.5081 29.4877 6.10731 29.8871 6.10706 30.3798L6.10706 32.6202C6.10706 33.1132 6.50794 33.5123 7.00085 33.5123ZM14.0009 33.5123C14.4935 33.512 14.8929 33.1129 14.8929 32.6202L14.8929 30.3798C14.8927 29.8873 14.4933 29.488 14.0009 29.4877C13.5081 29.4877 13.1073 29.8871 13.1071 30.3798L13.1071 32.6202C13.1071 33.1132 13.5079 33.5123 14.0009 33.5123ZM21.0009 33.5123C21.4935 33.512 21.8929 33.1129 21.8929 32.6202L21.8929 30.3798C21.8927 29.8873 21.4933 29.488 21.0009 29.4877C20.5081 29.4877 20.1073 29.8871 20.1071 30.3798L20.1071 32.6202C20.1071 33.1132 20.5079 33.5123 21.0009 33.5123ZM28.0009 33.5123C28.4935 33.512 28.8929 33.1129 28.8929 32.6202L28.8929 30.3798C28.8927 29.8873 28.4933 29.488 28.0009 29.4877C27.5081 29.4877 27.1073 29.8871 27.1071 30.3798L27.1071 32.6202C27.1071 33.1132 27.5079 33.5123 28.0009 33.5123ZM40.2509 33.5123C40.7435 33.5121 41.1427 33.1129 41.1429 32.6202L41.1447 30.3815C41.1449 29.888 40.7443 29.4877 40.2509 29.4877C39.7576 29.4877 39.3571 29.8882 39.3571 30.3815L39.3571 32.6202C39.3571 33.1132 39.7579 33.5123 40.2509 33.5123ZM47.2509 33.5123C47.7435 33.5121 48.1427 33.1129 48.1429 32.6202L48.1447 30.3815C48.1449 29.888 47.7443 29.4877 47.2509 29.4877C46.7576 29.4877 46.3571 29.8882 46.3571 30.3815L46.3571 32.6202C46.3571 33.1132 46.7579 33.5123 47.2509 33.5123ZM7.00085 44.0123C7.49349 44.012 7.89294 43.6129 7.89294 43.1202L7.89294 40.8798C7.89269 40.3873 7.49333 39.988 7.00085 39.9877C6.5081 39.9877 6.10731 40.3871 6.10706 40.8798L6.10706 43.1202C6.10706 43.6132 6.50794 44.0123 7.00085 44.0123ZM28.0009 44.0123C28.4935 44.012 28.8929 43.6129 28.8929 43.1202L28.8929 40.8798C28.8927 40.3873 28.4933 39.988 28.0009 39.9877C27.5081 39.9877 27.1073 40.3871 27.1071 40.8798L27.1071 43.1202C27.1071 43.6132 27.5079 44.0123 28.0009 44.0123ZM40.2509 44.0123C40.7435 44.0121 41.1427 43.6129 41.1429 43.1202L41.1447 40.8815C41.1449 40.388 40.7443 39.9877 40.2509 39.9877C39.7576 39.9877 39.3571 40.3882 39.3571 40.8815L39.3571 43.1202C39.3571 43.6132 39.7579 44.0123 40.2509 44.0123ZM47.2509 44.0123C47.7435 44.0121 48.1427 43.6129 48.1429 43.1202L48.1447 40.8815C48.1449 40.388 47.7443 39.9877 47.2509 39.9877C46.7576 39.9877 46.3571 40.3882 46.3571 40.8815L46.3571 43.1202C46.3571 43.6132 46.7579 44.0123 47.2509 44.0123ZM20.1071 53.3571L14.8929 53.3571L14.8929 41.1429L20.1071 41.1429L20.1071 53.3571Z" fill="rgb(0,0,0)" fill-rule="evenodd" />
</svg>
