<svg viewBox="0 0 56 56" xmlns="http://www.w3.org/2000/svg" xmlns:xlink="http://www.w3.org/1999/xlink" width="56.000000" height="56.000000" fill="none">
	<rect id="Icon/Controller/103_banya" width="56.000000" height="56.000000" x="0.000000" y="0.000000" />
	<path id="Icon" d="M27.3688 1.11885C27.7179 0.769691 28.2807 0.769888 28.63 1.11885L49.8573 22.3461L49.8573 16.3818C49.8573 15.8887 50.2581 15.4884 50.7511 15.488C51.2444 15.488 51.6449 15.8884 51.6449 16.3818L51.6449 24.1303L54.4374 26.9228C54.6112 27.0968 54.698 27.3248 54.698 27.5528C54.698 27.7827 54.6098 28.0126 54.4339 28.1875C54.0849 28.5335 53.5222 28.5332 53.1744 28.1857L27.9994 3.0107L2.82603 28.1857C2.47751 28.5334 1.91133 28.5339 1.56309 28.1857C1.38915 28.0117 1.30225 27.7831 1.30225 27.5545C1.30225 27.3258 1.38923 27.0971 1.56309 26.9228L27.3688 1.11885ZM49.9273 2.96456C50.1893 2.65149 50.6729 2.5729 51.0433 2.73897L51.1869 2.81929C51.3195 2.91132 51.4205 3.03725 51.4723 3.18502C51.4967 3.25477 51.5088 3.32677 51.5088 3.39883C51.5088 3.5307 51.4681 3.66274 51.3868 3.78145L51.3902 3.77974C51.3902 3.77974 51.3833 3.78665 51.38 3.79171L51.3817 3.79342L51.3612 3.82418L51.3578 3.82589L51.3561 3.8293C51.339 3.85458 51.3132 3.89541 51.2792 3.94893C51.2128 4.05318 51.123 4.2019 51.0348 4.36934C50.8423 4.735 50.7153 5.08461 50.7152 5.30245C50.7154 5.52051 50.8422 5.86984 51.0348 6.23555L51.2792 6.65426C51.3137 6.70848 51.3388 6.75011 51.3561 6.77559L51.3629 6.78243L51.3834 6.81319L51.3851 6.81661C51.388 6.82076 51.3912 6.82628 51.3937 6.83028C51.4001 6.8396 51.4187 6.86628 51.4244 6.87471C51.4491 6.91119 51.4856 6.96354 51.527 7.02852C51.6088 7.15716 51.7189 7.33987 51.8294 7.54976C52.0346 7.93944 52.3044 8.54012 52.3045 9.10323C52.3044 9.66662 52.0347 10.2686 51.8294 10.6584C51.7189 10.8682 51.6088 11.0511 51.527 11.1796C51.4857 11.2443 51.449 11.2971 51.4244 11.3335C51.4184 11.3423 51.4017 11.367 51.3954 11.3762L51.3919 11.3779L51.3937 11.3796L51.3919 11.3813L51.368 11.4189L51.339 11.4411C51.0762 11.7528 50.5944 11.833 50.2247 11.6667C50.022 11.5751 49.8643 11.418 49.7958 11.2207C49.7714 11.1506 49.7593 11.078 49.7593 11.0052C49.7593 10.9215 49.7754 10.8377 49.8077 10.7575L49.8778 10.6294L49.8675 10.6464L49.8744 10.6328C49.8777 10.6266 49.8841 10.6161 49.8915 10.6054L49.8983 10.5952L49.9017 10.5918L49.9034 10.5883C49.9063 10.5844 49.9095 10.58 49.912 10.5764C49.9319 10.5469 49.9588 10.5067 49.9906 10.4567C50.0573 10.3519 50.147 10.2034 50.235 10.0363C50.3792 9.7623 50.4874 9.49697 50.5323 9.28951L50.5545 9.10323C50.5544 8.8851 50.4276 8.53587 50.235 8.17012C50.1469 8.00299 50.0574 7.85634 49.9906 7.75142C49.9584 7.70084 49.9321 7.65978 49.912 7.63009C49.9022 7.61562 49.8951 7.60628 49.8915 7.60103C49.8915 7.60103 49.8867 7.59232 49.8829 7.58736L49.8795 7.58394L49.8778 7.58052L49.8744 7.57711L49.7411 7.37716C49.6585 7.24741 49.5501 7.06604 49.4403 6.85762C49.2354 6.46866 48.9637 5.86619 48.9635 5.30245C48.9636 4.73903 49.2355 4.13795 49.4403 3.74898C49.5501 3.54045 49.6584 3.35759 49.7411 3.22774C49.7822 3.16318 49.8189 3.11038 49.8436 3.07393C49.8564 3.0551 49.868 3.03861 49.8744 3.0295C49.8777 3.02469 49.8807 3.01912 49.8829 3.01583L49.9017 2.98677L49.9273 2.96456ZM27.5704 11.6171C27.9745 11.3891 28.4789 11.5205 28.7291 11.9025L28.7513 11.9248L28.7752 11.9726C28.7816 11.9841 28.7933 12.0038 28.806 12.0273C28.8305 12.0728 28.866 12.1397 28.9068 12.2204C28.9886 12.382 29.0954 12.6085 29.2042 12.8681C29.4094 13.3578 29.6707 14.0916 29.6708 14.7685C29.6706 15.4455 29.4094 16.1809 29.2042 16.6706C29.0954 16.9301 28.9886 17.157 28.9068 17.3183L28.806 17.5097C28.7935 17.533 28.7816 17.5528 28.7752 17.5644C28.7716 17.5714 28.7689 17.5797 28.765 17.5866L28.7633 17.5849L28.7599 17.5866L28.7599 17.5918L28.7633 17.5849L28.7633 17.5883C28.7603 17.5937 28.7564 17.6003 28.7564 17.6003L28.7547 17.602L28.7376 17.6345C28.7177 17.6716 28.6901 17.7236 28.6573 17.7883C28.5899 17.9215 28.4986 18.1089 28.4095 18.3215C28.2177 18.7796 28.08 19.2396 28.0797 19.5451C28.0798 19.851 28.2173 20.3134 28.4095 20.7722C28.4987 20.9851 28.5899 21.1722 28.6573 21.3054C28.6865 21.3629 28.7116 21.4099 28.7308 21.4455L28.7633 21.5036L28.7684 21.5122L28.777 21.5275L28.806 21.5822C28.8304 21.6276 28.8644 21.6932 28.9051 21.7736C28.9864 21.934 29.0965 22.1604 29.2059 22.4213C29.4113 22.9116 29.6706 23.6468 29.6708 24.3234C29.6705 25 29.4114 25.7352 29.2059 26.2255C29.0966 26.4864 28.9863 26.7129 28.9051 26.8732C28.8643 26.9538 28.8304 27.021 28.806 27.0664C28.7988 27.0797 28.7834 27.1077 28.777 27.1193L28.753 27.1672L28.7291 27.1894C28.4784 27.5708 27.9741 27.7014 27.5704 27.4731C27.2864 27.3118 27.127 27.0155 27.127 26.7106C27.127 26.5684 27.1617 26.4244 27.2346 26.2913C27.2336 26.2936 27.2328 26.2956 27.232 26.2973L27.2389 26.2836C27.2374 26.2862 27.236 26.2887 27.2346 26.2913C27.237 26.2857 27.2401 26.2787 27.244 26.2717C27.2461 26.2679 27.2508 26.2614 27.2508 26.2614L27.2525 26.2563L27.256 26.2512C27.2588 26.2462 27.2617 26.2409 27.2645 26.2358C27.2844 26.1988 27.3121 26.1466 27.3448 26.082C27.4122 25.9489 27.5034 25.7615 27.5926 25.5488C27.7846 25.0904 27.9222 24.6292 27.9225 24.3234C27.9223 24.0176 27.7848 23.5569 27.5926 23.0981C27.5034 22.8851 27.4123 22.6982 27.3448 22.5649C27.3122 22.5005 27.2844 22.4498 27.2645 22.4128L27.2474 22.3803L27.2457 22.3769C27.2457 22.3769 27.2414 22.3712 27.2389 22.3667L27.2355 22.3581L27.2303 22.3496L27.2286 22.3479L27.2252 22.341C27.2184 22.3286 27.2029 22.3007 27.1961 22.288C27.1717 22.2427 27.1377 22.1769 27.097 22.0966C27.0158 21.9363 26.9055 21.7096 26.7962 21.4489C26.5907 20.9585 26.3315 20.2218 26.3314 19.5451C26.3316 18.8689 26.5909 18.1349 26.7962 17.6447C26.9056 17.3839 27.0158 17.1575 27.097 16.997C27.1379 16.9163 27.1716 16.8494 27.1961 16.8039C27.203 16.7912 27.2184 16.7633 27.2252 16.7509L27.2355 16.7338L27.2372 16.7287L27.2542 16.6962L27.256 16.6928C27.2582 16.6887 27.2618 16.6841 27.2645 16.6792C27.2822 16.6462 27.3104 16.595 27.3448 16.5271C27.4123 16.3939 27.5017 16.2066 27.5909 15.9939C27.7832 15.535 27.9206 15.0744 27.9208 14.7685C27.9207 14.463 27.783 14.0036 27.5909 13.5449C27.5016 13.3316 27.412 13.1427 27.3448 13.01C27.3102 12.9417 27.2822 12.889 27.2645 12.8562L27.2389 12.81C27.1624 12.6744 27.1262 12.5269 27.1262 12.3814C27.1262 12.0756 27.2862 11.7782 27.5704 11.6171ZM21.0848 18.3147C21.3348 17.9327 21.8395 17.8017 22.2435 18.0293C22.5277 18.1901 22.6873 18.4863 22.6873 18.7915C22.6873 18.9334 22.6528 19.0772 22.5802 19.2102C22.5785 19.2139 22.5746 19.2239 22.5699 19.2324L22.558 19.2529L22.5563 19.2546C22.5539 19.2589 22.5518 19.2638 22.5494 19.2683C22.5317 19.3012 22.5035 19.3541 22.4691 19.4221C22.4019 19.5548 22.3122 19.744 22.223 19.957C22.031 20.4155 21.8933 20.8752 21.8932 21.1806C21.8933 21.4864 22.0308 21.9471 22.223 22.406C22.3122 22.6189 22.4016 22.8059 22.4691 22.9392C22.5035 23.0072 22.5316 23.0582 22.5494 23.0913C22.5527 23.0974 22.5554 23.1035 22.558 23.1084L22.5768 23.1408L22.5785 23.146C22.5816 23.1516 22.5846 23.1579 22.587 23.163L22.6178 23.216C22.6423 23.2615 22.6759 23.3282 22.7169 23.4091C22.7982 23.5696 22.9082 23.7957 23.0177 24.0568C23.2231 24.547 23.4823 25.2807 23.4825 25.9572C23.4825 26.634 23.2232 27.3706 23.0177 27.861C22.9084 28.1216 22.798 28.3485 22.7169 28.5087C22.6763 28.5889 22.6421 28.6549 22.6178 28.7002C22.6108 28.7131 22.5954 28.741 22.5887 28.7531L22.5648 28.801L22.5409 28.8249C22.2901 29.2058 21.7856 29.3366 21.3822 29.1086C21.0981 28.9473 20.9384 28.6503 20.9384 28.345C20.9384 28.1998 20.9746 28.0527 21.0506 27.9174L21.0558 27.9072C21.058 27.9031 21.0626 27.8952 21.0626 27.8952L21.0643 27.8918L21.0677 27.8867C21.0708 27.8814 21.0733 27.8751 21.0763 27.8696C21.0961 27.8327 21.1241 27.7816 21.1566 27.7175C21.224 27.5844 21.3152 27.397 21.4044 27.1843C21.5967 26.7254 21.7342 26.2631 21.7342 25.9572C21.7339 25.6515 21.5964 25.1919 21.4044 24.7336C21.3152 24.5207 21.2241 24.3337 21.1566 24.2004C21.1237 24.1355 21.0963 24.0837 21.0763 24.0466L21.0592 24.0141L21.0575 24.0124C21.0575 24.0124 21.0535 24.0056 21.0506 24.0004L21.0438 23.9868L21.0387 23.9782C21.0323 23.9666 21.0207 23.9455 21.0079 23.9218C20.9834 23.8763 20.948 23.8111 20.9071 23.7304C20.8253 23.569 20.7186 23.3424 20.6097 23.0827C20.4045 22.593 20.1433 21.8576 20.1432 21.1806C20.1433 20.5039 20.4046 19.7699 20.6097 19.2802C20.7184 19.0209 20.8253 18.7941 20.9071 18.6325C20.9478 18.5521 20.9834 18.4849 21.0079 18.4394C21.0204 18.4162 21.0322 18.3963 21.0387 18.3847L21.0626 18.3369L21.0848 18.3147ZM33.4613 18.3147C33.711 17.9326 34.2159 17.8021 34.62 18.0293L34.6217 18.031C34.9058 18.1921 35.0659 18.4887 35.0659 18.794C35.0659 18.9393 35.0297 19.0865 34.9532 19.2221L34.9464 19.2324C34.9445 19.2359 34.9413 19.2426 34.9413 19.2426L34.9378 19.2478L34.9361 19.2512C34.933 19.2565 34.9288 19.2628 34.9259 19.2683C34.9082 19.3012 34.8817 19.3541 34.8473 19.4221C34.7801 19.5548 34.6905 19.7438 34.6012 19.957C34.4091 20.4156 34.2715 20.8751 34.2713 21.1806C34.2715 21.4864 34.4089 21.9471 34.6012 22.406C34.6904 22.6188 34.7798 22.806 34.8473 22.9392C34.8815 23.0068 34.9081 23.0582 34.9259 23.0913C34.9291 23.0972 34.9319 23.1036 34.9344 23.1084L34.9361 23.1101L34.9549 23.1408C34.9594 23.1487 34.9623 23.1565 34.9652 23.163L34.9942 23.216C35.0188 23.2615 35.054 23.3281 35.0951 23.4091C35.1763 23.5696 35.2865 23.7958 35.3959 24.0568C35.6012 24.547 35.8604 25.2809 35.8607 25.9572C35.8606 26.634 35.6014 27.3706 35.3959 27.861C35.2866 28.1217 35.1763 28.3485 35.0951 28.5087C35.0543 28.5892 35.0186 28.6549 34.9942 28.7002C34.9872 28.7132 34.9718 28.7412 34.9652 28.7531L34.9413 28.801L34.919 28.8232C34.6686 29.2055 34.1627 29.3371 33.7586 29.1086C33.475 28.9475 33.316 28.6512 33.316 28.3465C33.316 28.2008 33.3524 28.0532 33.4288 27.9174C33.4288 27.9174 33.4321 27.9105 33.4339 27.9072C33.4362 27.9031 33.4391 27.8952 33.4391 27.8952L33.4425 27.8918L33.4442 27.8867C33.4473 27.8813 33.4514 27.8751 33.4544 27.8696C33.4743 27.8327 33.5023 27.7816 33.5348 27.7175C33.6021 27.5845 33.6917 27.3969 33.7809 27.1843C33.9731 26.7254 34.1106 26.2631 34.1107 25.9572C34.1104 25.6514 33.9729 25.192 33.7809 24.7336C33.6917 24.5209 33.6022 24.3336 33.5348 24.2004C33.5019 24.1356 33.4744 24.0837 33.4544 24.0466L33.4374 24.0141L33.4356 24.0124C33.4356 24.0124 33.4319 24.006 33.4288 24.0004L33.422 23.9902L33.4168 23.9782C33.4104 23.9666 33.3988 23.9455 33.3861 23.9218C33.3616 23.8764 33.3261 23.8111 33.2853 23.7304C33.2034 23.5689 33.0951 23.3425 32.9862 23.0827C32.781 22.593 32.5198 21.8576 32.5196 21.1806C32.5197 20.5041 32.7811 19.7699 32.9862 19.2802C33.0949 19.0207 33.2035 18.7941 33.2853 18.6325C33.326 18.5521 33.3616 18.4849 33.3861 18.4394C33.3986 18.4163 33.4104 18.3963 33.4168 18.3847L33.4408 18.3369L33.4613 18.3147ZM22.6007 23.1989L22.599 23.1904C22.5978 23.187 22.5957 23.1831 22.5938 23.1784C22.5971 23.1872 22.5994 23.1945 22.6007 23.1989ZM28.8744 29.7358L29.0145 29.8007L33.4254 31.8549L34.1927 31.7251C34.2901 31.7089 34.3686 31.696 34.4217 31.6875C34.4323 31.6858 34.4433 31.6839 34.4525 31.6823C34.4604 31.6809 34.4724 31.6787 34.4815 31.6772C34.4895 31.6759 34.4984 31.6744 34.5038 31.6738L34.6661 31.6482L34.7345 31.6379L34.7994 31.6618L34.9532 31.7199L38.6292 33.1315L38.8019 33.1999L38.8753 33.2273L38.9215 33.2922L39.0104 33.417L39.0172 33.4238L39.0292 33.4426L39.0343 33.4494C39.0376 33.4541 39.0428 33.4614 39.0428 33.4614L39.0497 33.4716C39.0577 33.4831 39.0826 33.5168 39.1043 33.5485C39.1505 33.6159 39.2133 33.7118 39.2872 33.8254C39.4377 34.057 39.641 34.382 39.8443 34.7517C40.0463 35.1188 40.2579 35.5456 40.4203 35.977C40.4802 36.1364 40.5335 36.3066 40.5809 36.4812L42.9051 36.4812C43.1653 36.4812 43.4151 36.597 43.5819 36.799C43.7063 36.9504 43.7746 37.1381 43.7801 37.3305L43.7647 37.5236L42.9615 41.6013L43.5255 41.6013C43.7892 41.6013 44.0394 41.7205 44.2057 41.926C44.3325 42.083 44.4008 42.2775 44.4008 42.4763C44.4008 42.5366 44.3945 42.5973 44.3817 42.6574L43.5443 46.5676C43.4576 46.9703 43.1022 47.2596 42.6898 47.2597L41.8473 47.2597L41.191 50.5922C41.1101 51.0016 40.7507 51.2976 40.3331 51.2981L15.6263 51.2981C15.2096 51.2968 14.8492 51.0016 14.7684 50.5922L14.1122 47.2597L13.2628 47.2597C12.8391 47.2592 12.4754 46.9548 12.4015 46.5368L11.7127 42.6267C11.7039 42.5763 11.6995 42.5256 11.6995 42.4751C11.6995 42.2718 11.7703 42.0725 11.9024 41.914C12.0688 41.716 12.3162 41.6015 12.5741 41.6013L12.9979 41.6013L12.1947 37.5236C12.184 37.4688 12.1788 37.4135 12.1788 37.3585C12.1788 37.1564 12.2492 36.9575 12.3792 36.799C12.546 36.5966 12.7949 36.4817 13.0543 36.4812L15.6417 36.4812C15.6995 36.3422 15.7622 36.2108 15.8263 36.0949C16.0238 35.7378 16.2768 35.3925 16.5116 35.102C16.7492 34.808 16.9848 34.5498 17.1593 34.3671C17.2456 34.2768 17.3198 34.2028 17.3729 34.1501C17.3993 34.1239 17.4242 34.0985 17.4361 34.0869L17.4566 34.0681L17.4601 34.0647L17.5045 34.0219L17.5233 34.0031L17.5455 33.9895L17.5968 33.957C17.9768 33.7173 18.4725 33.5338 18.94 33.3913C19.422 33.2446 19.943 33.1206 20.4149 33.0239C20.5267 33.001 20.6382 32.9808 20.7447 32.9607L23.7936 30.0673L23.8636 30.0007L24.1832 29.9836L28.5941 29.7221L28.7496 29.7119L28.8163 29.7085L28.8744 29.7358ZM24.6019 31.7097L23.2911 32.9555L26.2528 33.7297C26.4569 33.5952 26.6888 33.4874 26.8988 33.4016C27.2247 33.2684 27.6132 33.1404 28.0267 33.0205C28.7663 32.806 29.6416 32.6026 30.4962 32.4206L28.4762 31.4807L24.6019 31.7097ZM50.7511 32.988C51.2444 32.988 51.6449 33.3884 51.6449 33.8818L51.6449 53.3574L53.6205 53.3574C54.113 53.3576 54.5122 53.757 54.5126 54.2495C54.5124 54.7422 54.1132 55.1431 53.6205 55.1433L2.37998 55.1433C1.8876 55.1427 1.48801 54.742 1.48789 54.2495C1.48827 53.7572 1.88775 53.3579 2.37998 53.3574L4.35728 53.3574L4.35728 33.8801C4.35732 33.3877 4.75722 32.9889 5.24937 32.988C5.74225 32.988 6.14312 33.3872 6.14317 33.8801L6.14317 53.3574L49.8573 53.3574L49.8573 33.8818C49.8573 33.3887 50.2581 32.9884 50.7511 32.988ZM34.4781 33.4511C34.2849 33.4831 34.0073 33.5293 33.6732 33.5878C33.0019 33.7056 32.0975 33.873 31.1661 34.0664C30.2314 34.2605 29.2822 34.4781 28.5155 34.7004C28.3434 34.7503 28.1821 34.8016 28.0353 34.8508C28.4683 35.3095 29.0652 35.8955 29.763 36.4795L38.7335 36.4795C38.6157 36.1875 38.4675 35.8829 38.3097 35.5959C38.1326 35.274 37.9536 34.9859 37.8192 34.779C37.7921 34.7374 37.7656 34.6992 37.7423 34.6645L34.5482 33.4392C34.5271 33.4429 34.5029 33.447 34.4781 33.4511ZM21.9137 34.5329C21.8118 34.5489 21.6962 34.5681 21.5719 34.5893L21.4625 34.6953L21.3907 34.6201C21.1973 34.6544 20.9857 34.6949 20.7669 34.7397C20.3254 34.8301 19.861 34.9391 19.4493 35.0644C19.0717 35.1795 18.7811 35.2967 18.5948 35.4011C18.5521 35.4436 18.4931 35.5046 18.4239 35.5771C18.2721 35.7361 18.0721 35.9571 17.8736 36.2026C17.8002 36.2935 17.7305 36.3886 17.6634 36.4812L26.8988 36.4812C26.8316 36.3884 26.7622 36.2937 26.6886 36.2026C26.49 35.957 26.2875 35.7368 26.1349 35.5771C26.1012 35.5419 26.069 35.51 26.0409 35.4814L22.2333 34.4851C22.1524 34.4965 22.043 34.5127 21.9137 34.5329ZM14.7821 41.6013L19.974 41.6013L19.639 38.2312L15.4452 38.2312L14.119 38.2295L14.7821 41.6013ZM28.565 38.2312L28.565 41.6013L34.2235 41.6013L34.5602 38.2295L28.565 38.2312ZM35.9855 41.6013L41.1773 41.6013L41.8404 38.2295L36.3204 38.2295L35.9855 41.6013ZM21.7359 41.6013L26.815 41.6013L26.815 38.2312L21.3993 38.2312L21.7359 41.6013ZM13.9977 45.5097L26.815 45.5097L26.815 43.3496L13.6166 43.3496L13.9977 45.5097ZM28.565 45.5097L41.984 45.5097L42.4437 43.3496L28.565 43.3496L28.565 45.5097ZM16.3475 49.5481L20.7669 49.5481L20.5396 47.2597L15.8963 47.2597L16.3475 49.5481ZM22.5255 49.5481L26.815 49.5481L26.815 47.2597L22.2982 47.2597L22.5255 49.5481ZM28.565 49.5481L33.4339 49.5481L33.6612 47.2597L28.565 47.2597L28.565 49.5481ZM35.1925 49.5481L39.6119 49.5481L40.0631 47.2597L35.4198 47.2597L35.1925 49.5481Z" fill="rgb(0,0,0)" fill-rule="evenodd" />
</svg>
