<svg viewBox="0 0 32 32" xmlns="http://www.w3.org/2000/svg" xmlns:xlink="http://www.w3.org/1999/xlink" width="32.000000" height="32.000000" fill="none">
	<rect id="109_kabinety" width="32.000000" height="32.000000" x="0.000000" y="0.000000" />
	<rect id="Icon/Controller/109_kabinety" width="32.000000" height="32.000000" x="0.000000" y="0.000000" />
	<path id="Icon" d="M17.5102 2.27344C17.5102 1.99176 17.2821 1.76288 17.0005 1.7627L2.00048 1.7627C1.7188 1.76283 1.48981 1.99173 1.48975 2.27344L1.48975 30.2734C1.48993 30.555 1.71887 30.7831 2.00048 30.7832L17.0005 30.7832C17.2821 30.783 17.5101 30.555 17.5102 30.2734L17.5102 2.27344ZM16.4898 29.7627L2.51025 29.7627L2.51025 2.7832L16.4898 2.7832L16.4898 29.7627ZM30.0005 3.7627C30.2821 3.76288 30.5102 3.99176 30.5102 4.27344L30.5102 28.2734C30.5101 28.5202 30.3351 28.7253 30.103 28.7734L30.0005 28.7842L25.2593 28.7842L25.2593 28.7978L24.2378 28.7978L24.2378 28.7842L22.481 28.7842L22.481 28.7959L21.4614 28.7959L21.4614 28.7842L18.8501 28.7842L18.8501 27.7627L21.4614 27.7627L21.4614 20.6377L21.4341 20.627C20.4806 20.241 19.8637 19.3259 19.8647 18.2988L19.8657 15.8711C19.8658 14.9042 20.2531 14.0041 20.9546 13.3379C21.6565 12.6725 22.5776 12.3338 23.5483 12.3838C25.3806 12.4805 26.8548 14.1275 26.854 16.042L26.8521 18.3047C26.8499 19.3295 26.2359 20.2409 25.2876 20.6279L25.2593 20.6387L25.2593 27.7627L29.4898 27.7627L29.4898 4.7832L18.8501 4.7832L18.8501 3.7627L30.0005 3.7627ZM25.3686 9.61326C25.3684 8.50468 24.4675 7.60354 23.3589 7.60354C22.2505 7.60377 21.3494 8.5048 21.3491 9.61326C21.3491 10.722 22.2513 11.6238 23.3589 11.624C24.4667 11.624 25.3686 10.7222 25.3686 9.61326ZM13.5659 12.1377L5.54639 12.1377L5.54639 8.50686L13.5659 8.50686L13.5659 12.1377ZM22.3686 9.61326C22.3689 9.06851 22.8141 8.62428 23.3589 8.624C23.9039 8.624 24.3489 9.06834 24.3491 9.61326C24.3491 10.1585 23.9041 10.6035 23.3589 10.6035C22.8139 10.6033 22.3686 10.1583 22.3686 9.61326ZM6.56594 11.1172L12.5464 11.1172L12.5464 9.52634L6.56594 9.52634L6.56594 11.1172ZM23.4946 13.3994C22.8899 13.3715 22.3166 13.5491 21.8501 13.9092L21.6577 14.0742C21.1605 14.547 20.8863 15.1835 20.8862 15.8682L20.8853 18.2959C20.8853 18.9077 21.2503 19.4495 21.8159 19.6777L22.1265 19.8027C22.2218 19.8414 22.3079 19.9114 22.3706 19.9931C22.4329 20.0745 22.4808 20.1801 22.481 20.2949L22.481 27.7627L24.2378 27.7627L24.2378 20.2949C24.238 20.0877 24.3649 19.9011 24.5562 19.8223L24.9038 19.6817C25.4671 19.4527 25.8314 18.9116 25.8315 18.3027L25.8335 16.0401C25.8342 14.7315 24.9033 13.6157 23.7319 13.4248L23.4946 13.3994ZM14.0005 16.123C14.6351 16.1233 15.1498 16.6387 15.1499 17.2734C15.1497 17.908 14.635 18.4227 14.0005 18.4229C13.3659 18.4227 12.8503 17.9081 12.8501 17.2734C12.8502 16.6387 13.3658 16.1232 14.0005 16.123Z" fill="rgb(0,0,0)" fill-rule="evenodd" />
</svg>
