<svg viewBox="0 0 56 56" xmlns="http://www.w3.org/2000/svg" xmlns:xlink="http://www.w3.org/1999/xlink" width="56.000000" height="56.000000" fill="none">
	<rect id="Icon/Controller/109_kabinety" width="56.000000" height="56.000000" x="0.000000" y="0.000000" />
	<path id="Icon" d="M30.6429 3.97852C30.6428 3.48559 30.2437 3.08505 29.7509 3.08472L3.50085 3.08472C3.0079 3.08495 2.60717 3.48553 2.60706 3.97852L2.60706 52.9785C2.60739 53.4713 3.00803 53.8704 3.50085 53.8706L29.7509 53.8706C30.2436 53.8703 30.6426 53.4713 30.6429 52.9785L30.6429 3.97852ZM28.8571 52.0847L4.39294 52.0847L4.39294 4.87061L28.8571 4.87061L28.8571 52.0847ZM52.5009 6.58472C52.9937 6.58505 53.3928 6.98559 53.3929 7.47852L53.3929 49.4785C53.3927 49.9103 53.0865 50.2692 52.6803 50.3535L52.5009 50.3723L44.2037 50.3723L44.2037 50.3962L42.4161 50.3962L42.4161 50.3723L39.3417 50.3723L39.3417 50.3928L37.5575 50.3928L37.5575 50.3723L32.9877 50.3723L32.9877 48.5847L37.5575 48.5847L37.5575 36.116L37.5096 36.0972C35.841 35.4217 34.7614 33.8204 34.7633 32.0229L34.765 27.7744C34.7652 26.0824 35.443 24.5071 36.6705 23.3413C37.8989 22.1769 39.5108 21.5841 41.2096 21.6716C44.416 21.8409 46.9959 24.7232 46.9945 28.0735L46.9911 32.0332C46.9873 33.8266 45.9129 35.4216 44.2533 36.0989L44.2037 36.1177L44.2037 48.5847L51.6071 48.5847L51.6071 8.37061L32.9877 8.37061L32.9877 6.58472L52.5009 6.58472ZM44.3951 16.8232C44.3947 14.8832 42.8182 13.3062 40.8781 13.3062C38.9383 13.3066 37.3614 14.8834 37.361 16.8232C37.361 18.7635 38.9398 20.3416 40.8781 20.342C42.8167 20.342 44.3951 18.7638 44.3951 16.8232ZM23.7404 21.241L9.70618 21.241L9.70618 14.887L23.7404 14.887L23.7404 21.241ZM39.1451 16.8232C39.1456 15.8699 39.9247 15.0925 40.8781 15.092C41.8318 15.092 42.6105 15.8696 42.611 16.8232C42.611 17.7773 41.8321 18.5562 40.8781 18.5562C39.9244 18.5557 39.1451 17.777 39.1451 16.8232ZM11.4904 19.4551L21.9562 19.4551L21.9562 16.6711L11.4904 16.6711L11.4904 19.4551ZM41.1156 23.449C40.0573 23.4001 39.054 23.711 38.2377 24.3411L37.901 24.6299C37.0309 25.4572 36.551 26.5712 36.5509 27.7693L36.5492 32.0178C36.5492 33.0885 37.188 34.0367 38.1779 34.436L38.7213 34.6548C38.8882 34.7224 39.0389 34.845 39.1486 34.988C39.2576 35.1304 39.3414 35.3152 39.3417 35.5161L39.3417 48.5847L42.4161 48.5847L42.4161 35.5161C42.4165 35.1535 42.6385 34.827 42.9733 34.689L43.5817 34.4429C44.5674 34.0422 45.2049 33.0953 45.2052 32.0298L45.2086 28.0701C45.2099 25.7801 43.5808 23.8274 41.5309 23.4934L41.1156 23.449ZM24.5009 28.2153C25.6115 28.2157 26.5122 29.1178 26.5123 30.2285C26.512 31.339 25.6113 32.2397 24.5009 32.24C23.3903 32.2398 22.488 31.3391 22.4877 30.2285C22.4878 29.1178 23.3901 28.2156 24.5009 28.2153Z" fill="rgb(0,0,0)" fill-rule="evenodd" />
</svg>
