<svg viewBox="0 0 56 56" xmlns="http://www.w3.org/2000/svg" xmlns:xlink="http://www.w3.org/1999/xlink" width="56.000000" height="56.000000" fill="none">
	<rect id="Icon/Controller/110_garazh" width="56.000000" height="56.000000" x="0.000000" y="0.000000" />
	<path id="Icon" d="M28.6305 1.11897C28.2813 0.769729 27.7168 0.769773 27.3676 1.11897L1.56361 26.9229C1.21512 27.2714 1.21512 27.8374 1.56361 28.1859C1.91189 28.5334 2.47653 28.5333 2.82484 28.1859L27.9999 3.01082L53.1732 28.1859C53.5212 28.5336 54.0855 28.5344 54.4345 28.1876C54.7848 27.8392 54.7853 27.2724 54.4362 26.9229L51.6437 24.1304L51.6437 16.3819C51.6437 15.8888 51.2445 15.4886 50.7516 15.4881C50.2582 15.4881 49.8578 15.8885 49.8578 16.3819L49.8578 22.3463L28.6305 1.11897ZM41.3693 27.1075C41.8618 27.1076 42.2626 27.5071 42.2631 27.9996C42.263 28.492 41.8633 28.8927 41.371 28.8934L14.6305 28.8985C14.1376 28.8986 13.7385 28.4976 13.7384 28.0047C13.7388 27.5122 14.1379 27.1127 14.6305 27.1126L41.3693 27.1075ZM42.892 33.2496C42.8916 32.7568 42.4927 32.3577 41.9999 32.3575L13.9999 32.3575C13.507 32.3576 13.1082 32.7568 13.1078 33.2496L13.1078 53.3575L6.14198 53.3575L6.14198 33.8802C6.14194 33.3874 5.74261 32.9883 5.24989 32.9881C4.7571 32.9882 4.35785 33.3874 4.3578 33.8802L4.3578 53.3575L2.38051 53.3575C1.88783 53.3575 1.4888 53.757 1.48842 54.2496C1.48854 54.7424 1.88767 55.1434 2.38051 55.1434L53.6193 55.1434C54.1119 55.1432 54.513 54.7423 54.5131 54.2496C54.5127 53.7571 54.1118 53.3577 53.6193 53.3575L51.642 53.3575L51.642 33.8819C51.642 33.3889 51.2428 32.9887 50.7499 32.9881C50.2565 32.9881 49.8561 33.3885 49.8561 33.8819L49.8561 53.3575L42.892 53.3575L42.892 33.2496ZM41.1078 39.3575L14.892 39.3592L14.892 34.1434L41.1078 34.1434L41.1078 39.3575ZM14.892 46.3592L14.892 41.1468L41.1078 41.1434L41.1078 46.3575L14.892 46.3592ZM14.892 53.3575L14.892 48.1468L41.1078 48.1434L41.1078 53.3575L14.892 53.3575Z" fill="rgb(0,0,0)" fill-rule="evenodd" />
</svg>
