<svg viewBox="0 0 32 32" xmlns="http://www.w3.org/2000/svg" xmlns:xlink="http://www.w3.org/1999/xlink" width="32.000000" height="32.000000" fill="none">
	<rect id="110_garazh" width="32.000000" height="32.000000" x="0.000000" y="0.000000" />
	<rect id="Icon/Controller/110_garazh" width="32.000000" height="32.000000" x="0.000000" y="0.000000" />
	<path id="Icon" d="M16.3603 0.639411C16.1607 0.439845 15.8382 0.43987 15.6386 0.639411L0.893493 15.3845C0.694356 15.5837 0.694356 15.9071 0.893493 16.1062C1.09251 16.3048 1.41516 16.3047 1.6142 16.1062L15.9999 1.72047L30.3847 16.1062C30.5835 16.3049 30.906 16.3054 31.1054 16.1072C31.3056 15.9081 31.3059 15.5842 31.1064 15.3845L29.5107 13.7888L29.5107 9.36109C29.5107 9.07932 29.2826 8.85063 29.0009 8.85034C28.719 8.85034 28.4902 9.07914 28.4902 9.36109L28.4902 12.7693L16.3603 0.639411ZM23.6396 15.49C23.921 15.4901 24.1501 15.7183 24.1503 15.9998C24.1503 16.2811 23.9219 16.5101 23.6406 16.5105L8.36029 16.5134C8.07863 16.5135 7.85057 16.2843 7.85052 16.0027C7.85075 15.7213 8.0788 15.493 8.36029 15.4929L23.6396 15.49ZM24.5097 18.9998C24.5095 18.7182 24.2815 18.4901 23.9999 18.49L7.99995 18.49C7.71829 18.4901 7.4904 18.7182 7.49017 18.9998L7.49017 30.49L3.50971 30.49L3.50971 19.3601C3.50968 19.0785 3.28149 18.8505 2.99994 18.8503C2.71835 18.8504 2.4902 19.0785 2.49017 19.3601L2.49017 30.49L1.36029 30.49C1.07876 30.49 0.850745 30.7183 0.850528 30.9998C0.850596 31.2814 1.07867 31.5105 1.36029 31.5105L30.6396 31.5105C30.9211 31.5104 31.1503 31.2813 31.1503 30.9998C31.1501 30.7183 30.921 30.4901 30.6396 30.49L29.5097 30.49L29.5097 19.3611C29.5097 19.0794 29.2816 18.8507 28.9999 18.8503C28.718 18.8503 28.4892 19.0791 28.4892 19.3611L28.4892 30.49L24.5097 30.49L24.5097 18.9998ZM23.4902 22.49L8.50972 22.491L8.50972 19.5105L23.4902 19.5105L23.4902 22.49ZM8.50972 26.491L8.50972 23.5125L23.4902 23.5105L23.4902 26.49L8.50972 26.491ZM8.50972 30.49L8.50972 27.5125L23.4902 27.5105L23.4902 30.49L8.50972 30.49Z" fill="rgb(0,0,0)" fill-rule="evenodd" />
</svg>
