<svg viewBox="0 0 32 32" xmlns="http://www.w3.org/2000/svg" xmlns:xlink="http://www.w3.org/1999/xlink" width="32.000000" height="32.000000" fill="none">
	<rect id="111_hoz" width="32.000000" height="32.000000" x="0.000000" y="0.000000" />
	<rect id="Icon/Controller/111_hoz" width="32.000000" height="32.000000" x="0.000000" y="0.000000" />
	<path id="Icon" d="M26.5609 0.849609C26.8426 0.849609 27.0706 1.07868 27.0706 1.36035L27.0706 24.4902L27.7347 24.4902C29.0402 24.4902 30.1129 25.4704 30.2337 26.7695L31.0667 30.9385L31.0687 30.9463L31.0697 30.9531C31.084 31.0976 31.0339 31.2381 30.9369 31.3438L30.9378 31.3447C30.8421 31.4489 30.7067 31.5098 30.5618 31.5098L22.5618 31.5098C22.4188 31.5097 22.282 31.4491 22.1859 31.3447L22.1849 31.3438C22.0893 31.2382 22.0402 31.0965 22.0531 30.9541L22.0541 30.9463L22.056 30.9385L22.89 26.7578C23.0152 25.4633 24.0869 24.4903 25.3881 24.4902L26.0511 24.4902L26.0511 1.36035C26.0511 1.07875 26.2793 0.849712 26.5609 0.849609ZM20.1527 1.77832C20.1081 1.58461 19.9543 1.4325 19.7591 1.39258L19.6566 1.38183C19.4144 1.38207 19.2114 1.55176 19.1595 1.77832L15.1048 1.77832C15.0602 1.58456 14.9065 1.43242 14.7113 1.39258L14.6087 1.38183C14.3666 1.38207 14.1646 1.55184 14.1126 1.77832L10.057 1.77832C10.0123 1.58456 9.85869 1.4324 9.66343 1.39258L9.56086 1.38183C9.3188 1.38211 9.11669 1.55184 9.0648 1.77832L5.00912 1.77832C4.96449 1.58456 4.81084 1.4324 4.61557 1.39258L4.51303 1.38183C4.27093 1.38211 4.06886 1.55184 4.01694 1.77832L2.38998 1.77832C2.10882 1.77832 1.87951 2.00631 1.87924 2.28808L1.88998 2.39062C1.93755 2.62316 2.14348 2.79883 2.38998 2.79883L4.00326 2.79883L4.00326 4.36132C4.00326 4.64246 4.23129 4.87175 4.51303 4.87207L4.61557 4.86132C4.84816 4.8138 5.02377 4.60787 5.02377 4.36132L5.02377 2.79883L9.05109 2.79883L9.05109 3C8.90012 3.1125 8.75972 3.26098 8.63217 3.43066C8.34737 3.80979 8.09577 4.32629 7.88703 4.88672C7.46977 6.00731 7.20937 7.34348 7.20932 8.20606L7.21029 8.21188L7.222 8.52246L7.22103 8.52343L7.222 8.52931C7.342 10.1036 8.34726 11.4012 9.64 11.4014L9.76012 11.3975C10.9946 11.3199 11.9417 10.0545 12.0579 8.52931L12.0579 8.52343L12.0706 8.21188L12.0706 8.20606C12.0706 7.34343 11.8102 6.00737 11.3929 4.88672C11.1841 4.32601 10.9327 3.80885 10.6478 3.42968C10.4771 3.20262 10.2837 3.01371 10.0716 2.89941L10.0716 2.79883L14.099 2.79883L14.099 4.36132C14.099 4.64249 14.327 4.8718 14.6087 4.87207L14.7113 4.86132C14.9438 4.81371 15.1195 4.60779 15.1195 4.36132L15.1195 2.79883L19.1468 2.79883L19.1468 2.875L19.1068 2.93262C18.6413 3.60416 17.9776 4.72664 17.4818 5.93068C16.9964 7.10948 16.6249 8.47817 16.8773 9.5928C17.0481 10.3471 17.1669 11.3958 17.3206 12.5127C17.4703 13.5997 17.6529 14.7495 17.9622 15.6123C18.1142 16.0359 18.459 16.3138 18.8636 16.377C19.261 16.4386 19.6682 16.2862 19.9545 15.9668C20.3979 15.4713 20.8722 14.8475 21.2865 14.2998C21.715 13.7333 22.0632 13.2713 22.2855 13.042C22.4103 12.9134 22.4917 12.7451 22.5472 12.6015C22.6067 12.4478 22.6569 12.2693 22.6976 12.0781C22.7792 11.6951 22.8329 11.2241 22.8499 10.7217C22.8836 9.7292 22.7757 8.53646 22.3949 7.59474L22.389 7.57811L22.3841 7.56543L22.3783 7.55468L22.3695 7.53908L20.1673 3.3457L20.1673 2.79883L21.8421 2.79883C22.0887 2.79855 22.2938 2.62274 22.3411 2.39062L22.3519 2.28808C22.3516 2.00696 22.1235 1.77864 21.8421 1.77832L20.1527 1.77832ZM9.66343 4.86132C9.87766 4.81755 10.0409 4.63947 10.0658 4.41894C10.1917 4.64919 10.3201 4.92605 10.4378 5.24219C10.7749 6.14743 10.9916 7.19068 11.0404 7.916L11.0501 8.20606C11.0501 8.87697 10.8454 9.45137 10.556 9.83788C10.2671 10.2235 9.93417 10.3808 9.64 10.3809C9.34566 10.3808 9.01286 10.2235 8.72394 9.83788C8.47069 9.49971 8.28183 9.01777 8.23863 8.45314L8.22983 8.20606C8.22989 7.4916 8.45783 6.2768 8.84309 5.24219C8.93046 5.00765 9.0228 4.79423 9.11554 4.60547C9.20212 4.76359 9.36794 4.87185 9.56086 4.87207L9.66343 4.86132ZM18.4251 6.31737C18.6685 5.72663 18.9577 5.1546 19.2396 4.65429C19.3318 4.78567 19.4839 4.87191 19.6566 4.87207L19.7591 4.86132C19.7746 4.85815 19.7891 4.85219 19.8041 4.84766L21.4515 7.9844C21.7553 8.74068 21.8615 9.77028 21.8304 10.6875C21.8188 11.0293 21.7889 11.345 21.7464 11.6133L21.6995 11.8653C21.6662 12.0219 21.6302 12.1461 21.5961 12.2344C21.5797 12.2766 21.5649 12.3069 21.5541 12.3262C21.5515 12.3305 21.5485 12.3339 21.5472 12.3359C21.2694 12.6239 20.875 13.1521 20.473 13.6836C20.0535 14.2382 19.6052 14.8285 19.1947 15.2871C19.1232 15.3665 19.0536 15.3744 19.0199 15.3691C19.004 15.3665 18.9878 15.36 18.973 15.3477C18.958 15.335 18.9379 15.3115 18.9222 15.2676C18.6539 14.5191 18.4816 13.4713 18.3304 12.373C18.1833 11.3042 18.0561 10.1782 17.8724 9.3672C17.6946 8.58154 17.9514 7.46788 18.4251 6.31737ZM7.59606 14.2939C8.37126 14.2942 8.92532 15.0469 8.69469 15.7871L8.19954 17.3662C8.36354 17.4266 8.48817 17.5698 8.52377 17.7441L8.53452 17.8467C8.53412 18.0632 8.39783 18.2465 8.20737 18.3203L10.5833 24.5683L10.637 24.7119L10.7425 25.0205C11.7311 28.2107 9.35012 31.5094 5.94857 31.5098L5.94372 31.5098L5.62729 31.5L5.62241 31.499C2.39638 31.2962 0.197301 28.1082 1.15365 25.0205L1.15561 25.0156L1.25814 24.7168L1.25912 24.7119L3.68686 18.3203C3.49718 18.2462 3.36204 18.0627 3.36166 17.8467L3.37241 17.7441C3.40793 17.5703 3.53138 17.4269 3.69467 17.3662L3.20248 15.7871C2.97168 15.0469 3.52482 14.2943 4.30014 14.2939L7.59606 14.2939ZM4.30014 15.3145C4.21331 15.3147 4.15142 15.3987 4.17709 15.4824L4.7562 17.3359L4.93295 17.3359L4.55697 15.3145L4.30014 15.3145ZM5.93686 17.1748L6.11754 15.3145L5.59116 15.3145L5.93686 17.1748ZM6.94566 17.3359L7.14097 17.3359L7.72006 15.4824C7.74543 15.3991 7.6832 15.3146 7.59606 15.3145L7.14194 15.3145L6.94566 17.3359ZM2.21322 25.0752C1.22016 27.6899 3.15145 30.4893 5.94857 30.4893C8.74549 30.4889 10.6762 27.6898 9.68297 25.0752L9.62926 24.9317L7.13023 18.3565L4.76596 18.3565L2.21322 25.0752ZM21.7474 19.6074C21.7473 19.3495 21.5375 19.1397 21.2797 19.1397L12.2367 19.1397C11.9794 19.14 11.7702 19.3491 11.7699 19.6065C11.7699 19.864 11.9792 20.0729 12.2367 20.0733L12.3783 20.0733L13.2152 31.0898L13.2162 31.0957C13.2434 31.3293 13.4411 31.5096 13.68 31.5098L19.8373 31.5098C20.0746 31.5098 20.275 31.3306 20.3011 31.0947L20.3402 30.7431L20.3411 30.7373L21.14 20.0742L21.2797 20.0742C21.5375 20.0742 21.7473 19.8653 21.7474 19.6074ZM7.02966 19.6914L6.92903 19.6611C6.68943 19.6118 6.41926 19.7191 6.28937 19.9287L3.81967 23.9141C3.69004 24.1234 3.74381 24.3659 3.93295 24.4961L4.02182 24.5449C4.28194 24.6534 4.61398 24.5466 4.76205 24.3076L7.2308 20.3223C7.3788 20.0833 7.28926 19.8004 7.02966 19.6914ZM20.1038 20.8994L13.4134 20.8994L13.3216 20.0742L20.1957 20.0742L20.1038 20.8994ZM19.4134 30.5762L14.1029 30.5762L13.5101 21.834L20.0071 21.834L19.4134 30.5762ZM7.68097 21.9599L7.78063 21.9902C8.04046 22.0991 8.12983 22.3821 7.98177 22.6211L4.76205 27.8193C4.61369 28.0583 4.28244 28.1649 4.0228 28.0566L3.93393 28.0078C3.74463 27.878 3.6901 27.6355 3.81967 27.4258L7.0404 22.2275C7.17023 22.0179 7.44137 21.9106 7.68097 21.9599ZM25.389 25.5107C24.7447 25.5108 24.1971 25.9122 23.9886 26.4902L29.1361 26.4902C28.9283 25.9117 28.3803 25.5107 27.7357 25.5107L25.389 25.5107ZM23.139 30.4902L25.0521 30.4902L25.0521 29.3603C25.0521 29.0787 25.2803 28.8497 25.5618 28.8496C25.8435 28.8496 26.0716 29.0787 26.0716 29.3603L26.0716 30.4902L27.0521 30.4902L27.0521 28.3603C27.0521 28.0785 27.281 27.8497 27.5629 27.8496C27.8445 27.8499 28.0726 28.0786 28.0726 28.3603L28.0716 30.4902L29.9837 30.4902L29.3822 27.5107L23.7406 27.5107L23.139 30.4902Z" fill="rgb(0,0,0)" fill-rule="evenodd" />
</svg>
