<svg viewBox="0 0 56 56" xmlns="http://www.w3.org/2000/svg" xmlns:xlink="http://www.w3.org/1999/xlink" width="56.000000" height="56.000000" fill="none">
	<rect id="Icon/Controller/115_magazin" width="56.000000" height="56.000000" x="0.000000" y="0.000000" />
	<path id="Icon" d="M55.1429 1.75C55.1426 1.25726 54.7436 0.856532 54.2509 0.856201L1.75085 0.856201C1.25803 0.856432 0.857388 1.2572 0.857056 1.75L0.857056 19.25C0.857387 19.7428 1.25803 20.1419 1.75085 20.1421L4.35706 20.1421L4.35706 28C4.35739 28.4928 4.75803 28.8919 5.25085 28.8921L7.00085 28.8921C8.43708 28.8919 9.69963 28.1914 10.4991 27.125C11.2987 28.192 12.5641 28.892 14.0009 28.8921C15.4371 28.8919 16.6996 28.1914 17.4991 27.125C18.2987 28.192 19.5641 28.892 21.0009 28.8921C22.4371 28.8919 23.6996 28.1914 24.4991 27.125C25.2987 28.192 26.5641 28.892 28.0009 28.8921C29.437 28.8919 30.6996 28.1916 31.4991 27.1267C32.2986 28.1923 33.5642 28.892 35.0009 28.8921C36.437 28.8919 37.6996 28.1916 38.4991 27.1267C39.2986 28.1923 40.5642 28.892 42.0009 28.8921C43.437 28.8919 44.6996 28.1916 45.4991 27.1267C46.2986 28.1923 47.5642 28.892 49.0009 28.8921L50.7509 28.8921C51.2436 28.8918 51.6426 28.4927 51.6429 28L51.6429 20.1421L54.2509 20.1421C54.7436 20.1418 55.1426 19.7427 55.1429 19.25L55.1429 1.75ZM4.35706 18.3562L2.64294 18.3562L2.64294 2.64209L53.3571 2.64209L53.3571 18.3562L51.6429 18.3562L51.6429 10.5C51.6426 10.0073 51.2436 9.60653 50.7509 9.6062L5.25085 9.6062C4.75803 9.60643 4.35739 10.0072 4.35706 10.5L4.35706 18.3562ZM49.8571 18.3562L6.14294 18.3562L6.14294 11.3921L49.8571 11.3921L49.8571 18.3562ZM7.00085 27.1062L6.14294 27.1062L6.14294 20.1421L49.8571 20.1421L49.8571 27.1062L49.0009 27.1062C47.5642 27.106 46.3933 25.9366 46.3929 24.5C46.3926 24.0073 45.9936 23.6065 45.5009 23.6062C45.008 23.6064 44.6074 24.0072 44.6071 24.5C44.6067 25.9366 43.439 27.1059 42.0009 27.1062C40.5626 27.106 39.3933 25.9367 39.3929 24.5C39.3926 24.0073 38.9936 23.6065 38.5009 23.6062C38.008 23.6064 37.6074 24.0072 37.6071 24.5C37.6067 25.9366 36.439 27.1059 35.0009 27.1062C33.5626 27.106 32.3933 25.9367 32.3929 24.5C32.3926 24.0073 31.9936 23.6065 31.5009 23.6062C31.008 23.6064 30.6074 24.0072 30.6071 24.5C30.6067 25.9366 29.439 27.1059 28.0009 27.1062C26.5626 27.106 25.3933 25.9367 25.3929 24.5C25.3926 24.0073 24.9936 23.6065 24.5009 23.6062C24.008 23.6064 23.6074 24.0072 23.6071 24.5C23.6067 25.9365 22.4374 27.1059 21.0009 27.1062C19.5642 27.106 18.3933 25.9366 18.3929 24.5C18.3926 24.0073 17.9936 23.6065 17.5009 23.6062C17.008 23.6064 16.6074 24.0072 16.6071 24.5C16.6067 25.9365 15.4374 27.1059 14.0009 27.1062C12.5642 27.106 11.3933 25.9366 11.3929 24.5C11.3926 24.0073 10.9936 23.6065 10.5009 23.6062C10.008 23.6064 9.60739 24.0072 9.60706 24.5C9.60672 25.9365 8.43739 27.1059 7.00085 27.1062ZM20.1429 33.25C20.1426 32.7573 19.7436 32.3565 19.2509 32.3562L10.5009 32.3562C10.008 32.3564 9.60739 32.7572 9.60706 33.25L9.60706 53.3562L6.14294 53.3562L6.14294 33.25C6.14261 32.7573 5.74359 32.3565 5.25085 32.3562C4.75803 32.3564 4.35739 32.7572 4.35706 33.25L4.35706 53.3562L2.38147 53.3562C1.88856 53.3564 1.48814 53.7571 1.48767 54.25C1.48767 54.7433 1.88827 55.1436 2.38147 55.1438L53.6185 55.1438C54.1119 55.1438 54.5123 54.7434 54.5123 54.25C54.5119 53.757 54.1116 53.3562 53.6185 53.3562L51.6429 53.3562L51.6429 33.25C51.6426 32.7573 51.2436 32.3565 50.7509 32.3562C50.258 32.3564 49.8574 32.7572 49.8571 33.25L49.8571 53.3562L20.1429 53.3562L20.1429 33.25ZM45.5009 32.3562C45.9936 32.3565 46.3926 32.7573 46.3929 33.25L46.3929 49C46.3926 49.4927 45.9936 49.8918 45.5009 49.8921L28.0009 49.8921C27.508 49.8919 27.1074 49.4928 27.1071 49L27.1071 33.25C27.1074 32.7572 27.508 32.3564 28.0009 32.3562L45.5009 32.3562ZM18.3571 42.8545L11.3912 42.8545L11.3912 34.1421L18.3571 34.1421L18.3571 42.8545ZM28.8929 48.1045L31.9332 48.1045C31.3425 47.1586 30.9968 46.0436 30.9967 44.8489C30.9967 42.0207 32.9097 39.6346 35.5101 38.9067C34.6331 37.5887 33.3054 36.884 33.2457 36.8525L33.2115 36.8337L33.1825 36.8064L33.1808 36.8047L33.0475 36.6697L33.1329 36.5005L33.7003 35.3674L33.8165 35.1333L34.0524 35.2512C34.1671 35.3087 35.633 36.0639 36.7611 37.5566C37.4938 36.1337 38.9775 35.1558 40.6866 35.1555L42.4469 35.1555C42.9419 35.1561 43.3424 35.5586 43.3424 36.0527L43.3424 37.8113C43.3424 39.0615 42.8149 40.1843 41.9786 40.9883C42.8498 42.0759 43.3424 43.436 43.3424 44.8472C43.3423 46.0424 42.9991 47.1583 42.4093 48.1045L44.6071 48.1045L44.6071 34.1421L28.8929 34.1421L28.8929 48.1045ZM40.6866 36.95C39.2418 36.9503 38.0652 38.1252 38.0651 39.5715L38.0651 40.4346L38.9281 40.4346C40.2828 40.4346 41.4011 39.4023 41.536 38.0813L41.5497 37.813L41.5497 36.95L40.6866 36.95ZM36.2023 40.5798C34.2506 41.0222 32.7894 42.7662 32.7894 44.8489L32.7963 45.1001C32.8642 46.2923 33.4151 47.3538 34.2523 48.1045L40.0868 48.1045C40.924 47.3538 41.4749 46.2922 41.5428 45.1001L41.5497 44.8489C41.5497 43.7772 41.1516 42.7485 40.4491 41.9521C39.9744 42.1266 39.4622 42.229 38.9281 42.229L37.1696 42.229C36.6746 42.229 36.2723 41.8268 36.2723 41.3318C36.2723 41.0686 36.2464 40.8188 36.2023 40.5798ZM18.3571 53.3545L11.3912 53.3545L11.3912 44.6421L18.3571 44.6421L18.3571 53.3545Z" fill="rgb(0,0,0)" fill-rule="evenodd" />
</svg>
