<svg viewBox="0 0 32 32" xmlns="http://www.w3.org/2000/svg" xmlns:xlink="http://www.w3.org/1999/xlink" width="32.000000" height="32.000000" fill="none">
	<rect id="115_magazin" width="32.000000" height="32.000000" x="0.000000" y="0.000000" />
	<rect id="Icon/Controller/115_magazin" width="32.000000" height="32.000000" x="0.000000" y="0.000000" />
	<path id="Icon" d="M31.5102 1C31.5101 0.718434 31.2821 0.489447 31.0005 0.489258L1.00049 0.489258C0.718874 0.48939 0.489936 0.7184 0.489746 1L0.489746 11C0.489935 11.2816 0.718874 11.5097 1.00049 11.5098L2.48975 11.5098L2.48975 16C2.48994 16.2816 2.71887 16.5097 3.00049 16.5098L4.00049 16.5098C4.82119 16.5097 5.54265 16.1094 5.99949 15.5C6.4564 16.1097 7.17949 16.5097 8.00051 16.5098C8.8212 16.5097 9.54263 16.1094 9.99949 15.5C10.4564 16.1097 11.1795 16.5097 12.0005 16.5098C12.8212 16.5097 13.5426 16.1094 13.9995 15.5C14.4564 16.1097 15.1795 16.5097 16.0005 16.5098C16.8211 16.5097 17.5426 16.1095 17.9995 15.501C18.4563 16.1099 19.1795 16.5097 20.0005 16.5098C20.8211 16.5097 21.5426 16.1095 21.9995 15.501C22.4563 16.1099 23.1795 16.5097 24.0005 16.5098C24.8211 16.5097 25.5426 16.1095 25.9995 15.501C26.4563 16.1099 27.1795 16.5097 28.0005 16.5098L29.0005 16.5098C29.2821 16.5096 29.5101 16.2815 29.5102 16L29.5102 11.5098L31.0005 11.5098C31.2821 11.5096 31.5101 11.2815 31.5102 11L31.5102 1ZM2.48975 10.4893L1.51025 10.4893L1.51025 1.50977L30.4898 1.50977L30.4898 10.4893L29.5102 10.4893L29.5102 6C29.5101 5.71846 29.2821 5.48945 29.0005 5.48926L3.00049 5.48926C2.71887 5.48939 2.48994 5.7184 2.48975 6L2.48975 10.4893ZM28.4898 10.4893L3.51025 10.4893L3.51025 6.50977L28.4898 6.50977L28.4898 10.4893ZM4.00049 15.4893L3.51025 15.4893L3.51025 11.5098L28.4898 11.5098L28.4898 15.4893L28.0005 15.4893C27.1795 15.4891 26.5105 14.8209 26.5102 14C26.5101 13.7185 26.2821 13.4894 26.0005 13.4893C25.7189 13.4894 25.4899 13.7184 25.4898 14C25.4895 14.8209 24.8223 15.4891 24.0005 15.4893C23.1786 15.4891 22.5105 14.821 22.5102 14C22.5101 13.7185 22.2821 13.4894 22.0005 13.4893C21.7189 13.4894 21.4899 13.7184 21.4898 14C21.4895 14.8209 20.8223 15.4891 20.0005 15.4893C19.1786 15.4891 18.5105 14.821 18.5102 14C18.5101 13.7185 18.2821 13.4894 18.0005 13.4893C17.7189 13.4894 17.4899 13.7184 17.4898 14C17.4895 14.8209 16.8223 15.4891 16.0005 15.4893C15.1786 15.4891 14.5105 14.821 14.5102 14C14.5101 13.7185 14.2821 13.4894 14.0005 13.4893C13.7189 13.4894 13.4899 13.7184 13.4898 14C13.4895 14.8209 12.8214 15.4891 12.0005 15.4893C11.1795 15.4891 10.5105 14.8209 10.5102 14C10.5101 13.7185 10.2821 13.4894 10.0005 13.4893C9.71886 13.4894 9.48994 13.7184 9.48977 14C9.48954 14.8209 8.82137 15.4891 8.00051 15.4893C7.17954 15.4891 6.51046 14.8209 6.51023 14C6.51006 13.7185 6.28206 13.4894 6.00051 13.4893C5.71886 13.4894 5.48994 13.7184 5.48975 14C5.48955 14.8209 4.82137 15.4891 4.00049 15.4893ZM11.5102 19C11.5101 18.7185 11.2821 18.4894 11.0005 18.4893L6.00051 18.4893C5.71886 18.4894 5.48994 18.7184 5.48975 19L5.48975 30.4893L3.51025 30.4893L3.51025 19C3.51006 18.7185 3.28205 18.4894 3.00049 18.4893C2.71887 18.4894 2.48994 18.7184 2.48975 19L2.48975 30.4893L1.36084 30.4893C1.07918 30.4894 0.850366 30.7183 0.850097 31C0.850097 31.2819 1.07901 31.5106 1.36084 31.5107L30.6391 31.5107C30.9211 31.5107 31.1499 31.2819 31.1499 31C31.1497 30.7183 30.9209 30.4893 30.6391 30.4893L29.5102 30.4893L29.5102 19C29.5101 18.7185 29.2821 18.4894 29.0005 18.4893C28.7189 18.4894 28.4899 18.7184 28.4898 19L28.4898 30.4893L11.5102 30.4893L11.5102 19ZM26.0005 18.4893C26.2821 18.4894 26.5101 18.7185 26.5102 19L26.5102 28C26.5101 28.2815 26.2821 28.5096 26.0005 28.5098L16.0005 28.5098C15.7189 28.5097 15.4899 28.2816 15.4898 28L15.4898 19C15.4899 18.7184 15.7189 18.4894 16.0005 18.4893L26.0005 18.4893ZM10.4898 24.4883L6.50926 24.4883L6.50926 19.5098L10.4898 19.5098L10.4898 24.4883ZM16.5102 27.4883L18.2475 27.4883C17.91 26.9478 17.7125 26.3106 17.7124 25.6279C17.7124 24.0118 18.8055 22.6483 20.2915 22.2324C19.7903 21.4793 19.0317 21.0766 18.9975 21.0586L18.978 21.0478L18.9614 21.0322L18.9605 21.0313L18.8843 20.9541L18.9331 20.8574L19.2573 20.2099L19.3237 20.0762L19.4585 20.1435C19.5241 20.1764 20.3617 20.6079 21.0063 21.4609C21.425 20.6478 22.2729 20.089 23.2495 20.0889L24.2554 20.0889C24.5382 20.0892 24.7671 20.3192 24.7671 20.6015L24.7671 21.6065C24.7671 22.3209 24.4657 22.9625 23.9878 23.4219C24.4856 24.0434 24.7671 24.8206 24.7671 25.627C24.767 26.3099 24.5709 26.9476 24.2339 27.4883L25.4898 27.4883L25.4898 19.5098L16.5102 19.5098L16.5102 27.4883ZM23.2495 21.1143C22.4239 21.1145 21.7515 21.7858 21.7515 22.6123L21.7515 23.1055L22.2446 23.1055C23.0187 23.1055 23.6578 22.5156 23.7349 21.7607L23.7427 21.6074L23.7427 21.1143L23.2495 21.1143ZM20.687 23.1885C19.5718 23.4413 18.7368 24.4378 18.7368 25.6279L18.7407 25.7715C18.7795 26.4527 19.0943 27.0593 19.5727 27.4883L22.9067 27.4883C23.3851 27.0593 23.6999 26.4527 23.7387 25.7715L23.7427 25.6279C23.7427 25.0155 23.5152 24.4277 23.1138 23.9726C22.8425 24.0723 22.5498 24.1309 22.2446 24.1309L21.2398 24.1309C20.9569 24.1309 20.727 23.901 20.727 23.6182C20.727 23.4678 20.7122 23.325 20.687 23.1885ZM10.4898 30.4883L6.50926 30.4883L6.50926 25.5098L10.4898 25.5098L10.4898 30.4883Z" fill="rgb(0,0,0)" fill-rule="evenodd" />
</svg>
