<svg viewBox="0 0 56 56" xmlns="http://www.w3.org/2000/svg" xmlns:xlink="http://www.w3.org/1999/xlink" width="56.000000" height="56.000000" fill="none">
	<rect id="Icon/Controller/117_bolnica" width="56.000000" height="56.000000" x="0.000000" y="0.000000" />
	<path id="Icon" d="M54.2509 0.856201C54.7436 0.856532 55.1426 1.25726 55.1429 1.75L55.1429 54.25C55.1426 54.7427 54.7436 55.1418 54.2509 55.1421L1.75085 55.1421C1.25803 55.1419 0.857387 54.7428 0.857056 54.25L0.857056 14C0.857388 13.5072 1.25803 13.1064 1.75085 13.1062L39.3571 13.1062L39.3571 1.75C39.3574 1.2572 39.758 0.856432 40.2509 0.856201L54.2509 0.856201ZM41.1429 14C41.1426 14.4927 40.7436 14.8918 40.2509 14.8921L2.64294 14.8921L2.64294 53.3562L17.4821 53.3562L17.4821 42C17.4824 41.5072 17.883 41.1064 18.3759 41.1062L28.0009 41.1062C28.4936 41.1065 28.8926 41.5073 28.8929 42L28.8929 53.3562L53.3571 53.3562L53.3571 2.64209L41.1429 2.64209L41.1429 14ZM47.2509 4.11182C47.744 4.11182 48.1443 4.5125 48.1447 5.00562L48.1447 6.9812L50.1202 6.9812C50.6129 6.9812 51.012 7.38237 51.0123 7.875C51.012 8.36763 50.6129 8.76709 50.1202 8.76709L48.1429 8.76709L48.1429 10.7444C48.1429 11.2371 47.7435 11.6361 47.2509 11.6365C46.7581 11.6362 46.3571 11.2372 46.3571 10.7444L46.3571 8.76709L44.3798 8.76709C43.8875 8.7666 43.488 8.36733 43.4877 7.875C43.488 7.38267 43.8875 6.98169 44.3798 6.9812L46.3571 6.9812L46.3571 5.00562C46.3574 4.51273 46.758 4.11219 47.2509 4.11182ZM8.75085 18.9868C9.24312 18.9871 9.64235 19.3867 9.64294 19.8789L9.64294 22.1194C9.64294 22.6121 9.24349 23.0111 8.75085 23.0115C8.25814 23.0112 7.85706 22.6122 7.85706 22.1194L7.85706 19.8789C7.85765 19.3866 8.2585 18.987 8.75085 18.9868ZM18.3759 18.9868C18.8681 18.9871 19.2674 19.3867 19.2679 19.8789L19.2679 22.1194C19.2679 22.6121 18.8685 23.0111 18.3759 23.0115C17.8831 23.0112 17.4821 22.6122 17.4821 22.1194L17.4821 19.8789C17.4826 19.3866 17.8835 18.987 18.3759 18.9868ZM28.0009 18.9868C28.4931 18.9871 28.8924 19.3867 28.8929 19.8789L28.8929 22.1194C28.8929 22.6121 28.4935 23.0111 28.0009 23.0115C27.5081 23.0112 27.1071 22.6122 27.1071 22.1194L27.1071 19.8789C27.1076 19.3866 27.5085 18.987 28.0009 18.9868ZM37.6259 18.9868C38.1191 18.9868 38.5196 19.3874 38.5197 19.8806L38.5179 22.1194C38.5177 22.6121 38.1185 23.0112 37.6259 23.0115C37.1331 23.0112 36.7321 22.6122 36.7321 22.1194L36.7321 19.8806C36.7324 19.3878 37.133 18.9871 37.6259 18.9868ZM47.2509 18.9868C47.7441 18.9868 48.1446 19.3874 48.1447 19.8806L48.1429 22.1194C48.1427 22.6121 47.7435 23.0112 47.2509 23.0115C46.7581 23.0112 46.3571 22.6122 46.3571 22.1194L46.3571 19.8806C46.3574 19.3878 46.758 18.9871 47.2509 18.9868ZM8.75085 25.9868C9.24312 25.9871 9.64235 26.3867 9.64294 26.8789L9.64294 29.1194C9.64294 29.6121 9.24349 30.0111 8.75085 30.0115C8.25814 30.0112 7.85706 29.6122 7.85706 29.1194L7.85706 26.8789C7.85765 26.3866 8.2585 25.987 8.75085 25.9868ZM18.3759 25.9868C18.8681 25.9871 19.2674 26.3867 19.2679 26.8789L19.2679 29.1194C19.2679 29.6121 18.8685 30.0111 18.3759 30.0115C17.8831 30.0112 17.4821 29.6122 17.4821 29.1194L17.4821 26.8789C17.4826 26.3866 17.8835 25.987 18.3759 25.9868ZM28.0009 25.9868C28.4931 25.9871 28.8924 26.3867 28.8929 26.8789L28.8929 29.1194C28.8929 29.6121 28.4935 30.0111 28.0009 30.0115C27.5081 30.0112 27.1071 29.6122 27.1071 29.1194L27.1071 26.8789C27.1076 26.3866 27.5085 25.987 28.0009 25.9868ZM37.6259 25.9868C38.1191 25.9868 38.5196 26.3874 38.5197 26.8806L38.5179 29.1194C38.5177 29.6121 38.1185 30.0112 37.6259 30.0115C37.1331 30.0112 36.7321 29.6122 36.7321 29.1194L36.7321 26.8806C36.7324 26.3878 37.133 25.9871 37.6259 25.9868ZM47.2509 25.9868C47.7441 25.9868 48.1446 26.3874 48.1447 26.8806L48.1429 29.1194C48.1427 29.6121 47.7435 30.0112 47.2509 30.0115C46.7581 30.0112 46.3571 29.6122 46.3571 29.1194L46.3571 26.8806C46.3574 26.3878 46.758 25.9871 47.2509 25.9868ZM8.75085 32.9868C9.24312 32.9871 9.64235 33.3867 9.64294 33.8789L9.64294 36.1194C9.64294 36.6121 9.24349 37.0111 8.75085 37.0115C8.25814 37.0112 7.85706 36.6122 7.85706 36.1194L7.85706 33.8789C7.85765 33.3866 8.2585 32.987 8.75085 32.9868ZM18.3759 32.9868C18.8681 32.9871 19.2674 33.3867 19.2679 33.8789L19.2679 36.1194C19.2679 36.6121 18.8685 37.0111 18.3759 37.0115C17.8831 37.0112 17.4821 36.6122 17.4821 36.1194L17.4821 33.8789C17.4826 33.3866 17.8835 32.987 18.3759 32.9868ZM28.0009 32.9868C28.4931 32.9871 28.8924 33.3867 28.8929 33.8789L28.8929 36.1194C28.8929 36.6121 28.4935 37.0111 28.0009 37.0115C27.5081 37.0112 27.1071 36.6122 27.1071 36.1194L27.1071 33.8789C27.1076 33.3866 27.5085 32.987 28.0009 32.9868ZM37.6259 32.9868C38.1191 32.9868 38.5196 33.3874 38.5197 33.8806L38.5179 36.1194C38.5177 36.6121 38.1185 37.0112 37.6259 37.0115C37.1331 37.0112 36.7321 36.6122 36.7321 36.1194L36.7321 33.8806C36.7324 33.3878 37.133 32.9871 37.6259 32.9868ZM47.2509 32.9868C47.7441 32.9868 48.1446 33.3874 48.1447 33.8806L48.1429 36.1194C48.1427 36.6121 47.7435 37.0112 47.2509 37.0115C46.7581 37.0112 46.3571 36.6122 46.3571 36.1194L46.3571 33.8806C46.3574 33.3878 46.758 32.9871 47.2509 32.9868ZM8.75085 39.9868C9.24312 39.9871 9.64235 40.3867 9.64294 40.8789L9.64294 43.1194C9.64294 43.6121 9.24349 44.0111 8.75085 44.0115C8.25814 44.0112 7.85706 43.6122 7.85706 43.1194L7.85706 40.8789C7.85765 40.3866 8.2585 39.987 8.75085 39.9868ZM37.6259 39.9868C38.1191 39.9868 38.5196 40.3874 38.5197 40.8806L38.5179 43.1194C38.5177 43.6121 38.1185 44.0112 37.6259 44.0115C37.1331 44.0112 36.7321 43.6122 36.7321 43.1194L36.7321 40.8806C36.7324 40.3878 37.133 39.9871 37.6259 39.9868ZM47.2509 39.9868C47.7441 39.9868 48.1446 40.3874 48.1447 40.8806L48.1429 43.1194C48.1427 43.6121 47.7435 44.0112 47.2509 44.0115C46.7581 44.0112 46.3571 43.6122 46.3571 43.1194L46.3571 40.8806C46.3574 40.3878 46.758 39.9871 47.2509 39.9868ZM19.2679 53.3562L27.1071 53.3562L27.1071 42.8921L19.2679 42.8921L19.2679 53.3562Z" fill="rgb(0,0,0)" fill-rule="evenodd" />
</svg>
