<svg viewBox="0 0 32 32" xmlns="http://www.w3.org/2000/svg" xmlns:xlink="http://www.w3.org/1999/xlink" width="32.000000" height="32.000000" fill="none">
	<rect id="118_proizvodstvo" width="32.000000" height="32.000000" x="0.000000" y="0.000000" />
	<rect id="Icon/Controller/118_proizvodstvo" width="32.000000" height="32.000000" x="0.000000" y="0.000000" />
	<path id="Icon" d="M22.1279 0.489258C22.4095 0.489447 22.6375 0.718434 22.6377 1L22.6377 5C22.6375 5.28157 22.4095 5.50958 22.1279 5.50977L19.6377 5.50977L19.6377 6.48926L24.1279 6.48926C24.4095 6.48943 24.6375 6.71846 24.6377 7L24.6377 18.7686L26.7666 16.6397C26.9661 16.4403 27.2887 16.4405 27.4883 16.6397L31.2334 20.3847C31.333 20.4844 31.3829 20.615 31.3829 20.7456C31.3829 20.8762 31.333 21.0068 31.2334 21.1065C31.0717 21.2681 30.8301 21.2961 30.6377 21.1953L30.6377 24.4902L30.7666 24.4902C31.0483 24.4902 31.2771 24.7193 31.2774 25.001C31.2774 25.2829 31.0485 25.5117 30.7666 25.5117L14.1279 25.5117C11.2189 25.51 8.82989 27.7852 8.64846 30.6494C8.63109 30.9203 8.41171 31.1492 8.12794 31.1494C7.85783 31.1493 7.62714 30.9359 7.62714 30.6595C7.62714 30.6503 7.62743 30.6411 7.62794 30.6318C7.69206 29.4873 8.0556 28.4221 8.63771 27.5098L1.4873 27.5098C1.20599 27.5095 0.977725 27.2813 0.977536 27C0.977725 26.7187 1.20599 26.4895 1.4873 26.4893L9.43943 26.4893C9.7968 26.1182 10.1968 25.7889 10.6328 25.5107L1.12793 25.5107C0.846308 25.5106 0.617365 25.2826 0.617188 25.001L0.617188 10C0.617376 9.7184 0.846313 9.48937 1.12793 9.48926L4.12793 9.48926C4.40949 9.48943 4.6375 9.71846 4.6377 10L4.6377 14.5801L7.85743 12.5674C8.01548 12.4671 8.21337 12.4639 8.37497 12.5537C8.5368 12.6439 8.63754 12.8143 8.63771 13L8.63771 15.0986L12.8653 12.5625L12.9258 12.5313C13.051 12.4772 13.1918 12.4766 13.3164 12.5254L13.377 12.5537L13.3789 12.5547C13.5387 12.6453 13.6375 12.8161 13.6377 13L13.6377 14.9785L16.8213 12.5918L16.8809 12.5527C17.0257 12.4722 17.2041 12.4673 17.3565 12.5439C17.5292 12.6303 17.6375 12.8074 17.6377 13L17.6377 24.4893L23.6162 24.4893L23.6162 21.1953C23.4239 21.2957 23.1821 21.267 23.0205 21.1055C22.921 21.0058 22.8711 20.8751 22.8711 20.7445C22.8711 20.6139 22.9209 20.4834 23.0205 20.3838L23.6162 19.7871L23.6162 7.50977L14.6367 7.50977L14.6367 10.6397C14.6367 10.9212 14.4085 11.1492 14.127 11.1494C13.8454 11.1493 13.6162 10.9213 13.6162 10.6397L13.6162 7C13.6164 6.7184 13.8453 6.48937 14.127 6.48926L18.6162 6.48926L18.6162 5.50977L16.1279 5.50977C15.8463 5.50963 15.6174 5.2816 15.6172 5L15.6172 1C15.6174 0.7184 15.8463 0.48939 16.1279 0.489258L22.1279 0.489258ZM16.6377 2.48926L18.6172 2.48926L18.6172 1.50977L16.6377 1.50977L16.6377 2.48926ZM19.6377 2.48926L21.6162 2.48926L21.6162 1.50977L19.6377 1.50977L19.6377 2.48926ZM1.12793 2.48926C1.40949 2.48945 1.63751 2.71843 1.6377 3C1.63788 3.54491 2.083 3.98913 2.62793 3.98926C3.73544 3.98945 4.6375 4.89138 4.6377 6C4.6375 6.28154 4.40949 6.5096 4.12793 6.50977C3.84631 6.50966 3.61738 6.2816 3.61719 6C3.61699 5.45512 3.17281 5.00995 2.62793 5.00977C1.52031 5.00963 0.617376 4.1076 0.617188 3C0.617376 2.7184 0.846313 2.48939 1.12793 2.48926ZM16.6377 4.48926L18.6172 4.48926L18.6172 3.50977L16.6377 3.50977L16.6377 4.48926ZM19.6377 4.48926L21.6162 4.48926L21.6162 3.50977L19.6377 3.50977L19.6377 4.48926ZM1.12793 5.48926C2.5115 5.48945 3.6375 6.61646 3.6377 8C3.63751 8.28154 3.40949 8.5096 3.12793 8.50977C2.84631 8.50966 2.61738 8.2816 2.61719 8C2.61699 7.17914 1.94881 6.50994 1.12793 6.50977C0.846313 6.50966 0.617376 6.2816 0.617188 6C0.617376 5.7184 0.846313 5.48939 1.12793 5.48926ZM17.1279 8.8496C17.4092 8.84977 17.6374 9.07811 17.6377 9.35937L17.6377 10.6397C17.6377 10.9212 17.4094 11.1492 17.1279 11.1494C16.8464 11.1493 16.6172 10.9213 16.6172 10.6397L16.6172 9.35937C16.6175 9.07806 16.8466 8.84972 17.1279 8.8496ZM21.1279 8.8496C21.4098 8.8496 21.6386 9.07851 21.6387 9.36034L21.6377 10.6397C21.6375 10.9212 21.4094 11.1493 21.1279 11.1494C20.8463 11.1493 20.6173 10.9213 20.6172 10.6397L20.6172 9.36034C20.6174 9.07874 20.8463 8.84977 21.1279 8.8496ZM1.6377 12.4893L3.61719 12.4893L3.61719 10.5098L1.6377 10.5098L1.6377 12.4893ZM21.1279 12.8496C21.4098 12.8496 21.6386 13.0785 21.6387 13.3603L21.6377 14.6397C21.6375 14.9212 21.4094 15.1493 21.1279 15.1494C20.8463 15.1493 20.6173 14.9213 20.6172 14.6397L20.6172 13.3603C20.6174 13.0787 20.8463 12.8498 21.1279 12.8496ZM1.6377 24.4893L3.61719 24.4893L3.61719 13.5098L1.6377 13.5098L1.6377 24.4893ZM8.38966 16.4375C8.23103 16.533 8.03634 16.5315 7.87891 16.4453L7.87697 16.4443C7.71726 16.3537 7.61731 16.1838 7.6172 16L7.6172 13.919L4.6377 15.7822L4.6377 24.4893L8.6172 24.4893L8.6172 21C8.61737 20.7184 8.84634 20.4894 9.12794 20.4893L12.1279 20.4893C12.4095 20.4894 12.6375 20.7185 12.6377 21L12.6377 24.4893L16.6172 24.4893L16.6172 14.0195L13.4336 16.4072L13.4326 16.4082C13.2998 16.5065 13.1251 16.5369 12.9658 16.4834L12.8994 16.4561C12.7268 16.3696 12.6173 16.1925 12.6172 16L12.6172 13.9004L8.38966 16.4375ZM21.1279 16.8496C21.4098 16.8496 21.6386 17.0785 21.6387 17.3603L21.6377 18.6397C21.6375 18.9212 21.4094 19.1493 21.1279 19.1494C20.8463 19.1493 20.6173 18.9213 20.6172 18.6397L20.6172 17.3603C20.6174 17.0787 20.8463 16.8498 21.1279 16.8496ZM24.6377 20.2109L24.6377 24.4893L25.6162 24.4893L25.6162 22C25.6164 21.7184 25.8453 21.4894 26.127 21.4893L28.127 21.4893C28.4085 21.4895 28.6365 21.7185 28.6367 22L28.6377 24.4893L29.6162 24.4893L29.6162 20.2109L27.127 17.7197L24.6377 20.2109ZM6.12794 17.8496C6.4092 17.8498 6.63737 18.0781 6.63771 18.3594L6.63771 18.6397C6.63771 18.9212 6.40943 19.1492 6.12794 19.1494C5.8464 19.1493 5.61719 18.9213 5.61719 18.6397L5.61719 18.3594C5.61752 18.0781 5.84657 17.8497 6.12794 17.8496ZM9.12794 17.8496C9.4092 17.8498 9.63737 18.0781 9.63771 18.3594L9.63771 18.6397C9.63771 18.9212 9.40943 19.1492 9.12794 19.1494C8.8464 19.1493 8.6172 18.9213 8.6172 18.6397L8.6172 18.3594C8.61754 18.0781 8.84657 17.8497 9.12794 17.8496ZM12.1279 17.8496C12.4092 17.8498 12.6374 18.0781 12.6377 18.3594L12.6377 18.6397C12.6377 18.9212 12.4094 19.1492 12.1279 19.1494C11.8464 19.1493 11.6172 18.9213 11.6172 18.6397L11.6172 18.3594C11.6175 18.0781 11.8466 17.8497 12.1279 17.8496ZM15.1279 17.8496C15.4092 17.8498 15.6374 18.0781 15.6377 18.3594L15.6377 18.6397C15.6377 18.9212 15.4094 19.1492 15.1279 19.1494C14.8464 19.1493 14.6172 18.9213 14.6172 18.6397L14.6172 18.3594C14.6175 18.0781 14.8466 17.8497 15.1279 17.8496ZM27.1279 18.8496C27.4098 18.8496 27.6387 19.0785 27.6387 19.3603L27.6387 19.3603L27.6377 19.6397C27.6374 19.9211 27.4094 20.1493 27.1279 20.1494C26.8463 20.1493 26.6173 19.9213 26.6172 19.6397L26.6172 19.3603C26.6174 19.0787 26.8463 18.8497 27.1279 18.8496ZM9.63771 24.4893L11.6172 24.4893L11.6172 21.5098L9.63771 21.5098L9.63771 24.4893ZM26.6377 24.4893L27.6162 24.4893L27.6162 22.5098L26.6377 22.5098L26.6377 24.4893ZM30.7666 26.4893C31.0484 26.4893 31.2771 26.7183 31.2774 27C31.2774 27.2819 31.0485 27.5107 30.7666 27.5107L14.1279 27.5107C12.3205 27.5099 10.8281 28.8926 10.6543 30.6553C10.628 30.9202 10.4126 31.1492 10.1279 31.1494C9.86269 31.1493 9.6312 30.9417 9.6312 30.6679C9.6312 30.6547 9.63171 30.6414 9.6328 30.6279C9.82291 28.3147 11.7665 26.4894 14.1279 26.4893L30.7666 26.4893ZM30.7666 28.4893C31.0484 28.4893 31.2771 28.7183 31.2774 29C31.2774 29.2819 31.0485 29.5107 30.7666 29.5107L14.127 29.5107C13.4181 29.5103 12.8216 30.0093 12.6729 30.6748C12.6187 30.9173 12.4155 31.1492 12.1279 31.1494C11.8758 31.1493 11.641 30.9562 11.641 30.6895C11.641 30.6663 11.6427 30.6425 11.6465 30.6182C11.831 29.4142 12.8738 28.4894 14.1279 28.4893L30.7666 28.4893Z" fill="rgb(0,0,0)" fill-rule="evenodd" />
</svg>
