<svg viewBox="0 0 56 56" xmlns="http://www.w3.org/2000/svg" xmlns:xlink="http://www.w3.org/1999/xlink" width="56.000000" height="56.000000" fill="none">
	<rect id="Icon/Controller/118_proizvodstvo" width="56.000000" height="56.000000" x="0.000000" y="0.000000" />
	<path id="Icon" d="M38.7239 0.856201C39.2166 0.856532 39.6156 1.25726 39.616 1.75L39.616 8.75C39.6156 9.24274 39.2166 9.64176 38.7239 9.64209L34.366 9.64209L34.366 11.3562L42.2239 11.3562C42.7166 11.3565 43.1156 11.7573 43.116 12.25L43.116 32.845L46.8416 29.1194C47.1906 28.7705 47.7552 28.7709 48.1045 29.1194L54.6584 35.6733C54.8328 35.8477 54.92 36.0762 54.92 36.3048C54.92 36.5333 54.8328 36.7619 54.6584 36.9363C54.3754 37.2191 53.9527 37.2681 53.616 37.0918L53.616 42.8579L53.8416 42.8579C54.3346 42.8579 54.7349 43.2587 54.7354 43.7517C54.7354 44.2451 54.3349 44.6455 53.8416 44.6455L24.7239 44.6455C19.6331 44.6425 15.4523 48.6241 15.1348 53.6365C15.1044 54.1106 14.7205 54.5111 14.2239 54.5115C13.7512 54.5112 13.3475 54.1379 13.3475 53.6541C13.3475 53.6381 13.348 53.622 13.3489 53.6057C13.4611 51.6028 14.0973 49.7387 15.116 48.1421L2.60278 48.1421C2.11049 48.1416 1.71102 47.7423 1.71069 47.25C1.71102 46.7577 2.11049 46.3567 2.60278 46.3562L16.519 46.3562C17.1444 45.7069 17.8444 45.1306 18.6074 44.6438L1.97388 44.6438C1.48104 44.6436 1.08039 44.2445 1.08008 43.7517L1.08008 17.5C1.08041 17.0072 1.48105 16.6064 1.97388 16.6062L7.22388 16.6062C7.71661 16.6065 8.11563 17.0073 8.11597 17.5L8.11597 25.5151L13.7505 21.9929C14.0271 21.8174 14.3734 21.8119 14.6562 21.969C14.9394 22.1269 15.1157 22.4251 15.116 22.75L15.116 26.4226L22.5142 21.9844L22.6201 21.9297C22.8392 21.8351 23.0857 21.834 23.3037 21.9194L23.4097 21.969L23.4131 21.9707C23.6928 22.1292 23.8657 22.4282 23.866 22.75L23.866 26.2124L29.4373 22.0356L29.5415 21.9673C29.795 21.8263 30.1072 21.8178 30.3738 21.9519C30.6761 22.1031 30.8657 22.413 30.866 22.75L30.866 42.8562L41.3284 42.8562L41.3284 37.0918C40.9918 37.2674 40.5686 37.2173 40.2859 36.9346C40.1117 36.7601 40.0245 36.5315 40.0245 36.3028C40.0245 36.0744 40.1116 35.8459 40.2859 35.6716L41.3284 34.6274L41.3284 13.1421L25.6143 13.1421L25.6143 18.6194C25.6143 19.1121 25.2148 19.5111 24.7222 19.5115C24.2295 19.5112 23.8284 19.1122 23.8284 18.6194L23.8284 12.25C23.8287 11.7572 24.2293 11.3564 24.7222 11.3562L32.5784 11.3562L32.5784 9.64209L28.2239 9.64209C27.7311 9.64186 27.3304 9.2428 27.3301 8.75L27.3301 1.75C27.3304 1.2572 27.7311 0.856432 28.2239 0.856201L38.7239 0.856201ZM29.116 4.3562L32.5801 4.3562L32.5801 2.64209L29.116 2.64209L29.116 4.3562ZM34.366 4.3562L37.8284 4.3562L37.8284 2.64209L34.366 2.64209L34.366 4.3562ZM1.97388 4.3562C2.46661 4.35653 2.86564 4.75726 2.86597 5.25C2.8663 6.2036 3.64525 6.98097 4.59888 6.9812C6.53702 6.98153 8.11563 8.55992 8.11597 10.5C8.11563 10.9927 7.71661 11.3918 7.22388 11.3921C6.73105 11.3919 6.33041 10.9928 6.33008 10.5C6.32974 9.54646 5.55242 8.76742 4.59888 8.76709C2.66055 8.76686 1.08041 7.1883 1.08008 5.25C1.08041 4.7572 1.48105 4.35643 1.97388 4.3562ZM29.116 7.8562L32.5801 7.8562L32.5801 6.14209L29.116 6.14209L29.116 7.8562ZM34.366 7.8562L37.8284 7.8562L37.8284 6.14209L34.366 6.14209L34.366 7.8562ZM1.97388 9.6062C4.39512 9.60653 6.36563 11.5788 6.36597 14C6.36564 14.4927 5.96661 14.8918 5.47388 14.8921C4.98105 14.8919 4.58041 14.4928 4.58008 14C4.57974 12.5635 3.41042 11.3924 1.97388 11.3921C1.48105 11.3919 1.08041 10.9928 1.08008 10.5C1.08041 10.0072 1.48105 9.60643 1.97388 9.6062ZM29.9739 15.4868C30.4661 15.4871 30.8654 15.8867 30.866 16.3789L30.866 18.6194C30.866 19.1121 30.4665 19.5111 29.9739 19.5115C29.4812 19.5112 29.0801 19.1122 29.0801 18.6194L29.0801 16.3789C29.0807 15.8866 29.4815 15.487 29.9739 15.4868ZM36.9739 15.4868C37.4672 15.4868 37.8676 15.8874 37.8677 16.3806L37.866 18.6194C37.8657 19.1121 37.4665 19.5112 36.9739 19.5115C36.4811 19.5112 36.0802 19.1122 36.0801 18.6194L36.0801 16.3806C36.0804 15.8878 36.481 15.4871 36.9739 15.4868ZM2.86597 21.8562L6.33008 21.8562L6.33008 18.3921L2.86597 18.3921L2.86597 21.8562ZM36.9739 22.4868C37.4672 22.4868 37.8676 22.8874 37.8677 23.3806L37.866 25.6194C37.8657 26.1121 37.4665 26.5112 36.9739 26.5115C36.4811 26.5112 36.0802 26.1122 36.0801 25.6194L36.0801 23.3806C36.0804 22.8878 36.481 22.4871 36.9739 22.4868ZM2.86597 42.8562L6.33008 42.8562L6.33008 23.6421L2.86597 23.6421L2.86597 42.8562ZM14.6819 28.7656C14.4043 28.9327 14.0636 28.9301 13.7881 28.7793L13.7847 28.7776C13.5052 28.619 13.3303 28.3216 13.3301 28L13.3301 24.3582L8.11597 27.6189L8.11597 42.8562L15.0801 42.8562L15.0801 36.75C15.0804 36.2572 15.4811 35.8564 15.9739 35.8562L21.2239 35.8562C21.7166 35.8565 22.1156 36.2573 22.116 36.75L22.116 42.8562L29.0801 42.8562L29.0801 24.5342L23.5088 28.7126L23.5071 28.7144C23.2747 28.8863 22.969 28.9395 22.6902 28.8459L22.574 28.7981C22.2719 28.6468 22.0803 28.3368 22.0801 28L22.0801 24.3257L14.6819 28.7656ZM36.9739 29.4868C37.4672 29.4868 37.8676 29.8874 37.8677 30.3806L37.866 32.6194C37.8657 33.1121 37.4665 33.5112 36.9739 33.5115C36.4811 33.5112 36.0802 33.1122 36.0801 32.6194L36.0801 30.3806C36.0804 29.8878 36.481 29.4871 36.9739 29.4868ZM43.116 35.3691L43.116 42.8562L44.8284 42.8562L44.8284 38.5C44.8287 38.0072 45.2293 37.6064 45.7222 37.6062L49.2222 37.6062C49.7149 37.6066 50.1139 38.0073 50.1143 38.5L50.116 42.8562L51.8284 42.8562L51.8284 35.3691L47.4722 31.0095L43.116 35.3691ZM10.7239 31.2368C11.2161 31.2371 11.6154 31.6367 11.616 32.1289L11.616 32.6194C11.616 33.1121 11.2165 33.5111 10.7239 33.5115C10.2312 33.5112 9.83008 33.1122 9.83008 32.6194L9.83008 32.1289C9.83067 31.6366 10.2315 31.237 10.7239 31.2368ZM15.9739 31.2368C16.4661 31.2371 16.8654 31.6367 16.866 32.1289L16.866 32.6194C16.866 33.1121 16.4665 33.5111 15.9739 33.5115C15.4812 33.5112 15.0801 33.1122 15.0801 32.6194L15.0801 32.1289C15.0807 31.6366 15.4815 31.237 15.9739 31.2368ZM21.2239 31.2368C21.7161 31.2371 22.1154 31.6367 22.116 32.1289L22.116 32.6194C22.116 33.1121 21.7165 33.5111 21.2239 33.5115C20.7312 33.5112 20.3301 33.1122 20.3301 32.6194L20.3301 32.1289C20.3307 31.6366 20.7315 31.237 21.2239 31.2368ZM26.4739 31.2368C26.9661 31.2371 27.3654 31.6367 27.366 32.1289L27.366 32.6194C27.366 33.1121 26.9665 33.5111 26.4739 33.5115C25.9812 33.5112 25.5801 33.1122 25.5801 32.6194L25.5801 32.1289C25.5807 31.6366 25.9815 31.237 26.4739 31.2368ZM47.4739 32.9868C47.9671 32.9868 48.3677 33.3874 48.3677 33.8805L48.3677 33.8806L48.366 34.3694C48.3655 34.862 47.9665 35.2613 47.4739 35.2615C46.9811 35.2612 46.5802 34.8622 46.5801 34.3694L46.5801 33.8806C46.5804 33.3878 46.9811 32.987 47.4739 32.9868ZM16.866 42.8562L20.3301 42.8562L20.3301 37.6421L16.866 37.6421L16.866 42.8562ZM46.616 42.8562L48.3284 42.8562L48.3284 39.3921L46.616 39.3921L46.616 42.8562ZM53.8416 46.3562C54.3347 46.3562 54.7349 46.757 54.7354 47.25C54.7354 47.7434 54.3349 48.1438 53.8416 48.1438L24.7239 48.1438C21.5609 48.1424 18.9492 50.562 18.645 53.6467C18.599 54.1104 18.2221 54.5111 17.7239 54.5115C17.2597 54.5113 16.8546 54.1479 16.8546 53.6688C16.8546 53.6457 16.8555 53.6224 16.8574 53.5989C17.1901 49.5508 20.5914 46.3564 24.7239 46.3562L53.8416 46.3562ZM53.8416 49.8562C54.3347 49.8562 54.7349 50.257 54.7354 50.75C54.7354 51.2434 54.3349 51.6438 53.8416 51.6438L24.7222 51.6438C23.4817 51.643 22.4378 52.5163 22.1775 53.6809C22.0828 54.1053 21.7271 54.5111 21.2239 54.5115C20.7826 54.5113 20.3717 54.1733 20.3717 53.7067C20.3717 53.666 20.3748 53.6243 20.3813 53.5818C20.7042 51.4748 22.5291 49.8564 24.7239 49.8562L53.8416 49.8562Z" fill="rgb(0,0,0)" fill-rule="evenodd" />
</svg>
