<svg viewBox="0 0 56 56" xmlns="http://www.w3.org/2000/svg" xmlns:xlink="http://www.w3.org/1999/xlink" width="56.000000" height="56.000000" fill="none">
	<rect id="Icon/Controller/119_podval" width="56.000000" height="56.000000" x="0.000000" y="0.000000" />
	<path id="Icon" d="M51.6506 2.29004C51.6504 1.85907 51.3428 1.49845 50.9363 1.41504L50.7568 1.39624C50.2639 1.39671 49.865 1.79825 49.8647 2.29004L49.8647 18.064C49.8631 18.0861 49.8579 18.1081 49.8579 18.1306L49.8579 26.3901L38.5 26.3901C38.0071 26.3904 37.6064 26.791 37.6062 27.2839L37.6062 35.1401L29.75 35.1401C29.2571 35.1404 28.8564 35.541 28.8562 36.0339L28.8562 43.8901L21 43.8901C20.5071 43.8904 20.1064 44.291 20.1062 44.7839L20.1062 53.3579L6.14209 53.3579L6.14209 35.3879L18.7869 35.4102C19.2181 35.4107 19.5797 35.1044 19.6636 34.6975L19.6824 34.5181C19.6825 34.0253 19.2817 33.6255 18.7903 33.6243L16.8027 33.6191C17.4347 33.0524 17.8581 32.1879 17.9392 31.2231L17.9392 31.2112L17.9529 30.8865L17.9529 25.5527C17.9525 23.7927 16.8212 22.2712 15.2988 22.1348L15.2988 21.5093C15.2985 21.1133 15.0631 20.7297 14.6819 20.6343L14.6682 20.6309L14.6528 20.6292L14.5469 20.6155L14.5298 20.6121L11.0964 20.6121C10.6191 20.6131 10.3106 21.0641 10.3103 21.5093L10.3103 22.1348C8.78874 22.2722 7.65661 23.7931 7.65625 25.5527L7.65625 30.8762L7.65796 30.8865L7.67163 31.2095L7.66992 31.2112L7.67163 31.2231C7.75202 32.1795 8.16842 33.0385 8.79102 33.6055L6.14209 33.6021L6.14209 18.1306C6.14209 17.6377 5.74291 17.2368 5.25 17.2368C4.75709 17.2368 4.35791 17.6377 4.35791 18.1306L4.35791 53.3579L2.38062 53.3579C1.8877 53.3579 1.48682 53.7571 1.48682 54.25C1.48682 54.7429 1.8877 55.1421 2.38062 55.1421L53.6194 55.1421C54.1123 55.1421 54.5132 54.7429 54.5132 54.25C54.5132 53.7571 54.1123 53.3579 53.6194 53.3579L51.6438 53.3579L51.6438 19.3354C51.6456 19.3124 51.6506 19.2889 51.6506 19.2654L51.6506 2.29004ZM6.1438 2.29004C6.14342 1.85903 5.8361 1.49825 5.42944 1.41504L5.25 1.39624C4.75715 1.39671 4.35834 1.79837 4.35791 2.29004L4.35791 11.2793C4.35791 11.7713 4.75689 12.1726 5.25 12.1731L5.42944 12.1543C5.8362 12.0709 6.1438 11.7106 6.1438 11.2793L6.1438 2.29004ZM15.4902 5.05688C15.7261 4.62381 16.2696 4.46482 16.7019 4.69971L31.676 12.8345C32.1086 13.0698 32.2692 13.6118 32.0349 14.0444L31.9324 14.1931C31.9078 14.2224 31.8797 14.2479 31.8521 14.2734C31.9213 14.4 31.9647 14.5429 31.9648 14.6973L31.946 14.8767C31.8628 15.2837 31.5025 15.5911 31.071 15.5911L5.49609 15.5911C5.06483 15.5909 4.70424 15.2836 4.62109 14.8767L4.60229 14.6973C4.60277 14.2043 5.00426 13.8054 5.49609 13.8052L29.7209 13.8052L15.8491 6.26855C15.4702 6.06251 15.3007 5.61992 15.4219 5.22266L15.4902 5.05688ZM9.44214 25.5527C9.44248 24.3694 10.1821 23.9074 10.5342 23.907L15.0767 23.907L15.2236 23.9292C15.6008 24.0336 16.1667 24.5165 16.167 25.5527L16.167 30.8762L16.1584 31.0898C16.0869 31.98 15.5739 32.4028 15.2236 32.4998L15.0767 32.522L10.5342 32.522C10.204 32.5216 9.53333 32.116 9.45068 31.0898L9.44214 30.8762L9.44214 25.5527ZM38.5 36.926C38.9927 36.9257 39.3918 36.5267 39.3921 36.0339L39.3921 28.176L49.8579 28.176L49.8579 53.3579L21.8921 53.3579L21.8921 45.676L29.75 45.676C30.2427 45.6757 30.6418 45.2767 30.6421 44.7839L30.6421 36.926L38.5 36.926ZM44.4216 39.3477C44.7704 38.9991 45.3356 38.9994 45.6846 39.3477C46.0335 39.6966 46.0333 40.2616 45.6846 40.6106L37.1567 49.1401L43.1194 49.1401C43.6122 49.1401 44.0112 49.5412 44.0115 50.0339C44.0111 50.5266 43.6121 50.926 43.1194 50.926L34.1062 50.926L34.1062 41.9128C34.1067 41.4205 34.5076 41.021 35 41.0208C35.4923 41.0211 35.8916 41.4205 35.8921 41.9128L35.8921 47.8772L44.4216 39.3477Z" fill="rgb(0,0,0)" fill-rule="evenodd" />
</svg>
