<svg viewBox="0 0 32 32" xmlns="http://www.w3.org/2000/svg" xmlns:xlink="http://www.w3.org/1999/xlink" width="32.000000" height="32.000000" fill="none">
	<rect id="120_cherdak" width="32.000000" height="32.000000" x="0.000000" y="0.000000" />
	<rect id="Icon/Controller/120_cherdak" width="32.000000" height="32.000000" x="0.000000" y="0.000000" />
	<path id="Icon" d="M16.3586 0.639221C16.1615 0.442097 15.8458 0.440074 15.6457 0.632387L0.936739 13.3785C0.713494 13.572 0.701597 13.9146 0.910374 14.1236C1.09909 14.3123 1.40183 14.3235 1.60373 14.149L16.0166 1.69203L30.3959 14.0999C30.5827 14.2608 30.8528 14.2617 31.0404 14.1169L31.1155 14.0462C31.299 13.8331 31.2753 13.5112 31.0626 13.3273L16.3916 0.667649C16.3837 0.660849 16.3757 0.654324 16.3675 0.648084L16.3586 0.639221ZM11.7908 14.9552C11.8258 14.9411 11.8596 14.923 11.8914 14.9009L11.97 14.8341C12.1643 14.6301 12.1558 14.3069 11.9524 14.1128L7.80795 10.158C7.60458 9.9639 7.28127 9.97053 7.08658 10.1742L7.02355 10.2558C6.89738 10.4569 6.92509 10.7261 7.10349 10.8963L10.3488 13.9932L3.09717 13.9932C2.81603 13.9932 2.58671 14.2212 2.58644 14.5029L2.59717 14.6054C2.64472 14.8381 2.85063 15.0137 3.09717 15.0137L11.5542 15.0137C11.6397 15.0136 11.7201 14.9924 11.7908 14.9552ZM29.5791 14.6054C29.5316 14.8381 29.3257 15.0137 29.0791 15.0137L19.3672 15.0137L19.3672 20.9995C19.3672 21.2813 19.1393 21.5102 18.8574 21.5102L14.3672 21.5102L14.3672 25.9995C14.3672 26.2813 14.1393 26.5102 13.8574 26.5102L9.36721 26.5102L9.36721 30.4898L28.4885 30.4898L28.4885 16.3609C28.4885 16.079 28.7173 15.8502 28.9993 15.8502C29.2812 15.8502 29.51 16.079 29.51 16.3609L29.51 30.4898L30.6389 30.4898C30.9204 30.4899 31.1485 30.7181 31.1486 30.9996C31.1486 31.2812 30.9205 31.5103 30.6389 31.5104L1.35861 31.5104C1.07702 31.5102 0.848848 31.2812 0.848848 30.9996C0.849094 30.7181 1.07716 30.4899 1.35861 30.4898L2.4885 30.4898L2.4885 16.3599C2.48853 16.0783 2.71761 15.8502 2.99924 15.8502C3.2807 15.8504 3.50901 16.0784 3.50901 16.3599L3.50901 30.4898L3.70704 30.4898L3.70704 30.4898L8.34767 30.4898L8.34767 25.9995C8.34784 25.7178 8.57572 25.4897 8.85744 25.4897L13.3477 25.4897L13.3477 20.9995C13.3478 20.7178 13.5757 20.4897 13.8574 20.4897L18.3477 20.4897L18.3477 14.5034C18.3477 14.2257 18.5695 14 18.8457 13.9938C18.8542 13.9934 18.8626 13.9932 18.8711 13.9932L29.0791 13.9932C29.3602 13.9932 29.5896 14.2212 29.5898 14.5029L29.5791 14.6054ZM21.0196 23.106L25.8936 18.232L25.8936 21.6401C25.8937 21.9216 26.1219 22.1497 26.4033 22.1499C26.6849 22.1499 26.914 21.9217 26.9141 21.6401L26.9141 16.4897L21.7637 16.4897C21.4821 16.4897 21.2541 16.718 21.2539 16.9995C21.2539 17.2812 21.482 17.5102 21.7637 17.5102L25.1709 17.5102L20.2978 22.3843C20.0986 22.5837 20.0985 22.9066 20.2978 23.106C20.4973 23.3052 20.8202 23.3052 21.0196 23.106Z" fill="rgb(0,0,0)" fill-rule="evenodd" />
</svg>
