<svg width="32" height="32" viewBox="0 0 32 32" fill="none" xmlns="http://www.w3.org/2000/svg">
<g clip-path="url(#clip0_120_632)">
<path d="M26.0029 17.4873C28.2532 17.4877 30.0846 19.3191 30.085 21.5693C30.085 22.7629 29.5599 23.8719 28.6748 24.6367C30.4028 25.5992 31.5145 27.4223 31.5146 29.4268V30.6377C31.5146 30.9202 31.2853 31.149 31.0029 31.1494C30.7202 31.1494 30.4903 30.9204 30.4902 30.6377V29.4277C30.4901 27.6588 29.4244 26.0576 27.8018 25.3408L27.4697 25.209C27.2772 25.141 27.1455 24.9669 27.1299 24.7656V24.6885C27.1435 24.5153 27.2453 24.3581 27.4033 24.2754C28.4263 23.7416 29.0605 22.7051 29.0605 21.5713C29.0602 19.8837 27.6875 18.5112 26 18.5107C24.3121 18.5107 22.9389 19.8835 22.9385 21.5713C22.9385 22.7062 23.5725 23.7427 24.5967 24.2764L24.6611 24.3164C24.7827 24.4044 24.8588 24.5419 24.8701 24.6904V24.7656C24.8547 24.9675 24.7228 25.1418 24.5293 25.209L24.5303 25.21C22.7234 25.8452 21.5119 27.5417 21.5117 29.4277L21.5107 30.6396C21.5106 30.921 21.2823 31.149 21.001 31.1494C20.7193 31.1494 20.4904 30.9213 20.4902 30.6396L20.4893 29.4277C20.4891 27.6588 19.4235 26.0576 17.8008 25.3408L17.4688 25.209C17.2762 25.141 17.1446 24.9669 17.1289 24.7656V24.6885C17.1425 24.5153 17.2444 24.3581 17.4023 24.2754C18.4263 23.7416 19.0605 22.7051 19.0605 21.5713C19.0602 19.8837 17.6875 18.5112 16 18.5107C14.312 18.5107 12.9379 19.8835 12.9375 21.5713C12.9375 22.7052 13.5725 23.7426 14.5967 24.2764C14.7765 24.3699 14.8839 24.5627 14.8701 24.7646C14.8577 24.9427 14.7539 25.0996 14.5996 25.1807L14.5312 25.21C12.7243 25.8452 11.5119 27.5417 11.5117 29.4277L11.5098 30.6396C11.5094 30.921 11.2812 31.1491 11 31.1494C10.7183 31.1494 10.4894 30.9213 10.4893 30.6396V29.4277C10.4891 27.6589 9.42263 26.0576 7.7998 25.3408L7.46777 25.209C7.27694 25.1411 7.14309 24.9666 7.12891 24.7637C7.11508 24.5617 7.22201 24.37 7.40137 24.2754C8.42534 23.7416 9.05957 22.7051 9.05957 21.5713C9.05918 19.8838 7.68557 18.5112 5.99902 18.5107C4.31104 18.5107 2.93691 19.8835 2.93652 21.5713C2.93652 22.7052 3.57147 23.7426 4.5957 24.2764C4.77553 24.3699 4.88293 24.5627 4.86914 24.7646C4.85677 24.9427 4.75292 25.0996 4.59863 25.1807L4.53027 25.21C2.72334 25.8452 1.51089 27.5417 1.51074 29.4277V30.6396C1.51074 30.921 1.28226 31.149 1.00098 31.1494C0.719311 31.1494 0.489258 30.9213 0.489258 30.6396V29.4277C0.489387 27.4248 1.59999 25.6023 3.32617 24.6396C2.44061 23.8753 1.91797 22.7643 1.91797 21.5703C1.91834 19.3198 3.74939 17.4883 6 17.4883C8.24924 17.4887 10.0807 19.3201 10.0811 21.5703C10.0811 22.7629 9.55669 23.871 8.67285 24.6357C9.70417 25.2106 10.5154 26.093 11.001 27.1377C11.4868 26.0947 12.2949 25.2123 13.3252 24.6377C12.4409 23.8735 11.9189 22.7634 11.9189 21.5703C11.9193 19.3198 13.7504 17.4883 16.001 17.4883C18.2512 17.4887 20.0826 19.3201 20.083 21.5703C20.083 22.763 19.5586 23.8709 18.6738 24.6357C19.7058 25.2106 20.5157 26.0938 21.002 27.1377C21.488 26.0935 22.2981 25.2114 23.3281 24.6367C22.4435 23.8725 21.9209 22.7626 21.9209 21.5693C21.9213 19.3188 23.7523 17.4873 26.0029 17.4873Z" fill="black"/>
<path d="M31.001 0.489258C31.2823 0.48971 31.5106 0.718597 31.5107 1V15C31.5106 15.2814 31.2823 15.5093 31.001 15.5098H16.3604C16.0789 15.5096 15.8508 15.2814 15.8506 15C15.8508 14.7186 16.0789 14.4894 16.3604 14.4893H30.4902V1.50977H14.5107V7.21777H17.04C17.8723 7.21826 18.5496 7.89521 18.5498 8.72754C18.5498 9.56008 17.8725 10.2368 17.04 10.2373H10.5107V14.6396C10.5107 14.921 10.2823 15.149 10.001 15.1494C9.71931 15.1494 9.49023 14.9213 9.49023 14.6396V9.72754C9.49048 9.44591 9.71929 9.21777 10.001 9.21777H17.04C17.3098 9.21728 17.5293 8.9974 17.5293 8.72754C17.529 8.45789 17.3096 8.23779 17.04 8.2373H7.61621C7.38125 8.23712 7.17762 8.07713 7.12109 7.84961C7.06615 7.62086 7.17302 7.38328 7.38086 7.27441C8.40085 6.74175 9.03418 5.70529 9.03418 4.57129C9.0338 2.88252 7.6713 1.51023 6.00098 1.50977C4.30978 1.50977 2.933 2.88373 2.93262 4.57129C2.93262 5.70643 3.56576 6.74279 4.58691 7.27539L4.65039 7.31543C4.79142 7.41776 4.8729 7.58797 4.85938 7.76562C4.8447 7.967 4.71104 8.14108 4.51953 8.20801L4.52051 8.20898C2.71974 8.8441 1.51089 10.5404 1.51074 12.4277V14.6396C1.51074 14.921 1.28226 15.149 1.00098 15.1494C0.719312 15.1494 0.489258 14.9213 0.489258 14.6396V12.4277C0.489387 10.4245 1.59794 8.60216 3.31934 7.63965C2.43578 6.87531 1.91309 5.76474 1.91309 4.57129C1.91347 2.32055 3.74759 0.489258 6.00098 0.489258C8.23624 0.489716 10.0533 2.3221 10.0537 4.57129C10.0537 5.5602 9.69407 6.49251 9.06836 7.21777H13.4902V1C13.4904 0.718319 13.7193 0.489258 14.001 0.489258H31.001Z" fill="black"/>
<path fill-rule="evenodd" clip-rule="evenodd" d="M23.5186 5.51855C24.8472 4.19046 27.154 4.19027 28.4824 5.51855L28.6035 5.64551C29.1899 6.29139 29.5107 7.12207 29.5107 8C29.5107 8.93649 29.1442 9.81849 28.4824 10.4805C27.8195 11.1433 26.9375 11.5095 26.001 11.5098C25.0642 11.5098 24.1816 11.1434 23.5186 10.4814C22.8556 9.81838 22.4903 8.93654 22.4902 8C22.4903 7.06331 22.8565 6.18058 23.5186 5.51855ZM26.46 8.2627L25.8848 10.4863C26.5745 10.5174 27.2647 10.2576 27.7607 9.76074C28.2313 9.28995 28.4901 8.66481 28.4902 8C28.4902 7.51147 28.3501 7.04505 28.0908 6.64551L26.46 8.2627ZM23.6416 7.20508C23.5568 7.458 23.5108 7.72582 23.5107 8C23.5108 8.66509 23.7686 9.29002 24.2393 9.76074C24.434 9.95547 24.6578 10.1115 24.8975 10.2305L25.4102 8.24414L23.6416 7.20508ZM27.3711 5.92285C26.4229 5.30445 25.059 5.42046 24.2412 6.23828C24.2131 6.26636 24.1846 6.29537 24.1582 6.32422L25.9209 7.36035L27.3711 5.92285Z" fill="black"/>
<path d="M19.6406 4.48926C19.9219 4.48952 20.1502 4.71866 20.1504 5C20.1502 5.28134 19.9219 5.5095 19.6406 5.50977H16.3604C16.0789 5.50962 15.8508 5.28141 15.8506 5C15.8508 4.71859 16.0789 4.48941 16.3604 4.48926H19.6406Z" fill="black"/>
<path d="M20.6406 2.48926C20.9219 2.48952 21.1502 2.71866 21.1504 3C21.1502 3.28134 20.9219 3.5095 20.6406 3.50977H16.3604C16.0789 3.50962 15.8508 3.28141 15.8506 3C15.8508 2.71859 16.0789 2.48941 16.3604 2.48926H20.6406Z" fill="black"/>
</g>
<defs>
<clipPath id="clip0_120_632">
<rect width="32" height="32" fill="white"/>
</clipPath>
</defs>
</svg>
