<svg viewBox="0 0 56 56" xmlns="http://www.w3.org/2000/svg" xmlns:xlink="http://www.w3.org/1999/xlink" width="56.000000" height="56.000000" fill="none">
	<rect id="Icon/Controller/123_resepshn" width="56.000000" height="56.000000" x="0.000000" y="0.000000" />
	<path id="Icon" d="M43.7775 1.1958L43.7843 1.19751C47.0801 1.36512 49.7006 4.0896 49.7008 7.42676L49.7008 7.43188L49.694 7.7395L49.6923 7.74805C49.5247 11.0438 46.8001 13.6643 43.463 13.6646L43.4579 13.6646L43.1503 13.6577L43.1417 13.656C39.9519 13.4943 37.396 10.9376 37.2338 7.74805L37.2321 7.74121L37.2235 7.43359L37.2235 7.42676C37.2238 3.98164 40.0178 1.18726 43.463 1.18726L43.4698 1.18726L43.7775 1.1958ZM43.463 2.97314C41.0037 2.97314 39.0097 4.96747 39.0094 7.42676L39.0316 7.88135C39.2597 10.127 41.1571 11.8787 43.463 11.8787L43.9176 11.8564C46.1631 11.6285 47.9147 9.7324 47.9149 7.42676L47.8927 6.97217C47.68 4.87588 46.0136 3.20821 43.9176 2.99536L43.463 2.97314ZM44.2098 5.05127C44.5216 4.67114 45.0843 4.61309 45.4659 4.9248L45.5924 5.05298C45.7245 5.21517 45.7924 5.41576 45.7924 5.61758C45.7924 5.8166 45.7264 6.01683 45.5907 6.18262L44.203 7.87793C43.9299 8.21166 43.4649 8.29658 43.0973 8.10352L42.9452 8.00439C42.7305 7.82821 42.6199 7.57259 42.6199 7.31489C42.6199 7.11529 42.6863 6.91444 42.8221 6.74829L44.2098 5.05127ZM18.3229 6.85815L18.3297 6.85986C21.2492 7.00811 23.5712 9.42213 23.5712 12.3782L23.5712 12.385L23.5643 12.655L23.5626 12.6619C23.4142 15.5808 21.0016 17.9029 18.046 17.9033L18.0392 17.9033L17.7675 17.8965L17.7606 17.8948C14.9356 17.7513 12.6714 15.4868 12.5277 12.6619L12.526 12.655L12.5192 12.385L12.5192 12.3782C12.5192 9.32663 14.9945 6.85132 18.046 6.85132L18.0529 6.85132L18.3229 6.85815ZM18.046 8.63721C15.9803 8.63721 14.3051 10.3125 14.3051 12.3782L14.3239 12.761C14.5163 14.6463 16.1099 16.1174 18.046 16.1174L18.4288 16.0986C20.314 15.9065 21.7846 14.3138 21.7853 12.3782L21.7665 11.9954C21.5875 10.2354 20.1884 8.83545 18.4288 8.65601L18.046 8.63721ZM23.5575 19.3047C25.9827 19.3056 27.9496 21.2732 27.9496 23.6985L27.9496 29.2048L53.6271 29.2048C54.1199 29.2048 54.5207 29.6058 54.5209 30.0986L54.5209 33.4619C54.5209 33.9548 54.12 34.3557 53.6271 34.3557L51.5814 34.3557L51.5814 53.6262C51.5814 54.1182 51.1827 54.5197 50.6893 54.52L5.31238 54.52C4.81946 54.52 4.41858 54.1191 4.41858 53.6262L4.41858 34.3557L2.37292 34.3557C1.88001 34.3557 1.47913 33.9548 1.47913 33.4619L1.47913 30.0986C1.47927 29.6058 1.8801 29.2048 2.37292 29.2048L8.14075 29.2048L8.14075 23.6985C8.14075 21.2726 10.1086 19.3047 12.5345 19.3047L23.5575 19.3047ZM12.5345 21.0906C11.0947 21.0906 9.92834 22.2582 9.92834 23.6985L9.92834 29.2048L26.1637 29.2048L26.1637 23.6985C26.1637 22.3489 25.138 21.2387 23.8241 21.1042L23.5575 21.0906L12.5345 21.0906ZM46.4083 23.625C46.9009 23.6252 47.2998 24.025 47.3004 24.5171L47.2816 24.6965C47.1988 25.103 46.8402 25.4107 46.4083 25.4109L33.7994 25.4109C33.368 25.4109 33.0076 25.1036 32.9244 24.6965L32.9056 24.5171C32.9063 24.0241 33.3075 23.625 33.7994 23.625L46.4083 23.625ZM16.2721 24.03C16.7641 24.03 17.1654 24.429 17.1659 24.9221L17.1471 25.1016C17.0639 25.5085 16.7035 25.8159 16.2721 25.8159L13.413 25.8159C12.9816 25.8159 12.6212 25.5085 12.538 25.1016L12.5192 24.9221C12.5196 24.429 12.9209 24.03 13.413 24.03L16.2721 24.03ZM46.4083 26.4773C46.901 26.4775 47.2999 26.8772 47.3004 27.3694L47.2816 27.5488C47.1988 27.9553 46.8402 28.263 46.4083 28.2632L33.7994 28.2632C33.368 28.2632 33.0076 27.9559 32.9244 27.5488L32.9056 27.3694C32.9061 26.8763 33.3074 26.4773 33.7994 26.4773L46.4083 26.4773ZM3.26672 32.5681L52.735 32.5681L52.735 30.9907L27.0746 30.9907C27.0689 30.9908 27.0632 30.9924 27.0575 30.9924L9.03455 30.9924C9.02912 30.9924 9.02286 30.9908 9.01746 30.9907L3.26672 30.9907L3.26672 32.5681ZM6.20618 52.7341L49.7955 52.7341L49.7955 34.3557L6.20618 34.3557L6.20618 52.7341Z" fill="rgb(0,0,0)" fill-rule="evenodd" />
</svg>
