<svg width="32" height="32" viewBox="0 0 32 32" fill="none" xmlns="http://www.w3.org/2000/svg">
<g clip-path="url(#clip0_169_200)">
<rect width="32" height="32" fill="white"/>
<path d="M7 3.22363C7.28148 3.22366 7.5095 3.45197 7.50977 3.7334V22.9131C7.50971 23.1947 7.28161 23.4228 7 23.4229C6.71837 23.4229 6.49029 23.1947 6.49023 22.9131V3.7334C6.4905 3.45196 6.7185 3.22363 7 3.22363Z" fill="black"/>
<path fill-rule="evenodd" clip-rule="evenodd" d="M16.1523 13.1133C16.9051 13.1901 17.4941 13.828 17.4941 14.6006C17.4938 15.373 16.9042 16.0102 16.1523 16.0869L16 16.0947C15.1767 16.0946 14.5063 15.4246 14.5059 14.6006C14.5059 13.7765 15.1756 13.1055 16 13.1055L16.1523 13.1133ZM16 14.1689C15.7626 14.169 15.5684 14.3632 15.5684 14.6006L15.5771 14.6875C15.618 14.883 15.7925 15.0312 16 15.0312C16.2372 15.031 16.4313 14.8373 16.4316 14.6006L16.4229 14.5137C16.3823 14.3176 16.2075 14.1692 16 14.1689Z" fill="black"/>
<path fill-rule="evenodd" clip-rule="evenodd" d="M16.001 3.54297C17.6604 3.54342 19.0107 4.8942 19.0107 6.55371C19.0106 8.21311 17.6603 9.56302 16.001 9.56348C14.3413 9.56348 12.9904 8.21339 12.9902 6.55371C12.9903 4.89392 14.3412 3.54297 16.001 3.54297ZM16.001 4.56348C14.9039 4.56348 14.0108 5.45661 14.0107 6.55371C14.0109 7.65071 14.9039 8.54297 16.001 8.54297C17.0976 8.54251 17.99 7.65043 17.9902 6.55371C17.9902 5.45689 17.0977 4.56393 16.001 4.56348Z" fill="black"/>
<path d="M25 3.22363C25.2819 3.22363 25.5106 3.45253 25.5107 3.73438L25.5098 22.9131C25.5097 23.1947 25.2816 23.4228 25 23.4229C24.7184 23.4229 24.4903 23.1947 24.4902 22.9131V3.73438C24.4903 3.45268 24.7183 3.22387 25 3.22363Z" fill="black"/>
<path fill-rule="evenodd" clip-rule="evenodd" d="M30.7842 0.863281C31.0653 0.863281 31.2945 1.09139 31.2949 1.37305L31.2842 1.47559C31.2367 1.70818 31.0307 1.88379 30.7842 1.88379H28.5098V24.7627H29C29.2817 24.7627 29.5097 24.9917 29.5098 25.2734V27.1279H30.6279C30.9095 27.1279 31.1373 27.3562 31.1377 27.6377V30.6377C31.1377 30.9195 30.9098 31.1484 30.6279 31.1484H1.36426C1.08241 31.1484 0.853516 30.9195 0.853516 30.6377V27.6377C0.853886 27.3562 1.08264 27.1279 1.36426 27.1279H2.49023V25.2734C2.49035 24.9917 2.71823 24.7627 3 24.7627H3.49023V1.88379H1.21582C0.969274 1.88379 0.763345 1.70818 0.71582 1.47559L0.705078 1.37305C0.705488 1.09139 0.934746 0.863281 1.21582 0.863281H30.7842ZM1.87402 30.1279H30.1182V28.1484H1.87402V30.1279ZM3.50977 27.1279H28.4902V25.7832H3.50977V27.1279ZM4.50977 24.7627H9.49023V1.88379H4.50977V24.7627ZM10.5098 24.7627H14.5781V21.8076C13.9941 21.5256 13.6067 20.9593 13.5586 20.3135L13.5576 20.3086L13.5586 20.3076L13.5537 20.1816L13.5527 20.1758L13.5537 18.6172C13.5537 17.9406 13.8258 17.3098 14.3164 16.8438C14.8076 16.3782 15.4531 16.1398 16.1318 16.1748L16.3711 16.2002C17.5494 16.3886 18.4489 17.4829 18.4482 18.7275L18.4463 20.1787C18.4446 20.8785 18.0462 21.506 17.4238 21.8086V24.7627H21.4902V1.88379H10.5098V24.7627ZM16.0684 17.2334C15.6824 17.2179 15.3232 17.3516 15.0479 17.6123L15.0215 17.6367C14.7597 17.8987 14.6172 18.2437 14.6172 18.6152L14.6162 20.1738C14.6163 20.4836 14.8003 20.7568 15.0859 20.8721L15.2852 20.9531C15.3829 20.9929 15.4673 21.0613 15.5273 21.1396C15.5862 21.2168 15.6406 21.3271 15.6406 21.457V24.7627H16.3604V21.457L16.3672 21.377C16.3934 21.2056 16.5025 21.0583 16.6582 20.9814L16.665 20.9756L16.6934 20.9648L16.915 20.875L17.0049 20.8311C17.2051 20.7171 17.3409 20.5184 17.375 20.291L17.3828 20.1777L17.3838 18.7256C17.3843 17.9772 16.8516 17.3535 16.2061 17.248L16.0684 17.2334ZM22.5098 24.7627H27.4893V1.88379H22.5098V24.7627Z" fill="black"/>
</g>
<defs>
<clipPath id="clip0_169_200">
<rect width="32" height="32" fill="white"/>
</clipPath>
</defs>
</svg>
