<svg width="32" height="32" viewBox="0 0 32 32" fill="none" xmlns="http://www.w3.org/2000/svg">
<rect width="32" height="32" fill="white"/>
<path fill-rule="evenodd" clip-rule="evenodd" d="M22.2363 15.467C22.5237 15.4676 22.7537 15.7021 22.7539 15.9865V18.4924L22.7275 19.2307L22.7266 19.2385L22.7256 19.2453C22.6484 19.8316 22.3978 20.3628 22.0303 20.7893H23.625C24.7518 20.7896 25.3339 21.8814 25.0488 22.761H29.96C30.5948 22.761 31.1111 23.2762 31.1113 23.9113V24.5549L31.1045 24.6574V24.6643C31.0493 25.2055 30.6186 25.6357 30.0771 25.6906L30.0693 25.6916L29.9678 25.6955L29.9609 25.6965H18.1621V30.5061C18.1621 30.7872 17.9343 31.0167 17.6523 31.0168H14.3477C14.066 31.0168 13.8369 30.7877 13.8369 30.5061V25.6965H2.03906C1.40394 25.6965 0.888672 25.1812 0.888672 24.5461V23.9113C0.888842 23.3163 1.34123 22.826 1.9209 22.7668L1.92969 22.7658L2.03223 22.7619L2.03906 22.761H6.95117C6.67814 21.9196 7.2002 20.8843 8.2334 20.7961L8.23926 20.7951L8.36816 20.7903L8.375 20.7893H9.96777C9.51971 20.2703 9.24609 19.5953 9.24609 18.8567V15.9865C9.24628 15.7016 9.47697 15.4671 9.76465 15.467H22.2363ZM14.8584 29.9953H17.1416V25.761H14.8584V29.9953ZM2.03906 23.7815C1.96738 23.7815 1.90936 23.8397 1.90918 23.9113V24.5461C1.90918 24.6179 1.96727 24.676 2.03906 24.676H29.9609L30.0107 24.6662C30.0573 24.6465 30.0898 24.6002 30.0898 24.5461V23.9113C30.0897 23.8397 30.0316 23.7815 29.96 23.7815H2.03906ZM8.375 21.8098C7.88066 21.8102 7.71723 22.4721 8.1543 22.7024C8.22245 22.7382 8.29863 22.757 8.375 22.757H23.625C23.7014 22.757 23.7785 22.7383 23.8467 22.7024C24.283 22.4718 24.1191 21.8102 23.625 21.8098H19.8584C19.8441 21.81 19.8298 21.8117 19.8154 21.8117H12.1855C12.1601 21.8117 12.1347 21.8104 12.1094 21.8098H8.375ZM10.2832 18.8567C10.2832 19.9145 11.1385 20.7727 12.1855 20.7727H19.8154L20.0098 20.7629C20.9662 20.6643 21.7178 19.848 21.7178 18.8567V16.5061H10.2832V18.8567Z" fill="black"/>
<path d="M2.90137 8.18088L2.91602 8.32443C2.98294 8.64823 3.27038 8.89279 3.61328 8.89279H4.23047C4.51852 8.8931 4.75277 9.12697 4.75293 9.41525V20.0022H5.55957V9.41525C5.55973 9.127 5.79351 8.89279 6.08203 8.89279H6.69922L6.84277 8.87814C7.11998 8.8208 7.33913 8.60165 7.39648 8.32443L7.41113 8.18088V1.70822H8.45605V8.18088C8.45583 9.14923 7.66759 9.93751 6.69922 9.93771H6.60449V20.5256C6.60388 20.8132 6.37018 21.0478 6.08203 21.0481H4.23047C3.94242 21.0481 3.70765 20.8137 3.70703 20.5256V9.93771H3.61328C2.64482 9.93771 1.8557 9.14943 1.85547 8.18088V1.70822H2.90137V8.18088Z" fill="black"/>
<path fill-rule="evenodd" clip-rule="evenodd" d="M27.0166 1.71408C27.8716 1.7729 28.6316 2.26707 29.1836 3.01486C29.7724 3.81263 30.1328 4.90783 30.1328 6.11057V6.11349L30.1279 6.33224V6.33517C30.0749 7.75085 29.522 8.99925 28.6885 9.7551C28.4515 9.96993 28.293 10.2469 28.293 10.5383V20.5256C28.2924 20.8132 28.0587 21.0478 27.7705 21.0481H25.9189C25.6309 21.0481 25.3961 20.8137 25.3955 20.5256V10.5354C25.3954 10.2443 25.2376 9.96782 25.001 9.75314C24.1679 8.99762 23.6156 7.75055 23.5625 6.33517L23.5615 6.33224L23.5566 6.11349V6.11057C23.5566 4.90778 23.9171 3.81265 24.5059 3.01486C25.0946 2.2173 25.9198 1.70832 26.8447 1.70822L27.0166 1.71408ZM26.8447 2.76877C26.3356 2.76886 25.8001 3.04677 25.3594 3.64377C24.9185 4.24132 24.6182 5.11093 24.6182 6.11057L24.6318 6.47873C24.6954 7.32277 24.9737 8.05352 25.3594 8.57639C25.4929 8.75726 25.6353 8.90862 25.7832 9.03146C26.1185 9.30988 26.4394 9.71084 26.4395 10.1985L26.4414 20.0022H27.248L27.2451 10.2033C27.2449 9.71429 27.5666 9.31207 27.9033 9.03342C28.0522 8.91021 28.1959 8.75822 28.3301 8.57639C28.7709 7.97887 29.0712 7.10993 29.0713 6.11057L29.0576 5.7424C28.9941 4.8981 28.7158 4.16668 28.3301 3.64377C27.9447 3.12167 27.4866 2.84311 27.0371 2.78146L26.8447 2.76877Z" fill="black"/>
<path d="M12.626 9.20724C12.8857 9.20796 13.0984 9.41927 13.0986 9.6799C13.0987 9.88552 13.147 10.092 13.2383 10.2756C13.5677 10.9388 13.5674 11.7286 13.2383 12.3918C13.1471 12.5754 13.0987 12.7827 13.0986 12.9885V13.551C13.0986 13.837 12.8654 14.0691 12.5801 14.0695C12.2941 14.0695 12.0615 13.837 12.0615 13.551V12.9875C12.0616 12.6219 12.148 12.2562 12.3105 11.9289C12.4953 11.5565 12.4955 11.1097 12.3105 10.7375C12.1682 10.451 12.0851 10.1353 12.0664 9.81564L12.0615 9.67892C12.0619 9.41838 12.2742 9.20724 12.5342 9.20724H12.626Z" fill="black"/>
<path d="M19.4668 9.20724C19.727 9.20763 19.9393 9.41932 19.9395 9.6799C19.9395 9.8854 19.9883 10.0924 20.0791 10.2756C20.4085 10.9388 20.4082 11.7286 20.0791 12.3918C19.9882 12.5742 19.9395 12.7824 19.9395 12.9885V13.551C19.9392 13.8368 19.7063 14.0692 19.4209 14.0695C19.1349 14.0695 18.9024 13.837 18.9023 13.551V12.9875C18.9024 12.6221 18.9886 12.2565 19.1504 11.9299C19.312 11.6043 19.3324 11.2211 19.2109 10.8811L19.1504 10.7375C19.0086 10.4514 18.9258 10.1352 18.9072 9.81564L18.9023 9.67892C18.9027 9.41838 19.115 9.20724 19.375 9.20724H19.4668Z" fill="black"/>
<path d="M16.0459 8.59787C16.3062 8.59826 16.518 8.81046 16.5186 9.07053L16.5273 9.22482C16.5452 9.3784 16.5898 9.52952 16.6582 9.66721C16.9885 10.3306 16.9882 11.1199 16.6582 11.7834C16.567 11.967 16.5186 12.1743 16.5186 12.3801V12.9426C16.5183 13.1929 16.3398 13.4011 16.1045 13.4494L16 13.4602C15.7145 13.4599 15.4827 13.2282 15.4824 12.9426V12.3791C15.4825 12.0136 15.5678 11.6481 15.7305 11.3205C15.9154 10.9481 15.9155 10.5014 15.7305 10.1291C15.588 9.84239 15.5048 9.52663 15.4863 9.20724L15.4824 9.07053C15.4826 8.81091 15.6932 8.59798 15.9541 8.59787H16.0459Z" fill="black"/>
<path d="M4.75293 7.24728H3.70703V1.70822H4.75293V7.24728Z" fill="black"/>
<path d="M6.60449 7.24728H5.55957V1.70822H6.60449V7.24728Z" fill="black"/>
</svg>
