<svg width="32" height="32" viewBox="0 0 32 32" fill="none" xmlns="http://www.w3.org/2000/svg">
<g clip-path="url(#clip0_169_233)">
<rect width="32" height="32" fill="white"/>
<path d="M23.562 24.2241C23.843 24.2247 24.0714 24.4529 24.0718 24.7339L24.061 24.8364C24.0137 25.0685 23.8084 25.2441 23.562 25.2446H7.99365C7.74711 25.2446 7.54118 25.069 7.49365 24.8364L7.48291 24.7339C7.4833 24.4522 7.71256 24.2241 7.99365 24.2241H23.562Z" fill="black"/>
<path d="M23.562 21.814C23.843 21.8145 24.0715 22.0426 24.0718 22.3237L24.061 22.4263C24.0137 22.6583 23.8084 22.834 23.562 22.8345H7.99365C7.74718 22.8345 7.54125 22.6588 7.49365 22.4263L7.48291 22.3237C7.48318 22.042 7.71249 21.814 7.99365 21.814H23.562Z" fill="black"/>
<path d="M7.17236 13.5308C7.45324 13.531 7.68274 13.759 7.68311 14.0405L7.67236 14.1431C7.62487 14.3755 7.41869 14.551 7.17236 14.5513H5.53857C5.29203 14.5513 5.0861 14.3757 5.03857 14.1431L5.02783 14.0405C5.0282 13.7588 5.25747 13.5308 5.53857 13.5308H7.17236Z" fill="black"/>
<path d="M28.8169 8.68799C29.0982 8.68821 29.3263 8.91652 29.3267 9.19775L29.3159 9.30029C29.2686 9.53252 29.0635 9.7083 28.8169 9.7085H28.3501C28.1036 9.7085 27.8976 9.53288 27.8501 9.30029L27.8394 9.19775C27.8397 8.91601 28.069 8.68799 28.3501 8.68799H28.8169Z" fill="black"/>
<path d="M28.8169 7.16357C29.0978 7.16384 29.3274 7.39172 29.3276 7.67334L29.3169 7.77588C29.2693 8.00818 29.0631 8.18385 28.8169 8.18408H26.7046C26.4582 8.18408 26.2523 8.00824 26.2046 7.77588L26.1938 7.67334C26.1941 7.39156 26.4234 7.16357 26.7046 7.16357H28.8169Z" fill="black"/>
<path d="M28.8169 5.63818C29.0978 5.63845 29.3273 5.8664 29.3276 6.14795L29.3169 6.25049C29.2694 6.48293 29.0632 6.65846 28.8169 6.65869H26.7046C26.458 6.65869 26.2521 6.48308 26.2046 6.25049L26.1938 6.14795C26.1942 5.86623 26.4235 5.63818 26.7046 5.63818H28.8169Z" fill="black"/>
<path d="M28.8169 4.11377C29.0978 4.11403 29.3274 4.34192 29.3276 4.62354L29.3169 4.72607C29.2693 4.95841 29.0632 5.13405 28.8169 5.13428H26.7046C26.4582 5.13428 26.2523 4.95847 26.2046 4.72607L26.1938 4.62354C26.1941 4.34176 26.4234 4.11377 26.7046 4.11377H28.8169Z" fill="black"/>
<path d="M27.4009 2.58838C27.6816 2.58875 27.9112 2.81661 27.9116 3.09814L27.9009 3.20068C27.8534 3.43311 27.6471 3.60856 27.4009 3.60889H26.7046C26.458 3.60889 26.2521 3.43328 26.2046 3.20068L26.1938 3.09814C26.1942 2.81646 26.4235 2.58838 26.7046 2.58838H27.4009Z" fill="black"/>
<path fill-rule="evenodd" clip-rule="evenodd" d="M30.396 1.04639C30.6774 1.04665 30.9067 1.27563 30.9067 1.55713V10.7339C30.9067 11.0154 30.6774 11.2444 30.396 11.2446H28.3101V15.8013H29.1792C29.4604 15.8013 29.6897 16.0293 29.6899 16.311L29.6792 16.4136C29.6739 16.4392 29.6657 16.4637 29.6567 16.4878H30.644C30.9256 16.4878 31.1546 16.7171 31.1548 16.9985V18.9204C31.1548 19.2021 30.9257 19.4312 30.644 19.4312H29.4751V30.4429C29.4751 30.724 29.2472 30.9534 28.9653 30.9536H3.03564C2.75398 30.9536 2.5249 30.7245 2.5249 30.4429V19.4312H1.35596C1.07429 19.4312 0.845215 19.2021 0.845215 18.9204V16.9985C0.845446 16.7171 1.07443 16.4878 1.35596 16.4878H2.5249V13.3413C2.52494 11.9551 3.64943 10.8306 5.03564 10.8306H5.23096C4.99123 10.4954 4.83249 10.0983 4.78857 9.6665L4.7876 9.65869L4.78857 9.65771L4.77686 9.42529L4.77588 9.41748C4.77588 9.13582 5.00496 8.90674 5.28662 8.90674H5.72412C5.74077 8.90674 5.75735 8.90836 5.77393 8.90869C5.34174 8.39753 5.06892 7.74765 5.03271 7.03467L5.03174 7.03076L5.02783 6.87646V6.87256C5.02783 6.68777 5.04442 6.50712 5.07568 6.33154C4.84258 6.28428 4.6665 6.0784 4.6665 5.83154V4.52686C4.66667 3.1407 5.79117 2.01709 7.17725 2.01709H9.19189C10.578 2.01709 11.7025 3.1407 11.7026 4.52686V5.83154C11.7026 6.0784 11.5266 6.28428 11.2935 6.33154C11.3247 6.50717 11.3433 6.6877 11.3433 6.87256V6.87646L11.3394 7.03076L11.3384 7.03467C11.3022 7.748 11.0268 8.39723 10.5942 8.90869C10.6113 8.90834 10.6289 8.90674 10.646 8.90674H11.0835C11.3649 8.907 11.5942 9.13598 11.5942 9.41748L11.5933 9.42529L11.5815 9.65771L11.5825 9.65869L11.5815 9.6665C11.5376 10.0982 11.3788 10.4954 11.1392 10.8306H11.3345C12.7205 10.8308 13.8442 11.9553 13.8442 13.3413V16.4878H25.8638C25.8548 16.4637 25.8466 16.4392 25.8413 16.4136L25.8306 16.311C25.8308 16.0293 26.0601 15.8013 26.3413 15.8013H27.2896V11.2446H25.1255C24.8438 11.2446 24.6148 11.0155 24.6147 10.7339V1.55713C24.6147 1.27546 24.8438 1.04639 25.1255 1.04639H30.396ZM3.54639 29.9331H28.4546V19.4312H3.54639V29.9331ZM1.8667 18.4097H30.1343V17.5083H13.3442C13.341 17.5084 13.3377 17.5093 13.3345 17.5093H3.03564C3.03238 17.5093 3.02913 17.5084 3.02588 17.5083H1.8667V18.4097ZM5.03564 11.8511C4.21288 11.8511 3.54642 12.5183 3.54639 13.3413V16.4878H12.8237V13.3413C12.8237 12.57 12.2379 11.9355 11.4868 11.8589L11.3345 11.8511H9.18115C9.174 11.8511 9.16684 11.852 9.15967 11.8521H8.72217L8.71729 11.8511H7.65283L7.64795 11.8521H7.21045C7.20328 11.8521 7.19612 11.8511 7.18896 11.8511H5.03564ZM8.61572 9.99658C8.47505 10.0158 8.33198 10.0297 8.18604 10.0298H8.18213L8.02686 10.0259L8.02295 10.0249C7.9321 10.0203 7.84208 10.0097 7.75342 9.99756C7.9189 10.2469 8.03939 10.5282 8.104 10.8306H8.26514C8.32978 10.528 8.45007 10.2461 8.61572 9.99658ZM5.89795 9.93896C6.08481 10.4096 6.51622 10.7547 7.03564 10.8188C6.84843 10.3484 6.41746 10.0027 5.89795 9.93896ZM10.4722 9.93896C9.95269 10.0027 9.52171 10.3485 9.33447 10.8188C9.85371 10.7545 10.2854 10.4095 10.4722 9.93896ZM25.6362 10.2231H29.8853V2.06787H25.6362V10.2231ZM6.11572 6.34229C6.07198 6.51189 6.04834 6.68936 6.04834 6.87256L6.05908 7.09131C6.16897 8.1687 7.07962 9.00928 8.18604 9.00928L8.40479 8.99854C9.48184 8.88852 10.3225 7.97857 10.3228 6.87256L10.3188 6.74268C10.3104 6.60518 10.287 6.47157 10.2534 6.34229H6.11572ZM5.68799 5.3208H10.6821V4.93506H5.68799V5.3208ZM7.17725 3.0376C6.57292 3.0376 6.05361 3.39759 5.81982 3.91455H10.5493C10.3155 3.39767 9.79626 3.0376 9.19189 3.0376H7.17725Z" fill="black"/>
<path d="M23.8003 15.064C24.0815 15.0643 24.3097 15.2925 24.3101 15.5737L24.2993 15.6763C24.252 15.9085 24.0469 16.0842 23.8003 16.0845H19.1382C18.8916 16.0845 18.6857 15.9089 18.6382 15.6763L18.6274 15.5737C18.6278 15.292 18.8571 15.064 19.1382 15.064H23.8003Z" fill="black"/>
<path fill-rule="evenodd" clip-rule="evenodd" d="M21.4692 11.1528C21.7929 11.1531 22.0631 11.37 22.1509 11.6655C23.1468 11.9598 23.8743 12.8802 23.8745 13.9712V14.1587C23.8745 14.4404 23.6454 14.6694 23.3638 14.6694H19.5737C19.2921 14.6694 19.063 14.4404 19.063 14.1587V13.9712C19.0632 12.8806 19.7903 11.9602 20.7856 11.6655C20.8735 11.3696 21.1454 11.1528 21.4692 11.1528ZM21.4692 12.5874C20.816 12.5874 20.2703 13.0394 20.1245 13.6479H22.813C22.6772 13.081 22.1948 12.6495 21.6011 12.5933L21.4692 12.5874Z" fill="black"/>
<path fill-rule="evenodd" clip-rule="evenodd" d="M15.5815 6.55127C15.8629 6.55191 16.0913 6.781 16.0913 7.06201V9.78369C16.0912 10.0646 15.8629 10.2938 15.5815 10.2944H13.8667C13.5851 10.2944 13.3561 10.0652 13.356 9.78369V7.06201C13.356 6.78035 13.585 6.55127 13.8667 6.55127H15.5815ZM14.3774 9.27295H15.0708V7.57178H14.3774V9.27295Z" fill="black"/>
<path fill-rule="evenodd" clip-rule="evenodd" d="M20.4927 6.55127C20.7743 6.55164 21.0024 6.78084 21.0024 7.06201V9.78369C21.0023 10.0648 20.7742 10.2941 20.4927 10.2944H18.7778C18.4962 10.2944 18.2672 10.0652 18.2671 9.78369V7.06201C18.2671 6.78035 18.4962 6.55127 18.7778 6.55127H20.4927ZM19.2886 9.27295H19.9819V7.57178H19.2886V9.27295Z" fill="black"/>
<path d="M22.1929 3.62451C22.401 3.66726 22.5616 3.83736 22.5933 4.04932H23.2046C23.4855 4.04942 23.715 4.27738 23.7153 4.55908L23.7046 4.66162C23.657 4.8942 23.451 5.06973 23.2046 5.06982H22.5825C22.5344 5.25769 22.3841 5.40459 22.1929 5.44385L22.0903 5.45459C21.8522 5.45436 21.6533 5.29027 21.5972 5.06982H20.145V6.01318C20.145 6.25972 19.9694 6.46565 19.7368 6.51318L19.6343 6.52393C19.3525 6.52366 19.1245 6.29434 19.1245 6.01318V5.06982H17.6714C17.6233 5.25769 17.4729 5.40459 17.2817 5.44385L17.1792 5.45459C16.9411 5.45436 16.7422 5.29027 16.686 5.06982H15.2339V6.01318C15.2339 6.25972 15.0583 6.46565 14.8257 6.51318L14.7231 6.52393C14.4414 6.52366 14.2134 6.29434 14.2134 6.01318V5.06982H13.8921C13.6455 5.06982 13.4396 4.89421 13.3921 4.66162L13.3813 4.55908C13.3817 4.27739 13.611 4.04932 13.8921 4.04932H14.2212C14.2578 3.8039 14.4672 3.61401 14.7231 3.61377L14.8257 3.62451C15.034 3.66708 15.1954 3.83723 15.2271 4.04932H16.6763C16.7128 3.80382 16.9231 3.61401 17.1792 3.61377L17.2817 3.62451C17.4899 3.66726 17.6505 3.83736 17.6821 4.04932H19.1323C19.1689 3.8039 19.3783 3.61401 19.6343 3.61377L19.7368 3.62451C19.9451 3.66708 20.1065 3.83723 20.1382 4.04932H21.5874C21.6239 3.80382 21.8343 3.61401 22.0903 3.61377L22.1929 3.62451Z" fill="black"/>
</g>
<defs>
<clipPath id="clip0_169_233">
<rect width="32" height="32" fill="white"/>
</clipPath>
</defs>
</svg>
