<svg width="32" height="32" viewBox="0 0 32 32" fill="none" xmlns="http://www.w3.org/2000/svg">
<g clip-path="url(#clip0_169_268)">
<rect width="32" height="32" fill="white"/>
<path d="M7.65137 25.9434C7.93245 25.9434 8.16172 26.1715 8.16211 26.4531L8.15137 26.5557C8.10384 26.7883 7.89791 26.9639 7.65137 26.9639H4.51562C4.26908 26.9639 4.06315 26.7883 4.01562 26.5557L4.00488 26.4531C4.00528 26.1715 4.23454 25.9434 4.51562 25.9434H7.65137Z" fill="black"/>
<path d="M17.4355 23.1523C17.6806 23.1526 17.8923 23.3281 17.9375 23.5693C17.9823 23.81 17.8492 24.0496 17.6211 24.1387L17.2227 24.292L17.6006 24.3242C17.8437 24.3449 18.0394 24.5353 18.0654 24.7783C18.0875 24.9884 17.977 25.1863 17.7959 25.2822C17.9567 25.3682 18.0684 25.5355 18.0684 25.7305C18.0679 26.0119 17.8385 26.24 17.5576 26.2402H14.5938C14.3416 26.2402 14.1264 26.0555 14.0889 25.8057C14.0518 25.5556 14.2039 25.3156 14.4453 25.2422L14.8682 25.1133C14.6627 25.0685 14.5024 24.9019 14.4717 24.6895C14.4414 24.479 14.5453 24.2759 14.7256 24.1738H14.5938C14.3121 24.1738 14.0831 23.9447 14.083 23.6631C14.083 23.3814 14.3121 23.1523 14.5938 23.1523H17.4355Z" fill="black"/>
<path fill-rule="evenodd" clip-rule="evenodd" d="M18.834 21.7607C19.1154 21.7614 19.3437 21.9905 19.3438 22.2715V27.1211C19.3438 27.4021 19.1154 27.6312 18.834 27.6318H13.168C12.8863 27.6318 12.6572 27.4028 12.6572 27.1211V22.2715C12.6573 21.9899 12.8863 21.7607 13.168 21.7607H18.834ZM13.6787 26.6113H18.3232V22.7822H13.6787V26.6113Z" fill="black"/>
<path d="M14.8896 19.8184C15.1065 19.6394 15.4288 19.6687 15.6084 19.8857L15.665 19.9717C15.7764 20.1811 15.7298 20.4475 15.54 20.6045L14.8926 21.1387C14.7025 21.2956 14.4318 21.2917 14.2471 21.1426L14.1738 21.0703C13.9946 20.8528 14.0263 20.5306 14.2432 20.3516L14.8896 19.8184Z" fill="black"/>
<path d="M13.2188 19.9297C13.4999 19.9297 13.7292 20.1577 13.7295 20.4395L13.7188 20.542C13.6711 20.7744 13.4652 20.9502 13.2188 20.9502H12.3799C12.1334 20.9502 11.9275 20.7744 11.8799 20.542L11.8691 20.4395C11.8694 20.1577 12.0987 19.9297 12.3799 19.9297H13.2188Z" fill="black"/>
<path d="M17.5039 19.9297C17.7851 19.9297 18.0144 20.1577 18.0146 20.4395L18.0039 20.542C17.9563 20.7744 17.7503 20.9502 17.5039 20.9502H16.665C16.4186 20.9502 16.2127 20.7744 16.165 20.542L16.1543 20.4395C16.1546 20.1577 16.3839 19.9297 16.665 19.9297H17.5039Z" fill="black"/>
<path d="M19.6465 19.9297C19.9276 19.9297 20.157 20.1577 20.1572 20.4395L20.1465 20.542C20.0988 20.7744 19.8929 20.9502 19.6465 20.9502H18.8076C18.5612 20.9502 18.3553 20.7744 18.3076 20.542L18.2969 20.4395C18.2971 20.1577 18.5265 19.9297 18.8076 19.9297H19.6465Z" fill="black"/>
<path d="M23.0498 22.6289C23.2824 22.6765 23.458 22.8824 23.458 23.1289V26.2646C23.4578 26.511 23.2823 26.7171 23.0498 26.7646L22.9473 26.7754C22.6656 26.7751 22.4377 26.5457 22.4375 26.2646V23.1289C22.4375 22.8477 22.6655 22.6184 22.9473 22.6182L23.0498 22.6289Z" fill="black"/>
<path d="M7.65137 19.9297C7.93253 19.9297 8.16184 20.1577 8.16211 20.4395L8.15137 20.542C8.10373 20.7744 7.89781 20.9502 7.65137 20.9502H4.51562C4.26918 20.9502 4.06326 20.7744 4.01562 20.542L4.00488 20.4395C4.00515 20.1577 4.23446 19.9297 4.51562 19.9297H7.65137Z" fill="black"/>
<path fill-rule="evenodd" clip-rule="evenodd" d="M5.2334 12.1748C6.04382 12.2158 6.77253 12.561 7.31348 13.0957L7.4082 13.127L7.39941 13.1816C7.93527 13.7529 8.26459 14.5203 8.26465 15.3652L8.25977 15.5293C8.19993 16.712 7.49556 17.7221 6.49219 18.2227H13.7285V17.6807C13.729 17.399 13.9582 17.1709 14.2393 17.1709H17.7617C18.0427 17.1713 18.271 17.3995 18.2715 17.6807V18.2227H30.6123C30.8938 18.223 31.1218 18.4524 31.1221 18.7334V30.6582C31.1221 30.9394 30.8939 31.1686 30.6123 31.1689H1.38867C1.10701 31.1689 0.87793 30.9399 0.87793 30.6582V18.7334C0.878161 18.4519 1.10715 18.2227 1.38867 18.2227H3.64355C2.64158 17.7214 1.9387 16.711 1.87891 15.5293L1.87402 15.3652C1.87415 13.601 3.30509 12.17 5.06934 12.1699L5.2334 12.1748ZM1.89941 30.1484H10.2676V25.2588H1.89941V30.1484ZM11.2891 30.1484H20.7119V19.2441H11.2891V30.1484ZM21.7324 30.1484H30.1016V19.2441H21.7324V30.1484ZM1.89941 24.2383H10.2676V19.2441H1.89941V24.2383ZM14.75 18.2227H17.251V18.1914H14.75V18.2227ZM6.93066 14.4668C6.72774 14.6735 6.47694 14.8027 6.2627 14.9043C5.817 15.1156 5.36474 15.2841 4.86719 15.7549C4.63667 15.9731 4.51599 16.169 4.45605 16.334C4.3967 16.4979 4.39432 16.6409 4.41016 16.7598C4.44746 17.0381 4.55713 17.2809 4.76758 17.5166C4.86631 17.5303 4.96681 17.54 5.06934 17.54C6.27043 17.54 7.24414 16.5663 7.24414 15.3652C7.24411 15.0108 7.15724 14.6774 7.00684 14.3818C6.98255 14.4109 6.95746 14.4395 6.93066 14.4668ZM5.06934 13.1914C3.86841 13.1915 2.89563 14.1643 2.89551 15.3652C2.89551 15.8878 3.07976 16.3672 3.38672 16.7422C3.35799 16.2125 3.54219 15.6041 4.16602 15.0137C4.79299 14.4203 5.24227 14.101 5.65918 13.9033C5.75731 13.8567 5.81856 13.8007 5.85938 13.7422C5.90084 13.6825 5.9273 13.6112 5.94336 13.5273C5.95205 13.4818 5.95691 13.4341 5.96094 13.3838C5.68867 13.2612 5.38734 13.1914 5.06934 13.1914Z" fill="black"/>
<path fill-rule="evenodd" clip-rule="evenodd" d="M18.5322 13.8594C18.541 13.8589 18.5497 13.8574 18.5586 13.8574H21.2871C21.5683 13.8574 21.7976 14.0854 21.7979 14.3672L21.7871 14.4697C21.7396 14.7023 21.5337 14.8779 21.2871 14.8779H19.3359C19.2611 15.8955 18.4135 16.699 17.377 16.6992H13.8496C12.764 16.6991 11.8831 15.818 11.8828 14.7324C11.8828 14.2497 12.2751 13.8574 12.7578 13.8574H18.4697C18.4907 13.8574 18.5116 13.8579 18.5322 13.8594ZM12.916 14.8789C12.9867 15.3315 13.3772 15.6776 13.8496 15.6777H17.377C17.8494 15.6775 18.2408 15.3313 18.3115 14.8789H12.916Z" fill="black"/>
<path fill-rule="evenodd" clip-rule="evenodd" d="M17.7617 0.863281C18.0433 0.863655 18.2714 1.09289 18.2715 1.37402V8.375L21.0537 10.3252C21.2357 10.4529 21.3148 10.6845 21.248 10.8965C21.1812 11.108 20.984 11.2535 20.7617 11.2539H11.2393C11.0169 11.2539 10.82 11.1085 10.7529 10.8965C10.6861 10.6843 10.7644 10.4529 10.9463 10.3252L13.7285 8.375V1.37402C13.7286 1.09239 13.9576 0.863281 14.2393 0.863281H17.7617ZM12.8574 10.2324H19.1436L17.6016 9.15137H14.3994L12.8574 10.2324ZM14.75 8.12988H17.251V1.88477H14.75V8.12988Z" fill="black"/>
<path d="M7.65137 6.43945C7.93249 6.43945 8.16177 6.6675 8.16211 6.94922L8.15137 7.05176C8.10384 7.28435 7.89791 7.45996 7.65137 7.45996H4.51562C4.26908 7.45996 4.06315 7.28435 4.01562 7.05176L4.00488 6.94922C4.00522 6.6675 4.23451 6.43945 4.51562 6.43945H7.65137Z" fill="black"/>
<path fill-rule="evenodd" clip-rule="evenodd" d="M10.7783 0.863281C11.06 0.863281 11.289 1.09239 11.2891 1.37402V8.64062C11.2889 8.92251 11.0595 9.15039 10.7783 9.15039H1.38867C1.10752 9.15039 0.878128 8.92251 0.87793 8.64062V1.37402C0.877971 1.09239 1.10703 0.863281 1.38867 0.863281H10.7783ZM1.89941 8.12988H10.2676V1.88477H1.89941V8.12988Z" fill="black"/>
<path d="M25.874 7.05762C26.1552 7.05762 26.3845 7.2856 26.3848 7.56738L26.374 7.66992C26.3264 7.90233 26.1204 8.07812 25.874 8.07812H22.3994C22.153 8.07812 21.9471 7.90233 21.8994 7.66992L21.8887 7.56738C21.8889 7.2856 22.1183 7.05762 22.3994 7.05762H25.874Z" fill="black"/>
<path d="M25.3252 5.90137C25.6061 5.90163 25.8357 6.12952 25.8359 6.41113L25.8252 6.51367C25.7776 6.74603 25.5715 6.92164 25.3252 6.92188H22.9492C22.7028 6.92188 22.4969 6.74609 22.4492 6.51367L22.4385 6.41113C22.4387 6.12935 22.6681 5.90137 22.9492 5.90137H25.3252Z" fill="black"/>
<path fill-rule="evenodd" clip-rule="evenodd" d="M30.627 0.863281C30.9084 0.863546 31.1377 1.09256 31.1377 1.37402V8.64062C31.1375 8.92235 30.9079 9.15013 30.627 9.15039H21.2373C20.9562 9.15039 20.7268 8.92251 20.7266 8.64062V1.37402C20.7266 1.09239 20.9557 0.863281 21.2373 0.863281H30.627ZM21.748 8.12988H28.3096C27.5617 8.05055 26.9787 7.41836 26.9785 6.64941V5.23926C26.9786 4.95767 27.2076 4.72852 27.4893 4.72852H29.4482C29.7296 4.72878 29.9589 4.95783 29.959 5.23926V6.64941C29.9588 7.41809 29.3754 8.05028 28.6279 8.12988H30.1162V4.35156H21.748V8.12988ZM28 6.64941L28.0088 6.74414C28.0527 6.95792 28.242 7.11807 28.4688 7.11816C28.728 7.1179 28.9383 6.9083 28.9385 6.64941V5.75H28V6.64941ZM21.748 3.33105H30.1162V1.88477H21.748V3.33105Z" fill="black"/>
</g>
<defs>
<clipPath id="clip0_169_268">
<rect width="32" height="32" fill="white"/>
</clipPath>
</defs>
</svg>
