<svg width="32" height="32" viewBox="0 0 32 32" fill="none" xmlns="http://www.w3.org/2000/svg">
<g clip-path="url(#clip0_416_123)">
<path d="M31.2148 30.6904C31.496 30.6904 31.7253 30.9184 31.7256 31.2002L31.7148 31.3027C31.6673 31.5352 31.4614 31.7109 31.2148 31.7109H0.786133C0.539571 31.7109 0.333706 31.5352 0.286133 31.3027L0.275391 31.2002C0.27566 30.9184 0.504972 30.6904 0.786133 30.6904H31.2148Z" fill="black"/>
<path fill-rule="evenodd" clip-rule="evenodd" d="M27.1074 24.9082C27.3434 24.8973 27.5635 25.0523 27.625 25.29L28.0869 27.0996L28.1299 27.0898L28.3213 27.0508C29.2788 26.9067 30.2097 27.5084 30.4551 28.4668C30.5887 28.9894 30.2726 29.5225 29.75 29.6562L26.1084 30.5879C25.8361 30.6571 25.5572 30.4926 25.4873 30.2197L24.4346 26.1064C24.4267 26.0753 24.4229 26.0437 24.4209 26.0127L24.1396 30.0713C24.1197 30.3521 23.8753 30.5627 23.5957 30.5439L19.8447 30.2832C19.3069 30.2455 18.9002 29.7784 18.9375 29.2402C19.0111 28.1877 19.9253 27.3947 20.9775 27.4678L21.0195 27.4697L21.1494 25.6055L21.167 25.5039C21.2311 25.2762 21.4486 25.1173 21.6934 25.1338L23.9609 25.291C24.2409 25.3111 24.4523 25.554 24.4336 25.834L24.4297 25.8828C24.4667 25.696 24.6065 25.5369 24.8027 25.4863L27.0049 24.9229L27.1074 24.9082ZM22.0283 27.6699C22.0288 27.6767 22.0317 27.6836 22.0312 27.6904L21.9814 28.4092C21.9786 28.4487 21.9606 28.4857 21.9307 28.5117C21.9007 28.5378 21.861 28.5506 21.8213 28.5479L20.9062 28.4844C20.43 28.4516 20.0153 28.7997 19.96 29.2686L23.1562 29.4902L23.3809 26.2725L22.1318 26.1855L22.0283 27.6699ZM25.5488 26.3477L26.3496 29.4717L29.4541 28.6777C29.3149 28.2269 28.8443 27.9599 28.3818 28.0781L27.4932 28.3057C27.4547 28.3155 27.414 28.3092 27.3799 28.2891C27.3457 28.2688 27.3204 28.2358 27.3105 28.1973L27.1318 27.499C27.1301 27.4923 27.1306 27.4853 27.1299 27.4785L26.7617 26.0381L25.5488 26.3477Z" fill="black"/>
<path fill-rule="evenodd" clip-rule="evenodd" d="M6.37598 26.4443C6.61409 26.3083 6.93428 26.374 7.09766 26.5957C7.26863 26.8283 7.20113 27.1402 6.95117 27.2832L6.69043 27.4316L7.93164 28.1406C8.15054 28.2657 8.22885 28.5199 8.13086 28.7373L8.07812 28.8281C8.06215 28.8498 8.04317 28.869 8.02441 28.8877C8.29681 29.0424 8.48145 29.3343 8.48145 29.6699C8.48127 30.1668 8.07807 30.5703 7.58105 30.5703H3.87793C3.38091 30.5703 2.97772 30.1668 2.97754 29.6699C2.97754 29.3635 3.13132 29.0932 3.36523 28.9307C3.35368 28.9217 3.34091 28.9142 3.33008 28.9043L3.26172 28.8281C3.09113 28.5957 3.15796 28.2837 3.4082 28.1406L4.64746 27.4307L4.38867 27.2832C4.13872 27.1402 4.07121 26.8283 4.24219 26.5957C4.40556 26.374 4.72576 26.3083 4.96387 26.4443L5.66992 26.8467L6.37598 26.4443ZM4.35156 28.7695H6.98828L5.66992 28.0146L4.35156 28.7695Z" fill="black"/>
<path fill-rule="evenodd" clip-rule="evenodd" d="M13.3027 26.4443C13.541 26.3082 13.8602 26.3745 14.0234 26.5957C14.194 26.8277 14.128 27.1398 13.8779 27.2832L13.6172 27.4316L14.8584 28.1406C15.0769 28.2657 15.1556 28.5199 15.0576 28.7373L15.0049 28.8281C14.9889 28.8498 14.9699 28.869 14.9512 28.8877C15.2235 29.0424 15.4082 29.3343 15.4082 29.6699C15.408 30.1667 15.0044 30.57 14.5078 30.5703H10.8047C10.3077 30.5703 9.90447 30.1668 9.9043 29.6699C9.9043 29.3638 10.0575 29.0932 10.291 28.9307C10.2795 28.9217 10.2667 28.9142 10.2559 28.9043L10.1875 28.8281C10.0169 28.5957 10.0842 28.2837 10.334 28.1406L11.5732 27.4307L11.3145 27.2832C11.0644 27.1398 10.9984 26.8277 11.1689 26.5957C11.3322 26.3745 11.6514 26.3082 11.8896 26.4443L12.5957 26.8467L13.3027 26.4443ZM11.2773 28.7695H13.9141L12.5957 28.0146L11.2773 28.7695Z" fill="black"/>
<path d="M31.2148 23.8613C31.496 23.8613 31.7253 24.0893 31.7256 24.3711L31.7148 24.4736C31.6673 24.7062 31.4614 24.8818 31.2148 24.8818H0.786133C0.539583 24.8818 0.333668 24.7062 0.286133 24.4736L0.275391 24.3711C0.27566 24.0893 0.504972 23.8613 0.786133 23.8613H31.2148Z" fill="black"/>
<path fill-rule="evenodd" clip-rule="evenodd" d="M2.91309 5.40137C3.3269 5.40163 3.66272 5.73767 3.66309 6.15137V6.87012C4.38999 7.17038 4.90331 7.88467 4.90332 8.7207V10.5752H5.55566C5.80301 10.5754 6.03928 10.6819 6.2041 10.8662C6.36868 11.0506 6.44728 11.2964 6.41992 11.542L5.35254 21.0654C5.3199 21.3566 5.14465 21.5994 4.90332 21.7314V22.4941C4.90307 22.7403 4.72767 22.9466 4.49512 22.9941L4.39258 23.0049C4.11096 23.0048 3.88212 22.7754 3.88184 22.4941V21.7314C3.64045 21.5993 3.46621 21.3564 3.43359 21.0654L2.36523 11.542C2.33786 11.2963 2.41748 11.0505 2.58203 10.8662C2.74699 10.682 2.98296 10.5752 3.23047 10.5752H3.88184V8.7207C3.88183 8.48696 3.79957 8.2732 3.66309 8.10449V8.5332C3.66282 8.94703 3.32692 9.28294 2.91309 9.2832C2.49923 9.2832 2.16237 8.94739 2.16211 8.5332V8.07422C2.00988 8.2471 1.917 8.47255 1.91699 8.7207V9.99414C1.91681 10.2755 1.68793 10.5049 1.40625 10.5049C1.12457 10.5049 0.895695 10.2755 0.895508 9.99414V8.7207C0.895522 7.87457 1.42098 7.15211 2.16211 6.8584V6.15137C2.16248 5.73732 2.49924 5.40137 2.91309 5.40137ZM4.90332 15.9111L5.3877 11.5957H4.90332V15.9111ZM3.88184 15.9062V11.5957H3.39844L3.88184 15.9062Z" fill="black"/>
<path fill-rule="evenodd" clip-rule="evenodd" d="M24.1104 5.40137C24.5237 5.40196 24.86 5.73772 24.8604 6.15137V7.46387C25.0579 7.55719 25.2548 7.68498 25.4443 7.85742C25.9806 8.34588 26.3517 9.03167 26.5977 9.65039C26.837 10.2526 26.9756 10.8393 27.0352 11.2227L27.6709 13.9453L27.6729 13.9561L27.6768 13.9795L27.7344 14.4268C27.8325 15.4413 27.6772 16.2525 27.4785 16.8506C27.3656 17.1903 27.2398 17.458 27.1455 17.6465C27.0939 17.7495 27.0662 17.8026 27.04 17.8564C27.0364 17.8639 27.0326 17.8703 27.0303 17.875C27.0257 17.8936 27.0183 17.9152 27.0088 17.9395L27.4648 19.5029C27.6056 19.9864 27.7039 20.6768 27.2969 21.2539C27.0466 21.6086 26.6573 21.9819 26.0898 22.2539C25.5447 22.5148 24.8788 22.4798 24.3164 22.373C23.3735 22.1939 22.7425 21.5298 22.4248 20.7363C22.271 20.7987 22.1037 20.8339 21.9307 20.834C21.7492 20.834 21.4024 20.7959 21.1729 20.4951C20.9206 20.1642 20.7175 19.5791 20.6055 18.7051C20.4911 17.8121 20.4644 16.5571 20.6172 14.833C20.9396 11.196 21.8004 9.01242 22.3389 8.14746C22.4445 7.97792 22.5849 7.81194 22.7705 7.67969C22.9286 7.56713 23.1287 7.45884 23.3594 7.38086V6.15137C23.3597 5.73732 23.6965 5.40137 24.1104 5.40137ZM23.3594 8.51172C23.3062 8.55023 23.2535 8.60721 23.2041 8.68652C22.7767 9.373 21.9463 11.3869 21.6328 14.9238C21.4844 16.5985 21.5139 17.775 21.6162 18.5742C21.7059 19.274 21.8507 19.6443 21.9453 19.8096C22.0654 19.8041 22.1516 19.7368 22.1875 19.6494C22.1815 19.5463 22.1782 19.4419 22.1816 19.3379L22.3857 13.1914C22.395 12.9133 22.6268 12.6926 22.9053 12.6973C23.1834 12.7024 23.4062 12.9302 23.4062 13.208L23.4033 14.3955C23.3948 15.9131 23.3603 18.2345 23.2227 19.6797C23.221 19.6972 23.2173 19.716 23.2148 19.7314C23.3046 20.5746 23.8012 21.2369 24.5068 21.3711C25.008 21.4662 25.4059 21.4502 25.6504 21.333C26.0481 21.1422 26.3041 20.8887 26.4619 20.665C26.5897 20.4837 26.6054 20.1951 26.4873 19.7891L24.6123 13.3506C24.5374 13.0932 24.6742 12.8219 24.9258 12.7295C25.1778 12.6375 25.4586 12.7565 25.5674 13.002C25.8015 13.5305 26.1715 14.749 26.4717 15.7676C26.5169 15.921 26.56 16.0698 26.6016 16.2119C26.7327 15.692 26.8076 15.009 26.6719 14.1611L26.041 11.4551L26.0342 11.4121C25.9895 11.1048 25.8669 10.5746 25.6494 10.0273C25.4462 9.51615 25.1745 9.0326 24.8408 8.69434C24.7668 9.03049 24.4684 9.28269 24.1104 9.2832C23.6965 9.2832 23.3596 8.94739 23.3594 8.5332V8.51172Z" fill="black"/>
<path d="M11.7197 9.17285L13.5381 9.46094C13.7489 9.49461 13.9164 9.65624 13.958 9.86523C13.9996 10.0747 13.906 10.2879 13.7236 10.3994L12.1133 11.3828L14.1191 11.5684C14.3394 11.5886 14.5232 11.7486 14.5713 11.9658C14.6192 12.1828 14.5203 12.4053 14.3291 12.5166L12.1758 13.7676L14.7852 14.0039C15.0154 14.0248 15.2022 14.1982 15.2412 14.4258C15.2801 14.6538 15.1615 14.8795 14.9512 14.9756L12.3281 16.1719L13.8379 16.3887C14.0435 16.4182 14.2097 16.5699 14.2598 16.7705C14.3098 16.9715 14.2337 17.1832 14.0664 17.3057L12.1045 18.7402C11.9057 18.8853 11.6365 18.8654 11.4609 18.7061L11.3916 18.6299C11.2256 18.4026 11.2752 18.0832 11.502 17.917L12.4521 17.2197L10.4639 16.9365C10.2405 16.9043 10.0637 16.7291 10.0312 16.5049C9.99893 16.2806 10.1188 16.0618 10.3242 15.9678L12.7773 14.8457L10.4902 14.6396C10.2698 14.6195 10.0863 14.459 10.0381 14.2422C9.99016 14.0254 10.0888 13.8019 10.2803 13.6904L12.4336 12.4365L10.4893 12.2588C10.2712 12.2384 10.089 12.0811 10.0391 11.8672C9.98925 11.6529 10.0834 11.431 10.2705 11.3164L12.0098 10.251L11.5596 10.1807C11.2818 10.1362 11.0918 9.87448 11.1357 9.59668C11.1801 9.31853 11.4422 9.1291 11.7197 9.17285Z" fill="black"/>
<path fill-rule="evenodd" clip-rule="evenodd" d="M12.4844 6.37598C13.7849 6.37598 14.9357 7.2685 15.7529 8.65332C16.5722 10.0417 17.0742 11.9503 17.0742 14.0498V14.0518L17.0684 14.4385V14.4414C17.0082 16.4501 16.4877 18.2609 15.6748 19.5742C14.8636 20.8848 13.7442 21.7227 12.4844 21.7227C11.2246 21.7227 10.1052 20.8848 9.29395 19.5742C8.48107 18.2609 7.96054 16.4501 7.90039 14.4414V14.4385L7.89453 14.0518V14.0498C7.89453 11.9503 8.39659 10.0417 9.21582 8.65332C10.033 7.2685 11.1839 6.37598 12.4844 6.37598ZM12.4844 7.39648C11.6909 7.39648 10.8165 7.94709 10.0938 9.17188C9.3824 10.3775 8.91504 12.1006 8.91504 14.0498L8.91992 14.4121C8.97395 16.2118 9.42689 17.7965 10.0938 18.9268C10.8165 20.1515 11.6909 20.7021 12.4844 20.7021C13.2778 20.7021 14.1522 20.1515 14.875 18.9268C15.5863 17.7212 16.0536 15.9987 16.0537 14.0498L16.0488 13.6875C15.9949 11.8875 15.5419 10.3022 14.875 9.17188C14.1522 7.94709 13.2778 7.39648 12.4844 7.39648Z" fill="black"/>
<path d="M19.418 5.40137C19.8313 5.40196 20.1676 5.73772 20.168 6.15137V8.5332C20.1677 8.94699 19.8314 9.28261 19.418 9.2832C19.0041 9.2832 18.6673 8.94739 18.667 8.5332V6.15137C18.6674 5.73732 19.0041 5.40137 19.418 5.40137Z" fill="black"/>
<path d="M28.8027 5.40137C29.2161 5.40196 29.5524 5.73772 29.5527 6.15137V8.5332C29.5525 8.94699 29.2161 9.28261 28.8027 9.2832C28.3889 9.2832 28.052 8.94739 28.0518 8.5332V6.15137C28.0521 5.73732 28.3889 5.40137 28.8027 5.40137Z" fill="black"/>
<path d="M31.2148 3.36523C31.496 3.36523 31.7252 3.59335 31.7256 3.875L31.7148 3.97754C31.6673 4.21013 31.4614 4.38574 31.2148 4.38574H0.786133C0.539586 4.38574 0.333658 4.21013 0.286133 3.97754L0.275391 3.875C0.275742 3.59335 0.504964 3.36523 0.786133 3.36523H31.2148Z" fill="black"/>
<path fill-rule="evenodd" clip-rule="evenodd" d="M8.33594 0.318359C9.54857 0.318607 10.5498 1.18704 10.7871 2.3252H11.499C11.7796 2.32557 12.0093 2.5534 12.0098 2.83496L11.999 2.9375C11.9514 3.17004 11.7451 3.34538 11.499 3.3457H10.3604C10.3523 3.34705 10.3444 3.35059 10.3359 3.35059H5.60449C5.58449 3.35059 5.56569 3.34765 5.5498 3.3457H4.44141C4.19486 3.3457 3.98893 3.17009 3.94141 2.9375L3.93066 2.83496C3.9311 2.55344 4.16023 2.3252 4.44141 2.3252H5.15234C5.38955 1.18672 6.39156 0.318359 7.60449 0.318359H8.33594ZM7.60449 1.33984C6.96494 1.33984 6.41685 1.7508 6.20703 2.3252H9.7334C9.5381 1.79052 9.04947 1.39754 8.4668 1.3457L8.33594 1.33984H7.60449Z" fill="black"/>
<path fill-rule="evenodd" clip-rule="evenodd" d="M24.3047 0.318359C25.1414 0.31884 25.8203 0.998193 25.8203 1.83496C25.8201 2.67159 25.1412 3.35011 24.3047 3.35059H16.7461C15.9092 3.35059 15.2298 2.67191 15.2295 1.83496C15.2295 0.997872 15.909 0.318359 16.7461 0.318359H24.3047ZM16.7461 1.33984C16.4723 1.33984 16.251 1.5612 16.251 1.83496L16.2607 1.93457C16.307 2.1605 16.5067 2.33008 16.7461 2.33008H24.3047L24.4043 2.32031C24.63 2.27388 24.7996 2.07405 24.7998 1.83496L24.79 1.73535C24.7504 1.54192 24.598 1.38938 24.4043 1.34961L24.3047 1.33984H16.7461Z" fill="black"/>
</g>
<defs>
<clipPath id="clip0_416_123">
<rect width="32" height="32" fill="white"/>
</clipPath>
</defs>
</svg>
