<svg width="32" height="32" viewBox="0 0 32 32" fill="none" xmlns="http://www.w3.org/2000/svg">
<g clip-path="url(#clip0_169_455)">
<rect width="32" height="32" fill="white"/>
<path fill-rule="evenodd" clip-rule="evenodd" d="M17.7432 2.13184C17.9065 2.13194 18.0567 2.21011 18.1514 2.33496L18.1885 2.3916L18.1943 2.40137L18.1934 2.40234L18.2041 2.42578L18.2119 2.43359L18.2227 2.46387L18.4619 3.10254L18.7021 2.46484L18.7129 2.43457L18.7197 2.42676C18.803 2.24968 18.9806 2.13198 19.1807 2.13184H21.3359C21.5033 2.13207 21.6614 2.21536 21.7568 2.35352C21.839 2.47277 21.8675 2.6226 21.833 2.76465L21.8145 2.82422L21.1289 4.65039V8.87012C21.1288 9.00893 21.0724 9.13433 20.9824 9.22656H23.8213C24.1032 9.22675 24.3311 9.45615 24.3311 9.7373V29.6738C24.331 29.8633 24.2261 30.0272 24.0723 30.1152H27.6455C27.4614 30.0605 27.3169 29.9033 27.2891 29.7002L25.4277 16.1338C25.3522 16.1021 25.2799 16.0704 25.2119 16.0381L25.0166 15.9404C24.7686 15.8071 24.6756 15.497 24.8086 15.249L24.8662 15.1641C24.9668 15.0434 25.1168 14.9783 25.2695 14.9814L23.6553 3.20312C23.6171 2.92459 23.8121 2.66361 24.0908 2.62207L25.4658 2.41895C25.6628 2.38975 25.8472 2.47905 25.9531 2.63184L26.8779 2.49609C27.1564 2.45504 27.4139 2.64881 27.4521 2.92773L29.0566 14.6289C29.1066 14.6406 29.1567 14.6578 29.2031 14.6855C29.4442 14.8302 29.523 15.1434 29.3789 15.3848C29.3222 15.4794 29.2592 15.5657 29.1953 15.6465L31.0889 29.4453C31.1269 29.7241 30.9317 29.9849 30.6533 30.0264L30.0518 30.1152H30.6455C30.9266 30.1152 31.1559 30.3433 31.1562 30.625L31.1455 30.7275C31.098 30.9601 30.8921 31.1357 30.6455 31.1357H1.35449C1.10795 31.1357 0.902017 30.9601 0.854492 30.7275L0.84375 30.625C0.844081 30.3535 1.05715 30.1339 1.32422 30.1182C1.16089 30.0279 1.05263 29.8525 1.06055 29.6533L1.85156 9.85449C1.90552 8.50882 3.01151 7.44375 4.3584 7.44336H5.81055C7.15752 7.44365 8.26441 8.50875 8.31836 9.85449L9.10938 29.6533C9.11721 29.8507 9.01046 30.0242 8.84961 30.1152H11.7305C11.5763 30.0273 11.4708 29.8637 11.4707 29.6738V9.7373C11.4707 9.45564 11.6998 9.22656 11.9814 9.22656H14.5049C14.4151 9.13433 14.3594 9.00892 14.3594 8.87012V4.65039L13.6738 2.82324C13.6159 2.66795 13.6359 2.49193 13.7314 2.35352C13.8269 2.21539 13.984 2.13202 14.1514 2.13184H17.7432ZM2.0791 29.6934C2.07182 29.8755 1.96891 30.0309 1.82129 30.1152H8.34766C8.20037 30.0308 8.09809 29.8754 8.09082 29.6934L7.90625 25.0908H2.26367L2.0791 29.6934ZM12.4922 29.6738C12.4921 29.8637 12.3866 30.0273 12.2324 30.1152H14.0996C13.4252 29.9639 12.9202 29.3623 12.9199 28.6426V25.4785C12.92 25.0992 13.0621 24.7532 13.293 24.4883V23.1143C13.2933 22.8332 13.522 22.6035 13.8037 22.6035H15.1348C15.2699 22.6035 15.4006 22.6577 15.4961 22.7529C15.5918 22.8486 15.6453 22.9796 15.6455 23.1143V24.1035C16.6362 24.439 17.3505 25.374 17.3506 26.4785V28.6426C17.3503 29.3621 16.8461 29.9638 16.1719 30.1152H19.0674C18.8779 30.0536 18.7359 29.8874 18.7119 29.6836L18.2441 26.9922C18.0086 26.944 17.8305 26.7355 17.8301 26.4854C17.8301 26.1993 18.0626 25.9668 18.3486 25.9668H22.4141C22.7 25.9671 22.9326 26.1993 22.9326 26.4854C22.9324 26.7353 22.7543 26.9436 22.5186 26.9922L22.0547 29.6484L22.0508 29.6816C22.0277 29.8883 21.8832 30.0538 21.6943 30.1152H23.5703C23.4161 30.0273 23.3106 29.8637 23.3105 29.6738V21.9521H18.4463C18.5655 22.027 18.7073 22.1007 18.877 22.168C19.7386 22.5096 20.3593 22.5742 20.8447 22.666C21.0635 22.7074 21.3502 22.7686 21.5723 22.9395C21.8492 23.1526 21.9414 23.4564 21.9414 23.7666C21.941 24.0483 21.7117 24.2754 21.4307 24.2754C21.1497 24.275 20.9222 24.0478 20.9219 23.7666C20.9219 23.754 20.9195 23.7431 20.9189 23.7344C20.9113 23.7315 20.9019 23.7273 20.8906 23.7236C20.843 23.7083 20.7692 23.6895 20.6553 23.668C20.2291 23.5873 19.4784 23.5038 18.501 23.1162C17.7617 22.823 17.3055 22.4033 17.0518 21.9521H12.4922V29.6738ZM27.9756 30.1152H28.8799C28.8394 30.0811 28.8037 30.0417 28.7754 29.9961L27.9756 30.1152ZM28.2598 16.3398C28.143 16.3858 28.0246 16.4234 27.9043 16.4512L29.6465 29.1416L30.0088 29.0889L28.2598 16.3398ZM14.4307 24.9893C14.1602 24.9894 13.9415 25.2081 13.9414 25.4785V28.6426L13.9512 28.7412C13.997 28.9642 14.1942 29.1317 14.4307 29.1318H15.8408L15.9395 29.1221C16.1305 29.0828 16.281 28.9323 16.3203 28.7412L16.3301 28.6426V26.4785C16.33 25.7073 15.7442 25.0736 14.9932 24.9971L14.8408 24.9893H14.4307ZM19.6709 29.1055H21.0918L21.4678 27.0039H19.2949L19.6709 29.1055ZM28.2295 29.0459L28.5928 28.9912L26.8799 16.5088C26.7527 16.497 26.6267 16.4797 26.5029 16.457L28.2295 29.0459ZM14.3145 23.9746C14.353 23.9718 14.3917 23.9688 14.4307 23.9688H14.625V23.625H14.3145V23.9746ZM2.33496 23.29H7.83496L7.70801 20.123H2.46191L2.33496 23.29ZM12.4922 20.9316H13.1855C13.1785 20.9143 13.1702 20.8973 13.165 20.8789L12.4922 18.4941V20.9316ZM12.4922 16.6475C12.4951 16.6466 12.498 16.6454 12.501 16.6445L14.4609 16.0918C14.7317 16.0158 15.0133 16.1736 15.0898 16.4443L16.1064 20.0498C16.1825 20.3202 16.0258 20.6029 15.7549 20.6797L14.8613 20.9316H16.7939C16.7977 20.7634 16.8223 20.6169 16.8564 20.5039C16.9068 20.3382 17.0341 20.2167 17.1875 20.167C17.2316 20.1415 17.2797 20.1209 17.332 20.1094C17.4265 20.0885 17.5277 20.0626 17.6357 20.0381L17.3936 20.0342C17.1122 20.028 16.8877 19.794 16.8936 19.5127C16.8999 19.2314 17.1338 19.0078 17.415 19.0137L17.998 19.0254C17.6852 18.9348 17.3971 18.8231 17.1689 18.6787C17.0677 18.6146 16.9985 18.52 16.9619 18.415C16.9344 18.3533 16.9187 18.2848 16.918 18.2129C16.9153 17.9315 17.1413 17.7012 17.4229 17.6982L22.5361 17.6455L22.6396 17.6553C22.8721 17.701 23.0493 17.9053 23.0518 18.1514C23.0536 18.3559 22.933 18.5313 22.7598 18.6143C22.7727 18.6172 22.7858 18.619 22.7979 18.6221C22.8337 18.6313 22.879 18.6445 22.9248 18.6641L23.0117 18.709C23.0487 18.7319 23.0912 18.7642 23.1309 18.8076C23.1752 18.8562 23.2297 18.9333 23.2559 19.0391C23.2833 19.1511 23.2706 19.2613 23.2354 19.3535C23.174 19.514 23.0545 19.5963 23.0166 19.6211C22.9114 19.6897 22.7607 19.7472 22.6348 19.792C22.491 19.8432 22.3117 19.8999 22.1104 19.96C21.9559 20.006 21.7849 20.0538 21.6025 20.1045H22.8154C23.0553 20.1045 23.2562 20.2704 23.3105 20.4941V15.9521H12.4922V16.6475ZM23.3105 20.7314C23.2929 20.806 23.2592 20.8737 23.2129 20.9316H23.3105V20.7314ZM13.2695 17.4883L14.0088 20.1104L14.9854 19.835L14.2461 17.2129L13.2695 17.4883ZM2.5332 18.3223H7.63672L7.49609 14.8105H7.18848L7.20215 15.1367C7.23086 15.7908 6.70819 16.3374 6.05371 16.3379H4.11035L4.00488 16.332H3.99609C3.4384 16.2737 3.00329 15.8173 2.96973 15.2578L2.96875 15.25L2.96777 15.1445V15.1367L2.98242 14.8105H2.67383L2.5332 18.3223ZM24.7344 3.55957L26.3545 15.377C26.4786 15.4112 26.6067 15.44 26.7363 15.4619L25.0977 3.50586L24.7344 3.55957ZM26.1484 3.63672L27.7656 15.4346C27.8908 15.3973 28.0069 15.3448 28.1133 15.2744L26.5107 3.58301L26.1484 3.63672ZM3.98633 15.1826C3.98343 15.256 4.04299 15.3174 4.11719 15.3174H6.05371L6.10547 15.3066C6.15251 15.2857 6.18578 15.2376 6.18359 15.1826L6.16797 14.8105H4.00293L3.98633 15.1826ZM12.4922 14.9316H15.0771C14.9383 14.8404 14.8458 14.6841 14.8457 14.5059V12.7285C14.8457 12.4469 15.0748 12.2178 15.3564 12.2178H21.6357C21.9174 12.2178 22.1465 12.4469 22.1465 12.7285V14.5059C22.1463 14.6841 22.0539 14.8404 21.915 14.9316H23.3105V10.248H12.4922V14.9316ZM15.8672 13.9951H21.125V13.2393H15.8672V13.9951ZM4.3584 8.46484C3.55905 8.46523 2.90228 9.09597 2.87012 9.89453L2.71387 13.79H3.02832L3.10547 12.0205C3.13289 11.406 3.63869 10.9209 4.25391 10.9209H5.91699C6.53173 10.9214 7.03805 11.4062 7.06543 12.0205L7.14258 13.79H7.45605L7.2998 9.89453C7.26765 9.09588 6.61002 8.4651 5.81055 8.46484H4.3584ZM4.25391 11.9414C4.18504 11.9414 4.12744 11.9958 4.12402 12.0654L4.04785 13.79H6.12207L6.04688 12.0654C6.04435 12.0136 6.01093 11.9699 5.96582 11.9512L5.91699 11.9414H4.25391ZM15.3818 8.3584H17.9512V5.07129H15.3818V8.3584ZM18.9736 8.3584H20.1064V5.07129H18.9736V8.3584ZM15.2246 4.04785H17.7246L17.3896 3.15527H14.8896L15.2246 4.04785ZM19.2002 4.04785H20.2637L20.5986 3.15527H19.5352L19.2002 4.04785Z" fill="black"/>
<path fill-rule="evenodd" clip-rule="evenodd" d="M10.3506 0.84668C10.6324 0.846949 10.8604 1.07626 10.8604 1.35742V2.63867C11.1085 2.75899 11.2871 2.94129 11.3936 3.07129C11.5867 3.30742 11.7327 3.59168 11.8389 3.84473C12.0436 4.33296 12.1982 4.94385 12.1982 5.34961C12.198 6.34225 11.3875 7.0272 10.5098 7.10938L10.333 7.11816C9.39027 7.11793 8.46899 6.40857 8.46875 5.34961C8.46878 4.94403 8.62236 4.33313 8.82715 3.84473C8.93329 3.59174 9.07941 3.30732 9.27246 3.07129C9.38387 2.93523 9.57341 2.74139 9.83984 2.62207V1.35742C9.83984 1.1109 10.0155 0.904976 10.248 0.857422L10.3506 0.84668ZM10.333 3.53516C10.2645 3.53535 10.1721 3.58304 10.0625 3.7168C9.95644 3.84651 9.85567 4.03156 9.76855 4.23926C9.59298 4.65802 9.4893 5.12854 9.48926 5.34961L9.49316 5.4248L9.52246 5.55859C9.62305 5.86275 9.93936 6.09748 10.333 6.09766C10.7829 6.09743 11.1325 5.79088 11.1738 5.4248L11.1787 5.34961C11.1787 5.12856 11.0742 4.65802 10.8984 4.23926C10.8112 4.03147 10.7106 3.84654 10.6045 3.7168C10.4947 3.58269 10.4016 3.53538 10.333 3.53516Z" fill="black"/>
</g>
<defs>
<clipPath id="clip0_169_455">
<rect width="32" height="32" fill="white"/>
</clipPath>
</defs>
</svg>
