<svg width="32" height="32" viewBox="0 0 32 32" fill="none" xmlns="http://www.w3.org/2000/svg">
<g clip-path="url(#clip0_169_483)">
<rect width="32" height="32" fill="white"/>
<path d="M6.78223 26.2607C7.06378 26.2613 7.29102 26.4905 7.29102 26.7715V27.4297C7.29066 27.711 7.06236 27.9392 6.78125 27.9395L6.67871 27.9287C6.4468 27.8813 6.27082 27.6762 6.27051 27.4297V26.7715C6.27051 26.5251 6.4464 26.3192 6.67871 26.2715L6.78223 26.2607Z" fill="black"/>
<path d="M7.86426 26.2607C8.14581 26.2613 8.37305 26.4905 8.37305 26.7715V27.4297C8.37269 27.711 8.14439 27.9392 7.86328 27.9395L7.76074 27.9287C7.52883 27.8813 7.35285 27.6762 7.35254 27.4297V26.7715C7.35254 26.5251 7.52843 26.3192 7.76074 26.2715L7.86426 26.2607Z" fill="black"/>
<path d="M8.94629 26.2607C9.22784 26.2613 9.45508 26.4905 9.45508 26.7715V27.4297C9.45473 27.711 9.22642 27.9392 8.94531 27.9395L8.84277 27.9287C8.61086 27.8813 8.43488 27.6762 8.43457 27.4297V26.7715C8.43457 26.5251 8.61046 26.3192 8.84277 26.2715L8.94629 26.2607Z" fill="black"/>
<path d="M5.29199 26.5898C5.5733 26.5902 5.80149 26.8185 5.80176 27.0996L5.79102 27.2021C5.74359 27.4341 5.53846 27.61 5.29199 27.6104H3.63379C3.38743 27.6104 3.18152 27.4345 3.13379 27.2021L3.12305 27.0996C3.12332 26.8178 3.35263 26.5898 3.63379 26.5898H5.29199Z" fill="black"/>
<path d="M6.78223 24.1826C7.06378 24.1832 7.29102 24.4124 7.29102 24.6934V25.3516C7.29077 25.633 7.06242 25.8611 6.78125 25.8613L6.67871 25.8506C6.44675 25.8031 6.27072 25.5981 6.27051 25.3516V24.6934C6.27051 24.447 6.44638 24.2411 6.67871 24.1934L6.78223 24.1826Z" fill="black"/>
<path d="M7.86426 24.1826C8.14581 24.1832 8.37305 24.4124 8.37305 24.6934V25.3516C8.3728 25.633 8.14445 25.8611 7.86328 25.8613L7.76074 25.8506C7.52879 25.8031 7.35275 25.5981 7.35254 25.3516V24.6934C7.35254 24.447 7.52841 24.2411 7.76074 24.1934L7.86426 24.1826Z" fill="black"/>
<path d="M8.94629 24.1826C9.22784 24.1832 9.45508 24.4124 9.45508 24.6934V25.3516C9.45483 25.633 9.22648 25.8611 8.94531 25.8613L8.84277 25.8506C8.61082 25.8031 8.43478 25.5981 8.43457 25.3516V24.6934C8.43457 24.447 8.61044 24.2411 8.84277 24.1934L8.94629 24.1826Z" fill="black"/>
<path d="M5.29199 24.5117C5.5733 24.5121 5.80149 24.7404 5.80176 25.0215L5.79102 25.124C5.74366 25.356 5.53853 25.5319 5.29199 25.5322H3.63379C3.38736 25.5322 3.18145 25.3564 3.13379 25.124L3.12305 25.0215C3.12332 24.7397 3.35263 24.5117 3.63379 24.5117H5.29199Z" fill="black"/>
<path d="M6.78223 22.1045C7.06378 22.105 7.29102 22.3342 7.29102 22.6152V23.2734C7.29088 23.5549 7.06249 23.7829 6.78125 23.7832L6.67871 23.7725C6.44671 23.725 6.27063 23.5201 6.27051 23.2734V22.6152C6.27051 22.3689 6.44636 22.1629 6.67871 22.1152L6.78223 22.1045Z" fill="black"/>
<path d="M7.86426 22.1045C8.14581 22.105 8.37305 22.3342 8.37305 22.6152V23.2734C8.37291 23.5549 8.14452 23.7829 7.86328 23.7832L7.76074 23.7725C7.52874 23.725 7.35266 23.5201 7.35254 23.2734V22.6152C7.35254 22.3689 7.52839 22.1629 7.76074 22.1152L7.86426 22.1045Z" fill="black"/>
<path d="M8.94629 22.1045C9.22784 22.105 9.45508 22.3342 9.45508 22.6152V23.2734C9.45494 23.5549 9.22655 23.7829 8.94531 23.7832L8.84277 23.7725C8.61077 23.725 8.43469 23.5201 8.43457 23.2734V22.6152C8.43457 22.3689 8.61042 22.1629 8.84277 22.1152L8.94629 22.1045Z" fill="black"/>
<path d="M5.29199 22.4336C5.5733 22.434 5.80149 22.6623 5.80176 22.9434L5.79102 23.0459C5.74372 23.278 5.53859 23.4538 5.29199 23.4541H3.63379C3.3873 23.4541 3.18137 23.2784 3.13379 23.0459L3.12305 22.9434C3.12332 22.6616 3.35263 22.4336 3.63379 22.4336H5.29199Z" fill="black"/>
<path d="M6.78223 20.0264C7.06373 20.0269 7.29094 20.2562 7.29102 20.5371V21.1953C7.29091 21.4768 7.06251 21.7048 6.78125 21.7051L6.67871 21.6943C6.44671 21.6468 6.2706 21.4419 6.27051 21.1953V20.5371C6.27057 20.2908 6.44638 20.0848 6.67871 20.0371L6.78223 20.0264Z" fill="black"/>
<path d="M7.86426 20.0264C8.14577 20.0269 8.37297 20.2562 8.37305 20.5371V21.1953C8.37294 21.4768 8.14454 21.7048 7.86328 21.7051L7.76074 21.6943C7.52874 21.6468 7.35263 21.4419 7.35254 21.1953V20.5371C7.3526 20.2908 7.52841 20.0848 7.76074 20.0371L7.86426 20.0264Z" fill="black"/>
<path d="M8.94629 20.0264C9.2278 20.0269 9.455 20.2562 9.45508 20.5371V21.1953C9.45497 21.4768 9.22657 21.7048 8.94531 21.7051L8.84277 21.6943C8.61077 21.6468 8.43466 21.4419 8.43457 21.1953V20.5371C8.43464 20.2908 8.61044 20.0848 8.84277 20.0371L8.94629 20.0264Z" fill="black"/>
<path d="M5.29199 20.3555C5.57325 20.3558 5.80142 20.5842 5.80176 20.8652L5.79102 20.9678C5.74372 21.1999 5.53859 21.3757 5.29199 21.376H3.63379C3.38724 21.376 3.18131 21.2004 3.13379 20.9678L3.12305 20.8652C3.12339 20.5835 3.35267 20.3555 3.63379 20.3555H5.29199Z" fill="black"/>
<path d="M16.4932 26.2607C16.7747 26.2613 17.002 26.4905 17.002 26.7715V27.4297C17.0016 27.711 16.7733 27.9392 16.4922 27.9395L16.3896 27.9287C16.1577 27.8813 15.9818 27.6762 15.9814 27.4297V26.7715C15.9814 26.5251 16.1573 26.3192 16.3896 26.2715L16.4932 26.2607Z" fill="black"/>
<path d="M17.5752 26.2607C17.8567 26.2613 18.084 26.4905 18.084 26.7715V27.4297C18.0836 27.711 17.8553 27.9392 17.5742 27.9395L17.4717 27.9287C17.2398 27.8813 17.0638 27.6762 17.0635 27.4297V26.7715C17.0635 26.5251 17.2394 26.3192 17.4717 26.2715L17.5752 26.2607Z" fill="black"/>
<path d="M18.6572 26.2607C18.9388 26.2613 19.166 26.4905 19.166 26.7715V27.4297C19.1657 27.711 18.9374 27.9392 18.6562 27.9395L18.5537 27.9287C18.3218 27.8813 18.1458 27.6762 18.1455 27.4297V26.7715C18.1455 26.5251 18.3214 26.3192 18.5537 26.2715L18.6572 26.2607Z" fill="black"/>
<path d="M15.0029 26.5898C15.2842 26.5902 15.5124 26.8185 15.5127 27.0996L15.502 27.2021C15.4545 27.4341 15.2494 27.61 15.0029 27.6104H13.3447C13.0984 27.6104 12.8925 27.4345 12.8447 27.2021L12.834 27.0996C12.8343 26.8178 13.0636 26.5898 13.3447 26.5898H15.0029Z" fill="black"/>
<path d="M16.4932 24.1826C16.7747 24.1832 17.002 24.4124 17.002 24.6934V25.3516C17.0017 25.633 16.7734 25.8611 16.4922 25.8613L16.3896 25.8506C16.1577 25.8031 15.9817 25.5981 15.9814 25.3516V24.6934C15.9814 24.447 16.1573 24.2411 16.3896 24.1934L16.4932 24.1826Z" fill="black"/>
<path d="M17.5752 24.1826C17.8567 24.1832 18.084 24.4124 18.084 24.6934V25.3516C18.0837 25.633 17.8554 25.8611 17.5742 25.8613L17.4717 25.8506C17.2397 25.8031 17.0637 25.5981 17.0635 25.3516V24.6934C17.0635 24.447 17.2393 24.2411 17.4717 24.1934L17.5752 24.1826Z" fill="black"/>
<path d="M18.6572 24.1826C18.9388 24.1832 19.166 24.4124 19.166 24.6934V25.3516C19.1658 25.633 18.9374 25.8611 18.6562 25.8613L18.5537 25.8506C18.3218 25.8031 18.1457 25.5981 18.1455 25.3516V24.6934C18.1455 24.447 18.3214 24.2411 18.5537 24.1934L18.6572 24.1826Z" fill="black"/>
<path d="M15.0029 24.5117C15.2842 24.5121 15.5124 24.7404 15.5127 25.0215L15.502 25.124C15.4546 25.356 15.2495 25.5319 15.0029 25.5322H13.3447C13.0983 25.5322 12.8924 25.3564 12.8447 25.124L12.834 25.0215C12.8343 24.7397 13.0636 24.5117 13.3447 24.5117H15.0029Z" fill="black"/>
<path d="M16.4932 22.1045C16.7747 22.105 17.002 22.3342 17.002 22.6152V23.2734C17.0018 23.5549 16.7734 23.7829 16.4922 23.7832L16.3896 23.7725C16.1576 23.725 15.9816 23.5201 15.9814 23.2734V22.6152C15.9814 22.3689 16.1573 22.1629 16.3896 22.1152L16.4932 22.1045Z" fill="black"/>
<path d="M17.5752 22.1045C17.8567 22.105 18.084 22.3342 18.084 22.6152V23.2734C18.0838 23.5549 17.8555 23.7829 17.5742 23.7832L17.4717 23.7725C17.2397 23.725 17.0636 23.5201 17.0635 23.2734V22.6152C17.0635 22.3689 17.2393 22.1629 17.4717 22.1152L17.5752 22.1045Z" fill="black"/>
<path d="M18.6572 22.1045C18.9388 22.105 19.166 22.3342 19.166 22.6152V23.2734C19.1659 23.5549 18.9375 23.7829 18.6562 23.7832L18.5537 23.7725C18.3217 23.725 18.1456 23.5201 18.1455 23.2734V22.6152C18.1455 22.3689 18.3214 22.1629 18.5537 22.1152L18.6572 22.1045Z" fill="black"/>
<path d="M15.0029 22.4336C15.2842 22.434 15.5124 22.6623 15.5127 22.9434L15.502 23.0459C15.4547 23.278 15.2495 23.4538 15.0029 23.4541H13.3447C13.0982 23.4541 12.8923 23.2784 12.8447 23.0459L12.834 22.9434C12.8343 22.6616 13.0636 22.4336 13.3447 22.4336H15.0029Z" fill="black"/>
<path d="M16.4932 20.0264C16.7747 20.0269 17.0019 20.2562 17.002 20.5371V21.1953C17.0018 21.4768 16.7734 21.7048 16.4922 21.7051L16.3896 21.6943C16.1576 21.6468 15.9815 21.4419 15.9814 21.1953V20.5371C15.9815 20.2908 16.1573 20.0848 16.3896 20.0371L16.4932 20.0264Z" fill="black"/>
<path d="M17.5752 20.0264C17.8567 20.0269 18.0839 20.2562 18.084 20.5371V21.1953C18.0839 21.4768 17.8555 21.7048 17.5742 21.7051L17.4717 21.6943C17.2397 21.6468 17.0636 21.4419 17.0635 21.1953V20.5371C17.0635 20.2908 17.2394 20.0848 17.4717 20.0371L17.5752 20.0264Z" fill="black"/>
<path d="M18.6572 20.0264C18.9387 20.0269 19.1659 20.2562 19.166 20.5371V21.1953C19.1659 21.4768 18.9375 21.7048 18.6562 21.7051L18.5537 21.6943C18.3217 21.6468 18.1456 21.4419 18.1455 21.1953V20.5371C18.1456 20.2908 18.3214 20.0848 18.5537 20.0371L18.6572 20.0264Z" fill="black"/>
<path d="M15.0029 20.3555C15.2842 20.3558 15.5124 20.5842 15.5127 20.8652L15.502 20.9678C15.4547 21.1999 15.2495 21.3757 15.0029 21.376H13.3447C13.0982 21.376 12.8923 21.2004 12.8447 20.9678L12.834 20.8652C12.8343 20.5835 13.0636 20.3555 13.3447 20.3555H15.0029Z" fill="black"/>
<path d="M26.2041 26.2607C26.4857 26.2613 26.7129 26.4905 26.7129 26.7715V27.4297C26.7125 27.711 26.4842 27.9392 26.2031 27.9395L26.1006 27.9287C25.8687 27.8813 25.6927 27.6762 25.6924 27.4297V26.7715C25.6924 26.5251 25.8683 26.3192 26.1006 26.2715L26.2041 26.2607Z" fill="black"/>
<path d="M27.2861 26.2607C27.5677 26.2613 27.7949 26.4905 27.7949 26.7715V27.4297C27.7946 27.711 27.5663 27.9392 27.2852 27.9395L27.1826 27.9287C26.9507 27.8813 26.7747 27.6762 26.7744 27.4297V26.7715C26.7744 26.5251 26.9503 26.3192 27.1826 26.2715L27.2861 26.2607Z" fill="black"/>
<path d="M28.3682 26.2607C28.6497 26.2613 28.877 26.4905 28.877 26.7715V27.4297C28.8766 27.711 28.6483 27.9392 28.3672 27.9395L28.2646 27.9287C28.0327 27.8813 27.8568 27.6762 27.8564 27.4297V26.7715C27.8564 26.5251 28.0323 26.3192 28.2646 26.2715L28.3682 26.2607Z" fill="black"/>
<path d="M24.7139 26.5898C24.9952 26.5902 25.2234 26.8185 25.2236 27.0996L25.2129 27.2021C25.1655 27.4341 24.9603 27.61 24.7139 27.6104H23.0557C22.8093 27.6104 22.6034 27.4345 22.5557 27.2021L22.5449 27.0996C22.5452 26.8178 22.7745 26.5898 23.0557 26.5898H24.7139Z" fill="black"/>
<path d="M26.2041 24.1826C26.4857 24.1832 26.7129 24.4124 26.7129 24.6934V25.3516C26.7126 25.633 26.4843 25.8611 26.2031 25.8613L26.1006 25.8506C25.8686 25.8031 25.6926 25.5981 25.6924 25.3516V24.6934C25.6924 24.447 25.8683 24.2411 26.1006 24.1934L26.2041 24.1826Z" fill="black"/>
<path d="M27.2861 24.1826C27.5677 24.1832 27.7949 24.4124 27.7949 24.6934V25.3516C27.7947 25.633 27.5663 25.8611 27.2852 25.8613L27.1826 25.8506C26.9507 25.8031 26.7746 25.5981 26.7744 25.3516V24.6934C26.7744 24.447 26.9503 24.2411 27.1826 24.1934L27.2861 24.1826Z" fill="black"/>
<path d="M28.3682 24.1826C28.6497 24.1832 28.877 24.4124 28.877 24.6934V25.3516C28.8767 25.633 28.6484 25.8611 28.3672 25.8613L28.2646 25.8506C28.0327 25.8031 27.8567 25.5981 27.8564 25.3516V24.6934C27.8564 24.447 28.0323 24.2411 28.2646 24.1934L28.3682 24.1826Z" fill="black"/>
<path d="M24.7139 24.5117C24.9952 24.5121 25.2234 24.7404 25.2236 25.0215L25.2129 25.124C25.1655 25.356 24.9604 25.5319 24.7139 25.5322H23.0557C22.8092 25.5322 22.6033 25.3564 22.5557 25.124L22.5449 25.0215C22.5452 24.7397 22.7745 24.5117 23.0557 24.5117H24.7139Z" fill="black"/>
<path d="M26.2041 22.1045C26.4857 22.105 26.7129 22.3342 26.7129 22.6152V23.2734C26.7128 23.5549 26.4844 23.7829 26.2031 23.7832L26.1006 23.7725C25.8686 23.725 25.6925 23.5201 25.6924 23.2734V22.6152C25.6924 22.3689 25.8682 22.1629 26.1006 22.1152L26.2041 22.1045Z" fill="black"/>
<path d="M27.2861 22.1045C27.5677 22.105 27.7949 22.3342 27.7949 22.6152V23.2734C27.7948 23.5549 27.5664 23.7829 27.2852 23.7832L27.1826 23.7725C26.9506 23.725 26.7745 23.5201 26.7744 23.2734V22.6152C26.7744 22.3689 26.9503 22.1629 27.1826 22.1152L27.2861 22.1045Z" fill="black"/>
<path d="M28.3682 22.1045C28.6497 22.105 28.877 22.3342 28.877 22.6152V23.2734C28.8768 23.5549 28.6484 23.7829 28.3672 23.7832L28.2646 23.7725C28.0326 23.725 27.8566 23.5201 27.8564 23.2734V22.6152C27.8564 22.3689 28.0323 22.1629 28.2646 22.1152L28.3682 22.1045Z" fill="black"/>
<path d="M24.7139 22.4336C24.9952 22.434 25.2234 22.6623 25.2236 22.9434L25.2129 23.0459C25.1656 23.278 24.9605 23.4538 24.7139 23.4541H23.0557C22.8092 23.4541 22.6032 23.2784 22.5557 23.0459L22.5449 22.9434C22.5452 22.6616 22.7745 22.4336 23.0557 22.4336H24.7139Z" fill="black"/>
<path d="M26.2041 20.0264C26.4856 20.0269 26.7128 20.2562 26.7129 20.5371V21.1953C26.7128 21.4768 26.4844 21.7048 26.2031 21.7051L26.1006 21.6943C25.8686 21.6468 25.6925 21.4419 25.6924 21.1953V20.5371C25.6924 20.2908 25.8683 20.0848 26.1006 20.0371L26.2041 20.0264Z" fill="black"/>
<path d="M27.2861 20.0264C27.5676 20.0269 27.7948 20.2562 27.7949 20.5371V21.1953C27.7948 21.4768 27.5664 21.7048 27.2852 21.7051L27.1826 21.6943C26.9506 21.6468 26.7745 21.4419 26.7744 21.1953V20.5371C26.7745 20.2908 26.9503 20.0848 27.1826 20.0371L27.2861 20.0264Z" fill="black"/>
<path d="M28.3682 20.0264C28.6497 20.0269 28.8769 20.2562 28.877 20.5371V21.1953C28.8768 21.4768 28.6484 21.7048 28.3672 21.7051L28.2646 21.6943C28.0326 21.6468 27.8565 21.4419 27.8564 21.1953V20.5371C27.8565 20.2908 28.0323 20.0848 28.2646 20.0371L28.3682 20.0264Z" fill="black"/>
<path d="M24.7139 20.3555C24.9951 20.3558 25.2233 20.5842 25.2236 20.8652L25.2129 20.9678C25.1656 21.1999 24.9605 21.3757 24.7139 21.376H23.0557C22.8091 21.376 22.6032 21.2004 22.5557 20.9678L22.5449 20.8652C22.5453 20.5835 22.7745 20.3555 23.0557 20.3555H24.7139Z" fill="black"/>
<path d="M6.78223 16.3379C7.06378 16.3384 7.29102 16.5676 7.29102 16.8486V17.5068C7.29082 17.7883 7.06245 18.0163 6.78125 18.0166L6.67871 18.0059C6.44673 17.9584 6.27068 17.7534 6.27051 17.5068V16.8486C6.27051 16.6023 6.44637 16.3964 6.67871 16.3486L6.78223 16.3379Z" fill="black"/>
<path d="M7.86426 16.3379C8.14581 16.3384 8.37305 16.5676 8.37305 16.8486V17.5068C8.37285 17.7883 8.14448 18.0163 7.86328 18.0166L7.76074 18.0059C7.52877 17.9584 7.35271 17.7534 7.35254 17.5068V16.8486C7.35254 16.6023 7.5284 16.3964 7.76074 16.3486L7.86426 16.3379Z" fill="black"/>
<path d="M8.94629 16.3379C9.22784 16.3384 9.45508 16.5676 9.45508 16.8486V17.5068C9.45488 17.7883 9.22651 18.0163 8.94531 18.0166L8.84277 18.0059C8.6108 17.9584 8.43474 17.7534 8.43457 17.5068V16.8486C8.43457 16.6023 8.61043 16.3964 8.84277 16.3486L8.94629 16.3379Z" fill="black"/>
<path d="M5.29199 16.667C5.5733 16.6674 5.80149 16.8957 5.80176 17.1768L5.79102 17.2793C5.7437 17.5114 5.53856 17.6872 5.29199 17.6875H3.63379C3.38733 17.6875 3.18141 17.5118 3.13379 17.2793L3.12305 17.1768C3.12332 16.895 3.35263 16.667 3.63379 16.667H5.29199Z" fill="black"/>
<path d="M6.78223 14.2598C7.06377 14.2603 7.291 14.4895 7.29102 14.7705V15.4287C7.29091 15.7102 7.06251 15.9382 6.78125 15.9385L6.67871 15.9277C6.4467 15.8802 6.2706 15.6754 6.27051 15.4287V14.7705C6.27052 14.5241 6.44636 14.3182 6.67871 14.2705L6.78223 14.2598Z" fill="black"/>
<path d="M7.86426 14.2598C8.1458 14.2603 8.37303 14.4895 8.37305 14.7705V15.4287C8.37294 15.7102 8.14454 15.9382 7.86328 15.9385L7.76074 15.9277C7.52873 15.8802 7.35263 15.6754 7.35254 15.4287V14.7705C7.35255 14.5241 7.52839 14.3182 7.76074 14.2705L7.86426 14.2598Z" fill="black"/>
<path d="M8.94629 14.2598C9.22783 14.2603 9.45506 14.4895 9.45508 14.7705V15.4287C9.45497 15.7102 9.22657 15.9382 8.94531 15.9385L8.84277 15.9277C8.61076 15.8802 8.43466 15.6754 8.43457 15.4287V14.7705C8.43458 14.5241 8.61042 14.3182 8.84277 14.2705L8.94629 14.2598Z" fill="black"/>
<path d="M5.29199 14.5889C5.57329 14.5892 5.80147 14.8176 5.80176 15.0986L5.79102 15.2012C5.74372 15.4333 5.53859 15.6091 5.29199 15.6094H3.63379C3.38727 15.6094 3.18134 15.4337 3.13379 15.2012L3.12305 15.0986C3.12333 14.8169 3.35264 14.5889 3.63379 14.5889H5.29199Z" fill="black"/>
<path d="M6.78223 12.1816C7.0637 12.1822 7.29089 12.4115 7.29102 12.6924V13.3506C7.29091 13.6321 7.06251 13.8601 6.78125 13.8604L6.67871 13.8496C6.44672 13.8021 6.2706 13.5972 6.27051 13.3506V12.6924C6.27062 12.4461 6.4464 12.2401 6.67871 12.1924L6.78223 12.1816Z" fill="black"/>
<path d="M7.86426 12.1816C8.14574 12.1822 8.37292 12.4115 8.37305 12.6924V13.3506C8.37294 13.6321 8.14454 13.8601 7.86328 13.8604L7.76074 13.8496C7.52875 13.8021 7.35263 13.5972 7.35254 13.3506V12.6924C7.35265 12.4461 7.52843 12.2401 7.76074 12.1924L7.86426 12.1816Z" fill="black"/>
<path d="M8.94629 12.1816C9.22777 12.1822 9.45495 12.4115 9.45508 12.6924V13.3506C9.45497 13.6321 9.22657 13.8601 8.94531 13.8604L8.84277 13.8496C8.61078 13.8021 8.43466 13.5972 8.43457 13.3506V12.6924C8.43468 12.4461 8.61046 12.2401 8.84277 12.1924L8.94629 12.1816Z" fill="black"/>
<path d="M5.29199 12.5107C5.57322 12.5111 5.80137 12.7395 5.80176 13.0205L5.79102 13.123C5.74372 13.3551 5.53859 13.5309 5.29199 13.5312H3.63379C3.38724 13.5312 3.18131 13.3556 3.13379 13.123L3.12305 13.0205C3.12344 12.7388 3.3527 12.5107 3.63379 12.5107H5.29199Z" fill="black"/>
<path d="M6.78223 10.1035C7.06364 10.104 7.29078 10.3335 7.29102 10.6143V11.2725C7.29091 11.554 7.06251 11.782 6.78125 11.7822L6.67871 11.7715C6.44674 11.7239 6.2706 11.5191 6.27051 11.2725V10.6143C6.27071 10.368 6.44644 10.1619 6.67871 10.1143L6.78223 10.1035Z" fill="black"/>
<path d="M7.86426 10.1035C8.14567 10.104 8.37282 10.3335 8.37305 10.6143V11.2725C8.37294 11.554 8.14454 11.782 7.86328 11.7822L7.76074 11.7715C7.52877 11.7239 7.35263 11.5191 7.35254 11.2725V10.6143C7.35274 10.368 7.52848 10.1619 7.76074 10.1143L7.86426 10.1035Z" fill="black"/>
<path d="M8.94629 10.1035C9.2277 10.104 9.45485 10.3335 9.45508 10.6143V11.2725C9.45497 11.554 9.22657 11.782 8.94531 11.7822L8.84277 11.7715C8.6108 11.7239 8.43466 11.5191 8.43457 11.2725V10.6143C8.43477 10.368 8.61051 10.1619 8.84277 10.1143L8.94629 10.1035Z" fill="black"/>
<path d="M5.29199 10.4326C5.57315 10.433 5.80126 10.6615 5.80176 10.9424L5.79102 11.0449C5.74372 11.277 5.53859 11.4528 5.29199 11.4531H3.63379C3.38724 11.4531 3.18131 11.2775 3.13379 11.0449L3.12305 10.9424C3.12355 10.6608 3.35277 10.4326 3.63379 10.4326H5.29199Z" fill="black"/>
<path d="M16.4932 16.3379C16.7747 16.3384 17.002 16.5676 17.002 16.8486V17.5068C17.0018 17.7883 16.7734 18.0163 16.4922 18.0166L16.3896 18.0059C16.1577 17.9584 15.9816 17.7534 15.9814 17.5068V16.8486C15.9814 16.6023 16.1573 16.3964 16.3896 16.3486L16.4932 16.3379Z" fill="black"/>
<path d="M17.5752 16.3379C17.8567 16.3384 18.084 16.5676 18.084 16.8486V17.5068C18.0838 17.7883 17.8554 18.0163 17.5742 18.0166L17.4717 18.0059C17.2397 17.9584 17.0636 17.7534 17.0635 17.5068V16.8486C17.0635 16.6023 17.2393 16.3964 17.4717 16.3486L17.5752 16.3379Z" fill="black"/>
<path d="M18.6572 16.3379C18.9388 16.3384 19.166 16.5676 19.166 16.8486V17.5068C19.1658 17.7883 18.9375 18.0163 18.6562 18.0166L18.5537 18.0059C18.3217 17.9584 18.1457 17.7534 18.1455 17.5068V16.8486C18.1455 16.6023 18.3214 16.3964 18.5537 16.3486L18.6572 16.3379Z" fill="black"/>
<path d="M15.0029 16.667C15.2842 16.6674 15.5124 16.8957 15.5127 17.1768L15.502 17.2793C15.4546 17.5114 15.2495 17.6872 15.0029 17.6875H13.3447C13.0983 17.6875 12.8924 17.5118 12.8447 17.2793L12.834 17.1768C12.8343 16.895 13.0636 16.667 13.3447 16.667H15.0029Z" fill="black"/>
<path d="M16.4932 14.2598C16.7747 14.2603 17.0019 14.4895 17.002 14.7705V15.4287C17.0018 15.7102 16.7734 15.9382 16.4922 15.9385L16.3896 15.9277C16.1576 15.8802 15.9815 15.6754 15.9814 15.4287V14.7705C15.9815 14.5241 16.1573 14.3182 16.3896 14.2705L16.4932 14.2598Z" fill="black"/>
<path d="M17.5752 14.2598C17.8567 14.2603 18.084 14.4895 18.084 14.7705V15.4287C18.0839 15.7102 17.8555 15.9382 17.5742 15.9385L17.4717 15.9277C17.2397 15.8802 17.0636 15.6754 17.0635 15.4287V14.7705C17.0635 14.5241 17.2393 14.3182 17.4717 14.2705L17.5752 14.2598Z" fill="black"/>
<path d="M18.6572 14.2598C18.9388 14.2603 19.166 14.4895 19.166 14.7705V15.4287C19.1659 15.7102 18.9375 15.9382 18.6562 15.9385L18.5537 15.9277C18.3217 15.8802 18.1456 15.6754 18.1455 15.4287V14.7705C18.1455 14.5241 18.3214 14.3182 18.5537 14.2705L18.6572 14.2598Z" fill="black"/>
<path d="M15.0029 14.5889C15.2842 14.5892 15.5124 14.8176 15.5127 15.0986L15.502 15.2012C15.4547 15.4333 15.2495 15.6091 15.0029 15.6094H13.3447C13.0982 15.6094 12.8923 15.4337 12.8447 15.2012L12.834 15.0986C12.8343 14.8169 13.0636 14.5889 13.3447 14.5889H15.0029Z" fill="black"/>
<path d="M16.4932 12.1816C16.7746 12.1822 17.0018 12.4115 17.002 12.6924V13.3506C17.0018 13.6321 16.7734 13.8601 16.4922 13.8604L16.3896 13.8496C16.1577 13.8021 15.9815 13.5972 15.9814 13.3506V12.6924C15.9816 12.4461 16.1573 12.2401 16.3896 12.1924L16.4932 12.1816Z" fill="black"/>
<path d="M17.5752 12.1816C17.8567 12.1822 18.0839 12.4115 18.084 12.6924V13.3506C18.0839 13.6321 17.8555 13.8601 17.5742 13.8604L17.4717 13.8496C17.2397 13.8021 17.0636 13.5972 17.0635 13.3506V12.6924C17.0636 12.4461 17.2394 12.2401 17.4717 12.1924L17.5752 12.1816Z" fill="black"/>
<path d="M18.6572 12.1816C18.9387 12.1822 19.1659 12.4115 19.166 12.6924V13.3506C19.1659 13.6321 18.9375 13.8601 18.6562 13.8604L18.5537 13.8496C18.3217 13.8021 18.1456 13.5972 18.1455 13.3506V12.6924C18.1456 12.4461 18.3214 12.2401 18.5537 12.1924L18.6572 12.1816Z" fill="black"/>
<path d="M15.0029 12.5107C15.2842 12.5111 15.5123 12.7395 15.5127 13.0205L15.502 13.123C15.4547 13.3551 15.2495 13.5309 15.0029 13.5312H13.3447C13.0982 13.5312 12.8923 13.3556 12.8447 13.123L12.834 13.0205C12.8344 12.7388 13.0636 12.5107 13.3447 12.5107H15.0029Z" fill="black"/>
<path d="M16.4932 10.1035C16.7746 10.104 17.0017 10.3335 17.002 10.6143V11.2725C17.0018 11.554 16.7734 11.782 16.4922 11.7822L16.3896 11.7715C16.1577 11.7239 15.9815 11.5191 15.9814 11.2725V10.6143C15.9816 10.368 16.1574 10.1619 16.3896 10.1143L16.4932 10.1035Z" fill="black"/>
<path d="M17.5752 10.1035C17.8566 10.104 18.0838 10.3335 18.084 10.6143V11.2725C18.0839 11.554 17.8555 11.782 17.5742 11.7822L17.4717 11.7715C17.2397 11.7239 17.0636 11.5191 17.0635 11.2725V10.6143C17.0637 10.368 17.2394 10.1619 17.4717 10.1143L17.5752 10.1035Z" fill="black"/>
<path d="M18.6572 10.1035C18.9386 10.104 19.1658 10.3335 19.166 10.6143V11.2725C19.1659 11.554 18.9375 11.782 18.6562 11.7822L18.5537 11.7715C18.3217 11.7239 18.1456 11.5191 18.1455 11.2725V10.6143C18.1457 10.368 18.3214 10.1619 18.5537 10.1143L18.6572 10.1035Z" fill="black"/>
<path d="M15.0029 10.4326C15.2841 10.433 15.5122 10.6615 15.5127 10.9424L15.502 11.0449C15.4547 11.277 15.2495 11.4528 15.0029 11.4531H13.3447C13.0982 11.4531 12.8923 11.2775 12.8447 11.0449L12.834 10.9424C12.8345 10.6608 13.0637 10.4326 13.3447 10.4326H15.0029Z" fill="black"/>
<path d="M26.2041 16.3379C26.4857 16.3384 26.7129 16.5676 26.7129 16.8486V17.5068C26.7127 17.7883 26.4843 18.0163 26.2031 18.0166L26.1006 18.0059C25.8686 17.9584 25.6926 17.7534 25.6924 17.5068V16.8486C25.6924 16.6023 25.8682 16.3964 26.1006 16.3486L26.2041 16.3379Z" fill="black"/>
<path d="M27.2861 16.3379C27.5677 16.3384 27.7949 16.5676 27.7949 16.8486V17.5068C27.7947 17.7883 27.5664 18.0163 27.2852 18.0166L27.1826 18.0059C26.9506 17.9584 26.7746 17.7534 26.7744 17.5068V16.8486C26.7744 16.6023 26.9503 16.3964 27.1826 16.3486L27.2861 16.3379Z" fill="black"/>
<path d="M28.3682 16.3379C28.6497 16.3384 28.877 16.5676 28.877 16.8486V17.5068C28.8768 17.7883 28.6484 18.0163 28.3672 18.0166L28.2646 18.0059C28.0327 17.9584 27.8566 17.7534 27.8564 17.5068V16.8486C27.8564 16.6023 28.0323 16.3964 28.2646 16.3486L28.3682 16.3379Z" fill="black"/>
<path d="M24.7139 16.667C24.9952 16.6674 25.2234 16.8957 25.2236 17.1768L25.2129 17.2793C25.1656 17.5114 24.9604 17.6872 24.7139 17.6875H23.0557C22.8092 17.6875 22.6033 17.5118 22.5557 17.2793L22.5449 17.1768C22.5452 16.895 22.7745 16.667 23.0557 16.667H24.7139Z" fill="black"/>
<path d="M26.2041 14.2598C26.4856 14.2603 26.7129 14.4895 26.7129 14.7705V15.4287C26.7128 15.7102 26.4844 15.9382 26.2031 15.9385L26.1006 15.9277C25.8686 15.8802 25.6925 15.6754 25.6924 15.4287V14.7705C25.6924 14.5241 25.8682 14.3182 26.1006 14.2705L26.2041 14.2598Z" fill="black"/>
<path d="M27.2861 14.2598C27.5677 14.2603 27.7949 14.4895 27.7949 14.7705V15.4287C27.7948 15.7102 27.5664 15.9382 27.2852 15.9385L27.1826 15.9277C26.9506 15.8802 26.7745 15.6754 26.7744 15.4287V14.7705C26.7744 14.5241 26.9503 14.3182 27.1826 14.2705L27.2861 14.2598Z" fill="black"/>
<path d="M28.3682 14.2598C28.6497 14.2603 28.8769 14.4895 28.877 14.7705V15.4287C28.8768 15.7102 28.6484 15.9382 28.3672 15.9385L28.2646 15.9277C28.0326 15.8802 27.8565 15.6754 27.8564 15.4287V14.7705C27.8565 14.5241 28.0323 14.3182 28.2646 14.2705L28.3682 14.2598Z" fill="black"/>
<path d="M24.7139 14.5889C24.9952 14.5892 25.2233 14.8176 25.2236 15.0986L25.2129 15.2012C25.1656 15.4333 24.9605 15.6091 24.7139 15.6094H23.0557C22.8091 15.6094 22.6032 15.4337 22.5557 15.2012L22.5449 15.0986C22.5452 14.8169 22.7745 14.5889 23.0557 14.5889H24.7139Z" fill="black"/>
<path d="M26.2041 12.1816C26.4856 12.1822 26.7128 12.4115 26.7129 12.6924V13.3506C26.7128 13.6321 26.4844 13.8601 26.2031 13.8604L26.1006 13.8496C25.8686 13.8021 25.6925 13.5972 25.6924 13.3506V12.6924C25.6925 12.4461 25.8683 12.2401 26.1006 12.1924L26.2041 12.1816Z" fill="black"/>
<path d="M27.2861 12.1816C27.5676 12.1822 27.7948 12.4115 27.7949 12.6924V13.3506C27.7948 13.6321 27.5664 13.8601 27.2852 13.8604L27.1826 13.8496C26.9506 13.8021 26.7745 13.5972 26.7744 13.3506V12.6924C26.7745 12.4461 26.9503 12.2401 27.1826 12.1924L27.2861 12.1816Z" fill="black"/>
<path d="M28.3682 12.1816C28.6496 12.1822 28.8768 12.4115 28.877 12.6924V13.3506C28.8768 13.6321 28.6484 13.8601 28.3672 13.8604L28.2646 13.8496C28.0327 13.8021 27.8565 13.5972 27.8564 13.3506V12.6924C27.8566 12.4461 28.0323 12.2401 28.2646 12.1924L28.3682 12.1816Z" fill="black"/>
<path d="M24.7139 12.5107C24.9951 12.5111 25.2232 12.7395 25.2236 13.0205L25.2129 13.123C25.1656 13.3551 24.9605 13.5309 24.7139 13.5312H23.0557C22.8091 13.5312 22.6032 13.3556 22.5557 13.123L22.5449 13.0205C22.5453 12.7388 22.7746 12.5107 23.0557 12.5107H24.7139Z" fill="black"/>
<path d="M26.2041 10.1035C26.4855 10.104 26.7127 10.3335 26.7129 10.6143V11.2725C26.7128 11.554 26.4844 11.782 26.2031 11.7822L26.1006 11.7715C25.8686 11.7239 25.6925 11.5191 25.6924 11.2725V10.6143C25.6926 10.368 25.8683 10.1619 26.1006 10.1143L26.2041 10.1035Z" fill="black"/>
<path d="M27.2861 10.1035C27.5675 10.104 27.7947 10.3335 27.7949 10.6143V11.2725C27.7948 11.554 27.5664 11.782 27.2852 11.7822L27.1826 11.7715C26.9506 11.7239 26.7745 11.5191 26.7744 11.2725V10.6143C26.7746 10.368 26.9504 10.1619 27.1826 10.1143L27.2861 10.1035Z" fill="black"/>
<path d="M28.3682 10.1035C28.6496 10.104 28.8767 10.3335 28.877 10.6143V11.2725C28.8768 11.554 28.6484 11.782 28.3672 11.7822L28.2646 11.7715C28.0327 11.7239 27.8565 11.5191 27.8564 11.2725V10.6143C27.8566 10.368 28.0324 10.1619 28.2646 10.1143L28.3682 10.1035Z" fill="black"/>
<path d="M24.7139 10.4326C24.995 10.433 25.2231 10.6615 25.2236 10.9424L25.2129 11.0449C25.1656 11.277 24.9605 11.4528 24.7139 11.4531H23.0557C22.8091 11.4531 22.6032 11.2775 22.5557 11.0449L22.5449 10.9424C22.5454 10.6608 22.7746 10.4326 23.0557 10.4326H24.7139Z" fill="black"/>
<path fill-rule="evenodd" clip-rule="evenodd" d="M25.833 0.882812C26.7085 0.971774 27.421 1.60583 27.6318 2.43945H31.1465V3.45996H27.6328C27.4464 4.19641 26.8673 4.77461 26.1309 4.96094V8.83789H29.6074C29.8891 8.83789 30.1181 9.067 30.1182 9.34863V28.6768C30.1181 28.9583 29.8891 29.1875 29.6074 29.1875H29.3994V29.9922C29.3993 30.0447 29.371 30.0886 29.3301 30.1152H30.6455C30.9266 30.1152 31.1559 30.3433 31.1562 30.625L31.1455 30.7275C31.098 30.9601 30.8921 31.1357 30.6455 31.1357H1.35449C1.10795 31.1357 0.902017 30.9601 0.854492 30.7275L0.84375 30.625C0.844094 30.3433 1.07338 30.1152 1.35449 30.1152H2.63379C2.59231 30.0887 2.56355 30.045 2.56348 29.9922V29.1875H2.36133C2.07966 29.1875 1.85064 28.9583 1.85059 28.6768V9.34863C1.85062 9.067 2.07968 8.83789 2.36133 8.83789H5.83789L5.83691 4.94238C5.13569 4.73692 4.58933 4.17158 4.40918 3.45996H0.853516V2.43945H4.41016C4.63784 1.53938 5.45128 0.87213 6.42188 0.87207L6.63379 0.882812C7.50931 0.971774 8.22176 1.60583 8.43262 2.43945H13.9727C14.2003 1.53938 15.0138 0.87213 15.9844 0.87207L16.1963 0.882812C17.0718 0.971774 17.7843 1.60583 17.9951 2.43945H23.6094C23.8371 1.53938 24.6505 0.87213 25.6211 0.87207L25.833 0.882812ZM8.43359 3.45996C8.24095 4.22102 7.62905 4.81343 6.85742 4.97852L6.8584 8.83789H10.335C10.6164 8.83816 10.8457 9.06716 10.8457 9.34863V28.6768C10.8456 28.9582 10.6164 29.1872 10.335 29.1875H10.1211V29.9922C10.121 30.0448 10.0919 30.0886 10.0508 30.1152H12.291C12.2497 30.0886 12.2208 30.0449 12.2207 29.9922V29.1875H11.9971C11.7154 29.1875 11.4864 28.9583 11.4863 28.6768V9.34863C11.4864 9.067 11.7154 8.83789 11.9971 8.83789H15.4902L15.4893 4.96484C14.7454 4.78275 14.1594 4.20157 13.9717 3.45996H8.43359ZM17.9961 3.45996C17.811 4.1912 17.2388 4.7665 16.5098 4.95703L16.5107 8.83789H19.9707C20.2523 8.83789 20.4814 9.067 20.4814 9.34863V28.6768C20.4814 28.9583 20.2524 29.1875 19.9707 29.1875H19.7783V29.9922C19.7783 30.0447 19.7499 30.0886 19.709 30.1152H21.9121C21.8708 30.0886 21.8419 30.0449 21.8418 29.9922V29.1875H21.6338C21.3521 29.1875 21.1231 28.9583 21.123 28.6768V9.34863C21.1231 9.067 21.3521 8.83789 21.6338 8.83789H25.1104V4.96094C24.3739 4.77455 23.7948 4.19637 23.6084 3.45996H17.9961ZM2.87207 28.166H9.82422V19.792H2.87207V28.166ZM12.5078 28.166H19.46V19.792H12.5078V28.166ZM22.1445 28.166H29.0967V19.792H22.1445V28.166ZM2.87207 18.251H9.82422V9.85938H2.87207V18.251ZM12.5078 18.251H19.46V9.85938H12.5078V18.251ZM22.1445 18.251H29.0967V9.85938H22.1445V18.251ZM6.42188 1.89355C5.83849 1.89362 5.36632 2.36585 5.36621 2.94922C5.36621 3.53282 5.83857 4.00579 6.42188 4.00586C7.00516 4.0056 7.47852 3.53256 7.47852 2.94922C7.47841 2.36611 7.00523 1.89382 6.42188 1.89355ZM15.9844 1.89355C15.401 1.89362 14.9288 2.36585 14.9287 2.94922C14.9287 3.53282 15.4011 4.00579 15.9844 4.00586C16.5677 4.0056 17.041 3.53256 17.041 2.94922C17.0409 2.36611 16.5677 1.89382 15.9844 1.89355ZM25.6211 1.89355C25.0377 1.89362 24.5655 2.36585 24.5654 2.94922C24.5654 3.53282 25.0378 4.00579 25.6211 4.00586C26.2044 4.0056 26.6777 3.53256 26.6777 2.94922C26.6776 2.36611 26.2044 1.89382 25.6211 1.89355Z" fill="black"/>
</g>
<defs>
<clipPath id="clip0_169_483">
<rect width="32" height="32" fill="white"/>
</clipPath>
</defs>
</svg>
