<svg width="32" height="32" viewBox="0 0 32 32" fill="none" xmlns="http://www.w3.org/2000/svg">
<g clip-path="url(#clip0_172_4073)">
<rect width="32" height="32" fill="white"/>
<path d="M10.1025 26.5C10.3352 26.5475 10.5107 26.7533 10.5107 27V29C10.5107 29.2467 10.3352 29.4525 10.1025 29.5L10 29.5107C9.71779 29.5106 9.49023 29.2813 9.49023 29V27C9.49023 26.7187 9.71779 26.4894 10 26.4893L10.1025 26.5Z" fill="black"/>
<path d="M9.63965 23.4893C9.92131 23.4893 10.1504 23.7183 10.1504 24C10.1504 24.2817 9.92131 24.5107 9.63965 24.5107H6.36035C6.07869 24.5107 5.84961 24.2817 5.84961 24C5.84961 23.7183 6.07869 23.4893 6.36035 23.4893H9.63965Z" fill="black"/>
<path d="M9.63965 21.4893C9.92131 21.4893 10.1504 21.7183 10.1504 22C10.1504 22.2817 9.92131 22.5107 9.63965 22.5107H6.36035C6.07869 22.5107 5.84961 22.2817 5.84961 22C5.84961 21.7183 6.07869 21.4893 6.36035 21.4893H9.63965Z" fill="black"/>
<path d="M9.63965 19.4893C9.92131 19.4893 10.1504 19.7183 10.1504 20C10.1504 20.2817 9.92131 20.5107 9.63965 20.5107H6.36035C6.07869 20.5107 5.84961 20.2817 5.84961 20C5.84961 19.7183 6.07869 19.4893 6.36035 19.4893H9.63965Z" fill="black"/>
<path d="M18.1025 26.5C18.3352 26.5475 18.5107 26.7533 18.5107 27V29C18.5107 29.2467 18.3352 29.4525 18.1025 29.5L18 29.5107C17.7183 29.5106 17.4893 29.2819 17.4893 29V27C17.4893 26.7181 17.7183 26.4894 18 26.4893L18.1025 26.5Z" fill="black"/>
<path d="M17.6396 23.4893C17.9213 23.4893 18.1504 23.7183 18.1504 24C18.1504 24.2817 17.9213 24.5107 17.6396 24.5107H14.3604C14.0787 24.5107 13.8496 24.2817 13.8496 24C13.8496 23.7183 14.0787 23.4893 14.3604 23.4893H17.6396Z" fill="black"/>
<path d="M17.6396 21.4893C17.9213 21.4893 18.1504 21.7183 18.1504 22C18.1504 22.2817 17.9213 22.5107 17.6396 22.5107H14.3604C14.0787 22.5107 13.8496 22.2817 13.8496 22C13.8496 21.7183 14.0787 21.4893 14.3604 21.4893H17.6396Z" fill="black"/>
<path d="M17.6396 19.4893C17.9213 19.4893 18.1504 19.7183 18.1504 20C18.1504 20.2817 17.9213 20.5107 17.6396 20.5107H14.3604C14.0787 20.5107 13.8496 20.2817 13.8496 20C13.8496 19.7183 14.0787 19.4893 14.3604 19.4893H17.6396Z" fill="black"/>
<path d="M26.1025 26.5C26.3352 26.5475 26.5107 26.7533 26.5107 27V29C26.5107 29.2467 26.3352 29.4525 26.1025 29.5L26 29.5107C25.7178 29.5106 25.4902 29.2813 25.4902 29V27C25.4902 26.7187 25.7178 26.4894 26 26.4893L26.1025 26.5Z" fill="black"/>
<path d="M25.6406 23.4893C25.9222 23.4896 26.1504 23.7188 26.1504 24C26.1504 24.2812 25.9222 24.5104 25.6406 24.5107H22.3604C22.0787 24.5107 21.8496 24.2817 21.8496 24C21.8496 23.7183 22.0787 23.4893 22.3604 23.4893H25.6406Z" fill="black"/>
<path d="M25.6406 21.4893C25.9222 21.4896 26.1504 21.7188 26.1504 22C26.1504 22.2812 25.9222 22.5104 25.6406 22.5107H22.3604C22.0787 22.5107 21.8496 22.2817 21.8496 22C21.8496 21.7183 22.0787 21.4893 22.3604 21.4893H25.6406Z" fill="black"/>
<path d="M25.6406 19.4893C25.9222 19.4896 26.1504 19.7188 26.1504 20C26.1504 20.2812 25.9222 20.5104 25.6406 20.5107H22.3604C22.0787 20.5107 21.8496 20.2817 21.8496 20C21.8496 19.7183 22.0787 19.4893 22.3604 19.4893H25.6406Z" fill="black"/>
<path d="M16.6426 13.1816H15.4053V12.1611H16.6426V13.1816Z" fill="black"/>
<path d="M16.6426 11.7256H15.4053V10.7051H16.6426V11.7256Z" fill="black"/>
<path fill-rule="evenodd" clip-rule="evenodd" d="M17.751 8.53906C18.4705 8.37513 19.1578 8.92317 19.1582 9.66113V14.3447L19.1514 14.4473V14.4541C19.0922 15.0338 18.6019 15.4861 18.0068 15.4863H14.0039L13.9014 15.4814L13.8926 15.4805C13.3128 15.4212 12.8604 14.9311 12.8604 14.3359V9.68457C12.8607 8.9378 13.5621 8.38885 14.2871 8.56836L15.6943 8.91602C15.7909 8.93986 15.8908 8.94615 15.9893 8.93555L16.0879 8.91992L17.751 8.53906ZM16.6426 9.83887V10.2695H15.4053V9.89551L14.042 9.55762C13.9606 9.53753 13.8812 9.60014 13.8809 9.68457V14.3359C13.8809 14.4077 13.9389 14.4668 14.0107 14.4668H18.0068C18.0784 14.4665 18.1367 14.4076 18.1367 14.3359V9.66113C18.1364 9.57775 18.059 9.51625 17.9785 9.53418L16.6426 9.83887Z" fill="black"/>
<path d="M26.1025 11.5C26.3352 11.5475 26.5107 11.7533 26.5107 12V14C26.5107 14.2467 26.3352 14.4525 26.1025 14.5L26 14.5107C25.7178 14.5106 25.4902 14.2813 25.4902 14V12C25.4902 11.7187 25.7178 11.4894 26 11.4893L26.1025 11.5Z" fill="black"/>
<path d="M25.6406 8.48926C25.9222 8.48963 26.1504 8.71883 26.1504 9C26.1504 9.28117 25.9222 9.51037 25.6406 9.51074H22.3604C22.0787 9.51074 21.8496 9.28166 21.8496 9C21.8496 8.71833 22.0787 8.48926 22.3604 8.48926H25.6406Z" fill="black"/>
<path d="M25.6406 6.48926C25.9222 6.48963 26.1504 6.71883 26.1504 7C26.1504 7.28117 25.9222 7.51037 25.6406 7.51074H22.3604C22.0787 7.51074 21.8496 7.28166 21.8496 7C21.8496 6.71833 22.0787 6.48926 22.3604 6.48926H25.6406Z" fill="black"/>
<path d="M25.6406 4.48926C25.9222 4.48963 26.1504 4.71883 26.1504 5C26.1504 5.28117 25.9222 5.51037 25.6406 5.51074H22.3604C22.0787 5.51074 21.8496 5.28166 21.8496 5C21.8496 4.71833 22.0787 4.48926 22.3604 4.48926H25.6406Z" fill="black"/>
<path fill-rule="evenodd" clip-rule="evenodd" d="M27.8164 0.489258C28.0985 0.489463 28.3262 0.718668 28.3262 1V30.999L28.3154 31.1025C28.2687 31.3353 28.0636 31.5106 27.8164 31.5107H4C3.71779 31.5106 3.49023 31.2813 3.49023 31V1C3.49023 0.718678 3.71779 0.489362 4 0.489258H27.8164ZM4.51074 30.4893H11.4902V16.5107H4.51074V30.4893ZM12.5107 30.4893H19.4893V16.5107H12.5107V30.4893ZM20.5107 30.4893H27.3057V16.5107H20.5107V30.4893ZM4.51074 15.4893H5.90625C5.73389 15.4072 5.61347 15.2335 5.61328 15.0303V1.96777C5.61328 1.76668 5.73108 1.594 5.90039 1.51074H4.51074V15.4893ZM12.5107 15.4893H19.4893V7.83008H12.5107V15.4893ZM20.5107 15.4893H27.3057V1.51074H20.5107V15.4893ZM6.63477 14.5205H11.4199V2.47852H6.63477V14.5205ZM12.5107 6.80957H13.624C13.1931 6.67444 12.8716 6.29295 12.8242 5.83008L12.8232 5.82129L12.8242 5.82031L12.8193 5.71875L12.8184 5.71191V5.45703C12.8185 4.82202 13.3337 4.30664 13.9688 4.30664H14.3174C14.298 4.22291 14.2871 4.1355 14.2871 4.0459V3.66113C14.2873 3.02621 14.8025 2.51074 15.4375 2.51074H17.3672L17.4697 2.5166H17.4785L17.585 2.5332C18.1122 2.63797 18.5105 3.10327 18.5107 3.66113V4.05273L18.5049 4.15527V4.16406C18.4932 4.27836 18.4625 4.38737 18.4199 4.48926C18.7391 4.69371 18.9521 5.05007 18.9521 5.45703V5.71875L18.9463 5.82129V5.83008C18.8989 6.293 18.5765 6.67452 18.1455 6.80957H19.4893V1.51074H12.5107V6.80957ZM13.9688 5.32715C13.897 5.32715 13.839 5.38535 13.8389 5.45703V5.71191L13.8486 5.7627C13.8685 5.8094 13.915 5.8418 13.9688 5.8418H17.8018C17.8553 5.8416 17.9021 5.80926 17.9219 5.7627L17.9316 5.71191V5.45703C17.9315 5.38552 17.8732 5.32741 17.8018 5.32715H13.9688ZM15.4375 3.53125C15.3659 3.53125 15.3079 3.58954 15.3076 3.66113V4.0459C15.3076 4.1177 15.3657 4.17578 15.4375 4.17578H17.3604L17.4111 4.16602C17.4575 4.14601 17.4902 4.09938 17.4902 4.0459V3.66113C17.4901 3.60771 17.4576 3.56089 17.4111 3.54102L17.3604 3.53125H15.4375Z" fill="black"/>
</g>
<defs>
<clipPath id="clip0_172_4073">
<rect width="32" height="32" fill="white"/>
</clipPath>
</defs>
</svg>
