<svg width="32" height="32" viewBox="0 0 32 32" fill="none" xmlns="http://www.w3.org/2000/svg">
<g clip-path="url(#clip0_169_667)">
<rect width="32" height="32" fill="white"/>
<path d="M25.001 27.6553C25.3594 27.6557 25.6504 27.9471 25.6504 28.3057C25.65 28.6639 25.3592 28.9546 25.001 28.9551C24.6423 28.9551 24.3509 28.6642 24.3506 28.3057C24.3506 27.9468 24.6421 27.6553 25.001 27.6553Z" fill="black"/>
<path d="M25.001 21.1553C25.2827 21.1555 25.5118 21.3842 25.5117 21.666L25.5107 25.9453C25.5105 26.2266 25.2822 26.4546 25.001 26.4551C24.7194 26.4551 24.4904 26.2268 24.4902 25.9453V21.666C24.4902 21.3841 24.7191 21.1553 25.001 21.1553Z" fill="black"/>
<path fill-rule="evenodd" clip-rule="evenodd" d="M15.002 0.794922C23.0024 0.795365 29.5117 7.30509 29.5117 15.3057C29.5116 16.9092 29.2495 18.4788 28.7383 19.9805C30.4121 21.1594 31.5107 23.1063 31.5107 25.3057C31.5104 28.8939 28.5902 31.815 25.001 31.8154C22.8006 31.8154 20.8547 30.7167 19.6758 29.042C18.1751 29.5532 16.6044 29.8153 15.001 29.8154C7.00035 29.8154 0.489606 23.3062 0.489258 15.3057C0.489258 7.30481 7.00112 0.794922 15.002 0.794922ZM25.001 19.8154C21.9728 19.8154 19.5107 22.2775 19.5107 25.3057C19.5111 28.3335 21.974 30.7949 25.001 30.7949C28.0276 30.7945 30.4899 28.3332 30.4902 25.3057C30.4902 22.2778 28.0287 19.8159 25.001 19.8154ZM15.001 1.81543C7.56282 1.81543 1.51074 7.86751 1.51074 15.3057C1.51109 22.7435 7.56303 28.7949 15.001 28.7949C16.4209 28.7948 17.8116 28.5737 19.1445 28.1426C18.7981 27.4298 18.5775 26.6449 18.5127 25.8154H18.001C16.8772 25.8154 15.9928 25.5177 15.3906 24.916C14.7885 24.3139 14.4903 23.4296 14.4902 22.3057V18.7949C13.2689 18.6995 12.2787 18.2582 11.5879 17.5088C10.871 16.7307 10.4904 15.6378 10.4902 14.3057V9.30566C10.4902 9.02382 10.7191 8.79492 11.001 8.79492H12.4902V6.30664C12.4902 6.0248 12.7191 5.7959 13.001 5.7959C13.2824 5.79635 13.5107 6.02508 13.5107 6.30664V8.79492H16.4902V6.30566C16.4902 6.02382 16.7191 5.79492 17.001 5.79492C17.2824 5.79538 17.5107 6.0241 17.5107 6.30566V8.79492H19.001C19.2824 8.79538 19.5107 9.0241 19.5107 9.30566V14.3057C19.5106 15.6378 19.13 16.7307 18.4131 17.5088C17.7223 18.2583 16.7321 18.6995 15.5107 18.7949V22.3057C15.5108 23.1853 15.716 23.7989 16.1113 24.1943C16.5069 24.5896 17.1212 24.7949 18.001 24.7949H18.5127C18.7737 21.442 21.5821 18.7939 25.001 18.7939C26.0178 18.7941 26.9807 19.0317 27.8389 19.4492C28.2699 18.1163 28.4902 16.7257 28.4902 15.3057C28.4902 7.86779 22.4387 1.81589 15.001 1.81543ZM11.5107 14.3057C11.5108 14.8418 11.5984 15.717 12.0742 16.4541C12.5432 17.1801 13.4041 17.7949 15.001 17.7949C16.5976 17.7947 17.4579 17.1803 17.9268 16.4541C18.4028 15.7168 18.4902 14.8413 18.4902 14.3057V11.8154H11.5107V14.3057ZM11.5107 10.7949H18.4902V9.81543H13.0098C13.0071 9.81559 13.0038 9.81632 13.001 9.81641C12.9983 9.81641 12.9948 9.81564 12.9922 9.81543H11.5107V10.7949Z" fill="black"/>
</g>
<defs>
<clipPath id="clip0_169_667">
<rect width="32" height="32" fill="white"/>
</clipPath>
</defs>
</svg>
