<svg width="32" height="32" viewBox="0 0 32 32" fill="none" xmlns="http://www.w3.org/2000/svg">
<path fill-rule="evenodd" clip-rule="evenodd" d="M25.3831 4.59887C25.6622 4.31996 26.0409 4.27276 26.3538 4.33032C26.6702 4.38871 26.9782 4.55928 27.2249 4.80591C27.4716 5.05258 27.6421 5.36065 27.7005 5.677C27.7581 5.98991 27.7109 6.36867 27.432 6.6477C27.3315 6.74805 27.1319 6.89698 26.9202 7.04223C26.6954 7.1965 26.4152 7.37263 26.1302 7.53052C25.85 7.68568 25.5406 7.83625 25.262 7.92114C25.1241 7.96312 24.9655 7.99803 24.8079 7.99731C24.6543 7.99649 24.4285 7.9606 24.2493 7.78149C24.0707 7.60277 24.0334 7.37728 24.0325 7.2229C24.0319 7.06497 24.068 6.90586 24.1097 6.7688C24.1946 6.49033 24.3452 6.18078 24.5003 5.90063C24.6582 5.61566 24.8343 5.33539 24.9886 5.11059C25.1338 4.89898 25.2828 4.69932 25.3831 4.59887ZM26.098 5.33032C26.0627 5.3696 25.9656 5.49175 25.8304 5.68872C25.6914 5.89126 25.5315 6.1427 25.3919 6.39477C25.2962 6.56768 25.2159 6.73194 25.1566 6.87427C25.2988 6.81491 25.4633 6.73557 25.6361 6.63989C25.8884 6.50012 26.1406 6.34035 26.3431 6.20141C26.5381 6.06756 26.6592 5.96906 26.6995 5.93286L26.6976 5.86157C26.6811 5.77262 26.6223 5.64662 26.5032 5.52759C26.3841 5.40851 26.2581 5.3497 26.1693 5.33325C26.1296 5.32597 26.1073 5.32854 26.098 5.33032Z" fill="black"/>
<path fill-rule="evenodd" clip-rule="evenodd" d="M23.5814 3.39282C24.996 2.09398 27.1433 2.22176 28.4759 3.55395C29.8084 4.88648 29.937 7.03466 28.638 8.44946C27.4773 9.7133 25.9307 11.2723 24.5316 12.2649C23.4706 13.0175 21.3165 14.4327 20.3402 15.0706C20.1871 15.1708 20.1021 15.3466 20.1195 15.5286L20.263 17.0129C20.3988 18.4226 18.6932 19.2273 17.6917 18.2258L16.1282 16.6624L7.72102 25.0696L8.43587 25.7844C8.54097 25.8901 8.59355 26.0377 8.58235 26.1848C8.57086 26.3324 8.49637 26.4688 8.3763 26.5569L4.80598 29.178C4.60296 29.3265 4.32239 29.3038 4.14485 29.1272L2.90364 27.8879C2.72596 27.7102 2.70427 27.4279 2.85286 27.2249L5.47395 23.6545C5.56155 23.5352 5.6975 23.4591 5.84602 23.4475C5.99421 23.4363 6.14124 23.4898 6.24641 23.595L6.99934 24.3479L15.4066 15.9407L13.805 14.3391C12.8035 13.3376 13.6081 11.6319 15.0179 11.7678L16.5023 11.9114C16.6841 11.9288 16.86 11.8437 16.9603 11.6907C17.5981 10.7143 19.0133 8.56022 19.7659 7.49927C20.7586 6.10015 22.3175 4.55357 23.5814 3.39282ZM3.93489 27.4749L4.55501 28.095L7.29231 26.0862L5.94368 24.7366L3.93489 27.4749ZM27.7532 4.27661C26.7815 3.3052 25.2578 3.23947 24.2718 4.14477C23.0158 5.29833 21.5235 6.78405 20.597 8.09009C19.858 9.13189 18.457 11.2677 17.8157 12.2493C17.5077 12.7206 16.9625 12.9812 16.4027 12.927L14.9193 12.7834C14.4623 12.7397 14.202 13.2914 14.5267 13.6165L18.4134 17.5041C18.7383 17.829 19.2909 17.5685 19.2474 17.1116L19.1038 15.6282C19.0496 15.0683 19.3102 14.5231 19.7816 14.2151C20.7631 13.5738 22.899 12.1728 23.9407 11.4338C25.2468 10.5073 26.7325 9.01505 27.8861 7.75903C28.7914 6.77293 28.725 5.24843 27.7532 4.27661Z" fill="black"/>
<path d="M21.2288 17.2893L23.138 19.1985C24.638 18.8909 26.2533 19.2669 27.4749 20.3381L27.7181 20.5657L27.722 20.5696L27.9652 20.8313L27.9681 20.8352C29.0809 22.121 29.4348 23.8362 29.0335 25.3938L29.0316 25.3987L28.9368 25.7219L28.9056 25.8303H28.89C28.6699 26.2603 28.0978 26.3165 27.7757 25.9963L25.139 23.3606C24.6537 22.8755 23.8663 22.8758 23.3812 23.3606L23.2952 23.4543L23.2259 23.5481C22.9036 24.0309 22.956 24.6911 23.3822 25.1174L26.0179 27.7532C26.3627 28.1 26.2722 28.7404 25.7484 28.9153C24.1061 29.461 22.2341 29.1379 20.8568 27.9456L20.8529 27.9426L20.5921 27.7004L20.5882 27.6965C19.3439 26.4518 18.8909 24.7183 19.2191 23.1165L15.1546 19.052L15.0491 18.9456L15.1546 18.8391L15.6644 18.3293L15.7708 18.2239L15.8773 18.3293L20.349 22.801L20.3255 22.885L20.2708 23.0862C19.9107 24.43 20.2585 25.9212 21.3109 26.9739C22.2866 27.9494 23.6387 28.3187 24.9007 28.0813L22.6595 25.8401C21.7765 24.9568 21.7767 23.5216 22.6595 22.6379L22.6654 22.6331L22.8255 22.4885L22.8314 22.4836C23.7204 21.7589 25.0334 21.8108 25.8616 22.6389L28.1019 24.8791C28.3396 23.6166 27.971 22.2639 26.9954 21.2883C26.0084 20.3017 24.636 19.9354 23.3607 20.1907L23.1068 20.2493L22.9056 20.304L22.8216 20.3274L20.5062 18.011L20.4007 17.9045L20.5062 17.7981L21.0159 17.2893L21.1224 17.1838L21.2288 17.2893Z" fill="black"/>
<path d="M6.58333 2.94262C8.14797 2.53951 9.87008 2.89909 11.1575 4.02368L11.4095 4.25805L11.4124 4.26196L11.6429 4.50805L11.6468 4.51196L11.8411 4.74927C12.7561 5.93663 13.0647 7.4374 12.7777 8.83813L14.72 10.7805L14.8255 10.887L14.72 10.9934L14.2103 11.5032L14.1038 11.6086L13.9974 11.5032L11.6488 9.15454L11.6722 9.07055L11.7269 8.86938L11.7855 8.61548C12.0407 7.34002 11.674 5.96784 10.6868 4.98071C9.71082 4.00496 8.35793 3.63569 7.09505 3.87427L9.33723 6.11645C10.2201 6.99942 10.2227 8.43355 9.33919 9.31762L9.33333 9.32348L9.33235 9.32251L9.17219 9.46704L9.16634 9.47192C8.27731 10.1962 6.96511 10.1446 6.13704 9.31665L3.89485 7.07446C3.65688 8.33674 4.0266 9.68933 5.00227 10.6653C6.05512 11.7181 7.54689 12.0657 8.89094 11.7053L9.1761 11.6291L9.23762 11.6897L13.68 16.1321L13.7855 16.2385L13.68 16.345L13.1702 16.8547L13.0638 16.9602L12.9574 16.8547L8.85872 12.7551C7.36341 13.0611 5.75443 12.6886 4.5345 11.6243L4.53059 11.6213L4.28352 11.3918L4.27962 11.3879C2.88394 9.99192 2.47936 7.97959 3.06184 6.22778C3.23673 5.70463 3.87581 5.6137 4.22298 5.95923L6.85872 8.59399C7.31346 9.04872 8.03486 9.07794 8.52278 8.68091L8.61653 8.59497C9.10091 8.11015 9.10016 7.32373 8.61458 6.83813L5.97981 4.20337C5.63288 3.85483 5.72875 3.21494 6.24934 3.04028L6.2552 3.03833L6.57844 2.94458L6.58333 2.94262Z" fill="black"/>
</svg>
