<svg width="32" height="32" viewBox="0 0 32 32" fill="none" xmlns="http://www.w3.org/2000/svg">
<g clip-path="url(#clip0_169_670)">
<rect width="32" height="32" fill="white"/>
<path fill-rule="evenodd" clip-rule="evenodd" d="M4.30721 0.896856C6.74233 -0.151367 9.59616 0.388933 11.483 2.27576C13.1986 3.99167 13.8115 6.53321 13.0885 8.83338L23.1656 18.9105C25.4672 18.185 28.0081 18.8009 29.7232 20.517C31.6699 22.4647 32.1817 25.4419 30.9957 27.9271C30.9248 28.0731 30.7875 28.1788 30.6246 28.2074L30.6256 28.2084H30.6207L30.6197 28.2094L30.6187 28.2084C30.4589 28.2385 30.2896 28.1802 30.1754 28.0687L26.1724 24.0658C25.6284 23.5218 24.7627 23.4878 24.1793 23.9633L24.067 24.0658C23.4856 24.6472 23.4852 25.592 24.066 26.1713L28.0689 30.1732C28.184 30.2897 28.2389 30.4566 28.2105 30.6205C28.1824 30.7823 28.0776 30.9221 27.9293 30.9945L27.9283 30.9955C27.0358 31.4223 26.0792 31.6292 25.1285 31.6293C23.4368 31.6293 21.766 30.9707 20.5172 29.724C18.802 28.0079 18.1891 25.4659 18.9107 23.1664L8.83162 13.0892C6.53048 13.8095 3.99192 13.1967 2.27693 11.4828C0.389005 9.59565 -0.149864 6.74128 0.898026 4.30604L1.00447 4.07166C1.07541 3.92355 1.2138 3.8168 1.37752 3.78846H1.38045L1.50252 3.78357C1.6225 3.79274 1.73678 3.8431 1.82478 3.93201L5.82674 7.93397C6.40824 8.51308 7.35297 8.51389 7.93416 7.93397C8.51432 7.35253 8.51448 6.4069 7.93416 5.82557L3.93221 1.82361C3.81487 1.70616 3.76282 1.54058 3.78963 1.3783C3.81803 1.21559 3.92342 1.07519 4.07283 1.0033L4.30721 0.896856ZM10.7623 2.99647C9.29719 1.53153 7.13983 1.0325 5.20369 1.65272L8.65584 5.10486C9.12786 5.57707 9.3871 6.20834 9.38728 6.87928C9.38728 7.55045 9.12685 8.18239 8.65486 8.65369C7.70826 9.60136 6.05063 9.60021 5.10506 8.65369L1.65389 5.2035C1.03443 7.13889 1.53251 9.29603 2.99764 10.7621C4.51015 12.2743 6.78667 12.7703 8.79158 12.0267C8.84956 12.0056 8.90965 11.9955 8.96834 11.9955C9.10126 11.9956 9.23217 12.0484 9.32869 12.1449L19.856 22.6683C19.9974 22.8098 20.0434 23.0207 19.9742 23.2074C19.2298 25.2144 19.7264 27.4889 21.2398 29.0013C22.7049 30.4663 24.8612 30.9654 26.7965 30.3461L23.3453 26.8949C22.3678 25.9163 22.368 24.3246 23.3453 23.3451C24.3277 22.3694 25.9185 22.3696 26.8951 23.3451L30.3463 26.7963C30.9658 24.86 30.4685 22.7038 29.0025 21.2387C27.4902 19.7253 25.2166 19.2287 23.2076 19.973L23.2066 19.974C23.0208 20.0415 22.8122 19.9979 22.6695 19.8568L12.1441 9.33045C12.0027 9.18943 11.9579 8.97824 12.0269 8.79236C12.7722 6.78556 12.2747 4.5099 10.7623 2.99647Z" fill="black"/>
<path fill-rule="evenodd" clip-rule="evenodd" d="M12.6529 18.8334L13.1617 19.3441L13.2672 19.4496L13.1617 19.556L5.7906 26.9262L6.44881 27.5834C6.5477 27.6823 6.60143 27.8178 6.59724 27.9584C6.59301 28.0975 6.53384 28.2283 6.43123 28.3226L3.20174 31.2592C3.1051 31.3459 2.98012 31.3899 2.85799 31.39C2.72787 31.3899 2.59664 31.3386 2.49861 31.2406L0.755448 29.4974C0.562791 29.3046 0.555897 28.9962 0.73787 28.7943L3.67439 25.5648L3.75154 25.4955C3.83468 25.4351 3.935 25.401 4.03865 25.3978H4.04353C4.15251 25.398 4.30894 25.445 4.4117 25.5463L5.0699 26.2045L12.44 18.8334L12.5465 18.7279L12.6529 18.8334ZM1.8199 29.1195L2.87459 30.1752L5.34822 27.9262L4.06795 26.6459L1.8199 29.1195Z" fill="black"/>
<path d="M26.6822 1.21717C27.7789 0.120861 29.6845 0.122773 30.7789 1.21717C31.3256 1.76412 31.6275 2.49149 31.6275 3.26502C31.6274 4.03855 31.3256 4.76592 30.7789 5.31287L21.4674 14.6234L21.3619 14.7299L21.2554 14.6244L20.7457 14.1146L20.6392 14.0092L30.0562 4.59217C30.4117 4.23741 30.6069 3.76588 30.607 3.26502C30.607 2.82668 30.4578 2.41115 30.1822 2.07654L30.0562 1.93787C29.3269 1.20856 28.1362 1.20706 27.4049 1.93787L18.0933 11.2484L17.9879 11.3549L17.8814 11.2494L17.3717 10.7396L17.2652 10.6342L26.6822 1.21717Z" fill="black"/>
<path d="M28.0855 3.18787C28.2847 2.98908 28.608 2.98905 28.8072 3.18787C29.0065 3.38699 29.0062 3.71016 28.8072 3.90955L19.7808 12.9369L19.6744 13.0424L19.5689 12.9369L19.0582 12.4281L18.9517 12.3217L28.0855 3.18787Z" fill="black"/>
</g>
<defs>
<clipPath id="clip0_169_670">
<rect width="32" height="32" fill="white"/>
</clipPath>
</defs>
</svg>
