<svg width="32" height="32" viewBox="0 0 32 32" fill="none" xmlns="http://www.w3.org/2000/svg">
<g clip-path="url(#clip0_169_673)">
<rect width="32" height="32" fill="white"/>
<path fill-rule="evenodd" clip-rule="evenodd" d="M14.5706 8.3418C14.852 8.342 15.0801 8.57029 15.0804 8.85156L15.0696 8.9541C15.0617 8.99292 15.0477 9.02935 15.0315 9.06445C15.2652 9.1114 15.4407 9.31946 15.4407 9.56641V12.998C15.4403 13.2793 15.2119 13.5074 14.931 13.5078H12.427C12.1462 13.5076 11.9167 13.2797 11.9163 12.998V9.56641C11.9163 9.31957 12.0924 9.11173 12.3255 9.06445C12.3093 9.02941 12.2953 8.99286 12.2874 8.9541L12.2767 8.85156C12.2769 8.56991 12.5064 8.342 12.7874 8.3418H14.5706ZM12.9378 12.4873H14.4202V10.0771H12.9378V12.4873Z" fill="black"/>
<path fill-rule="evenodd" clip-rule="evenodd" d="M18.6761 10.7217C18.9576 10.7218 19.1868 10.9508 19.1868 11.2324V11.998C19.1865 12.8317 18.5096 13.5077 17.6761 13.5078H17.4095C16.5759 13.5078 15.8991 12.8318 15.8987 11.998V11.2324C15.8987 10.9508 16.1278 10.7217 16.4095 10.7217H18.6761ZM16.9202 11.998L16.93 12.0967C16.9758 12.3197 17.173 12.4873 17.4095 12.4873H17.6761C17.9466 12.4872 18.166 12.2681 18.1663 11.998V11.7432H16.9202V11.998Z" fill="black"/>
<path fill-rule="evenodd" clip-rule="evenodd" d="M24.1155 7.90918C26.6046 7.90938 28.6351 9.92768 28.6351 12.4199V12.998C28.6347 13.2798 28.4053 13.5078 28.1243 13.5078H20.1058C19.8249 13.5076 19.5954 13.2797 19.595 12.998V12.4199C19.595 9.92765 21.6265 7.90938 24.1155 7.90918ZM24.1155 8.93066C22.1866 8.93086 20.6165 10.4941 20.6165 12.4199V12.4873H21.2561V11.7734C21.2561 11.0415 21.7777 10.4295 22.469 10.291C22.4242 10.1956 22.4078 10.087 22.428 9.97949L22.4573 9.87988C22.5643 9.61966 22.8624 9.49554 23.1224 9.60156L23.6849 9.83203C23.8683 9.90733 23.982 10.0775 23.9974 10.2627H24.4007C24.4378 10.1325 24.5254 10.0166 24.6546 9.94922L25.1985 9.66602C25.448 9.53613 25.7557 9.63268 25.886 9.88184L25.9241 9.97754C25.9579 10.0951 25.9458 10.2183 25.8977 10.3262C26.5202 10.5129 26.9739 11.0905 26.9739 11.7734V12.4873H27.6145V12.4199C27.6145 10.5543 26.141 9.02825 24.2952 8.93457L24.1155 8.93066ZM22.7669 11.2842C22.4964 11.2844 22.2776 11.5029 22.2776 11.7734V12.4873H25.9524V11.7734C25.9524 11.5367 25.785 11.3396 25.5618 11.2939L25.4632 11.2842H22.7669Z" fill="black"/>
<path fill-rule="evenodd" clip-rule="evenodd" d="M18.6761 7.79102C18.9576 7.79112 19.1868 8.02016 19.1868 8.30176V9.06738C19.1864 9.901 18.5096 10.577 17.6761 10.5771H17.4095C16.5759 10.5771 15.8992 9.90104 15.8987 9.06738V8.30176C15.8987 8.02012 16.1278 7.79105 16.4095 7.79102H18.6761ZM16.9202 9.06738L16.93 9.16602C16.9759 9.389 17.173 9.55661 17.4095 9.55664H17.6761C17.9465 9.55654 18.1659 9.3374 18.1663 9.06738V8.8125H16.9202V9.06738Z" fill="black"/>
<path fill-rule="evenodd" clip-rule="evenodd" d="M29.6351 3.91113C29.8676 3.95866 30.0433 4.16459 30.0433 4.41113V30.1152H30.6458C30.9268 30.1153 31.1562 30.3433 31.1565 30.625L31.1458 30.7275C31.0983 30.9601 30.8923 31.1357 30.6458 31.1357H1.35478C1.10827 31.1357 0.902301 30.9601 0.854781 30.7275L0.844038 30.625C0.844382 30.3433 1.0737 30.1153 1.35478 30.1152H6.95537C6.47776 29.89 6.14405 29.4047 6.14384 28.8447C6.14382 28.7001 6.1663 28.5567 6.21025 28.4199C5.90676 28.2959 5.74519 27.9318 5.90556 27.6104L6.99345 25.4316L4.60185 18.2559L3.68779 16.8848C3.57262 16.7123 3.39754 16.5885 3.19658 16.5381L1.22099 16.0439C0.945579 15.975 0.778247 15.6961 0.846968 15.4209C0.915862 15.1457 1.19499 14.9784 1.47001 15.0469L3.70732 15.6064C3.98771 15.6769 4.23325 15.8492 4.39384 16.0898L5.34306 17.5137H16.5716C17.3663 17.5141 17.9283 18.2927 17.677 19.0469L15.6292 25.1885C15.4706 25.6639 15.025 25.9852 14.5237 25.9854H7.86748L7.13994 27.4395H15.6136C15.8967 27.4397 16.1279 27.6684 16.1282 27.9521C16.1282 28.2359 15.8972 28.4666 15.6136 28.4668H15.1028C15.1372 28.5871 15.1585 28.7135 15.1585 28.8447C15.1583 29.4046 14.8237 29.8899 14.346 30.1152H29.0227V26.1436H16.095V25.123H29.0227V14.9639H11.6321V17.0186H10.6116V4.41113C10.6116 4.13 10.8396 3.9007 11.1214 3.90039L11.2239 3.91113C11.4561 3.95888 11.6321 4.1646 11.6321 4.41113V6.23926H29.0227V4.41113C29.0227 4.13009 29.2509 3.90086 29.5325 3.90039L29.6351 3.91113ZM8.89873 28.4668C8.93338 28.5869 8.95534 28.7133 8.95537 28.8447C8.95516 29.4046 8.62052 29.8899 8.14287 30.1152H13.1585C12.6809 29.89 12.3472 29.4047 12.347 28.8447C12.3469 28.7158 12.3674 28.5891 12.4026 28.4668H8.89873ZM7.54912 28.4668C7.33643 28.4669 7.17155 28.6315 7.17119 28.8438C7.17119 29.0565 7.3364 29.2225 7.54912 29.2227C7.76142 29.2224 7.92705 29.0567 7.92705 28.8438C7.92668 28.6313 7.76139 28.4671 7.54912 28.4668ZM13.7522 28.4668C13.54 28.4671 13.3757 28.6314 13.3753 28.8438C13.3753 29.0567 13.5399 29.2224 13.7522 29.2227C13.9649 29.2225 14.1311 29.0565 14.1311 28.8438C14.1308 28.6316 13.9649 28.467 13.7522 28.4668ZM7.92021 24.958H8.89677V23.5039H7.43486L7.92021 24.958ZM9.92412 24.958H12.6185V23.5039H9.92412V24.958ZM13.6468 24.958H14.6224L15.1067 23.5039H13.6468V24.958ZM7.09306 22.4766H8.89677V21.0225H6.60771L7.09306 22.4766ZM9.92412 22.4766H12.6185V21.0225H9.92412V22.4766ZM13.6468 22.4766H15.4495L15.9339 21.0225H13.6468V22.4766ZM6.26591 19.9951H8.89677V18.541H5.78056L6.26591 19.9951ZM9.92412 19.9951H12.6185V18.541H9.92412V19.9951ZM13.6468 19.9951H16.2767L16.761 18.541H13.6468V19.9951ZM11.6321 13.9434H29.0227V7.25977H11.6321V13.9434Z" fill="black"/>
<path fill-rule="evenodd" clip-rule="evenodd" d="M21.1185 20.3135C21.3999 20.3136 21.6291 20.5427 21.6292 20.8242V24.6104C21.6291 24.8918 21.4 25.121 21.1185 25.1211H18.0696C17.788 25.1211 17.5589 24.8919 17.5589 24.6104V20.8242C17.559 20.5427 17.7881 20.3135 18.0696 20.3135H21.1185ZM18.5804 24.0996H20.6087V21.335H18.5804V24.0996Z" fill="black"/>
<path fill-rule="evenodd" clip-rule="evenodd" d="M24.7269 15.835C25.0084 15.8351 25.2376 16.0641 25.2376 16.3457V24.6113C25.237 24.8927 25.0078 25.121 24.7269 25.1211H22.4602C22.1792 25.1211 21.9501 24.8928 21.9495 24.6113V16.3457C21.9495 16.0641 22.1786 15.835 22.4602 15.835H24.7269ZM22.971 24.1006H24.2171V16.8564H22.971V24.1006Z" fill="black"/>
<path fill-rule="evenodd" clip-rule="evenodd" d="M28.3177 15.835C28.5993 15.835 28.8284 16.064 28.8284 16.3457V24.6113C28.8279 24.8928 28.5987 25.1211 28.3177 25.1211H26.0511C25.7702 25.1209 25.5409 24.8927 25.5403 24.6113V16.3457C25.5403 16.0642 25.7696 15.8352 26.0511 15.835H28.3177ZM26.5618 24.1006H27.8079V16.8564H26.5618V24.1006Z" fill="black"/>
<path d="M3.90263 7.2666C4.6715 7.26676 5.37644 7.69757 5.7288 8.38086L10.179 17.0186H9.03154L7.25615 13.5723C7.25397 13.6385 7.23884 13.7056 7.20927 13.7695C7.15062 13.8963 7.07796 14.2043 7.0872 14.6484C7.09625 15.08 7.18221 15.605 7.40361 16.1543C7.50878 16.4154 7.38255 16.713 7.12138 16.8184C6.86058 16.9232 6.56374 16.7971 6.4583 16.5361C6.18739 15.8643 6.07809 15.2157 6.06669 14.6689C6.05562 14.1349 6.13789 13.6574 6.28447 13.3408L6.33623 13.252C6.45669 13.0887 6.66498 13.0124 6.86259 13.0586L6.96025 13.0918L6.96123 13.0928C6.9856 13.1041 7.00792 13.1183 7.02959 13.1328L4.82255 8.84766C4.64516 8.50401 4.28971 8.28825 3.90263 8.28809C3.15069 8.28829 2.65047 9.06518 2.96123 9.75L6.26494 17.0186H5.14384L2.03251 10.1729C1.41465 8.81284 2.40858 7.26685 3.90263 7.2666Z" fill="black"/>
<path d="M14.2435 15.5049L14.3899 15.5127H14.3977C15.1727 15.5918 15.7811 16.2307 15.8138 17.0186H14.7894C14.7609 16.7778 14.5827 16.5833 14.3489 16.5352L14.2356 16.5244C13.9489 16.5246 13.715 16.7406 13.6819 17.0186H12.6575C12.6925 16.1766 13.3852 15.5041 14.2356 15.5039L14.2435 15.5049Z" fill="black"/>
<path d="M4.34697 9.9043C4.43635 9.63822 4.72456 9.49333 4.9915 9.58203C5.25879 9.67124 5.40243 9.96181 5.31377 10.2285C5.17985 10.6304 4.98021 11.2179 5.25029 11.9902C5.34317 12.2557 5.2027 12.5474 4.93681 12.6406C4.671 12.7332 4.38036 12.5923 4.2874 12.3271C3.8962 11.2082 4.20501 10.3304 4.34697 9.9043Z" fill="black"/>
<path fill-rule="evenodd" clip-rule="evenodd" d="M15.7425 1.03711C16.0236 1.03712 16.2529 1.2651 16.2532 1.54688L16.2425 1.64941C16.2013 1.85036 16.0418 2.00767 15.8401 2.04688C16.1319 2.32237 16.3147 2.71179 16.3147 3.14453V5.4834C16.3147 5.76455 16.087 5.99401 15.805 5.99414H12.427C12.1455 5.99394 11.9163 5.76494 11.9163 5.4834V3.14453C11.9164 2.71203 12.0993 2.32232 12.3909 2.04688C12.1899 2.00715 12.0306 1.8499 11.9895 1.64941L11.9788 1.54688C11.9791 1.26522 12.2086 1.03731 12.4895 1.03711H15.7425ZM13.427 2.65527C13.1567 2.65547 12.9379 2.87412 12.9378 3.14453V4.97363H15.2942V3.14453C15.2941 2.9079 15.1268 2.71069 14.9036 2.66504L14.805 2.65527H13.427Z" fill="black"/>
<path fill-rule="evenodd" clip-rule="evenodd" d="M20.0618 2.02148C20.343 2.02148 20.5723 2.24947 20.5726 2.53125L20.5618 2.63379C20.5287 2.79494 20.4187 2.92631 20.2727 2.99316C20.5474 3.26675 20.7171 3.64545 20.7171 4.06348V5.4834C20.7171 5.76506 20.488 5.99414 20.2063 5.99414H17.7581C17.4766 5.99394 17.2474 5.76494 17.2474 5.4834V4.06348C17.2474 3.64562 17.4172 3.26673 17.6917 2.99316C17.546 2.92621 17.4356 2.7948 17.4026 2.63379L17.3919 2.53125C17.3922 2.24959 17.6216 2.02168 17.9026 2.02148H20.0618ZM18.7581 3.57422C18.4877 3.57442 18.2689 3.79303 18.2688 4.06348V4.97363H19.6956V4.06348C19.6956 3.82671 19.5282 3.62958 19.305 3.58398L19.2063 3.57422H18.7581Z" fill="black"/>
<path fill-rule="evenodd" clip-rule="evenodd" d="M24.1526 2.82617C24.4337 2.82617 24.6629 3.05429 24.6634 3.33594L24.6526 3.43848C24.6197 3.59986 24.5097 3.73194 24.3636 3.79883C24.6382 4.07243 24.8079 4.45115 24.8079 4.86914V5.48438C24.8075 5.76602 24.5783 5.99414 24.2972 5.99414H21.8489C21.568 5.99394 21.3386 5.7659 21.3382 5.48438V4.86914C21.3382 4.45132 21.5081 4.0724 21.7825 3.79883C21.6366 3.73185 21.5264 3.59966 21.4935 3.43848L21.4827 3.33594C21.4831 3.05441 21.7126 2.82637 21.9935 2.82617H24.1526ZM22.8489 4.37988C22.5785 4.38008 22.3597 4.59864 22.3597 4.86914V4.97363H23.7864V4.86914C23.7864 4.63233 23.619 4.43525 23.3958 4.38965L23.2972 4.37988H22.8489Z" fill="black"/>
</g>
<defs>
<clipPath id="clip0_169_673">
<rect width="32" height="32" fill="white"/>
</clipPath>
</defs>
</svg>
