<svg width="32" height="32" viewBox="0 0 32 32" fill="none" xmlns="http://www.w3.org/2000/svg">
<g clip-path="url(#clip0_169_709)">
<rect width="32" height="32" fill="white"/>
<path fill-rule="evenodd" clip-rule="evenodd" d="M19.8398 0.845703C20.072 0.893032 20.2478 1.09809 20.248 1.34473V1.86523H31.1699V2.88574H31.1426V27.6328C31.1421 27.9139 30.9139 28.1413 30.6328 28.1416H29.7871V28.6611C30.1178 28.8633 30.3398 29.2268 30.3398 29.6426V30.1152H30.6455C30.9266 30.1152 31.1559 30.3433 31.1562 30.625L31.1455 30.7275C31.098 30.9601 30.8921 31.1357 30.6455 31.1357L26.8857 31.1367L26.4326 31.1357H1.35449C1.10795 31.1357 0.902017 30.9601 0.854492 30.7275L0.84375 30.625C0.844094 30.3433 1.07338 30.1152 1.35449 30.1152H2.84473V1.34473C2.84499 1.06355 3.07349 0.835492 3.35449 0.834961L3.45703 0.845703C3.68922 0.893032 3.86501 1.09809 3.86523 1.34473V1.86523H19.2275V1.34473C19.2278 1.06339 19.4561 0.83523 19.7373 0.834961L19.8398 0.845703ZM3.86523 7.89941L5.09277 6.43359C5.27371 6.21821 5.59676 6.18945 5.8125 6.37012C6.02811 6.55084 6.0563 6.87396 5.87598 7.08984L4.22656 9.05859V10.251C4.2774 10.3293 4.34602 10.4065 4.42188 10.4502C4.46357 10.4741 4.50675 10.4896 4.55762 10.4902C4.60926 10.4908 4.68236 10.4767 4.78125 10.4219C5.02767 10.2858 5.3373 10.3754 5.47363 10.6211C5.60947 10.8666 5.52211 11.1764 5.27637 11.3135C4.7688 11.5948 4.28571 11.5481 3.91211 11.333C3.89595 11.3237 3.88083 11.3126 3.86523 11.3027V19.1963C4.07366 19.2606 4.22652 19.4533 4.22656 19.6826V21.0596C4.27726 21.1375 4.34579 21.2149 4.42188 21.2588C4.46359 21.2827 4.50685 21.2982 4.55762 21.2988C4.60921 21.2994 4.68231 21.2853 4.78125 21.2305C5.0276 21.0943 5.33716 21.1835 5.47363 21.4287C5.6096 21.6744 5.52192 21.9851 5.27637 22.1221C4.7691 22.4033 4.28593 22.3578 3.91211 22.1426C3.896 22.1333 3.88078 22.1221 3.86523 22.1123V30.1152H19.2275V28.1348C19.2033 28.1383 19.1786 28.1425 19.1533 28.1426H14.3809C14.1216 28.1424 13.9033 27.947 13.874 27.6895C13.7549 26.6385 13.6455 25.3815 13.5469 23.9951C12.9505 24.3156 12.2693 24.499 11.5449 24.499H11.541L11.3301 24.4941L11.3262 24.4932C9.08508 24.3794 7.30273 22.5261 7.30273 20.2568V10.1455C7.30279 7.80302 9.20241 5.90332 11.5449 5.90332H11.5488L11.7588 5.9082L11.7627 5.90918C12.2514 5.93394 12.7182 6.04199 13.1494 6.21875C13.2022 4.88832 13.2847 3.74614 13.4014 2.88574H3.86523V7.89941ZM20.248 30.1152H22.9785V29.6426C22.9785 29.2405 23.1853 28.8863 23.498 28.6807V28.1416H22.4131C22.1695 28.1413 21.9599 27.9687 21.9131 27.7295C21.2934 24.5562 20.8099 19.5268 20.6201 14.71C20.4332 9.96504 20.5291 5.3409 21.0898 2.88574H20.248V30.1152ZM24.1289 29.5127C24.0571 29.5127 23.999 29.5708 23.999 29.6426V30.1152H25.4121V29.6426C25.4121 29.5708 25.354 29.5127 25.2822 29.5127H24.1289ZM25.9111 28.6787C26.2251 28.8842 26.4326 29.2395 26.4326 29.6426V30.1152H26.8857V29.6426C26.8857 29.2539 27.0787 28.9104 27.374 28.7021V28.1416H25.9111V28.6787ZM28.0361 29.5127C27.9643 29.5127 27.9063 29.5708 27.9062 29.6426V30.1152H29.3193V29.6426C29.3193 29.5709 29.261 29.513 29.1895 29.5127H28.0361ZM24.5186 28.4922H24.8906V28.1416H24.5186V28.4922ZM28.3945 28.4922H28.7666V28.1416H28.3945V28.4922ZM18.1689 4.27637C18.138 4.31912 18.1042 4.36188 18.0645 4.39941C17.9219 4.53366 17.6866 4.64254 17.417 4.55371C17.3384 4.52768 17.2727 4.4867 17.2168 4.44336C17.18 4.50807 17.1125 4.61172 16.9941 4.68652C16.8433 4.78157 16.6553 4.80307 16.4824 4.73633C16.3607 4.68912 16.2803 4.60903 16.2324 4.55371C16.2274 4.56182 16.2232 4.57118 16.2178 4.5791C16.1698 4.64882 16.087 4.74473 15.9561 4.80664C15.8092 4.87581 15.6506 4.87929 15.5098 4.83301C15.2823 4.75804 15.1416 4.56737 15.0674 4.45605C15.0487 4.42797 15.0314 4.39708 15.0127 4.36523C14.9126 4.46394 14.77 4.55343 14.5771 4.56055C14.4563 4.5648 14.3526 4.53396 14.2676 4.49219C14.0827 7.00225 14.055 10.7629 14.1445 14.6777C14.2491 19.249 14.511 23.9898 14.8408 27.1221H18.6426V4.44922C18.4401 4.45948 18.2785 4.37224 18.1689 4.27637ZM25.3203 3.4873C25.2268 3.59548 25.1082 3.72165 24.96 3.81836C24.7118 3.98013 24.39 4.06854 24.0166 3.96484C23.8412 3.91599 23.6697 3.82725 23.499 3.70605C23.3996 3.82784 23.2896 3.9318 23.166 4.01172C22.8588 4.2101 22.5288 4.23037 22.2354 4.13965C22.1208 4.10416 22.0153 4.05178 21.9189 3.99219C21.5372 6.45701 21.473 10.463 21.6387 14.6689C21.8193 19.254 22.2699 24.0038 22.8389 27.1221H30.123V4.14746C29.9603 4.16634 29.8004 4.14351 29.6572 4.09473C29.3796 3.99991 29.132 3.80921 28.9404 3.62793C28.9309 3.61886 28.9215 3.60877 28.9121 3.59961C28.8221 3.70773 28.7251 3.80265 28.6172 3.87793C28.3097 4.09203 27.9687 4.13361 27.6553 4.04199C27.4284 3.97551 27.2355 3.84522 27.0801 3.70117C27.0252 3.76974 26.9678 3.83364 26.9023 3.88672C26.763 3.99975 26.5961 4.07708 26.4082 4.09277C26.27 4.10418 26.1432 4.0799 26.0342 4.04102L25.9316 3.99805C25.6928 3.88316 25.4949 3.67972 25.3574 3.5293C25.3447 3.51534 25.3324 3.50084 25.3203 3.4873ZM11.5449 6.92383C9.76575 6.92383 8.3233 8.36634 8.32324 10.1455V20.2568C8.32324 22.0361 9.76571 23.4785 11.5449 23.4785L11.7178 23.4746C12.3732 23.4398 12.9748 23.2065 13.4688 22.8369C13.3096 20.321 13.1885 17.4774 13.125 14.7021C13.0652 12.0883 13.0573 9.51948 13.1143 7.33398C12.7304 7.11895 12.2991 6.97826 11.8389 6.93652L11.5449 6.92383ZM22.2969 2.99707C22.3984 3.09914 22.4839 3.14941 22.5371 3.16602C22.5575 3.17225 22.5683 3.17252 22.5742 3.17188C22.5797 3.1712 22.5915 3.16864 22.6123 3.15527C22.6542 3.12821 22.7325 3.05566 22.8281 2.88574H22.2021C22.2332 2.92399 22.2631 2.96306 22.2969 2.99707ZM29.6416 2.88672C29.7879 3.02514 29.9072 3.09995 29.9824 3.12695C30.0055 3.09208 30.0422 3.01999 30.0791 2.88574H29.6406L29.6416 2.88672ZM27.7148 2.89355C27.8115 3.00025 27.8936 3.04819 27.9414 3.0625C27.9593 3.06773 27.9703 3.06763 27.9785 3.06641C27.9872 3.06503 28.0048 3.06068 28.0332 3.04102C28.0687 3.01624 28.1198 2.96937 28.1797 2.88574H27.708C27.7103 2.88834 27.7125 2.89099 27.7148 2.89355ZM26.1543 2.88574C26.2204 2.95484 26.2711 3.00202 26.3096 3.0332C26.3333 3.00041 26.3626 2.9527 26.3975 2.88574H26.1543ZM15.5234 3.01758C15.5284 2.97441 15.5337 2.93033 15.5391 2.88574H15.4736C15.4909 2.93118 15.5074 2.97529 15.5234 3.01758ZM24.1035 2.88574C24.1882 2.94439 24.25 2.97119 24.29 2.98242C24.3214 2.99111 24.3397 2.99023 24.3506 2.98828C24.3621 2.98616 24.3775 2.98004 24.4023 2.96387C24.4311 2.94508 24.4608 2.91952 24.4941 2.88574H24.1035Z" fill="black"/>
</g>
<defs>
<clipPath id="clip0_169_709">
<rect width="32" height="32" fill="white"/>
</clipPath>
</defs>
</svg>
