<svg width="32" height="32" viewBox="0 0 32 32" fill="none" xmlns="http://www.w3.org/2000/svg">
<g clip-path="url(#clip0_172_3491)">
<rect width="32" height="32" fill="white"/>
<path d="M8.56543 6.88965C8.52314 7.16066 8.47993 7.44908 8.4375 7.75L8.42773 7.82324L8.36426 7.85938C7.39831 8.41607 6.74825 9.45851 6.74805 10.6523V20.7637C6.74805 22.4205 7.99927 23.7842 9.6084 23.9639L9.71484 23.9766L9.73828 24.0811C9.7953 24.3378 9.8488 24.5847 9.89844 24.8184L9.93945 25.0098L9.74414 24.999C7.50631 24.8818 5.72754 23.0306 5.72754 20.7637V10.6523C5.72777 8.87961 6.81654 7.36139 8.36035 6.72754L8.60645 6.62598L8.56543 6.88965Z" fill="black"/>
<path fill-rule="evenodd" clip-rule="evenodd" d="M28.748 0.845703C28.9802 0.893032 29.156 1.09809 29.1562 1.34473V30.625C29.1563 30.8715 28.9806 31.0775 28.748 31.125L28.7275 31.127V31.1357H3.1748V31.1006C2.98249 31.0272 2.84473 30.8426 2.84473 30.625V1.34473C2.84499 1.06355 3.07349 0.835492 3.35449 0.834961L3.45703 0.845703C3.68922 0.893032 3.86501 1.09809 3.86523 1.34473V1.86523H28.1357V1.34473C28.136 1.06339 28.3643 0.83523 28.6455 0.834961L28.748 0.845703ZM3.86523 30.1152H13.9785V29.6426C13.9785 29.2405 14.1853 28.8863 14.498 28.6807V28.1426H11.4648C11.2401 28.1425 11.0419 27.9946 10.9766 27.7803C10.0614 24.7751 9.35157 19.7463 9.07324 14.9316C8.93379 12.5191 8.90164 10.1457 9.00879 8.0918C9.11524 6.05164 9.36055 4.27972 9.79883 3.09668C9.82964 3.01363 9.88097 2.94152 9.94629 2.88574H3.86523V30.1152ZM15.1289 29.5127C15.0571 29.5127 14.999 29.5708 14.999 29.6426V30.1152H16.4121V29.6426C16.4121 29.5708 16.354 29.5127 16.2822 29.5127H15.1289ZM16.9111 28.6787C17.2251 28.8842 17.4326 29.2395 17.4326 29.6426V30.1152H18.8857V29.6426C18.8857 29.2539 19.0787 28.9104 19.374 28.7021V28.1426H16.9111V28.6787ZM20.0361 29.5127C19.9643 29.5127 19.9063 29.5708 19.9062 29.6426V30.1152H21.3193V29.6426C21.3193 29.5709 21.261 29.513 21.1895 29.5127H20.0361ZM23.8418 2.88574C23.9525 2.97981 24.0224 3.11917 24.0225 3.27344V27.6318C24.0225 27.9129 23.7945 28.1423 23.5127 28.1426H21.7871V28.6611C22.1178 28.8633 22.3398 29.2268 22.3398 29.6426V30.1152H28.1357V15.7246C28.1093 16.5507 28.0721 17.4118 28.0352 18.252C27.9708 19.7156 27.9351 21.126 27.8945 22.2334C27.8744 22.7829 27.8515 23.2599 27.8252 23.623C27.8121 23.8033 27.7991 23.9643 27.7812 24.0947C27.7661 24.2057 27.7407 24.3556 27.6885 24.4736C27.6217 24.6243 27.5284 24.7898 27.4072 24.9395L27.2764 25.083C27.0895 25.2633 26.7981 25.4441 26.4277 25.4033C26.0644 25.363 25.771 25.1252 25.54 24.8135C25.3062 24.4977 25.0873 24.0424 24.8799 23.4277C24.3319 21.8031 24.6096 19.7073 25.0605 17.8564C25.5159 15.9873 26.1827 14.2398 26.501 13.3047C26.7613 12.5396 26.9076 11.9685 26.9238 11.5869C26.9248 11.5636 26.9238 11.5418 26.9238 11.5215C26.6993 11.5209 26.4595 11.4633 26.2139 11.3271C25.9677 11.1902 25.8807 10.8804 26.0166 10.6348C26.139 10.4142 26.4003 10.32 26.6309 10.4014C26.692 10.3424 26.7682 10.2982 26.8545 10.2754L26.9658 10.2539C27.0597 10.2426 27.1569 10.2488 27.2539 10.2754C27.2566 10.2714 27.2611 10.2686 27.2637 10.2646V9.07227L25.6143 7.10352C25.4335 6.88761 25.4619 6.56463 25.6777 6.38379C25.8936 6.20304 26.2166 6.23149 26.3975 6.44727L28.1357 8.52246V2.88574H23.8418ZM15.5186 28.4922H15.8906V28.1426H15.5186V28.4922ZM20.3945 28.4922H20.7666V28.1426H20.3945V28.4922ZM15.6152 3.99219C15.4437 4.14364 15.1957 4.36117 14.8896 4.50098C14.5623 4.65047 14.1646 4.71496 13.7207 4.56641C13.4524 4.47655 13.1919 4.31266 12.9297 4.08008C12.7322 4.33039 12.5236 4.52389 12.292 4.64746C11.884 4.86481 11.4806 4.84281 11.1377 4.70117C10.8936 4.60018 10.6836 4.44049 10.5117 4.28223C10.27 5.28209 10.1077 6.60441 10.0273 8.14453C9.92265 10.1513 9.95291 12.486 10.0908 14.8721C10.3561 19.461 11.0193 24.1913 11.8506 27.1221H23.002V5.00391C22.8489 5.08629 22.6833 5.13113 22.5098 5.13184C22.2816 5.13254 22.0781 5.05841 21.9131 4.96777C21.5977 4.79443 21.3189 4.5019 21.1055 4.26465C21.0536 4.20699 21.0047 4.15069 20.958 4.09766C20.7472 4.3776 20.5258 4.59233 20.2812 4.73047C19.8612 4.96746 19.4398 4.9578 19.0762 4.80859C18.7386 4.67 18.4666 4.41943 18.2666 4.19434C18.2522 4.17818 18.2395 4.16077 18.2256 4.14453C17.8539 4.58236 17.4104 4.85383 16.8848 4.80664C16.5344 4.77497 16.2309 4.60401 15.9795 4.38379C15.8503 4.27057 15.7296 4.13746 15.6152 3.99219ZM27.1436 14.5557C26.8053 15.5166 26.3741 16.7716 26.0508 18.0986C25.6051 19.9284 25.3987 21.7735 25.8467 23.1016C26.0378 23.668 26.2159 24.0111 26.3604 24.2061C26.4421 24.3163 26.4988 24.3621 26.5273 24.3799C26.5362 24.3739 26.551 24.3654 26.5684 24.3486L26.6172 24.2959C26.6629 24.2385 26.7084 24.1618 26.748 24.0752C26.7518 24.0579 26.7607 24.0206 26.7695 23.9561C26.7831 23.8565 26.7962 23.7201 26.8086 23.5488C26.8335 23.2054 26.8539 22.7446 26.874 22.1963C26.9139 21.1063 26.9512 19.6731 27.0156 18.207C27.0707 16.9547 27.1261 15.6827 27.1436 14.5557ZM28.1357 10.7969C28.0796 10.8863 28.009 10.9791 27.9248 11.0684C27.9369 11.1074 27.9489 11.1462 27.959 11.1846C28.0504 11.5321 28.1048 11.9852 28.1357 12.498V10.7969ZM21.2227 2.89258C21.4318 3.07907 21.6749 3.37263 21.8633 3.58203C22.0809 3.82394 22.2577 3.99364 22.4043 4.07422C22.4705 4.11056 22.5019 4.11231 22.5059 4.1123C22.5067 4.11227 22.5077 4.11203 22.5098 4.11133C22.5136 4.10991 22.5241 4.10454 22.542 4.09082C22.6387 4.0162 22.824 3.77313 23.0254 3.12305C23.0551 3.02728 23.1115 2.94672 23.1836 2.88574H21.2129C21.2159 2.88829 21.2197 2.88996 21.2227 2.89258ZM18.5967 2.9375L18.6367 2.99023L18.8164 3.25C18.8819 3.34007 18.9527 3.43141 19.0293 3.51758C19.1864 3.69434 19.3345 3.81242 19.4629 3.86523C19.5181 3.8879 19.5667 3.89754 19.6133 3.89551C19.6596 3.89342 19.7142 3.87909 19.7803 3.8418C19.9323 3.75566 20.1624 3.53716 20.4355 3.03125L20.4434 3.01855L20.4893 2.95117L20.501 2.93652C20.5172 2.91811 20.5351 2.90151 20.5537 2.88574H18.54C18.5596 2.90214 18.5797 2.91809 18.5967 2.9375ZM10.6553 2.93066C10.8205 3.11269 10.9165 3.24481 11.0957 3.42871C11.2577 3.59494 11.402 3.70692 11.5273 3.75879C11.6277 3.80024 11.7086 3.80335 11.8125 3.74805C11.9446 3.67755 12.1552 3.48868 12.4121 3.02637L12.4219 3.01074L12.4736 2.93945L12.4854 2.9248C12.4986 2.91063 12.5136 2.89825 12.5283 2.88574H10.6084C10.6248 2.89969 10.6406 2.91452 10.6553 2.93066ZM16.0645 2.88574C16.1045 2.91991 16.1403 2.96015 16.1689 3.00684C16.3394 3.28467 16.5026 3.48586 16.6514 3.61621C16.7999 3.74638 16.9081 3.78382 16.9766 3.79004C17.0755 3.79876 17.3599 3.74448 17.7686 3.02246L17.7793 3.00586L17.834 2.93262L17.8467 2.91797C17.8583 2.90599 17.8721 2.89644 17.8848 2.88574H16.0645ZM13.1865 2.88574C13.209 2.90484 13.2308 2.92513 13.25 2.94824C13.6012 3.37306 13.8677 3.54029 14.0449 3.59961C14.2032 3.65248 14.3319 3.63343 14.4658 3.57227C14.6194 3.50201 14.7676 3.38174 14.9434 3.22656C15.0228 3.15646 15.1193 3.06961 15.209 2.99902C15.2525 2.96479 15.3066 2.92407 15.3691 2.88574H13.1865Z" fill="black"/>
</g>
<defs>
<clipPath id="clip0_172_3491">
<rect width="32" height="32" fill="white"/>
</clipPath>
</defs>
</svg>
