<svg width="32" height="32" viewBox="0 0 32 32" fill="none" xmlns="http://www.w3.org/2000/svg">
<g clip-path="url(#clip0_169_803)">
<rect width="32" height="32" fill="white"/>
<path fill-rule="evenodd" clip-rule="evenodd" d="M23.8359 0.695989C24.1982 0.535785 24.6234 0.697775 24.7852 1.06122L29.7109 12.1745C30.2605 13.4146 30.5449 14.7566 30.5449 16.113V29.905H30.6455C31.042 29.905 31.3656 30.2268 31.3662 30.6247L31.3516 30.7702C31.2842 31.0982 30.9933 31.3454 30.6455 31.3454H1.35449C1.00666 31.3454 0.715759 31.0982 0.648438 30.7702L0.633789 30.6247C0.634408 30.2268 0.958041 29.905 1.35449 29.905H1.45508V16.113C1.45514 14.7566 1.73946 13.4146 2.28906 12.1745L7.21484 1.0622C7.37643 0.69876 7.80178 0.53606 8.16406 0.695989C8.52668 0.856709 8.69241 1.28099 8.53125 1.64521L3.60645 12.7575C3.19673 13.6819 2.95999 14.6731 2.90723 15.6804L2.89648 16.113V29.905H3.81543V25.4987C3.81543 25.4915 3.81717 25.4844 3.81738 25.4772C3.81851 25.441 3.82152 25.4047 3.82812 25.3688C3.83048 25.356 3.83388 25.3434 3.83691 25.3308C3.84336 25.304 3.85177 25.2777 3.86133 25.2517C3.86746 25.2349 3.87257 25.218 3.87988 25.2018L4.87598 22.8991L4.88574 22.8776L4.91016 22.8298L4.9248 22.8034C4.93349 22.7895 4.94357 22.7766 4.95312 22.7634V20.2751C4.95312 20.125 4.99848 19.9853 5.07715 19.8698L5.07812 19.8688L5.94629 18.5944V16.3376C5.94629 16.1845 5.99457 16.0423 6.07617 15.9255L6.82715 14.8298V13.1579C6.82715 13.1472 6.82961 13.1363 6.83008 13.1257C6.83114 13.1012 6.83334 13.0768 6.83691 13.0524C6.84053 13.0278 6.84552 13.0039 6.85156 12.9802C6.8565 12.9607 6.86254 12.9417 6.86914 12.9226C6.87818 12.8965 6.88756 12.871 6.89941 12.8464C6.9074 12.8298 6.91642 12.8137 6.92578 12.7976C6.94062 12.772 6.95685 12.7477 6.97461 12.7243C6.97974 12.7175 6.98385 12.7095 6.98926 12.7028L7.58203 11.9743V10.6716C7.58203 10.6496 7.58509 10.628 7.58887 10.6071C7.60279 10.4527 7.6636 10.3012 7.77734 10.1794L8.43848 9.4704V8.37079C8.43849 8.36021 8.4405 8.3499 8.44141 8.33954C8.44768 8.18781 8.49978 8.03694 8.60449 7.91083L9.20117 7.19306C9.21021 7.18218 9.22093 7.173 9.23047 7.16279V6.07099C9.23047 6.06508 9.23116 6.05925 9.23145 6.05341C9.23479 5.91128 9.27968 5.76856 9.37012 5.64521L9.89746 4.92646C10.0324 4.74271 10.2478 4.63188 10.4775 4.63154H21.5215L21.5674 4.63447L21.6514 4.64521L21.6895 4.65302C21.8527 4.69218 22.0004 4.78752 22.1025 4.92646L22.6309 5.64521L22.7051 5.77118C22.7476 5.86383 22.7673 5.96276 22.7686 6.06122C22.7686 6.06448 22.7705 6.06771 22.7705 6.07099V7.16376C22.7796 7.17356 22.7902 7.18265 22.7988 7.19306L23.3955 7.91083C23.4924 8.0276 23.5431 8.16648 23.5557 8.30732C23.5594 8.32796 23.5625 8.3491 23.5625 8.37079V9.4704L24.2246 10.1794C24.3427 10.3058 24.4018 10.4638 24.4121 10.6237C24.4142 10.6394 24.418 10.6553 24.418 10.6716V11.9743L25.0059 12.697C25.0362 12.7334 25.0622 12.7732 25.085 12.8151L25.0918 12.8249C25.0973 12.8355 25.1005 12.8473 25.1055 12.8581C25.1163 12.8817 25.1265 12.9055 25.1348 12.9304C25.1387 12.9423 25.1412 12.9545 25.1445 12.9665C25.152 12.9934 25.1588 13.0205 25.1631 13.0485C25.1651 13.0618 25.1657 13.0752 25.167 13.0886C25.1692 13.1114 25.1738 13.1345 25.1738 13.1579V14.8298L25.9277 15.9304C25.9315 15.9359 25.9341 15.9423 25.9375 15.9479C26.0102 16.0604 26.0537 16.1939 26.0537 16.3376V18.5925L26.9229 19.8698C26.9275 19.8766 26.9305 19.8843 26.9346 19.8913C27.0051 20.0026 27.0479 20.1338 27.0479 20.2751V22.7643C27.0779 22.8061 27.1051 22.8508 27.126 22.8991L28.126 25.2136C28.1298 25.2225 28.1323 25.2319 28.1357 25.2409C28.1387 25.2486 28.1409 25.2565 28.1436 25.2643C28.1536 25.2933 28.1618 25.3225 28.168 25.3522C28.1697 25.3607 28.1724 25.369 28.1738 25.3776C28.1798 25.4129 28.1819 25.4485 28.1826 25.4841C28.1827 25.489 28.1846 25.4938 28.1846 25.4987V29.905H29.1035V16.113L29.0928 15.6804C29.04 14.6731 28.8033 13.6819 28.3936 12.7575L23.4688 1.64521C23.3077 1.28103 23.4734 0.856683 23.8359 0.695989ZM5.25684 29.8718H26.7441V26.2194H5.25684V29.8718ZM5.63184 24.778H26.3691L25.9912 23.905H6.00977L5.63184 24.778ZM6.39453 20.4968V22.4636H25.6074V20.4977L25.0459 19.6735H6.95508L6.39453 20.4968ZM7.3877 16.5583V18.2321H24.6133V16.5593L24.1406 15.8688H7.86035L7.3877 16.5583ZM8.26855 13.4118V14.4274H23.7334V13.4128L23.1992 12.7575H8.80176L8.26855 13.4118ZM9.50098 10.444L9.02344 10.9548V11.3161H22.9775V10.9538L22.501 10.444C22.4954 10.4381 22.4917 10.4306 22.4863 10.4245H9.51562C9.51031 10.4306 9.50653 10.4381 9.50098 10.444ZM9.87988 8.62958V8.98407H22.1221V8.63056L21.7236 8.15107H10.2773L9.87988 8.62958ZM10.6719 6.30536V6.71064H21.3301V6.30732L21.1582 6.07294H10.8428L10.6719 6.30536Z" fill="black"/>
</g>
<defs>
<clipPath id="clip0_169_803">
<rect width="32" height="32" fill="white"/>
</clipPath>
</defs>
</svg>
