<svg width="32" height="32" viewBox="0 0 32 32" fill="none" xmlns="http://www.w3.org/2000/svg">
<g clip-path="url(#clip0_169_2990)">
<rect width="32" height="32" fill="white"/>
<path d="M16.1885 15.7266L16.3594 15.7402C18.1118 15.9265 19.4961 17.5309 19.4951 19.3857L19.4922 21.6475C19.4899 22.672 18.8769 23.5847 17.9287 23.9717L17.8994 23.9824V29.6309C17.8992 29.9126 17.6705 30.1416 17.3887 30.1416C17.1071 30.1413 16.8791 29.9125 16.8789 29.6309V23.6387C16.8789 23.4314 17.005 23.245 17.1963 23.166L17.1973 23.165L17.5439 23.0244C18.1072 22.7955 18.4715 22.2543 18.4717 21.6455L18.4736 19.3828C18.4744 17.987 17.4153 16.8105 16.1348 16.7422C15.5303 16.7143 14.9576 16.8922 14.4912 17.252L14.2979 17.417C13.8008 17.8897 13.5265 18.5274 13.5264 19.2119L13.5254 21.6396C13.5256 22.2514 13.8912 22.7935 14.457 23.0215L14.7666 23.1465C14.8621 23.1851 14.949 23.2541 15.0117 23.3359C15.074 23.4174 15.1221 23.5238 15.1221 23.6387V29.6289C15.1219 29.9104 14.8929 30.1396 14.6113 30.1396C14.3299 30.1395 14.1018 29.9103 14.1016 29.6289V23.9814L14.0742 23.9707C13.1208 23.5849 12.5051 22.6695 12.5059 21.6426L12.5068 19.2139C12.507 18.247 12.8941 17.3468 13.5957 16.6807C14.2977 16.0153 15.2177 15.6765 16.1885 15.7266Z" fill="black"/>
<path d="M9.6123 8.14941C9.89406 8.14968 10.122 8.37903 10.1221 8.66016V29.167C10.1221 29.4482 9.89408 29.6775 9.6123 29.6777L9.50977 29.667C9.27718 29.6195 9.10156 29.4135 9.10156 29.167V8.66016C9.1016 8.41364 9.2772 8.20768 9.50977 8.16016L9.6123 8.14941Z" fill="black"/>
<path d="M22.2773 8.14941C22.5589 8.14995 22.7871 8.37919 22.7871 8.66016V29.167C22.7871 29.448 22.5589 29.6772 22.2773 29.6777L22.1748 29.667C21.9422 29.6195 21.7666 29.4135 21.7666 29.167V8.66016C21.7666 8.41364 21.9422 8.20768 22.1748 8.16016L22.2773 8.14941Z" fill="black"/>
<path fill-rule="evenodd" clip-rule="evenodd" d="M16 11.4902C17.1086 11.4904 18.0096 12.3914 18.0098 13.5C18.0096 14.6086 17.1075 15.5106 16 15.5107C14.8923 15.5107 13.9895 14.6087 13.9893 13.5C13.9895 12.3913 14.8913 11.4902 16 11.4902ZM16 12.5107C15.455 12.5107 15.01 12.955 15.0098 13.5C15.01 14.045 15.455 14.4902 16 14.4902C16.5449 14.49 16.9891 14.0449 16.9893 13.5C16.9891 12.9551 16.5449 12.5109 16 12.5107Z" fill="black"/>
<path fill-rule="evenodd" clip-rule="evenodd" d="M26 6.49023C26.2816 6.49042 26.5096 6.71844 26.5098 7V30.7305C26.5096 31.012 26.2816 31.241 26 31.2412H6C5.71828 31.2412 5.48946 31.0121 5.48926 30.7305V7C5.48946 6.71833 5.71828 6.49023 6 6.49023H26ZM6.50977 30.2207H25.4893V7.51074H6.50977V30.2207Z" fill="black"/>
<path d="M1 0.850586C1.2815 0.850776 1.50976 1.07881 1.50977 1.36035V30.6406C1.50943 30.9219 1.2813 31.1502 1 31.1504C0.718542 31.1504 0.489595 30.922 0.489258 30.6406V1.36035C0.489267 1.07869 0.71834 0.850586 1 0.850586Z" fill="black"/>
<path d="M31 0.850586C31.2819 0.850586 31.5108 1.07938 31.5107 1.36133L31.5098 30.6406C31.5094 30.9219 31.2813 31.1502 31 31.1504C30.7185 31.1504 30.4896 30.922 30.4893 30.6406V1.36133C30.4893 1.07944 30.7181 0.850669 31 0.850586Z" fill="black"/>
<path d="M16.8945 1.35547C17.0937 1.15665 17.4162 1.15648 17.6152 1.35547L19.999 3.74023L22.3838 1.35645C22.5829 1.15732 22.9061 1.15752 23.1055 1.35645C23.3047 1.5557 23.3048 1.87886 23.1055 2.07812L20.1055 5.07715L20 5.18359L16.8936 2.07715C16.6945 1.87807 16.6956 1.5546 16.8945 1.35547Z" fill="black"/>
<path d="M15.1055 3.84766C15.3041 4.04656 15.3043 4.36956 15.1055 4.56836C14.9067 4.76672 14.5845 4.76673 14.3857 4.56836L11.999 2.18262L9.61328 4.56836C9.41443 4.76664 9.09228 4.76681 8.89355 4.56836C8.69476 4.36956 8.69491 4.04656 8.89355 3.84766L11.8936 0.84668L12 0.741211L15.1055 3.84766Z" fill="black"/>
</g>
<defs>
<clipPath id="clip0_169_2990">
<rect width="32" height="32" fill="white"/>
</clipPath>
</defs>
</svg>
