<svg width="32" height="32" viewBox="0 0 32 32" fill="none" xmlns="http://www.w3.org/2000/svg">
<g clip-path="url(#clip0_169_883)">
<rect width="32" height="32" fill="white"/>
<path d="M30.6348 30.2256C30.9162 30.2259 31.1455 30.4548 31.1455 30.7363C31.1455 31.0178 30.9162 31.2468 30.6348 31.2471H1.38672C1.10505 31.2471 0.875977 31.018 0.875977 30.7363C0.875985 30.4547 1.10506 30.2256 1.38672 30.2256H30.6348Z" fill="black"/>
<path fill-rule="evenodd" clip-rule="evenodd" d="M9.63574 15.6475C10.523 14.1459 12.5913 13.9471 13.7588 15.1611L13.8691 15.2832L13.8721 15.2871L13.9736 15.415L13.9814 15.4248L13.9883 15.4336L14.0723 15.5566L14.0791 15.5664L14.082 15.5723L16.4336 19.2373H21.3857C22.1644 19.2374 22.8944 19.5836 23.3857 20.167L23.4805 20.2871L23.4834 20.29L23.5723 20.417L23.5791 20.4277L23.584 20.4385L23.6543 20.5537L23.6602 20.5625L23.666 20.5723L26.834 26.2246C27.3279 27.1057 27.0218 28.2185 26.1523 28.7256H30.6348C30.9162 28.7259 31.1455 28.9548 31.1455 29.2363C31.1455 29.5178 30.9162 29.7468 30.6348 29.7471H1.38672C1.10505 29.7471 0.875977 29.518 0.875977 29.2363C0.875985 28.9547 1.10506 28.7256 1.38672 28.7256H11.2656C11.2211 28.65 11.1945 28.5628 11.1943 28.4688V26.9434H1.38672C1.10517 26.9434 0.876167 26.7141 0.875977 26.4326C0.875977 26.151 1.10505 25.9219 1.38672 25.9219H18.3408C18.6223 25.9221 18.8516 26.1511 18.8516 26.4326C18.8514 26.714 18.6221 26.9431 18.3408 26.9434H12.2158V28.4688C12.2157 28.5628 12.1881 28.65 12.1436 28.7256H24.292C24.0159 28.5652 23.7769 28.3327 23.6094 28.0342L20.751 22.9346H18.4521C18.6801 22.9857 18.8516 23.1894 18.8516 23.4326C18.8514 23.714 18.6221 23.9431 18.3408 23.9434H1.38672C1.10517 23.9434 0.876167 23.7141 0.875977 23.4326C0.875977 23.151 1.10505 22.9219 1.38672 22.9219H8.77148C8.5577 22.899 8.34418 22.8403 8.14062 22.7383C7.22855 22.2807 6.85782 21.1696 7.31543 20.2568L9.54688 15.8115L9.54883 15.8066L9.55469 15.7959L9.62695 15.6631L9.63281 15.6523L9.63574 15.6475ZM21.4805 20.2627C21.4331 20.52 21.3231 20.7592 21.1934 20.9668C21.0249 21.2362 20.803 21.4895 20.5742 21.7139C20.5039 21.7828 20.4306 21.8496 20.3574 21.915H21.3486L21.4951 22.1748L24.499 27.5342C24.7227 27.933 25.2285 28.0764 25.6279 27.8525C26.0261 27.6287 26.1678 27.1237 25.9443 26.7246L22.7754 21.0723L22.7197 20.9785C22.4443 20.5572 21.9839 20.2928 21.4805 20.2627ZM10.6211 21.9141C10.3295 22.4954 9.77252 22.8549 9.1709 22.9219H15.5947C14.8009 22.8464 14.0785 22.4122 13.6426 21.7334L11.9971 19.1689L10.6211 21.9141ZM14.79 18.5635C14.7337 18.6113 14.6771 18.6571 14.6211 18.6982C14.4503 18.8237 14.2531 18.9458 14.0576 19.0566C13.8242 19.189 13.5796 19.3097 13.3643 19.4121L14.5 21.1826C14.7929 21.6389 15.2999 21.915 15.8428 21.915H18.6572C18.6689 21.9066 18.6798 21.8962 18.6924 21.8887C19.0015 21.7021 19.4714 21.3667 19.8604 20.9854C20.0544 20.7951 20.2172 20.6047 20.3291 20.4258C20.3673 20.3646 20.3958 20.3079 20.4189 20.2568H15.877L15.833 20.1885L15.7266 20.0234L14.79 18.5635ZM13.0225 15.8672C12.3147 15.1352 11.0617 15.2553 10.5205 16.1572L10.5195 16.1562L10.4492 16.2852L8.22754 20.7139C8.02269 21.1225 8.1886 21.6208 8.59766 21.8262C9.00627 22.0309 9.50363 21.8658 9.70898 21.457L11.4873 17.9111L11.7715 17.3467L11.8896 17.1113L12.0312 17.333L12.8076 18.5449C13.0293 18.4433 13.3013 18.3136 13.5547 18.1699C13.73 18.0705 13.8904 17.9704 14.0176 17.877C14.1396 17.7873 14.2024 17.7215 14.2285 17.6885L13.2324 16.1357L13.1582 16.0273L13.0225 15.8672Z" fill="black"/>
<path d="M18.3408 24.4219C18.6223 24.4221 18.8516 24.6511 18.8516 24.9326C18.8514 25.214 18.6221 25.4431 18.3408 25.4434H1.38672C1.10517 25.4434 0.876167 25.2141 0.875977 24.9326C0.875977 24.651 1.10505 24.4219 1.38672 24.4219H18.3408Z" fill="black"/>
<path d="M1.38574 3.86914C1.66741 3.86914 1.89648 4.09822 1.89648 4.37988V21.6953C1.89635 21.9767 1.66808 22.2058 1.38672 22.2061C1.10513 22.2061 0.875132 21.9769 0.875 21.6953V4.37988C0.875 4.09838 1.1043 3.8694 1.38574 3.86914Z" fill="black"/>
<path d="M2.88574 3.86914C3.16741 3.86914 3.39648 4.09822 3.39648 4.37988V21.6953C3.39635 21.9767 3.16808 22.2058 2.88672 22.2061C2.60513 22.2061 2.37513 21.9769 2.375 21.6953V4.37988C2.375 4.09838 2.6043 3.8694 2.88574 3.86914Z" fill="black"/>
<path d="M25.3232 5.6416C25.5936 5.59837 25.8497 5.7948 25.8955 6.08008L26.3896 9.16211C26.6723 10.9282 25.4887 12.5562 23.8018 12.7236C22.7187 12.8309 21.9549 13.8435 22.0664 14.958L22.1006 15.1826L22.6523 17.8672C22.7105 18.1504 22.5396 18.4268 22.2715 18.4834C22.0035 18.5397 21.7388 18.3553 21.6807 18.0723L21.1299 15.3857C20.7597 13.5785 21.951 11.8554 23.6914 11.6826C24.8112 11.5717 25.5969 10.4905 25.4092 9.31836L24.915 6.2373C24.8696 5.95205 25.0529 5.68508 25.3232 5.6416Z" fill="black"/>
<path d="M21.582 5.3457C21.8525 5.3023 22.1095 5.49882 22.1553 5.78418L22.5674 8.36133C22.8119 9.88787 21.7895 11.2969 20.3311 11.4414C19.4123 11.5326 18.7837 12.4425 18.9795 13.3965L19.4404 15.6426C19.4986 15.9258 19.3277 16.2012 19.0596 16.2578C18.7916 16.3142 18.5269 16.1307 18.4688 15.8477L18.0078 13.5996C17.6879 12.0377 18.7176 10.5487 20.2217 10.3994C21.1123 10.3112 21.7382 9.45087 21.5889 8.51855L21.1748 5.94043C21.1296 5.6554 21.312 5.38943 21.582 5.3457Z" fill="black"/>
<path d="M18.3887 4.74609C18.6589 4.70289 18.9152 4.89916 18.9609 5.18457L19.3252 7.45508C19.546 8.83465 18.6214 10.1074 17.3037 10.2383C16.5296 10.3152 15.9991 11.0819 16.1641 11.8857L16.5703 13.8643C16.6284 14.1474 16.4576 14.4229 16.1895 14.4795C15.9216 14.5358 15.6569 14.3521 15.5986 14.0693L15.1934 12.0898C14.9038 10.6778 15.8345 9.33208 17.1943 9.19727C17.9447 9.1229 18.4716 8.39696 18.3457 7.61133L17.9824 5.34082C17.9428 5.09129 18.0767 4.85541 18.292 4.77148L18.3887 4.74609Z" fill="black"/>
<path d="M12.7725 10.3672C13.0343 10.752 13.1894 11.217 13.1895 11.7178L13.1768 11.9639C13.0616 13.0948 12.1622 13.9941 11.0312 14.1094L10.7852 14.1221C9.71468 14.122 8.80847 13.4214 8.49707 12.4551L8.44141 12.2812L8.62207 12.2598C8.83727 12.2343 9.06807 12.1858 9.30859 12.1152L9.44141 12.0762L9.49121 12.2061C9.68912 12.7295 10.1936 13.1015 10.7852 13.1016L10.9268 13.0947C11.5778 13.0283 12.0957 12.5104 12.1621 11.8594L12.1689 11.7178C12.1689 11.4414 12.0866 11.1835 11.9463 10.9668L11.8682 10.8457L11.9863 10.7627C12.1882 10.621 12.3792 10.4776 12.5537 10.335L12.6807 10.2314L12.7725 10.3672Z" fill="black"/>
<path fill-rule="evenodd" clip-rule="evenodd" d="M7.37988 6.91406C7.63123 6.07108 8.54751 5.77637 9.2627 6.08887L10.2529 6.53418C10.5927 6.69179 10.9344 6.8562 11.252 7.0166C11.8627 7.32509 12.4574 7.65613 12.751 7.92578C13.074 8.22284 13.0043 8.62204 12.9141 8.84863C12.8201 9.08428 12.6454 9.31681 12.4551 9.52637C12.0645 9.95613 11.4789 10.4249 10.8506 10.8184C10.2238 11.2108 9.51265 11.5551 8.86523 11.708C8.25927 11.851 7.48396 11.8724 7.01953 11.2812C6.8512 11.0667 6.84098 10.8144 6.88281 10.627L6.88867 10.3037L6.8877 10.3018C6.91252 9.44327 7.0351 8.07145 7.37988 6.91406ZM8.85449 7.02344C8.6132 6.9181 8.40765 7.03764 8.35742 7.20508C8.00302 8.39476 7.90179 9.88846 7.90234 10.6387L7.89844 10.709C8.0073 10.7706 8.22299 10.8111 8.63086 10.7148C9.12874 10.5972 9.73215 10.3144 10.3076 9.9541C10.8818 9.5946 11.3891 9.1831 11.7002 8.84082C11.802 8.7288 11.8703 8.63599 11.9141 8.56641C11.6845 8.40489 11.2917 8.18015 10.792 7.92773C10.1798 7.61853 9.46863 7.29233 8.85449 7.02344Z" fill="black"/>
<path d="M30.6348 2.34277C30.9162 2.34304 31.1455 2.57201 31.1455 2.85352C31.1452 3.13479 30.916 3.36399 30.6348 3.36426H1.38672C1.10522 3.36426 0.876241 3.13496 0.875977 2.85352C0.875977 2.57185 1.10505 2.34277 1.38672 2.34277H30.6348Z" fill="black"/>
<path d="M30.6348 0.842773C30.9162 0.843038 31.1455 1.07201 31.1455 1.35352C31.1452 1.63479 30.916 1.86399 30.6348 1.86426H1.38672C1.10522 1.86426 0.876241 1.63496 0.875977 1.35352C0.875977 1.07185 1.10505 0.841797 1.38672 0.841797L30.6348 0.842773Z" fill="black"/>
</g>
<defs>
<clipPath id="clip0_169_883">
<rect width="32" height="32" fill="white"/>
</clipPath>
</defs>
</svg>
