<svg width="32" height="32" viewBox="0 0 32 32" fill="none" xmlns="http://www.w3.org/2000/svg">
<g clip-path="url(#clip0_416_198)">
<path d="M8.72168 26.293C9.00346 26.2932 9.23145 26.5226 9.23145 26.8037V27.4619C9.23133 27.7434 9.00294 27.9714 8.72168 27.9717C8.44053 27.9717 8.21105 27.7439 8.21094 27.4619V26.8037C8.21094 26.522 8.44001 26.293 8.72168 26.293Z" fill="black"/>
<path d="M7.34961 26.6221C7.63056 26.6225 7.85911 26.8505 7.85938 27.1318L7.84863 27.2344C7.80124 27.4666 7.59591 27.6422 7.34961 27.6426H3.69141C3.44486 27.6426 3.23894 27.467 3.19141 27.2344L3.18066 27.1318C3.18093 26.8501 3.41025 26.6221 3.69141 26.6221H7.34961Z" fill="black"/>
<path d="M8.72168 23.7549C9.00347 23.7552 9.23134 23.9846 9.23145 24.2656V24.9238C9.23134 25.2054 9.00294 25.4333 8.72168 25.4336C8.44053 25.4336 8.21104 25.2059 8.21094 24.9238V24.2656C8.21104 23.9841 8.44 23.7549 8.72168 23.7549Z" fill="black"/>
<path d="M7.34961 24.084C7.63057 24.0845 7.859 24.3126 7.85938 24.5938L7.84863 24.6963C7.80124 24.9285 7.59591 25.1041 7.34961 25.1045H3.69141C3.44486 25.1045 3.23893 24.9289 3.19141 24.6963L3.18066 24.5938C3.18104 24.3121 3.41024 24.084 3.69141 24.084H7.34961Z" fill="black"/>
<path d="M8.72168 21.2168C9.00348 21.2171 9.23123 21.4467 9.23145 21.7275V22.3857C9.23134 22.6673 9.00294 22.8952 8.72168 22.8955C8.44053 22.8955 8.21104 22.6678 8.21094 22.3857V21.7275C8.21116 21.4462 8.43999 21.2168 8.72168 21.2168Z" fill="black"/>
<path d="M7.34961 21.5459C7.63058 21.5464 7.85889 21.7747 7.85938 22.0557L7.84863 22.1582C7.80124 22.3904 7.59591 22.566 7.34961 22.5664H3.69141C3.44486 22.5664 3.23893 22.3908 3.19141 22.1582L3.18066 22.0557C3.18116 21.7742 3.41022 21.5459 3.69141 21.5459H7.34961Z" fill="black"/>
<path d="M18.5166 26.293C18.7983 26.2936 19.0254 26.523 19.0254 26.8037V27.4619C19.0253 27.7083 18.8503 27.9134 18.6182 27.9609L18.5156 27.9717C18.2351 27.9713 18.005 27.744 18.0049 27.4619V26.8037C18.0049 26.5215 18.2355 26.293 18.5166 26.293Z" fill="black"/>
<path d="M17.1436 26.6221C17.4251 26.6222 17.6531 26.8506 17.6533 27.1318L17.6426 27.2344C17.5952 27.4666 17.3904 27.6425 17.1436 27.6426H13.4854C13.2388 27.6426 13.0329 27.467 12.9854 27.2344L12.9746 27.1318C12.9749 26.8501 13.2042 26.6221 13.4854 26.6221H17.1436Z" fill="black"/>
<path d="M18.5166 23.7549C18.7983 23.7555 19.0253 23.9851 19.0254 24.2656V24.9238C19.0253 25.1702 18.8503 25.3754 18.6182 25.4229L18.5156 25.4336C18.2351 25.4332 18.005 25.2059 18.0049 24.9238V24.2656C18.005 23.9836 18.2355 23.7549 18.5166 23.7549Z" fill="black"/>
<path d="M17.1436 24.084C17.4251 24.0841 17.6529 24.3127 17.6533 24.5938L17.6426 24.6963C17.5953 24.9285 17.3904 25.1044 17.1436 25.1045H13.4854C13.2388 25.1045 13.0329 24.9289 12.9854 24.6963L12.9746 24.5938C12.975 24.3121 13.2042 24.084 13.4854 24.084H17.1436Z" fill="black"/>
<path d="M18.5166 21.2168C18.7984 21.2174 19.0252 21.4472 19.0254 21.7275V22.3857C19.0253 22.6322 18.8503 22.8373 18.6182 22.8848L18.5156 22.8955C18.2351 22.8951 18.005 22.6678 18.0049 22.3857V21.7275C18.0051 21.4457 18.2354 21.2168 18.5166 21.2168Z" fill="black"/>
<path d="M17.1436 21.5459C17.4251 21.546 17.6528 21.7747 17.6533 22.0557L17.6426 22.1582C17.5953 22.3904 17.3904 22.5663 17.1436 22.5664H13.4854C13.2388 22.5664 13.0329 22.3908 12.9854 22.1582L12.9746 22.0557C12.9751 21.7742 13.2042 21.5459 13.4854 21.5459H17.1436Z" fill="black"/>
<path d="M28.1367 26.293C28.4185 26.2932 28.6465 26.5226 28.6465 26.8037V27.4619C28.6464 27.7434 28.418 27.9714 28.1367 27.9717C27.8556 27.9717 27.6261 27.7439 27.626 27.4619V26.8037C27.626 26.522 27.8551 26.293 28.1367 26.293Z" fill="black"/>
<path d="M26.7637 26.6221C27.0452 26.6222 27.2732 26.8506 27.2734 27.1318L27.2627 27.2344C27.2154 27.4666 27.0105 27.6425 26.7637 27.6426H23.1055C22.8589 27.6426 22.653 27.467 22.6055 27.2344L22.5947 27.1318C22.595 26.8501 22.8243 26.6221 23.1055 26.6221H26.7637Z" fill="black"/>
<path d="M28.1367 23.7549C28.4185 23.7552 28.6464 23.9846 28.6465 24.2656V24.9238C28.6464 25.2054 28.418 25.4333 28.1367 25.4336C27.8556 25.4336 27.6261 25.2059 27.626 24.9238V24.2656C27.6261 23.9841 27.855 23.7549 28.1367 23.7549Z" fill="black"/>
<path d="M26.7637 24.084C27.0452 24.0841 27.2731 24.3127 27.2734 24.5938L27.2627 24.6963C27.2154 24.9285 27.0105 25.1044 26.7637 25.1045H23.1055C22.8589 25.1045 22.653 24.9289 22.6055 24.6963L22.5947 24.5938C22.5951 24.3121 22.8243 24.084 23.1055 24.084H26.7637Z" fill="black"/>
<path d="M28.1367 21.2168C28.4185 21.2171 28.6463 21.4467 28.6465 21.7275V22.3857C28.6464 22.6673 28.418 22.8952 28.1367 22.8955C27.8556 22.8955 27.6261 22.6678 27.626 22.3857V21.7275C27.6262 21.4462 27.855 21.2168 28.1367 21.2168Z" fill="black"/>
<path d="M26.7637 21.5459C27.0452 21.546 27.2729 21.7747 27.2734 22.0557L27.2627 22.1582C27.2154 22.3904 27.0105 22.5663 26.7637 22.5664H23.1055C22.8589 22.5664 22.653 22.3908 22.6055 22.1582L22.5947 22.0557C22.5952 21.7742 22.8243 21.5459 23.1055 21.5459H26.7637Z" fill="black"/>
<path d="M8.72168 16.252C9.00346 16.2522 9.23145 16.4815 9.23145 16.7627V17.4209C9.23102 17.7019 9.00297 17.9304 8.72168 17.9307C8.4405 17.9307 8.21137 17.7024 8.21094 17.4209V16.7627C8.21094 16.481 8.44001 16.252 8.72168 16.252Z" fill="black"/>
<path d="M7.34961 16.5811C7.63056 16.5815 7.85911 16.8095 7.85938 17.0908L7.84863 17.1934C7.80111 17.4253 7.59595 17.6011 7.34961 17.6016H3.69141C3.44482 17.6016 3.23907 17.4257 3.19141 17.1934L3.18066 17.0908C3.18093 16.809 3.41025 16.5811 3.69141 16.5811H7.34961Z" fill="black"/>
<path d="M8.72168 13.7139C9.00346 13.7141 9.23145 13.9434 9.23145 14.2246V14.8828C9.23113 15.164 9.00296 15.3923 8.72168 15.3926C8.44051 15.3926 8.21125 15.1645 8.21094 14.8828V14.2246C8.21094 13.9429 8.44001 13.7139 8.72168 13.7139Z" fill="black"/>
<path d="M7.34961 14.043C7.63056 14.0434 7.85911 14.2714 7.85938 14.5527L7.84863 14.6553C7.80116 14.8873 7.59594 15.0631 7.34961 15.0635H3.69141C3.44483 15.0635 3.23902 14.8877 3.19141 14.6553L3.18066 14.5527C3.18093 14.271 3.41025 14.043 3.69141 14.043H7.34961Z" fill="black"/>
<path d="M8.72168 11.1758C9.00346 11.1761 9.23145 11.4054 9.23145 11.6865V12.3447C9.23125 12.6261 9.00295 12.8542 8.72168 12.8545C8.44053 12.8545 8.21114 12.6266 8.21094 12.3447V11.6865C8.21094 11.4049 8.44001 11.1758 8.72168 11.1758Z" fill="black"/>
<path d="M7.34961 11.5049C7.63056 11.5054 7.85911 11.7334 7.85938 12.0146L7.84863 12.1172C7.8012 12.3493 7.59593 12.525 7.34961 12.5254H3.69141C3.44485 12.5254 3.23897 12.3497 3.19141 12.1172L3.18066 12.0146C3.18093 11.7329 3.41025 11.5049 3.69141 11.5049H7.34961Z" fill="black"/>
<path d="M18.5166 16.252C18.7983 16.2526 19.0254 16.482 19.0254 16.7627V17.4209C19.025 17.6669 18.8503 17.8724 18.6182 17.9199L18.5156 17.9307C18.235 17.9303 18.0053 17.7025 18.0049 17.4209V16.7627C18.0049 16.4805 18.2355 16.252 18.5166 16.252Z" fill="black"/>
<path d="M17.1436 16.5811C17.4251 16.5812 17.6531 16.8096 17.6533 17.0908L17.6426 17.1934C17.5951 17.4253 17.3904 17.6015 17.1436 17.6016H13.4854C13.2388 17.6016 13.033 17.4257 12.9854 17.1934L12.9746 17.0908C12.9749 16.809 13.2042 16.5811 13.4854 16.5811H17.1436Z" fill="black"/>
<path d="M18.5166 13.7139C18.7983 13.7145 19.0254 13.9439 19.0254 14.2246V14.8828C19.0251 15.1289 18.8503 15.3343 18.6182 15.3818L18.5156 15.3926C18.235 15.3922 18.0052 15.1646 18.0049 14.8828V14.2246C18.0049 13.9424 18.2355 13.7139 18.5166 13.7139Z" fill="black"/>
<path d="M17.1436 14.043C17.4251 14.0431 17.6531 14.2715 17.6533 14.5527L17.6426 14.6553C17.5952 14.8874 17.3904 15.0634 17.1436 15.0635H13.4854C13.2388 15.0635 13.033 14.8877 12.9854 14.6553L12.9746 14.5527C12.9749 14.271 13.2042 14.043 13.4854 14.043H17.1436Z" fill="black"/>
<path d="M18.5166 11.1758C18.7983 11.1764 19.0254 11.4059 19.0254 11.6865V12.3447C19.0252 12.591 18.8503 12.7962 18.6182 12.8438L18.5156 12.8545C18.235 12.8541 18.0051 12.6266 18.0049 12.3447V11.6865C18.0049 11.4043 18.2355 11.1758 18.5166 11.1758Z" fill="black"/>
<path d="M17.1436 11.5049C17.4251 11.505 17.6531 11.7334 17.6533 12.0146L17.6426 12.1172C17.5952 12.3494 17.3904 12.5253 17.1436 12.5254H13.4854C13.2388 12.5254 13.0329 12.3497 12.9854 12.1172L12.9746 12.0146C12.9749 11.7329 13.2042 11.5049 13.4854 11.5049H17.1436Z" fill="black"/>
<path d="M28.1367 16.252C28.4185 16.2522 28.6465 16.4815 28.6465 16.7627V17.4209C28.6461 17.7019 28.418 17.9304 28.1367 17.9307C27.8555 17.9307 27.6264 17.7024 27.626 17.4209V16.7627C27.626 16.481 27.8551 16.252 28.1367 16.252Z" fill="black"/>
<path d="M26.7637 16.5811C27.0452 16.5812 27.2732 16.8096 27.2734 17.0908L27.2627 17.1934C27.2152 17.4253 27.0105 17.6015 26.7637 17.6016H23.1055C22.8589 17.6016 22.6531 17.4257 22.6055 17.1934L22.5947 17.0908C22.595 16.809 22.8243 16.5811 23.1055 16.5811H26.7637Z" fill="black"/>
<path d="M28.1367 13.7139C28.4185 13.7141 28.6465 13.9434 28.6465 14.2246V14.8828C28.6462 15.164 28.418 15.3923 28.1367 15.3926C27.8556 15.3926 27.6263 15.1645 27.626 14.8828V14.2246C27.626 13.9429 27.8551 13.7139 28.1367 13.7139Z" fill="black"/>
<path d="M26.7637 14.043C27.0452 14.0431 27.2732 14.2715 27.2734 14.5527L27.2627 14.6553C27.2153 14.8874 27.0105 15.0634 26.7637 15.0635H23.1055C22.8589 15.0635 22.6531 14.8877 22.6055 14.6553L22.5947 14.5527C22.595 14.271 22.8243 14.043 23.1055 14.043H26.7637Z" fill="black"/>
<path d="M28.1367 11.1758C28.4185 11.1761 28.6465 11.4054 28.6465 11.6865V12.3447C28.6463 12.6261 28.418 12.8542 28.1367 12.8545C27.8556 12.8545 27.6262 12.6266 27.626 12.3447V11.6865C27.626 11.4049 27.8551 11.1758 28.1367 11.1758Z" fill="black"/>
<path d="M26.7637 11.5049C27.0452 11.505 27.2732 11.7334 27.2734 12.0146L27.2627 12.1172C27.2153 12.3494 27.0105 12.5253 26.7637 12.5254H23.1055C22.8589 12.5254 22.653 12.3497 22.6055 12.1172L22.5947 12.0146C22.595 11.7329 22.8243 11.5049 23.1055 11.5049H26.7637Z" fill="black"/>
<path fill-rule="evenodd" clip-rule="evenodd" d="M25.8096 0.880859C26.6957 0.960873 27.4173 1.59878 27.6299 2.43945H32.1465V3.45996H27.6318C27.4455 4.19625 26.8672 4.7737 26.1309 4.95996V9.40332H29.6396C29.9208 9.40369 30.1502 9.63261 30.1504 9.91406V29.2422C30.1503 29.5238 29.9207 29.7526 29.6396 29.7529H29.4258V30.6807H31.1387C31.4199 30.681 31.6479 30.9095 31.6484 31.1904L31.6377 31.293C31.5903 31.5252 31.3852 31.7009 31.1387 31.7012H0.861328C0.614781 31.7012 0.408853 31.5256 0.361328 31.293L0.350586 31.1904C0.351077 30.909 0.580146 30.6807 0.861328 30.6807H2.56348V29.7529H2.36133C2.07966 29.7529 1.85064 29.5238 1.85059 29.2422V9.91406C1.85075 9.63265 2.07965 9.40332 2.36133 9.40332H5.83789L5.83691 4.93848C5.13639 4.73309 4.59121 4.17111 4.41113 3.45996H-0.146484V2.43945H4.41211C4.63969 1.53974 5.45108 0.87213 6.42188 0.87207L6.61035 0.880859C7.49646 0.960873 8.21807 1.59878 8.43066 2.43945H13.9746C14.2022 1.53974 15.0136 0.87213 15.9844 0.87207L16.1729 0.880859C17.059 0.960873 17.7806 1.59878 17.9932 2.43945H23.6113C23.8389 1.53974 24.6503 0.87213 25.6211 0.87207L25.8096 0.880859ZM8.43164 3.45996C8.23904 4.22069 7.62875 4.81158 6.85742 4.97656L6.8584 9.40332H10.335C10.6161 9.40369 10.8455 9.63261 10.8457 9.91406V29.2422C10.8456 29.5238 10.6161 29.7526 10.335 29.7529H10.1211V30.6807H12.2158V29.7529H12.0137C11.732 29.7529 11.503 29.5238 11.5029 29.2422V9.91406L11.5137 9.81152C11.5613 9.57906 11.7671 9.40332 12.0137 9.40332H15.4902L15.4893 4.96289C14.7457 4.78097 14.1613 4.20127 13.9736 3.45996H8.43164ZM17.9941 3.45996C17.8091 4.19085 17.2385 4.76457 16.5098 4.95508L16.5107 9.40332H19.9873C20.2684 9.40369 20.4979 9.63261 20.498 9.91406V29.2422C20.498 29.5238 20.2684 29.7526 19.9873 29.7529H19.7734V30.6807H21.8682V29.7529H21.666C21.3843 29.7529 21.1553 29.5238 21.1553 29.2422V9.91406L21.166 9.81152C21.2136 9.57906 21.4194 9.40332 21.666 9.40332H25.1104V4.95996C24.374 4.77367 23.7957 4.19622 23.6094 3.45996H17.9941ZM2.87207 28.7314H9.82422V20.3574H2.87207V28.7314ZM12.5244 28.7314H19.4766V20.3574H12.5244V28.7314ZM22.1768 28.7314H29.1289V20.3574H22.1768V28.7314ZM2.87207 18.8164H9.82422V10.4248H2.87207V18.8164ZM12.5244 18.8164H19.4766V10.4248H12.5244V18.8164ZM22.1768 18.8164H29.1289V10.4248H22.1768V18.8164ZM6.42188 1.89355C5.83851 1.89362 5.36632 2.36583 5.36621 2.94922C5.36621 3.53282 5.83856 4.00579 6.42188 4.00586L6.53027 4.00098C7.06281 3.94643 7.47852 3.4959 7.47852 2.94922C7.47842 2.40274 7.06285 1.95289 6.53027 1.89844L6.42188 1.89355ZM15.9844 1.89355C15.401 1.89362 14.9288 2.36583 14.9287 2.94922C14.9287 3.53282 15.4011 4.00579 15.9844 4.00586L16.0928 4.00098C16.6253 3.94643 17.041 3.4959 17.041 2.94922C17.0409 2.40274 16.6253 1.95289 16.0928 1.89844L15.9844 1.89355ZM25.6211 1.89355C25.0377 1.89362 24.5655 2.36583 24.5654 2.94922C24.5654 3.53282 25.0378 4.00579 25.6211 4.00586L25.7295 4.00098C26.262 3.94643 26.6777 3.4959 26.6777 2.94922C26.6776 2.40274 26.2621 1.95289 25.7295 1.89844L25.6211 1.89355Z" fill="black"/>
</g>
<defs>
<clipPath id="clip0_416_198">
<rect width="32" height="32" fill="white"/>
</clipPath>
</defs>
</svg>
