<svg width="32" height="32" viewBox="0 0 32 32" fill="none" xmlns="http://www.w3.org/2000/svg">
<g clip-path="url(#clip0_169_913)">
<rect width="32" height="32" fill="white"/>
<path d="M18.0557 9.60547C18.1027 9.60778 18.1544 9.6182 18.2021 9.64453L18.249 9.67578C18.3082 9.72585 18.3381 9.79393 18.3516 9.85547C18.3644 9.91524 18.3638 9.97532 18.3613 10.0205C18.3566 10.0948 18.3476 10.1686 18.3359 10.2383C18.2891 10.5176 18.1854 10.7591 18.0205 10.9541L17.8242 11.1787C17.3584 11.6985 16.8385 12.1732 16.2656 12.6016C16.2195 12.636 16.1718 12.6715 16.124 12.7061C16.0698 12.7448 15.9976 12.7769 15.916 12.7803C15.8338 12.7835 15.7525 12.7573 15.6895 12.7041L15.6455 12.6602C15.6074 12.6128 15.584 12.5543 15.5762 12.4932C15.5659 12.4122 15.585 12.3363 15.6143 12.2764L15.6152 12.2754C15.6413 12.2227 15.6681 12.1701 15.6943 12.1191C16.0214 11.483 16.4029 10.8915 16.8379 10.3457L17.0273 10.1143C17.1923 9.9192 17.4129 9.77727 17.6807 9.68457C17.7475 9.66148 17.8182 9.64102 17.8906 9.62402C17.9347 9.61407 17.9938 9.60184 18.0547 9.60449L18.0557 9.60547Z" fill="black"/>
<path fill-rule="evenodd" clip-rule="evenodd" d="M9 0.762695C9.10218 0.762794 9.20049 0.794145 9.2832 0.849609L9.36035 0.912109C9.45611 1.00829 9.50977 1.13921 9.50977 1.27344V4.27344C9.50959 4.55503 9.28144 4.78293 9 4.7832H8.50977V7.7627H14.0117C14.8226 6.5626 16.1959 5.77344 17.7529 5.77344H17.7568L17.9805 5.7793L17.9844 5.78027C19.4447 5.85429 20.7209 6.62352 21.4912 7.7627H27.0498C28.4316 7.76278 29.5107 8.87071 29.5107 10.2734V24.2734C29.5106 25.6581 28.3845 26.783 27.001 26.7832H23.5107V27.2734C23.5106 27.555 23.2824 27.783 23.001 27.7832H20.001C19.7196 27.7832 19.4904 27.5555 19.4902 27.2734V26.7832H17.3496V31.1592H16.3281V19.4287C16.3281 18.606 15.6615 17.9397 14.8389 17.9395H3.3916C2.5687 17.9395 1.90234 18.6058 1.90234 19.4287V31.1592H0.879883V19.4287C0.879883 18.0425 2.00537 16.918 3.3916 16.918H14.8389C16.2249 16.9182 17.3496 18.0426 17.3496 19.4287V21.7627H19.4893V21.2734C19.4893 20.9916 19.7182 20.7627 20 20.7627H23C23.282 20.763 23.5098 20.9921 23.5098 21.2734V21.7627H24.4883V12.7832H21.5078C20.6995 13.9963 19.3199 14.7957 17.7529 14.7959H17.749L17.5244 14.79L17.5205 14.7891C16.0499 14.7145 14.7663 13.9355 13.998 12.7832H6C4.6163 12.7832 3.48939 11.6572 3.48926 10.2734V4.7832H3C2.71867 4.7832 2.48943 4.55554 2.48926 4.27344V1.27344C2.48926 0.991595 2.71816 0.762695 3 0.762695H9ZM20.5098 26.7627H22.4883V21.7832H20.5098V26.7627ZM17.3496 25.7627H19.4893V22.7832H17.3496V25.7627ZM22.0068 8.7832C22.1728 9.25308 22.2637 9.75847 22.2637 10.2852V10.2891L22.2578 10.5127L22.2568 10.5166C22.2348 10.951 22.151 11.3692 22.0146 11.7627H25C25.282 11.763 25.5098 11.9921 25.5098 12.2734V22.2734C25.5096 22.555 25.2814 22.7829 25 22.7832H23.5098V25.7627H27L27.1523 25.7549C27.852 25.6833 28.4099 25.1261 28.4814 24.4258L28.4893 24.2734V10.2734C28.4893 9.4852 27.9312 8.86442 27.1982 8.79004L27.0498 8.7832H22.0068ZM17.7529 6.79395C15.825 6.79395 14.2618 8.35727 14.2617 10.2852L14.2656 10.4648C14.3594 12.309 15.8854 13.7754 17.7529 13.7754L17.9326 13.7715C19.7767 13.6777 21.2429 12.1524 21.2432 10.2852L21.2393 10.1055C21.1487 8.32069 19.7173 6.88862 17.9326 6.79785L17.7529 6.79395ZM4.50977 10.2734L4.51758 10.4258C4.59439 11.1755 5.23028 11.7627 6 11.7627H13.4902C13.3539 11.3692 13.2701 10.951 13.248 10.5166L13.2471 10.5127L13.2412 10.2891V10.2852C13.2412 9.75852 13.3321 9.25312 13.498 8.7832H8C7.71867 8.7832 7.48943 8.55554 7.48926 8.27344V4.7832H4.50977V10.2734ZM3.50977 3.7627H8.48926V1.7832H3.50977V3.7627Z" fill="black"/>
<path d="M12.8232 25.1738C13.1046 25.1739 13.3325 25.4025 13.333 25.6836L13.3223 25.7861C13.2749 26.0184 13.0701 26.1942 12.8232 26.1943H5.43555C5.189 26.1943 4.98307 26.0187 4.93555 25.7861L4.9248 25.6836C4.9253 25.402 5.15452 25.1738 5.43555 25.1738H12.8232Z" fill="black"/>
<path fill-rule="evenodd" clip-rule="evenodd" d="M13.7979 19.8711C14.0795 19.8715 14.3076 20.1007 14.3076 20.3818V23.1846C14.3074 23.4659 14.079 23.694 13.7979 23.6943H4.43262C4.15146 23.6943 3.92211 23.4664 3.92188 23.1846V20.3818C3.92188 20.1002 4.15095 19.8711 4.43262 19.8711H13.7979ZM4.94336 22.6738H13.2871V20.8926H4.94336V22.6738Z" fill="black"/>
</g>
<defs>
<clipPath id="clip0_169_913">
<rect width="32" height="32" fill="white"/>
</clipPath>
</defs>
</svg>
