<svg width="32" height="32" viewBox="0 0 32 32" fill="none" xmlns="http://www.w3.org/2000/svg">
<g clip-path="url(#clip0_183_1147)">
<rect width="32" height="32" fill="white"/>
<path fill-rule="evenodd" clip-rule="evenodd" d="M28.6338 3.85547C28.9148 3.85557 29.144 4.08379 29.1445 4.36523L29.1406 4.39551C29.1417 4.40332 29.1445 4.41438 29.1445 4.42676V25.9316H31.1445V26.9531H26.7637C26.4821 26.9531 26.2539 26.7249 26.2539 26.4434C26.2539 26.4401 26.2548 26.4368 26.2549 26.4336V24.6875H24.1338V26.4404C24.1337 26.7215 23.9058 26.9509 23.624 26.9512C23.3424 26.9512 23.1134 26.722 23.1133 26.4404V20.6309C23.1133 20.3492 23.3424 20.1201 23.624 20.1201L23.7266 20.1309C23.9591 20.1785 24.1338 20.3847 24.1338 20.6309V21.0215H26.2549V6.6709H15.5654V21.0215H17.6426V20.6309C17.6426 20.3497 17.8706 20.1204 18.1523 20.1201L18.2549 20.1309C18.4875 20.1784 18.6631 20.3843 18.6631 20.6309V26.4404C18.663 26.722 18.434 26.9512 18.1523 26.9512C17.8706 26.9509 17.6427 26.7215 17.6426 26.4404V24.6875H15.5654V26.4404C15.5654 26.6869 15.3895 26.8927 15.1572 26.9404L15.0547 26.9512C15.0497 26.9512 15.0451 26.9496 15.041 26.9492C15.0336 26.9502 15.0241 26.9531 15.0137 26.9531H0.859375V25.9316H12.6953V4.42871C12.6953 4.409 12.6983 4.39072 12.7002 4.375C12.7 4.3721 12.6992 4.36882 12.6992 4.36523L12.71 4.2627C12.7577 4.03037 12.9638 3.85547 13.21 3.85547H28.6338ZM13.7158 25.9316H14.5449V6.15918C14.5451 5.87769 14.7734 5.64968 15.0547 5.64941C15.0632 5.64943 15.0707 5.65012 15.0742 5.65039H26.748C26.752 5.65002 26.7579 5.64942 26.7646 5.64941C26.9759 5.64941 27.1569 5.7781 27.2344 5.96094L27.2646 6.05566C27.2718 6.08916 27.2763 6.1242 27.2764 6.16016L27.2754 6.16895V25.9336H28.124V4.87598H13.7158V25.9316ZM15.5654 23.667H17.6426V22.042H15.5654V23.667ZM24.1338 23.667H26.2549V22.042H24.1338V23.667ZM27.2744 6.17969C27.2739 6.18394 27.2734 6.18848 27.2734 6.18848L27.2744 6.18555C27.2747 6.18304 27.2752 6.17852 27.2754 6.17285L27.2744 6.17188C27.2742 6.17491 27.2747 6.17757 27.2744 6.17969Z" fill="black"/>
<path d="M9.90039 5.6084C10.0748 5.60863 10.2261 5.69778 10.3174 5.8291L10.3682 5.90039C10.4131 5.97551 10.4404 6.06378 10.4404 6.15918V18.1729C10.4404 18.3492 10.348 18.499 10.2158 18.5898L10.2168 18.5918C10.1325 18.6593 10.0238 18.7059 9.90039 18.7061H0.857422V17.6846H9.41992V6.62988H0.852539V5.6084H9.90039Z" fill="black"/>
<path fill-rule="evenodd" clip-rule="evenodd" d="M21.2217 7.06055C21.4539 7.10788 21.6297 7.31285 21.6299 7.55957V8.91797H25.9062V9.93848H21.6299V11.6982H25.9062V12.7188H25.167C25.3898 12.7735 25.5566 12.973 25.5566 13.2129V13.9609C25.5564 14.1711 25.428 14.3516 25.2461 14.4297H25.9062V15.4502H21.6299V16.4277C21.6297 16.7091 21.4008 16.9385 21.1191 16.9385C20.8373 16.9382 20.6096 16.7086 20.6094 16.4277V7.55957C20.6095 7.27815 20.8379 7.05007 21.1191 7.0498L21.2217 7.06055ZM21.6299 14.4297H23.1025C22.9208 14.3515 22.7932 14.1707 22.793 13.9609V13.2129L22.8037 13.1104C22.843 12.9175 22.9914 12.7655 23.1816 12.7188H21.6299V14.4297ZM23.4238 12.7188C23.6467 12.7735 23.8135 12.973 23.8135 13.2129V13.9609C23.8132 14.1711 23.6848 14.3516 23.5029 14.4297H24.8457C24.6639 14.3515 24.5364 14.1707 24.5361 13.9609V13.2129C24.5361 12.9735 24.7018 12.7735 24.9248 12.7188H23.4238Z" fill="black"/>
<path fill-rule="evenodd" clip-rule="evenodd" d="M4.38184 8.12402C4.48407 8.14044 4.5785 8.18083 4.66211 8.24512C4.74934 8.30369 4.82118 8.38526 4.88184 8.48438L4.94141 8.59375L4.94336 8.59766L7.61719 14.6514L7.65723 14.75C7.68891 14.8456 7.69964 14.9421 7.68848 15.0381L7.68945 15.0391C7.68019 15.1675 7.62701 15.2795 7.52637 15.3604L7.51855 15.3662C7.41922 15.4357 7.29327 15.4628 7.1582 15.4629C7.0022 15.4629 6.85997 15.4223 6.74805 15.3291L6.74219 15.3242C6.64461 15.2346 6.56607 15.1142 6.50195 14.9717L6.50098 14.9688L5.94434 13.6689H2.58887L2.0332 14.9658L2.03418 14.9668C1.97134 15.1204 1.89486 15.2484 1.7998 15.335L1.79395 15.3398C1.6893 15.4254 1.55847 15.4629 1.41504 15.4629C1.27513 15.4629 1.1471 15.4302 1.04297 15.3545L1.03711 15.3506C0.939038 15.272 0.883164 15.1645 0.865234 15.04C0.84704 14.9127 0.875835 14.7824 0.935547 14.6543L3.60938 8.59766C3.67539 8.44412 3.76675 8.31901 3.88965 8.23926C4.00467 8.15829 4.13491 8.11529 4.27637 8.11523L4.38184 8.12402ZM3.04102 12.624H5.50195L4.2666 9.72266L3.04102 12.624Z" fill="black"/>
<path d="M22.4971 10.2617C22.7294 10.3094 22.9053 10.5151 22.9053 10.7617V11.124C22.9052 11.3705 22.7294 11.5763 22.4971 11.624L22.3945 11.6348C22.1127 11.6345 21.8849 11.405 21.8848 11.124V10.7617C21.8848 10.4806 22.1128 10.2512 22.3945 10.251L22.4971 10.2617Z" fill="black"/>
<path d="M23.9189 10.2617C24.1512 10.3094 24.3271 10.5151 24.3271 10.7617V11.124C24.3271 11.3705 24.1512 11.5763 23.9189 11.624L23.8164 11.6348C23.5346 11.6345 23.3067 11.405 23.3066 11.124V10.7617C23.3066 10.4806 23.5346 10.2512 23.8164 10.251L23.9189 10.2617Z" fill="black"/>
<path d="M25.3408 10.2617C25.5731 10.3094 25.749 10.5151 25.749 10.7617V11.124C25.7489 11.3705 25.5731 11.5763 25.3408 11.624L25.2383 11.6348C24.9565 11.6345 24.7286 11.405 24.7285 11.124V10.7617C24.7285 10.4806 24.9565 10.2512 25.2383 10.251L25.3408 10.2617Z" fill="black"/>
<path d="M22.6602 7.05957C22.8924 7.10729 23.0682 7.31328 23.0684 7.55957V8.30762C23.0684 8.55421 22.8925 8.75994 22.6602 8.80762L22.5576 8.81836C22.311 8.81812 22.1059 8.64238 22.0586 8.41016L22.0479 8.30762V7.55957C22.0481 7.27875 22.2758 7.0491 22.5576 7.04883L22.6602 7.05957Z" fill="black"/>
<path d="M24.3857 7.05957C24.618 7.10729 24.7938 7.31328 24.7939 7.55957V8.30762C24.7939 8.55421 24.618 8.75994 24.3857 8.80762L24.2832 8.81836C24.0366 8.81812 23.8315 8.64238 23.7842 8.41016L23.7734 8.30762V7.55957C23.7737 7.27875 24.0014 7.0491 24.2832 7.04883L24.3857 7.05957Z" fill="black"/>
</g>
<defs>
<clipPath id="clip0_183_1147">
<rect width="32" height="32" fill="white"/>
</clipPath>
</defs>
</svg>
