<svg width="32" height="32" viewBox="0 0 32 32" fill="none" xmlns="http://www.w3.org/2000/svg">
<path fill-rule="evenodd" clip-rule="evenodd" d="M14.5705 8.3418C14.8515 8.34222 15.08 8.57027 15.0803 8.85156L15.0715 8.94531C15.0636 8.98778 15.0482 9.02747 15.0304 9.06543C15.2642 9.11209 15.4406 9.31915 15.4406 9.56641V12.998C15.4401 13.279 15.2116 13.5072 14.9308 13.5078H12.4269C12.146 13.5076 11.9167 13.2794 11.9162 12.998V9.56641C11.9162 9.31929 12.0929 9.11232 12.3263 9.06543C12.3086 9.0275 12.2932 8.98775 12.2853 8.94531L12.2765 8.85156C12.2768 8.56994 12.5063 8.34204 12.7873 8.3418H14.5705ZM12.9377 12.4873H14.4201V10.0771H12.9377V12.4873Z" fill="black"/>
<path fill-rule="evenodd" clip-rule="evenodd" d="M18.675 10.7217C18.9566 10.7217 19.1857 10.9508 19.1857 11.2324V11.998C19.1854 12.8317 18.5087 13.5078 17.675 13.5078H17.4084C16.575 13.5075 15.898 12.8315 15.8976 11.998V11.2324C15.8976 10.9509 16.1272 10.7221 16.4084 10.7217H18.675ZM16.9191 11.998L16.9289 12.0967C16.9747 12.3196 17.1722 12.487 17.4084 12.4873H17.675C17.9455 12.4873 18.1649 12.2683 18.1652 11.998V11.7432H16.9191V11.998Z" fill="black"/>
<path fill-rule="evenodd" clip-rule="evenodd" d="M24.1154 7.90918C26.6043 7.90954 28.6349 9.92777 28.6349 12.4199V12.998C28.6345 13.2795 28.405 13.5076 28.1242 13.5078H20.1056C19.8247 13.5076 19.5954 13.2794 19.5949 12.998V12.4199C19.5949 9.92768 21.6264 7.90943 24.1154 7.90918ZM24.1154 8.93066C22.1866 8.93091 20.6164 10.4942 20.6164 12.4199V12.4873H21.256V11.7734C21.256 11.0412 21.7782 10.4301 22.4699 10.292C22.4106 10.167 22.4009 10.0189 22.4572 9.88086C22.5641 9.62031 22.8621 9.49643 23.1222 9.60254L23.6838 9.83203C23.8678 9.90757 23.9826 10.0777 23.9972 10.2627H24.4006C24.4372 10.1333 24.5242 10.0179 24.6535 9.9502L25.1974 9.66602L25.2931 9.62793C25.5209 9.56267 25.7707 9.66379 25.8849 9.88184C25.9606 10.0268 25.9583 10.1898 25.8957 10.3271C26.5186 10.5133 26.9738 11.0899 26.9738 11.7734V12.4873H27.6144V12.4199C27.6144 10.5544 26.1408 9.02839 24.2951 8.93457L24.1154 8.93066ZM22.7668 11.2842C22.4964 11.2844 22.2775 11.503 22.2775 11.7734V12.4873H25.9523V11.7734C25.9523 11.5369 25.7849 11.3397 25.5617 11.2939L25.4631 11.2842H22.7668Z" fill="black"/>
<path fill-rule="evenodd" clip-rule="evenodd" d="M29.6349 3.91113C29.8674 3.95875 30.0431 4.16456 30.0431 4.41113V30.1152H30.6447C30.9259 30.1152 31.1551 30.3434 31.1554 30.625L31.1447 30.7275C31.0971 30.9601 30.8912 31.1357 30.6447 31.1357H1.35369C1.10755 31.1354 0.901214 30.96 0.853692 30.7275L0.842949 30.625C0.843323 30.3435 1.07296 30.1156 1.35369 30.1152H6.95428C6.47674 29.89 6.14199 29.4046 6.14178 28.8447C6.14175 28.7002 6.16524 28.5568 6.20916 28.4199C5.90591 28.2957 5.74402 27.9309 5.90447 27.6094L6.99236 25.4326L4.59881 18.2539L3.6867 16.8848C3.57147 16.7124 3.3963 16.5884 3.19549 16.5381L1.2199 16.0439C0.945392 15.9747 0.77734 15.6959 0.845879 15.4209L0.881035 15.3223C0.984465 15.1072 1.22871 14.9874 1.46893 15.0469L3.70623 15.6064L3.80975 15.6377C4.04674 15.721 4.25212 15.8794 4.39275 16.0898L5.341 17.5127H16.5705C17.3655 17.5129 17.9273 18.2926 17.676 19.0469L15.6281 25.1885C15.4694 25.6639 15.024 25.9854 14.5226 25.9854H7.86541L7.13885 27.4385H15.6125C15.8958 27.4385 16.1267 27.6685 16.1271 27.9521L16.1164 28.0557C16.0684 28.2899 15.8608 28.4668 15.6125 28.4668H15.1017C15.1361 28.5872 15.1574 28.7136 15.1574 28.8447L15.1496 28.9883C15.098 29.487 14.7814 29.9096 14.3449 30.1152H29.0226V26.1436H16.0949V25.123H29.0226V14.9639H11.631V17.2549C11.631 17.2725 11.6285 17.2882 11.6271 17.2979C11.6252 17.3113 11.6249 17.3097 11.6242 17.3154L11.6086 17.4482H10.632L10.6164 17.3154C10.6154 17.3076 10.6106 17.2807 10.6105 17.2549V4.41113C10.6105 4.13011 10.839 3.90106 11.1203 3.90039L11.2228 3.91113C11.4551 3.95881 11.631 4.16454 11.631 4.41113V6.23926H29.0226V4.41113C29.0226 4.13012 29.2508 3.90091 29.5324 3.90039L29.6349 3.91113ZM8.89861 28.4668C8.93319 28.5869 8.95425 28.7134 8.95428 28.8447L8.94646 28.9873C8.89521 29.4864 8.57849 29.9095 8.14178 30.1152H13.1574C12.6799 29.89 12.3451 29.4045 12.3449 28.8447C12.3449 28.7159 12.3663 28.5891 12.4015 28.4668H8.89861ZM7.54803 28.4668C7.33558 28.4672 7.17046 28.6318 7.1701 28.8438C7.1701 29.0562 7.33545 29.2212 7.54803 29.2217L7.62518 29.2148C7.79913 29.1803 7.92498 29.0302 7.92498 28.8438C7.92466 28.6577 7.79898 28.5081 7.62518 28.4736L7.54803 28.4668ZM13.7512 28.4668C13.5391 28.4674 13.3746 28.6316 13.3742 28.8438C13.3742 29.0563 13.539 29.2211 13.7512 29.2217C13.964 29.2217 14.1291 29.0566 14.1291 28.8438C14.1287 28.6314 13.9639 28.4668 13.7512 28.4668ZM7.91912 24.957H8.89471V23.5039H7.43475L7.91912 24.957ZM9.92303 24.957H12.6164V23.5039H9.92303V24.957ZM13.6457 24.957H14.6213L15.1047 23.5039H13.6457V24.957ZM7.09197 22.4756H8.89471V21.0225H6.6076L7.09197 22.4756ZM9.92303 22.4756H12.6164V21.0225H9.92303V22.4756ZM13.6457 22.4756H15.4484L15.9318 21.0225H13.6457V22.4756ZM6.26482 19.9941H8.89471V18.541H5.78045L6.26482 19.9941ZM9.92303 19.9941H12.6164V18.541H9.92303V19.9941ZM13.6457 19.9941H16.2756L16.759 18.541H13.6457V19.9941ZM11.631 13.9434H29.0226V7.25977H11.631V13.9434Z" fill="black"/>
<path fill-rule="evenodd" clip-rule="evenodd" d="M22.4592 20.3135C22.7408 20.3135 22.9697 20.5429 22.9699 20.8242V24.6104C22.9698 24.8919 22.7408 25.1211 22.4592 25.1211H18.0685C17.7873 25.1207 17.5579 24.8918 17.5578 24.6104V20.8242C17.558 20.543 17.7873 20.3139 18.0685 20.3135H22.4592ZM18.5793 24.0996H21.9484V21.335H18.5793V24.0996Z" fill="black"/>
<path fill-rule="evenodd" clip-rule="evenodd" d="M25.8361 15.7969C25.9526 15.5904 26.2026 15.4877 26.4367 15.5625L28.5949 16.2529C28.863 16.3389 29.0105 16.6266 28.925 16.8945L26.4045 24.7666C26.3181 25.0347 26.0304 25.1813 25.7629 25.0957L23.6037 24.4043C23.3368 24.3182 23.1882 24.0317 23.2736 23.7637L25.7951 15.8916L25.8361 15.7969ZM24.4006 23.5889L25.5881 23.9697L27.799 17.0693L26.6105 16.6885L24.4006 23.5889Z" fill="black"/>
<path fill-rule="evenodd" clip-rule="evenodd" d="M15.7424 1.03711C16.0232 1.03734 16.2528 1.26508 16.2531 1.54688L16.2424 1.64941C16.2008 1.8518 16.0389 2.0091 15.8351 2.04688C16.1284 2.32183 16.3146 2.71021 16.3146 3.14453V5.4834C16.3146 5.76457 16.0865 5.99378 15.8049 5.99414H12.4269C12.1455 5.99389 11.9162 5.76491 11.9162 5.4834V3.14453C11.9162 2.71059 12.1018 2.32181 12.3947 2.04688C12.1919 2.00841 12.0308 1.85108 11.9894 1.64941L11.9787 1.54688C11.979 1.26525 12.2085 1.03735 12.4894 1.03711H15.7424ZM13.4269 2.65527C13.1566 2.65552 12.9378 2.87409 12.9377 3.14453V4.97363H15.2941V3.14453C15.294 2.90802 15.1266 2.71083 14.9035 2.66504L14.8049 2.65527H13.4269Z" fill="black"/>
<path fill-rule="evenodd" clip-rule="evenodd" d="M20.0617 2.02148C20.3425 2.02171 20.5722 2.24945 20.5724 2.53125L20.5617 2.63379C20.5285 2.79525 20.4181 2.92743 20.2717 2.99414C20.5462 3.26714 20.7169 3.64522 20.717 4.06348V5.4834C20.717 5.76508 20.4875 5.99392 20.2062 5.99414H17.758C17.4765 5.99389 17.2472 5.76491 17.2472 5.4834V4.06348C17.2473 3.64547 17.4174 3.26705 17.6916 2.99414C17.5457 2.92725 17.4355 2.79488 17.4025 2.63379L17.3918 2.53125C17.392 2.24962 17.6216 2.02173 17.9025 2.02148H20.0617ZM18.758 3.57422C18.4876 3.57446 18.2688 3.79303 18.2687 4.06348V4.97363H19.6955V4.06348C19.6954 3.82685 19.528 3.62971 19.3049 3.58398L19.2062 3.57422H18.758Z" fill="black"/>
<path fill-rule="evenodd" clip-rule="evenodd" d="M24.1525 2.82617C24.4334 2.82639 24.6628 3.05448 24.6633 3.33594L24.6525 3.43848C24.6193 3.60082 24.508 3.73346 24.3605 3.7998C24.6356 4.07283 24.8078 4.45034 24.8078 4.86914V5.48438C24.8073 5.76589 24.5779 5.99392 24.2971 5.99414H21.8488C21.5678 5.9939 21.3385 5.76571 21.3381 5.48438V4.86914C21.3381 4.45084 21.5089 4.07271 21.7834 3.7998C21.6368 3.73315 21.5264 3.60015 21.4933 3.43848L21.4826 3.33594C21.4831 3.05466 21.7124 2.82642 21.9933 2.82617H24.1525ZM22.8488 4.37988C22.5784 4.38013 22.3596 4.59867 22.3596 4.86914V4.97363H23.7863V4.86914C23.7863 4.63249 23.6189 4.43536 23.3957 4.38965L23.2971 4.37988H22.8488Z" fill="black"/>
</svg>
