<svg width="32" height="32" viewBox="0 0 32 32" fill="none" xmlns="http://www.w3.org/2000/svg">
<g clip-path="url(#clip0_416_512)">
<path fill-rule="evenodd" clip-rule="evenodd" d="M30.7422 0.845703C30.9744 0.893058 31.1501 1.09815 31.1504 1.34473V30.625C31.1504 30.85 31.0037 31.0367 30.8027 31.1045L1.18652 31.0986C0.993414 31.0267 0.853516 30.8445 0.853516 30.625V1.34473C0.853795 1.06344 1.08258 0.8356 1.36328 0.834961L1.46582 0.845703C1.69804 0.893058 1.87378 1.09815 1.87402 1.34473V1.86523H30.1299V1.34473C30.1302 1.06347 30.3584 0.83523 30.6396 0.834961L30.7422 0.845703ZM1.87402 8.33203L3.46387 6.43359C3.6446 6.21855 3.96762 6.18925 4.18359 6.37012C4.39926 6.55091 4.42678 6.87321 4.24707 7.08887L2.59766 9.05859V10.251C2.64849 10.3293 2.71711 10.4065 2.79297 10.4502C2.83467 10.4741 2.87775 10.4896 2.92871 10.4902C2.98043 10.4909 3.05323 10.4768 3.15234 10.4219C3.39837 10.286 3.70811 10.3746 3.84473 10.6201C3.98073 10.8659 3.89292 11.1766 3.64746 11.3135C3.13989 11.5948 2.65677 11.5481 2.2832 11.333C2.11786 11.2376 1.98242 11.1138 1.87402 10.9863V19.2207C1.93902 19.1907 2.01065 19.1719 2.08691 19.1719C2.36801 19.1722 2.59759 19.401 2.59766 19.6826V21.0596C2.64839 21.1375 2.71689 21.2149 2.79297 21.2588C2.83471 21.2827 2.87778 21.2982 2.92871 21.2988C2.98041 21.2995 3.05325 21.2854 3.15234 21.2305C3.39848 21.0944 3.70813 21.1832 3.84473 21.4287C3.98077 21.6745 3.89287 21.9852 3.64746 22.1221C3.14018 22.4033 2.65697 22.3577 2.2832 22.1426C2.11766 22.0471 1.98242 21.9227 1.87402 21.7949V30.1152H30.1299V2.88574H29.5693V28.374C29.5692 28.6549 29.3416 28.8846 29.0596 28.8848H17.0205C16.8293 28.8847 16.6527 28.7771 16.5654 28.6064C15.9265 27.3559 15.4382 25.7118 15.0732 23.8691C14.43 24.2644 13.6764 24.499 12.8652 24.499H12.8613L12.6504 24.4941L12.6465 24.4932C10.4054 24.3794 8.62305 22.5261 8.62305 20.2568V10.1455C8.62311 7.80302 10.5227 5.90332 12.8652 5.90332H12.8691L13.0791 5.9082L13.083 5.90918C13.6263 5.9367 14.1415 6.06777 14.6113 6.28125C14.7917 4.93405 15.0266 3.7695 15.3115 2.88574H1.87402V8.33203ZM26.46 3.79688C26.3574 3.95131 26.2489 4.08721 26.1318 4.20117C25.8205 4.5041 25.4382 4.67078 25.0166 4.61426C24.6218 4.56089 24.2899 4.32334 24.0273 4.04395C23.9832 3.99699 23.9412 3.94691 23.8994 3.89551C23.8066 4.10296 23.709 4.27776 23.5996 4.41504C23.4669 4.58145 23.2888 4.73316 23.0537 4.79395C22.8103 4.85656 22.5872 4.8015 22.4131 4.71289C22.1075 4.55724 21.8407 4.23991 21.6299 3.97656C21.5865 3.92239 21.544 3.8668 21.501 3.81152C21.4942 3.83182 21.4893 3.85257 21.4824 3.87207C21.3806 4.16263 21.2114 4.56409 20.8564 4.77539C20.433 5.02684 19.9669 4.90324 19.5557 4.65137C19.2767 4.48037 18.9658 4.21642 18.6094 3.85645C18.4758 4.08637 18.3155 4.27354 18.1172 4.40332C17.6945 4.67963 17.2434 4.62447 16.8916 4.47852C16.5823 4.35015 16.3026 4.135 16.0771 3.92969C15.4421 6.47793 15.1061 10.8295 15.2275 15.3135C15.2954 17.8166 15.5045 20.3407 15.876 22.5869C16.2241 24.6915 16.7119 26.5233 17.3408 27.8643H28.5488V4.19629C28.3204 4.35818 28.0611 4.46848 27.7754 4.48633C27.2467 4.51882 26.8077 4.24044 26.46 3.79688ZM12.8652 6.92383C11.0861 6.92383 9.64361 8.36634 9.64355 10.1455V20.2568C9.64355 22.0361 11.086 23.4785 12.8652 23.4785L13.1582 23.4658C13.8044 23.4073 14.3927 23.1544 14.8721 22.7705C14.8711 22.7647 14.8701 22.7588 14.8691 22.7529C14.4884 20.4505 14.2758 17.8786 14.207 15.3408C14.1307 12.5232 14.2318 9.72354 14.4814 7.36328C14.0686 7.12229 13.5994 6.96784 13.0967 6.93164L12.8652 6.92383ZM19.0938 2.88574C19.5347 3.36083 19.8556 3.63928 20.0889 3.78223L20.252 3.86719C20.2924 3.88343 20.3199 3.88961 20.3359 3.8916H20.3408C20.3432 3.88938 20.3472 3.88758 20.3506 3.88379C20.3615 3.87161 20.376 3.85213 20.3936 3.82324C20.4288 3.76513 20.472 3.67366 20.5205 3.53516C20.5925 3.32956 20.6456 3.12874 20.7139 2.88574H19.0938ZM22.4268 3.33887C22.5409 3.48147 22.6342 3.58925 22.7109 3.66699C22.7515 3.70808 22.7856 3.7384 22.8135 3.76074C22.9078 3.63346 23.0335 3.37115 23.1836 2.88574H22.0684C22.1994 3.05212 22.3239 3.21039 22.4268 3.33887ZM24.4326 2.88574C24.548 3.07447 24.6607 3.22879 24.7705 3.3457C24.9524 3.53917 25.0834 3.5942 25.1523 3.60352C25.1955 3.60923 25.2798 3.60797 25.4209 3.4707C25.5346 3.35996 25.6643 3.17367 25.8047 2.88574H24.4326ZM16.7109 3.12695C16.9124 3.31753 17.1109 3.46495 17.2822 3.53613C17.4403 3.6017 17.5104 3.58027 17.5586 3.54883L17.6328 3.4834C17.7122 3.39477 17.8172 3.21952 17.917 2.88574H16.4756C16.548 2.96496 16.6268 3.04738 16.7109 3.12695ZM27.0771 2.88574C27.3706 3.41107 27.6152 3.47465 27.7119 3.46875C27.7896 3.46381 27.916 3.42047 28.082 3.26367C28.1795 3.17144 28.2802 3.04553 28.3838 2.88574H27.0771Z" fill="black"/>
</g>
<defs>
<clipPath id="clip0_416_512">
<rect width="32" height="32" fill="white"/>
</clipPath>
</defs>
</svg>
