<svg width="32" height="32" viewBox="0 0 32 32" fill="none" xmlns="http://www.w3.org/2000/svg">
<g clip-path="url(#clip0_169_729)">
<rect width="32" height="32" fill="white"/>
<path fill-rule="evenodd" clip-rule="evenodd" d="M20.2561 15.5798L20.3293 15.5925L20.3557 15.5993C20.4948 15.6515 20.5713 15.7814 20.5793 15.9069C20.5875 16.0372 20.5237 16.1767 20.3771 16.2448L20.3762 16.2458L20.2922 16.2839L20.2912 16.2829L19.3957 16.6989L19.3684 16.7614L19.3654 16.7683L19.2668 16.9626L19.2639 16.9665C19.1373 17.1965 18.9827 17.4058 18.8078 17.5935H21.8488C22.1719 17.5935 22.3222 17.9949 22.0793 18.2077L21.9475 18.323L21.9465 18.322L21.0666 19.0944L21.0617 19.0993L20.8498 19.2683L20.8439 19.2722C20.4146 19.5846 19.9134 19.7814 19.3879 19.8483H27.8312C28.0226 19.8484 28.2017 19.8962 28.3596 19.9782C28.3961 19.9953 28.4315 20.0166 28.466 20.0407C28.7268 20.2142 28.9108 20.4904 28.9641 20.8083C28.9778 20.8539 28.9924 20.9001 29.0031 20.948V20.9499L31.0119 30.6814C31.0596 30.9124 30.8738 31.1106 30.6555 31.1013C30.6491 31.101 30.6422 31.1004 30.6359 31.0993L30.5812 31.0896C30.5746 31.0884 30.5672 31.0868 30.5607 31.0847L27.8029 30.1774H4.1623L1.40449 31.0847C1.39799 31.0868 1.3907 31.0884 1.38398 31.0896L1.32929 31.0993C1.32294 31.1004 1.3162 31.101 1.30976 31.1013C1.09158 31.1104 0.905681 30.9122 0.953317 30.6814L2.96211 20.9499V20.948C3.02357 20.6727 3.13857 20.4321 3.27754 20.2546C3.39999 20.0983 3.55613 19.9739 3.7248 19.9372C3.8608 19.8803 4.01066 19.8484 4.16816 19.8483H6.99043C6.46536 19.7812 5.9644 19.5843 5.53535 19.2722L5.52949 19.2683L5.3166 19.0993L5.31172 19.0954L4.43086 18.322L4.29902 18.2077C4.05697 17.9947 4.20767 17.5943 4.52949 17.5935H7.57148C7.39666 17.4059 7.24294 17.1963 7.1164 16.9665L7.11445 16.9626L7.01582 16.7683L7.01289 16.7624L6.98359 16.6999L6.08711 16.2839L6.00215 16.2458C5.85528 16.1775 5.79143 16.0364 5.8 15.906C5.80845 15.7803 5.88517 15.6511 6.02461 15.5993C6.03298 15.5962 6.0422 15.594 6.05097 15.5925L6.12422 15.5798C6.13257 15.5783 6.14214 15.5769 6.15058 15.5769H20.2307L20.2561 15.5798ZM2.18476 29.7526L3.8166 29.2165L3.32539 24.2273L2.18476 29.7526ZM28.1662 29.2224L29.7805 29.7526L28.6564 24.3083L28.1662 29.2224ZM4.16816 20.8689C4.09181 20.869 4.0318 20.9349 4.03925 21.0114L4.85175 29.1569H27.1291L27.9387 20.9255C27.9152 20.8917 27.876 20.869 27.8312 20.8689H26.5627L16.6545 27.7273L16.6447 27.7351L16.6437 27.7341L16.5109 27.8112L16.5012 27.8171C16.1848 27.9704 15.8147 27.9696 15.4982 27.8161L15.4885 27.8112L15.3557 27.7341L15.3449 27.7282L15.3459 27.7273L5.43769 20.8689H4.16816ZM15.926 26.8884C15.9705 26.9191 16.03 26.9191 16.0744 26.8884L24.7717 20.8689H7.22871L15.926 26.8884ZM6.4084 18.614C6.70905 18.7704 7.04421 18.8551 7.38789 18.8552H18.9904C19.3341 18.8552 19.6692 18.7704 19.9699 18.614H6.4084ZM8.08418 16.5974C8.47204 17.2015 9.144 17.5767 9.87519 17.5769H16.5051C17.2361 17.5766 17.9074 17.2016 18.2951 16.5974H8.08418Z" fill="black"/>
<path fill-rule="evenodd" clip-rule="evenodd" d="M27.0129 4.96456C27.2629 4.96456 27.4785 5.14662 27.5158 5.39717C27.5169 5.40433 27.5178 5.41243 27.5178 5.41964L28.1662 10.613L28.1672 10.6198C28.1682 10.6267 28.1691 10.6344 28.1691 10.6413V10.6491L28.1584 10.9245C28.0555 12.2902 27.1805 13.4264 25.9768 13.8962C25.5487 14.0633 25.2493 14.4054 25.2492 14.7732V18.655H26.4025C26.8919 18.655 27.2883 19.0528 27.2883 19.5417V19.6667C27.288 19.7493 27.2206 19.8171 27.1379 19.8171H22.342C22.2594 19.817 22.1919 19.7493 22.1916 19.6667V19.5417C22.1916 19.0533 22.5876 18.6562 23.0764 18.656H24.2307V14.7741C24.2307 14.4061 23.9312 14.0636 23.5031 13.8972C22.2209 13.3984 21.3081 12.1477 21.3078 10.6862V10.6784C21.3078 10.6724 21.309 10.6658 21.3098 10.6599L21.9631 5.40499L21.965 5.39717C21.9652 5.39607 21.965 5.39439 21.965 5.39327C21.966 5.38749 21.9678 5.38139 21.9689 5.37569L21.9699 5.37276C22.0174 5.13659 22.2244 4.96465 22.467 4.96456H27.0129ZM22.3332 10.8806C22.4204 12.1094 23.4633 13.1109 24.7404 13.111C26.0055 13.111 27.0435 12.128 27.1428 10.8806H22.3332ZM22.4484 9.86202H27.0334L26.5686 5.98311H22.9113L22.4484 9.86202Z" fill="black"/>
<path fill-rule="evenodd" clip-rule="evenodd" d="M7.3625 7.37862C9.24935 6.98485 10.5975 7.38643 11.4719 8.01631C11.9023 8.32648 12.2105 8.6872 12.4064 9.01924C12.5041 9.18483 12.5782 9.35065 12.6242 9.50557C12.6625 9.63465 12.6906 9.79667 12.6701 9.95967C12.7239 10.07 12.7749 10.182 12.8205 10.2966C12.9466 10.6135 13.038 10.9432 13.0969 11.279H14.9758C15.257 11.2794 15.4852 11.5076 15.4855 11.7888L15.4748 11.8913C15.4275 12.1235 15.2223 12.2992 14.9758 12.2995H14.0266C14.0439 12.3506 14.0558 12.4047 14.0559 12.4616L14.0451 12.5642C13.9976 12.7967 13.7915 12.9722 13.5451 12.9724H3.53632C3.28978 12.9724 3.08385 12.7968 3.03632 12.5642L3.02558 12.4616C3.02568 12.4047 3.03658 12.3506 3.0539 12.2995H2.10664C1.86009 12.2995 1.65416 12.1239 1.60664 11.8913L1.5959 11.7888C1.5962 11.507 1.8255 11.279 2.10664 11.279H3.92988C3.97538 11.0211 4.04109 10.7668 4.12617 10.5192L4.12715 10.5153L4.13789 10.4851C4.05467 10.3409 4.01545 10.1714 4.03242 9.99092C4.05935 9.70727 4.21331 9.44357 4.40937 9.21553C4.61284 8.97902 4.90134 8.7336 5.27558 8.48409C5.95723 8.02969 6.56959 7.54421 7.3625 7.37862ZM10.2141 10.2702C10.1179 10.2759 9.97642 10.2988 9.78144 10.3405C9.53991 10.3923 9.3351 10.4446 9.04121 10.5095C8.59937 10.607 8.04098 10.7142 7.55488 10.6579L7.35175 10.6237C7.25439 10.6014 7.11557 10.5959 6.93965 10.6081C6.76572 10.6202 6.56397 10.6484 6.34492 10.6882C6.13409 10.7265 5.92662 10.7703 5.73066 10.8112C5.54717 10.8496 5.36035 10.8861 5.20918 10.905C5.20568 10.9057 5.20202 10.9075 5.19843 10.9079C5.15672 10.913 5.11385 10.9137 5.0705 10.9157C5.03188 11.0352 4.9982 11.1563 4.9709 11.279H12.0578C12.0189 11.1029 11.965 10.931 11.9025 10.7624C11.6087 10.8054 11.3045 10.7213 11.0852 10.6442C10.847 10.5605 10.6075 10.4468 10.4367 10.3679C10.3453 10.3256 10.2768 10.2951 10.2258 10.2751C10.2215 10.2734 10.2176 10.2715 10.2141 10.2702ZM8.51386 8.32491C8.04118 8.32493 7.57193 8.42191 7.133 8.61104C6.69404 8.80029 6.29189 9.07905 5.95234 9.43233C5.84533 9.54374 5.74537 9.66252 5.65254 9.78682C5.81041 9.75378 5.986 9.71648 6.16328 9.68428C6.5941 9.60606 7.14696 9.5286 7.58125 9.62862C7.71124 9.65861 7.88601 9.66066 8.10078 9.63838C8.31363 9.61626 8.55685 9.57155 8.8205 9.51338C9.04773 9.46324 9.35197 9.38948 9.5666 9.34346C9.79409 9.29471 10.0431 9.24789 10.2561 9.24776C10.4001 9.24776 10.5388 9.30194 10.5998 9.32588C10.6831 9.35863 10.7776 9.40195 10.8645 9.4421C10.9856 9.4981 11.1087 9.55243 11.2287 9.60323C11.1791 9.54483 11.1284 9.48749 11.0754 9.43233C10.7359 9.07902 10.3337 8.80032 9.89472 8.61104C9.45582 8.42191 8.98651 8.32495 8.51386 8.32491Z" fill="black"/>
<path fill-rule="evenodd" clip-rule="evenodd" d="M17.6389 3.94112C17.8813 3.81334 18.1835 3.90481 18.3137 4.14717C18.4437 4.39009 18.3524 4.6932 18.1096 4.82393L18.1047 4.82686L18.1018 4.82784C18.0947 4.83173 18.0917 4.83362 18.0725 4.84444C18.0444 4.86024 18.0069 4.88198 17.9602 4.90987C17.8647 4.96689 17.7331 5.04975 17.591 5.14913C17.2909 5.35908 17.0067 5.60308 16.8713 5.8171C16.736 6.03133 16.6372 6.39333 16.5764 6.7546C16.5476 6.92558 16.5283 7.07955 16.5178 7.19014C16.5126 7.24403 16.5102 7.28704 16.508 7.31905C16.507 7.33309 16.5065 7.34417 16.5061 7.35225C16.5058 7.35586 16.5053 7.35942 16.5051 7.36202L16.5061 7.36397C16.506 7.36459 16.5051 7.36586 16.5051 7.3669C16.5048 7.37077 16.5046 7.3755 16.5041 7.37862L16.5021 7.42256C16.4995 7.46092 16.4944 7.51536 16.4885 7.57784C16.4763 7.70609 16.4568 7.88548 16.423 8.08565C16.3589 8.46601 16.2357 8.99717 15.9875 9.39034C15.7389 9.78365 15.3106 10.1232 14.9943 10.3444C14.828 10.4608 14.6746 10.5565 14.5637 10.6228C14.5093 10.6552 14.4638 10.6814 14.4309 10.6999C14.4159 10.7083 14.401 10.7165 14.3937 10.7204L14.3781 10.7302L14.3723 10.7321C14.1603 10.8433 13.9031 10.7877 13.7551 10.6101L13.6984 10.5261C13.5683 10.2828 13.6601 9.9798 13.9025 9.84932L13.9045 9.84835C13.9056 9.84778 13.9068 9.84765 13.9074 9.84737L13.9113 9.84542C13.9182 9.84158 13.9216 9.83954 13.9406 9.82881C13.9664 9.81429 14.0046 9.79163 14.052 9.76338C14.1479 9.70608 14.2795 9.62409 14.4211 9.5251C14.7214 9.31503 15.0065 9.07027 15.1418 8.85616C15.2769 8.64203 15.3749 8.28057 15.4357 7.91964C15.4644 7.74919 15.4828 7.5944 15.4934 7.48311C15.4986 7.42767 15.502 7.38266 15.5041 7.35323C15.505 7.33958 15.5056 7.32903 15.5061 7.321L15.508 7.31319H15.51C15.51 7.312 15.5089 7.31048 15.509 7.30928L15.508 7.31026L15.5061 7.30831C15.5062 7.30766 15.507 7.30645 15.507 7.30538C15.5071 7.30269 15.5068 7.29893 15.507 7.29464C15.5074 7.28877 15.5105 7.25694 15.5109 7.25069C15.5135 7.21361 15.5175 7.15994 15.5236 7.09542C15.5359 6.96666 15.5565 6.78806 15.59 6.58858C15.6541 6.20833 15.776 5.6754 16.0246 5.28194C16.2733 4.88861 16.7018 4.54983 17.0178 4.32881C17.1837 4.21277 17.3361 4.11701 17.4475 4.05049C17.5037 4.01694 17.5508 3.99107 17.5822 3.97335C17.5879 3.97009 17.6151 3.95471 17.6203 3.95186C17.6216 3.95109 17.6227 3.94984 17.6242 3.94893C17.6256 3.94815 17.6287 3.94631 17.6311 3.94503L17.6389 3.94112ZM17.635 3.94405L17.6359 3.94503L17.6379 3.94405L17.6359 3.94307L17.635 3.94405Z" fill="black"/>
<path fill-rule="evenodd" clip-rule="evenodd" d="M4.8 0.934284C5.19137 0.749605 5.64016 0.728779 6.04707 0.874713C6.41699 1.00743 6.72427 1.26965 6.91621 1.61006C7.70806 1.4693 8.51223 1.4905 9.26386 1.68331C10.5247 2.00692 11.5471 2.79521 12.0695 3.90206L12.1018 3.99678C12.126 4.09392 12.1224 4.19704 12.0881 4.29268C12.0538 4.38812 11.9917 4.47044 11.9113 4.52999L11.8254 4.58174L3.14765 8.67745C3.02545 8.7351 2.88443 8.74171 2.75703 8.696C2.62988 8.65028 2.52564 8.55542 2.46797 8.43331C1.94564 7.32631 1.98755 6.03605 2.53925 4.85714C2.86827 4.15427 3.36388 3.52064 3.97578 2.99874C3.83469 2.63423 3.8275 2.22931 3.96015 1.85909C4.08799 1.50303 4.33649 1.20351 4.6584 1.01046L4.8 0.934284ZM9.00996 2.67061C8.00364 2.41256 6.84264 2.5358 5.78925 3.03292L5.59394 3.1296C4.63303 3.63255 3.87504 4.40684 3.46211 5.28878C3.10819 6.04511 3.03761 6.82226 3.21992 7.51436L10.882 3.89913C10.4637 3.31826 9.81898 2.87822 9.00996 2.67061ZM5.70234 1.83565C5.54995 1.78102 5.38218 1.78893 5.23554 1.85811L5.13203 1.91964C5.03601 1.99092 4.96305 2.08967 4.92207 2.20381C4.90486 2.25179 4.89565 2.30143 4.89082 2.35128C5.04092 2.2645 5.1957 2.18366 5.35371 2.10909L5.58906 2.0046C5.6709 1.97 5.75322 1.93694 5.83613 1.90596C5.79449 1.8779 5.75044 1.85291 5.70234 1.83565Z" fill="black"/>
<path d="M16.8127 2.36592C17.0372 2.32728 17.267 2.44548 17.3586 2.66475C17.4606 2.91024 17.3516 3.1892 17.1164 3.3044C17.108 3.31028 17.0986 3.31499 17.0891 3.31905C17.0845 3.32096 17.0799 3.32307 17.0773 3.32393C17.0763 3.3243 17.0753 3.32464 17.0744 3.32491C17.0689 3.32725 17.0626 3.32934 17.0549 3.33272C17.0306 3.34345 16.9927 3.36124 16.9455 3.3835C16.8525 3.42742 16.7247 3.49192 16.5861 3.57003C16.2911 3.73634 16.0116 3.93194 15.8723 4.11104C15.733 4.29024 15.6111 4.6092 15.5227 4.93624C15.481 5.09016 15.4505 5.23074 15.4309 5.33174C15.421 5.38255 15.4138 5.42281 15.4094 5.44893L15.4045 5.48409L15.4035 5.48799C15.4034 5.4891 15.4037 5.49069 15.4035 5.4919L15.4006 5.50655C15.4003 5.50849 15.3994 5.5107 15.3986 5.51631C15.3977 5.52351 15.3965 5.53386 15.3947 5.54464C15.3888 5.57997 15.3795 5.62891 15.3684 5.68624C15.3454 5.80414 15.3113 5.96844 15.2619 6.15108C15.1683 6.4971 15.0048 6.98228 14.7355 7.32881C14.4661 7.67524 14.0361 7.95361 13.7238 8.1296C13.559 8.22248 13.4076 8.29608 13.299 8.34737C13.2463 8.37227 13.2009 8.39346 13.1682 8.40792C13.155 8.41375 13.14 8.42059 13.133 8.42354L13.1291 8.42549L13.1193 8.4294L13.1164 8.43038L13.1154 8.4294C13.1102 8.43163 13.1042 8.43266 13.0988 8.43428L13.0998 8.43624L13.0178 8.45967C12.7902 8.50426 12.5537 8.38593 12.4602 8.1628L12.4309 8.06514C12.3865 7.83713 12.5059 7.60065 12.7287 7.50753C12.7301 7.50696 12.7331 7.50676 12.7336 7.50655L12.7375 7.5046C12.7389 7.50392 12.7408 7.50289 12.7434 7.50167C12.7483 7.49932 12.7558 7.49645 12.7639 7.49288C12.792 7.48044 12.8273 7.46527 12.8723 7.44405C12.9653 7.40012 13.0937 7.3358 13.2326 7.25753C13.5277 7.0912 13.8071 6.8947 13.9465 6.71553C14.0857 6.53623 14.2077 6.21717 14.2961 5.89034C14.3376 5.73694 14.3672 5.59708 14.3869 5.49581C14.3965 5.4464 14.4036 5.40617 14.4084 5.37764C14.4099 5.3688 14.4112 5.36064 14.4123 5.35518C14.4128 5.35265 14.413 5.35079 14.4133 5.34932C14.4135 5.34719 14.4138 5.34429 14.4143 5.34151L14.4152 5.33467C14.4156 5.33199 14.4165 5.32826 14.4172 5.32393C14.4188 5.31388 14.4213 5.29914 14.424 5.28292C14.4297 5.24914 14.4379 5.1998 14.4494 5.14034C14.4725 5.02153 14.5077 4.85737 14.5568 4.67549C14.6503 4.32974 14.8127 3.84346 15.0822 3.49678C15.3517 3.15032 15.783 2.87377 16.0949 2.69796C16.2592 2.6054 16.4093 2.5299 16.5187 2.47823C16.5736 2.45233 16.6192 2.43251 16.6506 2.41866C16.6655 2.41209 16.6784 2.40605 16.6877 2.40206C16.6934 2.39962 16.699 2.39706 16.7014 2.3962L16.7033 2.39522C16.7075 2.39351 16.7128 2.39293 16.717 2.39131L16.8127 2.36592Z" fill="black"/>
<path d="M13.1154 8.43135L13.1037 8.43526H13.1018L13.1164 8.43038L13.1154 8.43135Z" fill="black"/>
<path d="M15.8186 0.903034C16.0798 0.814347 16.3654 0.954901 16.4543 1.21651C16.5384 1.46597 16.4131 1.73258 16.175 1.8337C16.1645 1.84073 16.1529 1.84611 16.1408 1.8503C16.1362 1.8519 16.1317 1.85352 16.1291 1.85421C16.1246 1.85586 16.1171 1.85823 16.1066 1.86202C16.0822 1.8709 16.0445 1.88548 15.9973 1.90401C15.9027 1.94107 15.7731 1.99431 15.633 2.06124C15.334 2.20407 15.0504 2.37733 14.9035 2.54171C14.7567 2.70633 14.616 3.00931 14.508 3.32296C14.4575 3.46957 14.4198 3.60387 14.3937 3.70186C14.381 3.74984 14.3707 3.78885 14.3645 3.81514L14.3576 3.84249V3.84639L14.3566 3.85323C14.3564 3.85417 14.3549 3.85514 14.3547 3.85616L14.3527 3.8669L14.343 3.90694C14.3348 3.94119 14.3226 3.98905 14.3078 4.04464C14.2775 4.15877 14.2325 4.31745 14.1721 4.49288C14.0576 4.82506 13.8659 5.29045 13.5783 5.61299C13.2904 5.93549 12.8494 6.17936 12.5324 6.33077C12.3651 6.41066 12.2119 6.47313 12.1018 6.51631C12.0473 6.53766 12.0022 6.55438 11.9699 6.56612L11.9309 6.58077L11.9211 6.58467L11.9201 6.58565H11.9113C11.6515 6.67094 11.3698 6.5331 11.2814 6.27315C11.2039 6.04452 11.3009 5.7979 11.5021 5.68038C11.5063 5.67796 11.5105 5.67555 11.5148 5.67354L11.5793 5.64424C11.5843 5.64203 11.5906 5.64199 11.5959 5.64034L11.5949 5.63936C11.596 5.63898 11.5972 5.63855 11.5978 5.63839L11.5988 5.63741L11.5998 5.63839L11.6018 5.63741C11.6075 5.6354 11.6134 5.63335 11.6291 5.62764C11.6545 5.61842 11.6915 5.60368 11.7375 5.58565C11.831 5.549 11.9609 5.49474 12.1018 5.42745C12.4012 5.28437 12.6855 5.11125 12.8322 4.94698C12.9787 4.78246 13.1177 4.4804 13.2258 4.16671C13.2765 4.01935 13.3162 3.88486 13.342 3.7878C13.3547 3.73986 13.365 3.70077 13.3713 3.67452C13.3752 3.65812 13.3758 3.65208 13.3771 3.6462V3.65108C13.3773 3.65026 13.3778 3.64772 13.3781 3.64522C13.3783 3.64355 13.3786 3.64108 13.3791 3.63839L13.3811 3.63936L13.382 3.63741H13.3801C13.3803 3.63625 13.3798 3.6338 13.3801 3.63253L13.383 3.62276C13.3852 3.61294 13.389 3.59868 13.3928 3.58272C13.4002 3.5515 13.4105 3.50315 13.426 3.44503C13.4563 3.33094 13.5013 3.17227 13.5617 2.99678C13.6761 2.66452 13.8687 2.19839 14.1564 1.87569C14.4443 1.55315 14.8853 1.30935 15.2023 1.15792C15.3698 1.07794 15.5221 1.01545 15.632 0.97237C15.6876 0.95059 15.7342 0.93403 15.7658 0.922565C15.7801 0.917403 15.8023 0.910437 15.8039 0.90987C15.8015 0.910718 15.799 0.910292 15.8 0.90987L15.8186 0.903034Z" fill="black"/>
<path d="M14.4143 5.33956V5.34151L14.4133 5.34932V5.35323C14.4133 5.35232 14.4141 5.34988 14.4143 5.34737C14.4145 5.34529 14.4158 5.34207 14.4162 5.33858L14.4143 5.33956Z" fill="black"/>
</g>
<defs>
<clipPath id="clip0_169_729">
<rect width="32" height="32" fill="white"/>
</clipPath>
</defs>
</svg>
