<svg width="32" height="32" viewBox="0 0 32 32" fill="none" xmlns="http://www.w3.org/2000/svg">
<g clip-path="url(#clip0_169_747)">
<rect width="32" height="32" fill="white"/>
<path fill-rule="evenodd" clip-rule="evenodd" d="M5.21289 3.04004C5.49441 3.04057 5.7226 3.26983 5.72266 3.55078V4.00195C6.38456 4.03273 7.03702 4.17863 7.65039 4.43262C8.34583 4.7207 8.97855 5.14359 9.51074 5.67578C10.0428 6.20793 10.4649 6.83987 10.7529 7.53516C11.0409 8.23046 11.1894 8.97596 11.1895 9.72852L11.1826 10.0107C11.1503 10.6672 11.0049 11.3144 10.7529 11.9229C10.4649 12.6181 10.0428 13.2501 9.51074 13.7822C8.97855 14.3144 8.34584 14.7373 7.65039 15.0254C7.03703 15.2794 6.38455 15.4243 5.72266 15.4551V18.4863H6.63379C6.91495 18.4863 7.14426 18.7143 7.14453 18.9961L7.13965 19.042H8.06445V17.8643C8.06445 17.0303 8.74125 16.3535 9.5752 16.3535H15.5869C16.4207 16.3538 17.0967 17.0306 17.0967 17.8643V19.042H20C20.2814 19.0423 20.5107 19.2713 20.5107 19.5527V21.6709C20.5107 21.9524 20.2814 22.1814 20 22.1816H19.4395V28.1094C19.4394 28.3909 19.2103 28.6201 18.9287 28.6201H17.6396V29.8154C17.6396 29.9279 17.601 30.0308 17.5391 30.1152H20.4648C20.0989 29.9226 19.8496 29.5387 19.8496 29.0967V24.7949C19.8498 24.1599 20.365 23.6445 21 23.6445H22.4697L22.665 23.0742C22.8739 22.4633 23.4479 22.0518 24.0938 22.0518H24.8789C25.5246 22.0518 26.0998 22.463 26.3086 23.0742L26.5029 23.6445H27.9736C28.6084 23.6448 29.1238 24.1601 29.124 24.7949V29.0967C29.124 29.5387 28.8737 29.9226 28.5078 30.1152H30.5254C30.5037 30.1049 30.4829 30.0929 30.4639 30.0781C30.3978 30.0266 30.3564 29.955 30.3369 29.8838C30.2726 29.6457 30.2113 29.406 30.1553 29.167C29.9309 28.2099 29.7744 27.246 29.6836 26.2764C29.3679 22.9031 29.1427 19.5201 29.0078 16.1299C28.9982 15.8878 28.9892 15.645 28.9805 15.4033C28.9777 15.3222 29.0016 15.2357 29.0596 15.167C29.1163 15.1002 29.1982 15.0581 29.2852 15.0498C29.3725 15.0417 29.4604 15.0689 29.5283 15.124C29.5975 15.1804 29.639 15.2598 29.6514 15.3408C29.6877 15.5802 29.7233 15.82 29.7588 16.0596C30.2554 19.4161 30.6618 22.7818 30.9775 26.1553C31.0683 27.1249 31.0917 28.101 31.0488 29.083C31.0381 29.3286 31.023 29.5752 31.0039 29.8213C30.998 29.8952 30.9703 29.9724 30.915 30.0352C30.8757 30.0797 30.824 30.1122 30.7666 30.1309C30.9895 30.1853 31.156 30.3852 31.1562 30.625L31.1455 30.7275C31.098 30.9601 30.8921 31.1357 30.6455 31.1357H1.35449C1.10795 31.1357 0.902017 30.9601 0.854492 30.7275L0.84375 30.625C0.844094 30.3433 1.07338 30.1152 1.35449 30.1152H3.80859C3.74699 30.0308 3.70998 29.9277 3.70996 29.8154V28.6201H2.42969C2.14801 28.6201 1.91903 28.3909 1.91895 28.1094V22.1816H1.35938C1.07771 22.1816 0.848633 21.9526 0.848633 21.6709V19.5527C0.848699 19.2711 1.07775 19.042 1.35938 19.042H3.28418L3.2793 18.9961C3.27957 18.7143 3.50888 18.4863 3.79004 18.4863H4.70215V13.959C2.66042 13.7151 1.06255 12.0296 0.957031 9.94824L0.956055 9.94434L0.951172 9.7334V9.72949C0.951172 7.5485 2.58894 5.75043 4.70215 5.49805V3.55078C4.7022 3.30428 4.87779 3.0983 5.11035 3.05078L5.21289 3.04004ZM4.73047 29.8154C4.73045 29.9279 4.69178 30.0308 4.62988 30.1152H16.7178C16.6562 30.0308 16.6192 29.9277 16.6191 29.8154V28.6201H4.73047V29.8154ZM27.7256 26.4365C27.4781 26.9693 26.9442 27.3115 26.3564 27.3115H25.3184V27.4014C25.3184 27.8604 24.9459 28.2343 24.4863 28.2344H24.4785L24.4707 28.2334L24.333 28.2188L24.3252 28.2178L24.3184 28.2158C23.9395 28.138 23.6543 27.8032 23.6543 27.4014V27.3115H22.6162C22.0285 27.3115 21.4946 26.9693 21.2471 26.4365L20.8701 25.624V29.0967C20.8701 29.1685 20.9282 29.2266 21 29.2266H27.9736L28.0244 29.2168C28.0708 29.1968 28.1035 29.1503 28.1035 29.0967V25.6211L27.7256 26.4365ZM2.94043 27.5986H18.418V22.1816H2.94043V27.5986ZM22.1709 26.0068C22.2513 26.1797 22.4256 26.291 22.6162 26.291H23.7471C23.8722 26.0441 24.1134 25.8661 24.4014 25.8369L24.4863 25.832C24.8113 25.8321 25.0926 26.0191 25.2295 26.291H26.3564C26.547 26.291 26.7214 26.1797 26.8018 26.0068L27.4248 24.665H21.5479L22.1709 26.0068ZM24.0938 23.0732C23.8837 23.0732 23.6965 23.2064 23.6289 23.4043L23.5469 23.6445H25.4258L25.3438 23.4043C25.2761 23.2064 25.0889 23.0732 24.8789 23.0732H24.0938ZM1.87012 21.1602H19.4893V20.0625H16.5967C16.5934 20.0626 16.5902 20.0635 16.5869 20.0635H8.5752C8.57193 20.0635 8.56868 20.0626 8.56543 20.0625H1.87012V21.1602ZM9.5752 17.375C9.30458 17.375 9.08594 17.5936 9.08594 17.8643V19.042H16.0762V17.8643C16.0762 17.6277 15.9087 17.4306 15.6855 17.3848L15.5869 17.375H9.5752ZM5.72266 5.49707C7.83602 5.74929 9.47559 7.54833 9.47559 9.72949V9.7334L9.4707 9.94434L9.46973 9.94824C9.36423 12.0298 7.76481 13.7154 5.72266 13.959V14.4316C6.25046 14.4019 6.77011 14.2848 7.25977 14.082C7.83156 13.8452 8.35157 13.498 8.78906 13.0605C9.22647 12.6231 9.57378 12.1038 9.81055 11.5322C10.0473 10.9606 10.1689 10.3473 10.1689 9.72852C10.1689 9.10994 10.0472 8.49728 9.81055 7.92578C9.57378 7.35423 9.22647 6.83494 8.78906 6.39746C8.35157 5.95998 7.83156 5.61282 7.25977 5.37598C6.7701 5.17319 6.25048 5.05516 5.72266 5.02539V5.49707ZM5.0459 6.49121C4.89209 6.49903 4.74117 6.52029 4.59375 6.54883C4.59439 6.55922 4.59765 6.56953 4.59766 6.58008C4.59768 6.79736 4.53591 7.01509 4.49414 7.16113C4.44431 7.33534 4.41041 7.4479 4.39844 7.55176C4.3879 7.64407 4.40261 7.67274 4.40723 7.68066C4.41295 7.69026 4.45197 7.74985 4.62695 7.81836C4.89051 7.92131 5.165 7.83496 5.49805 7.64258L5.72949 7.50098C5.80147 7.45652 5.88836 7.40386 5.9707 7.36328C6.03832 7.32999 6.18381 7.2618 6.35547 7.2666C6.42256 7.26861 6.49649 7.28478 6.57031 7.31543C6.81475 7.36514 6.92503 7.55758 6.95996 7.66309C6.99145 7.75865 6.98838 7.8422 6.98633 7.87598C6.97865 8.00071 6.92944 8.1396 6.89648 8.22656C6.81448 8.44272 6.67122 8.74377 6.49512 9.04492C6.32017 9.34403 6.09515 9.67283 5.84375 9.92773C5.61977 10.1547 5.24877 10.452 4.79297 10.4043C4.40805 10.3638 4.01492 10.3693 3.75488 10.4326C3.74718 10.4345 3.73952 10.4375 3.73242 10.4395L4.49609 11.4609C4.49962 11.4657 4.49999 11.4724 4.50293 11.4775C4.56968 11.5717 4.60697 11.6803 4.6084 11.792L4.59668 11.9102C4.56905 12.044 4.49995 12.1384 4.45898 12.1865C4.37695 12.2826 4.27027 12.3535 4.19824 12.3984C4.07121 12.4775 3.91019 12.5554 3.76172 12.625C4.15168 12.8208 4.58557 12.9434 5.0459 12.9668L5.21289 12.9707C5.46869 12.9707 5.71733 12.9398 5.95605 12.8838C5.97392 12.814 5.99734 12.7503 6.01465 12.7061C6.0466 12.6243 6.05281 12.6107 6.08105 12.5371C6.12212 12.4301 6.1485 12.3379 6.15527 12.249C6.16065 12.1765 6.1551 12.0847 6.10156 11.9717C6.04681 11.8563 5.93798 11.7098 5.72461 11.5352C5.71423 11.5267 5.69815 11.5128 5.68359 11.5C5.67387 11.4914 5.66111 11.4788 5.64844 11.4658C5.63932 11.4565 5.60374 11.4217 5.57227 11.3701L5.57324 11.3691C5.5578 11.3439 5.43949 11.1524 5.53418 10.9131C5.6381 10.6518 5.88198 10.6045 5.91992 10.5977C5.95213 10.5919 5.98275 10.5893 6.00586 10.5889L6.05371 10.5908L6.10156 10.5967C6.17549 10.6078 6.18638 10.6147 6.26367 10.6201C6.3921 10.6291 6.66244 10.6217 7.06738 10.4463C7.22017 10.38 7.29102 10.3258 7.32227 10.2939C7.33631 10.2795 7.34193 10.2692 7.34375 10.2656C7.34473 10.2636 7.34514 10.2624 7.3457 10.2598C7.34821 10.2476 7.35142 10.2139 7.33887 10.1348C7.32293 10.0347 7.30726 9.98232 7.27734 9.8291C7.24045 9.63926 7.3143 9.44406 7.46875 9.32617C7.6236 9.20851 7.83143 9.18983 8.00488 9.27637L8.34277 9.44531L8.41992 9.29297C8.421 9.29081 8.42272 9.28827 8.42383 9.28613C8.20768 7.70548 6.85281 6.48755 5.21289 6.4873L5.0459 6.49121ZM8.31445 10.5693C8.19892 10.9379 7.89975 11.1977 7.47266 11.3828C7.3125 11.4522 7.16129 11.5019 7.02246 11.54C7.1457 11.7999 7.18884 12.0575 7.17285 12.3076C7.73286 11.8815 8.14904 11.2789 8.33887 10.5811L8.31445 10.5693ZM3.48145 6.99121C2.61861 7.53817 2.03056 8.47897 1.97559 9.5625L1.97168 9.72949C1.97179 10.579 2.2994 11.3508 2.83398 11.9287C2.9505 11.8742 3.10432 11.8068 3.2334 11.748C3.28485 11.7246 3.33431 11.6983 3.38184 11.6748L2.7168 10.7852C2.67227 10.7257 2.63924 10.6556 2.62402 10.5801C2.56042 10.2624 2.65942 9.97244 2.87402 9.76465C3.06019 9.58495 3.30556 9.49322 3.51367 9.44238C3.9327 9.34027 4.45094 9.34352 4.88281 9.3877C4.88834 9.38599 4.90099 9.38278 4.91895 9.37305C4.95961 9.35088 5.02654 9.30379 5.11816 9.21094C5.23159 9.09585 5.34665 8.94336 5.45801 8.77637C5.14925 8.87966 4.77955 8.93241 4.37988 8.81055L4.25586 8.76758C3.93842 8.64335 3.68162 8.46077 3.52637 8.19531C3.3716 7.92989 3.35965 7.65341 3.38477 7.43457C3.40296 7.27672 3.44514 7.11867 3.48145 6.99121Z" fill="black"/>
<path d="M31.1787 14.8701H15.377C15.0955 14.8699 14.8662 14.6409 14.8662 14.3594C14.8663 14.0778 15.0963 13.8486 15.3779 13.8486H31.1797L31.1787 14.8701Z" fill="black"/>
<path fill-rule="evenodd" clip-rule="evenodd" d="M31.6357 13.6074H22.6094V8.56348L31.6357 13.6074ZM24.0098 12.207H26.2598L24.0098 10.9492V12.207Z" fill="black"/>
<path d="M31.0039 1.37891C31.0865 1.37917 31.1543 1.44662 31.1543 1.5293V2.25C31.1543 2.33267 31.0865 2.40013 31.0039 2.40039H17.0869V12.2002H21.8115C21.8941 12.2005 21.9619 12.2679 21.9619 12.3506V13.0703C21.9619 13.153 21.8941 13.2204 21.8115 13.2207H16.5762C16.2953 13.2205 16.0657 12.9927 16.0654 12.7109V1.88965C16.0658 1.60851 16.2948 1.37911 16.5762 1.37891H31.0039Z" fill="black"/>
<path d="M19.6025 6.65137C19.8836 6.65185 20.112 6.88009 20.1123 7.16113L20.1016 7.26367C20.0543 7.49575 19.849 7.67145 19.6025 7.67188H19.0322C18.7857 7.67188 18.5798 7.49626 18.5322 7.26367L18.5215 7.16113C18.5218 6.87942 18.7511 6.65137 19.0322 6.65137H19.6025Z" fill="black"/>
<path d="M22.4541 6.65137C22.735 6.65163 22.9645 6.87958 22.9648 7.16113L22.9541 7.26367C22.9066 7.49611 22.7004 7.67164 22.4541 7.67188H21.3135C21.0669 7.67188 20.861 7.49626 20.8135 7.26367L20.8027 7.16113C20.8031 6.87942 21.0324 6.65137 21.3135 6.65137H22.4541Z" fill="black"/>
<path d="M25.3057 6.65137C25.5866 6.65163 25.8161 6.87958 25.8164 7.16113L25.8057 7.26367C25.7582 7.49611 25.552 7.67164 25.3057 7.67188H24.165C23.9184 7.67169 23.7134 7.4959 23.666 7.26367L23.6553 7.16113C23.6556 6.87993 23.8837 6.65158 24.165 6.65137H25.3057Z" fill="black"/>
<path d="M27.5879 6.65137C27.869 6.65185 28.0973 6.88009 28.0977 7.16113L28.0869 7.26367C28.0396 7.49575 27.8343 7.67145 27.5879 7.67188H27.0176C26.771 7.67188 26.5651 7.49626 26.5176 7.26367L26.5068 7.16113C26.5072 6.87942 26.7365 6.65137 27.0176 6.65137H27.5879Z" fill="black"/>
<path d="M19.5791 4.16797C19.8599 4.1686 20.0884 4.3968 20.0889 4.67773L20.0781 4.78027C20.0308 5.01233 19.8253 5.18793 19.5791 5.18848H19.0322C18.7857 5.18848 18.5798 5.01287 18.5322 4.78027L18.5215 4.67773C18.522 4.39614 18.7512 4.16797 19.0322 4.16797H19.5791Z" fill="black"/>
<path d="M22.3125 4.16797C22.5932 4.16832 22.8228 4.39629 22.8232 4.67773L22.8125 4.78027C22.765 5.0127 22.5587 5.18816 22.3125 5.18848H21.2188C20.9723 5.18839 20.7663 5.01285 20.7188 4.78027L20.708 4.67773C20.7085 4.39613 20.9379 4.16807 21.2188 4.16797H22.3125Z" fill="black"/>
<path d="M25.0459 4.16797C25.3267 4.16823 25.5562 4.3963 25.5566 4.67773L25.5459 4.78027C25.4984 5.01271 25.2922 5.18824 25.0459 5.18848H23.9521C23.7057 5.18815 23.5005 5.01248 23.4531 4.78027L23.4424 4.67773C23.4429 4.39663 23.6712 4.16834 23.9521 4.16797H25.0459Z" fill="black"/>
<path d="M27.7803 4.16797C28.0612 4.16852 28.2896 4.3968 28.29 4.67773L28.2793 4.78027C28.232 5.01234 28.0266 5.18799 27.7803 5.18848H26.6865C26.44 5.18848 26.234 5.01287 26.1865 4.78027L26.1758 4.67773C26.1763 4.39614 26.4055 4.16797 26.6865 4.16797H27.7803Z" fill="black"/>
<path d="M29.9668 4.16797C30.2476 4.16823 30.4771 4.3963 30.4775 4.67773L30.4668 4.78027C30.4193 5.01271 30.2131 5.18824 29.9668 5.18848H29.4199C29.1732 5.18833 28.9682 5.01251 28.9209 4.78027L28.9102 4.67773C28.9106 4.39665 29.1386 4.16814 29.4199 4.16797H29.9668Z" fill="black"/>
</g>
<defs>
<clipPath id="clip0_169_747">
<rect width="32" height="32" fill="white"/>
</clipPath>
</defs>
</svg>
