<svg width="32" height="32" viewBox="0 0 32 32" fill="none" xmlns="http://www.w3.org/2000/svg">
<g clip-path="url(#clip0_177_401)">
<rect width="32" height="32" fill="white"/>
<path d="M30.6348 30.2256C30.9162 30.2259 31.1455 30.4548 31.1455 30.7363C31.1455 31.0178 30.9162 31.2468 30.6348 31.2471H1.38672C1.10505 31.2471 0.875977 31.018 0.875977 30.7363C0.875985 30.4547 1.10506 30.2256 1.38672 30.2256H30.6348Z" fill="black"/>
<path fill-rule="evenodd" clip-rule="evenodd" d="M12.8193 13.793C13.7497 13.6213 14.6448 14.1218 15.0156 14.9443L15.0303 14.9766C15.5236 15.9437 16.3074 17.7651 16.8408 18.9873C16.9333 19.1993 17.0474 19.237 17.0693 19.2373H21.3857C22.2709 19.2375 23.0918 19.6862 23.5723 20.4209L23.585 20.4385L23.6582 20.5605L23.6602 20.5645L23.665 20.5732L26.834 26.2256L26.8525 26.2598V26.2637C27.2924 27.0917 27.0408 28.1099 26.2861 28.6406L26.2803 28.6445L26.1514 28.7256H30.6348C30.9162 28.7259 31.1455 28.9548 31.1455 29.2363C31.1455 29.5178 30.9162 29.7468 30.6348 29.7471H1.38672C1.10505 29.7471 0.875977 29.518 0.875977 29.2363C0.875985 28.9547 1.10506 28.7256 1.38672 28.7256H11.2656C11.2211 28.65 11.1945 28.5628 11.1943 28.4688V26.9434H1.38672C1.10517 26.9434 0.876167 26.7141 0.875977 26.4326C0.875977 26.151 1.10505 25.9219 1.38672 25.9219H18.3408C18.6223 25.9221 18.8516 26.1511 18.8516 26.4326C18.8514 26.714 18.6221 26.9431 18.3408 26.9434H12.2158V28.4688C12.2157 28.5628 12.1881 28.65 12.1436 28.7256H24.29C24.0658 28.5953 23.8656 28.4171 23.709 28.1943L23.7051 28.1885L23.6123 28.041L23.6084 28.0342L20.751 22.9336H18.4492C18.6787 22.9836 18.8516 23.1883 18.8516 23.4326C18.8514 23.714 18.6221 23.9431 18.3408 23.9434H1.38672C1.10517 23.9434 0.876167 23.7141 0.875977 23.4326C0.875977 23.151 1.10505 22.9219 1.38672 22.9219H8.77734C8.574 22.9006 8.3705 22.8465 8.17578 22.7539H8.1709L8.13965 22.7383C7.2278 22.2804 6.8589 21.1692 7.31641 20.2568L9.52246 15.8594C9.61642 15.0015 10.2574 14.2676 11.1514 14.1016L11.165 14.0986H11.168L12.8193 13.793ZM21.4805 20.2617C21.4332 20.5194 21.3232 20.7589 21.1934 20.9668C21.0249 21.2362 20.803 21.4895 20.5742 21.7139C20.5042 21.7825 20.4312 21.8489 20.3584 21.9141H21.0439C21.1845 21.9142 21.3176 21.9716 21.4141 22.0693L21.4219 22.0771L21.4277 22.085L21.4863 22.1641L21.4922 22.1719L21.4971 22.1807L24.4541 27.458L24.498 27.5352C24.7215 27.9331 25.2273 28.0755 25.627 27.8516C25.9981 27.6431 26.1467 27.1915 25.9854 26.8086L25.9404 26.7188L22.7754 21.0723L22.7715 21.0654L22.7197 20.9785L22.5967 20.8154C22.3176 20.4893 21.9152 20.2878 21.4805 20.2617ZM10.6201 21.915C10.326 22.5007 9.76313 22.8598 9.15625 22.9219H15.6045C14.8071 22.8491 14.0794 22.4153 13.6416 21.7334L11.9961 19.168L10.6201 21.915ZM15.249 18.3008C14.9883 18.4609 14.6904 18.6106 14.3936 18.7451C13.9948 18.9257 13.5814 19.0838 13.2324 19.2061L14.5 21.1826C14.7927 21.6385 15.2997 21.914 15.8428 21.9141H18.6582C18.6695 21.9059 18.6802 21.896 18.6924 21.8887C19.0015 21.7021 19.4714 21.3667 19.8604 20.9854C20.0544 20.7951 20.2172 20.6047 20.3291 20.4258C20.3673 20.3646 20.3958 20.3079 20.4189 20.2568H17.0693C16.4499 20.2566 16.0658 19.7635 15.9053 19.3955C15.7473 19.0336 15.5691 18.6277 15.3867 18.21C15.3407 18.2405 15.2956 18.2722 15.249 18.3008ZM13.0049 14.7959L11.3379 15.1045C10.8784 15.1897 10.5507 15.5814 10.5293 16.0303L10.5254 16.1074L10.5244 16.1387L10.5098 16.167L10.4756 16.2354L8.22754 20.7148C8.02285 21.1235 8.18886 21.6218 8.59766 21.8271C9.00613 22.0314 9.50374 21.8659 9.70898 21.457L11.4795 17.9277L11.4834 17.918L11.4893 17.9102L11.5479 17.8252L11.5537 17.8164L11.5605 17.8086C11.7266 17.6266 11.9979 17.5909 12.2041 17.71L12.2881 17.7705L12.2949 17.7773L12.3018 17.7852L12.3691 17.8633L12.376 17.8711L12.3818 17.8799L12.665 18.3213C13.0253 18.2027 13.5115 18.0258 13.9717 17.8174C14.2452 17.6935 14.5023 17.5621 14.7148 17.4316C14.816 17.3695 14.8998 17.3101 14.9688 17.2568C14.6451 16.5283 14.3323 15.844 14.0967 15.3877L14.0928 15.3799L14.085 15.3623C13.9013 14.9563 13.4597 14.7122 13.0049 14.7959Z" fill="black"/>
<path d="M18.3408 24.4219C18.6223 24.4221 18.8516 24.6511 18.8516 24.9326C18.8514 25.214 18.6221 25.4431 18.3408 25.4434H1.38672C1.10517 25.4434 0.876167 25.2141 0.875977 24.9326C0.875977 24.651 1.10505 24.4219 1.38672 24.4219H18.3408Z" fill="black"/>
<path d="M1.38574 3.86914C1.66741 3.86914 1.89648 4.09822 1.89648 4.37988V21.6953C1.89635 21.9767 1.66808 22.2058 1.38672 22.2061C1.10513 22.2061 0.875132 21.9769 0.875 21.6953V4.37988C0.875 4.09838 1.1043 3.8694 1.38574 3.86914Z" fill="black"/>
<path d="M2.88574 3.86914C3.16741 3.86914 3.39648 4.09822 3.39648 4.37988V21.6953C3.39635 21.9767 3.16808 22.2058 2.88672 22.2061C2.60513 22.2061 2.37513 21.9769 2.375 21.6953V4.37988C2.375 4.09838 2.6043 3.8694 2.88574 3.86914Z" fill="black"/>
<path d="M26.1572 5.6416C26.4276 5.59825 26.6847 5.79471 26.7305 6.08008L27.2236 9.16211C27.5063 10.9284 26.3229 12.5563 24.6357 12.7236C23.5527 12.831 22.7889 13.8436 22.9004 14.958L22.9355 15.1826L23.4873 17.8672C23.5454 18.1503 23.3745 18.4267 23.1064 18.4834C22.8384 18.5399 22.5737 18.3554 22.5156 18.0723L21.9639 15.3857C21.5937 13.5785 22.7859 11.8553 24.5264 11.6826C25.6459 11.5715 26.4318 10.4904 26.2441 9.31836L25.75 6.2373C25.7046 5.95212 25.887 5.68523 26.1572 5.6416Z" fill="black"/>
<path d="M22.416 5.3457C22.6865 5.3023 22.9435 5.49882 22.9893 5.78418L23.4023 8.36133C23.6469 9.88783 22.6244 11.2968 21.166 11.4414C20.2471 11.5324 19.6177 12.4423 19.8135 13.3965L20.2754 15.6426C20.3335 15.9256 20.1625 16.2011 19.8945 16.2578C19.6265 16.3143 19.3619 16.1307 19.3037 15.8477L18.8428 13.5996C18.5227 12.0376 19.5523 10.5485 21.0566 10.3994C21.9472 10.3111 22.5722 9.45081 22.4229 8.51855L22.0098 5.94043C21.9645 5.65557 22.1463 5.38966 22.416 5.3457Z" fill="black"/>
<path d="M19.2236 4.74609C19.4938 4.70291 19.7501 4.89918 19.7959 5.18457L20.1592 7.45508C20.38 8.83463 19.4564 10.1073 18.1387 10.2383C17.3644 10.315 16.8331 11.0818 16.998 11.8857L17.4053 13.8643C17.4633 14.1473 17.2924 14.4228 17.0244 14.4795C16.7565 14.5359 16.4919 14.3522 16.4336 14.0693L16.0273 12.0898C15.7378 10.6779 16.6686 9.3323 18.0283 9.19727C18.7788 9.12296 19.3056 8.397 19.1797 7.61133L18.8164 5.34082C18.7769 5.09137 18.9108 4.85544 19.126 4.77148L19.2236 4.74609Z" fill="black"/>
<path fill-rule="evenodd" clip-rule="evenodd" d="M8.00195 7.48145C8.2766 6.65139 9.19489 6.37271 9.90527 6.69727C10.5917 7.01126 11.4084 7.40188 12.1211 7.77637C12.4772 7.96351 12.8129 8.14953 13.0947 8.32227C13.3683 8.49001 13.6211 8.66239 13.791 8.82422C14.1171 9.13526 14.0401 9.54451 13.9395 9.78516C13.8425 10.0161 13.6696 10.2465 13.4756 10.459C13.6376 10.782 13.7314 11.1463 13.7314 11.5322L13.7188 11.7783C13.6035 12.909 12.7038 13.8084 11.5732 13.9238L11.3271 13.9365C10.4885 13.9365 9.75127 13.5054 9.32129 12.8545C8.72215 12.9631 8.0285 12.9404 7.57324 12.4541L7.47949 12.3418C7.30676 12.1131 7.30065 11.8455 7.35156 11.6484C7.36858 10.7445 7.52082 8.93572 8.00195 7.48145ZM12.665 11.1953C12.3529 11.4387 12.0058 11.6778 11.6455 11.8945C11.2415 12.1375 10.8067 12.3596 10.375 12.5352C10.6229 12.7709 10.9583 12.916 11.3271 12.916L11.4688 12.9092C12.1195 12.8426 12.6376 12.3246 12.7041 11.6738L12.7109 11.5322C12.7109 11.4159 12.6924 11.3034 12.665 11.1953ZM9.48145 7.625C9.24165 7.51552 9.0274 7.63137 8.9707 7.80273C8.53275 9.12692 8.38576 10.8328 8.37109 11.6826C8.37043 11.7186 8.36645 11.7533 8.36133 11.7871C8.48828 11.8793 8.74548 11.9405 9.23633 11.834C9.79607 11.7124 10.474 11.4085 11.1191 11.0205C11.7623 10.6337 12.3332 10.1883 12.6875 9.8125C12.8246 9.66696 12.9121 9.54859 12.9619 9.46387C12.8647 9.38984 12.7323 9.29611 12.5615 9.19141C12.3061 9.03486 11.9917 8.86107 11.6465 8.67969C10.9565 8.31712 10.1585 7.93474 9.48145 7.625Z" fill="black"/>
<path d="M30.6348 2.34277C30.9162 2.34304 31.1455 2.57201 31.1455 2.85352C31.1452 3.13479 30.916 3.36399 30.6348 3.36426H1.38672C1.10522 3.36426 0.876241 3.13496 0.875977 2.85352C0.875977 2.57185 1.10505 2.34277 1.38672 2.34277H30.6348Z" fill="black"/>
<path d="M30.6348 0.842773C30.9162 0.843038 31.1455 1.07201 31.1455 1.35352C31.1452 1.63479 30.916 1.86399 30.6348 1.86426H1.38672C1.10522 1.86426 0.876241 1.63496 0.875977 1.35352C0.875977 1.07185 1.10505 0.841797 1.38672 0.841797L30.6348 0.842773Z" fill="black"/>
</g>
<defs>
<clipPath id="clip0_177_401">
<rect width="32" height="32" fill="white"/>
</clipPath>
</defs>
</svg>
