<svg width="32" height="32" viewBox="0 0 32 32" fill="none" xmlns="http://www.w3.org/2000/svg">
<g clip-path="url(#clip0_397_71)">
<path d="M8.59473 23.0379C8.90094 23.0379 9.1492 23.2864 9.14941 23.5926C9.14941 23.899 8.90107 24.1473 8.59473 24.1473C8.28838 24.1473 8.04004 23.899 8.04004 23.5926C8.04025 23.2864 8.28851 23.0379 8.59473 23.0379Z" fill="black"/>
<path d="M8.67871 5.28304C8.98497 5.28304 9.23325 5.53151 9.2334 5.83773C9.2334 6.14408 8.98506 6.39242 8.67871 6.39242C8.37237 6.39242 8.12402 6.14408 8.12402 5.83773C8.12417 5.53151 8.37246 5.28304 8.67871 5.28304Z" fill="black"/>
<path d="M21.3457 23.0155C21.652 23.0155 21.9004 23.2638 21.9004 23.5702C21.9004 23.8765 21.652 24.1248 21.3457 24.1248C21.0394 24.1248 20.791 23.8765 20.791 23.5702C20.791 23.2638 21.0394 23.0155 21.3457 23.0155Z" fill="black"/>
<path d="M21.2549 6.39242C21.5611 6.39242 21.8094 6.64091 21.8096 6.94711C21.8096 7.25345 21.5612 7.50179 21.2549 7.50179C20.9485 7.50179 20.7002 7.25345 20.7002 6.94711C20.7004 6.64091 20.9486 6.39242 21.2549 6.39242Z" fill="black"/>
<path fill-rule="evenodd" clip-rule="evenodd" d="M29.1055 3.30355L29.1963 3.32308C29.4004 3.38592 29.5462 3.5743 29.5488 3.79476L29.8545 29.8319C29.8575 30.1021 29.645 30.3256 29.375 30.3368L4.78906 31.3534C4.75155 31.3549 4.71367 31.3524 4.67676 31.3455L3.22656 31.075C2.99004 31.0308 2.81848 30.8245 2.81836 30.5838V1.84945C2.81836 1.66717 2.91748 1.49888 3.07715 1.41097L4.52734 0.613122L4.59766 0.581872C4.66979 0.555678 4.74727 0.545861 4.82422 0.554529L29.1055 3.30355ZM5.26855 28.7323V30.3319L28.8486 29.3573L28.832 28.0155L5.26855 28.7323ZM3.81836 30.1678L4.26855 30.2518V28.6639L3.81836 28.5975V30.1678ZM5.26855 27.7323L12.3643 27.5155V2.4139L5.26855 1.61117V27.7323ZM3.81836 2.14535V27.5868L4.26855 27.6532V1.8973L3.81836 2.14535ZM13.3643 27.4852L28.8203 27.0155L28.5537 4.24789L13.3643 2.52718V27.4852Z" fill="black"/>
</g>
<defs>
<clipPath id="clip0_397_71">
<rect width="32" height="32" fill="white"/>
</clipPath>
</defs>
</svg>
