<svg viewBox="0 0 24 24" xmlns="http://www.w3.org/2000/svg" xmlns:xlink="http://www.w3.org/1999/xlink" width="24.000000" height="24.000000" fill="none">
	<rect id="Icon/System/Brightness" width="24.000000" height="24.000000" x="0.000000" y="0.000000" />
	<path id="Vector 20" d="M17.5103 12.1768C17.5103 9.13921 15.0478 6.67676 12.0103 6.67676C8.9727 6.67676 6.51025 9.13921 6.51025 12.1768C6.51025 15.2143 8.9727 17.6768 12.0103 17.6768C15.0478 17.6768 17.5103 15.2143 17.5103 12.1768Z" fill-rule="nonzero" stroke="rgb(242,252.833,255)" stroke-linejoin="round" stroke-width="1.500000" />
	<path id="Vector 21" d="M19.4801 4.50488L18.25 5.7421" stroke="rgb(242,252.833,255)" stroke-linecap="round" stroke-width="1.500000" />
	<path id="Vector 22" d="M5.5337 18.3726L4.51025 19.4019" stroke="rgb(242,252.833,255)" stroke-linecap="round" stroke-width="1.500000" />
	<path id="Vector 23" d="M12 20.6766L12 22.1766" stroke="rgb(242,252.833,255)" stroke-linecap="round" stroke-width="1.500000" />
	<path id="Vector 24" d="M21.9999 11.6768L19.9999 11.6768" stroke="rgb(242,252.833,255)" stroke-linecap="round" stroke-width="1.500000" />
	<path id="Vector 25" d="M18.7662 18.168L19.9999 19.4017" stroke="rgb(242,252.833,255)" stroke-linecap="round" stroke-width="1.500000" />
	<path id="Vector 26" d="M12.0103 8.67676C10.0773 8.67676 8.51025 10.2438 8.51025 12.1768C8.51025 14.1098 10.0773 15.6768 12.0103 15.6768" fill="rgb(242,252.833,255)" fill-rule="evenodd" />
	<path id="Vector 27" d="M2.00009 12.1768L4.00009 12.1768" stroke="rgb(242,252.833,255)" stroke-linecap="round" stroke-width="1.500000" />
	<path id="Vector 28" d="M5.02219 4.50488L6.04859 5.53126" stroke="rgb(242,252.833,255)" stroke-linecap="round" stroke-width="1.500000" />
	<path id="Vector 29" d="M12 1.67688L12 3.67688" stroke="rgb(242,252.833,255)" stroke-linecap="round" stroke-width="1.500000" />
</svg>
