<svg viewBox="0 0 24 24" xmlns="http://www.w3.org/2000/svg" xmlns:xlink="http://www.w3.org/1999/xlink" width="24.000000" height="24.000000" fill="none">
	<rect id="Icon/System/Color" width="24.000000" height="24.000000" x="0.000000" y="0.000000" />
	<path id="Vector 214" d="M18.5389 9.73956C18.9314 9.89566 19.302 10.0857 19.6509 10.3097C20.2733 10.7093 20.8264 11.2169 21.3102 11.8325C22.2701 13.054 22.75 14.4432 22.75 16C22.75 16.9319 22.5853 17.7957 22.2558 18.5912C21.9263 19.3867 21.432 20.1139 20.773 20.7729C20.114 21.432 19.3867 21.9262 18.5912 22.2557C17.7957 22.5852 16.932 22.75 16 22.75C15.1372 22.75 14.3296 22.6057 13.5774 22.3173L13.5773 22.3173C13.0227 22.1046 12.4982 21.8135 12.0038 21.4441C11.5596 21.7791 11.0887 22.0497 10.5912 22.2557C9.79568 22.5852 8.93195 22.75 8 22.75C7.06802 22.75 6.20428 22.5852 5.40878 22.2557C4.61328 21.9262 3.88605 21.432 3.22702 20.7729C2.56805 20.114 2.07379 19.3867 1.74429 18.5913L1.74423 18.5912C1.41473 17.7957 1.25 16.9319 1.25 16C1.25 15.2141 1.37231 14.471 1.61691 13.7705L1.61691 13.7705C1.85687 13.0834 2.21451 12.4374 2.68985 11.8325C3.17355 11.2169 3.72662 10.7093 4.34903 10.3097L4.34915 10.3097C4.698 10.0857 5.06863 9.89566 5.46106 9.73959C5.32034 9.18887 5.25 8.60901 5.25 8C5.25 7.06802 5.41476 6.20428 5.74426 5.40878C6.07376 4.61331 6.56802 3.88605 7.22702 3.22702C7.88605 2.56802 8.61331 2.07376 9.40881 1.74426C10.2043 1.41476 11.068 1.25 12 1.25C12.932 1.25 13.7957 1.41473 14.5912 1.74423L14.5912 1.74423C15.3867 2.07376 16.114 2.56802 16.773 3.22702C17.432 3.88605 17.9262 4.61328 18.2557 5.40878C18.5852 6.20428 18.75 7.06802 18.75 8C18.75 8.60901 18.6797 9.18884 18.5389 9.73956ZM17.9969 11.1393C17.6855 11.7238 17.2775 12.2684 16.773 12.773C16.114 13.432 15.3867 13.9262 14.5912 14.2558C14.5707 14.2643 14.5501 14.2726 14.5296 14.2809C14.6765 14.8384 14.75 15.4114 14.75 16C14.75 16.9319 14.5853 17.7957 14.2558 18.5912L14.2557 18.5912C13.9875 19.2388 13.6101 19.8411 13.1236 20.3982C13.9734 20.9661 14.9322 21.25 16 21.25C16.7249 21.25 17.3966 21.1219 18.0154 20.8656C18.6341 20.6093 19.1997 20.2249 19.7123 19.7123C20.2249 19.1997 20.6093 18.6341 20.8656 18.0154C21.1219 17.3966 21.25 16.7249 21.25 16C21.25 15.3871 21.1544 14.8076 20.9632 14.2616C20.7767 13.729 20.4992 13.2282 20.1307 12.7593C19.7516 12.2767 19.3179 11.8795 18.8297 11.5676C18.5678 11.4003 18.2902 11.2575 17.9969 11.1393ZM13.0811 14.6716C12.7316 14.7239 12.3712 14.75 12 14.75C11.068 14.75 10.2043 14.5853 9.40881 14.2558C8.61331 13.9262 7.88605 13.432 7.22702 12.773C6.72247 12.2684 6.31448 11.7238 6.00308 11.1393C5.70981 11.2575 5.43222 11.4003 5.17035 11.5676C4.68213 11.8795 4.24844 12.2767 3.86926 12.7593C3.50079 13.2282 3.2233 13.729 3.03677 14.2616C2.84558 14.8076 2.75 15.3871 2.75 16C2.75 16.7249 2.87814 17.3966 3.13443 18.0154C3.39069 18.6341 3.77512 19.1997 4.28769 19.7123C5.31281 20.7374 6.55026 21.25 8 21.25C8.72485 21.25 9.39664 21.1219 10.0153 20.8656L10.0154 20.8656C10.6341 20.6093 11.1997 20.2249 11.7123 19.7123C12.2249 19.1997 12.6093 18.6341 12.8656 18.0154C13.1219 17.3966 13.25 16.7249 13.25 16C13.25 15.545 13.1937 15.1022 13.0811 14.6716ZM17.25 8C17.25 7.27512 17.1219 6.60333 16.8656 5.98462C16.6093 5.36591 16.2249 4.80026 15.7123 4.28769C15.1997 3.77512 14.6341 3.39069 14.0154 3.1344C13.3966 2.87814 12.7249 2.75 12 2.75C11.2751 2.75 10.6034 2.87814 9.98465 3.1344L9.98462 3.13443C9.36591 3.39069 8.80026 3.77512 8.28769 4.28769C7.77512 4.80026 7.39069 5.36591 7.13443 5.98462C6.87814 6.60333 6.75 7.27512 6.75 8C6.75 8.72485 6.87814 9.39664 7.1344 10.0154C7.39069 10.6341 7.77512 11.1997 8.28769 11.7123C8.80026 12.2249 9.36591 12.6093 9.98465 12.8656C10.6034 13.1219 11.2751 13.25 12 13.25C12.7249 13.25 13.3966 13.1219 14.0154 12.8656L14.0154 12.8656C14.6341 12.6093 15.1997 12.2249 15.7123 11.7123C16.2249 11.1997 16.6093 10.6341 16.8656 10.0154C17.1219 9.39664 17.25 8.72485 17.25 8Z" fill="rgb(242,252.833,255)" fill-rule="evenodd" />
</svg>
