<svg viewBox="0 0 32 32" xmlns="http://www.w3.org/2000/svg" xmlns:xlink="http://www.w3.org/1999/xlink" width="32.000000" height="32.000000" fill="none">
	<rect id="Name=moon, Type on-off=On" width="32.000000" height="32.000000" x="0.000000" y="0.000000" fill="rgb(255,255,255)" fill-opacity="0" />
	<path id="Vector" d="M13.5029 5.414C13.0446 7.37115 12.9823 9.40018 13.3197 11.3817C13.6571 13.3633 14.3874 15.2574 15.4675 16.9526C16.5477 18.6478 17.956 20.1099 19.6095 21.2528C21.263 22.3958 23.1284 23.1966 25.0959 23.608C24.0618 24.679 22.8229 25.531 21.4529 26.1134C20.0828 26.6958 18.6096 26.9966 17.1209 26.998C16.9829 26.998 16.8429 27.003 16.7029 26.998C14.1113 26.9067 11.6335 25.9104 9.70009 24.1822C7.76667 22.454 6.49975 20.1031 6.11944 17.5379C5.73913 14.9727 6.26946 12.3553 7.6183 10.1405C8.96713 7.92564 11.0492 6.2533 13.5029 5.414ZM14.9799 3C14.9212 3.00019 14.8626 3.00554 14.8049 3.016C11.6215 3.58252 8.76025 5.30669 6.77199 7.85653C4.78373 10.4064 3.80906 13.6016 4.03563 16.8271C4.26219 20.0525 5.67398 23.0801 7.99918 25.327C10.3244 27.5738 13.3986 28.8811 16.6299 28.997C16.7939 29.003 16.9579 28.997 17.1199 28.997C19.2189 28.9985 21.2873 28.4945 23.1503 27.5276C25.0133 26.5607 26.616 25.1593 27.8229 23.442C27.9207 23.294 27.9778 23.1229 27.9884 22.9458C27.999 22.7687 27.9628 22.592 27.8835 22.4333C27.8041 22.2747 27.6843 22.1397 27.5363 22.0421C27.3882 21.9444 27.217 21.8875 27.0399 21.877C25.0422 21.7017 23.1115 21.0693 21.3971 20.0288C19.6827 18.9884 18.2305 17.5676 17.1528 15.8764C16.0751 14.1852 15.4006 12.2688 15.1817 10.2754C14.9627 8.28193 15.205 6.26484 15.8899 4.38C15.9482 4.22913 15.9695 4.06652 15.9522 3.90572C15.9349 3.74492 15.8794 3.59058 15.7904 3.45557C15.7014 3.32055 15.5814 3.20877 15.4404 3.12952C15.2994 3.05028 15.1415 3.00587 14.9799 3Z" opacity="0" fill="rgb(0,0,0)" fill-rule="nonzero" />
	<path id="Vector" d="M23.1391 21.4858C22.0935 22.8382 20.6843 23.8648 19.0766 24.4456C17.4688 25.0263 15.7288 25.1372 14.0604 24.7651C12.3919 24.3931 10.8639 23.5536 9.65508 22.3448C8.44631 21.136 7.6068 19.608 7.23477 17.9395C6.86273 16.2711 6.97357 14.5311 7.55432 12.9233C8.13506 11.3156 9.16169 9.90641 10.5141 8.8608C11.8665 7.81518 13.4887 7.17635 15.1909 7.01904C14.1943 8.36731 13.7147 10.0285 13.8394 11.7005C13.9641 13.3724 14.6847 14.9441 15.8703 16.1296C17.0558 17.3152 18.6275 18.0358 20.2994 18.1605C21.9714 18.2852 23.6326 17.8056 24.9809 16.809C24.8236 18.5112 24.1847 20.1334 23.1391 21.4858Z" fill-rule="nonzero" stroke="rgb(0,0,0)" stroke-linecap="round" stroke-linejoin="round" stroke-width="2" />
</svg>
