<svg viewBox="0 0 24 24" xmlns="http://www.w3.org/2000/svg" xmlns:xlink="http://www.w3.org/1999/xlink" width="24.000000" height="24.000000" fill="none">
	<rect id="Icon/System/question" width="24.000000" height="24.000000" x="0.000000" y="0.000000" fill="rgb(255,255,255)" fill-opacity="0" />
	<path id="Icon" d="M9.60272 22.7396L9.60266 22.7396C8.96136 22.5968 8.33313 22.3953 7.71802 22.1351C7.0968 21.8724 6.50922 21.5587 5.9552 21.1939C5.33539 20.7858 4.75757 20.3139 4.22186 19.7782C3.68604 19.2424 3.21411 18.6646 2.80603 18.0447C2.44128 17.4907 2.12756 16.9031 1.86487 16.282C1.60468 15.6669 1.4032 15.0388 1.26044 14.3975L1.26044 14.3974L1.26038 14.3973C1.08679 13.6176 1 12.8184 1 12C1 11.1815 1.08679 10.3824 1.26044 9.6026L1.26044 9.60254C1.4032 8.9613 1.60468 8.33313 1.86487 7.71802C2.12756 7.09686 2.44128 6.50928 2.80603 5.95532L2.80603 5.95526C3.21411 5.33545 3.68604 4.75763 4.22186 4.22186C4.75763 3.68604 5.33545 3.21411 5.95526 2.80603C6.50928 2.44128 7.09686 2.12756 7.71802 1.86487C8.33313 1.60468 8.9613 1.4032 9.6026 1.26044C10.3824 1.08679 11.1815 1 12 1C12.8184 1 13.6176 1.08679 14.3973 1.26038L14.3974 1.26044L14.3975 1.26044C15.0388 1.4032 15.6669 1.60468 16.282 1.86487C16.9031 2.12756 17.4907 2.44128 18.0446 2.80597C18.6646 3.21405 19.2424 3.68604 19.7782 4.22186C20.3139 4.75757 20.7858 5.33539 21.1939 5.9552C21.5587 6.50922 21.8724 7.0968 22.1351 7.71802C22.3953 8.33313 22.5968 8.96136 22.7396 9.60266C22.9132 10.3824 23 11.1816 23 12C23 12.8184 22.9132 13.6174 22.7396 14.3972L22.7396 14.3973C22.5968 15.0386 22.3953 15.6668 22.1351 16.282C21.8724 16.9031 21.5587 17.4907 21.1939 18.0447C20.7859 18.6646 20.314 19.2424 19.7782 19.7782C19.2424 20.314 18.6646 20.7859 18.0447 21.194C17.4907 21.5587 16.9031 21.8724 16.282 22.1351C15.6668 22.3953 15.0386 22.5968 14.3973 22.7396C13.6176 22.9132 12.8184 23 12 23C11.1816 23 10.3825 22.9132 9.60272 22.7396ZM13.9996 20.7787L13.9997 20.7787C14.5111 20.6625 15.0122 20.5007 15.5029 20.2932C16.0043 20.0811 16.479 19.8283 16.9271 19.5348C17.4411 19.1981 17.9201 18.8078 18.364 18.364C18.8079 17.92 19.1982 17.441 19.5349 16.9269C19.8284 16.4789 20.0811 16.0042 20.2932 15.5029C20.5007 15.0122 20.6625 14.5111 20.7787 13.9997C20.9262 13.3499 21 12.6833 21 12C21 11.3167 20.9262 10.6501 20.7787 10.0003C20.6625 9.48889 20.5007 8.98779 20.2932 8.49713C20.0811 7.99573 19.8283 7.521 19.5348 7.07294C19.1981 6.55884 18.8078 6.0799 18.364 5.63605C17.92 5.19214 17.4411 4.80188 16.927 4.46515L16.9269 4.46515C16.4789 4.17169 16.0042 3.91888 15.5029 3.70685C15.0122 3.49933 14.5112 3.33746 13.9997 3.22131C13.3499 3.07379 12.6833 3 12 3C11.3167 3 10.6501 3.07379 10.0003 3.22131L10.0003 3.22131C9.48889 3.33746 8.98779 3.49933 8.49713 3.70685C7.99573 3.91895 7.521 4.17169 7.07288 4.46521C6.55884 4.80188 6.0799 5.1922 5.63605 5.63605C5.1922 6.0799 4.80194 6.55884 4.46521 7.07288L4.46521 7.07288C4.17169 7.521 3.91895 7.99573 3.70685 8.49713C3.49933 8.98779 3.33746 9.48883 3.22131 10.0003C3.07379 10.6501 3 11.3167 3 12C3 12.6833 3.07379 13.3499 3.22131 13.9997C3.33746 14.5111 3.49933 15.0122 3.70685 15.5029C3.91888 16.0042 4.17169 16.4789 4.46515 16.927L4.46521 16.9271C4.80188 17.4411 5.1922 17.9201 5.63605 18.364C6.07996 18.8079 6.5589 19.1981 7.073 19.5349L7.07318 19.535C7.52118 19.8284 7.99579 20.0811 8.49713 20.2932C8.98779 20.5007 9.48883 20.6625 10.0002 20.7786L10.0003 20.7787C10.6501 20.9262 11.3167 21 12 21C12.6833 21 13.3498 20.9262 13.9996 20.7787ZM10.9969 13.5891L10.9969 11.446C11.7352 11.4186 12.2877 11.2956 12.6546 11.0768C12.7682 11.0088 12.8643 10.9265 12.943 10.83C13.1199 10.6129 13.2083 10.3238 13.2083 9.96259L13.2083 9.76434C13.2083 9.47461 13.1378 9.24084 12.9967 9.06305C12.9658 9.02411 12.9315 8.98785 12.8939 8.95428C12.8581 8.92236 12.8205 8.89325 12.7811 8.86676C12.5894 8.73828 12.3547 8.67401 12.077 8.67401C11.8268 8.67401 11.6062 8.72711 11.415 8.83331C11.3276 8.8819 11.2463 8.94159 11.1712 9.01239C11.1136 9.06665 11.0605 9.12451 11.0119 9.18591C10.8607 9.3772 10.7531 9.60303 10.6893 9.86346L8.98029 9.14911C9.06458 8.86884 9.18536 8.59656 9.34259 8.33221C9.50208 8.06561 9.71057 7.82751 9.96808 7.61786C10.2256 7.4082 10.5332 7.23846 10.8909 7.10858C11.251 6.97644 11.6691 6.91034 12.1453 6.91034C12.6307 6.91034 13.0739 6.98096 13.4749 7.12225C13.876 7.26123 14.2212 7.45721 14.5106 7.71014C14.6401 7.82239 14.756 7.94519 14.8582 8.07843C14.9842 8.2428 15.0894 8.42303 15.1736 8.61932C15.3286 8.97253 15.4061 9.36444 15.4061 9.7951C15.4061 10.187 15.3411 10.5414 15.2112 10.8581C15.1075 11.111 14.9733 11.3392 14.8085 11.5428L14.8085 11.5428C14.767 11.5942 14.7234 11.6439 14.678 11.6921C14.6147 11.7593 14.5484 11.8229 14.4791 11.8832C14.3038 12.0354 14.1092 12.1653 13.8953 12.2731C13.7194 12.3604 13.5387 12.4319 13.3532 12.4875C13.2241 12.5263 13.0926 12.5574 12.9588 12.5807L12.9588 13.5891L10.9969 13.5891ZM12.0052 17.0173C11.5563 17.0173 11.2361 16.9147 11.0447 16.7097C10.9741 16.6331 10.9167 16.55 10.8725 16.4604C10.7982 16.3101 10.761 16.1414 10.761 15.9543L10.761 15.6193C10.761 15.4266 10.7999 15.2535 10.8775 15.1001C10.921 15.0141 10.9768 14.9342 11.0447 14.8605C11.2361 14.6555 11.5563 14.5529 12.0052 14.5529C12.4541 14.5529 12.7742 14.6555 12.9656 14.8605C13.0367 14.9367 13.0946 15.0195 13.1393 15.1088C13.2149 15.2601 13.2527 15.4302 13.2527 15.6193L13.2527 15.9543C13.2527 16.1378 13.2166 16.3036 13.1442 16.4518C13.0989 16.5447 13.0394 16.6307 12.9656 16.7097C12.7742 16.9147 12.4541 17.0173 12.0052 17.0173Z" fill="rgb(0,0,0)" fill-rule="evenodd" />
</svg>

