<svg viewBox="0 0 24 24" xmlns="http://www.w3.org/2000/svg" xmlns:xlink="http://www.w3.org/1999/xlink" width="24.000000" height="24.000031" fill="none">
	<rect id="Icon/System/Thermometer" width="24.000000" height="24.000000" x="0.000000" y="0.000000" />
	<path id="Vector 205" d="M9 5C9 3.34315 10.3432 2 12 2C13.6568 2 15 3.34315 15 5L15 12.9997C16.2145 13.9119 17 15.3642 17 17C17 19.7614 14.7614 22 12 22C9.2386 22 7 19.7614 7 17C7 15.3642 7.78555 13.9119 9 12.9997L9 5Z" fill-rule="nonzero" stroke="rgb(242,252.833,255)" stroke-linejoin="round" stroke-width="1.750000" />
	<path id="Vector 206" d="M12 8.5L12 15" stroke="rgb(242,252.833,255)" stroke-linecap="round" stroke-linejoin="round" stroke-width="1.750000" />
	<path id="Vector 207" d="M14 17C14 15.8955 13.1046 15 12 15C10.8954 15 10 15.8955 10 17C10 18.1046 10.8954 19 12 19C13.1046 19 14 18.1046 14 17Z" fill-rule="nonzero" stroke="rgb(242,252.833,255)" stroke-linejoin="round" stroke-width="1.750000" />
	<g id="Group 3">
		<path id="Line 1" d="M0 0L3.99731 0" stroke="rgb(242,252.833,255)" stroke-linecap="round" stroke-width="1.750000" transform="matrix(0,1,-1,0,21.0014,5.99988)" />
		<path id="Line 2" d="M19.0027 7.99854L23 7.99854" stroke="rgb(242,252.833,255)" stroke-linecap="round" stroke-width="1.750000" />
	</g>
	<g id="Group 4">
		<path id="Line 2" d="M1 7.99854L4.99731 7.99854" stroke="rgb(242,252.833,255)" stroke-linecap="round" stroke-width="1.750000" />
	</g>
</svg>
