<svg width="32" height="32" viewBox="0 0 32 32" fill="none" xmlns="http://www.w3.org/2000/svg">
<g clip-path="url(#clip0_120_629)">
<path d="M31.266 31.36H1.26601C1.06701 31.36 0.906006 31.199 0.906006 31V1.00001C0.906006 0.801015 1.06701 0.640015 1.26601 0.640015H19.266C19.465 0.640015 19.626 0.801015 19.626 1.00001V3.64001H25.266C25.465 3.64001 25.626 3.80101 25.626 4.00001V7.64001H31.266C31.465 7.64001 31.626 7.80101 31.626 8.00001V31C31.626 31.199 31.465 31.36 31.266 31.36ZM19.626 30.64H30.906V8.36001H19.626V30.64ZM12.626 30.64H18.906V1.36001H1.62601V30.64H7.90601V23C7.90601 22.801 8.06701 22.64 8.26601 22.64H12.266C12.465 22.64 12.626 22.801 12.626 23V30.64ZM8.62601 30.64H11.906V23.36H8.62601V30.64ZM19.626 7.64001H24.905V4.36001H19.626V7.64001ZM27.6262 24.6401C27.6261 24.8389 27.4649 25 27.2661 25C27.0672 25 26.906 24.8388 26.906 24.6399V23.3604C26.906 23.1614 27.0674 23 27.2664 23C27.4655 23 27.6269 23.1615 27.6268 23.3606L27.6262 24.6401ZM23.6262 24.6401C23.6261 24.8389 23.4649 25 23.2661 25C23.0672 25 22.906 24.8388 22.906 24.6399V23.3604C22.906 23.1614 23.0674 23 23.2664 23C23.4655 23 23.6269 23.1615 23.6268 23.3606L23.6262 24.6401ZM16.626 24.64C16.626 24.8388 16.4648 25 16.266 25C16.0672 25 15.906 24.8388 15.906 24.64V23.36C15.906 23.1612 16.0672 23 16.266 23C16.4648 23 16.626 23.1612 16.626 23.36V24.64ZM4.62601 24.64C4.62601 24.8388 4.46483 25 4.26601 25C4.06718 25 3.90601 24.8388 3.90601 24.64V23.36C3.90601 23.1612 4.06718 23 4.26601 23C4.46483 23 4.62601 23.1612 4.62601 23.36V24.64ZM27.6262 18.6401C27.6261 18.8389 27.4649 19 27.2661 19C27.0672 19 26.906 18.8388 26.906 18.6399V17.3604C26.906 17.1614 27.0674 17 27.2664 17C27.4655 17 27.6269 17.1615 27.6268 17.3606L27.6262 18.6401ZM23.6262 18.6401C23.6261 18.8389 23.4649 19 23.2661 19C23.0672 19 22.906 18.8388 22.906 18.6399V17.3604C22.906 17.1614 23.0674 17 23.2664 17C23.4655 17 23.6269 17.1615 23.6268 17.3606L23.6262 18.6401ZM16.626 18.64C16.626 18.8388 16.4648 19 16.266 19C16.0672 19 15.906 18.8388 15.906 18.64V17.36C15.906 17.1612 16.0672 17 16.266 17C16.4648 17 16.626 17.1612 16.626 17.36V18.64ZM12.626 18.64C12.626 18.8388 12.4648 19 12.266 19C12.0672 19 11.906 18.8388 11.906 18.64V17.36C11.906 17.1612 12.0672 17 12.266 17C12.4648 17 12.626 17.1612 12.626 17.36V18.64ZM8.62601 18.64C8.62601 18.8388 8.46483 19 8.26601 19C8.06718 19 7.90601 18.8388 7.90601 18.64V17.36C7.90601 17.1612 8.06718 17 8.26601 17C8.46483 17 8.62601 17.1612 8.62601 17.36V18.64ZM4.62601 18.64C4.62601 18.8388 4.46483 19 4.26601 19C4.06718 19 3.90601 18.8388 3.90601 18.64V17.36C3.90601 17.1612 4.06718 17 4.26601 17C4.46483 17 4.62601 17.1612 4.62601 17.36V18.64ZM27.6262 12.6401C27.6261 12.8389 27.4649 13 27.2661 13C27.0672 13 26.906 12.8388 26.906 12.6399V11.3604C26.906 11.1614 27.0674 11 27.2664 11C27.4655 11 27.6269 11.1615 27.6268 11.3606L27.6262 12.6401ZM23.6262 12.6401C23.6261 12.8389 23.4649 13 23.2661 13C23.0672 13 22.906 12.8388 22.906 12.6399V11.3604C22.906 11.1614 23.0674 11 23.2664 11C23.4655 11 23.6269 11.1615 23.6268 11.3606L23.6262 12.6401ZM16.626 12.64C16.626 12.8388 16.4648 13 16.266 13C16.0672 13 15.906 12.8388 15.906 12.64V11.36C15.906 11.1612 16.0672 11 16.266 11C16.4648 11 16.626 11.1612 16.626 11.36V12.64ZM12.626 12.64C12.626 12.8388 12.4648 13 12.266 13C12.0672 13 11.906 12.8388 11.906 12.64V11.36C11.906 11.1612 12.0672 11 12.266 11C12.4648 11 12.626 11.1612 12.626 11.36V12.64ZM8.62601 12.64C8.62601 12.8388 8.46483 13 8.26601 13C8.06718 13 7.90601 12.8388 7.90601 12.64V11.36C7.90601 11.1612 8.06718 11 8.26601 11C8.46483 11 8.62601 11.1612 8.62601 11.36V12.64ZM4.62601 12.64C4.62601 12.8388 4.46483 13 4.26601 13C4.06718 13 3.90601 12.8388 3.90601 12.64V11.36C3.90601 11.1612 4.06718 11 4.26601 11C4.46483 11 4.62601 11.1612 4.62601 11.36V12.64ZM16.626 6.64001C16.626 6.83884 16.4648 7.00001 16.266 7.00001C16.0672 7.00001 15.906 6.83884 15.906 6.64001V5.36001C15.906 5.16119 16.0672 5.00001 16.266 5.00001C16.4648 5.00001 16.626 5.16119 16.626 5.36001V6.64001ZM12.626 6.64002C12.626 6.83884 12.4648 7.00001 12.266 7.00001C12.0672 7.00001 11.906 6.83884 11.906 6.64002V5.36001C11.906 5.16119 12.0672 5.00001 12.266 5.00001C12.4648 5.00001 12.626 5.16119 12.626 5.36001V6.64002ZM8.62601 6.64002C8.62601 6.83884 8.46483 7.00001 8.26601 7.00001C8.06718 7.00001 7.90601 6.83884 7.90601 6.64002V5.36001C7.90601 5.16119 8.06718 5.00001 8.26601 5.00001C8.46483 5.00001 8.62601 5.16119 8.62601 5.36001V6.64002ZM4.62601 6.64001C4.62601 6.83884 4.46483 7.00001 4.26601 7.00001C4.06718 7.00001 3.90601 6.83884 3.90601 6.64001V5.36001C3.90601 5.16119 4.06718 5.00001 4.26601 5.00001C4.46483 5.00001 4.62601 5.16119 4.62601 5.36001V6.64001Z" fill="black"/>
<path d="M19.4763 1.00037C19.4763 0.884326 19.3824 0.790594 19.2664 0.790405H1.26636C1.1502 0.790405 1.0564 0.884209 1.0564 1.00037V31.0004C1.05659 31.1164 1.15032 31.2103 1.26636 31.2103H31.2664C31.3822 31.2101 31.4761 31.1162 31.4763 31.0004V8.00037C31.4763 7.88433 31.3824 7.79059 31.2664 7.79041H25.4763V4.00037C25.4763 3.88433 25.3824 3.79059 25.2664 3.79041H19.4763V1.00037ZM19.0564 1.21033V30.7904H12.4763V23.0004C12.4763 22.8843 12.3824 22.7906 12.2664 22.7904H8.26636C8.1502 22.7904 8.0564 22.8842 8.0564 23.0004V30.7904H1.47632V1.21033H19.0564ZM12.0564 23.2103V30.7904H8.47632V23.2103H12.0564ZM31.0564 8.21033V30.7904H19.4763V8.21033H31.0564ZM19.7761 30.4896H30.7556V8.51013H19.7761V30.4896ZM8.77612 30.4896H11.7556V23.5101H8.77612V30.4896ZM4.47632 23.3597C4.47617 23.244 4.38208 23.15 4.26636 23.1498C4.15047 23.1498 4.05654 23.2439 4.0564 23.3597V24.64C4.0564 24.756 4.15038 24.85 4.26636 24.85C4.38218 24.8498 4.47632 24.7559 4.47632 24.64V23.3597ZM16.4763 23.3597C16.4762 23.244 16.3821 23.15 16.2664 23.1498C16.1505 23.1498 16.0565 23.2439 16.0564 23.3597V24.64C16.0564 24.756 16.1504 24.85 16.2664 24.85C16.3822 24.8498 16.4763 24.7559 16.4763 24.64V23.3597ZM23.4773 23.3607C23.4774 23.2445 23.3826 23.1498 23.2664 23.1498C23.1502 23.1498 23.0564 23.2445 23.0564 23.3607V24.64C23.0564 24.756 23.1504 24.85 23.2664 24.85C23.3822 24.8498 23.4763 24.7559 23.4763 24.64L23.4773 23.3607ZM27.4773 23.3607C27.4774 23.2445 27.3826 23.1498 27.2664 23.1498C27.1502 23.1498 27.0564 23.2445 27.0564 23.3607V24.64C27.0564 24.756 27.1504 24.85 27.2664 24.85C27.3822 24.8498 27.4763 24.7559 27.4763 24.64L27.4773 23.3607ZM4.47632 17.3597C4.47617 17.244 4.38208 17.15 4.26636 17.1498C4.15047 17.1498 4.05654 17.2439 4.0564 17.3597V18.64C4.0564 18.756 4.15038 18.85 4.26636 18.85C4.38218 18.8498 4.47632 18.7559 4.47632 18.64V17.3597ZM8.47632 17.3597C8.47617 17.244 8.38208 17.15 8.26636 17.1498C8.15047 17.1498 8.05654 17.2439 8.0564 17.3597V18.64C8.0564 18.756 8.15038 18.85 8.26636 18.85C8.38218 18.8498 8.47632 18.7559 8.47632 18.64V17.3597ZM12.4763 17.3597C12.4762 17.244 12.3821 17.15 12.2664 17.1498C12.1505 17.1498 12.0565 17.2439 12.0564 17.3597V18.64C12.0564 18.756 12.1504 18.85 12.2664 18.85C12.3822 18.8498 12.4763 18.7559 12.4763 18.64V17.3597ZM16.4763 17.3597C16.4762 17.244 16.3821 17.15 16.2664 17.1498C16.1505 17.1498 16.0565 17.2439 16.0564 17.3597V18.64C16.0564 18.756 16.1504 18.85 16.2664 18.85C16.3822 18.8498 16.4763 18.7559 16.4763 18.64V17.3597ZM23.4773 17.3607C23.4774 17.2445 23.3826 17.1498 23.2664 17.1498C23.1502 17.1498 23.0564 17.2445 23.0564 17.3607V18.64C23.0564 18.756 23.1504 18.85 23.2664 18.85C23.3822 18.8498 23.4763 18.7559 23.4763 18.64L23.4773 17.3607ZM27.4773 17.3607C27.4774 17.2445 27.3826 17.1498 27.2664 17.1498C27.1502 17.1498 27.0564 17.2445 27.0564 17.3607V18.64C27.0564 18.756 27.1504 18.85 27.2664 18.85C27.3822 18.8498 27.4763 18.7559 27.4763 18.64L27.4773 17.3607ZM4.47632 11.3597C4.47617 11.244 4.38208 11.15 4.26636 11.1498C4.15047 11.1498 4.05654 11.2439 4.0564 11.3597V12.64C4.0564 12.756 4.15038 12.85 4.26636 12.85C4.38218 12.8498 4.47632 12.7559 4.47632 12.64V11.3597ZM8.47632 11.3597C8.47617 11.244 8.38208 11.15 8.26636 11.1498C8.15047 11.1498 8.05654 11.2439 8.0564 11.3597V12.64C8.0564 12.756 8.15038 12.85 8.26636 12.85C8.38218 12.8498 8.47632 12.7559 8.47632 12.64V11.3597ZM12.4763 11.3597C12.4762 11.244 12.3821 11.15 12.2664 11.1498C12.1505 11.1498 12.0565 11.2439 12.0564 11.3597V12.64C12.0564 12.756 12.1504 12.85 12.2664 12.85C12.3822 12.8498 12.4763 12.7559 12.4763 12.64V11.3597ZM16.4763 11.3597C16.4762 11.244 16.3821 11.15 16.2664 11.1498C16.1505 11.1498 16.0565 11.2439 16.0564 11.3597V12.64C16.0564 12.756 16.1504 12.85 16.2664 12.85C16.3822 12.8498 16.4763 12.7559 16.4763 12.64V11.3597ZM23.4773 11.3607C23.4774 11.2445 23.3826 11.1498 23.2664 11.1498C23.1502 11.1498 23.0564 11.2445 23.0564 11.3607V12.64C23.0564 12.756 23.1504 12.85 23.2664 12.85C23.3822 12.8498 23.4763 12.7559 23.4763 12.64L23.4773 11.3607ZM27.4773 11.3607C27.4774 11.2445 27.3826 11.1498 27.2664 11.1498C27.1502 11.1498 27.0564 11.2445 27.0564 11.3607V12.64C27.0564 12.756 27.1504 12.85 27.2664 12.85C27.3822 12.8498 27.4763 12.7559 27.4763 12.64L27.4773 11.3607ZM25.0554 4.21033V7.79041H19.4763V4.21033H25.0554ZM19.7761 7.48962H24.7546V4.51013H19.7761V7.48962ZM4.47632 5.35974C4.47617 5.244 4.38208 5.14997 4.26636 5.14978C4.15047 5.14978 4.05654 5.24389 4.0564 5.35974V6.64001C4.0564 6.75599 4.15038 6.84998 4.26636 6.84998C4.38218 6.84979 4.47632 6.75588 4.47632 6.64001V5.35974ZM8.47632 5.35974C8.47617 5.244 8.38208 5.14997 8.26636 5.14978C8.15047 5.14978 8.05654 5.24389 8.0564 5.35974V6.64001C8.0564 6.75599 8.15038 6.84998 8.26636 6.84998C8.38218 6.84979 8.47632 6.75588 8.47632 6.64001V5.35974ZM12.4763 5.35974C12.4762 5.244 12.3821 5.14997 12.2664 5.14978C12.1505 5.14978 12.0565 5.24389 12.0564 5.35974V6.64001C12.0564 6.75599 12.1504 6.84998 12.2664 6.84998C12.3822 6.84979 12.4763 6.75588 12.4763 6.64001V5.35974ZM16.4763 5.35974C16.4762 5.244 16.3821 5.14997 16.2664 5.14978C16.1505 5.14978 16.0565 5.24389 16.0564 5.35974V6.64001C16.0564 6.75599 16.1504 6.84998 16.2664 6.84998C16.3822 6.84979 16.4763 6.75588 16.4763 6.64001V5.35974ZM23.7761 24.64C23.776 24.9215 23.5479 25.1496 23.2664 25.1498C22.9847 25.1498 22.7557 24.9217 22.7556 24.64V23.3607C22.7556 23.0788 22.9845 22.85 23.2664 22.85C23.5483 22.85 23.7772 23.0787 23.7771 23.3607L23.7761 24.64ZM27.7761 24.64C27.776 24.9215 27.5479 25.1496 27.2664 25.1498C26.9847 25.1498 26.7557 24.9217 26.7556 24.64V23.3607C26.7556 23.0788 26.9845 22.85 27.2664 22.85C27.5483 22.85 27.7772 23.0787 27.7771 23.3607L27.7761 24.64ZM4.77612 24.64C4.77612 24.9216 4.54786 25.1496 4.26636 25.1498C3.98469 25.1498 3.75562 24.9217 3.75562 24.64V23.3597C3.75576 23.0782 3.98478 22.85 4.26636 22.85C4.54777 22.8502 4.77597 23.0783 4.77612 23.3597V24.64ZM16.7761 24.64C16.7761 24.9216 16.5479 25.1496 16.2664 25.1498C15.9847 25.1498 15.7556 24.9217 15.7556 24.64V23.3597C15.7558 23.0782 15.9848 22.85 16.2664 22.85C16.5478 22.8502 16.776 23.0783 16.7761 23.3597V24.64ZM12.7761 30.4896H18.7556V1.51013H1.77612V30.4896H7.75562V23.0004C7.75562 22.7185 7.98451 22.4896 8.26636 22.4896H12.2664C12.548 22.4898 12.7761 22.7186 12.7761 23.0004V30.4896ZM23.7761 18.64C23.776 18.9215 23.5479 19.1496 23.2664 19.1498C22.9847 19.1498 22.7557 18.9217 22.7556 18.64V17.3607C22.7556 17.0788 22.9845 16.85 23.2664 16.85C23.5483 16.85 23.7772 17.0787 23.7771 17.3607L23.7761 18.64ZM27.7761 18.64C27.776 18.9215 27.5479 19.1496 27.2664 19.1498C26.9847 19.1498 26.7557 18.9217 26.7556 18.64V17.3607C26.7556 17.0788 26.9845 16.85 27.2664 16.85C27.5483 16.85 27.7772 17.0787 27.7771 17.3607L27.7761 18.64ZM4.77612 18.64C4.77612 18.9216 4.54786 19.1496 4.26636 19.1498C3.98469 19.1498 3.75562 18.9217 3.75562 18.64V17.3597C3.75576 17.0782 3.98478 16.85 4.26636 16.85C4.54777 16.8502 4.77597 17.0783 4.77612 17.3597V18.64ZM8.77612 18.64C8.77612 18.9216 8.54786 19.1496 8.26636 19.1498C7.98469 19.1498 7.75562 18.9217 7.75562 18.64V17.3597C7.75576 17.0782 7.98478 16.85 8.26636 16.85C8.54777 16.8502 8.77598 17.0783 8.77612 17.3597V18.64ZM12.7761 18.64C12.7761 18.9216 12.5479 19.1496 12.2664 19.1498C11.9847 19.1498 11.7556 18.9217 11.7556 18.64V17.3597C11.7558 17.0782 11.9848 16.85 12.2664 16.85C12.5478 16.8502 12.776 17.0783 12.7761 17.3597V18.64ZM16.7761 18.64C16.7761 18.9216 16.5479 19.1496 16.2664 19.1498C15.9847 19.1498 15.7556 18.9217 15.7556 18.64V17.3597C15.7558 17.0782 15.9848 16.85 16.2664 16.85C16.5478 16.8502 16.776 17.0783 16.7761 17.3597V18.64ZM23.7761 12.64C23.776 12.9215 23.5479 13.1496 23.2664 13.1498C22.9847 13.1498 22.7557 12.9217 22.7556 12.64V11.3607C22.7556 11.0788 22.9845 10.85 23.2664 10.85C23.5483 10.85 23.7772 11.0787 23.7771 11.3607L23.7761 12.64ZM27.7761 12.64C27.776 12.9215 27.5479 13.1496 27.2664 13.1498C26.9847 13.1498 26.7557 12.9217 26.7556 12.64V11.3607C26.7556 11.0788 26.9845 10.85 27.2664 10.85C27.5483 10.85 27.7772 11.0787 27.7771 11.3607L27.7761 12.64ZM4.77612 12.64C4.77612 12.9216 4.54786 13.1496 4.26636 13.1498C3.98469 13.1498 3.75562 12.9217 3.75562 12.64V11.3597C3.75576 11.0782 3.98478 10.85 4.26636 10.85C4.54777 10.8502 4.77598 11.0783 4.77612 11.3597V12.64ZM8.77612 12.64C8.77612 12.9216 8.54786 13.1496 8.26636 13.1498C7.98469 13.1498 7.75562 12.9217 7.75562 12.64V11.3597C7.75576 11.0782 7.98478 10.85 8.26636 10.85C8.54777 10.8502 8.77598 11.0783 8.77612 11.3597V12.64ZM12.7761 12.64C12.7761 12.9216 12.5479 13.1496 12.2664 13.1498C11.9847 13.1498 11.7556 12.9217 11.7556 12.64V11.3597C11.7558 11.0782 11.9848 10.85 12.2664 10.85C12.5478 10.8502 12.776 11.0783 12.7761 11.3597V12.64ZM16.7761 12.64C16.7761 12.9216 16.5479 13.1496 16.2664 13.1498C15.9847 13.1498 15.7556 12.9217 15.7556 12.64V11.3597C15.7558 11.0782 15.9848 10.85 16.2664 10.85C16.5478 10.8502 16.776 11.0783 16.7761 11.3597V12.64ZM4.77612 6.64001C4.77612 6.92156 4.54786 7.14959 4.26636 7.14978C3.98469 7.14978 3.75562 6.92168 3.75562 6.64001V5.35974C3.75576 5.0782 3.98478 4.84998 4.26636 4.84998C4.54777 4.85017 4.77598 5.07832 4.77612 5.35974V6.64001ZM8.77612 6.64001C8.77612 6.92156 8.54786 7.14959 8.26636 7.14978C7.98469 7.14978 7.75562 6.92168 7.75562 6.64001V5.35974C7.75576 5.0782 7.98478 4.84998 8.26636 4.84998C8.54777 4.85017 8.77598 5.07832 8.77612 5.35974V6.64001ZM12.7761 6.64001C12.7761 6.92156 12.5479 7.14959 12.2664 7.14978C11.9847 7.14978 11.7556 6.92168 11.7556 6.64001V5.35974C11.7558 5.0782 11.9848 4.84998 12.2664 4.84998C12.5478 4.85017 12.776 5.07832 12.7761 5.35974V6.64001ZM16.7761 6.64001C16.7761 6.92156 16.5479 7.14959 16.2664 7.14978C15.9847 7.14978 15.7556 6.92168 15.7556 6.64001V5.35974C15.7558 5.0782 15.9848 4.84998 16.2664 4.84998C16.5478 4.85017 16.776 5.07832 16.7761 5.35974V6.64001ZM19.7761 3.48962H25.2664C25.548 3.48981 25.7761 3.71864 25.7761 4.00037V7.48962H31.2664C31.548 7.48981 31.7761 7.71864 31.7761 8.00037V31.0004C31.7759 31.2819 31.5479 31.5099 31.2664 31.5101H1.26636C0.984631 31.5101 0.755804 31.282 0.755615 31.0004V1.00037C0.755615 0.718524 0.984515 0.489624 1.26636 0.489624H19.2664C19.548 0.489813 19.7761 0.71864 19.7761 1.00037V3.48962Z" fill="black"/>
</g>
<defs>
<clipPath id="clip0_120_629">
<rect width="32" height="32" fill="white"/>
</clipPath>
</defs>
</svg>
