<svg width="32" height="32" viewBox="0 0 32 32" fill="none" xmlns="http://www.w3.org/2000/svg">
<g clip-path="url(#clip0_120_648)">
<path fill-rule="evenodd" clip-rule="evenodd" d="M28.999 2.84961C29.2808 2.84961 29.5096 3.07857 29.5098 3.36035V30.4893H30.6396C30.9214 30.4893 31.1501 30.7183 31.1504 31C31.1504 31.2819 30.9215 31.5107 30.6396 31.5107H1.36035C1.07848 31.5107 0.849609 31.2819 0.849609 31C0.849879 30.7183 1.07864 30.4893 1.36035 30.4893H2.48242V26.9287H2.49023V3.35938C2.49057 3.078 2.71854 2.84961 3 2.84961C3.28146 2.84961 3.50943 3.078 3.50977 3.35938V26.9287H12.4902V23.4648H10.833C10.5516 23.4646 10.3233 23.2365 10.3232 22.9551C10.3237 22.6736 10.5521 22.4455 10.833 22.4453H21.167C21.448 22.4453 21.6773 22.6735 21.6777 22.9551C21.6776 23.2367 21.4486 23.4648 21.167 23.4648H19.5098V26.9287H28.4893V3.36035C28.4894 3.07873 28.7174 2.84987 28.999 2.84961ZM3.50977 30.4893H12.4766V27.9482H3.50977V30.4893ZM13.5098 30.4893H15.5098V23.5098H13.5098V30.4893ZM16.5303 30.4893H18.4736V26.9287H18.4902V23.5098H16.5303V30.4893ZM19.5098 30.4893H28.4678V27.9482H19.5098V30.4893Z" fill="black"/>
<path d="M6 17.5342C6.2815 17.5342 6.50958 17.7625 6.50977 18.0439V19.5977C6.5096 19.8791 6.28151 20.1074 6 20.1074C5.71844 20.1074 5.4904 19.8792 5.49023 19.5977V18.0439C5.49042 17.7624 5.71845 17.5342 6 17.5342Z" fill="black"/>
<path d="M11 17.5342C11.2815 17.5342 11.5096 17.7625 11.5098 18.0439V19.5977C11.5096 19.8791 11.2815 20.1074 11 20.1074C10.7184 20.1074 10.4904 19.8792 10.4902 19.5977V18.0439C10.4904 17.7624 10.7185 17.5342 11 17.5342Z" fill="black"/>
<path d="M16 17.5342C16.2815 17.5342 16.5096 17.7625 16.5098 18.0439V19.5977C16.5096 19.8791 16.2815 20.1074 16 20.1074C15.7184 20.1074 15.4904 19.8792 15.4902 19.5977V18.0439C15.4904 17.7624 15.7185 17.5342 16 17.5342Z" fill="black"/>
<path d="M21 17.5342C21.2817 17.5342 21.5104 17.7623 21.5107 18.0439V19.5967C21.5107 19.8786 21.2819 20.1074 21 20.1074C20.7182 20.1072 20.4902 19.8785 20.4902 19.5967V18.0439C20.4906 17.7625 20.7185 17.5344 21 17.5342Z" fill="black"/>
<path d="M26 17.5342C26.2817 17.5342 26.5104 17.7623 26.5107 18.0439V19.5967C26.5107 19.8786 26.2819 20.1074 26 20.1074C25.7182 20.1072 25.4902 19.8785 25.4902 19.5967V18.0439C25.4906 17.7625 25.7185 17.5344 26 17.5342Z" fill="black"/>
<path d="M6 10.7129C6.28134 10.7129 6.50932 10.9414 6.50977 11.2227V12.7764C6.50977 13.058 6.28162 13.2871 6 13.2871C5.71833 13.2871 5.49023 13.058 5.49023 12.7764V11.2227C5.49068 10.9414 5.71861 10.7129 6 10.7129Z" fill="black"/>
<path d="M11 10.7129C11.2813 10.7129 11.5093 10.9414 11.5098 11.2227V12.7764C11.5098 13.058 11.2816 13.2871 11 13.2871C10.7183 13.2871 10.4902 13.058 10.4902 12.7764V11.2227C10.4907 10.9414 10.7186 10.7129 11 10.7129Z" fill="black"/>
<path d="M16 10.7129C16.2813 10.7129 16.5093 10.9414 16.5098 11.2227V12.7764C16.5098 13.058 16.2816 13.2871 16 13.2871C15.7183 13.2871 15.4902 13.058 15.4902 12.7764V11.2227C15.4907 10.9414 15.7186 10.7129 16 10.7129Z" fill="black"/>
<path d="M21 10.7129C21.2818 10.7129 21.5106 10.9419 21.5107 11.2236V12.7764C21.5106 13.0582 21.2819 13.2871 21 13.2871C20.7183 13.2869 20.4903 13.0581 20.4902 12.7764V11.2236C20.4904 10.942 20.7184 10.7131 21 10.7129Z" fill="black"/>
<path d="M26 10.7129C26.2818 10.7129 26.5106 10.9419 26.5107 11.2236V12.7764C26.5106 13.0582 26.2819 13.2871 26 13.2871C25.7183 13.2869 25.4903 13.0581 25.4902 12.7764V11.2236C25.4904 10.942 25.7184 10.7131 26 10.7129Z" fill="black"/>
<path d="M6 3.89258C6.28146 3.89264 6.50951 4.12093 6.50977 4.40234V5.95605C6.50975 6.23767 6.2816 6.46576 6 6.46582C5.71835 6.46582 5.49025 6.2377 5.49023 5.95605V4.40234C5.49049 4.1209 5.71849 3.89258 6 3.89258Z" fill="black"/>
<path d="M11 3.89258C11.2815 3.89264 11.5095 4.12093 11.5098 4.40234V5.95605C11.5097 6.23767 11.2816 6.46576 11 6.46582C10.7183 6.46582 10.4903 6.2377 10.4902 5.95605V4.40234C10.4905 4.12089 10.7185 3.89258 11 3.89258Z" fill="black"/>
<path d="M16 3.89258C16.2815 3.89264 16.5095 4.12093 16.5098 4.40234V5.95605C16.5097 6.23767 16.2816 6.46576 16 6.46582C15.7183 6.46582 15.4903 6.2377 15.4902 5.95605V4.40234C15.4905 4.1209 15.7185 3.89258 16 3.89258Z" fill="black"/>
<path d="M21 3.89258C21.2815 3.89259 21.5095 4.12089 21.5098 4.40234L21.5107 5.95508C21.5109 6.23706 21.282 6.46582 21 6.46582C20.7184 6.46565 20.4905 6.23764 20.4902 5.95605V4.40234C20.4905 4.12089 20.7185 3.89258 21 3.89258Z" fill="black"/>
<path d="M26 3.89258C26.2815 3.89259 26.5095 4.12089 26.5098 4.40234L26.5107 5.95508C26.5109 6.23706 26.282 6.46582 26 6.46582C25.7184 6.46565 25.4905 6.23764 25.4902 5.95605V4.40234C25.4905 4.12089 25.7185 3.89258 26 3.89258Z" fill="black"/>
<path d="M30.6396 0.489258C30.9212 0.489258 31.1502 0.718495 31.1504 1C31.1502 1.2815 30.9212 1.50977 30.6396 1.50977H1.36035C1.0788 1.50977 0.849799 1.2815 0.849609 1C0.8498 0.718496 1.0788 0.489258 1.36035 0.489258H30.6396Z" fill="black"/>
</g>
<defs>
<clipPath id="clip0_120_648">
<rect width="32" height="32" fill="white"/>
</clipPath>
</defs>
</svg>
