<svg viewBox="0 0 32 32" xmlns="http://www.w3.org/2000/svg" xmlns:xlink="http://www.w3.org/1999/xlink" width="32.000000" height="32.000000" fill="none">
	<rect id="101_ofis" width="32.000000" height="32.000000" x="0.000000" y="0.000000" />
	<rect id="Icon/Controller/101_ofis" width="32.000000" height="32.000000" x="0.000000" y="0.000000" />
	<path id="Icon" d="M30.6397 0.489258C30.9212 0.489258 31.1502 0.718497 31.1504 1C31.1502 1.2815 30.9212 1.50977 30.6397 1.50977L1.36035 1.50977C1.0788 1.50977 0.849798 1.2815 0.849609 1C0.849798 0.718497 1.0788 0.489258 1.36035 0.489258L30.6397 0.489258ZM28.999 2.84961C29.2809 2.84961 29.5096 3.07857 29.5098 3.36035L29.5098 30.4893L30.6397 30.4893C30.9214 30.4893 31.1501 30.7183 31.1504 31C31.1504 31.2819 30.9215 31.5107 30.6397 31.5107L1.36035 31.5107C1.07848 31.5107 0.849609 31.2819 0.849609 31C0.849878 30.7183 1.07864 30.4893 1.36035 30.4893L2.48242 30.4893L2.48242 26.9287L2.49023 26.9287L2.49023 3.35938C2.49057 3.078 2.71854 2.84961 3 2.84961C3.28146 2.84961 3.50943 3.07799 3.50976 3.35938L3.50976 26.9287L12.4902 26.9287L12.4902 23.4649L10.833 23.4649C10.5515 23.4646 10.3233 23.2366 10.3233 22.9551C10.3237 22.6736 10.5521 22.4455 10.833 22.4453L21.167 22.4453C21.4481 22.4453 21.6773 22.6735 21.6777 22.9551C21.6777 23.2367 21.4486 23.4649 21.167 23.4649L19.5098 23.4649L19.5098 26.9287L28.4893 26.9287L28.4893 3.36035C28.4894 3.07873 28.7174 2.84987 28.999 2.84961ZM6 3.89258C6.28148 3.89263 6.50948 4.12093 6.50977 4.40234L6.50977 5.95606C6.50977 6.23766 6.2816 6.46577 6 6.46583C5.71834 6.46583 5.49025 6.23771 5.49023 5.95606L5.49023 4.40234C5.49049 4.1209 5.71851 3.89258 6 3.89258ZM11 3.89258C11.2815 3.89263 11.5095 4.12093 11.5098 4.40234L11.5098 5.95606C11.5098 6.23766 11.2816 6.46577 11 6.46583C10.7183 6.46583 10.4902 6.23771 10.4902 5.95606L10.4902 4.40234C10.4905 4.1209 10.7185 3.89258 11 3.89258ZM16 3.89258C16.2815 3.89263 16.5095 4.12093 16.5098 4.40234L16.5098 5.95606C16.5098 6.23766 16.2816 6.46577 16 6.46583C15.7183 6.46583 15.4902 6.23771 15.4902 5.95606L15.4902 4.40234C15.4905 4.1209 15.7185 3.89258 16 3.89258ZM21 3.89258C21.2815 3.89259 21.5094 4.12089 21.5098 4.40234L21.5107 5.95509L21.5107 5.95531C21.5107 6.2372 21.2819 6.46583 21 6.46583C20.7184 6.46566 20.4905 6.23766 20.4902 5.95606L20.4902 4.40234C20.4905 4.12089 20.7185 3.89258 21 3.89258ZM26 3.89258C26.2815 3.89259 26.5094 4.12089 26.5098 4.40234L26.5107 5.95509L26.5107 5.95531C26.5107 6.2372 26.2819 6.46583 26 6.46583C25.7184 6.46566 25.4905 6.23766 25.4902 5.95606L25.4902 4.40234C25.4905 4.12089 25.7185 3.89258 26 3.89258ZM6 10.7129C6.28131 10.713 6.50931 10.9414 6.50977 11.2226L6.50977 12.7763C6.50977 13.058 6.2816 13.287 6 13.2871C5.71834 13.2871 5.49023 13.0581 5.49023 12.7763L5.49023 11.2226C5.49068 10.9414 5.71863 10.7129 6 10.7129ZM11 10.7129C11.2813 10.713 11.5093 10.9414 11.5098 11.2226L11.5098 12.7763C11.5098 13.058 11.2816 13.287 11 13.2871C10.7183 13.2871 10.4902 13.0581 10.4902 12.7763L10.4902 11.2226C10.4907 10.9414 10.7186 10.7129 11 10.7129ZM16 10.7129C16.2813 10.713 16.5093 10.9414 16.5098 11.2226L16.5098 12.7763C16.5098 13.058 16.2816 13.287 16 13.2871C15.7183 13.2871 15.4902 13.0581 15.4902 12.7763L15.4902 11.2226C15.4907 10.9414 15.7186 10.7129 16 10.7129ZM21 10.7129C21.2818 10.7129 21.5106 10.9418 21.5107 11.2237L21.5107 12.7763C21.5106 13.0582 21.2819 13.2871 21 13.2871C20.7183 13.2869 20.4903 13.0581 20.4902 12.7763L20.4902 11.2237C20.4904 10.942 20.7183 10.7131 21 10.7129ZM26 10.7129C26.2818 10.7129 26.5106 10.9418 26.5107 11.2237L26.5107 12.7763C26.5106 13.0582 26.2819 13.2871 26 13.2871C25.7183 13.2869 25.4903 13.0581 25.4902 12.7763L25.4902 11.2237C25.4904 10.942 25.7183 10.7131 26 10.7129ZM6 17.5342C6.28148 17.5342 6.5096 17.7625 6.50977 18.0439L6.50977 19.5977C6.5096 19.8791 6.28154 20.1074 6 20.1074C5.71846 20.1074 5.4904 19.8792 5.49023 19.5977L5.49023 18.0439C5.49042 17.7625 5.71846 17.5342 6 17.5342ZM11 17.5342C11.2815 17.5342 11.5096 17.7625 11.5098 18.0439L11.5098 19.5977C11.5096 19.8791 11.2815 20.1074 11 20.1074C10.7185 20.1074 10.4904 19.8792 10.4902 19.5977L10.4902 18.0439C10.4904 17.7625 10.7185 17.5342 11 17.5342ZM16 17.5342C16.2815 17.5342 16.5096 17.7625 16.5098 18.0439L16.5098 19.5977C16.5096 19.8791 16.2815 20.1074 16 20.1074C15.7185 20.1074 15.4904 19.8792 15.4902 19.5977L15.4902 18.0439C15.4904 17.7625 15.7185 17.5342 16 17.5342ZM21 17.5342C21.2817 17.5342 21.5103 17.7623 21.5107 18.0439L21.5107 19.5967C21.5107 19.8786 21.2819 20.1074 21 20.1074C20.7182 20.1072 20.4902 19.8785 20.4902 19.5967L20.4902 18.0439C20.4906 17.7625 20.7185 17.5344 21 17.5342ZM26 17.5342C26.2817 17.5342 26.5103 17.7623 26.5107 18.0439L26.5107 19.5967C26.5107 19.8786 26.2819 20.1074 26 20.1074C25.7182 20.1072 25.4902 19.8785 25.4902 19.5967L25.4902 18.0439C25.4906 17.7625 25.7185 17.5344 26 17.5342ZM13.5098 30.4893L15.5098 30.4893L15.5098 23.5098L13.5098 23.5098L13.5098 30.4893ZM16.5303 30.4893L18.4737 30.4893L18.4737 26.9287L18.4902 26.9287L18.4902 23.5098L16.5303 23.5098L16.5303 30.4893ZM3.50976 30.4893L12.4766 30.4893L12.4766 27.9482L3.50976 27.9482L3.50976 30.4893ZM19.5098 30.4893L28.4678 30.4893L28.4678 27.9482L19.5098 27.9482L19.5098 30.4893Z" fill="rgb(0,0,0)" fill-rule="evenodd" />
</svg>
