<svg width="32" height="32" viewBox="0 0 32 32" fill="none" xmlns="http://www.w3.org/2000/svg">
<g clip-path="url(#clip0_120_675)">
<path d="M28.9993 17.8496C29.2811 17.8497 29.51 18.0785 29.5101 18.3604V30.4902H30.64C30.9215 30.4903 31.1507 30.7184 31.1507 31C31.1507 31.2816 30.9215 31.5097 30.64 31.5098H1.36067C1.07901 31.5098 0.849929 31.2817 0.849929 31C0.849929 30.7183 1.07901 30.4902 1.36067 30.4902H2.49055V18.3604C2.49055 18.0787 2.71865 17.8496 3.00032 17.8496C3.28186 17.8498 3.51008 18.0788 3.51008 18.3604V30.4902H28.4896V18.3604C28.4897 18.0786 28.7176 17.8498 28.9993 17.8496Z" fill="black"/>
<path fill-rule="evenodd" clip-rule="evenodd" d="M13.47 17.8457L13.6146 17.8604L13.6302 17.8623C14.0265 17.9435 14.3254 18.2944 14.3255 18.7148V24.416C14.3253 24.8365 14.0263 25.1864 13.6302 25.2676L13.6224 25.2695H13.6146L13.47 25.2842L13.4632 25.2852H7.06477C6.58463 25.285 6.19485 24.8963 6.19465 24.416V18.7148C6.19483 18.2346 6.58454 17.8449 7.06477 17.8447H13.4632L13.47 17.8457ZM7.21516 24.2656H13.305V18.8643H7.21516V24.2656Z" fill="black"/>
<path fill-rule="evenodd" clip-rule="evenodd" d="M24.9437 17.8457L25.0882 17.8604L25.096 17.8613L25.1029 17.8623C25.4993 17.9434 25.798 18.2943 25.7982 18.7148V24.416C25.798 24.8366 25.4992 25.1865 25.1029 25.2676L25.096 25.2695H25.0882L24.9437 25.2842L24.9359 25.2852H18.5384C18.0583 25.285 17.6685 24.8963 17.6683 24.416V18.7148C17.6685 18.2346 18.0582 17.8449 18.5384 17.8447H24.9359L24.9437 17.8457ZM18.6878 24.2656H24.7786V18.8643H18.6878V24.2656Z" fill="black"/>
<path fill-rule="evenodd" clip-rule="evenodd" d="M6.00032 0.849609C6.28186 0.849757 6.51008 1.07878 6.51008 1.36035V5.49023H28.5882C28.8185 5.49033 29.0217 5.64416 29.0814 5.86816L31.4935 14.8682L31.5101 14.9844C31.5137 15.1006 31.4769 15.2157 31.4046 15.3096C31.3081 15.4359 31.1586 15.5097 31.0003 15.5098H1.00032C0.841355 15.5098 0.693044 15.4356 0.596022 15.3105C0.49998 15.1848 0.466048 15.0214 0.507155 14.8682L2.91926 5.86816C2.97884 5.64564 3.18152 5.49023 3.41243 5.49023H5.49055V1.36035C5.49055 1.07869 5.71865 0.849609 6.00032 0.849609ZM1.66536 14.4902H30.3353L28.1966 6.50977H3.80305L1.66536 14.4902Z" fill="black"/>
</g>
<defs>
<clipPath id="clip0_120_675">
<rect width="32" height="32" fill="white"/>
</clipPath>
</defs>
</svg>
