<svg width="32" height="32" viewBox="0 0 32 32" fill="none" xmlns="http://www.w3.org/2000/svg">
<g clip-path="url(#clip0_120_726)">
<path d="M29.0001 18.8503C29.2821 18.8503 29.5109 19.0791 29.5109 19.3611V30.49H30.6398C30.9212 30.4901 31.1493 30.7183 31.1495 30.9997C31.1495 31.2813 30.9213 31.5104 30.6398 31.5105H1.3595C1.07814 31.5102 0.849806 31.2811 0.849736 30.9997C0.849951 30.7184 1.07823 30.4903 1.3595 30.49H2.48938V19.3601C2.48941 19.0787 2.71792 18.8508 2.99915 18.8503C3.2808 18.8503 3.50987 19.0784 3.50989 19.3601V30.49H28.4894V19.3611C28.4894 19.0793 28.7184 18.8506 29.0001 18.8503Z" fill="black"/>
<path fill-rule="evenodd" clip-rule="evenodd" d="M16.4991 16.9919L16.5792 17.029L19.0997 18.2029L19.5382 18.1286C19.5938 18.1194 19.6387 18.1121 19.6691 18.1071C19.6751 18.1062 19.6814 18.1051 19.6866 18.1042C19.6912 18.1034 19.698 18.1021 19.7033 18.1013C19.7078 18.1006 19.7129 18.0997 19.7159 18.0993L19.8087 18.0847L19.8478 18.0788L19.8849 18.0925L19.9728 18.1257L22.0734 18.9323L22.172 18.9714L22.214 18.987L22.2404 19.0241L22.2911 19.0954L22.295 19.0993L22.3019 19.1101L22.3048 19.114C22.3067 19.1167 22.3097 19.1208 22.3097 19.1208L22.3136 19.1267C22.3182 19.1332 22.3324 19.1525 22.3449 19.1706C22.3712 19.2091 22.4071 19.2639 22.4493 19.3288C22.5354 19.4612 22.6515 19.6469 22.7677 19.8581C22.8831 20.0679 23.004 20.3118 23.0968 20.5583C23.1311 20.6494 23.1615 20.7467 23.1886 20.8464H24.5167C24.6654 20.8464 24.8081 20.9126 24.9034 21.028C24.9745 21.1146 25.0136 21.2218 25.0167 21.3318L25.0079 21.4421L24.549 23.7722H24.8712C25.0219 23.7722 25.1649 23.8403 25.2599 23.9577C25.3543 24.0747 25.392 24.2279 25.3605 24.3757L24.882 26.6101C24.8324 26.8402 24.6294 27.0055 24.3937 27.0056H23.9122L23.5372 28.9099C23.491 29.1438 23.2856 29.3129 23.047 29.3132H8.92884C8.69073 29.3125 8.48474 29.1438 8.4386 28.9099L8.0636 27.0056H7.57825C7.33612 27.0053 7.12829 26.8313 7.08606 26.5925L6.69251 24.3581C6.66707 24.2133 6.70663 24.064 6.80091 23.9509C6.89595 23.8377 7.03735 23.7723 7.1847 23.7722H7.42688L6.9679 21.4421C6.93937 21.2959 6.97882 21.1433 7.07337 21.028C7.16865 20.9124 7.31091 20.8467 7.45911 20.8464H8.93763C8.97068 20.767 9.00649 20.6919 9.04309 20.6257C9.156 20.4217 9.30052 20.2243 9.4347 20.0583C9.57048 19.8903 9.70513 19.7428 9.80481 19.6384C9.85413 19.5868 9.89654 19.5445 9.92688 19.5144C9.94199 19.4994 9.95622 19.4849 9.96302 19.4782L9.97474 19.4675L9.97669 19.4655L10.0021 19.4411L10.0128 19.4304L10.0255 19.4226L10.0548 19.404C10.272 19.2671 10.5552 19.1622 10.8224 19.0808C11.0978 18.9969 11.3955 18.9261 11.6652 18.8708C11.729 18.8577 11.7928 18.8462 11.8536 18.8347L13.5958 17.1814L13.6359 17.1433L13.8185 17.1335L16.339 16.9841L16.4279 16.9782L16.4659 16.9763L16.4991 16.9919ZM9.34095 28.3132H11.8663L11.7365 27.0056H9.08313L9.34095 28.3132ZM12.8712 28.3132H15.3224V27.0056H12.7413L12.8712 28.3132ZM16.3224 28.3132H19.1046L19.2345 27.0056H16.3224V28.3132ZM20.1095 28.3132H22.6349L22.8927 27.0056H20.2394L20.1095 28.3132ZM7.99817 26.0056H15.3224V24.7712H7.7804L7.99817 26.0056ZM16.3224 26.0056H23.9904L24.2531 24.7712H16.3224V26.0056ZM8.44642 23.7722H11.4132L11.2218 21.8464H8.82532L8.06751 21.8454L8.44642 23.7722ZM12.42 23.7722H15.3224V21.8464H12.2277L12.42 23.7722ZM16.3224 21.8464V23.7722H19.5558L19.7482 21.8454L16.3224 21.8464ZM20.5626 23.7722H23.5294L23.9083 21.8454H20.754L20.5626 23.7722ZM12.5216 19.7331C12.4634 19.7422 12.3974 19.7533 12.3263 19.7654L12.2638 19.8259L12.2228 19.7829C12.1123 19.8026 11.9913 19.8257 11.8663 19.8513C11.614 19.903 11.3486 19.9652 11.1134 20.0368C10.8976 20.1026 10.7315 20.1696 10.6251 20.2292C10.6007 20.2535 10.567 20.2884 10.5275 20.3298C10.4407 20.4207 10.3264 20.547 10.213 20.6872C10.171 20.7392 10.1312 20.7935 10.0929 20.8464H15.3702C15.3318 20.7934 15.2922 20.7393 15.2501 20.6872C15.1367 20.5469 15.0209 20.4211 14.9337 20.3298C14.9145 20.3097 14.8961 20.2915 14.88 20.2751L12.7042 19.7058C12.658 19.7123 12.5955 19.7216 12.5216 19.7331ZM19.7013 19.115C19.5909 19.1332 19.4322 19.1596 19.2413 19.1931C18.8578 19.2603 18.3409 19.356 17.8087 19.4665C17.2746 19.5775 16.7322 19.7018 16.2941 19.8288C16.1958 19.8573 16.1036 19.8867 16.0197 19.9148C16.2671 20.1769 16.6082 20.5117 17.007 20.8454H22.1329C22.0656 20.6786 21.9809 20.5045 21.8908 20.3405C21.7896 20.1566 21.6873 19.9919 21.6105 19.8738C21.595 19.85 21.5799 19.8282 21.5665 19.8083L19.7413 19.1081C19.7293 19.1103 19.7155 19.1126 19.7013 19.115ZM14.0577 18.1198L13.3087 18.8318L15.0011 19.2741C15.1178 19.1973 15.2502 19.1357 15.3702 19.0866C15.5565 19.0106 15.7785 18.9374 16.0148 18.8689C16.4374 18.7463 16.9376 18.6301 17.4259 18.5261L16.2716 17.989L14.0577 18.1198Z" fill="black"/>
<path fill-rule="evenodd" clip-rule="evenodd" d="M12.048 10.4655C12.1908 10.2473 12.4792 10.1724 12.7101 10.3025C12.948 10.4371 13.0332 10.7379 12.9025 10.9773C12.9015 10.9794 12.8993 10.9851 12.8966 10.99L12.8898 11.0017L12.8888 11.0027C12.8874 11.0051 12.8863 11.0079 12.8849 11.0105C12.8748 11.0293 12.8587 11.0595 12.839 11.0984C12.8006 11.1742 12.7494 11.2823 12.6984 11.404C12.5887 11.666 12.51 11.9287 12.5099 12.1032C12.51 12.278 12.5885 12.5413 12.6984 12.8034C12.7493 12.9251 12.8004 13.032 12.839 13.1081C12.8587 13.147 12.8747 13.1761 12.8849 13.195C12.8868 13.1985 12.8883 13.202 12.8898 13.2048L12.9005 13.2234L12.9015 13.2263C12.9033 13.2295 12.905 13.2331 12.9064 13.2361L12.924 13.2663C12.938 13.2923 12.9572 13.3304 12.9806 13.3767C13.027 13.4684 13.0899 13.5976 13.1525 13.7468C13.2698 14.0269 13.4179 14.4462 13.4181 14.8327C13.4181 15.2195 13.2699 15.6404 13.1525 15.9206C13.0901 16.0695 13.027 16.1992 12.9806 16.2907C12.9574 16.3365 12.9379 16.3743 12.924 16.4001C12.92 16.4075 12.9112 16.4235 12.9074 16.4304L12.8937 16.4577L12.88 16.4714C12.7367 16.6891 12.4484 16.7638 12.2179 16.6335C11.9784 16.4975 11.8936 16.1926 12.0284 15.9529L12.0314 15.947C12.0327 15.9446 12.0353 15.9402 12.0353 15.9402L12.0363 15.9382L12.0382 15.9353C12.04 15.9323 12.0414 15.9287 12.0431 15.9255C12.0544 15.9045 12.0704 15.8752 12.089 15.8386C12.1275 15.7625 12.1796 15.6555 12.2306 15.5339C12.3405 15.2717 12.419 15.0075 12.4191 14.8327C12.4189 14.658 12.3403 14.3954 12.2306 14.1335C12.1796 14.0119 12.1276 13.905 12.089 13.8288C12.0702 13.7918 12.0545 13.7621 12.0431 13.7409L12.0333 13.7224L12.0324 13.7214C12.0324 13.7214 12.0301 13.7175 12.0284 13.7146L12.0245 13.7068L12.0216 13.7019C12.0179 13.6952 12.0113 13.6832 12.004 13.6696C11.99 13.6436 11.9698 13.6064 11.9464 13.5603C11.8997 13.468 11.8387 13.3386 11.7765 13.1902C11.6593 12.9103 11.51 12.4901 11.5099 12.1032C11.5099 11.7166 11.6593 11.2971 11.7765 11.0173C11.8386 10.8691 11.8997 10.7395 11.9464 10.6472C11.9697 10.6012 11.99 10.5628 12.004 10.5368C12.0112 10.5236 12.0179 10.5122 12.0216 10.5056L12.0353 10.4782L12.048 10.4655ZM12.9142 13.2566L12.9132 13.2517C12.9126 13.2497 12.9113 13.2475 12.9103 13.2448C12.9122 13.2499 12.9135 13.254 12.9142 13.2566Z" fill="black"/>
<path d="M19.1202 10.4655C19.2629 10.2472 19.5515 10.1727 19.7824 10.3025L19.7833 10.3034C20.023 10.4393 20.1083 10.7438 19.9728 10.9841L19.9689 10.99C19.9678 10.992 19.9659 10.9958 19.9659 10.9958L19.964 10.9988L19.963 11.0007C19.9612 11.0038 19.9589 11.0073 19.9572 11.0105C19.947 11.0293 19.9319 11.0595 19.9122 11.0984C19.8738 11.1742 19.8227 11.2822 19.7716 11.404C19.6619 11.6661 19.5832 11.9287 19.5831 12.1032C19.5832 12.278 19.6618 12.5413 19.7716 12.8034C19.8226 12.925 19.8737 13.032 19.9122 13.1081C19.9318 13.1468 19.947 13.1762 19.9572 13.195C19.959 13.1984 19.9606 13.2021 19.962 13.2048L19.963 13.2058L19.9738 13.2234C19.9763 13.2279 19.978 13.2323 19.9796 13.2361L19.9962 13.2663C20.0102 13.2923 20.0304 13.3304 20.0538 13.3767C20.1003 13.4684 20.1632 13.5977 20.2257 13.7468C20.3431 14.0269 20.4912 14.4462 20.4913 14.8327C20.4913 15.2195 20.3431 15.6404 20.2257 15.9206C20.1633 16.0696 20.1002 16.1992 20.0538 16.2907C20.0305 16.3367 20.0102 16.3742 19.9962 16.4001C19.9922 16.4076 19.9834 16.4236 19.9796 16.4304L19.9659 16.4577L19.9533 16.4704C19.8101 16.6889 19.521 16.7641 19.2902 16.6335C19.0506 16.4974 18.9667 16.1926 19.1017 15.9529C19.1017 15.9529 19.1036 15.9489 19.1046 15.947C19.1059 15.9447 19.1075 15.9402 19.1075 15.9402L19.1095 15.9382L19.1105 15.9353C19.1122 15.9322 19.1146 15.9287 19.1163 15.9255C19.1277 15.9044 19.1437 15.8752 19.1622 15.8386C19.2007 15.7626 19.2519 15.6554 19.3029 15.5339C19.4127 15.2717 19.4913 15.0075 19.4913 14.8327C19.4912 14.658 19.4126 14.3955 19.3029 14.1335C19.2519 14.012 19.2008 13.905 19.1622 13.8288C19.1435 13.7918 19.1278 13.7621 19.1163 13.7409L19.1066 13.7224L19.1056 13.7214C19.1056 13.7214 19.1035 13.7178 19.1017 13.7146L19.0978 13.7087L19.0949 13.7019C19.0912 13.6952 19.0846 13.6832 19.0773 13.6696C19.0633 13.6437 19.043 13.6064 19.0197 13.5603C18.9729 13.468 18.911 13.3386 18.8488 13.1902C18.7315 12.9103 18.5822 12.4901 18.5822 12.1032C18.5822 11.7166 18.7316 11.2971 18.8488 11.0173C18.9109 10.869 18.9729 10.7395 19.0197 10.6472C19.0429 10.6012 19.0633 10.5628 19.0773 10.5368C19.0844 10.5236 19.0912 10.5122 19.0949 10.5056L19.1085 10.4782L19.1202 10.4655Z" fill="black"/>
<path d="M15.6388 0.639376C15.8383 0.439854 16.1599 0.439966 16.3595 0.639376L28.4894 12.7693V9.36106C28.4894 9.07927 28.7184 8.85057 29.0001 8.85031C29.2821 8.85033 29.5109 9.07912 29.5109 9.36106V13.7888L31.1066 15.3845C31.3061 15.5842 31.3048 15.9081 31.1046 16.1071C30.9052 16.3049 30.5836 16.3047 30.3849 16.1062L15.9991 1.72043L1.61438 16.1062C1.41523 16.3049 1.0917 16.3051 0.892704 16.1062C0.69388 15.9072 0.694057 15.5836 0.892704 15.3845L15.6388 0.639376Z" fill="black"/>
<path fill-rule="evenodd" clip-rule="evenodd" d="M15.754 6.6384C15.9849 6.50806 16.2732 6.5832 16.4161 6.80149L16.4288 6.81418L16.4425 6.84152C16.4461 6.8481 16.4528 6.85933 16.4601 6.87277C16.4741 6.89876 16.4944 6.93703 16.5177 6.98313C16.5645 7.07546 16.6255 7.20489 16.6876 7.35324C16.8049 7.63307 16.9542 8.05235 16.9542 8.43918C16.9541 8.82604 16.8049 9.24628 16.6876 9.52609C16.6255 9.67438 16.5644 9.80401 16.5177 9.89621L16.4601 10.0056C16.4529 10.0189 16.4462 10.0302 16.4425 10.0368C16.4404 10.0408 16.4389 10.0456 16.4366 10.0495L16.4357 10.0486V10.0505C16.4339 10.0536 16.4318 10.0573 16.4318 10.0573L16.4308 10.0583L16.421 10.0769C16.4096 10.0981 16.3938 10.1278 16.3751 10.1648C16.3366 10.2409 16.2844 10.348 16.2335 10.4695C16.1239 10.7312 16.0452 10.9941 16.045 11.1687C16.0451 11.3435 16.1237 11.6077 16.2335 11.8698C16.2845 11.9915 16.3366 12.0984 16.3751 12.1745C16.3918 12.2074 16.4061 12.2342 16.4171 12.2546L16.4357 12.2878L16.4386 12.2927L16.4435 12.3015L16.4601 12.3327C16.474 12.3587 16.4934 12.3962 16.5167 12.4421C16.5632 12.5338 16.6261 12.6631 16.6886 12.8122C16.806 13.0924 16.9541 13.5125 16.9542 13.8991C16.9541 14.2858 16.806 14.7059 16.6886 14.9861C16.6261 15.1351 16.5631 15.2645 16.5167 15.3562C16.4934 15.4022 16.474 15.4406 16.4601 15.4665C16.456 15.4742 16.4471 15.4902 16.4435 15.4968L16.4298 15.5241L16.4161 15.5368C16.2729 15.7548 15.9847 15.8294 15.754 15.6989C15.5146 15.563 15.43 15.259 15.5646 15.0193L15.5607 15.0271C15.5621 15.0237 15.5644 15.0181 15.5675 15.0124C15.5687 15.0103 15.5714 15.0066 15.5714 15.0066L15.5724 15.0036L15.5743 15.0007C15.576 14.9979 15.5776 14.9948 15.5792 14.9919C15.5906 14.9708 15.6064 14.9409 15.6251 14.904C15.6637 14.828 15.7158 14.7209 15.7667 14.5993C15.8764 14.3374 15.9551 14.0739 15.9552 13.8991C15.9551 13.7244 15.8766 13.4611 15.7667 13.1989C15.7157 13.0772 15.6637 12.9704 15.6251 12.8943C15.6065 12.8575 15.5906 12.8285 15.5792 12.8073L15.5695 12.7888L15.5685 12.7868C15.5685 12.7868 15.566 12.7836 15.5646 12.781L15.5626 12.7761L15.5597 12.7712L15.5587 12.7702L15.5568 12.7663C15.5529 12.7592 15.5441 12.7433 15.5402 12.7361C15.5262 12.7102 15.5068 12.6725 15.4835 12.6267C15.4371 12.5351 15.3741 12.4055 15.3116 12.2566C15.1942 11.9763 15.0461 11.5554 15.046 11.1687C15.0462 10.7822 15.1943 10.3629 15.3116 10.0827C15.3741 9.93368 15.4371 9.80432 15.4835 9.71262C15.5069 9.66647 15.5262 9.62828 15.5402 9.60227C15.5441 9.59498 15.5529 9.57906 15.5568 9.57199L15.5626 9.56223L15.5636 9.5593L15.5734 9.54074L15.5743 9.53879C15.5756 9.53645 15.5777 9.53379 15.5792 9.53098C15.5894 9.51215 15.6055 9.48288 15.6251 9.44406C15.6637 9.36798 15.7148 9.26094 15.7658 9.13938C15.8756 8.87718 15.9541 8.61395 15.9542 8.43918C15.9542 8.26458 15.8755 8.00209 15.7658 7.73996C15.7147 7.6181 15.6635 7.51013 15.6251 7.4343C15.6054 7.39527 15.5893 7.3652 15.5792 7.34641L15.5646 7.32004C15.4292 7.07976 15.5144 6.77424 15.754 6.6384ZM16.4337 10.0495V10.0525L16.4357 10.0486L16.4337 10.0495Z" fill="black"/>
<path d="M28.5294 1.69406C28.6791 1.51517 28.9555 1.47026 29.1671 1.56516L29.2491 1.61106C29.3249 1.66364 29.3826 1.7356 29.4122 1.82004C29.4517 1.93285 29.4352 2.05596 29.3634 2.16086L29.3654 2.15988C29.3654 2.15988 29.3614 2.16383 29.3595 2.16672L29.3605 2.1677L29.3488 2.18527L29.3468 2.18625L29.3458 2.1882C29.3361 2.20265 29.3214 2.22598 29.3019 2.25656C29.264 2.31613 29.2126 2.40112 29.1622 2.4968C29.0522 2.70575 28.9797 2.90552 28.9796 3.03C28.9797 3.1546 29.0522 3.35422 29.1622 3.5632L29.3019 3.80246C29.3216 3.83345 29.336 3.85724 29.3458 3.8718L29.3497 3.8757L29.3615 3.89328L29.3624 3.89524C29.3641 3.89761 29.3659 3.90076 29.3673 3.90305C29.371 3.90837 29.3816 3.92362 29.3849 3.92844C29.399 3.94928 29.4198 3.9792 29.4435 4.01633C29.4903 4.08983 29.5532 4.19424 29.6163 4.31418C29.7336 4.53686 29.8877 4.8801 29.8878 5.20188C29.8877 5.52381 29.7336 5.8678 29.6163 6.09055C29.5532 6.2104 29.4902 6.31495 29.4435 6.3884C29.4199 6.42537 29.399 6.45552 29.3849 6.47629C29.3815 6.48135 29.3719 6.49546 29.3683 6.5007L29.3663 6.50168L29.3673 6.50266L29.3663 6.50363L29.3527 6.52512L29.3361 6.53781C29.1859 6.7159 28.9106 6.76176 28.6993 6.66672C28.5835 6.61436 28.4934 6.52461 28.4542 6.41184C28.4243 6.32574 28.4265 6.23278 28.4611 6.14719L28.5011 6.07395L28.4952 6.08371L28.4991 6.0759C28.5011 6.07237 28.5047 6.06639 28.5089 6.06027L28.5128 6.05442L28.5148 6.05246L28.5158 6.05051C28.5174 6.04825 28.5192 6.04575 28.5206 6.04367C28.532 6.02684 28.5474 6.00385 28.5656 5.97531C28.6037 5.91542 28.6549 5.83052 28.7052 5.73508C28.7876 5.57849 28.8495 5.42687 28.8751 5.30832L28.8878 5.20188C28.8877 5.07723 28.8153 4.87767 28.7052 4.66867C28.6549 4.57316 28.6037 4.48937 28.5656 4.42942C28.5472 4.40051 28.5321 4.37705 28.5206 4.36008C28.515 4.35182 28.511 4.34648 28.5089 4.34348C28.5089 4.34348 28.5062 4.3385 28.504 4.33567L28.5021 4.33371L28.5011 4.33176L28.4991 4.32981L28.423 4.21555C28.3758 4.14141 28.3138 4.03777 28.2511 3.91867C28.1341 3.69641 27.9787 3.35214 27.9786 3.03C27.9787 2.70805 28.1341 2.36457 28.2511 2.14231C28.3139 2.02315 28.3758 1.91866 28.423 1.84445C28.4465 1.80756 28.4675 1.77739 28.4816 1.75656C28.4889 1.7458 28.4955 1.73638 28.4991 1.73117C28.5011 1.72842 28.5028 1.72524 28.504 1.72336L28.5148 1.70676L28.5294 1.69406Z" fill="black"/>
</g>
<defs>
<clipPath id="clip0_120_726">
<rect width="32" height="32" fill="white"/>
</clipPath>
</defs>
</svg>
