<svg width="32" height="32" viewBox="0 0 32 32" fill="none" xmlns="http://www.w3.org/2000/svg">
<g clip-path="url(#clip0_120_798)">
<path d="M30.8896 15.4893C31.1712 15.4893 31.3992 15.7185 31.3994 16C31.3992 16.2815 31.1712 16.5098 30.8896 16.5098H13.7598V21C13.7596 21.2816 13.5316 21.5096 13.25 21.5098H7.75977V26C7.75958 26.2816 7.53156 26.5096 7.25 26.5098H1.75977V30.6396C1.75977 30.9212 1.5315 31.1492 1.25 31.1494C0.968447 31.1493 0.739258 30.9212 0.739258 30.6396V26C0.739456 25.7184 0.968391 25.4894 1.25 25.4893H6.73926V21C6.73946 20.7184 6.96839 20.4894 7.25 20.4893H12.7393V16C12.7395 15.7184 12.9684 15.4894 13.25 15.4893H30.8896Z" fill="black"/>
<path d="M29.7607 26.6387C29.7607 26.9206 29.5319 27.1494 29.25 27.1494C28.9682 27.1492 28.7393 26.9205 28.7393 26.6387V22.2324L21.8652 29.1064C21.6658 29.3058 21.3429 29.3058 21.1436 29.1064C20.9446 28.907 20.9444 28.584 21.1436 28.3848L28.0176 21.5107H23.6104C23.3285 21.5106 23.0996 21.2819 23.0996 21C23.0999 20.7184 23.3287 20.4894 23.6104 20.4893H29.7607V26.6387Z" fill="black"/>
</g>
<defs>
<clipPath id="clip0_120_798">
<rect width="32" height="32" fill="white"/>
</clipPath>
</defs>
</svg>
