<svg viewBox="0 0 32 32" xmlns="http://www.w3.org/2000/svg" xmlns:xlink="http://www.w3.org/1999/xlink" width="32.000000" height="32.000000" fill="none">
	<rect id="105_etazh1" width="32.000000" height="32.000000" x="0.000000" y="0.000000" />
	<rect id="Icon/Controller/105_etazh1" width="32.000000" height="32.000000" x="0.000000" y="0.000000" />
	<path id="Icon" d="M24.9707 11.7617L22.5918 11.7617L22.5918 3.87988L21.2744 3.87988L21.2314 3.91797L18.8037 6.07715L18.6914 6.17772L19.2061 6.75292L19.3057 6.86526L19.4179 6.7656L21.5713 4.84668L21.5713 11.7617L19.0342 11.7617L19.0342 12.6963L24.9707 12.6963L24.9707 11.7617ZM31.3301 16C31.3299 15.7185 31.1018 15.4893 30.8203 15.4893L13.1807 15.4893C12.899 15.4894 12.6701 15.7184 12.6699 16L12.6699 20.4893L7.18069 20.4893C6.89903 20.4894 6.67012 20.7184 6.66995 21L6.66995 25.4893L1.18066 25.4893C0.899059 25.4894 0.670122 25.7184 0.669922 26L0.669922 30.6397C0.669922 30.9213 0.89911 31.1493 1.18066 31.1494C1.46217 31.1492 1.69043 30.9212 1.69043 30.6397L1.69043 26.5098L7.18069 26.5098C7.46223 26.5096 7.69023 26.2815 7.69046 26L7.69046 21.5098L13.1807 21.5098C13.4622 21.5096 13.6902 21.2815 13.6905 21L13.6905 16.5098L30.8203 16.5098C31.1019 16.5098 31.3299 16.2815 31.3301 16ZM29.6914 26.6387C29.6914 26.9206 29.4626 27.1494 29.1807 27.1494C28.8989 27.1492 28.6699 26.9205 28.6699 26.6387L28.6699 22.2324L21.7959 29.1065C21.5965 29.3058 21.2736 29.3058 21.0742 29.1065C20.8753 28.907 20.8751 28.5841 21.0742 28.3847L27.9482 21.5107L23.541 21.5107C23.2592 21.5106 23.0303 21.2819 23.0303 21C23.0306 20.7184 23.2594 20.4894 23.541 20.4893L29.6914 20.4893L29.6914 26.6387Z" fill="rgb(0,0,0)" fill-rule="evenodd" />
</svg>
