<svg viewBox="0 0 32 32" xmlns="http://www.w3.org/2000/svg" xmlns:xlink="http://www.w3.org/1999/xlink" width="32.000000" height="32.000000" fill="none">
	<rect id="106_etazh2" width="32.000000" height="32.000000" x="0.000000" y="0.000000" />
	<rect id="Icon/Controller/106_etazh2" width="32.000000" height="32.000000" x="0.000000" y="0.000000" />
	<path id="Icon" d="M22.7832 3.92578C22.4545 3.79695 22.0792 3.73343 21.6602 3.7334C21.2566 3.7334 20.8932 3.78803 20.5733 3.90039C20.2581 4.01111 19.9816 4.16246 19.7471 4.35351L19.7451 4.35449C19.521 4.5441 19.3354 4.76514 19.1885 5.01562C19.0445 5.26118 18.9294 5.51999 18.8447 5.79103L18.8018 5.92868L18.9375 5.97657L19.584 6.20897L19.7314 6.26171L19.7783 6.11228C19.9182 5.66169 20.1328 5.3118 20.4179 5.05664C20.6994 4.8042 21.1029 4.66804 21.6475 4.66797C22.2066 4.66801 22.6002 4.81914 22.8555 5.0957L22.8584 5.09863C23.126 5.37358 23.2666 5.75234 23.2666 6.25097L23.2666 6.4824C23.2666 6.89937 23.1501 7.29937 22.9121 7.6836C22.729 7.97291 22.5001 8.26183 22.2256 8.54983L21.9355 8.83788L18.9219 11.6924L18.875 11.7373L18.875 12.6953L24.7139 12.6953L24.7139 11.7617L20.1748 11.7617L22.5791 9.51954C23.1067 9.03297 23.5314 8.53994 23.8486 8.03908L23.8496 8.03811C24.1738 7.51754 24.3359 6.9404 24.3359 6.31154C24.3359 5.93011 24.2759 5.58119 24.1543 5.26855C24.0695 5.02916 23.9504 4.81483 23.7969 4.62695L23.6309 4.44629C23.4023 4.2184 23.1174 4.04578 22.7832 3.92578ZM31.3301 16C31.3299 15.7185 31.1018 15.4893 30.8203 15.4893L13.1807 15.4893C12.899 15.4894 12.6701 15.7184 12.6699 16L12.6699 20.4893L7.18069 20.4893C6.89903 20.4894 6.67012 20.7184 6.66995 21L6.66995 25.4893L1.18066 25.4893C0.899059 25.4894 0.670122 25.7184 0.669922 26L0.669922 30.6397C0.669922 30.9213 0.89911 31.1493 1.18066 31.1494C1.46217 31.1492 1.69043 30.9212 1.69043 30.6397L1.69043 26.5098L7.18069 26.5098C7.46223 26.5096 7.69023 26.2815 7.69046 26L7.69046 21.5098L13.1807 21.5098C13.4622 21.5096 13.6902 21.2815 13.6905 21L13.6905 16.5098L30.8203 16.5098C31.1019 16.5098 31.3299 16.2815 31.3301 16ZM29.6914 26.6387C29.6914 26.9206 29.4626 27.1494 29.1807 27.1494C28.8989 27.1492 28.6699 26.9205 28.6699 26.6387L28.6699 22.2324L21.7959 29.1065C21.5965 29.3058 21.2736 29.3058 21.0742 29.1065C20.8753 28.907 20.8751 28.5841 21.0742 28.3847L27.9482 21.5107L23.541 21.5107C23.2592 21.5106 23.0303 21.2819 23.0303 21C23.0306 20.7184 23.2594 20.4894 23.541 20.4893L29.6914 20.4893L29.6914 26.6387Z" fill="rgb(0,0,0)" fill-rule="evenodd" />
</svg>
