<svg width="32" height="32" viewBox="0 0 32 32" fill="none" xmlns="http://www.w3.org/2000/svg">
<g clip-path="url(#clip0_120_801)">
<path d="M30.8896 15.4893C31.1712 15.4893 31.3992 15.7185 31.3994 16C31.3992 16.2815 31.1712 16.5098 30.8896 16.5098H13.7598V21C13.7596 21.2816 13.5316 21.5096 13.25 21.5098H7.75977V26C7.75958 26.2816 7.53156 26.5096 7.25 26.5098H1.75977V30.6396C1.75977 30.9212 1.5315 31.1492 1.25 31.1494C0.968447 31.1493 0.739258 30.9212 0.739258 30.6396V26C0.739456 25.7184 0.968391 25.4894 1.25 25.4893H6.73926V21C6.73946 20.7184 6.96839 20.4894 7.25 20.4893H12.7393V16C12.7395 15.7184 12.9684 15.4894 13.25 15.4893H30.8896Z" fill="black"/>
<path d="M29.7607 26.6387C29.7607 26.9206 29.5319 27.1494 29.25 27.1494C28.9682 27.1492 28.7393 26.9205 28.7393 26.6387V22.2324L21.8652 29.1064C21.6658 29.3058 21.3429 29.3058 21.1436 29.1064C20.9446 28.907 20.9444 28.584 21.1436 28.3848L28.0176 21.5107H23.6104C23.3285 21.5106 23.0996 21.2819 23.0996 21C23.0999 20.7184 23.3287 20.4894 23.6104 20.4893H29.7607V26.6387Z" fill="black"/>
<path d="M21.7295 3.7334C22.1485 3.73343 22.5238 3.79695 22.8525 3.92578C23.1868 4.04578 23.4716 4.21841 23.7002 4.44629L23.8662 4.62695C24.0198 4.81483 24.1389 5.02917 24.2236 5.26855C24.3452 5.58119 24.4052 5.93009 24.4053 6.31152C24.4053 6.9404 24.2431 7.51752 23.9189 8.03809L23.918 8.03906C23.6007 8.53997 23.1761 9.033 22.6484 9.51953L20.2441 11.7617H24.7832V12.6953H18.9443V11.7373L18.9912 11.6924L22.0049 8.83789L22.2949 8.5498C22.5695 8.2618 22.7984 7.97292 22.9814 7.68359C23.2194 7.29935 23.3359 6.89939 23.3359 6.48242V6.25098C23.3359 5.75233 23.1953 5.37358 22.9277 5.09863L22.9248 5.0957C22.6695 4.81914 22.2759 4.66801 21.7168 4.66797C21.1722 4.66804 20.7688 4.8042 20.4873 5.05664C20.2021 5.3118 19.9876 5.66169 19.8477 6.1123L19.8008 6.26172L19.6533 6.20898L19.0068 5.97656L18.8711 5.92871L18.9141 5.79102C18.9988 5.51999 19.1139 5.26118 19.2578 5.01562C19.4047 4.76514 19.5904 4.54411 19.8145 4.35449L19.8164 4.35352C20.051 4.16246 20.3275 4.01111 20.6426 3.90039C20.9625 3.78803 21.326 3.7334 21.7295 3.7334Z" fill="black"/>
</g>
<defs>
<clipPath id="clip0_120_801">
<rect width="32" height="32" fill="white"/>
</clipPath>
</defs>
</svg>
