<svg width="32" height="32" viewBox="0 0 32 32" fill="none" xmlns="http://www.w3.org/2000/svg">
<g clip-path="url(#clip0_120_805)">
<path d="M30.8896 15.4893C31.1712 15.4893 31.3992 15.7185 31.3994 16C31.3992 16.2815 31.1712 16.5098 30.8896 16.5098H13.7598V21C13.7596 21.2816 13.5316 21.5096 13.25 21.5098H7.75977V26C7.75958 26.2816 7.53156 26.5096 7.25 26.5098H1.75977V30.6396C1.75977 30.9212 1.5315 31.1492 1.25 31.1494C0.968447 31.1493 0.739258 30.9212 0.739258 30.6396V26C0.739456 25.7184 0.968391 25.4894 1.25 25.4893H6.73926V21C6.73946 20.7184 6.96839 20.4894 7.25 20.4893H12.7393V16C12.7395 15.7184 12.9684 15.4894 13.25 15.4893H30.8896Z" fill="black"/>
<path d="M29.7607 26.6387C29.7607 26.9206 29.5319 27.1494 29.25 27.1494C28.9682 27.1492 28.7393 26.9205 28.7393 26.6387V22.2324L21.8652 29.1064C21.6658 29.3058 21.3429 29.3058 21.1436 29.1064C20.9446 28.907 20.9444 28.584 21.1436 28.3848L28.0176 21.5107H23.6104C23.3285 21.5106 23.0996 21.2819 23.0996 21C23.0999 20.7184 23.3287 20.4894 23.6104 20.4893H29.7607V26.6387Z" fill="black"/>
<path d="M21.6807 3.7334C22.051 3.73344 22.396 3.78428 22.7129 3.88672C23.0385 3.9896 23.323 4.14128 23.5596 4.34277C23.7968 4.53662 23.9805 4.7787 24.1113 5.06641C24.2516 5.349 24.3193 5.66745 24.3193 6.01855C24.3193 6.31685 24.2717 6.59047 24.1758 6.83691L24.1768 6.83789C24.089 7.0835 23.9608 7.2977 23.791 7.47656L23.79 7.47559C23.6316 7.65087 23.4396 7.79938 23.2158 7.91992L23.2139 7.9209C23.1271 7.96602 23.0364 8.00542 22.9443 8.04199C23.055 8.0798 23.1639 8.1241 23.2695 8.17676L23.4463 8.26953C23.6163 8.36927 23.7676 8.49138 23.8994 8.63574C24.085 8.83016 24.23 9.06332 24.334 9.33203C24.4393 9.60403 24.4902 9.90784 24.4902 10.2402C24.4902 10.6241 24.4216 10.9816 24.2832 11.3105V11.3125C24.1444 11.6335 23.9436 11.9084 23.6826 12.1348C23.4231 12.3597 23.1126 12.5356 22.7559 12.6631L22.7529 12.6641C22.3939 12.7837 21.9946 12.8418 21.5586 12.8418C21.2069 12.8418 20.8847 12.8045 20.5938 12.7275C20.3071 12.6598 20.0465 12.5615 19.8145 12.4326L19.8115 12.4307C19.5818 12.2945 19.3764 12.1362 19.1963 11.9561C19.0187 11.7785 18.8613 11.5884 18.7256 11.3848L18.6475 11.2666L18.7598 11.1816L19.3096 10.7666L19.4385 10.6699L19.5254 10.8057C19.7507 11.1552 20.0207 11.4273 20.334 11.626C20.6364 11.8095 21.041 11.9082 21.5586 11.9082C22.1605 11.9081 22.6148 11.7592 22.9375 11.4805C23.2576 11.1957 23.4218 10.812 23.4219 10.3135V10.1182C23.4218 9.61736 23.2601 9.2422 22.9492 8.97461L22.9463 8.97266C22.6422 8.69768 22.1839 8.54794 21.5469 8.54785H20.3232V7.61328H21.498C22.0761 7.61319 22.5043 7.47672 22.8018 7.22363C23.1008 6.96086 23.2509 6.62441 23.251 6.20215V6.04297C23.2509 5.59215 23.1026 5.26475 22.8193 5.03809L22.8164 5.03516C22.5323 4.79477 22.1541 4.66808 21.6689 4.66797C21.1847 4.66797 20.8147 4.76999 20.5469 4.95801L20.5449 4.95996C20.266 5.14844 20.0421 5.40192 19.874 5.72266L19.7939 5.875L19.6543 5.77539L18.9971 5.30762L19.0605 5.19043C19.1641 5.00075 19.2928 4.81994 19.4463 4.64941C19.6092 4.46948 19.7949 4.31057 20 4.17383L20.002 4.17188C20.2189 4.03315 20.4649 3.92625 20.7373 3.84961L20.7383 3.84863C21.0216 3.77143 21.3368 3.73342 21.6807 3.7334Z" fill="black"/>
</g>
<defs>
<clipPath id="clip0_120_805">
<rect width="32" height="32" fill="white"/>
</clipPath>
</defs>
</svg>
