<svg width="32" height="32" viewBox="0 0 32 32" fill="none" xmlns="http://www.w3.org/2000/svg">
<g clip-path="url(#clip0_406_706)">
<path fill-rule="evenodd" clip-rule="evenodd" d="M30.0205 0.803711L30.083 0.80957L30.0957 0.810547C30.2735 0.842105 30.4227 0.966923 30.4854 1.13672L30.5068 1.21191L31.916 8.20898C31.9385 8.32113 31.9223 8.43726 31.8721 8.53809L31.8105 8.63281C31.7138 8.75067 31.5684 8.82009 31.416 8.82031H27.6748V16.1396H30.6719C30.9531 16.1396 31.1822 16.3679 31.1826 16.6494L31.1719 16.752C31.1244 16.9845 30.9184 17.1602 30.6719 17.1602H27.6748V30.3193H29.7969C30.0775 30.3197 30.307 30.5478 30.3076 30.8291L30.2969 30.9316C30.2861 30.9843 30.2649 31.0327 30.2393 31.0781H32C32.0828 31.0781 32.1504 31.1457 32.1504 31.2285V31.9482C32.1504 32.0311 32.0828 32.0986 32 32.0986H0C-0.0828427 32.0986 -0.150391 32.0311 -0.150391 31.9482V31.2285C-0.150391 31.1457 -0.0828427 31.0781 0 31.0781H4.29785V29.4092C2.26846 28.969 0.747085 27.1663 0.74707 25.0049V21.0029C0.747071 19.6167 1.87158 18.4922 3.25781 18.4922H3.30078V15.5391C3.30078 14.1528 4.42529 13.0283 5.81152 13.0283H16.5586C17.9448 13.0283 19.0693 14.1528 19.0693 15.5391V18.4922H19.1133C20.4992 18.4926 21.623 19.617 21.623 21.0029V25.0049C21.623 27.1649 20.1035 28.9665 18.0762 29.4082V31.0781H23.9854C23.9597 31.0327 23.9385 30.9843 23.9277 30.9316L23.917 30.8291C23.9176 30.5478 24.1465 30.3193 24.4277 30.3193H26.6543V17.1602H23.5518C23.3052 17.1602 23.0993 16.9845 23.0518 16.752L23.041 16.6494C23.0415 16.3679 23.2706 16.1396 23.5518 16.1396H26.6543V8.82031H25.251V10.1416C25.251 10.3878 25.0763 10.5939 24.8438 10.6416L24.7412 10.6523C24.4598 10.6522 24.2305 10.4233 24.2305 10.1416V8.82031H22.9131C22.7602 8.82031 22.6153 8.75061 22.5186 8.63281C22.4217 8.51439 22.3831 8.35836 22.4131 8.20898L23.8223 1.21289L23.8252 1.2002L23.8428 1.13965L23.8467 1.12598C23.9223 0.934896 24.1096 0.802734 24.3223 0.802734L30.0205 0.803711ZM5.31836 31.0781H17.0557V29.5156H5.31836V31.0781ZM3.25781 19.5137C2.43491 19.5137 1.76855 20.18 1.76855 21.0029V25.0049L1.77246 25.1846C1.86597 27.0286 3.39066 28.4951 5.25781 28.4951H17.1133L17.293 28.4912C19.0771 28.4003 20.5081 26.9688 20.5986 25.1846L20.6025 25.0049V21.0029C20.6025 20.2318 20.0167 19.5981 19.2656 19.5215L19.1133 19.5137H19.0693V24.9111C19.0693 24.997 19.0653 25.083 19.0566 25.168C19.048 25.2526 19.0342 25.3358 19.0176 25.417C18.7832 26.5604 17.7714 27.4209 16.5586 27.4209H5.81152C5.72439 27.4209 5.63837 27.4157 5.55469 27.4072C4.45787 27.2957 3.57019 26.4788 3.35254 25.417C3.3359 25.3358 3.3221 25.2526 3.31348 25.168C3.30484 25.083 3.3008 24.997 3.30078 24.9111V19.5137H3.25781ZM5.81152 22.8545C4.98862 22.8545 4.32227 23.5208 4.32227 24.3438V24.9111L4.33008 25.0635C4.40657 25.8146 5.04026 26.4004 5.81152 26.4004H16.5586C16.6096 26.4004 16.6603 26.3977 16.7109 26.3926C17.4151 26.321 17.9747 25.7591 18.042 25.0537L18.0488 24.9111V24.3438C18.0488 23.521 17.3816 22.8545 16.5586 22.8545H5.81152ZM5.81152 14.0498C4.98862 14.0498 4.32227 14.7162 4.32227 15.5391V22.3271C4.73898 22.0185 5.25296 21.833 5.81152 21.833H16.5586C17.1177 21.833 17.6319 22.019 18.0488 22.3281V15.5391C18.0488 14.7163 17.3816 14.0498 16.5586 14.0498H5.81152ZM23.5361 7.79883H30.793L29.5898 1.82422H24.7393L23.5361 7.79883Z" fill="black"/>
<path fill-rule="evenodd" clip-rule="evenodd" d="M3.88672 2.27051C4.59872 2.34306 5.15505 2.9448 5.15527 3.67578L5.14746 3.82031C5.07986 4.48494 4.55129 5.01337 3.88672 5.08105L3.74219 5.08887C3.01098 5.0888 2.40934 4.53249 2.33691 3.82031L2.3291 3.67578C2.32934 2.89599 2.96227 2.26277 3.74219 2.2627L3.88672 2.27051ZM3.74219 3.28418C3.52572 3.28424 3.3508 3.45915 3.35059 3.67578C3.35059 3.8928 3.5258 4.0683 3.74219 4.06836L3.82129 4.06055C4.0002 4.02375 4.13477 3.86528 4.13477 3.67578C4.13458 3.48662 4.00021 3.32867 3.82129 3.29199L3.74219 3.28418Z" fill="black"/>
<path fill-rule="evenodd" clip-rule="evenodd" d="M13.5615 0.78125C13.8432 0.78125 14.0719 1.01087 14.0723 1.29199V7.86426C14.0723 8.14592 13.8432 8.375 13.5615 8.375H1.28613C1.00447 8.375 0.775391 8.14592 0.775391 7.86426V1.29199C0.775741 1.01087 1.00443 0.78125 1.28613 0.78125H13.5615ZM1.79688 7.35352H3.08789L10.042 2.35938L10.0508 2.35352L10.0996 2.32324L10.1113 2.31641C10.279 2.23277 10.4826 2.24797 10.6377 2.35938L13.0508 4.09082V1.80273H1.79688V7.35352ZM4.83789 7.35352H13.0508V5.34863L10.3389 3.40039L4.83789 7.35352Z" fill="black"/>
</g>
<defs>
<clipPath id="clip0_406_706">
<rect width="32" height="32" fill="white"/>
</clipPath>
</defs>
</svg>
