<svg width="32" height="32" viewBox="0 0 32 32" fill="none" xmlns="http://www.w3.org/2000/svg">
<g clip-path="url(#clip0_120_680)">
<path fill-rule="evenodd" clip-rule="evenodd" d="M28.4131 4.56641C28.7734 4.56641 29.0976 4.78964 29.2266 5.12598L31.0947 10.002C31.3127 10.5717 30.891 11.1826 30.2812 11.1826H27.6738V16.9209H29.6719C29.9529 16.9209 30.1821 17.1491 30.1826 17.4307C30.1826 17.7123 29.9535 17.9414 29.6719 17.9414H27.6738V27.4268H28.7969C29.0777 27.427 29.3062 27.6551 29.3066 27.9365C29.3066 28.0028 29.2926 28.0659 29.2695 28.124H30.6455C30.9264 28.124 31.1555 28.3514 31.1562 28.6328C31.156 28.9143 30.927 29.1436 30.6455 29.1436H1.35449C1.07307 29.1434 0.844941 28.9152 0.844727 28.6338C0.845429 28.3525 1.07371 28.1242 1.35449 28.124H2.37012V27.1064H1.71387C1.23393 27.1061 0.843997 26.7175 0.84375 26.2373V19.3867C0.844127 18.9067 1.23396 18.5169 1.71387 18.5166H3.11816V17.0762C3.11852 15.845 4.11739 14.8459 5.34863 14.8457H10.5859C11.2785 14.8458 11.8969 15.1621 12.3057 15.6572C12.7147 15.162 13.3338 14.8458 14.0264 14.8457H19.2637C20.4948 14.846 21.4938 15.845 21.4941 17.0762V18.5166H22.9053L22.9121 18.5176L23.0566 18.5322L23.0723 18.5342C23.4686 18.6152 23.7672 18.9664 23.7676 19.3867V26.2373C23.7674 26.6578 23.4685 27.0078 23.0723 27.0889L23.0645 27.0908H23.0566L22.9121 27.1055L22.9053 27.1064H22.1123V28.124H24.9541C24.931 28.0659 24.917 28.0028 24.917 27.9365C24.9175 27.6549 25.1467 27.4268 25.4277 27.4268H26.6543V17.9414H24.5518C24.2701 17.9414 24.041 17.7123 24.041 17.4307C24.0415 17.1491 24.2707 16.9209 24.5518 16.9209H26.6543V11.1826H25.9365V12.3135C25.9365 12.5945 25.7093 12.8228 25.4277 12.8232C25.1463 12.823 24.9171 12.5949 24.917 12.3135V11.1826H23.9326L23.8398 11.1768L23.8301 11.1758C23.2819 11.1064 22.9244 10.5363 23.1289 10.002L24.9971 5.12598C25.11 4.83162 25.372 4.62433 25.6768 4.57715L25.6875 4.5752L25.7979 4.56738L25.8096 4.56641H28.4131ZM3.38965 28.124H21.0928V27.1064H3.38965V28.124ZM1.86426 26.0869H22.7471V19.5361H21.4941V22.6025C21.4941 22.625 21.4909 22.6476 21.4902 22.6699C21.4907 22.687 21.4931 22.7045 21.4932 22.7217L21.4824 22.9375C21.3743 24.0014 20.4761 24.8328 19.3838 24.833H5.22852C4.06333 24.8327 3.11816 23.8868 3.11816 22.7217L3.12109 22.6602C3.12058 22.6411 3.11817 22.6217 3.11816 22.6025V19.5361H1.86426V26.0869ZM5.22852 21.6328C4.62695 21.633 4.13912 22.1202 4.13867 22.7217C4.13867 23.3237 4.62675 23.8113 5.22852 23.8115H19.3838C19.9856 23.8113 20.4736 23.3235 20.4736 22.7217C20.4732 22.1203 19.9854 21.6331 19.3838 21.6328H5.22852ZM5.34863 15.8662C4.6807 15.8664 4.13998 16.4083 4.13965 17.0762V20.917C4.45772 20.7247 4.82981 20.6114 5.22852 20.6113H11.7959V17.0762C11.7956 16.4503 11.3198 15.9352 10.71 15.873L10.5859 15.8662H5.34863ZM14.0264 15.8662C13.3584 15.8664 12.8177 16.4083 12.8174 17.0762V20.6113H19.3838C19.7829 20.6114 20.1554 20.7243 20.4736 20.917V17.0762C20.4733 16.4504 19.9975 15.9353 19.3877 15.873L19.2637 15.8662H14.0264ZM24.1602 10.1631H30.0635L28.3105 5.58594H25.9131L24.1602 10.1631Z" fill="black"/>
<path fill-rule="evenodd" clip-rule="evenodd" d="M16.3232 3.91699C16.8035 3.91712 17.192 4.3071 17.1924 4.78711V10.9395L17.1777 11.084L17.1768 11.0918L17.1748 11.0996C17.0937 11.496 16.7438 11.7948 16.3232 11.7949H5.66992C5.24938 11.7948 4.89841 11.4961 4.81738 11.0996L4.81543 11.084L4.80078 10.9395L4.7998 10.9326V4.78711C4.80018 4.30705 5.18982 3.91717 5.66992 3.91699H16.3232ZM5.81934 10.7744H6.83105V10.623C6.83111 10.1825 6.93594 9.6504 7.14355 9.18555C7.27185 8.89849 7.45749 8.59938 7.71387 8.36914C7.42564 8.05791 7.255 7.64814 7.25488 7.20801C7.25508 6.25501 8.0298 5.4798 8.98242 5.47949C9.93489 5.47976 10.7098 6.25518 10.71 7.20801C10.7098 7.64351 10.5435 8.04934 10.2607 8.35938C10.5265 8.57408 10.7477 8.85263 10.9141 9.13281C10.9542 9.20045 10.991 9.27101 11.0264 9.3418C11.1792 9.12247 11.3707 8.92967 11.5928 8.77441C11.3224 8.46697 11.1642 8.06929 11.1641 7.64453C11.1643 6.69136 11.9397 5.91602 12.8926 5.91602L13.0684 5.9248C13.9388 6.01335 14.619 6.75114 14.6191 7.64453C14.619 8.06955 14.46 8.46621 14.1895 8.77344C14.7853 9.18958 15.161 9.8736 15.1611 10.623V10.7744H16.1729V4.9375H5.81934V10.7744ZM8.98242 8.57812C8.92663 8.77863 8.77831 8.94487 8.5752 9.01562L8.56445 9.01855C8.40719 9.07966 8.22582 9.26467 8.0752 9.60156C7.92684 9.93373 7.85162 10.3238 7.85156 10.623V10.7744H10.3496V10.623C10.3495 10.3693 10.2404 9.99749 10.0361 9.65332C9.82779 9.30256 9.58235 9.08237 9.39062 9.01465L9.38086 9.01074L9.37109 9.00586C9.18053 8.93172 9.03688 8.7729 8.98242 8.57812ZM12.8916 9.01367C12.8557 9.14268 12.7815 9.25613 12.6787 9.33984L12.7109 9.37207L12.4854 9.45117C11.9787 9.62952 11.6437 10.104 11.6436 10.623V10.7744H14.1416V10.623C14.1414 10.1038 13.806 9.62958 13.2988 9.45117C13.0956 9.37933 12.9471 9.21272 12.8916 9.01367ZM12.8916 6.93555C12.502 6.93581 12.1838 7.25512 12.1836 7.64453C12.1838 7.90096 12.3269 8.14044 12.5664 8.2666C12.7274 8.35024 12.8435 8.49722 12.8916 8.66602C12.9388 8.49795 13.053 8.35188 13.2139 8.26758C13.4552 8.14168 13.5994 7.90168 13.5996 7.64453C13.5994 7.25467 13.2811 6.93559 12.8916 6.93555ZM8.9834 6.5C8.59357 6.50004 8.27559 6.81848 8.27539 7.20801C8.27556 7.46563 8.41909 7.70629 8.66016 7.83203C8.82169 7.91622 8.9352 8.06277 8.98242 8.23145C9.02692 8.07238 9.1311 7.93381 9.27734 7.84766L9.28516 7.84082L9.30566 7.83105C9.54685 7.70525 9.69026 7.4655 9.69043 7.20801C9.69023 6.81859 9.37262 6.50027 8.9834 6.5Z" fill="black"/>
</g>
<defs>
<clipPath id="clip0_120_680">
<rect width="32" height="32" fill="white"/>
</clipPath>
</defs>
</svg>
