<svg width="32" height="32" viewBox="0 0 32 32" fill="none" xmlns="http://www.w3.org/2000/svg">
<path d="M14 16.123C14.6346 16.1232 15.1493 16.6388 15.1494 17.2734C15.1492 17.908 14.6346 18.4227 14 18.4229C13.3654 18.4227 12.8498 17.908 12.8496 17.2734C12.8497 16.6387 13.3653 16.1232 14 16.123Z" fill="black"/>
<path fill-rule="evenodd" clip-rule="evenodd" d="M13.5654 12.1377H5.5459V8.50684H13.5654V12.1377ZM6.56543 11.1172H12.5459V9.52637H6.56543V11.1172Z" fill="black"/>
<path fill-rule="evenodd" clip-rule="evenodd" d="M17 1.7627C17.2816 1.76288 17.5097 1.99177 17.5098 2.27344V30.2734C17.5096 30.555 17.2816 30.783 17 30.7832H2C1.71839 30.7831 1.48945 30.555 1.48926 30.2734V2.27344C1.48932 1.99173 1.71831 1.76283 2 1.7627H17ZM2.50977 29.7627H16.4893V2.7832H2.50977V29.7627Z" fill="black"/>
<path fill-rule="evenodd" clip-rule="evenodd" d="M30 3.7627C30.2816 3.76288 30.5097 3.99177 30.5098 4.27344V28.2734C30.5096 28.5202 30.3346 28.7253 30.1025 28.7734L30 28.7842H25.2588V28.7979H24.2373V28.7842H22.4805V28.7959H21.4609V28.7842H18.8496V27.7627H21.4609V20.6377L21.4336 20.627C20.4801 20.241 19.8632 19.326 19.8643 18.2988L19.8652 15.8711C19.8653 14.9042 20.2526 14.0041 20.9541 13.3379C21.656 12.6725 22.5771 12.3338 23.5479 12.3838C25.3801 12.4805 26.8543 14.1276 26.8535 16.042L26.8516 18.3047C26.8494 19.3295 26.2355 20.2409 25.2871 20.6279L25.2588 20.6387V27.7627H29.4893V4.7832H18.8496V3.7627H30ZM23.4941 13.3994C22.8894 13.3715 22.3161 13.5492 21.8496 13.9092L21.6572 14.0742C21.16 14.5469 20.8858 15.1836 20.8857 15.8682L20.8848 18.2959C20.8848 18.9077 21.2498 19.4495 21.8154 19.6777L22.126 19.8027C22.2213 19.8413 22.3075 19.9115 22.3701 19.9932C22.4324 20.0745 22.4803 20.1801 22.4805 20.2949V27.7627H24.2373V20.2949C24.2375 20.0877 24.3643 19.9011 24.5557 19.8223L24.9033 19.6816C25.4666 19.4527 25.8309 18.9116 25.8311 18.3027L25.833 16.04C25.8338 14.7315 24.9028 13.6157 23.7314 13.4248L23.4941 13.3994Z" fill="black"/>
<path fill-rule="evenodd" clip-rule="evenodd" d="M23.3584 7.60352C24.4671 7.60352 25.3679 8.50466 25.3682 9.61328C25.3682 10.7222 24.4662 11.624 23.3584 11.624C22.2508 11.6238 21.3486 10.722 21.3486 9.61328C21.3489 8.50482 22.2499 7.60378 23.3584 7.60352ZM23.3584 8.62402C22.8136 8.62429 22.3684 9.06851 22.3682 9.61328C22.3682 10.1583 22.8135 10.6032 23.3584 10.6035C23.9036 10.6035 24.3486 10.1584 24.3486 9.61328C24.3484 9.06834 23.9034 8.62402 23.3584 8.62402Z" fill="black"/>
</svg>
