<svg width="32" height="32" viewBox="0 0 32 32" fill="none" xmlns="http://www.w3.org/2000/svg">
<g clip-path="url(#clip0_120_672)">
<path fill-rule="evenodd" clip-rule="evenodd" d="M24.0002 18.49C24.2818 18.4901 24.5097 18.7181 24.5099 18.9997V30.49H28.4894V19.3611C28.4894 19.0791 28.7182 18.8503 29.0002 18.8503C29.2819 18.8506 29.5099 19.0793 29.5099 19.3611V30.49H30.6398C30.9213 30.4901 31.1504 30.7183 31.1506 30.9997C31.1505 31.2813 30.9214 31.5104 30.6398 31.5105H1.36053C1.07891 31.5105 0.85084 31.2813 0.850769 30.9997C0.850985 30.7183 1.079 30.49 1.36053 30.49H2.49042V19.3601C2.49044 19.0785 2.71859 18.8504 3.00018 18.8503C3.28174 18.8504 3.50992 19.0785 3.50995 19.3601V30.49H7.49042V18.9997C7.49063 18.7181 7.71853 18.49 8.00018 18.49H24.0002ZM8.50995 27.5124V30.49H23.4904V27.5105L8.50995 27.5124ZM8.50995 23.5124V26.4909L23.4904 26.49V23.5105L8.50995 23.5124ZM8.50995 22.4909L23.4904 22.49V19.5105H8.50995V22.4909Z" fill="black"/>
<path d="M23.6398 15.49C23.9213 15.49 24.1503 15.7183 24.1506 15.9997C24.1505 16.2811 23.9221 16.5101 23.6408 16.5105L8.36053 16.5134C8.07888 16.5135 7.85084 16.2843 7.85077 16.0027C7.85099 15.7212 8.07904 15.4929 8.36053 15.4929L23.6398 15.49Z" fill="black"/>
<path d="M15.6389 0.639381C15.8384 0.43984 16.161 0.439815 16.3605 0.639381L28.4904 12.7693V9.36106C28.4904 9.07912 28.7192 8.85032 29.0012 8.85032C29.2828 8.85062 29.5109 9.07931 29.5109 9.36106V13.7888L31.1066 15.3845C31.3061 15.5842 31.3058 15.9081 31.1057 16.1072C30.9063 16.3053 30.5838 16.3049 30.3849 16.1062L16.0002 1.72044L1.61444 16.1062C1.4154 16.3047 1.09275 16.3048 0.893738 16.1062C0.6946 15.907 0.6946 15.5836 0.893738 15.3845L15.6389 0.639381Z" fill="black"/>
</g>
<defs>
<clipPath id="clip0_120_672">
<rect width="32" height="32" fill="white"/>
</clipPath>
</defs>
</svg>
