<svg width="32" height="32" viewBox="0 0 32 32" fill="none" xmlns="http://www.w3.org/2000/svg">
<path d="M7.6036 21.96L7.70321 21.9902C7.96305 22.0991 8.05246 22.3821 7.90439 22.6211L4.68466 27.8193C4.53629 28.0583 4.20505 28.1648 3.9454 28.0566L3.85653 28.0078C3.66724 27.878 3.61271 27.6355 3.74228 27.4258L6.96298 22.2275C7.09282 22.018 7.36398 21.9107 7.6036 21.96Z" fill="black"/>
<path d="M6.85165 19.6611L6.95224 19.6914C7.21187 19.8004 7.30143 20.0833 7.15341 20.3223L4.68466 24.3076C4.53659 24.5466 4.20455 24.6534 3.94442 24.5449L3.85556 24.4961C3.66641 24.3659 3.61264 24.1234 3.74228 23.9141L6.212 19.9287C6.34184 19.7191 6.61203 19.6118 6.85165 19.6611Z" fill="black"/>
<path fill-rule="evenodd" clip-rule="evenodd" d="M7.51864 14.2939C8.29386 14.2941 8.84789 15.0469 8.61728 15.7871L8.12216 17.3662C8.28617 17.4266 8.41076 17.5698 8.44638 17.7441L8.45712 17.8467C8.45675 18.0632 8.32041 18.2465 8.12997 18.3203L10.5059 24.5684L10.5597 24.7119L10.6651 25.0205C11.6537 28.2108 9.2727 31.5094 5.87118 31.5098H5.8663L5.54989 31.5L5.54501 31.499C2.31899 31.2962 0.119908 28.1082 1.07626 25.0205L1.07821 25.0156L1.18075 24.7168L1.18173 24.7119L3.60946 18.3203C3.41979 18.2461 3.28464 18.0627 3.28427 17.8467L3.29501 17.7441C3.33053 17.5703 3.45399 17.4269 3.61728 17.3662L3.12509 15.7871C2.89428 15.0469 3.44743 14.2943 4.22275 14.2939H7.51864ZM2.13583 25.0752C1.14277 27.6899 3.07406 30.4892 5.87118 30.4893C8.66812 30.4889 10.5988 27.6899 9.60556 25.0752L9.55185 24.9316L7.05282 18.3564H4.68857L2.13583 25.0752ZM4.22275 15.3145C4.13591 15.3148 4.07403 15.3987 4.0997 15.4824L4.6788 17.3359H4.85556L4.47958 15.3145H4.22275ZM6.86825 17.3359H7.06357L7.64267 15.4824C7.66805 15.3991 7.60582 15.3147 7.51864 15.3145H7.06454L6.86825 17.3359ZM5.85946 17.1748L6.04013 15.3145H5.51376L5.85946 17.1748Z" fill="black"/>
<path fill-rule="evenodd" clip-rule="evenodd" d="M21.2022 19.1396C21.4602 19.1396 21.6699 19.3495 21.67 19.6074C21.6699 19.8653 21.4601 20.0742 21.2022 20.0742H21.0626L20.2638 30.7373L20.2628 30.7432L20.2237 31.0947C20.1976 31.3306 19.9972 31.5098 19.7599 31.5098H13.6026C13.3637 31.5096 13.166 31.3293 13.1388 31.0957L13.1378 31.0898L12.3009 20.0732H12.1593C11.9018 20.0729 11.6925 19.864 11.6925 19.6064C11.6928 19.3491 11.902 19.14 12.1593 19.1396H21.2022ZM14.0255 30.5762H19.336L19.9298 21.834H13.4327L14.0255 30.5762ZM13.336 20.8994H20.0265L20.1183 20.0742H13.2442L13.336 20.8994Z" fill="black"/>
<path fill-rule="evenodd" clip-rule="evenodd" d="M26.4835 0.849609C26.7652 0.849609 26.9933 1.07869 26.9933 1.36035V24.4902H27.6573C28.9628 24.4902 30.0355 25.4704 30.1563 26.7695L30.9893 30.9385L30.9913 30.9463L30.9923 30.9531C31.0066 31.0976 30.9566 31.2381 30.8595 31.3438L30.8604 31.3447C30.7647 31.4489 30.6294 31.5098 30.4845 31.5098H22.4845C22.3414 31.5097 22.2046 31.4492 22.1085 31.3447L22.1075 31.3438C22.0119 31.2382 21.9629 31.0965 21.9757 30.9541L21.9767 30.9463L21.9786 30.9385L22.8126 26.7578C22.9378 25.4633 24.0095 24.4903 25.3106 24.4902H25.9737V1.36035C25.9737 1.07875 26.2019 0.849716 26.4835 0.849609ZM23.0616 30.4902H24.9747V29.3604C24.9747 29.0788 25.2029 28.8497 25.4845 28.8496C25.7661 28.8496 25.9942 29.0787 25.9942 29.3604V30.4902H26.9747V28.3604C26.9747 28.0785 27.2036 27.8497 27.4854 27.8496C27.7671 27.8499 27.9952 28.0787 27.9952 28.3604L27.9942 30.4902H29.9063L29.3048 27.5107H23.6632L23.0616 30.4902ZM25.3116 25.5107C24.6673 25.5108 24.1197 25.9122 23.9112 26.4902H29.0587C28.8509 25.9117 28.3029 25.5107 27.6583 25.5107H25.3116Z" fill="black"/>
<path fill-rule="evenodd" clip-rule="evenodd" d="M19.6817 1.39258C19.8769 1.4325 20.0307 1.58461 20.0753 1.77832H21.7647C22.0461 1.77864 22.2742 2.00696 22.2745 2.28809L22.2638 2.39062C22.2165 2.62274 22.0114 2.79855 21.7647 2.79883H20.0899V3.3457L22.2921 7.53906L22.3009 7.55469L22.3067 7.56543L22.3116 7.57812L22.3175 7.59473C22.6982 8.53644 22.8062 9.72919 22.7726 10.7217C22.7555 11.224 22.7018 11.6951 22.6202 12.0781C22.5795 12.2692 22.5293 12.4478 22.4698 12.6016C22.4142 12.7451 22.3329 12.9134 22.2081 13.042C21.9858 13.2713 21.6376 13.7332 21.2091 14.2998C20.7948 14.8475 20.3205 15.4713 19.877 15.9668C19.5908 16.2862 19.1837 16.4386 18.7862 16.377C18.3816 16.3138 18.0368 16.0359 17.8849 15.6123C17.5755 14.7495 17.3929 13.5997 17.2433 12.5127C17.0895 11.3958 16.9707 10.3471 16.7999 9.59277C16.5475 8.47815 16.919 7.1095 17.4044 5.93066C17.9002 4.72664 18.5639 3.60416 19.0294 2.93262L19.0694 2.875V2.79883H15.0421V4.36133C15.0421 4.60779 14.8664 4.81372 14.6339 4.86133L14.5313 4.87207C14.2496 4.8718 14.0216 4.64249 14.0216 4.36133V2.79883H9.99423V2.89941C10.2063 3.01371 10.3997 3.20262 10.5704 3.42969C10.8554 3.80885 11.1067 4.32602 11.3155 4.88672C11.7328 6.00735 11.9932 7.34345 11.9933 8.20605V8.21191L11.9806 8.52344V8.5293C11.8643 10.0545 10.9172 11.3199 9.68271 11.3975L9.56259 11.4014C8.26988 11.4012 7.26463 10.1036 7.14462 8.5293L7.14364 8.52344L7.14462 8.52246L7.1329 8.21191L7.13193 8.20605C7.13196 7.34346 7.39237 6.00734 7.80966 4.88672C8.01837 4.3263 8.26998 3.80979 8.55478 3.43066C8.68232 3.26098 8.82275 3.1125 8.97372 3V2.79883H4.94638V4.36133C4.94638 4.60787 4.77077 4.8138 4.53817 4.86133L4.43564 4.87207C4.1539 4.87175 3.92587 4.64246 3.92587 4.36133V2.79883H2.31259C2.06608 2.79883 1.86016 2.62316 1.81259 2.39062L1.80185 2.28809C1.80212 2.00631 2.03143 1.77832 2.31259 1.77832H3.93954C3.99147 1.55185 4.19353 1.38211 4.43564 1.38184L4.53817 1.39258C4.73344 1.4324 4.88709 1.58456 4.93173 1.77832H8.98739C9.03932 1.55184 9.24138 1.38211 9.48349 1.38184L9.58603 1.39258C9.78129 1.4324 9.93494 1.58456 9.97958 1.77832H14.0352C14.0872 1.55184 14.2892 1.38207 14.5313 1.38184L14.6339 1.39258C14.8291 1.43242 14.9828 1.58456 15.0274 1.77832H19.0821C19.134 1.55176 19.337 1.38207 19.5792 1.38184L19.6817 1.39258ZM19.1622 4.6543C18.8803 5.1546 18.5911 5.72663 18.3477 6.31738C17.874 7.46791 17.6172 8.58153 17.795 9.36719C17.9787 10.1783 18.1059 11.3042 18.253 12.373C18.4042 13.4713 18.5765 14.5191 18.8448 15.2676C18.8606 15.3115 18.8806 15.335 18.8956 15.3477C18.9104 15.36 18.9266 15.3665 18.9425 15.3691C18.9762 15.3744 19.0458 15.3665 19.1173 15.2871C19.5278 14.8285 19.9762 14.2382 20.3956 13.6836C20.7976 13.152 21.192 12.6239 21.4698 12.3359C21.4711 12.3339 21.4741 12.3305 21.4767 12.3262C21.4875 12.3069 21.5023 12.2766 21.5186 12.2344C21.5528 12.1461 21.5888 12.022 21.6222 11.8652L21.669 11.6133C21.7115 11.345 21.7414 11.0293 21.753 10.6875C21.7841 9.77029 21.6779 8.74066 21.3741 7.98438L19.7267 4.84766C19.7117 4.8522 19.6972 4.85815 19.6817 4.86133L19.5792 4.87207C19.4065 4.87191 19.2544 4.78567 19.1622 4.6543ZM9.98837 4.41895C9.96353 4.63947 9.80027 4.81755 9.58603 4.86133L9.48349 4.87207C9.29053 4.87185 9.12472 4.76359 9.03817 4.60547C8.94539 4.79424 8.85308 5.00765 8.76571 5.24219C8.38043 6.2768 8.15247 7.49158 8.15243 8.20605L8.16122 8.45312C8.20446 9.01776 8.39331 9.49969 8.64657 9.83789C8.93546 10.2236 9.26829 10.3808 9.56259 10.3809C9.8568 10.3808 10.1897 10.2235 10.4786 9.83789C10.768 9.45135 10.9727 8.87696 10.9727 8.20605L10.963 7.91602C10.9142 7.19068 10.6975 6.14742 10.3604 5.24219C10.2427 4.92606 10.1143 4.64919 9.98837 4.41895Z" fill="black"/>
</svg>
