<svg width="32" height="32" viewBox="0 0 32 32" fill="none" xmlns="http://www.w3.org/2000/svg">
<g clip-path="url(#clip0_427_92)">
<path d="M5.07623 30.218C5.29816 30.1349 5.55551 30.2162 5.68658 30.4241L5.73248 30.5168C5.81577 30.7383 5.73551 30.9957 5.5274 31.1272L4.95026 31.4905C4.71254 31.6399 4.39655 31.5699 4.24615 31.3313C4.09584 31.0926 4.16896 30.7781 4.40631 30.6282L4.98346 30.2639L5.07623 30.218Z" fill="black"/>
<path d="M7.29205 28.8098C7.52997 28.6602 7.84588 28.7306 7.99615 28.969L8.04205 29.0618C8.12538 29.2837 8.04374 29.5409 7.836 29.6721L6.6817 30.3997C6.47346 30.5305 6.20617 30.4925 6.04205 30.3215L5.97858 30.2405C5.82871 30.0025 5.89965 29.6867 6.13776 29.5364L7.29205 28.8098Z" fill="black"/>
<path d="M16.2061 28.1252C16.431 28.05 16.686 28.141 16.8096 28.3538C16.9506 28.5972 16.867 28.9096 16.6241 29.051L15.9649 29.4338C15.8293 29.5121 15.6648 29.5241 15.5206 29.467L15.46 29.4377L14.9473 29.1497C14.7024 29.0122 14.6141 28.7021 14.751 28.4563L14.8106 28.3713C14.9657 28.1924 15.2306 28.14 15.4454 28.26L15.7032 28.4045L16.1124 28.1682L16.2061 28.1252Z" fill="black"/>
<path d="M9.6944 27.3088C9.91591 27.2258 10.1734 27.3058 10.3047 27.5139C10.4546 27.7518 10.3835 28.0676 10.1456 28.218L8.99029 28.9456C8.75212 29.0948 8.4371 29.0233 8.28717 28.7854C8.1373 28.5473 8.20895 28.2326 8.44635 28.0823L9.60162 27.3547L9.6944 27.3088Z" fill="black"/>
<path d="M12.7588 27.2229C12.9137 27.0441 13.178 26.992 13.3926 27.1116L14.419 27.6858L14.504 27.7454C14.6574 27.8782 14.7178 28.0918 14.6563 28.2854L14.6153 28.3801C14.4947 28.5949 14.2414 28.6882 14.0157 28.6165L13.921 28.5754L12.8946 28.0012C12.6496 27.8634 12.5624 27.5531 12.6993 27.3079L12.7588 27.2229Z" fill="black"/>
<path d="M18.7481 26.637C18.9918 26.4958 19.3041 26.5795 19.4454 26.8225C19.5861 27.0655 19.5033 27.377 19.2608 27.5188L17.9424 28.2844C17.6995 28.4252 17.3869 28.3436 17.2452 28.0999C17.1037 27.8561 17.188 27.5439 17.4307 27.4026L18.7481 26.637Z" fill="black"/>
<path d="M11.4581 26.2073C11.5883 26.1682 11.7315 26.1822 11.8536 26.2502L12.3672 26.5374L12.4522 26.5969C12.6057 26.7299 12.6651 26.9437 12.6036 27.137L12.5626 27.2317C12.4421 27.446 12.1895 27.5397 11.9639 27.468L11.8692 27.427L11.6202 27.2874L11.2999 27.4905C11.0621 27.6399 10.7461 27.5697 10.5958 27.3313C10.4455 27.0927 10.5184 26.7772 10.7559 26.6272L11.3331 26.2639C11.3386 26.2605 11.3447 26.2569 11.3506 26.2542L11.4385 26.2141C11.4446 26.2114 11.4518 26.2092 11.4581 26.2073Z" fill="black"/>
<path fill-rule="evenodd" clip-rule="evenodd" d="M11.7413 16.7004C11.8993 16.6099 12.0954 16.6098 12.253 16.7014L13.9864 17.7122C14.1436 17.8039 14.2409 17.9736 14.2403 18.1555L14.2227 22.592C14.2218 22.7735 14.1237 22.9409 13.9669 23.0315C13.809 23.1219 13.6134 23.1216 13.4561 23.0305L11.7403 22.0354C11.5833 21.9443 11.4854 21.776 11.4854 21.594V17.1428C11.4855 16.9607 11.5832 16.7915 11.7413 16.7004ZM12.5069 21.2991L13.2051 21.7053L13.2178 18.4446L12.5069 18.0305V21.2991Z" fill="black"/>
<path fill-rule="evenodd" clip-rule="evenodd" d="M7.70904 14.3499C7.86754 14.2594 8.06332 14.2605 8.22076 14.3528L9.61432 15.1721C9.76905 15.2635 9.8659 15.4301 9.86627 15.6106V20.0422C9.86627 20.2249 9.76741 20.3928 9.61041 20.4836C9.45288 20.5744 9.25763 20.575 9.09967 20.4836L7.70611 19.677C7.54941 19.5859 7.45123 19.4176 7.45123 19.2356V14.7922C7.45139 14.6093 7.55082 14.4405 7.70904 14.3499ZM8.47272 18.9407L8.84479 19.1565V15.9016L8.47272 15.6829V18.9407Z" fill="black"/>
<path fill-rule="evenodd" clip-rule="evenodd" d="M20.9708 16.8958C21.1283 16.8067 21.3229 16.8077 21.4796 16.8987C21.6357 16.9902 21.7334 17.1591 21.7335 17.3401V21.0139C21.7333 21.1955 21.6354 21.3641 21.4786 21.4553L18.6299 23.1057C18.4721 23.1971 18.2774 23.1958 18.1202 23.1057C17.9628 23.0149 17.8636 22.8466 17.8633 22.6643V18.9573C17.8634 18.7737 17.9626 18.6035 18.1221 18.5129L20.9708 16.8958ZM18.8848 19.2522V21.7786L20.713 20.719V18.2161L18.8848 19.2522Z" fill="black"/>
<path fill-rule="evenodd" clip-rule="evenodd" d="M25.5821 14.2376C25.7395 14.1455 25.9353 14.1449 26.0938 14.2356C26.2524 14.3266 26.3506 14.4957 26.3506 14.678V18.1438C26.3505 18.3222 26.2567 18.4898 26.1026 18.5823L23.4991 20.1389C23.3417 20.2327 23.1449 20.2351 22.9854 20.1448C22.8265 20.0545 22.727 19.8848 22.7266 19.7014V16.2034C22.7268 16.022 22.8244 15.8541 22.9796 15.7629L25.5821 14.2376ZM23.7481 16.4944V18.8001L25.3301 17.8538V15.5676L23.7481 16.4944Z" fill="black"/>
<path fill-rule="evenodd" clip-rule="evenodd" d="M21.2178 0.00513107C21.4506 -0.125216 21.7461 -0.0549179 21.8936 0.168217L29.0547 11.0588C29.1316 11.1757 29.1573 11.3196 29.1251 11.4563C29.0922 11.5936 29.0026 11.711 28.8819 11.7805L28.046 12.259V17.1917L28.3214 17.3528C28.5643 17.4941 28.6477 17.8066 28.5069 18.0501C28.4087 18.2188 28.2282 18.308 28.046 18.301V19.7551C28.046 19.937 27.9471 20.1054 27.7911 20.1965L16.2598 26.9075C16.1221 26.9875 15.9553 26.9985 15.8096 26.9387L15.7481 26.9085L6.03326 21.2717C5.87639 21.1806 5.77838 21.0124 5.77838 20.8303V19.302L5.15045 19.6702C4.90741 19.8123 4.59447 19.7305 4.45221 19.4876C4.31104 19.2449 4.39197 18.9315 4.63483 18.7893L5.50104 18.2825C5.58827 18.2315 5.68493 18.2102 5.77838 18.2141V12.0862L5.42096 12.1243C5.18297 12.1492 4.9596 12.0053 4.88385 11.7786L4.70807 11.2532C4.64212 11.0542 4.7054 10.8336 4.86627 10.6995L10.3751 6.11646C10.4006 6.09531 10.4278 6.07793 10.4512 6.0647L21.2178 0.00513107ZM6.06061 11.0305L6.23541 11.0129C6.37795 10.9981 6.52298 11.0437 6.63092 11.1409C6.73804 11.2375 6.7996 11.376 6.79986 11.5198V20.5364L15.4932 25.5793V17.1184C15.4935 16.9482 15.5793 16.7889 15.7198 16.6946C15.8604 16.601 16.0403 16.5824 16.1973 16.6467L16.2501 16.6682L10.5694 7.27955L6.06061 11.0305ZM17.7403 18.1682C17.6045 18.246 17.4391 18.2582 17.293 18.1985L16.5147 17.8782V25.5784L27.0245 19.4622V12.844L17.7403 18.1682ZM11.4083 6.69458L17.6641 17.0354L27.1553 11.595C27.2275 11.514 27.3243 11.457 27.4346 11.4348L27.9044 11.1653L21.3018 1.12525L11.4083 6.69458Z" fill="black"/>
<path d="M21.3839 25.1057C21.627 24.9649 21.9395 25.0473 22.0811 25.2903C22.2221 25.5333 22.1395 25.8457 21.8965 25.9876L20.5782 26.7532C20.3353 26.8939 20.0226 26.8124 19.8809 26.5686C19.7395 26.3248 19.8238 26.0127 20.0665 25.8713L21.3839 25.1057Z" fill="black"/>
<path d="M0.746154 24.4983C0.989116 24.3565 1.30114 24.4392 1.44342 24.6809C1.5854 24.9238 1.50419 25.2368 1.26178 25.3792L0.671935 25.7249C0.428922 25.8669 0.115972 25.785 -0.026307 25.5422C-0.167672 25.2995 -0.0862952 24.9862 0.15631 24.844L0.746154 24.4983Z" fill="black"/>
<path d="M24.0206 23.5745C24.2637 23.4338 24.5753 23.5162 24.7169 23.759C24.8579 24.0021 24.7756 24.3145 24.5323 24.4563L23.2139 25.2219C22.9711 25.3625 22.6584 25.2812 22.5167 25.0374C22.3752 24.7936 22.4596 24.4814 22.7022 24.3401L24.0206 23.5745Z" fill="black"/>
<path d="M3.10455 23.1155C3.34754 22.9734 3.66043 23.0563 3.80279 23.2981C3.94508 23.541 3.86371 23.8549 3.62115 23.9973L2.44147 24.6877C2.19891 24.8298 1.88693 24.7485 1.7442 24.5061L1.74322 24.5051C1.60218 24.263 1.68189 23.9495 1.92487 23.8069L3.10455 23.1155Z" fill="black"/>
<path d="M26.6563 22.0432C26.8994 21.9024 27.212 21.9841 27.3536 22.2278C27.495 22.4714 27.4109 22.7836 27.168 22.9251L25.8506 23.6907C25.6077 23.8314 25.2951 23.7492 25.1534 23.5061C25.0123 23.2629 25.0951 22.9506 25.338 22.8088L26.6563 22.0432Z" fill="black"/>
<path d="M3.99029 21.8079C4.13935 21.5695 4.45371 21.4964 4.69244 21.6448L5.4024 22.0872C5.53472 22.1699 5.62077 22.3082 5.63873 22.4602L5.64264 22.5266C5.64015 22.7047 5.54455 22.8698 5.39069 22.9602L4.80084 23.3059C4.55773 23.4483 4.24595 23.3655 4.10358 23.1233L4.1026 23.1223C3.98709 22.924 4.0212 22.6803 4.16998 22.5198L4.15338 22.51C3.91509 22.3611 3.84135 22.0469 3.99029 21.8079Z" fill="black"/>
<path d="M29.2921 20.511C29.5356 20.3701 29.8481 20.4535 29.9893 20.6965C30.1307 20.9402 30.0467 21.2524 29.8038 21.3938L28.4864 22.1594C28.2429 22.3005 27.9305 22.2172 27.7891 21.9739C27.6482 21.7307 27.7312 21.4193 27.9737 21.2776L29.2921 20.511Z" fill="black"/>
<path d="M2.9024 19.803C3.14536 19.6612 3.4574 19.7437 3.59967 19.9856C3.74176 20.2285 3.66065 20.5415 3.41803 20.6838L3.27838 20.7639C3.51318 20.9145 3.58258 21.2256 3.43561 21.4622C3.28677 21.7006 2.97342 21.7737 2.73444 21.6252L2.02447 21.1829C1.87374 21.0886 1.78086 20.9222 1.78326 20.7434C1.78606 20.565 1.88258 20.3998 2.03619 20.3098L2.9024 19.803Z" fill="black"/>
<path d="M30.5899 19.261C30.7313 19.0182 31.0436 18.9343 31.2872 19.0754L31.7813 19.3626C31.9386 19.4541 32.0351 19.6231 32.0352 19.804L32.0303 19.8713C32.0098 20.026 31.9187 20.1653 31.7813 20.2454L31.1221 20.6282C30.8786 20.7693 30.5662 20.6859 30.4249 20.4426C30.2886 20.2075 30.3625 19.9096 30.586 19.762C30.5024 19.611 30.4966 19.4219 30.5899 19.261Z" fill="black"/>
<path d="M28.6729 18.0286C28.8307 17.8519 29.0968 17.8038 29.3096 17.927L30.2979 18.5012C30.5409 18.6425 30.6244 18.955 30.4835 19.1985C30.3422 19.4412 30.0299 19.5253 29.7862 19.384L28.7979 18.8098C28.5549 18.6684 28.4714 18.356 28.6124 18.1126L28.6729 18.0286Z" fill="black"/>
</g>
<defs>
<clipPath id="clip0_427_92">
<rect width="32" height="32" fill="white"/>
</clipPath>
</defs>
</svg>
