<svg width="32" height="32" viewBox="0 0 32 32" fill="none" xmlns="http://www.w3.org/2000/svg">
<path d="M14.6035 22.9877C14.7444 22.7439 15.057 22.6605 15.3008 22.8012L15.7363 23.0522L16.0586 22.8666C16.3024 22.7259 16.615 22.8094 16.7559 23.0532C16.8963 23.2969 16.813 23.6096 16.5693 23.7504L15.9922 24.0834C15.8345 24.1745 15.6392 24.1743 15.4814 24.0834L14.79 23.685C14.5464 23.5441 14.463 23.2315 14.6035 22.9877Z" fill="black"/>
<path d="M18.3691 21.5326C18.613 21.3922 18.9246 21.4761 19.0654 21.7192L19.1074 21.8139C19.1714 22.0066 19.1147 22.221 18.9629 22.3559L18.8789 22.4164L17.7246 23.0834C17.4809 23.2241 17.1683 23.1404 17.0273 22.8969C16.8866 22.6531 16.97 22.3405 17.2139 22.1996L18.3691 21.5326Z" fill="black"/>
<path d="M11.8398 21.392C11.9807 21.1482 12.2933 21.0648 12.5371 21.2055L13.9189 22.0033C14.132 22.1267 14.2223 22.381 14.1475 22.6059L14.1055 22.7006C13.9646 22.9441 13.652 23.0276 13.4082 22.8871L12.0264 22.0893C11.7828 21.9484 11.6992 21.6359 11.8398 21.392Z" fill="black"/>
<path d="M20.7734 20.1576C20.9984 20.0828 21.2527 20.1729 21.376 20.3862C21.5162 20.6299 21.4329 20.9417 21.1895 21.0825L20.0342 21.7494C19.7904 21.8901 19.4788 21.8063 19.3379 21.5629C19.197 21.3189 19.2807 21.0074 19.5244 20.8666L20.6787 20.1996L20.7734 20.1576Z" fill="black"/>
<path d="M9.07617 19.7963C9.21707 19.5526 9.52963 19.4691 9.77344 19.6098L11.1553 20.4076C11.3989 20.5486 11.4825 20.8612 11.3418 21.1049C11.2009 21.3485 10.8883 21.4319 10.6445 21.2914L9.2627 20.4936C9.01908 20.3527 8.9355 20.0402 9.07617 19.7963Z" fill="black"/>
<path d="M22.9893 18.8657C23.2331 18.7249 23.5456 18.8083 23.6865 19.0522C23.8091 19.2654 23.7606 19.5308 23.584 19.6879L23.5 19.7485L22.3447 20.4155C22.101 20.5562 21.7885 20.4725 21.6475 20.2289C21.5071 19.9852 21.5905 19.6735 21.834 19.5326L22.9893 18.8657Z" fill="black"/>
<path d="M6.37305 18.1166C6.53056 17.9395 6.7965 17.891 7.00977 18.0141L8.3916 18.8119C8.63518 18.9529 8.71877 19.2655 8.57812 19.5092C8.43725 19.7528 8.1246 19.8362 7.88086 19.6957L6.49902 18.8979C6.25541 18.757 6.17183 18.4445 6.3125 18.2006L6.37305 18.1166Z" fill="black"/>
<path d="M25.2998 17.5317C25.5435 17.3914 25.8553 17.4747 25.9961 17.7182L26.0381 17.8129C26.1127 18.0378 26.0227 18.2923 25.8096 18.4155L24.6543 19.0824C24.4413 19.205 24.1759 19.1565 24.0186 18.9799L23.958 18.8959C23.8172 18.6521 23.9007 18.3396 24.1445 18.1987L25.2998 17.5317Z" fill="black"/>
<path d="M5.19922 16.3842C5.42403 16.3096 5.67763 16.3999 5.80078 16.6127L5.84277 16.7074C5.90826 16.9048 5.84567 17.1231 5.68555 17.2573C5.88296 17.4113 5.94301 17.6906 5.81445 17.9135C5.69123 18.1266 5.43678 18.2167 5.21191 18.142L5.11719 18.1L4.42676 17.7006C4.28927 17.6212 4.19677 17.4824 4.17578 17.3266L4.1709 17.2592C4.17102 17.0767 4.26962 16.9086 4.42676 16.8178L5.10449 16.4262L5.19922 16.3842Z" fill="black"/>
<path d="M26.2178 16.3559C26.3586 16.1122 26.6701 16.0285 26.9141 16.1694L27.542 16.5317C27.6989 16.6225 27.7978 16.7905 27.7979 16.9731L27.793 17.0405C27.775 17.1742 27.7043 17.2956 27.5977 17.3774L27.542 17.4145L26.9648 17.7485C26.7211 17.8891 26.4086 17.8055 26.2676 17.5619C26.1588 17.3735 26.1848 17.1443 26.3145 16.9848C26.1428 16.8269 26.0965 16.5665 26.2178 16.3559Z" fill="black"/>
<path d="M7.91016 14.8188C8.13514 14.744 8.38947 14.8341 8.5127 15.0473C8.65318 15.2911 8.56978 15.6037 8.32617 15.7446L6.9707 16.5268C6.72698 16.6675 6.41443 16.5838 6.27344 16.3403C6.13294 16.0964 6.21636 15.7848 6.45996 15.644L7.81543 14.8608L7.91016 14.8188Z" fill="black"/>
<path d="M23.7656 14.8207C23.9234 14.6434 24.1895 14.5963 24.4023 14.7192L25.6582 15.4438C25.8713 15.5671 25.9616 15.8214 25.8867 16.0463L25.8447 16.141C25.7039 16.3841 25.392 16.4674 25.1484 16.3276L23.8916 15.602C23.6482 15.4611 23.5644 15.1486 23.7051 14.9047L23.7656 14.8207Z" fill="black"/>
<path fill-rule="evenodd" clip-rule="evenodd" d="M17.7695 4.61956C18.0134 4.47909 18.326 4.56325 18.4668 4.80706L22.3516 11.5346L30.8369 16.434C30.994 16.5247 31.0926 16.6929 31.0928 16.8754V19.5219C31.0928 19.7042 30.9943 19.8732 30.8369 19.9643L15.873 28.603C15.7153 28.6939 15.5209 28.6938 15.3633 28.603L1.13086 20.3862C0.973932 20.2953 0.875017 20.1274 0.875 19.9448V17.4125C0.875151 17.2304 0.973468 17.0611 1.13086 16.9701L8.87012 12.5004L7.9375 10.8852C7.87023 10.7684 7.85194 10.6289 7.88672 10.4985C7.92175 10.3677 8.00795 10.2555 8.125 10.1879L17.7695 4.61956ZM16.1279 25.9223V27.2778L30.0713 19.227V17.8725L16.1279 25.9223ZM1.89648 19.6498L15.1074 27.2768V25.9223L1.89648 18.2953V19.6498ZM23.459 13.4526C23.5266 13.5703 23.5434 13.7099 23.5088 13.8393C23.4767 13.9586 23.4003 14.0605 23.2969 14.1293C23.396 14.2614 23.4284 14.4357 23.375 14.5961L23.333 14.6908C23.2098 14.9036 22.9554 14.994 22.7305 14.9194L22.6357 14.8774L22.3213 14.6948L21.4561 15.1957V17.8569C21.4557 18.0392 21.3572 18.2067 21.2002 18.2973L16.4648 21.0317C16.3073 21.1225 16.1128 21.1225 15.9551 21.0317L9.9502 17.5649C9.792 17.4735 9.69545 17.304 9.69531 17.1225V14.9526L9.68164 14.9614C9.43792 15.1021 9.12537 15.0184 8.98438 14.7748C8.84414 14.5311 8.92762 14.2193 9.1709 14.0785L9.69531 13.7748V13.4321C9.6025 13.4306 9.51145 13.4038 9.43262 13.3549L9.17188 13.5063L9.1709 13.5053L2.40527 17.4106L15.6172 25.0385L29.6602 16.9321L23.3721 13.3022L23.459 13.4526ZM10.7148 12.9311V16.8276L11.8145 17.4623V15.9282C11.8146 15.7467 11.9112 15.5771 12.0693 15.4858C12.2269 15.395 12.4215 15.395 12.5791 15.4858L14.2383 16.4448C14.3952 16.5355 14.494 16.7036 14.4941 16.8862V19.0092L15.7002 19.7055V15.891L13.1709 11.5112L10.7148 12.9311ZM17.3545 17.5649C17.3386 17.574 17.323 17.5819 17.3135 17.5864L17.2354 17.6225C17.0619 17.7021 16.8652 17.6747 16.7197 17.5678V19.7055L20.4355 17.561V15.7846L17.3545 17.5649ZM12.834 18.0512L13.4736 18.4203V17.1791L12.834 16.81V18.0512ZM9.0752 10.8158L9.89062 12.228L13.1045 10.3744L13.1172 10.3686L13.1836 10.3383L13.1982 10.3325C13.4237 10.2572 13.6786 10.3486 13.8018 10.5619L17.2109 16.4682L17.6533 16.2133L13.1709 8.44964L9.0752 10.8158ZM14.0557 7.93987L18.5361 15.7026L22.3184 13.5199L21.5703 12.2241C21.5322 12.1788 21.5036 12.1281 21.4834 12.0737L17.8369 5.75628L14.0557 7.93987Z" fill="black"/>
</svg>
