<svg width="32" height="32" viewBox="0 0 32 32" fill="none" xmlns="http://www.w3.org/2000/svg">
<path d="M27.521 24.2031C27.8026 24.2034 28.0306 24.4323 28.0308 24.7139V30.7139C28.0306 30.9954 27.8025 31.2234 27.521 31.2236H17.521C17.2393 31.2236 17.0104 30.9955 17.0103 30.7139V24.7139C17.0104 24.4321 17.2392 24.2031 17.521 24.2031H27.521ZM18.0308 30.2031H27.0103V28.2236H24.0308V28.7139C24.0306 28.9954 23.8025 29.2234 23.521 29.2236H21.521C21.2393 29.2236 21.0104 28.9955 21.0103 28.7139V28.2236H18.0308V30.2031ZM22.0308 28.2031H23.0093V27.2236H22.0308V28.2031ZM18.0308 27.2021H21.0103V26.7139C21.0104 26.4321 21.2392 26.2031 21.521 26.2031H23.521C23.8026 26.2034 24.0306 26.4323 24.0308 26.7139V27.2031H27.0093V25.2236H18.0308V27.2021ZM21.1265 6.59766C21.6508 6.59772 22.0595 6.72312 22.3882 6.96289C22.7122 7.19949 22.9387 7.53416 23.1304 7.91406C23.3279 8.30584 23.5404 9.05147 23.6997 9.67578C23.7806 9.99276 23.85 10.2875 23.8989 10.502C23.9137 10.5665 23.9268 10.6247 23.938 10.6738H26.9858C27.2722 10.6742 27.5041 10.9078 27.5044 11.1934C27.5042 11.4792 27.2719 11.7116 26.9858 11.7119H23.3872C23.2008 11.7118 23.0275 11.611 22.936 11.4473L22.9292 11.4346L22.9116 11.4043L22.9097 11.374L22.9077 11.3584C22.9072 11.3532 22.9068 11.3479 22.9067 11.3447C22.9067 11.3416 22.9067 11.3385 22.9067 11.3369C22.9065 11.3355 22.9059 11.3335 22.9058 11.332C22.9036 11.3123 22.9007 11.292 22.896 11.251C22.888 11.1806 22.8763 11.0782 22.8599 10.9541C22.8268 10.7046 22.7763 10.3642 22.7075 10.002C22.6386 9.63873 22.5513 9.25599 22.4458 8.9209C22.3383 8.57939 22.2192 8.3101 22.0952 8.15527C21.9172 7.93307 21.7935 7.81135 21.6636 7.73926C21.5703 7.68759 21.4606 7.65478 21.3022 7.6416L21.1265 7.63574C20.8504 7.63574 20.5698 7.72552 20.3628 7.9043C20.1613 8.07872 20.0153 8.35018 20.0151 8.74707V13.6387C20.0151 14.6811 20.8995 15.5654 21.9419 15.5654H26.2222C26.6828 15.5657 27.1331 15.8047 27.3862 16.1719L27.4819 16.3369L27.4858 16.3428L27.52 16.4258L27.5239 16.4326L27.5229 16.4336L27.5308 16.4551L27.5337 16.4658L28.6245 21.9434L30.2817 21.3916C30.5535 21.3012 30.848 21.4488 30.939 21.7197C31.03 21.9917 30.8823 22.286 30.6108 22.377L28.4214 23.1074H28.4106C28.3947 23.1115 28.3784 23.1164 28.3618 23.1191L28.2788 23.126C28.0687 23.1258 27.8713 22.9962 27.7935 22.7891L27.7915 22.7842L27.7847 22.7637L27.7837 22.7549L26.5483 16.7891C26.5325 16.7523 26.496 16.7058 26.4341 16.667C26.3851 16.6364 26.3289 16.6159 26.2749 16.6074L26.2222 16.6035H22.4604V19.8672L26.0337 22.0117C26.2785 22.159 26.3577 22.4777 26.2114 22.7227C26.0644 22.9679 25.7452 23.0487 25.4995 22.9014L22.4604 21.0762V22.3135C22.4604 22.5997 22.2278 22.8317 21.9419 22.832C21.656 22.832 21.4224 22.6003 21.4224 22.3135V21.0771L18.3833 22.9014C18.1375 23.0486 17.8193 22.9678 17.6724 22.7227C17.5256 22.4775 17.6047 22.159 17.8501 22.0117L21.4224 19.8672V16.6035H17.6802C17.5793 16.6035 17.4808 16.5917 17.3862 16.5703V17.8232C17.3862 18.5588 16.7876 19.1569 16.0522 19.1572H12.3101V22.4209L15.8823 24.5654C16.1278 24.7128 16.2069 25.0312 16.0601 25.2764C15.9131 25.5215 15.5949 25.6023 15.3491 25.4551L12.3101 23.6309V24.8672C12.31 25.154 12.0763 25.3857 11.7905 25.3857C11.5044 25.3856 11.272 25.1535 11.272 24.8672V23.6299L8.23291 25.4551C7.98717 25.6024 7.66805 25.5216 7.521 25.2764C7.37434 25.0313 7.45372 24.7128 7.69873 24.5654L11.272 22.4209V19.1572H7.51025L7.45752 19.1611C7.40343 19.1696 7.34742 19.1901 7.29834 19.2207C7.24511 19.2541 7.21261 19.2953 7.19385 19.3301L6.95361 25.2725L6.95264 25.2793L6.95166 25.291L6.95068 25.3086L6.94092 25.3379L6.93896 25.3428C6.86113 25.5498 6.66364 25.6794 6.45361 25.6797L6.38135 25.6729C6.36933 25.6709 6.35804 25.6675 6.34717 25.665L4.32275 25.8184C3.97823 25.8439 3.69821 25.5434 3.74951 25.2012C3.78672 24.9549 3.9887 24.7657 4.23682 24.7441L6.05811 24.585L6.19482 19.0586L6.1958 19.0508L6.19678 19.0381L6.19775 19.0195L6.20752 18.9902L6.2124 18.9795L6.24658 18.8965L6.25049 18.8906L6.34619 18.7256C6.59933 18.3583 7.04945 18.1193 7.51025 18.1191H11.7905C12.8329 18.1191 13.7173 17.2347 13.7173 16.1924V11.3008C13.7172 10.9037 13.5712 10.6325 13.3696 10.458C13.1626 10.279 12.8822 10.1895 12.606 10.1895L12.4341 10.1992C12.2732 10.2191 12.1415 10.269 12.021 10.3525C11.8957 10.4395 11.7716 10.5697 11.6401 10.7617L11.5063 10.9756L9.79639 14.002L9.7915 14.0098L9.72119 14.1035L9.71338 14.1113C9.61739 14.2086 9.48506 14.2655 9.34521 14.2656H4.74658C4.46041 14.2655 4.22827 14.0331 4.22803 13.7471C4.22809 13.4613 4.45995 13.2277 4.74658 13.2275H9.04248L10.6069 10.457L10.6099 10.4521L10.7485 10.2275L10.7515 10.2236C11.1103 9.68098 11.6483 9.1514 12.606 9.15137C13.6619 9.15141 14.7552 9.89066 14.7554 11.3008V16.1924C14.7554 16.9226 14.4751 17.5983 14.0229 18.1191H16.0522C16.1952 18.1189 16.3146 18.0176 16.3423 17.8828L16.3481 17.8232V15.3086C16.3478 15.2958 16.3462 15.2825 16.3462 15.2695V9.04102C16.3464 8.75487 16.5795 8.52148 16.8657 8.52148C17.1518 8.52201 17.384 8.75547 17.3843 9.04102V11.0752H17.3862V15.2891L17.3901 15.3291C17.4178 15.4639 17.5372 15.5653 17.6802 15.5654H19.7095C19.2573 15.0446 18.9771 14.3689 18.9771 13.6387V8.74707C18.9774 7.33713 20.0706 6.59766 21.1265 6.59766ZM1.44482 9.29883C1.6243 9.29886 1.78812 9.39572 1.87646 9.54785L1.90967 9.61621L3.9624 14.8584H8.23584C8.52162 14.8585 8.75505 15.0906 8.75537 15.377L8.74463 15.4814C8.69619 15.7178 8.48639 15.8964 8.23584 15.8965H3.63818C3.45236 15.8965 3.27932 15.7967 3.18701 15.6338L3.18213 15.625L3.17432 15.6045L0.980957 9.97949C0.853656 9.65289 1.09381 9.29919 1.44482 9.29883ZM30.353 6.9541C30.6516 7.0395 30.8106 7.36529 30.6968 7.65332L28.5581 13.0518L28.5503 13.0713L28.5454 13.0801C28.4532 13.2429 28.2799 13.3427 28.0942 13.3428H23.4966C23.246 13.3428 23.0362 13.1642 22.9878 12.9277L22.9771 12.8232C22.9776 12.537 23.2109 12.3047 23.4966 12.3047H27.77L29.7192 7.27051C29.8173 7.01791 30.0924 6.87995 30.353 6.9541ZM10.9751 3.44434C12.385 3.44439 13.5327 4.59208 13.5327 6.00195C13.5325 7.41176 12.3848 8.55854 10.9751 8.55859C9.56545 8.55837 8.41865 7.41161 8.41846 6.00195C8.41851 4.59223 9.56531 3.44456 10.9751 3.44434ZM10.8198 4.49023C10.1061 4.56328 9.53721 5.13273 9.46436 5.84668L9.45654 6.00195C9.45671 6.78701 10.055 7.4345 10.8198 7.5127L10.9751 7.52051C11.7603 7.52046 12.4086 6.92206 12.4868 6.15723L12.4946 6.00195C12.4946 5.16427 11.8128 4.48247 10.9751 4.48242L10.8198 4.49023ZM22.7573 0.890625C24.1668 0.891031 25.3137 2.03879 25.314 3.44824C25.3138 4.85779 24.1668 6.00448 22.7573 6.00488C21.3475 6.00488 20.1999 4.85809 20.1997 3.44824C20.2 2.0385 21.3475 0.890625 22.7573 0.890625ZM22.7573 1.92871C21.9197 1.92871 21.238 2.61069 21.2378 3.44824L21.2456 3.60352C21.3239 4.36838 21.972 4.9668 22.7573 4.9668L22.9126 4.95898C23.6772 4.88061 24.2757 4.23316 24.2759 3.44824L24.2681 3.29297C24.1951 2.57926 23.6261 2.00968 22.9126 1.93652L22.7573 1.92871Z" fill="black"/>
</svg>
