<svg width="32" height="32" viewBox="0 0 32 32" fill="none" xmlns="http://www.w3.org/2000/svg">
<g clip-path="url(#clip0_174_30)">
<path fill-rule="evenodd" clip-rule="evenodd" d="M13.4268 22.8905C13.7084 22.8905 13.9375 23.1196 13.9375 23.4013V29.2128C13.9375 29.4944 13.7084 29.7235 13.4268 29.7235H7.18652C6.90497 29.7234 6.67579 29.4944 6.67578 29.2128V23.4013C6.67578 23.1197 6.90497 22.8907 7.18652 22.8905H13.4268ZM8.47949 28.702H12.1768L10.3281 26.9999L8.47949 28.702ZM7.69727 28.036L9.5752 26.3065L7.69727 24.578V28.036ZM11.0811 26.3065L12.916 27.996V24.6181L11.0811 26.3065ZM10.3281 25.6132L12.1768 23.912H8.47949L10.3281 25.6132Z" fill="black"/>
<path fill-rule="evenodd" clip-rule="evenodd" d="M21.2842 22.8905C21.5658 22.8905 21.7949 23.1196 21.7949 23.4013V29.2128C21.7949 29.4944 21.5658 29.7235 21.2842 29.7235H15.0439C14.7623 29.7235 14.5332 29.4944 14.5332 29.2128V23.4013C14.5332 23.1196 14.7623 22.8905 15.0439 22.8905H21.2842ZM16.3359 28.702H20.0342L18.1846 26.9989L16.3359 28.702ZM15.5547 28.0351L17.4316 26.3056L15.5547 24.578V28.0351ZM18.9375 26.3056L20.7734 27.996V24.6171L18.9375 26.3056ZM18.1855 25.6132L20.0332 23.912H16.3369L18.1855 25.6132Z" fill="black"/>
<path fill-rule="evenodd" clip-rule="evenodd" d="M17.3096 15.7909C17.5912 15.7909 17.8203 16.02 17.8203 16.3017V22.1132C17.8203 22.3948 17.5912 22.6239 17.3096 22.6239H11.0693C10.7878 22.6238 10.5586 22.3947 10.5586 22.1132V16.3017C10.5586 16.0201 10.7878 15.791 11.0693 15.7909H17.3096ZM12.3623 21.6024H16.0596L14.2109 19.9003L12.3623 21.6024ZM11.5801 20.9364L13.458 19.2069L11.5801 17.4784V20.9364ZM14.9639 19.2069L16.7988 20.8964V17.5185L14.9639 19.2069ZM14.2109 18.5136L16.0596 16.8124H12.3623L14.2109 18.5136Z" fill="black"/>
<path d="M25.4502 13.7831H6.55078V12.7616H25.4502V13.7831Z" fill="black"/>
<path d="M25.4502 11.8104H6.55078V10.789H25.4502V11.8104Z" fill="black"/>
<path d="M25.4502 9.83779H6.55078V8.81631H25.4502V9.83779Z" fill="black"/>
<path fill-rule="evenodd" clip-rule="evenodd" d="M27.126 6.84853C27.4076 6.84878 27.6355 7.07831 27.6357 7.35927C27.6357 7.64043 27.4078 7.86976 27.126 7.87002H27.123V30.4931H29.1016V7.35927C29.1018 7.07781 29.3308 6.84853 29.6123 6.84853C29.8938 6.84853 30.1228 7.07781 30.123 7.35927V30.4931H30.416C30.6977 30.4931 30.9268 30.7221 30.9268 31.0038C30.9266 31.2853 30.6976 31.5136 30.416 31.5136H1.13672C0.855289 31.5134 0.626177 31.2852 0.625977 31.0038C0.625977 30.7222 0.855165 30.4932 1.13672 30.4931H1.86816V7.35927C1.8684 7.07781 2.09739 6.84853 2.37891 6.84853C2.66043 6.84853 2.88941 7.07781 2.88965 7.35927V30.4931H4.86816V7.86904C4.58931 7.86575 4.36328 7.6389 4.36328 7.35927C4.36352 7.07789 4.59262 6.84866 4.87402 6.84853H27.126ZM5.88965 30.4931H26.1016V7.87002H5.88965V30.4931Z" fill="black"/>
<path d="M15.8008 0.882712C15.9307 0.844852 16.0694 0.844791 16.1992 0.882712L30.918 5.18252C31.1879 5.26162 31.3444 5.54512 31.2656 5.81533C31.1865 6.08548 30.9026 6.23936 30.6328 6.16103L16.001 1.88564L1.36816 6.16103C1.09842 6.23979 0.814601 6.08596 0.735352 5.81533C0.656363 5.54496 0.811853 5.26156 1.08203 5.18252L15.8008 0.882712Z" fill="black"/>
</g>
<defs>
<clipPath id="clip0_174_30">
<rect width="32" height="32" fill="white"/>
</clipPath>
</defs>
</svg>
