<svg width="32" height="32" viewBox="0 0 32 32" fill="none" xmlns="http://www.w3.org/2000/svg">
<path d="M27.8154 0.489258C28.0972 0.489258 28.325 0.718318 28.3252 1V30.999L28.3154 31.1016C28.2688 31.3349 28.0627 31.5098 27.8154 31.5098H4C3.71839 31.5096 3.48945 31.2816 3.48926 31V1C3.48945 0.7184 3.71839 0.48939 4 0.489258H27.8154ZM4.50977 30.4893H11.4893V16.5098H4.50977V30.4893ZM12.5098 30.4893H19.4893V16.5098H12.5098V30.4893ZM20.5098 30.4893H27.3057V16.5098H20.5098V30.4893ZM10 26.4893C10.2816 26.4894 10.5096 26.7184 10.5098 27V29C10.5096 29.2816 10.2816 29.5096 10 29.5098C9.71839 29.5096 9.48945 29.2816 9.48926 29V27C9.48945 26.7184 9.71839 26.4894 10 26.4893ZM18 26.4893C18.2816 26.4894 18.5096 26.7184 18.5098 27V29C18.5096 29.2816 18.2816 29.5096 18 29.5098C17.7184 29.5096 17.4894 29.2816 17.4893 29V27C17.4894 26.7184 17.7184 26.4894 18 26.4893ZM26 26.4893C26.2816 26.4894 26.5096 26.7184 26.5098 27V29C26.5096 29.2816 26.2816 29.5096 26 29.5098C25.7184 29.5096 25.4894 29.2816 25.4893 29V27C25.4894 26.7184 25.7184 26.4894 26 26.4893ZM9.63965 23.4893C9.9212 23.4893 10.1492 23.7185 10.1494 24C10.1492 24.2815 9.9212 24.5098 9.63965 24.5098H6.35938C6.07806 24.5095 5.8498 24.2813 5.84961 24C5.8498 23.7187 6.07806 23.4895 6.35938 23.4893H9.63965ZM17.6396 23.4893C17.9212 23.4893 18.1492 23.7185 18.1494 24C18.1492 24.2815 17.9212 24.5098 17.6396 24.5098H14.3594C14.0781 24.5095 13.8498 24.2813 13.8496 24C13.8498 23.7187 14.0781 23.4895 14.3594 23.4893H17.6396ZM25.6396 23.4893C25.9212 23.4893 26.1492 23.7185 26.1494 24C26.1492 24.2815 25.9212 24.5098 25.6396 24.5098H22.3594C22.0781 24.5095 21.8498 24.2813 21.8496 24C21.8498 23.7187 22.0781 23.4895 22.3594 23.4893H25.6396ZM9.63965 21.4893C9.9212 21.4893 10.1492 21.7185 10.1494 22C10.1492 22.2815 9.9212 22.5098 9.63965 22.5098H6.35938C6.07806 22.5095 5.8498 22.2813 5.84961 22C5.8498 21.7187 6.07806 21.4895 6.35938 21.4893H9.63965ZM17.6396 21.4893C17.9212 21.4893 18.1492 21.7185 18.1494 22C18.1492 22.2815 17.9212 22.5098 17.6396 22.5098H14.3594C14.0781 22.5095 13.8498 22.2813 13.8496 22C13.8498 21.7187 14.0781 21.4895 14.3594 21.4893H17.6396ZM25.6396 21.4893C25.9212 21.4893 26.1492 21.7185 26.1494 22C26.1492 22.2815 25.9212 22.5098 25.6396 22.5098H22.3594C22.0781 22.5095 21.8498 22.2813 21.8496 22C21.8498 21.7187 22.0781 21.4895 22.3594 21.4893H25.6396ZM9.63965 19.4893C9.9212 19.4893 10.1492 19.7185 10.1494 20C10.1492 20.2815 9.9212 20.5098 9.63965 20.5098H6.35938C6.07806 20.5095 5.8498 20.2813 5.84961 20C5.8498 19.7187 6.07806 19.4895 6.35938 19.4893H9.63965ZM17.6396 19.4893C17.9212 19.4893 18.1492 19.7185 18.1494 20C18.1492 20.2815 17.9212 20.5098 17.6396 20.5098H14.3594C14.0781 20.5095 13.8498 20.2813 13.8496 20C13.8498 19.7187 14.0781 19.4895 14.3594 19.4893H17.6396ZM25.6396 19.4893C25.9212 19.4893 26.1492 19.7185 26.1494 20C26.1492 20.2815 25.9212 20.5098 25.6396 20.5098H22.3594C22.0781 20.5095 21.8498 20.2813 21.8496 20C21.8498 19.7187 22.0781 19.4895 22.3594 19.4893H25.6396ZM4.50977 15.4893H11.4893V1.50977H4.50977V15.4893ZM12.5098 15.4893H19.4893V1.50977H12.5098V15.4893ZM20.5098 15.4893H27.3057V1.50977H20.5098V15.4893ZM10 11.4893C10.2816 11.4894 10.5096 11.7184 10.5098 12V14C10.5096 14.2816 10.2816 14.5096 10 14.5098C9.71839 14.5096 9.48945 14.2816 9.48926 14V12C9.48945 11.7184 9.71839 11.4894 10 11.4893ZM18 11.4893C18.2816 11.4894 18.5096 11.7184 18.5098 12V14C18.5096 14.2816 18.2816 14.5096 18 14.5098C17.7184 14.5096 17.4894 14.2816 17.4893 14V12C17.4894 11.7184 17.7184 11.4894 18 11.4893ZM26 11.4893C26.2816 11.4894 26.5096 11.7184 26.5098 12V14C26.5096 14.2816 26.2816 14.5096 26 14.5098C25.7184 14.5096 25.4894 14.2816 25.4893 14V12C25.4894 11.7184 25.7184 11.4894 26 11.4893ZM9.63965 8.48926C9.9212 8.48926 10.1492 8.7185 10.1494 9C10.1492 9.2815 9.9212 9.50977 9.63965 9.50977H6.35938C6.07807 9.50949 5.8498 9.28133 5.84961 9C5.8498 8.71867 6.07806 8.48954 6.35938 8.48926H9.63965ZM17.6396 8.48926C17.9212 8.48926 18.1492 8.7185 18.1494 9C18.1492 9.2815 17.9212 9.50977 17.6396 9.50977H14.3594C14.0781 9.50949 13.8498 9.28133 13.8496 9C13.8498 8.71867 14.0781 8.48954 14.3594 8.48926H17.6396ZM25.6396 8.48926C25.9212 8.48926 26.1492 8.7185 26.1494 9C26.1492 9.2815 25.9212 9.50977 25.6396 9.50977H22.3594C22.0781 9.50949 21.8498 9.28133 21.8496 9C21.8498 8.71867 22.0781 8.48954 22.3594 8.48926H25.6396ZM9.63965 6.48926C9.9212 6.48926 10.1492 6.7185 10.1494 7C10.1492 7.2815 9.9212 7.50977 9.63965 7.50977H6.35938C6.07807 7.50949 5.8498 7.28133 5.84961 7C5.8498 6.71867 6.07806 6.48954 6.35938 6.48926H9.63965ZM17.6396 6.48926C17.9212 6.48926 18.1492 6.7185 18.1494 7C18.1492 7.2815 17.9212 7.50977 17.6396 7.50977H14.3594C14.0781 7.50949 13.8498 7.28133 13.8496 7C13.8498 6.71867 14.0781 6.48954 14.3594 6.48926H17.6396ZM25.6396 6.48926C25.9212 6.48926 26.1492 6.7185 26.1494 7C26.1492 7.2815 25.9212 7.50977 25.6396 7.50977H22.3594C22.0781 7.50949 21.8498 7.28133 21.8496 7C21.8498 6.71867 22.0781 6.48954 22.3594 6.48926H25.6396ZM9.63965 4.48926C9.9212 4.48926 10.1492 4.7185 10.1494 5C10.1492 5.2815 9.9212 5.50977 9.63965 5.50977H6.35938C6.07807 5.50949 5.8498 5.28133 5.84961 5C5.8498 4.71867 6.07806 4.48954 6.35938 4.48926H9.63965ZM17.6396 4.48926C17.9212 4.48926 18.1492 4.7185 18.1494 5C18.1492 5.2815 17.9212 5.50977 17.6396 5.50977H14.3594C14.0781 5.50949 13.8498 5.28133 13.8496 5C13.8498 4.71867 14.0781 4.48954 14.3594 4.48926H17.6396ZM25.6396 4.48926C25.9212 4.48926 26.1492 4.7185 26.1494 5C26.1492 5.2815 25.9212 5.50977 25.6396 5.50977H22.3594C22.0781 5.50949 21.8498 5.28133 21.8496 5C21.8498 4.71867 22.0781 4.48954 22.3594 4.48926H25.6396Z" fill="black"/>
</svg>
