<svg width="32" height="32" viewBox="0 0 32 32" fill="none" xmlns="http://www.w3.org/2000/svg">
<g clip-path="url(#clip0_120_790)">
<path fill-rule="evenodd" clip-rule="evenodd" d="M11 18.4893C11.2816 18.4894 11.5096 18.7184 11.5098 19V30.4893H28.4893V19C28.4894 18.7184 28.7184 18.4894 29 18.4893C29.2816 18.4894 29.5096 18.7184 29.5098 19V30.4893H30.6387C30.9204 30.4893 31.1491 30.7183 31.1494 31C31.1494 31.2819 30.9206 31.5107 30.6387 31.5107H1.36035C1.07852 31.5106 0.849609 31.2819 0.849609 31C0.849879 30.7184 1.07869 30.4894 1.36035 30.4893H2.48926V19C2.48945 18.7184 2.71839 18.4894 3 18.4893C3.28156 18.4894 3.50958 18.7184 3.50977 19V30.4893H5.48926V19C5.48945 18.7184 5.71839 18.4894 6 18.4893H11ZM6.50879 30.4883H10.4893V25.5098H6.50879V30.4883ZM6.50879 24.4883H10.4893V19.5098H6.50879V24.4883Z" fill="black"/>
<path fill-rule="evenodd" clip-rule="evenodd" d="M26 18.4893C26.2816 18.4894 26.5096 18.7184 26.5098 19V28C26.5096 28.2816 26.2816 28.5096 26 28.5098H16C15.7184 28.5096 15.4894 28.2816 15.4893 28V19C15.4894 18.7184 15.7184 18.4894 16 18.4893H26ZM16.5098 27.4883H18.2471C17.9095 26.9478 17.7119 26.3106 17.7119 25.6279C17.7119 24.0118 18.805 22.6484 20.291 22.2324C19.7898 21.4793 19.0312 21.0766 18.9971 21.0586L18.9775 21.0479L18.9609 21.0322L18.96 21.0312L18.8838 20.9541L18.9326 20.8574L19.2568 20.21L19.3232 20.0762L19.458 20.1436C19.5236 20.1764 20.3612 20.608 21.0059 21.4609C21.4245 20.6478 22.2723 20.089 23.249 20.0889H24.2549C24.5378 20.0892 24.7666 20.3192 24.7666 20.6016V21.6064C24.7666 22.3208 24.4652 22.9625 23.9873 23.4219C24.4851 24.0434 24.7666 24.8206 24.7666 25.627C24.7666 26.3099 24.5704 26.9476 24.2334 27.4883H25.4893V19.5098H16.5098V27.4883ZM20.6865 23.1885C19.5713 23.4412 18.7363 24.4378 18.7363 25.6279L18.7402 25.7715C18.779 26.4527 19.0938 27.0593 19.5723 27.4883H22.9062C23.3846 27.0593 23.6995 26.4527 23.7383 25.7715L23.7422 25.6279C23.7422 25.0156 23.5147 24.4277 23.1133 23.9727C22.842 24.0723 22.5493 24.1309 22.2441 24.1309H21.2393C20.9564 24.1309 20.7266 23.901 20.7266 23.6182C20.7265 23.4678 20.7118 23.325 20.6865 23.1885ZM23.249 21.1143C22.4234 21.1144 21.7511 21.7858 21.751 22.6123V23.1055H22.2441C23.0182 23.1055 23.6573 22.5156 23.7344 21.7607L23.7422 21.6074V21.1143H23.249Z" fill="black"/>
<path fill-rule="evenodd" clip-rule="evenodd" d="M31 0.489258C31.2816 0.489447 31.5096 0.718435 31.5098 1V11C31.5096 11.2816 31.2816 11.5096 31 11.5098H29.5098V16C29.5096 16.2816 29.2816 16.5096 29 16.5098H28C27.179 16.5097 26.4559 16.1099 25.999 15.501C25.5422 16.1095 24.8206 16.5097 24 16.5098C23.179 16.5097 22.4559 16.1099 21.999 15.501C21.5422 16.1095 20.8206 16.5097 20 16.5098C19.179 16.5097 18.4559 16.1099 17.999 15.501C17.5422 16.1095 16.8206 16.5097 16 16.5098C15.179 16.5097 14.4559 16.1097 13.999 15.5C13.5422 16.1094 12.8207 16.5097 12 16.5098C11.179 16.5097 10.4559 16.1097 9.99902 15.5C9.54216 16.1094 8.8207 16.5097 8 16.5098C7.17899 16.5097 6.45588 16.1097 5.99902 15.5C5.54216 16.1094 4.8207 16.5097 4 16.5098H3C2.71839 16.5096 2.48945 16.2816 2.48926 16V11.5098H1C0.718387 11.5096 0.489447 11.2816 0.489258 11V1C0.489448 0.718399 0.718386 0.48939 1 0.489258H31ZM3.50977 15.4893H4C4.82088 15.4891 5.48907 14.8209 5.48926 14C5.48945 13.7184 5.71839 13.4894 6 13.4893C6.28156 13.4894 6.50958 13.7184 6.50977 14C6.50996 14.8209 7.17907 15.4891 8 15.4893C8.82088 15.4891 9.48907 14.8209 9.48926 14C9.48945 13.7184 9.71839 13.4894 10 13.4893C10.2816 13.4894 10.5096 13.7184 10.5098 14C10.51 14.8209 11.1791 15.4891 12 15.4893C12.8209 15.4891 13.4891 14.8209 13.4893 14C13.4894 13.7184 13.7184 13.4894 14 13.4893C14.2816 13.4894 14.5096 13.7184 14.5098 14C14.51 14.821 15.1781 15.4891 16 15.4893C16.8218 15.4891 17.4891 14.8209 17.4893 14C17.4894 13.7184 17.7184 13.4894 18 13.4893C18.2816 13.4894 18.5096 13.7184 18.5098 14C18.51 14.821 19.1781 15.4891 20 15.4893C20.8218 15.4891 21.4891 14.8209 21.4893 14C21.4894 13.7184 21.7184 13.4894 22 13.4893C22.2816 13.4894 22.5096 13.7184 22.5098 14C22.51 14.821 23.1781 15.4891 24 15.4893C24.8218 15.4891 25.4891 14.8209 25.4893 14C25.4894 13.7184 25.7184 13.4894 26 13.4893C26.2816 13.4894 26.5096 13.7184 26.5098 14C26.51 14.8209 27.1791 15.4891 28 15.4893H28.4893V11.5098H3.50977V15.4893ZM1.50977 10.4893H2.48926V6C2.48945 5.7184 2.71839 5.48939 3 5.48926H29C29.2816 5.48945 29.5096 5.71843 29.5098 6V10.4893H30.4893V1.50977H1.50977V10.4893ZM3.50977 10.4893H28.4893V6.50977H3.50977V10.4893Z" fill="black"/>
</g>
<defs>
<clipPath id="clip0_120_790">
<rect width="32" height="32" fill="white"/>
</clipPath>
</defs>
</svg>
