<svg width="32" height="32" viewBox="0 0 32 32" fill="none" xmlns="http://www.w3.org/2000/svg">
<path d="M25.6396 27.4902C25.9213 27.4902 26.1504 27.7183 26.1504 28C26.1504 28.2817 25.9213 28.5098 25.6396 28.5098H6.36035C6.07869 28.5098 5.84961 28.2817 5.84961 28C5.84961 27.7183 6.07869 27.4902 6.36035 27.4902H25.6396Z" fill="black"/>
<path fill-rule="evenodd" clip-rule="evenodd" d="M23 13.4902C23.2818 13.4902 23.5098 13.7182 23.5098 14V15.4902H25C26.3849 15.4902 27.5098 16.6162 27.5098 18V20C27.5098 21.3849 26.3838 22.5098 25 22.5098H23.4805C23.226 24.7581 21.3147 26.5098 19 26.5098H13C10.5132 26.5098 8.49023 24.4868 8.49023 22V14C8.49023 13.7182 8.71816 13.4902 9 13.4902H23ZM9.50977 22C9.50977 23.9242 11.0758 25.4902 13 25.4902H19C20.9242 25.4902 22.4902 23.9242 22.4902 22V14.5098H9.50977V22ZM23.5098 21.4902H25C25.8212 21.4902 26.4902 20.8221 26.4902 20V18C26.4902 17.1788 25.8221 16.5098 25 16.5098H23.5098V21.4902Z" fill="black"/>
<path d="M12.0771 4.84961C12.3162 4.84969 12.5098 5.04411 12.5098 5.2832C12.5098 5.67379 12.6028 6.0649 12.7773 6.41406C13.2743 7.40818 13.2743 8.59279 12.7773 9.58691C12.6028 9.93607 12.5098 10.3272 12.5098 10.7178V11.6396C12.5098 11.9213 12.2817 12.1504 12 12.1504C11.7183 12.1504 11.4902 11.9213 11.4902 11.6396V10.7168C11.4903 10.1686 11.6199 9.62063 11.8652 9.12988C12.219 8.42222 12.219 7.57681 11.8652 6.86914C11.6199 6.3784 11.4903 5.83046 11.4902 5.28223C11.4902 5.04368 11.6833 4.84968 11.9219 4.84961H12.0771Z" fill="black"/>
<path d="M20.0781 4.84961C20.3172 4.84968 20.5107 5.04411 20.5107 5.2832C20.5108 5.67389 20.6037 6.0659 20.7773 6.41406L20.8643 6.60254C21.272 7.5555 21.2433 8.65485 20.7773 9.58691C20.603 9.93469 20.5108 10.3269 20.5107 10.7178V11.6406C20.5103 11.922 20.2815 12.1504 20 12.1504C19.7183 12.1503 19.4902 11.9213 19.4902 11.6396V10.7168C19.4903 10.1686 19.6199 9.61963 19.8643 9.12988C20.218 8.42222 20.218 7.5768 19.8643 6.86914C19.6199 6.3794 19.4903 5.83039 19.4902 5.28223C19.4902 5.04368 19.6833 4.84968 19.9219 4.84961H20.0781Z" fill="black"/>
<path d="M16.0771 3.84961C16.3162 3.84969 16.5098 4.04411 16.5098 4.2832C16.5098 4.67379 16.6028 5.0649 16.7773 5.41406C17.2753 6.40818 17.2753 7.59279 16.7773 8.58691C16.6028 8.93607 16.5098 9.32719 16.5098 9.71777V10.6396C16.5098 10.9213 16.2817 11.1504 16 11.1504C15.7183 11.1504 15.4902 10.9213 15.4902 10.6396V9.7168C15.4903 9.16856 15.6199 8.62063 15.8652 8.12988C16.219 7.42222 16.219 6.57681 15.8652 5.86914C15.6199 5.3784 15.4903 4.83046 15.4902 4.28223C15.4902 4.04368 15.6833 3.84968 15.9219 3.84961H16.0771Z" fill="black"/>
</svg>
