<svg width="32" height="32" viewBox="0 0 32 32" fill="none" xmlns="http://www.w3.org/2000/svg">
<g clip-path="url(#clip0_120_656)">
<path fill-rule="evenodd" clip-rule="evenodd" d="M7.74121 25.3855C8.57371 25.3857 9.25059 26.0629 9.25098 26.8953C9.25098 27.7281 8.57394 28.4059 7.74121 28.4061C6.90837 28.4061 6.23145 27.7282 6.23145 26.8953C6.23183 26.0628 6.9086 25.3855 7.74121 25.3855ZM7.74121 26.4061C7.47129 26.4061 7.25136 26.6255 7.25098 26.8953C7.25098 27.1655 7.47105 27.3855 7.74121 27.3855C8.01126 27.3854 8.23145 27.1654 8.23145 26.8953C8.23106 26.6256 8.01102 26.4062 7.74121 26.4061Z" fill="black"/>
<path fill-rule="evenodd" clip-rule="evenodd" d="M13.7412 25.3855C14.5737 25.3857 15.2506 26.0629 15.251 26.8953C15.251 27.7281 14.5739 28.4059 13.7412 28.4061C12.9084 28.4061 12.2314 27.7282 12.2314 26.8953C12.2318 26.0628 12.9086 25.3855 13.7412 25.3855ZM13.7412 26.4061C13.4713 26.4061 13.2514 26.6255 13.251 26.8953C13.251 27.1655 13.4711 27.3855 13.7412 27.3855C14.0113 27.3854 14.2314 27.1654 14.2314 26.8953C14.2311 26.6256 14.011 26.4062 13.7412 26.4061Z" fill="black"/>
<path fill-rule="evenodd" clip-rule="evenodd" d="M10.7412 22.3855C11.5737 22.3857 12.2506 23.0629 12.251 23.8953C12.251 24.7281 11.5739 25.4059 10.7412 25.4061C9.90837 25.4061 9.23145 24.7282 9.23145 23.8953C9.23183 23.0628 9.9086 22.3855 10.7412 22.3855ZM10.7412 23.4061C10.4713 23.4061 10.2514 23.6255 10.251 23.8953C10.251 24.1655 10.4711 24.3855 10.7412 24.3855C11.0113 24.3854 11.2314 24.1654 11.2314 23.8953C11.2311 23.6256 11.011 23.4062 10.7412 23.4061Z" fill="black"/>
<path fill-rule="evenodd" clip-rule="evenodd" d="M7.74121 19.3855C8.57371 19.3857 9.25059 20.0629 9.25098 20.8953C9.25098 21.7281 8.57394 22.4059 7.74121 22.4061C6.90837 22.4061 6.23145 21.7282 6.23145 20.8953C6.23183 20.0628 6.9086 19.3855 7.74121 19.3855ZM7.74121 20.4061C7.47129 20.4061 7.25136 20.6255 7.25098 20.8953C7.25098 21.1655 7.47105 21.3855 7.74121 21.3855C8.01126 21.3854 8.23145 21.1654 8.23145 20.8953C8.23106 20.6256 8.01102 20.4062 7.74121 20.4061Z" fill="black"/>
<path fill-rule="evenodd" clip-rule="evenodd" d="M13.7412 17.3855C14.5737 17.3857 15.2506 18.0629 15.251 18.8953C15.251 19.7281 14.5739 20.4059 13.7412 20.4061C12.9084 20.4061 12.2314 19.7282 12.2314 18.8953C12.2318 18.0628 12.9086 17.3855 13.7412 17.3855ZM13.7412 18.4061C13.4713 18.4061 13.2514 18.6255 13.251 18.8953C13.251 19.1655 13.4711 19.3855 13.7412 19.3855C14.0113 19.3854 14.2314 19.1654 14.2314 18.8953C14.2311 18.6256 14.011 18.4062 13.7412 18.4061Z" fill="black"/>
<path fill-rule="evenodd" clip-rule="evenodd" d="M16.1309 1.0252C16.2419 0.76677 16.5411 0.647038 16.7998 0.757619C17.0586 0.868364 17.1788 1.16777 17.0684 1.42656L14.0859 8.38555H20.3809C20.6622 8.38568 20.8912 8.61405 20.8916 8.89531C20.8916 9.1769 20.6624 9.40592 20.3809 9.40606H19.2051L17.249 29.9432C17.2437 30.0007 17.2276 30.0551 17.2051 30.1053H21.248L19.377 25.1219C19.3182 24.9655 19.3395 24.7897 19.4346 24.6522C19.5297 24.515 19.687 24.4314 19.8545 24.4314H20.0156C19.899 24.1989 19.8039 23.9311 19.7588 23.6346C19.6552 22.9515 19.816 22.1595 20.4639 21.3797C20.6337 21.1753 20.8106 21.0082 20.9912 20.8699C20.5876 20.5686 20.2233 20.1424 20.0244 19.5936C19.7013 18.7008 19.8543 17.6034 20.7432 16.3943C21.1967 15.7776 21.692 15.3529 22.1973 15.0779C22.1788 14.9773 22.164 14.8761 22.1523 14.7752C22.0689 14.0542 22.1565 13.1184 22.9736 12.6414C23.2165 12.5 23.5288 12.5811 23.6709 12.824C23.8122 13.0667 23.7308 13.379 23.4883 13.5213C23.2296 13.6724 23.093 14.0265 23.166 14.658C23.1685 14.6798 23.1718 14.7015 23.1748 14.7234C23.6117 14.6379 24.0418 14.6436 24.4463 14.7156C25.0156 14.817 25.5201 15.0461 25.9092 15.3045C26.2514 15.5318 26.5567 15.8188 26.7148 16.1131C27.1361 16.4576 27.6775 16.9235 28.126 17.4793C28.6103 18.0797 29.033 18.8394 29.0332 19.7127C29.0332 19.7948 29.0291 19.8752 29.0254 19.9539C29.9998 20.9733 30.3406 22.023 30.3232 22.9529C30.3124 23.5286 30.1629 24.0412 29.9648 24.4559C30.0726 24.4895 30.1686 24.5572 30.2344 24.6522C30.3174 24.7725 30.3444 24.9221 30.3105 25.0623L30.292 25.1219L28.4209 30.1043L30.416 30.1053C30.6976 30.1053 30.9266 30.3345 30.9268 30.616C30.9266 30.8975 30.6976 31.1258 30.416 31.1258H1.13672C0.855282 31.1257 0.626166 30.8974 0.625977 30.616C0.626168 30.3346 0.855282 30.1054 1.13672 30.1053H4.27734C4.25463 30.055 4.23871 30.0007 4.2334 29.9432L2.27734 9.40606H1.10156C0.819897 9.40606 0.59082 9.17698 0.59082 8.89531C0.591201 8.61397 0.820132 8.38555 1.10156 8.38555H12.9766L16.1309 1.0252ZM22.0771 29.4148H27.5918L29.0791 25.4529H20.5898L22.0771 29.4148ZM5.20508 29.3855H16.2773L17.6084 15.4061H3.87305L5.20508 29.3855ZM28.7559 21.2313C28.6853 21.4005 28.6051 21.5594 28.5098 21.7059C28.1759 22.2187 27.7212 22.5576 27.2549 22.8035C26.7964 23.0452 26.297 23.2112 25.875 23.3572C25.4311 23.5109 25.0801 23.6402 24.8174 23.8104C24.8154 23.8117 24.8014 23.8206 24.79 23.827C24.5317 23.972 24.1951 24.1601 23.9404 24.3563C23.9067 24.3823 23.8781 24.4085 23.8516 24.4314H28.791C29.0262 24.1336 29.2911 23.5942 29.3037 22.9344C29.3129 22.4415 29.1815 21.857 28.7559 21.2313ZM27.1084 17.9109C27.0666 18.6137 26.7716 19.3644 26.0498 20.077C25.1133 21.0013 24.0798 21.086 23.2549 21.1766C22.4251 21.2677 21.8046 21.3623 21.248 22.032C20.7818 22.5933 20.7089 23.0935 20.7676 23.4813C20.8181 23.8138 20.9722 24.0919 21.1172 24.2723C21.5089 24.3409 22.0139 24.3987 22.417 24.3992C22.5274 24.3993 22.6217 24.392 22.6982 24.3846C22.7268 24.2328 22.7944 24.1031 22.8604 24.0066C22.9832 23.8272 23.1567 23.6724 23.3174 23.5486C23.6425 23.2982 24.0503 23.072 24.29 22.9373C24.2928 22.9358 24.296 22.9348 24.2988 22.9334C24.6761 22.6971 25.1307 22.5357 25.542 22.3934C25.9876 22.2391 26.4033 22.0988 26.7783 21.9012C27.1451 21.7078 27.4439 21.4731 27.6543 21.1502C27.8631 20.8293 28.0126 20.3787 28.0127 19.7127C28.0125 19.1724 27.7484 18.6361 27.332 18.1199C27.2607 18.0316 27.1854 17.9453 27.1084 17.8611C27.1078 17.8775 27.1094 17.8944 27.1084 17.9109ZM24.2676 15.7205C24.0037 15.6736 23.7201 15.6637 23.4268 15.7137C23.4592 15.8041 23.4932 15.8914 23.5273 15.9744L23.6865 16.326C23.8226 16.3131 23.9632 16.3543 24.0732 16.452L24.1426 16.5281C24.2847 16.7181 24.2788 16.9884 24.1152 17.1727C23.796 17.5315 23.3844 17.5997 23.0518 17.5525C22.7398 17.5082 22.4701 17.3638 22.3076 17.242C22.0827 17.0731 22.0374 16.7535 22.2061 16.5281L22.2754 16.452C22.3589 16.3778 22.4631 16.3353 22.5703 16.326C22.5404 16.2524 22.5094 16.1764 22.4805 16.0975C22.1737 16.3014 21.8641 16.5927 21.5654 16.9988C20.8243 18.0069 20.8033 18.7505 20.9824 19.2459C21.1728 19.7716 21.6333 20.1468 22.0625 20.3113L22.1064 20.3338C22.4636 20.2393 22.8159 20.1999 23.1436 20.1639C23.9892 20.071 24.677 19.998 25.333 19.3504C25.8852 18.8052 26.0647 18.2891 26.0908 17.8514C26.1176 17.3987 25.9828 16.9782 25.8252 16.6365C25.8152 16.615 25.8075 16.5924 25.8008 16.5701C25.7791 16.5374 25.7433 16.4895 25.6865 16.4314C25.6067 16.3497 25.4937 16.2531 25.3447 16.1541C25.094 15.9876 24.7758 15.8373 24.4219 15.7527L24.2676 15.7205ZM3.77637 14.3855H10.4053L12.5391 9.40606H3.30176L3.77637 14.3855ZM11.5146 14.3855H17.707L18.1816 9.40606H13.6494L11.5146 14.3855Z" fill="black"/>
</g>
<defs>
<clipPath id="clip0_120_656">
<rect width="32" height="32" fill="white"/>
</clipPath>
</defs>
</svg>
