<svg width="32" height="32" viewBox="0 0 32 32" fill="none" xmlns="http://www.w3.org/2000/svg">
<g clip-path="url(#clip0_120_787)">
<path d="M5 22.8496C5.2813 22.8498 5.50943 23.0781 5.50977 23.3594V24.6396C5.50977 24.9212 5.2815 25.1492 5 25.1494C4.71845 25.1493 4.48926 24.9212 4.48926 24.6396V23.3594C4.4896 23.0781 4.71865 22.8497 5 22.8496Z" fill="black"/>
<path d="M21.5 22.8496C21.7819 22.8496 22.0107 23.0785 22.0107 23.3604L22.0098 24.6396C22.0096 24.9212 21.7815 25.1493 21.5 25.1494C21.2184 25.1493 20.9893 24.9212 20.9893 24.6396V23.3604C20.9894 23.0787 21.2184 22.8498 21.5 22.8496Z" fill="black"/>
<path d="M27 22.8496C27.2819 22.8496 27.5107 23.0785 27.5107 23.3604L27.5098 24.6396C27.5096 24.9212 27.2815 25.1493 27 25.1494C26.7184 25.1493 26.4893 24.9212 26.4893 24.6396V23.3604C26.4894 23.0787 26.7184 22.8498 27 22.8496Z" fill="black"/>
<path d="M5 18.8496C5.2813 18.8498 5.50943 19.0781 5.50977 19.3594V20.6396C5.50977 20.9212 5.2815 21.1492 5 21.1494C4.71845 21.1493 4.48926 20.9212 4.48926 20.6396V19.3594C4.4896 19.0781 4.71865 18.8497 5 18.8496Z" fill="black"/>
<path d="M10.5 18.8496C10.7813 18.8498 11.0094 19.0781 11.0098 19.3594V20.6396C11.0098 20.9212 10.7815 21.1492 10.5 21.1494C10.2184 21.1493 9.98926 20.9212 9.98926 20.6396V19.3594C9.9896 19.0781 10.2187 18.8497 10.5 18.8496Z" fill="black"/>
<path d="M16 18.8496C16.2813 18.8498 16.5094 19.0781 16.5098 19.3594V20.6396C16.5098 20.9212 16.2815 21.1492 16 21.1494C15.7184 21.1493 15.4893 20.9212 15.4893 20.6396V19.3594C15.4896 19.0781 15.7187 18.8497 16 18.8496Z" fill="black"/>
<path d="M21.5 18.8496C21.7819 18.8496 22.0107 19.0785 22.0107 19.3604L22.0098 20.6396C22.0096 20.9212 21.7815 21.1493 21.5 21.1494C21.2184 21.1493 20.9893 20.9212 20.9893 20.6396V19.3604C20.9894 19.0787 21.2184 18.8498 21.5 18.8496Z" fill="black"/>
<path d="M27 18.8496C27.2819 18.8496 27.5107 19.0785 27.5107 19.3604L27.5098 20.6396C27.5096 20.9212 27.2815 21.1493 27 21.1494C26.7184 21.1493 26.4893 20.9212 26.4893 20.6396V19.3604C26.4894 19.0787 26.7184 18.8498 27 18.8496Z" fill="black"/>
<path d="M5 14.8496C5.2813 14.8498 5.50943 15.0781 5.50977 15.3594V16.6396C5.50977 16.9212 5.2815 17.1492 5 17.1494C4.71845 17.1493 4.48926 16.9212 4.48926 16.6396V15.3594C4.4896 15.0781 4.71865 14.8497 5 14.8496Z" fill="black"/>
<path d="M10.5 14.8496C10.7813 14.8498 11.0094 15.0781 11.0098 15.3594V16.6396C11.0098 16.9212 10.7815 17.1492 10.5 17.1494C10.2184 17.1493 9.98926 16.9212 9.98926 16.6396V15.3594C9.98959 15.0781 10.2187 14.8497 10.5 14.8496Z" fill="black"/>
<path d="M16 14.8496C16.2813 14.8498 16.5094 15.0781 16.5098 15.3594V16.6396C16.5098 16.9212 16.2815 17.1492 16 17.1494C15.7184 17.1493 15.4893 16.9212 15.4893 16.6396V15.3594C15.4896 15.0781 15.7187 14.8497 16 14.8496Z" fill="black"/>
<path d="M21.5 14.8496C21.7819 14.8496 22.0107 15.0785 22.0107 15.3604L22.0098 16.6396C22.0096 16.9212 21.7815 17.1493 21.5 17.1494C21.2184 17.1493 20.9893 16.9212 20.9893 16.6396V15.3604C20.9894 15.0787 21.2184 14.8498 21.5 14.8496Z" fill="black"/>
<path d="M27 14.8496C27.2819 14.8496 27.5107 15.0785 27.5107 15.3604L27.5098 16.6396C27.5096 16.9212 27.2815 17.1493 27 17.1494C26.7184 17.1493 26.4893 16.9212 26.4893 16.6396V15.3604C26.4894 15.0787 26.7184 14.8498 27 14.8496Z" fill="black"/>
<path d="M5 10.8496C5.2813 10.8498 5.50943 11.0781 5.50977 11.3594V12.6396C5.50977 12.9212 5.2815 13.1492 5 13.1494C4.71845 13.1493 4.48926 12.9212 4.48926 12.6396V11.3594C4.4896 11.0781 4.71865 10.8497 5 10.8496Z" fill="black"/>
<path d="M10.5 10.8496C10.7813 10.8498 11.0094 11.0781 11.0098 11.3594V12.6396C11.0098 12.9212 10.7815 13.1492 10.5 13.1494C10.2184 13.1493 9.98926 12.9212 9.98926 12.6396V11.3594C9.98959 11.0781 10.2187 10.8497 10.5 10.8496Z" fill="black"/>
<path d="M16 10.8496C16.2813 10.8498 16.5094 11.0781 16.5098 11.3594V12.6396C16.5098 12.9212 16.2815 13.1492 16 13.1494C15.7184 13.1493 15.4893 12.9212 15.4893 12.6396V11.3594C15.4896 11.0781 15.7187 10.8497 16 10.8496Z" fill="black"/>
<path d="M21.5 10.8496C21.7819 10.8496 22.0107 11.0785 22.0107 11.3604L22.0098 12.6396C22.0096 12.9212 21.7815 13.1493 21.5 13.1494C21.2184 13.1493 20.9893 12.9212 20.9893 12.6396V11.3604C20.9894 11.0787 21.2184 10.8498 21.5 10.8496Z" fill="black"/>
<path d="M27 10.8496C27.2819 10.8496 27.5107 11.0785 27.5107 11.3604L27.5098 12.6396C27.5096 12.9212 27.2815 13.1493 27 13.1494C26.7184 13.1493 26.4893 12.9212 26.4893 12.6396V11.3604C26.4894 11.0787 26.7184 10.8498 27 10.8496Z" fill="black"/>
<path d="M27 2.34961C27.2818 2.34961 27.5106 2.57857 27.5107 2.86035V3.98926H28.6396C28.9212 3.98926 29.1492 4.2185 29.1494 4.5C29.1492 4.7815 28.9212 5.00977 28.6396 5.00977H27.5098V6.13965C27.5098 6.4212 27.2815 6.64922 27 6.64941C26.7184 6.64928 26.4893 6.42123 26.4893 6.13965V5.00977H25.3594C25.0781 5.00949 24.8498 4.78133 24.8496 4.5C24.8498 4.21867 25.0781 3.98954 25.3594 3.98926H26.4893V2.86035C26.4894 2.5787 26.7184 2.34982 27 2.34961Z" fill="black"/>
<path fill-rule="evenodd" clip-rule="evenodd" d="M31 0.489258C31.2816 0.489447 31.5096 0.718435 31.5098 1V31C31.5096 31.2816 31.2816 31.5096 31 31.5098H1C0.718386 31.5096 0.489447 31.2816 0.489258 31V8C0.489448 7.7184 0.718386 7.48939 1 7.48926H22.4893V1C22.4894 0.718399 22.7184 0.48939 23 0.489258H31ZM23.5098 8C23.5096 8.28156 23.2816 8.50958 23 8.50977H1.50977V30.4893H9.98926V24C9.98945 23.7184 10.2184 23.4894 10.5 23.4893H16C16.2816 23.4894 16.5096 23.7184 16.5098 24V30.4893H30.4893V1.50977H23.5098V8ZM11.0098 30.4893H15.4893V24.5098H11.0098V30.4893Z" fill="black"/>
</g>
<defs>
<clipPath id="clip0_120_787">
<rect width="32" height="32" fill="white"/>
</clipPath>
</defs>
</svg>
