<svg width="32" height="32" viewBox="0 0 32 32" fill="none" xmlns="http://www.w3.org/2000/svg">
<g clip-path="url(#clip0_120_784)">
<path d="M6 17.8496C6.2813 17.8498 6.50943 18.0781 6.50977 18.3594V18.6396C6.50977 18.9212 6.2815 19.1492 6 19.1494C5.71845 19.1493 5.48926 18.9212 5.48926 18.6396V18.3594C5.4896 18.0781 5.71865 17.8497 6 17.8496Z" fill="black"/>
<path d="M9 17.8496C9.2813 17.8498 9.50943 18.0781 9.50977 18.3594V18.6396C9.50977 18.9212 9.2815 19.1492 9 19.1494C8.71845 19.1493 8.48926 18.9212 8.48926 18.6396V18.3594C8.4896 18.0781 8.71865 17.8497 9 17.8496Z" fill="black"/>
<path d="M12 17.8496C12.2813 17.8498 12.5094 18.0781 12.5098 18.3594V18.6396C12.5098 18.9212 12.2815 19.1492 12 19.1494C11.7184 19.1493 11.4893 18.9212 11.4893 18.6396V18.3594C11.4896 18.0781 11.7187 17.8497 12 17.8496Z" fill="black"/>
<path d="M15 17.8496C15.2813 17.8498 15.5094 18.0781 15.5098 18.3594V18.6396C15.5098 18.9212 15.2815 19.1492 15 19.1494C14.7184 19.1493 14.4893 18.9212 14.4893 18.6396V18.3594C14.4896 18.0781 14.7187 17.8497 15 17.8496Z" fill="black"/>
<path d="M27 18.8496C27.2819 18.8496 27.5108 19.0785 27.5107 19.3604L27.5098 19.6396C27.5095 19.9212 27.2815 20.1493 27 20.1494C26.7184 20.1493 26.4894 19.9212 26.4893 19.6396V19.3604C26.4894 19.0788 26.7184 18.8497 27 18.8496Z" fill="black"/>
<path fill-rule="evenodd" clip-rule="evenodd" d="M22 0.489258C22.2816 0.489447 22.5096 0.718435 22.5098 1V5C22.5096 5.28156 22.2816 5.50958 22 5.50977H19.5098V6.48926H24C24.2816 6.48945 24.5096 6.71843 24.5098 7V18.7686L26.6387 16.6396C26.8381 16.4403 27.1608 16.4405 27.3604 16.6396L31.1055 20.3848C31.3048 20.5841 31.3047 20.9071 31.1055 21.1064C30.9437 21.2681 30.7022 21.296 30.5098 21.1953V24.4902H30.6387C30.9204 24.4902 31.1491 24.7193 31.1494 25.001C31.1494 25.2829 30.9206 25.5117 30.6387 25.5117H14C11.091 25.51 8.70198 27.7852 8.52051 30.6494C8.50317 30.9204 8.28377 31.1492 8 31.1494C7.72094 31.1493 7.48402 30.9216 7.5 30.6318C7.56412 29.4873 7.92766 28.4221 8.50977 27.5098H1.35938C1.07806 27.5095 0.849799 27.2813 0.849609 27C0.849799 26.7187 1.07806 26.4895 1.35938 26.4893H9.31152C9.66886 26.1182 10.0689 25.7889 10.5049 25.5107H1C0.718378 25.5106 0.489435 25.2826 0.489258 25.001V10C0.489448 9.7184 0.718386 9.48939 1 9.48926H4C4.28156 9.48945 4.50958 9.71844 4.50977 10V14.5801L7.72949 12.5674C7.88755 12.4671 8.08544 12.4639 8.24707 12.5537C8.40885 12.6439 8.50964 12.8144 8.50977 13V15.0986L12.7373 12.5625L12.7979 12.5312C12.923 12.4772 13.0639 12.4766 13.1885 12.5254L13.249 12.5537L13.251 12.5547C13.4108 12.6453 13.5096 12.8161 13.5098 13V14.9785L16.6934 12.5918L16.7529 12.5527C16.8978 12.4722 17.0762 12.4673 17.2285 12.5439C17.4013 12.6304 17.5096 12.8074 17.5098 13V24.4893H23.4883V21.1953C23.2959 21.2956 23.0542 21.267 22.8926 21.1055C22.6936 20.9061 22.6934 20.583 22.8926 20.3838L23.4883 19.7871V7.50977H14.5088V10.6396C14.5088 10.9212 14.2805 11.1492 13.999 11.1494C13.7175 11.1493 13.4883 10.9212 13.4883 10.6396V7C13.4885 6.7184 13.7174 6.48939 13.999 6.48926H18.4883V5.50977H16C15.7184 5.50963 15.4894 5.2816 15.4893 5V1C15.4894 0.7184 15.7184 0.48939 16 0.489258H22ZM1.50977 24.4893H3.48926V13.5098H1.50977V24.4893ZM8.26172 16.4375C8.10311 16.533 7.90843 16.5315 7.75098 16.4453L7.74902 16.4443C7.58932 16.3537 7.48938 16.1838 7.48926 16V13.9189L4.50977 15.7822V24.4893H8.48926V21C8.48945 20.7184 8.71839 20.4894 9 20.4893H12C12.2816 20.4894 12.5096 20.7184 12.5098 21V24.4893H16.4893V14.0195L13.3057 16.4072L13.3047 16.4082C13.1719 16.5065 12.9972 16.5368 12.8379 16.4834L12.7715 16.4561C12.5989 16.3696 12.4894 16.1925 12.4893 16V13.9004L8.26172 16.4375ZM9.50977 24.4893H11.4893V21.5098H9.50977V24.4893ZM24.5098 20.2109V24.4893H25.4883V22C25.4885 21.7184 25.7174 21.4894 25.999 21.4893H27.999C28.2806 21.4895 28.5086 21.7184 28.5088 22L28.5098 24.4893H29.4883V20.2109L26.999 17.7197L24.5098 20.2109ZM26.5098 24.4893H27.4883V22.5098H26.5098V24.4893ZM1.50977 12.4893H3.48926V10.5098H1.50977V12.4893ZM16.5098 4.48926H18.4893V3.50977H16.5098V4.48926ZM19.5098 4.48926H21.4883V3.50977H19.5098V4.48926ZM16.5098 2.48926H18.4893V1.50977H16.5098V2.48926ZM19.5098 2.48926H21.4883V1.50977H19.5098V2.48926Z" fill="black"/>
<path d="M30.6387 26.4893C30.9204 26.4893 31.1491 26.7183 31.1494 27C31.1494 27.2819 30.9206 27.5107 30.6387 27.5107H14C12.1926 27.51 10.7002 28.8925 10.5264 30.6553C10.5 30.9203 10.2847 31.1492 10 31.1494C9.72203 31.1493 9.48107 30.9212 9.50488 30.6279C9.69496 28.3147 11.6386 26.4894 14 26.4893H30.6387Z" fill="black"/>
<path d="M30.6387 28.4893C30.9204 28.4893 31.1491 28.7183 31.1494 29C31.1494 29.2819 30.9206 29.5107 30.6387 29.5107H13.999C13.2902 29.5103 12.6937 30.0093 12.5449 30.6748C12.4908 30.9173 12.2875 31.1492 12 31.1494C11.7258 31.1493 11.4722 30.921 11.5186 30.6182C11.703 29.4142 12.7458 28.4894 14 28.4893H30.6387Z" fill="black"/>
<path d="M21 16.8496C21.2819 16.8496 21.5107 17.0785 21.5107 17.3604L21.5098 18.6396C21.5096 18.9212 21.2815 19.1493 21 19.1494C20.7184 19.1493 20.4893 18.9212 20.4893 18.6396V17.3604C20.4894 17.0787 20.7184 16.8498 21 16.8496Z" fill="black"/>
<path d="M21 12.8496C21.2819 12.8496 21.5107 13.0785 21.5107 13.3604L21.5098 14.6396C21.5096 14.9212 21.2815 15.1493 21 15.1494C20.7184 15.1493 20.4893 14.9212 20.4893 14.6396V13.3604C20.4894 13.0787 20.7184 12.8498 21 12.8496Z" fill="black"/>
<path d="M17 8.84961C17.2813 8.8498 17.5094 9.07811 17.5098 9.35938V10.6396C17.5098 10.9212 17.2815 11.1492 17 11.1494C16.7184 11.1493 16.4893 10.9212 16.4893 10.6396V9.35938C16.4896 9.07808 16.7187 8.84974 17 8.84961Z" fill="black"/>
<path d="M21 8.84961C21.2819 8.84961 21.5107 9.07852 21.5107 9.36035L21.5098 10.6396C21.5096 10.9212 21.2815 11.1493 21 11.1494C20.7184 11.1493 20.4893 10.9212 20.4893 10.6396V9.36035C20.4894 9.07872 20.7184 8.84977 21 8.84961Z" fill="black"/>
<path d="M1 5.48926C2.38356 5.48945 3.50958 6.61643 3.50977 8C3.50958 8.28156 3.28156 8.50958 3 8.50977C2.71839 8.50963 2.48945 8.2816 2.48926 8C2.48907 7.17912 1.82088 6.50996 1 6.50977C0.718386 6.50963 0.489447 6.2816 0.489258 6C0.489448 5.7184 0.718386 5.48939 1 5.48926Z" fill="black"/>
<path d="M1 2.48926C1.28156 2.48945 1.50958 2.71844 1.50977 3C1.50996 3.54492 1.95507 3.98913 2.5 3.98926C3.60751 3.98945 4.50958 4.89138 4.50977 6C4.50958 6.28156 4.28156 6.50958 4 6.50977C3.71839 6.50963 3.48945 6.2816 3.48926 6C3.48907 5.45512 3.04488 5.00996 2.5 5.00977C1.39239 5.00963 0.489449 4.1076 0.489258 3C0.489448 2.7184 0.718386 2.48939 1 2.48926Z" fill="black"/>
</g>
<defs>
<clipPath id="clip0_120_784">
<rect width="32" height="32" fill="white"/>
</clipPath>
</defs>
</svg>
