<svg width="32" height="32" viewBox="0 0 32 32" fill="none" xmlns="http://www.w3.org/2000/svg">
<path d="M25.3838 22.4844C25.5831 22.2852 25.9061 22.2854 26.1055 22.4844C26.3048 22.6837 26.3048 23.0066 26.1055 23.2061L21.2324 28.0801H24.6396C24.9212 28.0801 25.1493 28.3093 25.1494 28.5908C25.1492 28.8723 24.9212 29.1006 24.6396 29.1006H19.4893V23.9502C19.4895 23.6688 19.7186 23.4406 20 23.4404C20.2813 23.4406 20.5095 23.6689 20.5098 23.9502V27.3584L25.3838 22.4844Z" fill="black"/>
<path fill-rule="evenodd" clip-rule="evenodd" d="M29.1064 0.808594C29.3387 0.856257 29.5145 1.06233 29.5146 1.30859V11.0088C29.5146 11.0222 29.5118 11.0357 29.5107 11.0488V30.4902H30.6396C30.9213 30.4902 31.1504 30.7183 31.1504 31C31.1504 31.2817 30.9213 31.5098 30.6396 31.5098H1.36035C1.07869 31.5098 0.849609 31.2817 0.849609 31C0.849609 30.7183 1.07869 30.4902 1.36035 30.4902H2.49023V10.3604C2.49023 10.0787 2.71833 9.84961 3 9.84961C3.28166 9.84961 3.50977 10.0787 3.50977 10.3604V19.2012L5.02344 19.2031C4.66767 18.8791 4.42973 18.3883 4.38379 17.8418L4.38281 17.835L4.38379 17.834L4.37598 17.6494L4.375 17.6436V14.6016C4.3752 13.5961 5.02214 12.7269 5.8916 12.6484V12.291C5.8918 12.0366 6.06806 11.7789 6.34082 11.7783H8.30273L8.3125 11.7803L8.37305 11.7881L8.38184 11.7891L8.38965 11.791C8.60747 11.8455 8.74202 12.0647 8.74219 12.291V12.6484C9.61213 12.7264 10.2586 13.5958 10.2588 14.6016V17.6494L10.251 17.835V17.8418C10.2046 18.3931 9.96267 18.8871 9.60156 19.2109L10.7373 19.2139C11.0181 19.2146 11.2471 19.443 11.2471 19.7246L11.2363 19.8271C11.1884 20.0596 10.9818 20.2347 10.7354 20.2344L3.50977 20.2217V30.4902H11.4893V25.5908C11.4894 25.3092 11.7184 25.0802 12 25.0801H16.4893V20.5908C16.4894 20.3092 16.7184 20.0802 17 20.0801H21.4893V15.5908C21.4894 15.3092 21.7184 15.0802 22 15.0801H28.4902V10.3604C28.4902 10.3475 28.4932 10.3349 28.4941 10.3223V1.30859C28.4943 1.02757 28.7222 0.798121 29.0039 0.797852L29.1064 0.808594ZM22.5098 20.5908C22.5096 20.8724 22.2816 21.1004 22 21.1006H17.5098V25.5908C17.5096 25.8724 17.2816 26.1004 17 26.1006H12.5098V30.4902H28.4902V16.1006H22.5098V20.5908ZM6.01953 13.6611C5.81834 13.6613 5.39571 13.9254 5.39551 14.6016V17.6436L5.40039 17.7656C5.44761 18.352 5.83087 18.5838 6.01953 18.584H8.61523L8.69922 18.5713C8.89939 18.5159 9.19251 18.2743 9.2334 17.7656L9.23828 17.6436V14.6016C9.23811 14.0094 8.91472 13.7335 8.69922 13.6738L8.61523 13.6611H6.01953Z" fill="black"/>
<path d="M8.85156 2.88965C8.98632 2.64218 9.29689 2.55133 9.54395 2.68555L18.1006 7.33398C18.3478 7.46845 18.4396 7.77815 18.3057 8.02539L18.2471 8.11035C18.233 8.12708 18.217 8.14168 18.2012 8.15625C18.2407 8.22859 18.2655 8.3102 18.2656 8.39844L18.2549 8.50098C18.2073 8.73353 18.0014 8.90918 17.7549 8.90918H3.14062C2.89419 8.90906 2.68813 8.73349 2.64062 8.50098L2.62988 8.39844C2.63015 8.11674 2.85958 7.8888 3.14062 7.88867H16.9834L9.05664 3.58203C8.84012 3.46429 8.74324 3.21138 8.8125 2.98438L8.85156 2.88965Z" fill="black"/>
<path d="M3.10254 0.808594C3.33492 0.856145 3.51053 1.0623 3.51074 1.30859V6.44531C3.51074 6.69174 3.33497 6.89766 3.10254 6.94531L3 6.95605C2.71822 6.95579 2.49023 6.72647 2.49023 6.44531V1.30859C2.49048 1.02764 2.71837 0.798121 3 0.797852L3.10254 0.808594Z" fill="black"/>
</svg>
