<svg viewBox="0 0 32 32" xmlns="http://www.w3.org/2000/svg" xmlns:xlink="http://www.w3.org/1999/xlink" width="32.000000" height="32.000000" fill="none">
	<rect id="119_podval" width="32.000000" height="32.000000" x="0.000000" y="0.000000" />
	<rect id="Icon/Controller/119_podval" width="32.000000" height="32.000000" x="0.000000" y="0.000000" />
	<path id="Icon" d="M29.5146 1.30859C29.5145 1.06233 29.3387 0.856257 29.1065 0.808594L29.0039 0.797852C28.7222 0.79812 28.4943 1.02757 28.4941 1.30859L28.4941 10.3223C28.4932 10.3349 28.4902 10.3475 28.4902 10.3603L28.4902 15.0801L22 15.0801C21.7183 15.0802 21.4894 15.3091 21.4893 15.5908L21.4893 20.0801L17 20.0801C16.7183 20.0802 16.4894 20.3091 16.4893 20.5908L16.4893 25.0801L12 25.0801C11.7183 25.0802 11.4894 25.3091 11.4893 25.5908L11.4893 30.4902L3.50976 30.4902L3.50976 20.2217L10.7354 20.2344C10.9818 20.2347 11.1884 20.0597 11.2363 19.8271L11.2471 19.7246C11.2471 19.443 11.0181 19.2146 10.7373 19.2139L9.60154 19.2109C9.96268 18.8871 10.2046 18.3931 10.251 17.8418L10.251 17.835L10.2588 17.6494L10.2588 14.6015C10.2586 13.5958 9.61211 12.7264 8.74217 12.6485L8.74217 12.291C8.742 12.0647 8.60748 11.8455 8.38966 11.791L8.38183 11.7891L8.37303 11.7881L8.31251 11.7803L8.30274 11.7783L6.3408 11.7783C6.06806 11.7789 5.89177 12.0366 5.8916 12.291L5.8916 12.6485C5.02213 12.727 4.3752 13.5961 4.375 14.6015L4.375 17.6435L4.37598 17.6494L4.38379 17.834L4.38281 17.835L4.38379 17.8418C4.42972 18.3883 4.66767 18.8791 5.02344 19.2031L3.50976 19.2012L3.50976 10.3603C3.50976 10.0787 3.28166 9.8496 3 9.8496C2.71834 9.8496 2.49023 10.0787 2.49023 10.3603L2.49023 30.4902L1.36035 30.4902C1.07868 30.4902 0.849609 30.7183 0.849609 31C0.849609 31.2817 1.07868 31.5098 1.36035 31.5098L30.6397 31.5098C30.9213 31.5098 31.1504 31.2817 31.1504 31C31.1504 30.7183 30.9213 30.4902 30.6397 30.4902L29.5107 30.4902L29.5107 11.0488C29.5118 11.0357 29.5146 11.0222 29.5146 11.0088L29.5146 1.30859ZM3.51074 1.30859C3.51052 1.0623 3.33491 0.856143 3.10254 0.808594L3 0.797852C2.71837 0.79812 2.49048 1.02764 2.49023 1.30859L2.49023 6.44531C2.49023 6.72646 2.71822 6.95577 3 6.95606L3.10254 6.94531C3.33497 6.89766 3.51074 6.69177 3.51074 6.44531L3.51074 1.30859ZM8.85154 2.88965C8.98634 2.64218 9.29691 2.55133 9.54394 2.68555L18.1006 7.334C18.3478 7.46846 18.4395 7.77817 18.3057 8.02537L18.2471 8.11034C18.233 8.12709 18.217 8.14166 18.2012 8.15623C18.2407 8.22857 18.2655 8.31023 18.2656 8.39846L18.2549 8.50097C18.2073 8.73354 18.0014 8.9092 17.7549 8.9092L3.14062 8.9092C2.89419 8.90909 2.68814 8.73349 2.64062 8.50097L2.62988 8.39846C2.63015 8.11674 2.85958 7.8888 3.14062 7.88869L16.9834 7.88869L9.05663 3.58203C8.84011 3.46429 8.74326 3.21138 8.81251 2.98438L8.85154 2.88965ZM5.39551 14.6015C5.3957 13.9254 5.81834 13.6614 6.01954 13.6611L8.61526 13.6611L8.6992 13.6738C8.91474 13.7335 9.23811 14.0094 9.23828 14.6015L9.23828 17.6435L9.23337 17.7656C9.19251 18.2743 8.89937 18.5159 8.6992 18.5713L8.61526 18.584L6.01954 18.584C5.83086 18.5838 5.44762 18.352 5.40039 17.7656L5.39551 17.6435L5.39551 14.6015ZM22 21.1006C22.2815 21.1004 22.5096 20.8724 22.5098 20.5908L22.5098 16.1006L28.4902 16.1006L28.4902 30.4902L12.5098 30.4902L12.5098 26.1006L17 26.1006C17.2815 26.1004 17.5096 25.8724 17.5098 25.5908L17.5098 21.1006L22 21.1006ZM25.3838 22.4844C25.5831 22.2852 25.9061 22.2854 26.1055 22.4844C26.3049 22.6838 26.3047 23.0066 26.1055 23.2061L21.2324 28.0801L24.6397 28.0801C24.9213 28.0801 25.1493 28.3093 25.1494 28.5908C25.1492 28.8723 24.9212 29.1006 24.6397 29.1006L19.4893 29.1006L19.4893 23.9502C19.4895 23.6689 19.7186 23.4406 20 23.4405C20.2813 23.4406 20.5095 23.6689 20.5098 23.9502L20.5098 27.3584L25.3838 22.4844Z" fill="rgb(0,0,0)" fill-rule="evenodd" />
</svg>
