<svg width="32" height="32" viewBox="0 0 32 32" fill="none" xmlns="http://www.w3.org/2000/svg">
<g clip-path="url(#clip0_120_754)">
<path d="M29.0806 13.9931C29.3616 13.9932 29.591 14.2212 29.5913 14.5029L29.5806 14.6054C29.5331 14.8379 29.327 15.0135 29.0806 15.0136H19.3687V20.9999C19.3685 21.2816 19.1405 21.5105 18.8589 21.5107H14.3687V25.9999C14.3685 26.2816 14.1405 26.5105 13.8589 26.5107H9.36865V30.4902H28.4897V16.3613C28.4897 16.0793 28.7186 15.8505 29.0005 15.8505C29.2824 15.8505 29.5112 16.0793 29.5112 16.3613V30.4902H30.6401C30.9216 30.4903 31.1497 30.7185 31.1499 30.9999C31.1497 31.2814 30.9216 31.5106 30.6401 31.5107H1.35986C1.07838 31.5106 0.85028 31.2814 0.850098 30.9999C0.850313 30.7185 1.0784 30.4903 1.35986 30.4902H2.48975V16.3603C2.48977 16.0786 2.71884 15.8505 3.00049 15.8505C3.2819 15.8508 3.51023 16.0788 3.51025 16.3603V30.4902H8.34912V25.9999C8.34931 25.7183 8.57717 25.4902 8.85889 25.4902H13.3491V20.9999C13.3493 20.7183 13.5772 20.4902 13.8589 20.4902H18.3491V14.5038C18.3491 14.2222 18.5772 13.9941 18.8589 13.9941H18.8608C18.8647 13.994 18.8687 13.9931 18.8726 13.9931H29.0806ZM26.9155 21.6406C26.9152 21.9219 26.6861 22.1502 26.4048 22.1503C26.1235 22.1501 25.8953 21.9219 25.895 21.6406V18.2324L21.021 23.1064C20.8217 23.3055 20.4987 23.3053 20.2993 23.1064C20.0999 22.907 20.1 22.5841 20.2993 22.3847L25.1724 17.5107H21.7651C21.4836 17.5107 21.2555 17.2815 21.2554 16.9999C21.2556 16.7184 21.4836 16.4902 21.7651 16.4902H26.9155V21.6406ZM7.0874 10.1747C7.28213 9.97107 7.60567 9.96404 7.80908 10.1581L11.9536 14.1132C12.1566 14.3073 12.1651 14.63 11.9712 14.8339L11.8921 14.9013C11.8612 14.9227 11.8275 14.9382 11.7935 14.9521C11.7222 14.9902 11.6417 15.0135 11.5552 15.0136H3.09814C2.8516 15.0136 2.64567 14.838 2.59814 14.6054L2.5874 14.5029C2.5877 14.2211 2.817 13.9931 3.09814 13.9931H10.3491L7.104 10.8964C6.92583 10.7262 6.89877 10.4568 7.0249 10.2558L7.0874 10.1747ZM15.647 0.632751C15.847 0.440418 16.1627 0.442444 16.3599 0.639587L16.3765 0.656189C16.3816 0.660323 16.388 0.663541 16.3931 0.667908L31.064 13.3271C31.2767 13.511 31.3003 13.8337 31.1167 14.0468L31.0415 14.1171C30.8539 14.2619 30.5838 14.2604 30.397 14.0995L16.0171 1.69135L1.60498 14.1494C1.40312 14.3237 1.10031 14.3125 0.911621 14.124C0.702891 13.915 0.714869 13.5724 0.937988 13.3788L15.647 0.632751Z" fill="black"/>
</g>
<defs>
<clipPath id="clip0_120_754">
<rect width="32" height="32" fill="white"/>
</clipPath>
</defs>
</svg>
