<svg width="32" height="32" viewBox="0 0 32 32" fill="none" xmlns="http://www.w3.org/2000/svg">
<path d="M22.0557 25.1416C22.3366 25.1419 22.5661 25.3698 22.5664 25.6514L22.5557 25.7539C22.5082 25.9863 22.302 26.1619 22.0557 26.1621H16.1572C15.9107 26.1621 15.7048 25.9864 15.6572 25.7539L15.6465 25.6514C15.6468 25.3696 15.8761 25.1416 16.1572 25.1416H22.0557Z" fill="black"/>
<path fill-rule="evenodd" clip-rule="evenodd" d="M11.9014 22.2129C13.2398 22.2132 14.326 23.2982 14.3262 24.6367V25.5762C14.3258 25.8518 14.1017 26.0757 13.8262 26.0762H11.4092C10.3426 26.0762 9.47782 25.2111 9.47754 24.1445C9.47754 23.0778 10.3424 22.2129 11.4092 22.2129H11.9014ZM11.4092 23.2129C10.8947 23.2129 10.4775 23.63 10.4775 24.1445L10.4824 24.2393C10.5302 24.7088 10.9267 25.0752 11.4092 25.0752H13.3252V24.6367C13.325 23.8504 12.6875 23.2132 11.9014 23.2129H11.4092Z" fill="black"/>
<path fill-rule="evenodd" clip-rule="evenodd" d="M27.0771 22.2129C28.1439 22.2129 29.0088 23.0778 29.0088 24.1445C29.0085 25.2111 28.1438 26.0762 27.0771 26.0762H24.6602C24.3844 26.076 24.1605 25.852 24.1602 25.5762V24.6367C24.1604 23.298 25.2463 22.2129 26.585 22.2129H27.0771ZM26.585 23.2129C25.7986 23.2129 25.1613 23.8503 25.1611 24.6367V25.0752H27.0771C27.5596 25.0752 27.9561 24.7088 28.0039 24.2393L28.0088 24.1445C28.0088 23.63 27.5916 23.2129 27.0771 23.2129H26.585Z" fill="black"/>
<path d="M22.0557 23.125C22.3366 23.1253 22.5661 23.3532 22.5664 23.6348L22.5557 23.7373C22.5082 23.9697 22.302 24.1453 22.0557 24.1455H16.1572C15.9107 24.1455 15.7048 23.9699 15.6572 23.7373L15.6465 23.6348C15.6468 23.3531 15.8761 23.125 16.1572 23.125H22.0557Z" fill="black"/>
<path fill-rule="evenodd" clip-rule="evenodd" d="M8.83398 3.80176C10.3796 3.80202 11.6375 5.05933 11.6377 6.60547C11.6376 8.15163 10.3796 9.40891 8.83398 9.40918H6.66504V12.1602H5.61621V4.32617C5.61638 4.03676 5.85115 3.80176 6.14062 3.80176H8.83398ZM6.66504 8.35938H8.83398C9.80103 8.35911 10.5888 7.57239 10.5889 6.60547L10.5801 6.42676C10.4901 5.54328 9.74061 4.85083 8.83398 4.85059H6.66504V8.35938Z" fill="black"/>
<path fill-rule="evenodd" clip-rule="evenodd" d="M1.50879 0.823242C1.79057 0.823512 2.01855 1.05282 2.01855 1.33398V4.98535C3.05147 2.5859 5.43891 0.901367 8.21289 0.901367C11.9293 0.901835 14.953 3.9251 14.9531 7.6416C14.9529 11.358 11.9293 14.3814 8.21289 14.3818C5.43851 14.3818 3.05123 12.697 2.01855 10.2969V29.8965H9.55664C9.03411 29.5389 8.66976 28.9698 8.58301 28.3125H7.6543C7.37812 28.3125 7.15465 28.0881 7.1543 27.8125V22.2744C7.15434 21.0411 8.04783 20.0181 9.22266 19.8135C9.45653 17.0602 11.7644 14.8985 14.5781 14.8984H23.6328C26.4466 14.8984 28.7543 17.0602 28.9883 19.8135C30.1634 20.0178 31.0576 21.0408 31.0576 22.2744V27.8125C31.0573 28.0881 30.8334 28.3122 30.5576 28.3125H29.6279C29.5411 28.9699 29.177 29.5389 28.6543 29.8965H30.4912C30.7724 29.8965 31.0017 30.1245 31.002 30.4062L30.9912 30.5088C30.9436 30.7413 30.7377 30.917 30.4912 30.917H1.50879C1.47465 30.917 1.44145 30.9127 1.40918 30.9062H1.40625C1.3999 30.905 1.39395 30.9019 1.3877 30.9004C1.339 30.8885 1.29308 30.8705 1.25098 30.8457C1.23353 30.8355 1.21722 30.8237 1.20117 30.8115C1.19468 30.8066 1.18788 30.8021 1.18164 30.7969C1.1795 30.7951 1.17692 30.7938 1.1748 30.792L1.12305 30.7402C1.12092 30.7378 1.11927 30.7349 1.11719 30.7324C1.10924 30.7229 1.10295 30.7122 1.0957 30.7021C1.08728 30.6904 1.07774 30.6795 1.07031 30.667C1.05845 30.6472 1.04917 30.626 1.04004 30.6045C1.03782 30.5993 1.03525 30.5942 1.0332 30.5889C1.02503 30.5677 1.01899 30.5459 1.01367 30.5234C1.01249 30.5185 1.00982 30.5138 1.00879 30.5088L1.00781 30.5049C1.00152 30.473 0.998059 30.44 0.998047 30.4062V1.33398C0.998047 1.08745 1.17368 0.881523 1.40625 0.833984L1.50879 0.823242ZM15.3535 28.3125C15.2668 28.9698 14.9024 29.5389 14.3799 29.8965H23.832C23.3093 29.5389 22.9452 28.9699 22.8584 28.3125H15.3535ZM9.66504 28.5117C9.84628 28.9392 10.2513 29.2484 10.7334 29.29L10.8447 29.2949H13.0928C13.6232 29.2946 14.0776 28.9718 14.2725 28.5117H9.66504ZM23.9395 28.5117C24.1207 28.9393 24.5256 29.2484 25.0078 29.29L25.1191 29.2949H27.3672C27.8977 29.2948 28.3519 28.9718 28.5469 28.5117H23.9395ZM9.6543 20.7744C8.8259 20.7744 8.15435 21.446 8.1543 22.2744V27.3115H30.0566V22.2744C30.0566 21.4979 29.467 20.8592 28.7109 20.7822L28.5576 20.7744H28.5137L28.5088 20.7754H9.70215C9.69855 20.7754 9.69498 20.7745 9.69141 20.7744H9.6543ZM14.5781 15.8984C12.3306 15.8985 10.4806 17.5932 10.2324 19.7744H27.9785C27.7304 17.5932 25.8804 15.8984 23.6328 15.8984H14.5781ZM8.21289 1.9502C5.0748 1.9502 2.52163 4.50355 2.52148 7.6416L2.52832 7.93359C2.68105 10.9361 5.17276 13.332 8.21289 13.332L8.50488 13.3252C11.507 13.1723 13.9031 10.6814 13.9033 7.6416L13.8965 7.34961C13.7488 4.44367 11.4104 2.10507 8.50488 1.95703L8.21289 1.9502Z" fill="black"/>
</svg>
