<svg width="32" height="32" viewBox="0 0 32 32" fill="none" xmlns="http://www.w3.org/2000/svg">
<path d="M9.29785 13.7314C9.57901 13.7314 9.80832 13.9594 9.80859 14.2412L9.79785 14.3438C9.75029 14.5763 9.54437 14.752 9.29785 14.752H7.66406C7.41755 14.752 7.21162 14.5763 7.16406 14.3438L7.15332 14.2412C7.15359 13.9594 7.3829 13.7314 7.66406 13.7314H9.29785Z" fill="black"/>
<path fill-rule="evenodd" clip-rule="evenodd" d="M13.4609 11.0312C14.8468 11.0318 15.9707 12.1561 15.9707 13.542V16.6885H30.6436C30.9252 16.6885 31.1542 16.9176 31.1543 17.1992V19.1211C31.1543 19.4028 30.9252 19.6318 30.6436 19.6318H29.4746V30.6436C29.4746 30.9247 29.2467 31.1541 28.9648 31.1543H3.03516C2.75349 31.1543 2.52441 30.9252 2.52441 30.6436V19.6318H1.35547C1.0738 19.6318 0.844727 19.4028 0.844727 19.1211V17.1992C0.844809 16.9176 1.07385 16.6885 1.35547 16.6885H4.65137V13.542C4.65137 12.1558 5.77587 11.0312 7.16211 11.0312H13.4609ZM3.5459 30.1338H28.4541V19.6318H3.5459V30.1338ZM1.86621 18.6104H30.1338V17.709H15.4707C15.4675 17.7091 15.4642 17.71 15.4609 17.71H5.16211C5.15901 17.71 5.15543 17.709 5.15234 17.709H1.86621V18.6104ZM7.16211 12.0518C6.33932 12.0518 5.67285 12.719 5.67285 13.542V16.6885H14.9502V13.542C14.9502 12.7708 14.3641 12.1364 13.6133 12.0596L13.4609 12.0518H7.16211Z" fill="black"/>
<path d="M26.5186 15.1299C26.8001 15.13 27.0281 15.3584 27.0283 15.6396L27.0176 15.7422C26.9703 15.9744 26.7654 16.1503 26.5186 16.1504H19.3135C19.0669 16.1504 18.861 15.9748 18.8135 15.7422L18.8027 15.6396C18.803 15.3579 19.0323 15.1299 19.3135 15.1299H26.5186Z" fill="black"/>
<path d="M26.5186 13.5C26.8 13.5001 27.028 13.7286 27.0283 14.0098L27.0176 14.1123C26.9703 14.3445 26.7654 14.5204 26.5186 14.5205H19.3135C19.0669 14.5205 18.861 14.3449 18.8135 14.1123L18.8027 14.0098C18.8031 13.7281 19.0324 13.5 19.3135 13.5H26.5186Z" fill="black"/>
<path d="M26.5186 11.8701C26.8 11.8702 27.0279 12.0988 27.0283 12.3799L27.0176 12.4824C26.9703 12.7147 26.7654 12.8905 26.5186 12.8906H19.3135C19.0669 12.8906 18.861 12.715 18.8135 12.4824L18.8027 12.3799C18.8032 12.0983 19.0324 11.8701 19.3135 11.8701H26.5186Z" fill="black"/>
<path fill-rule="evenodd" clip-rule="evenodd" d="M10.4697 3.91895L10.4736 3.91992C12.1419 4.00463 13.4688 5.38407 13.4688 7.07324V7.07715L13.4648 7.23145L13.4639 7.23535C13.3791 8.9033 12.0004 10.2302 10.3115 10.2305H10.3076L10.1523 10.2266L10.1484 10.2256C8.53414 10.1436 7.24029 8.84962 7.1582 7.23535L7.15723 7.23145L7.15332 7.07715V7.07324C7.15332 5.3295 8.56778 3.91504 10.3115 3.91504H10.3154L10.4697 3.91895ZM10.3115 4.93555C9.13111 4.93555 8.17383 5.89283 8.17383 7.07324L8.18457 7.29199C8.29454 8.36929 9.20518 9.20996 10.3115 9.20996L10.5303 9.19922C11.6075 9.08943 12.4479 8.1793 12.4482 7.07324L12.4375 6.85449C12.3352 5.84882 11.5358 5.04883 10.5303 4.94629L10.3115 4.93555Z" fill="black"/>
<path d="M26.9766 4.0293C27.1547 3.81208 27.4762 3.77891 27.6943 3.95703L27.7666 4.03027C27.9165 4.21435 27.9218 4.48498 27.7656 4.67578L26.9727 5.64453C26.8166 5.83523 26.5509 5.88376 26.3408 5.77344L26.2539 5.7168C26.0362 5.53814 26.0057 5.21654 26.1836 4.99902L26.9766 4.0293Z" fill="black"/>
<path fill-rule="evenodd" clip-rule="evenodd" d="M26.7295 1.82617L26.7334 1.82715C28.6167 1.92292 30.1141 3.47977 30.1143 5.38672V5.38965L30.1104 5.56543L30.1094 5.57031C30.0136 7.45363 28.4567 8.95102 26.5498 8.95117H26.5469L26.3711 8.94727L26.3662 8.94629C24.5435 8.85388 23.0829 7.39292 22.9902 5.57031L22.9893 5.56641L22.9844 5.39062V5.38672C22.9845 3.41808 24.5811 1.82129 26.5498 1.82129H26.5537L26.7295 1.82617ZM26.5498 2.8418C25.1445 2.8418 24.005 3.98141 24.0049 5.38672L24.0176 5.64648C24.1479 6.92971 25.2321 7.93066 26.5498 7.93066L26.8096 7.91797C28.0927 7.78773 29.0936 6.70423 29.0938 5.38672L29.0811 5.12695C28.9595 3.92907 28.0073 2.97612 26.8096 2.85449L26.5498 2.8418Z" fill="black"/>
</svg>
