<svg width="32" height="32" viewBox="0 0 32 32" fill="none" xmlns="http://www.w3.org/2000/svg">
<path d="M17.6609 15.9813C17.9419 15.9815 18.1714 16.2094 18.1716 16.4911L18.1609 16.5936C18.1133 16.8261 17.9073 17.0017 17.6609 17.0018H16.9031C16.6566 17.0018 16.4507 16.8261 16.4031 16.5936L16.3923 16.4911C16.3926 16.2093 16.6219 15.9813 16.9031 15.9813H17.6609Z" fill="black"/>
<path d="M17.1179 12.1483C17.399 12.1483 17.6283 12.3764 17.6287 12.6581L17.6179 12.7606C17.5704 12.9932 17.3645 13.1688 17.1179 13.1688H14.8816C14.6351 13.1687 14.4291 12.9931 14.3816 12.7606L14.3708 12.6581C14.3712 12.3765 14.6006 12.1485 14.8816 12.1483H17.1179Z" fill="black"/>
<path fill-rule="evenodd" clip-rule="evenodd" d="M30.4705 1.81727C30.7451 1.75735 31.0185 1.93078 31.0788 2.20594L31.0896 2.30848C31.0927 2.54586 30.9291 2.76179 30.6882 2.81434L21.9431 4.72059V22.6015L24.2566 24.5419V8.91395C24.2568 8.51866 24.5243 8.17231 24.907 8.07215L29.0535 6.98915C29.6046 6.8452 30.1439 7.26156 30.1443 7.83094V28.8925L30.1433 28.9032L30.1355 29.0136L30.1365 29.0145L30.1345 29.0263C30.1156 29.1527 30.0697 29.2664 30.0056 29.3651L30.9685 30.1727C31.1836 30.3535 31.2127 30.6755 31.032 30.8915L30.9578 30.9628C30.7719 31.1104 30.5011 31.1132 30.3122 30.955L21.1853 23.2977C21.1569 23.2739 21.1329 23.2468 21.1111 23.2186C21.1071 23.2154 21.1032 23.2122 21.0994 23.2089H10.8484C10.8449 23.2119 10.8412 23.2147 10.8376 23.2177C10.8157 23.246 10.792 23.2738 10.7634 23.2977L1.63744 30.955C1.44858 31.1134 1.17783 31.1104 0.991937 30.9628L0.917718 30.8915C0.736822 30.6754 0.765795 30.3534 0.981194 30.1727L1.97338 29.3397C1.91774 29.2471 1.87736 29.142 1.8601 29.0263L1.85815 29.0145L1.85912 29.0136L1.85131 28.9032L1.85034 28.8925V7.83094C1.85069 7.26166 2.39007 6.84543 2.94116 6.98915L7.08764 8.07215C7.47045 8.17225 7.73778 8.5186 7.73803 8.91395V24.5038L10.0056 22.6024V4.72059L1.26049 2.81434C1.01982 2.76164 0.855977 2.54573 0.859124 2.30848L0.870843 2.20594C0.931263 1.93089 1.2037 1.75746 1.47826 1.81727L10.5486 3.79579C10.5637 3.7944 10.579 3.7919 10.5945 3.79188H21.4138L30.4705 1.81727ZM2.87084 28.5702L6.71752 25.3427V9.02919L2.87084 8.02528V28.5702ZM25.2771 9.02919V25.3427L29.1238 28.5702V8.02528L25.2771 9.02919ZM11.0261 22.1884H12.3035V8.99501C12.3036 8.51478 12.6933 8.12507 13.1736 8.12489H18.8347L18.8415 8.12587L18.9871 8.14051L18.9949 8.14149L19.0027 8.14344C19.3987 8.22494 19.6969 8.57497 19.697 8.99501V22.1884H20.9226V4.81239H11.0261V22.1884ZM13.324 22.0809H18.6765V9.1454H13.324V22.0809Z" fill="black"/>
</svg>
