<svg width="32" height="32" viewBox="0 0 32 32" fill="none" xmlns="http://www.w3.org/2000/svg">
<g clip-path="url(#clip0_120_708)">
<path d="M7 3.21777C7.28111 3.21781 7.51037 3.44592 7.51074 3.72754V22.9072C7.51074 23.1889 7.28161 23.4179 7 23.418C6.71833 23.418 6.48926 23.1889 6.48926 22.9072V3.72852C6.48926 3.44685 6.71833 3.21777 7 3.21777Z" fill="black"/>
<path fill-rule="evenodd" clip-rule="evenodd" d="M16.1523 13.1074C16.9051 13.1842 17.4941 13.8221 17.4941 14.5947C17.4937 15.3671 16.9042 16.0043 16.1523 16.0811L16 16.0889C15.1767 16.0888 14.5063 15.4187 14.5059 14.5947C14.5059 13.7706 15.1756 13.0997 16 13.0996L16.1523 13.1074ZM16 14.1631C15.7626 14.1632 15.5684 14.3574 15.5684 14.5947L15.5771 14.6807C15.6176 14.8768 15.7922 15.0253 16 15.0254L16.0869 15.0166C16.2829 14.9759 16.4313 14.8017 16.4316 14.5947L16.4229 14.5078C16.388 14.34 16.2549 14.2068 16.0869 14.1719L16 14.1631Z" fill="black"/>
<path fill-rule="evenodd" clip-rule="evenodd" d="M16.1543 3.54102C17.7427 3.6216 19.0107 4.93975 19.0107 6.54785C19.0106 8.1559 17.7426 9.47317 16.1543 9.55371L16 9.55762C14.3403 9.55754 12.9904 8.20753 12.9902 6.54785C12.9902 4.88811 14.3402 3.53719 16 3.53711L16.1543 3.54102ZM16 4.55762C14.903 4.55769 14.0107 5.45066 14.0107 6.54785L14.0205 6.75098C14.1227 7.75296 14.9715 8.53704 16 8.53711C17.0971 8.53711 17.9901 7.64484 17.9902 6.54785L17.9805 6.34473C17.8783 5.34251 17.0286 4.55762 16 4.55762Z" fill="black"/>
<path d="M25.1025 3.22852C25.3352 3.27591 25.5117 3.48129 25.5117 3.72852L25.5107 22.9072C25.5107 23.1889 25.2816 23.4179 25 23.418C24.7183 23.418 24.4893 23.1889 24.4893 22.9072V3.72852C24.4893 3.44655 24.7186 3.21811 25 3.21777L25.1025 3.22852Z" fill="black"/>
<path fill-rule="evenodd" clip-rule="evenodd" d="M30.7842 0.857422C31.0654 0.857422 31.2945 1.08572 31.2949 1.36719L31.2842 1.46973C31.2367 1.70232 31.0307 1.87793 30.7842 1.87793H28.5107V24.7568H29C29.2818 24.7569 29.5107 24.9857 29.5107 25.2676V27.1221H30.6279C30.9098 27.1221 31.1387 27.351 31.1387 27.6328V30.6328C31.1385 30.9148 30.9093 31.1426 30.6279 31.1426H1.36426C1.08292 31.1426 0.853737 30.9148 0.853516 30.6328V27.6328C0.853516 27.351 1.08242 27.1221 1.36426 27.1221H2.48926V25.2676C2.48926 24.9857 2.71816 24.7568 3 24.7568H3.48926V1.87793H1.21582C0.969274 1.87793 0.763345 1.70232 0.71582 1.46973L0.705078 1.36719C0.705546 1.08572 0.93464 0.857422 1.21582 0.857422H30.7842ZM1.87402 30.1221H30.1172V28.1426H1.87402V30.1221ZM3.51074 27.1221H28.4893V25.7773H3.51074V27.1221ZM4.51074 24.7568H9.48926V1.87793H4.51074V24.7568ZM10.5107 24.7568H14.5781V21.8018C13.9941 21.5197 13.6067 20.9534 13.5586 20.3076L13.5576 20.3027L13.5537 20.1758L13.5527 20.1699L13.5537 18.6113C13.5537 17.9347 13.8258 17.3039 14.3164 16.8379C14.8076 16.3723 15.4531 16.1339 16.1318 16.1689L16.3711 16.1943C17.5494 16.3827 18.4489 17.477 18.4482 18.7217L18.4463 20.1729C18.4446 20.8726 18.0463 21.5 17.4238 21.8027V24.7568H21.4893V1.87793H10.5107V24.7568ZM16.0684 17.2275C15.6824 17.212 15.3233 17.3457 15.0479 17.6064L15.0215 17.6309C14.7597 17.8928 14.6172 18.2378 14.6172 18.6094L14.6162 20.168L14.624 20.2822C14.6632 20.5436 14.8361 20.7654 15.0859 20.8662L15.2852 20.9473C15.3827 20.9869 15.4672 21.0552 15.5273 21.1338L15.5693 21.1973C15.6094 21.2669 15.6406 21.3534 15.6406 21.4512V24.7568H16.3604V21.4512C16.3604 21.2466 16.4787 21.0642 16.6582 20.9756L16.665 20.9697L16.6934 20.959L16.915 20.8691L17.0049 20.8252C17.2052 20.7112 17.3409 20.5125 17.375 20.2852L17.3828 20.1719L17.3838 18.7197C17.3843 17.9714 16.8517 17.3476 16.2061 17.2422L16.0684 17.2275ZM22.5107 24.7568H27.4883V1.87793H22.5107V24.7568Z" fill="black"/>
</g>
<defs>
<clipPath id="clip0_120_708">
<rect width="32" height="32" fill="white"/>
</clipPath>
</defs>
</svg>
