<svg viewBox="0 0 56 56" xmlns="http://www.w3.org/2000/svg" xmlns:xlink="http://www.w3.org/1999/xlink" width="56.000000" height="56.000000" fill="none">
	<rect id="Icon/Controller/124_holl" width="56.000000" height="56.000000" x="0.000000" y="0.000000" />
	<path id="Icon" d="M54.7661 2.39258C54.7653 1.9 54.3644 1.50049 53.8723 1.50049L2.12769 1.50049C1.63562 1.50049 1.23471 1.9 1.23389 2.39258L1.25269 2.57202C1.33585 2.97906 1.69623 3.28638 2.12769 3.28638L6.1062 3.28638L6.1062 43.3245L5.25 43.3245C4.75678 43.3245 4.3562 43.725 4.3562 44.2183L4.3562 47.4636L2.38745 47.4636C1.89423 47.4636 1.49365 47.8642 1.49365 48.3574L1.49365 53.6074C1.49404 54.101 1.89512 54.4995 2.38745 54.4995L53.5989 54.4995C54.0912 54.4995 54.4923 54.101 54.4927 53.6074L54.4927 48.3574C54.4927 47.8642 54.0921 47.4636 53.5989 47.4636L51.6438 47.4636L51.6438 44.2183C51.6438 43.725 51.2431 43.3245 50.75 43.3245L49.8938 43.3245L49.8938 3.28638L53.8723 3.28638C54.3038 3.28638 54.6641 2.97906 54.7473 2.57202L54.7661 2.39258ZM16.6062 3.28638L16.6062 43.3245L7.8938 43.3245L7.8938 3.28638L16.6062 3.28638ZM25.5117 43.3245L18.3938 43.3245L18.3938 3.28638L37.6062 3.28638L37.6062 43.3245L30.4917 43.3245L30.4917 38.1548C31.581 37.625 32.278 36.527 32.281 35.3025L32.2844 32.7629C32.2855 30.5847 30.7115 28.6698 28.6494 28.3401L28.2307 28.2957C27.043 28.2344 25.9133 28.6516 25.0537 29.4663C24.1951 30.2819 23.719 31.3857 23.719 32.5698L23.7173 35.2974L23.719 35.3076L23.7258 35.5298L23.7275 35.5383C23.8118 36.6685 24.4897 37.6594 25.5117 38.1531L25.5117 43.3245ZM48.1045 43.3245L39.3938 43.3245L39.3938 3.28638L48.1045 3.28638L48.1045 43.3245ZM12.25 5.6311C12.7419 5.63117 13.1431 6.03035 13.1438 6.52319L13.1438 40.0876C13.1438 40.5806 12.7428 40.9814 12.25 40.9814C11.7571 40.9814 11.3562 40.5806 11.3562 40.0876L11.3562 6.5249C11.3562 6.03199 11.7571 5.6311 12.25 5.6311ZM43.9294 5.6499C44.3366 5.73285 44.6455 6.09225 44.6455 6.5249L44.6438 40.0876C44.6438 40.5805 44.2428 40.9814 43.75 40.9814C43.2571 40.9814 42.8562 40.5806 42.8562 40.0876L42.8562 6.5249C42.8562 6.03146 43.2575 5.63169 43.75 5.6311L43.9294 5.6499ZM33.2688 11.4587C33.2688 8.64455 31.0498 6.3378 28.27 6.19678L28 6.18994C25.0953 6.19008 22.7329 8.5542 22.7329 11.4587C22.7331 14.3632 25.0955 16.7257 28 16.7258L28.27 16.719C31.0496 16.5781 33.2686 14.2728 33.2688 11.4587ZM24.5188 11.4587C24.5188 9.53866 26.0802 7.97596 28 7.97583C29.8001 7.97583 31.2871 9.3494 31.4658 11.1033L31.4829 11.4587C31.4827 13.3785 29.92 14.9399 28 14.9399C26.2002 14.9398 24.7147 13.5677 24.5359 11.8142L24.5188 11.4587ZM28.2666 22.938C29.584 23.0723 30.6147 24.1886 30.6147 25.5408C30.6141 26.8925 29.5824 28.0075 28.2666 28.1418L28 28.1555C26.5592 28.1554 25.386 26.9826 25.3853 25.5408C25.3853 24.0985 26.5574 22.9245 28 22.9243L28.2666 22.938ZM28 24.7854C27.5845 24.7855 27.2446 25.1254 27.2446 25.5408L27.26 25.6912C27.3309 26.0344 27.6363 26.2943 28 26.2944L28.1521 26.2791C28.4951 26.2079 28.7548 25.903 28.7554 25.5408L28.74 25.3887C28.6791 25.0949 28.4461 24.8619 28.1521 24.8008L28 24.7854ZM26.3337 30.8113C26.8157 30.355 27.4441 30.1211 28.1196 30.1482L28.3606 30.1738C29.4905 30.3584 30.4225 31.4499 30.4216 32.7595L30.4199 35.3008L30.4062 35.499C30.3466 35.8969 30.1091 36.2445 29.7585 36.4441L29.6013 36.521L29.2134 36.6782L29.1638 36.697L29.1519 36.7073C28.8376 36.8623 28.6307 37.1816 28.6306 37.5396L28.6306 43.3245L27.3711 43.3245L27.3711 37.5396C27.371 37.3685 27.3164 37.2171 27.2463 37.0952L27.1729 36.9841C27.0675 36.8467 26.9197 36.7271 26.749 36.6577L26.4004 36.5159C25.9632 36.3394 25.6606 35.9513 25.592 35.4939L25.5784 35.2939L25.5801 32.5664C25.5801 31.9161 25.8295 31.3125 26.2876 30.854L26.3337 30.8113ZM49.8562 45.1104L49.8562 47.4636L6.1438 47.4636L6.1438 45.1104L49.8562 45.1104ZM52.7051 52.7136L3.27954 52.7136L3.27954 49.2495L52.7051 49.2495L52.7051 52.7136Z" fill="rgb(0,0,0)" fill-rule="evenodd" />
</svg>
