<svg viewBox="0 0 32 32" xmlns="http://www.w3.org/2000/svg" xmlns:xlink="http://www.w3.org/1999/xlink" width="32.000000" height="32.000000" fill="none">
	<rect id="124_holl" width="32.000000" height="32.000000" x="0.000000" y="0.000000" />
	<rect id="Icon/Controller/124_holl" width="32.000000" height="32.000000" x="0.000000" y="0.000000" />
	<path id="Icon" d="M31.2949 1.36719C31.2945 1.08571 31.0654 0.857422 30.7842 0.857422L1.21582 0.857422C0.934638 0.857422 0.705547 1.08571 0.705078 1.36719L0.715821 1.46972C0.763341 1.70232 0.969272 1.87793 1.21582 1.87793L3.48926 1.87793L3.48926 24.7569L3 24.7569C2.71816 24.7569 2.48926 24.9857 2.48926 25.2676L2.48926 27.1221L1.36426 27.1221C1.08242 27.1221 0.853512 27.351 0.853512 27.6328L0.853512 30.6328C0.853735 30.9149 1.08292 31.1426 1.36426 31.1426L30.6279 31.1426C30.9093 31.1426 31.1385 30.9149 31.1387 30.6328L31.1387 27.6328C31.1387 27.351 30.9098 27.1221 30.6279 27.1221L29.5107 27.1221L29.5107 25.2676C29.5107 24.9857 29.2818 24.7569 29 24.7569L28.5107 24.7569L28.5107 1.87793L30.7842 1.87793C31.0307 1.87793 31.2366 1.70232 31.2842 1.46972L31.2949 1.36719ZM9.48925 1.87793L9.48925 24.7569L4.51074 24.7569L4.51074 1.87793L9.48925 1.87793ZM14.5781 24.7569L10.5107 24.7569L10.5107 1.87793L21.4893 1.87793L21.4893 24.7569L17.4238 24.7569L17.4238 21.8027C18.0463 21.5 18.4446 20.8726 18.4463 20.1729L18.4482 18.7217C18.4489 17.477 17.5494 16.3827 16.3711 16.1943L16.1318 16.169C15.4531 16.1339 14.8076 16.3723 14.3164 16.8379C13.8258 17.3039 13.5537 17.9347 13.5537 18.6113L13.5527 20.1699L13.5537 20.1758L13.5576 20.3027L13.5586 20.3076C13.6067 20.9534 13.9941 21.5197 14.5781 21.8018L14.5781 24.7569ZM27.4883 24.7569L22.5107 24.7569L22.5107 1.87793L27.4883 1.87793L27.4883 24.7569ZM7 3.21777C7.28108 3.21781 7.51034 3.44591 7.51074 3.72754L7.51074 22.9072C7.51074 23.1889 7.2816 23.4179 7 23.4179C6.71834 23.4179 6.48926 23.1889 6.48926 22.9072L6.48926 3.72851C6.48926 3.44685 6.71834 3.21777 7 3.21777ZM25.1025 3.22851C25.3352 3.27591 25.5117 3.48128 25.5117 3.72851L25.5107 22.9072C25.5107 23.1889 25.2816 23.4179 25 23.4179C24.7183 23.4179 24.4893 23.1889 24.4893 22.9072L24.4893 3.72851C24.4893 3.44655 24.7186 3.21811 25 3.21777L25.1025 3.22851ZM19.0107 6.54783C19.0107 4.93974 17.7427 3.6216 16.1543 3.54102L16 3.53711C14.3402 3.53719 12.9902 4.88811 12.9902 6.54783C12.9903 8.20754 14.3403 9.55754 16 9.5576L16.1543 9.55371C17.7426 9.4732 19.0106 8.15588 19.0107 6.54783ZM14.0107 6.54783C14.0107 5.45066 14.903 4.55769 16 4.55762C17.0286 4.55762 17.8783 5.34251 17.9805 6.34474L17.9902 6.54783C17.9901 7.64486 17.0971 8.53708 16 8.53708C14.9715 8.53703 14.1227 7.75297 14.0205 6.75097L14.0107 6.54783ZM16.1523 13.1074C16.9051 13.1842 17.4941 13.8221 17.4941 14.5947C17.4938 15.3671 16.9042 16.0043 16.1523 16.081L16 16.0889C15.1767 16.0888 14.5063 15.4186 14.5059 14.5947C14.5059 13.7706 15.1757 13.0997 16 13.0996L16.1523 13.1074ZM16 14.1631C15.7626 14.1631 15.5683 14.3574 15.5683 14.5947L15.5771 14.6807C15.6177 14.8768 15.7922 15.0253 16 15.0254L16.0869 15.0166C16.2829 14.9759 16.4313 14.8017 16.4317 14.5947L16.4229 14.5078C16.3881 14.3399 16.2549 14.2068 16.0869 14.1719L16 14.1631ZM15.0478 17.6065C15.3233 17.3457 15.6823 17.2121 16.0683 17.2275L16.2061 17.2422C16.8517 17.3477 17.3843 17.9714 17.3838 18.7197L17.3828 20.1719L17.375 20.2851C17.3409 20.5125 17.2052 20.7111 17.0049 20.8252L16.915 20.8691L16.6934 20.959L16.665 20.9697L16.6582 20.9756C16.4786 21.0642 16.3604 21.2466 16.3603 21.4512L16.3603 24.7569L15.6406 24.7569L15.6406 21.4512C15.6406 21.3534 15.6094 21.2669 15.5693 21.1973L15.5274 21.1338C15.4671 21.0553 15.3827 20.9869 15.2851 20.9473L15.0859 20.8662C14.8361 20.7654 14.6632 20.5436 14.624 20.2822L14.6162 20.1679L14.6172 18.6094C14.6172 18.2378 14.7597 17.8929 15.0215 17.6309L15.0478 17.6065ZM28.4893 25.7774L28.4893 27.1221L3.51074 27.1221L3.51074 25.7774L28.4893 25.7774ZM30.1172 30.1221L1.87402 30.1221L1.87402 28.1426L30.1172 28.1426L30.1172 30.1221Z" fill="rgb(0,0,0)" fill-rule="evenodd" />
</svg>
